%TF.GenerationSoftware,KiCad,Pcbnew,9.0.0*%
%TF.CreationDate,2025-06-03T17:11:20-04:00*%
%TF.ProjectId,mothers_day_necklace,6d6f7468-6572-4735-9f64-61795f6e6563,A*%
%TF.SameCoordinates,Original*%
%TF.FileFunction,Drillmap*%
%TF.FilePolarity,Positive*%
%FSLAX45Y45*%
G04 Gerber Fmt 4.5, Leading zero omitted, Abs format (unit mm)*
G04 Created by KiCad (PCBNEW 9.0.0) date 2025-06-03 17:11:20*
%MOMM*%
%LPD*%
G01*
G04 APERTURE LIST*
%ADD10C,0.050000*%
%ADD11C,0.200000*%
%ADD12C,0.100000*%
%ADD13C,0.500000*%
G04 APERTURE END LIST*
D10*
X9000000Y-10499998D02*
G75*
G02*
X12000000Y-7499998I1500000J1500000D01*
G01*
X12000000Y-7499998D02*
G75*
G02*
X14000000Y-7499998I1000000J0D01*
G01*
X13000000Y-14499998D02*
X17000000Y-10499998D01*
X9000000Y-10499998D02*
X13000000Y-14499998D01*
X14000000Y-7499998D02*
G75*
G02*
X17000000Y-10499998I1500000J-1500000D01*
G01*
D11*
D12*
X11994650Y-9989270D02*
X12024650Y-10019270D01*
X12024650Y-9989270D02*
X11994650Y-10019270D01*
X12088680Y-10883210D02*
X12118680Y-10913210D01*
X12118680Y-10883210D02*
X12088680Y-10913210D01*
X12683700Y-10784660D02*
X12713700Y-10814660D01*
X12713700Y-10784660D02*
X12683700Y-10814660D01*
X9415000Y-9142000D02*
G75*
G02*
X9335000Y-9142000I-40000J0D01*
G01*
X9335000Y-9142000D02*
G75*
G02*
X9415000Y-9142000I40000J0D01*
G01*
X9415000Y-10158000D02*
G75*
G02*
X9335000Y-10158000I-40000J0D01*
G01*
X9335000Y-10158000D02*
G75*
G02*
X9415000Y-10158000I40000J0D01*
G01*
X10155790Y-10840790D02*
G75*
G02*
X10075790Y-10840790I-40000J0D01*
G01*
X10075790Y-10840790D02*
G75*
G02*
X10155790Y-10840790I40000J0D01*
G01*
X10874211Y-11559210D02*
G75*
G02*
X10794211Y-11559210I-40000J0D01*
G01*
X10794211Y-11559210D02*
G75*
G02*
X10874211Y-11559210I40000J0D01*
G01*
X12786000Y-8277000D02*
G75*
G02*
X12706000Y-8277000I-40000J0D01*
G01*
X12706000Y-8277000D02*
G75*
G02*
X12786000Y-8277000I40000J0D01*
G01*
X12870000Y-13800000D02*
G75*
G02*
X12790000Y-13800000I-40000J0D01*
G01*
X12790000Y-13800000D02*
G75*
G02*
X12870000Y-13800000I40000J0D01*
G01*
X13040000Y-8023000D02*
G75*
G02*
X12960000Y-8023000I-40000J0D01*
G01*
X12960000Y-8023000D02*
G75*
G02*
X13040000Y-8023000I40000J0D01*
G01*
X13210000Y-13800000D02*
G75*
G02*
X13130000Y-13800000I-40000J0D01*
G01*
X13130000Y-13800000D02*
G75*
G02*
X13210000Y-13800000I40000J0D01*
G01*
X13294000Y-8277000D02*
G75*
G02*
X13214000Y-8277000I-40000J0D01*
G01*
X13214000Y-8277000D02*
G75*
G02*
X13294000Y-8277000I40000J0D01*
G01*
X15205790Y-11559210D02*
G75*
G02*
X15125790Y-11559210I-40000J0D01*
G01*
X15125790Y-11559210D02*
G75*
G02*
X15205790Y-11559210I40000J0D01*
G01*
X15924210Y-10840790D02*
G75*
G02*
X15844210Y-10840790I-40000J0D01*
G01*
X15844210Y-10840790D02*
G75*
G02*
X15924210Y-10840790I40000J0D01*
G01*
X16665000Y-9167000D02*
G75*
G02*
X16585000Y-9167000I-40000J0D01*
G01*
X16585000Y-9167000D02*
G75*
G02*
X16665000Y-9167000I40000J0D01*
G01*
X16665000Y-10183000D02*
G75*
G02*
X16585000Y-10183000I-40000J0D01*
G01*
X16585000Y-10183000D02*
G75*
G02*
X16665000Y-10183000I40000J0D01*
G01*
X9373500Y-7955000D02*
X9373500Y-8045000D01*
X9328500Y-8000000D02*
X9418500Y-8000000D01*
X9627500Y-7955000D02*
X9627500Y-8045000D01*
X9582500Y-8000000D02*
X9672500Y-8000000D01*
X12872500Y-12705000D02*
X12872500Y-12795000D01*
X12827500Y-12750000D02*
X12917500Y-12750000D01*
X13126500Y-12705000D02*
X13126500Y-12795000D01*
X13081500Y-12750000D02*
X13171500Y-12750000D01*
X16372500Y-7955000D02*
X16372500Y-8045000D01*
X16327500Y-8000000D02*
X16417500Y-8000000D01*
X16626500Y-7955000D02*
X16626500Y-8045000D01*
X16581500Y-8000000D02*
X16671500Y-8000000D01*
D13*
X13176778Y-7276778D02*
X13176778Y-6923222D01*
X12823222Y-6923222D01*
X12823222Y-7276778D01*
X13176778Y-7276778D01*
D11*
X8636957Y-14813982D02*
X8636957Y-14613982D01*
X8636957Y-14613982D02*
X8684576Y-14613982D01*
X8684576Y-14613982D02*
X8713147Y-14623505D01*
X8713147Y-14623505D02*
X8732195Y-14642553D01*
X8732195Y-14642553D02*
X8741718Y-14661601D01*
X8741718Y-14661601D02*
X8751242Y-14699696D01*
X8751242Y-14699696D02*
X8751242Y-14728267D01*
X8751242Y-14728267D02*
X8741718Y-14766362D01*
X8741718Y-14766362D02*
X8732195Y-14785410D01*
X8732195Y-14785410D02*
X8713147Y-14804458D01*
X8713147Y-14804458D02*
X8684576Y-14813982D01*
X8684576Y-14813982D02*
X8636957Y-14813982D01*
X8836957Y-14813982D02*
X8836957Y-14680648D01*
X8836957Y-14718743D02*
X8846480Y-14699696D01*
X8846480Y-14699696D02*
X8856004Y-14690172D01*
X8856004Y-14690172D02*
X8875052Y-14680648D01*
X8875052Y-14680648D02*
X8894099Y-14680648D01*
X8960766Y-14813982D02*
X8960766Y-14680648D01*
X8960766Y-14613982D02*
X8951242Y-14623505D01*
X8951242Y-14623505D02*
X8960766Y-14633029D01*
X8960766Y-14633029D02*
X8970290Y-14623505D01*
X8970290Y-14623505D02*
X8960766Y-14613982D01*
X8960766Y-14613982D02*
X8960766Y-14633029D01*
X9084576Y-14813982D02*
X9065528Y-14804458D01*
X9065528Y-14804458D02*
X9056004Y-14785410D01*
X9056004Y-14785410D02*
X9056004Y-14613982D01*
X9189337Y-14813982D02*
X9170290Y-14804458D01*
X9170290Y-14804458D02*
X9160766Y-14785410D01*
X9160766Y-14785410D02*
X9160766Y-14613982D01*
X9417909Y-14813982D02*
X9417909Y-14613982D01*
X9417909Y-14613982D02*
X9484576Y-14756839D01*
X9484576Y-14756839D02*
X9551242Y-14613982D01*
X9551242Y-14613982D02*
X9551242Y-14813982D01*
X9732195Y-14813982D02*
X9732195Y-14709220D01*
X9732195Y-14709220D02*
X9722671Y-14690172D01*
X9722671Y-14690172D02*
X9703623Y-14680648D01*
X9703623Y-14680648D02*
X9665528Y-14680648D01*
X9665528Y-14680648D02*
X9646480Y-14690172D01*
X9732195Y-14804458D02*
X9713147Y-14813982D01*
X9713147Y-14813982D02*
X9665528Y-14813982D01*
X9665528Y-14813982D02*
X9646480Y-14804458D01*
X9646480Y-14804458D02*
X9636957Y-14785410D01*
X9636957Y-14785410D02*
X9636957Y-14766362D01*
X9636957Y-14766362D02*
X9646480Y-14747315D01*
X9646480Y-14747315D02*
X9665528Y-14737791D01*
X9665528Y-14737791D02*
X9713147Y-14737791D01*
X9713147Y-14737791D02*
X9732195Y-14728267D01*
X9827433Y-14680648D02*
X9827433Y-14880648D01*
X9827433Y-14690172D02*
X9846480Y-14680648D01*
X9846480Y-14680648D02*
X9884576Y-14680648D01*
X9884576Y-14680648D02*
X9903623Y-14690172D01*
X9903623Y-14690172D02*
X9913147Y-14699696D01*
X9913147Y-14699696D02*
X9922671Y-14718743D01*
X9922671Y-14718743D02*
X9922671Y-14775886D01*
X9922671Y-14775886D02*
X9913147Y-14794934D01*
X9913147Y-14794934D02*
X9903623Y-14804458D01*
X9903623Y-14804458D02*
X9884576Y-14813982D01*
X9884576Y-14813982D02*
X9846480Y-14813982D01*
X9846480Y-14813982D02*
X9827433Y-14804458D01*
X10008385Y-14794934D02*
X10017909Y-14804458D01*
X10017909Y-14804458D02*
X10008385Y-14813982D01*
X10008385Y-14813982D02*
X9998861Y-14804458D01*
X9998861Y-14804458D02*
X10008385Y-14794934D01*
X10008385Y-14794934D02*
X10008385Y-14813982D01*
X10008385Y-14690172D02*
X10017909Y-14699696D01*
X10017909Y-14699696D02*
X10008385Y-14709220D01*
X10008385Y-14709220D02*
X9998861Y-14699696D01*
X9998861Y-14699696D02*
X10008385Y-14690172D01*
X10008385Y-14690172D02*
X10008385Y-14709220D01*
D12*
X8346180Y-15127498D02*
X8376180Y-15157498D01*
X8376180Y-15127498D02*
X8346180Y-15157498D01*
D11*
X8675052Y-15033982D02*
X8694099Y-15033982D01*
X8694099Y-15033982D02*
X8713147Y-15043505D01*
X8713147Y-15043505D02*
X8722671Y-15053029D01*
X8722671Y-15053029D02*
X8732195Y-15072077D01*
X8732195Y-15072077D02*
X8741718Y-15110172D01*
X8741718Y-15110172D02*
X8741718Y-15157791D01*
X8741718Y-15157791D02*
X8732195Y-15195886D01*
X8732195Y-15195886D02*
X8722671Y-15214934D01*
X8722671Y-15214934D02*
X8713147Y-15224458D01*
X8713147Y-15224458D02*
X8694099Y-15233982D01*
X8694099Y-15233982D02*
X8675052Y-15233982D01*
X8675052Y-15233982D02*
X8656004Y-15224458D01*
X8656004Y-15224458D02*
X8646480Y-15214934D01*
X8646480Y-15214934D02*
X8636957Y-15195886D01*
X8636957Y-15195886D02*
X8627433Y-15157791D01*
X8627433Y-15157791D02*
X8627433Y-15110172D01*
X8627433Y-15110172D02*
X8636957Y-15072077D01*
X8636957Y-15072077D02*
X8646480Y-15053029D01*
X8646480Y-15053029D02*
X8656004Y-15043505D01*
X8656004Y-15043505D02*
X8675052Y-15033982D01*
X8827433Y-15214934D02*
X8836957Y-15224458D01*
X8836957Y-15224458D02*
X8827433Y-15233982D01*
X8827433Y-15233982D02*
X8817909Y-15224458D01*
X8817909Y-15224458D02*
X8827433Y-15214934D01*
X8827433Y-15214934D02*
X8827433Y-15233982D01*
X8903623Y-15033982D02*
X9027433Y-15033982D01*
X9027433Y-15033982D02*
X8960766Y-15110172D01*
X8960766Y-15110172D02*
X8989338Y-15110172D01*
X8989338Y-15110172D02*
X9008385Y-15119696D01*
X9008385Y-15119696D02*
X9017909Y-15129220D01*
X9017909Y-15129220D02*
X9027433Y-15148267D01*
X9027433Y-15148267D02*
X9027433Y-15195886D01*
X9027433Y-15195886D02*
X9017909Y-15214934D01*
X9017909Y-15214934D02*
X9008385Y-15224458D01*
X9008385Y-15224458D02*
X8989338Y-15233982D01*
X8989338Y-15233982D02*
X8932195Y-15233982D01*
X8932195Y-15233982D02*
X8913147Y-15224458D01*
X8913147Y-15224458D02*
X8903623Y-15214934D01*
X9151242Y-15033982D02*
X9170290Y-15033982D01*
X9170290Y-15033982D02*
X9189338Y-15043505D01*
X9189338Y-15043505D02*
X9198861Y-15053029D01*
X9198861Y-15053029D02*
X9208385Y-15072077D01*
X9208385Y-15072077D02*
X9217909Y-15110172D01*
X9217909Y-15110172D02*
X9217909Y-15157791D01*
X9217909Y-15157791D02*
X9208385Y-15195886D01*
X9208385Y-15195886D02*
X9198861Y-15214934D01*
X9198861Y-15214934D02*
X9189338Y-15224458D01*
X9189338Y-15224458D02*
X9170290Y-15233982D01*
X9170290Y-15233982D02*
X9151242Y-15233982D01*
X9151242Y-15233982D02*
X9132195Y-15224458D01*
X9132195Y-15224458D02*
X9122671Y-15214934D01*
X9122671Y-15214934D02*
X9113147Y-15195886D01*
X9113147Y-15195886D02*
X9103623Y-15157791D01*
X9103623Y-15157791D02*
X9103623Y-15110172D01*
X9103623Y-15110172D02*
X9113147Y-15072077D01*
X9113147Y-15072077D02*
X9122671Y-15053029D01*
X9122671Y-15053029D02*
X9132195Y-15043505D01*
X9132195Y-15043505D02*
X9151242Y-15033982D01*
X9341718Y-15033982D02*
X9360766Y-15033982D01*
X9360766Y-15033982D02*
X9379814Y-15043505D01*
X9379814Y-15043505D02*
X9389338Y-15053029D01*
X9389338Y-15053029D02*
X9398861Y-15072077D01*
X9398861Y-15072077D02*
X9408385Y-15110172D01*
X9408385Y-15110172D02*
X9408385Y-15157791D01*
X9408385Y-15157791D02*
X9398861Y-15195886D01*
X9398861Y-15195886D02*
X9389338Y-15214934D01*
X9389338Y-15214934D02*
X9379814Y-15224458D01*
X9379814Y-15224458D02*
X9360766Y-15233982D01*
X9360766Y-15233982D02*
X9341718Y-15233982D01*
X9341718Y-15233982D02*
X9322671Y-15224458D01*
X9322671Y-15224458D02*
X9313147Y-15214934D01*
X9313147Y-15214934D02*
X9303623Y-15195886D01*
X9303623Y-15195886D02*
X9294099Y-15157791D01*
X9294099Y-15157791D02*
X9294099Y-15110172D01*
X9294099Y-15110172D02*
X9303623Y-15072077D01*
X9303623Y-15072077D02*
X9313147Y-15053029D01*
X9313147Y-15053029D02*
X9322671Y-15043505D01*
X9322671Y-15043505D02*
X9341718Y-15033982D01*
X9494099Y-15233982D02*
X9494099Y-15100648D01*
X9494099Y-15119696D02*
X9503623Y-15110172D01*
X9503623Y-15110172D02*
X9522671Y-15100648D01*
X9522671Y-15100648D02*
X9551242Y-15100648D01*
X9551242Y-15100648D02*
X9570290Y-15110172D01*
X9570290Y-15110172D02*
X9579814Y-15129220D01*
X9579814Y-15129220D02*
X9579814Y-15233982D01*
X9579814Y-15129220D02*
X9589338Y-15110172D01*
X9589338Y-15110172D02*
X9608385Y-15100648D01*
X9608385Y-15100648D02*
X9636957Y-15100648D01*
X9636957Y-15100648D02*
X9656004Y-15110172D01*
X9656004Y-15110172D02*
X9665528Y-15129220D01*
X9665528Y-15129220D02*
X9665528Y-15233982D01*
X9760766Y-15233982D02*
X9760766Y-15100648D01*
X9760766Y-15119696D02*
X9770290Y-15110172D01*
X9770290Y-15110172D02*
X9789338Y-15100648D01*
X9789338Y-15100648D02*
X9817909Y-15100648D01*
X9817909Y-15100648D02*
X9836957Y-15110172D01*
X9836957Y-15110172D02*
X9846480Y-15129220D01*
X9846480Y-15129220D02*
X9846480Y-15233982D01*
X9846480Y-15129220D02*
X9856004Y-15110172D01*
X9856004Y-15110172D02*
X9875052Y-15100648D01*
X9875052Y-15100648D02*
X9903623Y-15100648D01*
X9903623Y-15100648D02*
X9922671Y-15110172D01*
X9922671Y-15110172D02*
X9932195Y-15129220D01*
X9932195Y-15129220D02*
X9932195Y-15233982D01*
X10322671Y-15024458D02*
X10151242Y-15281601D01*
X10579814Y-15033982D02*
X10598862Y-15033982D01*
X10598862Y-15033982D02*
X10617909Y-15043505D01*
X10617909Y-15043505D02*
X10627433Y-15053029D01*
X10627433Y-15053029D02*
X10636957Y-15072077D01*
X10636957Y-15072077D02*
X10646481Y-15110172D01*
X10646481Y-15110172D02*
X10646481Y-15157791D01*
X10646481Y-15157791D02*
X10636957Y-15195886D01*
X10636957Y-15195886D02*
X10627433Y-15214934D01*
X10627433Y-15214934D02*
X10617909Y-15224458D01*
X10617909Y-15224458D02*
X10598862Y-15233982D01*
X10598862Y-15233982D02*
X10579814Y-15233982D01*
X10579814Y-15233982D02*
X10560766Y-15224458D01*
X10560766Y-15224458D02*
X10551242Y-15214934D01*
X10551242Y-15214934D02*
X10541719Y-15195886D01*
X10541719Y-15195886D02*
X10532195Y-15157791D01*
X10532195Y-15157791D02*
X10532195Y-15110172D01*
X10532195Y-15110172D02*
X10541719Y-15072077D01*
X10541719Y-15072077D02*
X10551242Y-15053029D01*
X10551242Y-15053029D02*
X10560766Y-15043505D01*
X10560766Y-15043505D02*
X10579814Y-15033982D01*
X10732195Y-15214934D02*
X10741719Y-15224458D01*
X10741719Y-15224458D02*
X10732195Y-15233982D01*
X10732195Y-15233982D02*
X10722671Y-15224458D01*
X10722671Y-15224458D02*
X10732195Y-15214934D01*
X10732195Y-15214934D02*
X10732195Y-15233982D01*
X10865528Y-15033982D02*
X10884576Y-15033982D01*
X10884576Y-15033982D02*
X10903623Y-15043505D01*
X10903623Y-15043505D02*
X10913147Y-15053029D01*
X10913147Y-15053029D02*
X10922671Y-15072077D01*
X10922671Y-15072077D02*
X10932195Y-15110172D01*
X10932195Y-15110172D02*
X10932195Y-15157791D01*
X10932195Y-15157791D02*
X10922671Y-15195886D01*
X10922671Y-15195886D02*
X10913147Y-15214934D01*
X10913147Y-15214934D02*
X10903623Y-15224458D01*
X10903623Y-15224458D02*
X10884576Y-15233982D01*
X10884576Y-15233982D02*
X10865528Y-15233982D01*
X10865528Y-15233982D02*
X10846481Y-15224458D01*
X10846481Y-15224458D02*
X10836957Y-15214934D01*
X10836957Y-15214934D02*
X10827433Y-15195886D01*
X10827433Y-15195886D02*
X10817909Y-15157791D01*
X10817909Y-15157791D02*
X10817909Y-15110172D01*
X10817909Y-15110172D02*
X10827433Y-15072077D01*
X10827433Y-15072077D02*
X10836957Y-15053029D01*
X10836957Y-15053029D02*
X10846481Y-15043505D01*
X10846481Y-15043505D02*
X10865528Y-15033982D01*
X11122671Y-15233982D02*
X11008385Y-15233982D01*
X11065528Y-15233982D02*
X11065528Y-15033982D01*
X11065528Y-15033982D02*
X11046481Y-15062553D01*
X11046481Y-15062553D02*
X11027433Y-15081601D01*
X11027433Y-15081601D02*
X11008385Y-15091124D01*
X11313147Y-15233982D02*
X11198861Y-15233982D01*
X11256004Y-15233982D02*
X11256004Y-15033982D01*
X11256004Y-15033982D02*
X11236957Y-15062553D01*
X11236957Y-15062553D02*
X11217909Y-15081601D01*
X11217909Y-15081601D02*
X11198861Y-15091124D01*
X11427433Y-15119696D02*
X11408385Y-15110172D01*
X11408385Y-15110172D02*
X11398861Y-15100648D01*
X11398861Y-15100648D02*
X11389338Y-15081601D01*
X11389338Y-15081601D02*
X11389338Y-15072077D01*
X11389338Y-15072077D02*
X11398861Y-15053029D01*
X11398861Y-15053029D02*
X11408385Y-15043505D01*
X11408385Y-15043505D02*
X11427433Y-15033982D01*
X11427433Y-15033982D02*
X11465528Y-15033982D01*
X11465528Y-15033982D02*
X11484576Y-15043505D01*
X11484576Y-15043505D02*
X11494100Y-15053029D01*
X11494100Y-15053029D02*
X11503623Y-15072077D01*
X11503623Y-15072077D02*
X11503623Y-15081601D01*
X11503623Y-15081601D02*
X11494100Y-15100648D01*
X11494100Y-15100648D02*
X11484576Y-15110172D01*
X11484576Y-15110172D02*
X11465528Y-15119696D01*
X11465528Y-15119696D02*
X11427433Y-15119696D01*
X11427433Y-15119696D02*
X11408385Y-15129220D01*
X11408385Y-15129220D02*
X11398861Y-15138743D01*
X11398861Y-15138743D02*
X11389338Y-15157791D01*
X11389338Y-15157791D02*
X11389338Y-15195886D01*
X11389338Y-15195886D02*
X11398861Y-15214934D01*
X11398861Y-15214934D02*
X11408385Y-15224458D01*
X11408385Y-15224458D02*
X11427433Y-15233982D01*
X11427433Y-15233982D02*
X11465528Y-15233982D01*
X11465528Y-15233982D02*
X11484576Y-15224458D01*
X11484576Y-15224458D02*
X11494100Y-15214934D01*
X11494100Y-15214934D02*
X11503623Y-15195886D01*
X11503623Y-15195886D02*
X11503623Y-15157791D01*
X11503623Y-15157791D02*
X11494100Y-15138743D01*
X11494100Y-15138743D02*
X11484576Y-15129220D01*
X11484576Y-15129220D02*
X11465528Y-15119696D01*
X11579814Y-15033982D02*
X11579814Y-15072077D01*
X11656004Y-15033982D02*
X11656004Y-15072077D01*
X11951243Y-15310172D02*
X11941719Y-15300648D01*
X11941719Y-15300648D02*
X11922671Y-15272077D01*
X11922671Y-15272077D02*
X11913147Y-15253029D01*
X11913147Y-15253029D02*
X11903623Y-15224458D01*
X11903623Y-15224458D02*
X11894100Y-15176839D01*
X11894100Y-15176839D02*
X11894100Y-15138743D01*
X11894100Y-15138743D02*
X11903623Y-15091124D01*
X11903623Y-15091124D02*
X11913147Y-15062553D01*
X11913147Y-15062553D02*
X11922671Y-15043505D01*
X11922671Y-15043505D02*
X11941719Y-15014934D01*
X11941719Y-15014934D02*
X11951243Y-15005410D01*
X12008385Y-15033982D02*
X12132195Y-15033982D01*
X12132195Y-15033982D02*
X12065528Y-15110172D01*
X12065528Y-15110172D02*
X12094100Y-15110172D01*
X12094100Y-15110172D02*
X12113147Y-15119696D01*
X12113147Y-15119696D02*
X12122671Y-15129220D01*
X12122671Y-15129220D02*
X12132195Y-15148267D01*
X12132195Y-15148267D02*
X12132195Y-15195886D01*
X12132195Y-15195886D02*
X12122671Y-15214934D01*
X12122671Y-15214934D02*
X12113147Y-15224458D01*
X12113147Y-15224458D02*
X12094100Y-15233982D01*
X12094100Y-15233982D02*
X12036957Y-15233982D01*
X12036957Y-15233982D02*
X12017909Y-15224458D01*
X12017909Y-15224458D02*
X12008385Y-15214934D01*
X12370290Y-15233982D02*
X12370290Y-15033982D01*
X12456004Y-15233982D02*
X12456004Y-15129220D01*
X12456004Y-15129220D02*
X12446481Y-15110172D01*
X12446481Y-15110172D02*
X12427433Y-15100648D01*
X12427433Y-15100648D02*
X12398862Y-15100648D01*
X12398862Y-15100648D02*
X12379814Y-15110172D01*
X12379814Y-15110172D02*
X12370290Y-15119696D01*
X12579814Y-15233982D02*
X12560766Y-15224458D01*
X12560766Y-15224458D02*
X12551243Y-15214934D01*
X12551243Y-15214934D02*
X12541719Y-15195886D01*
X12541719Y-15195886D02*
X12541719Y-15138743D01*
X12541719Y-15138743D02*
X12551243Y-15119696D01*
X12551243Y-15119696D02*
X12560766Y-15110172D01*
X12560766Y-15110172D02*
X12579814Y-15100648D01*
X12579814Y-15100648D02*
X12608385Y-15100648D01*
X12608385Y-15100648D02*
X12627433Y-15110172D01*
X12627433Y-15110172D02*
X12636957Y-15119696D01*
X12636957Y-15119696D02*
X12646481Y-15138743D01*
X12646481Y-15138743D02*
X12646481Y-15195886D01*
X12646481Y-15195886D02*
X12636957Y-15214934D01*
X12636957Y-15214934D02*
X12627433Y-15224458D01*
X12627433Y-15224458D02*
X12608385Y-15233982D01*
X12608385Y-15233982D02*
X12579814Y-15233982D01*
X12760766Y-15233982D02*
X12741719Y-15224458D01*
X12741719Y-15224458D02*
X12732195Y-15205410D01*
X12732195Y-15205410D02*
X12732195Y-15033982D01*
X12913147Y-15224458D02*
X12894100Y-15233982D01*
X12894100Y-15233982D02*
X12856004Y-15233982D01*
X12856004Y-15233982D02*
X12836957Y-15224458D01*
X12836957Y-15224458D02*
X12827433Y-15205410D01*
X12827433Y-15205410D02*
X12827433Y-15129220D01*
X12827433Y-15129220D02*
X12836957Y-15110172D01*
X12836957Y-15110172D02*
X12856004Y-15100648D01*
X12856004Y-15100648D02*
X12894100Y-15100648D01*
X12894100Y-15100648D02*
X12913147Y-15110172D01*
X12913147Y-15110172D02*
X12922671Y-15129220D01*
X12922671Y-15129220D02*
X12922671Y-15148267D01*
X12922671Y-15148267D02*
X12827433Y-15167315D01*
X12998862Y-15224458D02*
X13017909Y-15233982D01*
X13017909Y-15233982D02*
X13056004Y-15233982D01*
X13056004Y-15233982D02*
X13075052Y-15224458D01*
X13075052Y-15224458D02*
X13084576Y-15205410D01*
X13084576Y-15205410D02*
X13084576Y-15195886D01*
X13084576Y-15195886D02*
X13075052Y-15176839D01*
X13075052Y-15176839D02*
X13056004Y-15167315D01*
X13056004Y-15167315D02*
X13027433Y-15167315D01*
X13027433Y-15167315D02*
X13008385Y-15157791D01*
X13008385Y-15157791D02*
X12998862Y-15138743D01*
X12998862Y-15138743D02*
X12998862Y-15129220D01*
X12998862Y-15129220D02*
X13008385Y-15110172D01*
X13008385Y-15110172D02*
X13027433Y-15100648D01*
X13027433Y-15100648D02*
X13056004Y-15100648D01*
X13056004Y-15100648D02*
X13075052Y-15110172D01*
X13151243Y-15310172D02*
X13160766Y-15300648D01*
X13160766Y-15300648D02*
X13179814Y-15272077D01*
X13179814Y-15272077D02*
X13189338Y-15253029D01*
X13189338Y-15253029D02*
X13198862Y-15224458D01*
X13198862Y-15224458D02*
X13208385Y-15176839D01*
X13208385Y-15176839D02*
X13208385Y-15138743D01*
X13208385Y-15138743D02*
X13198862Y-15091124D01*
X13198862Y-15091124D02*
X13189338Y-15062553D01*
X13189338Y-15062553D02*
X13179814Y-15043505D01*
X13179814Y-15043505D02*
X13160766Y-15014934D01*
X13160766Y-15014934D02*
X13151243Y-15005410D01*
D12*
X8376180Y-15406498D02*
G75*
G02*
X8296180Y-15406498I-40000J0D01*
G01*
X8296180Y-15406498D02*
G75*
G02*
X8376180Y-15406498I40000J0D01*
G01*
D11*
X8675052Y-15297982D02*
X8694099Y-15297982D01*
X8694099Y-15297982D02*
X8713147Y-15307505D01*
X8713147Y-15307505D02*
X8722671Y-15317029D01*
X8722671Y-15317029D02*
X8732195Y-15336077D01*
X8732195Y-15336077D02*
X8741718Y-15374172D01*
X8741718Y-15374172D02*
X8741718Y-15421791D01*
X8741718Y-15421791D02*
X8732195Y-15459886D01*
X8732195Y-15459886D02*
X8722671Y-15478934D01*
X8722671Y-15478934D02*
X8713147Y-15488458D01*
X8713147Y-15488458D02*
X8694099Y-15497982D01*
X8694099Y-15497982D02*
X8675052Y-15497982D01*
X8675052Y-15497982D02*
X8656004Y-15488458D01*
X8656004Y-15488458D02*
X8646480Y-15478934D01*
X8646480Y-15478934D02*
X8636957Y-15459886D01*
X8636957Y-15459886D02*
X8627433Y-15421791D01*
X8627433Y-15421791D02*
X8627433Y-15374172D01*
X8627433Y-15374172D02*
X8636957Y-15336077D01*
X8636957Y-15336077D02*
X8646480Y-15317029D01*
X8646480Y-15317029D02*
X8656004Y-15307505D01*
X8656004Y-15307505D02*
X8675052Y-15297982D01*
X8827433Y-15478934D02*
X8836957Y-15488458D01*
X8836957Y-15488458D02*
X8827433Y-15497982D01*
X8827433Y-15497982D02*
X8817909Y-15488458D01*
X8817909Y-15488458D02*
X8827433Y-15478934D01*
X8827433Y-15478934D02*
X8827433Y-15497982D01*
X8951242Y-15383696D02*
X8932195Y-15374172D01*
X8932195Y-15374172D02*
X8922671Y-15364648D01*
X8922671Y-15364648D02*
X8913147Y-15345601D01*
X8913147Y-15345601D02*
X8913147Y-15336077D01*
X8913147Y-15336077D02*
X8922671Y-15317029D01*
X8922671Y-15317029D02*
X8932195Y-15307505D01*
X8932195Y-15307505D02*
X8951242Y-15297982D01*
X8951242Y-15297982D02*
X8989338Y-15297982D01*
X8989338Y-15297982D02*
X9008385Y-15307505D01*
X9008385Y-15307505D02*
X9017909Y-15317029D01*
X9017909Y-15317029D02*
X9027433Y-15336077D01*
X9027433Y-15336077D02*
X9027433Y-15345601D01*
X9027433Y-15345601D02*
X9017909Y-15364648D01*
X9017909Y-15364648D02*
X9008385Y-15374172D01*
X9008385Y-15374172D02*
X8989338Y-15383696D01*
X8989338Y-15383696D02*
X8951242Y-15383696D01*
X8951242Y-15383696D02*
X8932195Y-15393220D01*
X8932195Y-15393220D02*
X8922671Y-15402743D01*
X8922671Y-15402743D02*
X8913147Y-15421791D01*
X8913147Y-15421791D02*
X8913147Y-15459886D01*
X8913147Y-15459886D02*
X8922671Y-15478934D01*
X8922671Y-15478934D02*
X8932195Y-15488458D01*
X8932195Y-15488458D02*
X8951242Y-15497982D01*
X8951242Y-15497982D02*
X8989338Y-15497982D01*
X8989338Y-15497982D02*
X9008385Y-15488458D01*
X9008385Y-15488458D02*
X9017909Y-15478934D01*
X9017909Y-15478934D02*
X9027433Y-15459886D01*
X9027433Y-15459886D02*
X9027433Y-15421791D01*
X9027433Y-15421791D02*
X9017909Y-15402743D01*
X9017909Y-15402743D02*
X9008385Y-15393220D01*
X9008385Y-15393220D02*
X8989338Y-15383696D01*
X9151242Y-15297982D02*
X9170290Y-15297982D01*
X9170290Y-15297982D02*
X9189338Y-15307505D01*
X9189338Y-15307505D02*
X9198861Y-15317029D01*
X9198861Y-15317029D02*
X9208385Y-15336077D01*
X9208385Y-15336077D02*
X9217909Y-15374172D01*
X9217909Y-15374172D02*
X9217909Y-15421791D01*
X9217909Y-15421791D02*
X9208385Y-15459886D01*
X9208385Y-15459886D02*
X9198861Y-15478934D01*
X9198861Y-15478934D02*
X9189338Y-15488458D01*
X9189338Y-15488458D02*
X9170290Y-15497982D01*
X9170290Y-15497982D02*
X9151242Y-15497982D01*
X9151242Y-15497982D02*
X9132195Y-15488458D01*
X9132195Y-15488458D02*
X9122671Y-15478934D01*
X9122671Y-15478934D02*
X9113147Y-15459886D01*
X9113147Y-15459886D02*
X9103623Y-15421791D01*
X9103623Y-15421791D02*
X9103623Y-15374172D01*
X9103623Y-15374172D02*
X9113147Y-15336077D01*
X9113147Y-15336077D02*
X9122671Y-15317029D01*
X9122671Y-15317029D02*
X9132195Y-15307505D01*
X9132195Y-15307505D02*
X9151242Y-15297982D01*
X9341718Y-15297982D02*
X9360766Y-15297982D01*
X9360766Y-15297982D02*
X9379814Y-15307505D01*
X9379814Y-15307505D02*
X9389338Y-15317029D01*
X9389338Y-15317029D02*
X9398861Y-15336077D01*
X9398861Y-15336077D02*
X9408385Y-15374172D01*
X9408385Y-15374172D02*
X9408385Y-15421791D01*
X9408385Y-15421791D02*
X9398861Y-15459886D01*
X9398861Y-15459886D02*
X9389338Y-15478934D01*
X9389338Y-15478934D02*
X9379814Y-15488458D01*
X9379814Y-15488458D02*
X9360766Y-15497982D01*
X9360766Y-15497982D02*
X9341718Y-15497982D01*
X9341718Y-15497982D02*
X9322671Y-15488458D01*
X9322671Y-15488458D02*
X9313147Y-15478934D01*
X9313147Y-15478934D02*
X9303623Y-15459886D01*
X9303623Y-15459886D02*
X9294099Y-15421791D01*
X9294099Y-15421791D02*
X9294099Y-15374172D01*
X9294099Y-15374172D02*
X9303623Y-15336077D01*
X9303623Y-15336077D02*
X9313147Y-15317029D01*
X9313147Y-15317029D02*
X9322671Y-15307505D01*
X9322671Y-15307505D02*
X9341718Y-15297982D01*
X9494099Y-15497982D02*
X9494099Y-15364648D01*
X9494099Y-15383696D02*
X9503623Y-15374172D01*
X9503623Y-15374172D02*
X9522671Y-15364648D01*
X9522671Y-15364648D02*
X9551242Y-15364648D01*
X9551242Y-15364648D02*
X9570290Y-15374172D01*
X9570290Y-15374172D02*
X9579814Y-15393220D01*
X9579814Y-15393220D02*
X9579814Y-15497982D01*
X9579814Y-15393220D02*
X9589338Y-15374172D01*
X9589338Y-15374172D02*
X9608385Y-15364648D01*
X9608385Y-15364648D02*
X9636957Y-15364648D01*
X9636957Y-15364648D02*
X9656004Y-15374172D01*
X9656004Y-15374172D02*
X9665528Y-15393220D01*
X9665528Y-15393220D02*
X9665528Y-15497982D01*
X9760766Y-15497982D02*
X9760766Y-15364648D01*
X9760766Y-15383696D02*
X9770290Y-15374172D01*
X9770290Y-15374172D02*
X9789338Y-15364648D01*
X9789338Y-15364648D02*
X9817909Y-15364648D01*
X9817909Y-15364648D02*
X9836957Y-15374172D01*
X9836957Y-15374172D02*
X9846480Y-15393220D01*
X9846480Y-15393220D02*
X9846480Y-15497982D01*
X9846480Y-15393220D02*
X9856004Y-15374172D01*
X9856004Y-15374172D02*
X9875052Y-15364648D01*
X9875052Y-15364648D02*
X9903623Y-15364648D01*
X9903623Y-15364648D02*
X9922671Y-15374172D01*
X9922671Y-15374172D02*
X9932195Y-15393220D01*
X9932195Y-15393220D02*
X9932195Y-15497982D01*
X10322671Y-15288458D02*
X10151242Y-15545601D01*
X10579814Y-15297982D02*
X10598862Y-15297982D01*
X10598862Y-15297982D02*
X10617909Y-15307505D01*
X10617909Y-15307505D02*
X10627433Y-15317029D01*
X10627433Y-15317029D02*
X10636957Y-15336077D01*
X10636957Y-15336077D02*
X10646481Y-15374172D01*
X10646481Y-15374172D02*
X10646481Y-15421791D01*
X10646481Y-15421791D02*
X10636957Y-15459886D01*
X10636957Y-15459886D02*
X10627433Y-15478934D01*
X10627433Y-15478934D02*
X10617909Y-15488458D01*
X10617909Y-15488458D02*
X10598862Y-15497982D01*
X10598862Y-15497982D02*
X10579814Y-15497982D01*
X10579814Y-15497982D02*
X10560766Y-15488458D01*
X10560766Y-15488458D02*
X10551242Y-15478934D01*
X10551242Y-15478934D02*
X10541719Y-15459886D01*
X10541719Y-15459886D02*
X10532195Y-15421791D01*
X10532195Y-15421791D02*
X10532195Y-15374172D01*
X10532195Y-15374172D02*
X10541719Y-15336077D01*
X10541719Y-15336077D02*
X10551242Y-15317029D01*
X10551242Y-15317029D02*
X10560766Y-15307505D01*
X10560766Y-15307505D02*
X10579814Y-15297982D01*
X10732195Y-15478934D02*
X10741719Y-15488458D01*
X10741719Y-15488458D02*
X10732195Y-15497982D01*
X10732195Y-15497982D02*
X10722671Y-15488458D01*
X10722671Y-15488458D02*
X10732195Y-15478934D01*
X10732195Y-15478934D02*
X10732195Y-15497982D01*
X10865528Y-15297982D02*
X10884576Y-15297982D01*
X10884576Y-15297982D02*
X10903623Y-15307505D01*
X10903623Y-15307505D02*
X10913147Y-15317029D01*
X10913147Y-15317029D02*
X10922671Y-15336077D01*
X10922671Y-15336077D02*
X10932195Y-15374172D01*
X10932195Y-15374172D02*
X10932195Y-15421791D01*
X10932195Y-15421791D02*
X10922671Y-15459886D01*
X10922671Y-15459886D02*
X10913147Y-15478934D01*
X10913147Y-15478934D02*
X10903623Y-15488458D01*
X10903623Y-15488458D02*
X10884576Y-15497982D01*
X10884576Y-15497982D02*
X10865528Y-15497982D01*
X10865528Y-15497982D02*
X10846481Y-15488458D01*
X10846481Y-15488458D02*
X10836957Y-15478934D01*
X10836957Y-15478934D02*
X10827433Y-15459886D01*
X10827433Y-15459886D02*
X10817909Y-15421791D01*
X10817909Y-15421791D02*
X10817909Y-15374172D01*
X10817909Y-15374172D02*
X10827433Y-15336077D01*
X10827433Y-15336077D02*
X10836957Y-15317029D01*
X10836957Y-15317029D02*
X10846481Y-15307505D01*
X10846481Y-15307505D02*
X10865528Y-15297982D01*
X10998862Y-15297982D02*
X11122671Y-15297982D01*
X11122671Y-15297982D02*
X11056004Y-15374172D01*
X11056004Y-15374172D02*
X11084576Y-15374172D01*
X11084576Y-15374172D02*
X11103623Y-15383696D01*
X11103623Y-15383696D02*
X11113147Y-15393220D01*
X11113147Y-15393220D02*
X11122671Y-15412267D01*
X11122671Y-15412267D02*
X11122671Y-15459886D01*
X11122671Y-15459886D02*
X11113147Y-15478934D01*
X11113147Y-15478934D02*
X11103623Y-15488458D01*
X11103623Y-15488458D02*
X11084576Y-15497982D01*
X11084576Y-15497982D02*
X11027433Y-15497982D01*
X11027433Y-15497982D02*
X11008385Y-15488458D01*
X11008385Y-15488458D02*
X10998862Y-15478934D01*
X11313147Y-15497982D02*
X11198861Y-15497982D01*
X11256004Y-15497982D02*
X11256004Y-15297982D01*
X11256004Y-15297982D02*
X11236957Y-15326553D01*
X11236957Y-15326553D02*
X11217909Y-15345601D01*
X11217909Y-15345601D02*
X11198861Y-15355124D01*
X11494100Y-15297982D02*
X11398861Y-15297982D01*
X11398861Y-15297982D02*
X11389338Y-15393220D01*
X11389338Y-15393220D02*
X11398861Y-15383696D01*
X11398861Y-15383696D02*
X11417909Y-15374172D01*
X11417909Y-15374172D02*
X11465528Y-15374172D01*
X11465528Y-15374172D02*
X11484576Y-15383696D01*
X11484576Y-15383696D02*
X11494100Y-15393220D01*
X11494100Y-15393220D02*
X11503623Y-15412267D01*
X11503623Y-15412267D02*
X11503623Y-15459886D01*
X11503623Y-15459886D02*
X11494100Y-15478934D01*
X11494100Y-15478934D02*
X11484576Y-15488458D01*
X11484576Y-15488458D02*
X11465528Y-15497982D01*
X11465528Y-15497982D02*
X11417909Y-15497982D01*
X11417909Y-15497982D02*
X11398861Y-15488458D01*
X11398861Y-15488458D02*
X11389338Y-15478934D01*
X11579814Y-15297982D02*
X11579814Y-15336077D01*
X11656004Y-15297982D02*
X11656004Y-15336077D01*
X11951243Y-15574172D02*
X11941719Y-15564648D01*
X11941719Y-15564648D02*
X11922671Y-15536077D01*
X11922671Y-15536077D02*
X11913147Y-15517029D01*
X11913147Y-15517029D02*
X11903623Y-15488458D01*
X11903623Y-15488458D02*
X11894100Y-15440839D01*
X11894100Y-15440839D02*
X11894100Y-15402743D01*
X11894100Y-15402743D02*
X11903623Y-15355124D01*
X11903623Y-15355124D02*
X11913147Y-15326553D01*
X11913147Y-15326553D02*
X11922671Y-15307505D01*
X11922671Y-15307505D02*
X11941719Y-15278934D01*
X11941719Y-15278934D02*
X11951243Y-15269410D01*
X12132195Y-15497982D02*
X12017909Y-15497982D01*
X12075052Y-15497982D02*
X12075052Y-15297982D01*
X12075052Y-15297982D02*
X12056004Y-15326553D01*
X12056004Y-15326553D02*
X12036957Y-15345601D01*
X12036957Y-15345601D02*
X12017909Y-15355124D01*
X12198862Y-15297982D02*
X12322671Y-15297982D01*
X12322671Y-15297982D02*
X12256004Y-15374172D01*
X12256004Y-15374172D02*
X12284576Y-15374172D01*
X12284576Y-15374172D02*
X12303623Y-15383696D01*
X12303623Y-15383696D02*
X12313147Y-15393220D01*
X12313147Y-15393220D02*
X12322671Y-15412267D01*
X12322671Y-15412267D02*
X12322671Y-15459886D01*
X12322671Y-15459886D02*
X12313147Y-15478934D01*
X12313147Y-15478934D02*
X12303623Y-15488458D01*
X12303623Y-15488458D02*
X12284576Y-15497982D01*
X12284576Y-15497982D02*
X12227433Y-15497982D01*
X12227433Y-15497982D02*
X12208385Y-15488458D01*
X12208385Y-15488458D02*
X12198862Y-15478934D01*
X12560766Y-15497982D02*
X12560766Y-15297982D01*
X12646481Y-15497982D02*
X12646481Y-15393220D01*
X12646481Y-15393220D02*
X12636957Y-15374172D01*
X12636957Y-15374172D02*
X12617909Y-15364648D01*
X12617909Y-15364648D02*
X12589338Y-15364648D01*
X12589338Y-15364648D02*
X12570290Y-15374172D01*
X12570290Y-15374172D02*
X12560766Y-15383696D01*
X12770290Y-15497982D02*
X12751243Y-15488458D01*
X12751243Y-15488458D02*
X12741719Y-15478934D01*
X12741719Y-15478934D02*
X12732195Y-15459886D01*
X12732195Y-15459886D02*
X12732195Y-15402743D01*
X12732195Y-15402743D02*
X12741719Y-15383696D01*
X12741719Y-15383696D02*
X12751243Y-15374172D01*
X12751243Y-15374172D02*
X12770290Y-15364648D01*
X12770290Y-15364648D02*
X12798862Y-15364648D01*
X12798862Y-15364648D02*
X12817909Y-15374172D01*
X12817909Y-15374172D02*
X12827433Y-15383696D01*
X12827433Y-15383696D02*
X12836957Y-15402743D01*
X12836957Y-15402743D02*
X12836957Y-15459886D01*
X12836957Y-15459886D02*
X12827433Y-15478934D01*
X12827433Y-15478934D02*
X12817909Y-15488458D01*
X12817909Y-15488458D02*
X12798862Y-15497982D01*
X12798862Y-15497982D02*
X12770290Y-15497982D01*
X12951243Y-15497982D02*
X12932195Y-15488458D01*
X12932195Y-15488458D02*
X12922671Y-15469410D01*
X12922671Y-15469410D02*
X12922671Y-15297982D01*
X13103624Y-15488458D02*
X13084576Y-15497982D01*
X13084576Y-15497982D02*
X13046481Y-15497982D01*
X13046481Y-15497982D02*
X13027433Y-15488458D01*
X13027433Y-15488458D02*
X13017909Y-15469410D01*
X13017909Y-15469410D02*
X13017909Y-15393220D01*
X13017909Y-15393220D02*
X13027433Y-15374172D01*
X13027433Y-15374172D02*
X13046481Y-15364648D01*
X13046481Y-15364648D02*
X13084576Y-15364648D01*
X13084576Y-15364648D02*
X13103624Y-15374172D01*
X13103624Y-15374172D02*
X13113147Y-15393220D01*
X13113147Y-15393220D02*
X13113147Y-15412267D01*
X13113147Y-15412267D02*
X13017909Y-15431315D01*
X13189338Y-15488458D02*
X13208385Y-15497982D01*
X13208385Y-15497982D02*
X13246481Y-15497982D01*
X13246481Y-15497982D02*
X13265528Y-15488458D01*
X13265528Y-15488458D02*
X13275052Y-15469410D01*
X13275052Y-15469410D02*
X13275052Y-15459886D01*
X13275052Y-15459886D02*
X13265528Y-15440839D01*
X13265528Y-15440839D02*
X13246481Y-15431315D01*
X13246481Y-15431315D02*
X13217909Y-15431315D01*
X13217909Y-15431315D02*
X13198862Y-15421791D01*
X13198862Y-15421791D02*
X13189338Y-15402743D01*
X13189338Y-15402743D02*
X13189338Y-15393220D01*
X13189338Y-15393220D02*
X13198862Y-15374172D01*
X13198862Y-15374172D02*
X13217909Y-15364648D01*
X13217909Y-15364648D02*
X13246481Y-15364648D01*
X13246481Y-15364648D02*
X13265528Y-15374172D01*
X13341719Y-15574172D02*
X13351243Y-15564648D01*
X13351243Y-15564648D02*
X13370290Y-15536077D01*
X13370290Y-15536077D02*
X13379814Y-15517029D01*
X13379814Y-15517029D02*
X13389338Y-15488458D01*
X13389338Y-15488458D02*
X13398862Y-15440839D01*
X13398862Y-15440839D02*
X13398862Y-15402743D01*
X13398862Y-15402743D02*
X13389338Y-15355124D01*
X13389338Y-15355124D02*
X13379814Y-15326553D01*
X13379814Y-15326553D02*
X13370290Y-15307505D01*
X13370290Y-15307505D02*
X13351243Y-15278934D01*
X13351243Y-15278934D02*
X13341719Y-15269410D01*
D12*
X8331180Y-15625498D02*
X8331180Y-15715498D01*
X8286180Y-15670498D02*
X8376180Y-15670498D01*
D11*
X8675052Y-15561982D02*
X8694099Y-15561982D01*
X8694099Y-15561982D02*
X8713147Y-15571505D01*
X8713147Y-15571505D02*
X8722671Y-15581029D01*
X8722671Y-15581029D02*
X8732195Y-15600077D01*
X8732195Y-15600077D02*
X8741718Y-15638172D01*
X8741718Y-15638172D02*
X8741718Y-15685791D01*
X8741718Y-15685791D02*
X8732195Y-15723886D01*
X8732195Y-15723886D02*
X8722671Y-15742934D01*
X8722671Y-15742934D02*
X8713147Y-15752458D01*
X8713147Y-15752458D02*
X8694099Y-15761982D01*
X8694099Y-15761982D02*
X8675052Y-15761982D01*
X8675052Y-15761982D02*
X8656004Y-15752458D01*
X8656004Y-15752458D02*
X8646480Y-15742934D01*
X8646480Y-15742934D02*
X8636957Y-15723886D01*
X8636957Y-15723886D02*
X8627433Y-15685791D01*
X8627433Y-15685791D02*
X8627433Y-15638172D01*
X8627433Y-15638172D02*
X8636957Y-15600077D01*
X8636957Y-15600077D02*
X8646480Y-15581029D01*
X8646480Y-15581029D02*
X8656004Y-15571505D01*
X8656004Y-15571505D02*
X8675052Y-15561982D01*
X8827433Y-15742934D02*
X8836957Y-15752458D01*
X8836957Y-15752458D02*
X8827433Y-15761982D01*
X8827433Y-15761982D02*
X8817909Y-15752458D01*
X8817909Y-15752458D02*
X8827433Y-15742934D01*
X8827433Y-15742934D02*
X8827433Y-15761982D01*
X8932195Y-15761982D02*
X8970290Y-15761982D01*
X8970290Y-15761982D02*
X8989338Y-15752458D01*
X8989338Y-15752458D02*
X8998861Y-15742934D01*
X8998861Y-15742934D02*
X9017909Y-15714362D01*
X9017909Y-15714362D02*
X9027433Y-15676267D01*
X9027433Y-15676267D02*
X9027433Y-15600077D01*
X9027433Y-15600077D02*
X9017909Y-15581029D01*
X9017909Y-15581029D02*
X9008385Y-15571505D01*
X9008385Y-15571505D02*
X8989338Y-15561982D01*
X8989338Y-15561982D02*
X8951242Y-15561982D01*
X8951242Y-15561982D02*
X8932195Y-15571505D01*
X8932195Y-15571505D02*
X8922671Y-15581029D01*
X8922671Y-15581029D02*
X8913147Y-15600077D01*
X8913147Y-15600077D02*
X8913147Y-15647696D01*
X8913147Y-15647696D02*
X8922671Y-15666743D01*
X8922671Y-15666743D02*
X8932195Y-15676267D01*
X8932195Y-15676267D02*
X8951242Y-15685791D01*
X8951242Y-15685791D02*
X8989338Y-15685791D01*
X8989338Y-15685791D02*
X9008385Y-15676267D01*
X9008385Y-15676267D02*
X9017909Y-15666743D01*
X9017909Y-15666743D02*
X9027433Y-15647696D01*
X9151242Y-15561982D02*
X9170290Y-15561982D01*
X9170290Y-15561982D02*
X9189338Y-15571505D01*
X9189338Y-15571505D02*
X9198861Y-15581029D01*
X9198861Y-15581029D02*
X9208385Y-15600077D01*
X9208385Y-15600077D02*
X9217909Y-15638172D01*
X9217909Y-15638172D02*
X9217909Y-15685791D01*
X9217909Y-15685791D02*
X9208385Y-15723886D01*
X9208385Y-15723886D02*
X9198861Y-15742934D01*
X9198861Y-15742934D02*
X9189338Y-15752458D01*
X9189338Y-15752458D02*
X9170290Y-15761982D01*
X9170290Y-15761982D02*
X9151242Y-15761982D01*
X9151242Y-15761982D02*
X9132195Y-15752458D01*
X9132195Y-15752458D02*
X9122671Y-15742934D01*
X9122671Y-15742934D02*
X9113147Y-15723886D01*
X9113147Y-15723886D02*
X9103623Y-15685791D01*
X9103623Y-15685791D02*
X9103623Y-15638172D01*
X9103623Y-15638172D02*
X9113147Y-15600077D01*
X9113147Y-15600077D02*
X9122671Y-15581029D01*
X9122671Y-15581029D02*
X9132195Y-15571505D01*
X9132195Y-15571505D02*
X9151242Y-15561982D01*
X9341718Y-15561982D02*
X9360766Y-15561982D01*
X9360766Y-15561982D02*
X9379814Y-15571505D01*
X9379814Y-15571505D02*
X9389338Y-15581029D01*
X9389338Y-15581029D02*
X9398861Y-15600077D01*
X9398861Y-15600077D02*
X9408385Y-15638172D01*
X9408385Y-15638172D02*
X9408385Y-15685791D01*
X9408385Y-15685791D02*
X9398861Y-15723886D01*
X9398861Y-15723886D02*
X9389338Y-15742934D01*
X9389338Y-15742934D02*
X9379814Y-15752458D01*
X9379814Y-15752458D02*
X9360766Y-15761982D01*
X9360766Y-15761982D02*
X9341718Y-15761982D01*
X9341718Y-15761982D02*
X9322671Y-15752458D01*
X9322671Y-15752458D02*
X9313147Y-15742934D01*
X9313147Y-15742934D02*
X9303623Y-15723886D01*
X9303623Y-15723886D02*
X9294099Y-15685791D01*
X9294099Y-15685791D02*
X9294099Y-15638172D01*
X9294099Y-15638172D02*
X9303623Y-15600077D01*
X9303623Y-15600077D02*
X9313147Y-15581029D01*
X9313147Y-15581029D02*
X9322671Y-15571505D01*
X9322671Y-15571505D02*
X9341718Y-15561982D01*
X9494099Y-15761982D02*
X9494099Y-15628648D01*
X9494099Y-15647696D02*
X9503623Y-15638172D01*
X9503623Y-15638172D02*
X9522671Y-15628648D01*
X9522671Y-15628648D02*
X9551242Y-15628648D01*
X9551242Y-15628648D02*
X9570290Y-15638172D01*
X9570290Y-15638172D02*
X9579814Y-15657220D01*
X9579814Y-15657220D02*
X9579814Y-15761982D01*
X9579814Y-15657220D02*
X9589338Y-15638172D01*
X9589338Y-15638172D02*
X9608385Y-15628648D01*
X9608385Y-15628648D02*
X9636957Y-15628648D01*
X9636957Y-15628648D02*
X9656004Y-15638172D01*
X9656004Y-15638172D02*
X9665528Y-15657220D01*
X9665528Y-15657220D02*
X9665528Y-15761982D01*
X9760766Y-15761982D02*
X9760766Y-15628648D01*
X9760766Y-15647696D02*
X9770290Y-15638172D01*
X9770290Y-15638172D02*
X9789338Y-15628648D01*
X9789338Y-15628648D02*
X9817909Y-15628648D01*
X9817909Y-15628648D02*
X9836957Y-15638172D01*
X9836957Y-15638172D02*
X9846480Y-15657220D01*
X9846480Y-15657220D02*
X9846480Y-15761982D01*
X9846480Y-15657220D02*
X9856004Y-15638172D01*
X9856004Y-15638172D02*
X9875052Y-15628648D01*
X9875052Y-15628648D02*
X9903623Y-15628648D01*
X9903623Y-15628648D02*
X9922671Y-15638172D01*
X9922671Y-15638172D02*
X9932195Y-15657220D01*
X9932195Y-15657220D02*
X9932195Y-15761982D01*
X10322671Y-15552458D02*
X10151242Y-15809601D01*
X10579814Y-15561982D02*
X10598862Y-15561982D01*
X10598862Y-15561982D02*
X10617909Y-15571505D01*
X10617909Y-15571505D02*
X10627433Y-15581029D01*
X10627433Y-15581029D02*
X10636957Y-15600077D01*
X10636957Y-15600077D02*
X10646481Y-15638172D01*
X10646481Y-15638172D02*
X10646481Y-15685791D01*
X10646481Y-15685791D02*
X10636957Y-15723886D01*
X10636957Y-15723886D02*
X10627433Y-15742934D01*
X10627433Y-15742934D02*
X10617909Y-15752458D01*
X10617909Y-15752458D02*
X10598862Y-15761982D01*
X10598862Y-15761982D02*
X10579814Y-15761982D01*
X10579814Y-15761982D02*
X10560766Y-15752458D01*
X10560766Y-15752458D02*
X10551242Y-15742934D01*
X10551242Y-15742934D02*
X10541719Y-15723886D01*
X10541719Y-15723886D02*
X10532195Y-15685791D01*
X10532195Y-15685791D02*
X10532195Y-15638172D01*
X10532195Y-15638172D02*
X10541719Y-15600077D01*
X10541719Y-15600077D02*
X10551242Y-15581029D01*
X10551242Y-15581029D02*
X10560766Y-15571505D01*
X10560766Y-15571505D02*
X10579814Y-15561982D01*
X10732195Y-15742934D02*
X10741719Y-15752458D01*
X10741719Y-15752458D02*
X10732195Y-15761982D01*
X10732195Y-15761982D02*
X10722671Y-15752458D01*
X10722671Y-15752458D02*
X10732195Y-15742934D01*
X10732195Y-15742934D02*
X10732195Y-15761982D01*
X10865528Y-15561982D02*
X10884576Y-15561982D01*
X10884576Y-15561982D02*
X10903623Y-15571505D01*
X10903623Y-15571505D02*
X10913147Y-15581029D01*
X10913147Y-15581029D02*
X10922671Y-15600077D01*
X10922671Y-15600077D02*
X10932195Y-15638172D01*
X10932195Y-15638172D02*
X10932195Y-15685791D01*
X10932195Y-15685791D02*
X10922671Y-15723886D01*
X10922671Y-15723886D02*
X10913147Y-15742934D01*
X10913147Y-15742934D02*
X10903623Y-15752458D01*
X10903623Y-15752458D02*
X10884576Y-15761982D01*
X10884576Y-15761982D02*
X10865528Y-15761982D01*
X10865528Y-15761982D02*
X10846481Y-15752458D01*
X10846481Y-15752458D02*
X10836957Y-15742934D01*
X10836957Y-15742934D02*
X10827433Y-15723886D01*
X10827433Y-15723886D02*
X10817909Y-15685791D01*
X10817909Y-15685791D02*
X10817909Y-15638172D01*
X10817909Y-15638172D02*
X10827433Y-15600077D01*
X10827433Y-15600077D02*
X10836957Y-15581029D01*
X10836957Y-15581029D02*
X10846481Y-15571505D01*
X10846481Y-15571505D02*
X10865528Y-15561982D01*
X10998862Y-15561982D02*
X11122671Y-15561982D01*
X11122671Y-15561982D02*
X11056004Y-15638172D01*
X11056004Y-15638172D02*
X11084576Y-15638172D01*
X11084576Y-15638172D02*
X11103623Y-15647696D01*
X11103623Y-15647696D02*
X11113147Y-15657220D01*
X11113147Y-15657220D02*
X11122671Y-15676267D01*
X11122671Y-15676267D02*
X11122671Y-15723886D01*
X11122671Y-15723886D02*
X11113147Y-15742934D01*
X11113147Y-15742934D02*
X11103623Y-15752458D01*
X11103623Y-15752458D02*
X11084576Y-15761982D01*
X11084576Y-15761982D02*
X11027433Y-15761982D01*
X11027433Y-15761982D02*
X11008385Y-15752458D01*
X11008385Y-15752458D02*
X10998862Y-15742934D01*
X11303623Y-15561982D02*
X11208385Y-15561982D01*
X11208385Y-15561982D02*
X11198861Y-15657220D01*
X11198861Y-15657220D02*
X11208385Y-15647696D01*
X11208385Y-15647696D02*
X11227433Y-15638172D01*
X11227433Y-15638172D02*
X11275052Y-15638172D01*
X11275052Y-15638172D02*
X11294100Y-15647696D01*
X11294100Y-15647696D02*
X11303623Y-15657220D01*
X11303623Y-15657220D02*
X11313147Y-15676267D01*
X11313147Y-15676267D02*
X11313147Y-15723886D01*
X11313147Y-15723886D02*
X11303623Y-15742934D01*
X11303623Y-15742934D02*
X11294100Y-15752458D01*
X11294100Y-15752458D02*
X11275052Y-15761982D01*
X11275052Y-15761982D02*
X11227433Y-15761982D01*
X11227433Y-15761982D02*
X11208385Y-15752458D01*
X11208385Y-15752458D02*
X11198861Y-15742934D01*
X11484576Y-15628648D02*
X11484576Y-15761982D01*
X11436957Y-15552458D02*
X11389338Y-15695315D01*
X11389338Y-15695315D02*
X11513147Y-15695315D01*
X11579814Y-15561982D02*
X11579814Y-15600077D01*
X11656004Y-15561982D02*
X11656004Y-15600077D01*
X11951243Y-15838172D02*
X11941719Y-15828648D01*
X11941719Y-15828648D02*
X11922671Y-15800077D01*
X11922671Y-15800077D02*
X11913147Y-15781029D01*
X11913147Y-15781029D02*
X11903623Y-15752458D01*
X11903623Y-15752458D02*
X11894100Y-15704839D01*
X11894100Y-15704839D02*
X11894100Y-15666743D01*
X11894100Y-15666743D02*
X11903623Y-15619124D01*
X11903623Y-15619124D02*
X11913147Y-15590553D01*
X11913147Y-15590553D02*
X11922671Y-15571505D01*
X11922671Y-15571505D02*
X11941719Y-15542934D01*
X11941719Y-15542934D02*
X11951243Y-15533410D01*
X12113147Y-15561982D02*
X12075052Y-15561982D01*
X12075052Y-15561982D02*
X12056004Y-15571505D01*
X12056004Y-15571505D02*
X12046481Y-15581029D01*
X12046481Y-15581029D02*
X12027433Y-15609601D01*
X12027433Y-15609601D02*
X12017909Y-15647696D01*
X12017909Y-15647696D02*
X12017909Y-15723886D01*
X12017909Y-15723886D02*
X12027433Y-15742934D01*
X12027433Y-15742934D02*
X12036957Y-15752458D01*
X12036957Y-15752458D02*
X12056004Y-15761982D01*
X12056004Y-15761982D02*
X12094100Y-15761982D01*
X12094100Y-15761982D02*
X12113147Y-15752458D01*
X12113147Y-15752458D02*
X12122671Y-15742934D01*
X12122671Y-15742934D02*
X12132195Y-15723886D01*
X12132195Y-15723886D02*
X12132195Y-15676267D01*
X12132195Y-15676267D02*
X12122671Y-15657220D01*
X12122671Y-15657220D02*
X12113147Y-15647696D01*
X12113147Y-15647696D02*
X12094100Y-15638172D01*
X12094100Y-15638172D02*
X12056004Y-15638172D01*
X12056004Y-15638172D02*
X12036957Y-15647696D01*
X12036957Y-15647696D02*
X12027433Y-15657220D01*
X12027433Y-15657220D02*
X12017909Y-15676267D01*
X12370290Y-15761982D02*
X12370290Y-15561982D01*
X12456004Y-15761982D02*
X12456004Y-15657220D01*
X12456004Y-15657220D02*
X12446481Y-15638172D01*
X12446481Y-15638172D02*
X12427433Y-15628648D01*
X12427433Y-15628648D02*
X12398862Y-15628648D01*
X12398862Y-15628648D02*
X12379814Y-15638172D01*
X12379814Y-15638172D02*
X12370290Y-15647696D01*
X12579814Y-15761982D02*
X12560766Y-15752458D01*
X12560766Y-15752458D02*
X12551243Y-15742934D01*
X12551243Y-15742934D02*
X12541719Y-15723886D01*
X12541719Y-15723886D02*
X12541719Y-15666743D01*
X12541719Y-15666743D02*
X12551243Y-15647696D01*
X12551243Y-15647696D02*
X12560766Y-15638172D01*
X12560766Y-15638172D02*
X12579814Y-15628648D01*
X12579814Y-15628648D02*
X12608385Y-15628648D01*
X12608385Y-15628648D02*
X12627433Y-15638172D01*
X12627433Y-15638172D02*
X12636957Y-15647696D01*
X12636957Y-15647696D02*
X12646481Y-15666743D01*
X12646481Y-15666743D02*
X12646481Y-15723886D01*
X12646481Y-15723886D02*
X12636957Y-15742934D01*
X12636957Y-15742934D02*
X12627433Y-15752458D01*
X12627433Y-15752458D02*
X12608385Y-15761982D01*
X12608385Y-15761982D02*
X12579814Y-15761982D01*
X12760766Y-15761982D02*
X12741719Y-15752458D01*
X12741719Y-15752458D02*
X12732195Y-15733410D01*
X12732195Y-15733410D02*
X12732195Y-15561982D01*
X12913147Y-15752458D02*
X12894100Y-15761982D01*
X12894100Y-15761982D02*
X12856004Y-15761982D01*
X12856004Y-15761982D02*
X12836957Y-15752458D01*
X12836957Y-15752458D02*
X12827433Y-15733410D01*
X12827433Y-15733410D02*
X12827433Y-15657220D01*
X12827433Y-15657220D02*
X12836957Y-15638172D01*
X12836957Y-15638172D02*
X12856004Y-15628648D01*
X12856004Y-15628648D02*
X12894100Y-15628648D01*
X12894100Y-15628648D02*
X12913147Y-15638172D01*
X12913147Y-15638172D02*
X12922671Y-15657220D01*
X12922671Y-15657220D02*
X12922671Y-15676267D01*
X12922671Y-15676267D02*
X12827433Y-15695315D01*
X12998862Y-15752458D02*
X13017909Y-15761982D01*
X13017909Y-15761982D02*
X13056004Y-15761982D01*
X13056004Y-15761982D02*
X13075052Y-15752458D01*
X13075052Y-15752458D02*
X13084576Y-15733410D01*
X13084576Y-15733410D02*
X13084576Y-15723886D01*
X13084576Y-15723886D02*
X13075052Y-15704839D01*
X13075052Y-15704839D02*
X13056004Y-15695315D01*
X13056004Y-15695315D02*
X13027433Y-15695315D01*
X13027433Y-15695315D02*
X13008385Y-15685791D01*
X13008385Y-15685791D02*
X12998862Y-15666743D01*
X12998862Y-15666743D02*
X12998862Y-15657220D01*
X12998862Y-15657220D02*
X13008385Y-15638172D01*
X13008385Y-15638172D02*
X13027433Y-15628648D01*
X13027433Y-15628648D02*
X13056004Y-15628648D01*
X13056004Y-15628648D02*
X13075052Y-15638172D01*
X13151243Y-15838172D02*
X13160766Y-15828648D01*
X13160766Y-15828648D02*
X13179814Y-15800077D01*
X13179814Y-15800077D02*
X13189338Y-15781029D01*
X13189338Y-15781029D02*
X13198862Y-15752458D01*
X13198862Y-15752458D02*
X13208385Y-15704839D01*
X13208385Y-15704839D02*
X13208385Y-15666743D01*
X13208385Y-15666743D02*
X13198862Y-15619124D01*
X13198862Y-15619124D02*
X13189338Y-15590553D01*
X13189338Y-15590553D02*
X13179814Y-15571505D01*
X13179814Y-15571505D02*
X13160766Y-15542934D01*
X13160766Y-15542934D02*
X13151243Y-15533410D01*
X8346891Y-16005209D02*
X8346891Y-15863786D01*
X8205468Y-15863786D01*
X8205468Y-16005209D01*
X8346891Y-16005209D01*
X8732195Y-15825982D02*
X8636957Y-15825982D01*
X8636957Y-15825982D02*
X8627433Y-15921220D01*
X8627433Y-15921220D02*
X8636957Y-15911696D01*
X8636957Y-15911696D02*
X8656004Y-15902172D01*
X8656004Y-15902172D02*
X8703623Y-15902172D01*
X8703623Y-15902172D02*
X8722671Y-15911696D01*
X8722671Y-15911696D02*
X8732195Y-15921220D01*
X8732195Y-15921220D02*
X8741718Y-15940267D01*
X8741718Y-15940267D02*
X8741718Y-15987886D01*
X8741718Y-15987886D02*
X8732195Y-16006934D01*
X8732195Y-16006934D02*
X8722671Y-16016458D01*
X8722671Y-16016458D02*
X8703623Y-16025982D01*
X8703623Y-16025982D02*
X8656004Y-16025982D01*
X8656004Y-16025982D02*
X8636957Y-16016458D01*
X8636957Y-16016458D02*
X8627433Y-16006934D01*
X8827433Y-16006934D02*
X8836957Y-16016458D01*
X8836957Y-16016458D02*
X8827433Y-16025982D01*
X8827433Y-16025982D02*
X8817909Y-16016458D01*
X8817909Y-16016458D02*
X8827433Y-16006934D01*
X8827433Y-16006934D02*
X8827433Y-16025982D01*
X8960766Y-15825982D02*
X8979814Y-15825982D01*
X8979814Y-15825982D02*
X8998861Y-15835505D01*
X8998861Y-15835505D02*
X9008385Y-15845029D01*
X9008385Y-15845029D02*
X9017909Y-15864077D01*
X9017909Y-15864077D02*
X9027433Y-15902172D01*
X9027433Y-15902172D02*
X9027433Y-15949791D01*
X9027433Y-15949791D02*
X9017909Y-15987886D01*
X9017909Y-15987886D02*
X9008385Y-16006934D01*
X9008385Y-16006934D02*
X8998861Y-16016458D01*
X8998861Y-16016458D02*
X8979814Y-16025982D01*
X8979814Y-16025982D02*
X8960766Y-16025982D01*
X8960766Y-16025982D02*
X8941718Y-16016458D01*
X8941718Y-16016458D02*
X8932195Y-16006934D01*
X8932195Y-16006934D02*
X8922671Y-15987886D01*
X8922671Y-15987886D02*
X8913147Y-15949791D01*
X8913147Y-15949791D02*
X8913147Y-15902172D01*
X8913147Y-15902172D02*
X8922671Y-15864077D01*
X8922671Y-15864077D02*
X8932195Y-15845029D01*
X8932195Y-15845029D02*
X8941718Y-15835505D01*
X8941718Y-15835505D02*
X8960766Y-15825982D01*
X9151242Y-15825982D02*
X9170290Y-15825982D01*
X9170290Y-15825982D02*
X9189338Y-15835505D01*
X9189338Y-15835505D02*
X9198861Y-15845029D01*
X9198861Y-15845029D02*
X9208385Y-15864077D01*
X9208385Y-15864077D02*
X9217909Y-15902172D01*
X9217909Y-15902172D02*
X9217909Y-15949791D01*
X9217909Y-15949791D02*
X9208385Y-15987886D01*
X9208385Y-15987886D02*
X9198861Y-16006934D01*
X9198861Y-16006934D02*
X9189338Y-16016458D01*
X9189338Y-16016458D02*
X9170290Y-16025982D01*
X9170290Y-16025982D02*
X9151242Y-16025982D01*
X9151242Y-16025982D02*
X9132195Y-16016458D01*
X9132195Y-16016458D02*
X9122671Y-16006934D01*
X9122671Y-16006934D02*
X9113147Y-15987886D01*
X9113147Y-15987886D02*
X9103623Y-15949791D01*
X9103623Y-15949791D02*
X9103623Y-15902172D01*
X9103623Y-15902172D02*
X9113147Y-15864077D01*
X9113147Y-15864077D02*
X9122671Y-15845029D01*
X9122671Y-15845029D02*
X9132195Y-15835505D01*
X9132195Y-15835505D02*
X9151242Y-15825982D01*
X9341718Y-15825982D02*
X9360766Y-15825982D01*
X9360766Y-15825982D02*
X9379814Y-15835505D01*
X9379814Y-15835505D02*
X9389338Y-15845029D01*
X9389338Y-15845029D02*
X9398861Y-15864077D01*
X9398861Y-15864077D02*
X9408385Y-15902172D01*
X9408385Y-15902172D02*
X9408385Y-15949791D01*
X9408385Y-15949791D02*
X9398861Y-15987886D01*
X9398861Y-15987886D02*
X9389338Y-16006934D01*
X9389338Y-16006934D02*
X9379814Y-16016458D01*
X9379814Y-16016458D02*
X9360766Y-16025982D01*
X9360766Y-16025982D02*
X9341718Y-16025982D01*
X9341718Y-16025982D02*
X9322671Y-16016458D01*
X9322671Y-16016458D02*
X9313147Y-16006934D01*
X9313147Y-16006934D02*
X9303623Y-15987886D01*
X9303623Y-15987886D02*
X9294099Y-15949791D01*
X9294099Y-15949791D02*
X9294099Y-15902172D01*
X9294099Y-15902172D02*
X9303623Y-15864077D01*
X9303623Y-15864077D02*
X9313147Y-15845029D01*
X9313147Y-15845029D02*
X9322671Y-15835505D01*
X9322671Y-15835505D02*
X9341718Y-15825982D01*
X9494099Y-16025982D02*
X9494099Y-15892648D01*
X9494099Y-15911696D02*
X9503623Y-15902172D01*
X9503623Y-15902172D02*
X9522671Y-15892648D01*
X9522671Y-15892648D02*
X9551242Y-15892648D01*
X9551242Y-15892648D02*
X9570290Y-15902172D01*
X9570290Y-15902172D02*
X9579814Y-15921220D01*
X9579814Y-15921220D02*
X9579814Y-16025982D01*
X9579814Y-15921220D02*
X9589338Y-15902172D01*
X9589338Y-15902172D02*
X9608385Y-15892648D01*
X9608385Y-15892648D02*
X9636957Y-15892648D01*
X9636957Y-15892648D02*
X9656004Y-15902172D01*
X9656004Y-15902172D02*
X9665528Y-15921220D01*
X9665528Y-15921220D02*
X9665528Y-16025982D01*
X9760766Y-16025982D02*
X9760766Y-15892648D01*
X9760766Y-15911696D02*
X9770290Y-15902172D01*
X9770290Y-15902172D02*
X9789338Y-15892648D01*
X9789338Y-15892648D02*
X9817909Y-15892648D01*
X9817909Y-15892648D02*
X9836957Y-15902172D01*
X9836957Y-15902172D02*
X9846480Y-15921220D01*
X9846480Y-15921220D02*
X9846480Y-16025982D01*
X9846480Y-15921220D02*
X9856004Y-15902172D01*
X9856004Y-15902172D02*
X9875052Y-15892648D01*
X9875052Y-15892648D02*
X9903623Y-15892648D01*
X9903623Y-15892648D02*
X9922671Y-15902172D01*
X9922671Y-15902172D02*
X9932195Y-15921220D01*
X9932195Y-15921220D02*
X9932195Y-16025982D01*
X10322671Y-15816458D02*
X10151242Y-16073601D01*
X10579814Y-15825982D02*
X10598862Y-15825982D01*
X10598862Y-15825982D02*
X10617909Y-15835505D01*
X10617909Y-15835505D02*
X10627433Y-15845029D01*
X10627433Y-15845029D02*
X10636957Y-15864077D01*
X10636957Y-15864077D02*
X10646481Y-15902172D01*
X10646481Y-15902172D02*
X10646481Y-15949791D01*
X10646481Y-15949791D02*
X10636957Y-15987886D01*
X10636957Y-15987886D02*
X10627433Y-16006934D01*
X10627433Y-16006934D02*
X10617909Y-16016458D01*
X10617909Y-16016458D02*
X10598862Y-16025982D01*
X10598862Y-16025982D02*
X10579814Y-16025982D01*
X10579814Y-16025982D02*
X10560766Y-16016458D01*
X10560766Y-16016458D02*
X10551242Y-16006934D01*
X10551242Y-16006934D02*
X10541719Y-15987886D01*
X10541719Y-15987886D02*
X10532195Y-15949791D01*
X10532195Y-15949791D02*
X10532195Y-15902172D01*
X10532195Y-15902172D02*
X10541719Y-15864077D01*
X10541719Y-15864077D02*
X10551242Y-15845029D01*
X10551242Y-15845029D02*
X10560766Y-15835505D01*
X10560766Y-15835505D02*
X10579814Y-15825982D01*
X10732195Y-16006934D02*
X10741719Y-16016458D01*
X10741719Y-16016458D02*
X10732195Y-16025982D01*
X10732195Y-16025982D02*
X10722671Y-16016458D01*
X10722671Y-16016458D02*
X10732195Y-16006934D01*
X10732195Y-16006934D02*
X10732195Y-16025982D01*
X10932195Y-16025982D02*
X10817909Y-16025982D01*
X10875052Y-16025982D02*
X10875052Y-15825982D01*
X10875052Y-15825982D02*
X10856004Y-15854553D01*
X10856004Y-15854553D02*
X10836957Y-15873601D01*
X10836957Y-15873601D02*
X10817909Y-15883124D01*
X11027433Y-16025982D02*
X11065528Y-16025982D01*
X11065528Y-16025982D02*
X11084576Y-16016458D01*
X11084576Y-16016458D02*
X11094100Y-16006934D01*
X11094100Y-16006934D02*
X11113147Y-15978362D01*
X11113147Y-15978362D02*
X11122671Y-15940267D01*
X11122671Y-15940267D02*
X11122671Y-15864077D01*
X11122671Y-15864077D02*
X11113147Y-15845029D01*
X11113147Y-15845029D02*
X11103623Y-15835505D01*
X11103623Y-15835505D02*
X11084576Y-15825982D01*
X11084576Y-15825982D02*
X11046481Y-15825982D01*
X11046481Y-15825982D02*
X11027433Y-15835505D01*
X11027433Y-15835505D02*
X11017909Y-15845029D01*
X11017909Y-15845029D02*
X11008385Y-15864077D01*
X11008385Y-15864077D02*
X11008385Y-15911696D01*
X11008385Y-15911696D02*
X11017909Y-15930743D01*
X11017909Y-15930743D02*
X11027433Y-15940267D01*
X11027433Y-15940267D02*
X11046481Y-15949791D01*
X11046481Y-15949791D02*
X11084576Y-15949791D01*
X11084576Y-15949791D02*
X11103623Y-15940267D01*
X11103623Y-15940267D02*
X11113147Y-15930743D01*
X11113147Y-15930743D02*
X11122671Y-15911696D01*
X11294100Y-15825982D02*
X11256004Y-15825982D01*
X11256004Y-15825982D02*
X11236957Y-15835505D01*
X11236957Y-15835505D02*
X11227433Y-15845029D01*
X11227433Y-15845029D02*
X11208385Y-15873601D01*
X11208385Y-15873601D02*
X11198861Y-15911696D01*
X11198861Y-15911696D02*
X11198861Y-15987886D01*
X11198861Y-15987886D02*
X11208385Y-16006934D01*
X11208385Y-16006934D02*
X11217909Y-16016458D01*
X11217909Y-16016458D02*
X11236957Y-16025982D01*
X11236957Y-16025982D02*
X11275052Y-16025982D01*
X11275052Y-16025982D02*
X11294100Y-16016458D01*
X11294100Y-16016458D02*
X11303623Y-16006934D01*
X11303623Y-16006934D02*
X11313147Y-15987886D01*
X11313147Y-15987886D02*
X11313147Y-15940267D01*
X11313147Y-15940267D02*
X11303623Y-15921220D01*
X11303623Y-15921220D02*
X11294100Y-15911696D01*
X11294100Y-15911696D02*
X11275052Y-15902172D01*
X11275052Y-15902172D02*
X11236957Y-15902172D01*
X11236957Y-15902172D02*
X11217909Y-15911696D01*
X11217909Y-15911696D02*
X11208385Y-15921220D01*
X11208385Y-15921220D02*
X11198861Y-15940267D01*
X11408385Y-16025982D02*
X11446480Y-16025982D01*
X11446480Y-16025982D02*
X11465528Y-16016458D01*
X11465528Y-16016458D02*
X11475052Y-16006934D01*
X11475052Y-16006934D02*
X11494100Y-15978362D01*
X11494100Y-15978362D02*
X11503623Y-15940267D01*
X11503623Y-15940267D02*
X11503623Y-15864077D01*
X11503623Y-15864077D02*
X11494100Y-15845029D01*
X11494100Y-15845029D02*
X11484576Y-15835505D01*
X11484576Y-15835505D02*
X11465528Y-15825982D01*
X11465528Y-15825982D02*
X11427433Y-15825982D01*
X11427433Y-15825982D02*
X11408385Y-15835505D01*
X11408385Y-15835505D02*
X11398861Y-15845029D01*
X11398861Y-15845029D02*
X11389338Y-15864077D01*
X11389338Y-15864077D02*
X11389338Y-15911696D01*
X11389338Y-15911696D02*
X11398861Y-15930743D01*
X11398861Y-15930743D02*
X11408385Y-15940267D01*
X11408385Y-15940267D02*
X11427433Y-15949791D01*
X11427433Y-15949791D02*
X11465528Y-15949791D01*
X11465528Y-15949791D02*
X11484576Y-15940267D01*
X11484576Y-15940267D02*
X11494100Y-15930743D01*
X11494100Y-15930743D02*
X11503623Y-15911696D01*
X11579814Y-15825982D02*
X11579814Y-15864077D01*
X11656004Y-15825982D02*
X11656004Y-15864077D01*
X11951243Y-16102172D02*
X11941719Y-16092648D01*
X11941719Y-16092648D02*
X11922671Y-16064077D01*
X11922671Y-16064077D02*
X11913147Y-16045029D01*
X11913147Y-16045029D02*
X11903623Y-16016458D01*
X11903623Y-16016458D02*
X11894100Y-15968839D01*
X11894100Y-15968839D02*
X11894100Y-15930743D01*
X11894100Y-15930743D02*
X11903623Y-15883124D01*
X11903623Y-15883124D02*
X11913147Y-15854553D01*
X11913147Y-15854553D02*
X11922671Y-15835505D01*
X11922671Y-15835505D02*
X11941719Y-15806934D01*
X11941719Y-15806934D02*
X11951243Y-15797410D01*
X12132195Y-16025982D02*
X12017909Y-16025982D01*
X12075052Y-16025982D02*
X12075052Y-15825982D01*
X12075052Y-15825982D02*
X12056004Y-15854553D01*
X12056004Y-15854553D02*
X12036957Y-15873601D01*
X12036957Y-15873601D02*
X12017909Y-15883124D01*
X12370290Y-16025982D02*
X12370290Y-15825982D01*
X12456004Y-16025982D02*
X12456004Y-15921220D01*
X12456004Y-15921220D02*
X12446481Y-15902172D01*
X12446481Y-15902172D02*
X12427433Y-15892648D01*
X12427433Y-15892648D02*
X12398862Y-15892648D01*
X12398862Y-15892648D02*
X12379814Y-15902172D01*
X12379814Y-15902172D02*
X12370290Y-15911696D01*
X12579814Y-16025982D02*
X12560766Y-16016458D01*
X12560766Y-16016458D02*
X12551243Y-16006934D01*
X12551243Y-16006934D02*
X12541719Y-15987886D01*
X12541719Y-15987886D02*
X12541719Y-15930743D01*
X12541719Y-15930743D02*
X12551243Y-15911696D01*
X12551243Y-15911696D02*
X12560766Y-15902172D01*
X12560766Y-15902172D02*
X12579814Y-15892648D01*
X12579814Y-15892648D02*
X12608385Y-15892648D01*
X12608385Y-15892648D02*
X12627433Y-15902172D01*
X12627433Y-15902172D02*
X12636957Y-15911696D01*
X12636957Y-15911696D02*
X12646481Y-15930743D01*
X12646481Y-15930743D02*
X12646481Y-15987886D01*
X12646481Y-15987886D02*
X12636957Y-16006934D01*
X12636957Y-16006934D02*
X12627433Y-16016458D01*
X12627433Y-16016458D02*
X12608385Y-16025982D01*
X12608385Y-16025982D02*
X12579814Y-16025982D01*
X12760766Y-16025982D02*
X12741719Y-16016458D01*
X12741719Y-16016458D02*
X12732195Y-15997410D01*
X12732195Y-15997410D02*
X12732195Y-15825982D01*
X12913147Y-16016458D02*
X12894100Y-16025982D01*
X12894100Y-16025982D02*
X12856004Y-16025982D01*
X12856004Y-16025982D02*
X12836957Y-16016458D01*
X12836957Y-16016458D02*
X12827433Y-15997410D01*
X12827433Y-15997410D02*
X12827433Y-15921220D01*
X12827433Y-15921220D02*
X12836957Y-15902172D01*
X12836957Y-15902172D02*
X12856004Y-15892648D01*
X12856004Y-15892648D02*
X12894100Y-15892648D01*
X12894100Y-15892648D02*
X12913147Y-15902172D01*
X12913147Y-15902172D02*
X12922671Y-15921220D01*
X12922671Y-15921220D02*
X12922671Y-15940267D01*
X12922671Y-15940267D02*
X12827433Y-15959315D01*
X12989338Y-16102172D02*
X12998862Y-16092648D01*
X12998862Y-16092648D02*
X13017909Y-16064077D01*
X13017909Y-16064077D02*
X13027433Y-16045029D01*
X13027433Y-16045029D02*
X13036957Y-16016458D01*
X13036957Y-16016458D02*
X13046481Y-15968839D01*
X13046481Y-15968839D02*
X13046481Y-15930743D01*
X13046481Y-15930743D02*
X13036957Y-15883124D01*
X13036957Y-15883124D02*
X13027433Y-15854553D01*
X13027433Y-15854553D02*
X13017909Y-15835505D01*
X13017909Y-15835505D02*
X12998862Y-15806934D01*
X12998862Y-15806934D02*
X12989338Y-15797410D01*
X13351243Y-16102172D02*
X13341719Y-16092648D01*
X13341719Y-16092648D02*
X13322671Y-16064077D01*
X13322671Y-16064077D02*
X13313147Y-16045029D01*
X13313147Y-16045029D02*
X13303624Y-16016458D01*
X13303624Y-16016458D02*
X13294100Y-15968839D01*
X13294100Y-15968839D02*
X13294100Y-15930743D01*
X13294100Y-15930743D02*
X13303624Y-15883124D01*
X13303624Y-15883124D02*
X13313147Y-15854553D01*
X13313147Y-15854553D02*
X13322671Y-15835505D01*
X13322671Y-15835505D02*
X13341719Y-15806934D01*
X13341719Y-15806934D02*
X13351243Y-15797410D01*
X13427433Y-15892648D02*
X13427433Y-16025982D01*
X13427433Y-15911696D02*
X13436957Y-15902172D01*
X13436957Y-15902172D02*
X13456004Y-15892648D01*
X13456004Y-15892648D02*
X13484576Y-15892648D01*
X13484576Y-15892648D02*
X13503624Y-15902172D01*
X13503624Y-15902172D02*
X13513147Y-15921220D01*
X13513147Y-15921220D02*
X13513147Y-16025982D01*
X13636957Y-16025982D02*
X13617909Y-16016458D01*
X13617909Y-16016458D02*
X13608385Y-16006934D01*
X13608385Y-16006934D02*
X13598862Y-15987886D01*
X13598862Y-15987886D02*
X13598862Y-15930743D01*
X13598862Y-15930743D02*
X13608385Y-15911696D01*
X13608385Y-15911696D02*
X13617909Y-15902172D01*
X13617909Y-15902172D02*
X13636957Y-15892648D01*
X13636957Y-15892648D02*
X13665528Y-15892648D01*
X13665528Y-15892648D02*
X13684576Y-15902172D01*
X13684576Y-15902172D02*
X13694100Y-15911696D01*
X13694100Y-15911696D02*
X13703624Y-15930743D01*
X13703624Y-15930743D02*
X13703624Y-15987886D01*
X13703624Y-15987886D02*
X13694100Y-16006934D01*
X13694100Y-16006934D02*
X13684576Y-16016458D01*
X13684576Y-16016458D02*
X13665528Y-16025982D01*
X13665528Y-16025982D02*
X13636957Y-16025982D01*
X13760766Y-15892648D02*
X13836957Y-15892648D01*
X13789338Y-15825982D02*
X13789338Y-15997410D01*
X13789338Y-15997410D02*
X13798862Y-16016458D01*
X13798862Y-16016458D02*
X13817909Y-16025982D01*
X13817909Y-16025982D02*
X13836957Y-16025982D01*
X14056005Y-15892648D02*
X14056005Y-16092648D01*
X14056005Y-15902172D02*
X14075052Y-15892648D01*
X14075052Y-15892648D02*
X14113147Y-15892648D01*
X14113147Y-15892648D02*
X14132195Y-15902172D01*
X14132195Y-15902172D02*
X14141719Y-15911696D01*
X14141719Y-15911696D02*
X14151243Y-15930743D01*
X14151243Y-15930743D02*
X14151243Y-15987886D01*
X14151243Y-15987886D02*
X14141719Y-16006934D01*
X14141719Y-16006934D02*
X14132195Y-16016458D01*
X14132195Y-16016458D02*
X14113147Y-16025982D01*
X14113147Y-16025982D02*
X14075052Y-16025982D01*
X14075052Y-16025982D02*
X14056005Y-16016458D01*
X14265528Y-16025982D02*
X14246481Y-16016458D01*
X14246481Y-16016458D02*
X14236957Y-15997410D01*
X14236957Y-15997410D02*
X14236957Y-15825982D01*
X14427433Y-16025982D02*
X14427433Y-15921220D01*
X14427433Y-15921220D02*
X14417909Y-15902172D01*
X14417909Y-15902172D02*
X14398862Y-15892648D01*
X14398862Y-15892648D02*
X14360766Y-15892648D01*
X14360766Y-15892648D02*
X14341719Y-15902172D01*
X14427433Y-16016458D02*
X14408386Y-16025982D01*
X14408386Y-16025982D02*
X14360766Y-16025982D01*
X14360766Y-16025982D02*
X14341719Y-16016458D01*
X14341719Y-16016458D02*
X14332195Y-15997410D01*
X14332195Y-15997410D02*
X14332195Y-15978362D01*
X14332195Y-15978362D02*
X14341719Y-15959315D01*
X14341719Y-15959315D02*
X14360766Y-15949791D01*
X14360766Y-15949791D02*
X14408386Y-15949791D01*
X14408386Y-15949791D02*
X14427433Y-15940267D01*
X14494100Y-15892648D02*
X14570290Y-15892648D01*
X14522671Y-15825982D02*
X14522671Y-15997410D01*
X14522671Y-15997410D02*
X14532195Y-16016458D01*
X14532195Y-16016458D02*
X14551243Y-16025982D01*
X14551243Y-16025982D02*
X14570290Y-16025982D01*
X14713147Y-16016458D02*
X14694100Y-16025982D01*
X14694100Y-16025982D02*
X14656005Y-16025982D01*
X14656005Y-16025982D02*
X14636957Y-16016458D01*
X14636957Y-16016458D02*
X14627433Y-15997410D01*
X14627433Y-15997410D02*
X14627433Y-15921220D01*
X14627433Y-15921220D02*
X14636957Y-15902172D01*
X14636957Y-15902172D02*
X14656005Y-15892648D01*
X14656005Y-15892648D02*
X14694100Y-15892648D01*
X14694100Y-15892648D02*
X14713147Y-15902172D01*
X14713147Y-15902172D02*
X14722671Y-15921220D01*
X14722671Y-15921220D02*
X14722671Y-15940267D01*
X14722671Y-15940267D02*
X14627433Y-15959315D01*
X14894100Y-16025982D02*
X14894100Y-15825982D01*
X14894100Y-16016458D02*
X14875052Y-16025982D01*
X14875052Y-16025982D02*
X14836957Y-16025982D01*
X14836957Y-16025982D02*
X14817909Y-16016458D01*
X14817909Y-16016458D02*
X14808386Y-16006934D01*
X14808386Y-16006934D02*
X14798862Y-15987886D01*
X14798862Y-15987886D02*
X14798862Y-15930743D01*
X14798862Y-15930743D02*
X14808386Y-15911696D01*
X14808386Y-15911696D02*
X14817909Y-15902172D01*
X14817909Y-15902172D02*
X14836957Y-15892648D01*
X14836957Y-15892648D02*
X14875052Y-15892648D01*
X14875052Y-15892648D02*
X14894100Y-15902172D01*
X14970290Y-16102172D02*
X14979814Y-16092648D01*
X14979814Y-16092648D02*
X14998862Y-16064077D01*
X14998862Y-16064077D02*
X15008386Y-16045029D01*
X15008386Y-16045029D02*
X15017909Y-16016458D01*
X15017909Y-16016458D02*
X15027433Y-15968839D01*
X15027433Y-15968839D02*
X15027433Y-15930743D01*
X15027433Y-15930743D02*
X15017909Y-15883124D01*
X15017909Y-15883124D02*
X15008386Y-15854553D01*
X15008386Y-15854553D02*
X14998862Y-15835505D01*
X14998862Y-15835505D02*
X14979814Y-15806934D01*
X14979814Y-15806934D02*
X14970290Y-15797410D01*
M02*
