G04 #@! TF.GenerationSoftware,KiCad,Pcbnew,9.0.0*
G04 #@! TF.CreationDate,2025-06-03T17:11:12-04:00*
G04 #@! TF.ProjectId,mothers_day_necklace,6d6f7468-6572-4735-9f64-61795f6e6563,A*
G04 #@! TF.SameCoordinates,Original*
G04 #@! TF.FileFunction,Legend,Top*
G04 #@! TF.FilePolarity,Positive*
%FSLAX46Y46*%
G04 Gerber Fmt 4.6, Leading zero omitted, Abs format (unit mm)*
G04 Created by KiCad (PCBNEW 9.0.0) date 2025-06-03 17:11:12*
%MOMM*%
%LPD*%
G01*
G04 APERTURE LIST*
G04 Aperture macros list*
%AMHorizOval*
0 Thick line with rounded ends*
0 $1 width*
0 $2 $3 position (X,Y) of the first rounded end (center of the circle)*
0 $4 $5 position (X,Y) of the second rounded end (center of the circle)*
0 Add line between two ends*
20,1,$1,$2,$3,$4,$5,0*
0 Add two circle primitives to create the rounded ends*
1,1,$1,$2,$3*
1,1,$1,$4,$5*%
G04 Aperture macros list end*
%ADD10C,0.000000*%
%ADD11C,0.125000*%
%ADD12C,0.100000*%
%ADD13C,0.150000*%
%ADD14C,0.120000*%
%ADD15R,1.800000X1.800000*%
%ADD16C,1.800000*%
%ADD17C,1.600000*%
%ADD18HorizOval,1.600000X0.000000X0.000000X0.000000X0.000000X0*%
%ADD19C,5.000000*%
%ADD20O,1.600000X1.600000*%
%ADD21R,1.270000X5.080000*%
%ADD22C,17.800000*%
%ADD23R,1.500000X1.500000*%
%ADD24C,1.500000*%
%ADD25HorizOval,1.600000X0.000000X0.000000X0.000000X0.000000X0*%
G04 APERTURE END LIST*
D10*
G36*
X119828908Y-118092346D02*
G01*
X119832156Y-118093759D01*
X119839921Y-118106931D01*
X119858509Y-118140619D01*
X119923285Y-118260476D01*
X120016739Y-118435189D01*
X120129127Y-118646616D01*
X120469082Y-119284923D01*
X120489067Y-119322164D01*
X120504729Y-119352661D01*
X120510449Y-119364397D01*
X120514501Y-119373267D01*
X120516690Y-119378878D01*
X120517024Y-119380338D01*
X120516990Y-119380710D01*
X120516818Y-119380835D01*
X120516483Y-119380739D01*
X120515966Y-119380452D01*
X120514401Y-119379326D01*
X120512164Y-119377497D01*
X120509293Y-119375001D01*
X120501810Y-119368164D01*
X120492268Y-119359117D01*
X120480983Y-119348164D01*
X120468270Y-119335608D01*
X120454445Y-119321752D01*
X120439824Y-119306900D01*
X120399149Y-119267086D01*
X120355421Y-119227667D01*
X120308753Y-119188710D01*
X120259259Y-119150280D01*
X120207053Y-119112443D01*
X120152248Y-119075265D01*
X120094958Y-119038812D01*
X120035297Y-119003151D01*
X119973378Y-118968345D01*
X119909315Y-118934463D01*
X119843222Y-118901569D01*
X119775212Y-118869729D01*
X119705400Y-118839010D01*
X119633898Y-118809477D01*
X119560820Y-118781196D01*
X119486281Y-118754233D01*
X119402619Y-118724603D01*
X119334435Y-118699349D01*
X119279214Y-118677247D01*
X119255677Y-118666996D01*
X119234438Y-118657076D01*
X119215181Y-118647333D01*
X119197592Y-118637614D01*
X119181356Y-118627767D01*
X119166158Y-118617639D01*
X119151685Y-118607078D01*
X119137622Y-118595930D01*
X119109466Y-118571265D01*
X119097859Y-118560070D01*
X119087126Y-118548704D01*
X119077263Y-118537185D01*
X119068269Y-118525532D01*
X119060140Y-118513766D01*
X119052874Y-118501903D01*
X119046468Y-118489965D01*
X119040919Y-118477970D01*
X119036225Y-118465937D01*
X119032383Y-118453886D01*
X119029391Y-118441834D01*
X119027246Y-118429803D01*
X119025944Y-118417810D01*
X119025484Y-118405875D01*
X119025863Y-118394018D01*
X119027078Y-118382256D01*
X119029127Y-118370610D01*
X119032006Y-118359098D01*
X119035713Y-118347740D01*
X119040246Y-118336554D01*
X119045601Y-118325561D01*
X119051777Y-118314779D01*
X119058770Y-118304226D01*
X119066577Y-118293924D01*
X119075197Y-118283889D01*
X119084626Y-118274142D01*
X119094862Y-118264703D01*
X119105902Y-118255588D01*
X119117744Y-118246820D01*
X119130384Y-118238415D01*
X119143820Y-118230393D01*
X119158050Y-118222774D01*
X119177137Y-118215184D01*
X119206702Y-118206113D01*
X119290922Y-118184745D01*
X119398012Y-118161099D01*
X119515277Y-118137606D01*
X119630020Y-118116695D01*
X119729545Y-118100797D01*
X119801156Y-118092342D01*
X119822526Y-118091664D01*
X119828908Y-118092346D01*
G37*
G36*
X126112549Y-112848565D02*
G01*
X126279825Y-112852417D01*
X126337553Y-112854931D01*
X126382927Y-112858315D01*
X126419636Y-112862929D01*
X126451369Y-112869134D01*
X126481816Y-112877288D01*
X126514666Y-112887751D01*
X126561367Y-112904471D01*
X126606890Y-112923149D01*
X126651176Y-112943735D01*
X126694167Y-112966181D01*
X126735804Y-112990438D01*
X126776029Y-113016459D01*
X126814783Y-113044194D01*
X126852008Y-113073596D01*
X126887645Y-113104615D01*
X126921636Y-113137203D01*
X126953923Y-113171312D01*
X126984447Y-113206893D01*
X127013149Y-113243898D01*
X127039971Y-113282278D01*
X127064855Y-113321985D01*
X127087742Y-113362970D01*
X127133677Y-113450366D01*
X126922356Y-113591174D01*
X126839917Y-113645847D01*
X126771668Y-113690619D01*
X126724706Y-113720871D01*
X126711424Y-113729107D01*
X126706124Y-113731981D01*
X126705835Y-113731877D01*
X126705473Y-113731566D01*
X126704543Y-113730348D01*
X126703352Y-113728369D01*
X126701917Y-113725669D01*
X126700256Y-113722289D01*
X126698386Y-113718271D01*
X126694089Y-113708483D01*
X126689167Y-113696632D01*
X126683760Y-113683047D01*
X126678006Y-113668055D01*
X126672046Y-113651986D01*
X126667980Y-113641254D01*
X126663716Y-113630845D01*
X126659226Y-113620719D01*
X126654484Y-113610834D01*
X126649462Y-113601148D01*
X126644131Y-113591619D01*
X126638463Y-113582207D01*
X126632432Y-113572869D01*
X126626009Y-113563564D01*
X126619167Y-113554250D01*
X126611877Y-113544886D01*
X126604113Y-113535430D01*
X126595845Y-113525841D01*
X126587047Y-113516077D01*
X126577691Y-113506097D01*
X126567749Y-113495859D01*
X126542893Y-113471692D01*
X126518166Y-113449852D01*
X126493250Y-113430248D01*
X126480621Y-113421257D01*
X126467825Y-113412791D01*
X126454822Y-113404840D01*
X126441572Y-113397391D01*
X126428035Y-113390435D01*
X126414173Y-113383959D01*
X126399943Y-113377953D01*
X126385308Y-113372405D01*
X126370226Y-113367304D01*
X126354658Y-113362639D01*
X126338565Y-113358398D01*
X126321905Y-113354571D01*
X126304641Y-113351146D01*
X126286730Y-113348112D01*
X126248814Y-113343171D01*
X126207837Y-113339660D01*
X126163481Y-113337489D01*
X126115427Y-113336567D01*
X126063356Y-113336806D01*
X126006949Y-113338114D01*
X125924365Y-113341705D01*
X125888165Y-113344238D01*
X125854973Y-113347378D01*
X125824500Y-113351212D01*
X125796454Y-113355826D01*
X125770545Y-113361308D01*
X125746483Y-113367744D01*
X125723978Y-113375221D01*
X125702739Y-113383825D01*
X125682477Y-113393644D01*
X125662901Y-113404763D01*
X125643721Y-113417270D01*
X125624647Y-113431252D01*
X125605387Y-113446794D01*
X125585653Y-113463984D01*
X125571084Y-113477359D01*
X125557437Y-113490473D01*
X125544665Y-113503402D01*
X125532717Y-113516219D01*
X125521542Y-113529000D01*
X125511092Y-113541819D01*
X125501315Y-113554750D01*
X125492164Y-113567868D01*
X125483586Y-113581248D01*
X125475533Y-113594964D01*
X125467955Y-113609090D01*
X125460802Y-113623702D01*
X125454024Y-113638873D01*
X125447571Y-113654679D01*
X125441393Y-113671194D01*
X125435440Y-113688492D01*
X125431982Y-113699531D01*
X125428902Y-113710759D01*
X125426184Y-113722483D01*
X125423813Y-113735006D01*
X125421774Y-113748635D01*
X125420051Y-113763675D01*
X125418629Y-113780432D01*
X125417493Y-113799212D01*
X125416627Y-113820319D01*
X125416016Y-113844059D01*
X125415645Y-113870738D01*
X125415498Y-113900662D01*
X125415816Y-113971463D01*
X125416848Y-114058908D01*
X125419880Y-114233781D01*
X125422033Y-114290198D01*
X125425250Y-114331742D01*
X125427407Y-114348297D01*
X125430009Y-114362767D01*
X125433115Y-114375695D01*
X125436787Y-114387627D01*
X125446065Y-114410679D01*
X125458320Y-114436275D01*
X125470253Y-114459041D01*
X125483368Y-114481172D01*
X125497620Y-114502627D01*
X125512959Y-114523365D01*
X125529340Y-114543346D01*
X125546714Y-114562527D01*
X125565033Y-114580869D01*
X125584251Y-114598330D01*
X125604319Y-114614868D01*
X125625192Y-114630444D01*
X125646819Y-114645015D01*
X125669156Y-114658540D01*
X125692153Y-114670979D01*
X125715764Y-114682291D01*
X125739941Y-114692433D01*
X125764636Y-114701366D01*
X125770296Y-114702773D01*
X125778894Y-114704230D01*
X125804201Y-114707252D01*
X125839144Y-114710341D01*
X125882311Y-114713405D01*
X125932289Y-114716353D01*
X125987667Y-114719095D01*
X126047031Y-114721538D01*
X126108970Y-114723592D01*
X126283089Y-114729418D01*
X126341756Y-114732657D01*
X126387427Y-114736814D01*
X126406780Y-114739399D01*
X126424552Y-114742411D01*
X126441300Y-114745914D01*
X126457580Y-114749974D01*
X126490961Y-114760026D01*
X126529145Y-114773092D01*
X126559207Y-114783933D01*
X126587604Y-114794833D01*
X126614525Y-114805914D01*
X126640161Y-114817298D01*
X126664700Y-114829106D01*
X126688333Y-114841459D01*
X126711248Y-114854481D01*
X126733637Y-114868292D01*
X126755689Y-114883015D01*
X126777592Y-114898770D01*
X126799538Y-114915681D01*
X126821715Y-114933869D01*
X126844313Y-114953455D01*
X126867522Y-114974561D01*
X126891532Y-114997309D01*
X126916532Y-115021821D01*
X126951338Y-115056987D01*
X126966491Y-115072804D01*
X126980338Y-115087707D01*
X126993024Y-115101890D01*
X127004693Y-115115550D01*
X127015490Y-115128884D01*
X127025561Y-115142088D01*
X127035050Y-115155357D01*
X127044103Y-115168888D01*
X127052864Y-115182878D01*
X127061478Y-115197521D01*
X127070090Y-115213016D01*
X127078846Y-115229557D01*
X127097366Y-115266564D01*
X127115825Y-115304506D01*
X127131937Y-115338595D01*
X127145861Y-115370525D01*
X127152052Y-115386209D01*
X127157756Y-115401990D01*
X127162993Y-115418077D01*
X127167783Y-115434684D01*
X127172145Y-115452021D01*
X127176100Y-115470302D01*
X127179667Y-115489736D01*
X127182867Y-115510537D01*
X127185720Y-115532916D01*
X127188245Y-115557085D01*
X127190462Y-115583255D01*
X127192392Y-115611639D01*
X127195468Y-115675893D01*
X127197633Y-115751542D01*
X127199047Y-115840280D01*
X127199868Y-115943801D01*
X127200257Y-116063800D01*
X127200377Y-116360007D01*
X127199751Y-116801485D01*
X127196538Y-117052026D01*
X127193335Y-117127228D01*
X127188733Y-117180537D01*
X127182484Y-117220564D01*
X127174336Y-117255923D01*
X127164257Y-117292011D01*
X127152531Y-117327988D01*
X127139213Y-117363768D01*
X127124359Y-117399262D01*
X127108025Y-117434383D01*
X127090267Y-117469043D01*
X127071140Y-117503155D01*
X127050700Y-117536631D01*
X127029003Y-117569384D01*
X127006104Y-117601325D01*
X126982060Y-117632367D01*
X126956926Y-117662422D01*
X126930758Y-117691403D01*
X126903612Y-117719223D01*
X126875544Y-117745792D01*
X126846608Y-117771025D01*
X126827606Y-117786149D01*
X126806640Y-117801452D01*
X126783942Y-117816819D01*
X126759745Y-117832136D01*
X126734281Y-117847291D01*
X126707782Y-117862170D01*
X126680483Y-117876660D01*
X126652614Y-117890646D01*
X126624409Y-117904016D01*
X126596100Y-117916656D01*
X126567920Y-117928452D01*
X126540101Y-117939292D01*
X126512876Y-117949062D01*
X126486477Y-117957647D01*
X126461137Y-117964936D01*
X126437089Y-117970813D01*
X126409233Y-117975686D01*
X126373609Y-117979913D01*
X126283482Y-117986427D01*
X126175565Y-117990352D01*
X126058710Y-117991686D01*
X125941774Y-117990426D01*
X125833611Y-117986569D01*
X125743076Y-117980113D01*
X125707186Y-117975909D01*
X125679023Y-117971054D01*
X125679025Y-117971053D01*
X125642382Y-117962010D01*
X125605062Y-117950658D01*
X125567277Y-117937130D01*
X125529236Y-117921561D01*
X125491152Y-117904083D01*
X125453236Y-117884829D01*
X125415697Y-117863933D01*
X125378748Y-117841529D01*
X125342599Y-117817748D01*
X125307461Y-117792726D01*
X125273545Y-117766594D01*
X125241063Y-117739487D01*
X125210225Y-117711538D01*
X125181242Y-117682880D01*
X125154325Y-117653646D01*
X125129686Y-117623970D01*
X125116032Y-117606100D01*
X125102522Y-117587516D01*
X125089282Y-117568451D01*
X125076440Y-117549141D01*
X125052458Y-117510723D01*
X125031590Y-117474140D01*
X125022643Y-117457122D01*
X125014855Y-117441268D01*
X125008355Y-117426810D01*
X125003268Y-117413985D01*
X124999723Y-117403025D01*
X124997846Y-117394168D01*
X124997572Y-117390600D01*
X124997764Y-117387646D01*
X124998436Y-117385334D01*
X124999604Y-117383695D01*
X125021945Y-117367573D01*
X125070975Y-117334095D01*
X125212890Y-117239117D01*
X125352923Y-117146859D01*
X125399600Y-117116781D01*
X125418646Y-117105418D01*
X125418915Y-117105490D01*
X125419224Y-117105704D01*
X125419571Y-117106055D01*
X125419954Y-117106541D01*
X125420825Y-117107903D01*
X125421825Y-117109760D01*
X125422944Y-117112084D01*
X125424171Y-117114848D01*
X125425495Y-117118022D01*
X125426905Y-117121580D01*
X125428389Y-117125492D01*
X125429938Y-117129730D01*
X125433185Y-117139074D01*
X125436557Y-117149384D01*
X125439967Y-117160436D01*
X125447871Y-117183571D01*
X125457674Y-117206732D01*
X125469260Y-117229795D01*
X125482514Y-117252639D01*
X125497318Y-117275141D01*
X125513557Y-117297178D01*
X125531114Y-117318629D01*
X125549873Y-117339370D01*
X125569718Y-117359281D01*
X125590532Y-117378237D01*
X125612200Y-117396117D01*
X125634606Y-117412798D01*
X125657632Y-117428159D01*
X125681163Y-117442076D01*
X125705082Y-117454427D01*
X125729274Y-117465090D01*
X125741882Y-117470054D01*
X125753830Y-117474448D01*
X125765494Y-117478309D01*
X125777251Y-117481669D01*
X125789477Y-117484562D01*
X125802549Y-117487025D01*
X125816843Y-117489090D01*
X125832737Y-117490792D01*
X125850607Y-117492165D01*
X125870830Y-117493244D01*
X125893783Y-117494063D01*
X125919841Y-117494655D01*
X125949383Y-117495057D01*
X125982784Y-117495301D01*
X126062671Y-117495455D01*
X126143480Y-117495311D01*
X126206848Y-117494675D01*
X126255976Y-117493246D01*
X126294063Y-117490723D01*
X126309967Y-117488957D01*
X126324310Y-117486804D01*
X126337494Y-117484226D01*
X126349918Y-117481187D01*
X126374086Y-117473570D01*
X126400015Y-117463652D01*
X126420480Y-117454622D01*
X126441087Y-117443926D01*
X126461708Y-117431693D01*
X126482214Y-117418052D01*
X126502475Y-117403131D01*
X126522364Y-117387059D01*
X126541750Y-117369966D01*
X126560506Y-117351980D01*
X126578502Y-117333230D01*
X126595609Y-117313844D01*
X126611698Y-117293952D01*
X126626641Y-117273683D01*
X126640309Y-117253165D01*
X126652572Y-117232527D01*
X126663303Y-117211899D01*
X126672371Y-117191408D01*
X126704286Y-117112033D01*
X126708029Y-116384930D01*
X126709581Y-115973273D01*
X126709117Y-115840771D01*
X126707497Y-115745704D01*
X126704474Y-115679488D01*
X126699800Y-115633535D01*
X126693228Y-115599259D01*
X126684511Y-115568074D01*
X126674999Y-115540324D01*
X126663512Y-115513040D01*
X126650152Y-115486325D01*
X126635027Y-115460285D01*
X126618240Y-115435023D01*
X126599896Y-115410644D01*
X126580100Y-115387254D01*
X126558957Y-115364956D01*
X126536571Y-115343854D01*
X126513048Y-115324054D01*
X126488493Y-115305660D01*
X126463010Y-115288776D01*
X126436703Y-115273507D01*
X126409679Y-115259958D01*
X126382041Y-115248232D01*
X126353894Y-115238435D01*
X126347581Y-115236917D01*
X126338347Y-115235346D01*
X126311837Y-115232091D01*
X126275804Y-115228769D01*
X126231686Y-115225477D01*
X126180922Y-115222313D01*
X126124950Y-115219375D01*
X126065210Y-115216761D01*
X126003140Y-115214569D01*
X125833410Y-115208470D01*
X125774936Y-115205162D01*
X125728987Y-115201118D01*
X125691759Y-115195915D01*
X125659448Y-115189131D01*
X125628253Y-115180343D01*
X125594369Y-115169127D01*
X125535337Y-115146889D01*
X125478466Y-115121614D01*
X125423826Y-115093378D01*
X125371486Y-115062253D01*
X125321518Y-115028313D01*
X125273989Y-114991630D01*
X125228971Y-114952279D01*
X125186533Y-114910333D01*
X125146745Y-114865865D01*
X125109677Y-114818948D01*
X125075398Y-114769656D01*
X125043978Y-114718062D01*
X125015488Y-114664240D01*
X124989996Y-114608262D01*
X124967573Y-114550203D01*
X124948288Y-114490135D01*
X124943364Y-114472783D01*
X124939010Y-114456391D01*
X124935190Y-114440428D01*
X124931870Y-114424361D01*
X124929017Y-114407659D01*
X124926595Y-114389787D01*
X124924570Y-114370214D01*
X124922908Y-114348407D01*
X124921575Y-114323834D01*
X124920535Y-114295963D01*
X124919755Y-114264260D01*
X124919200Y-114228193D01*
X124918628Y-114140838D01*
X124918544Y-114029637D01*
X124919087Y-113894224D01*
X124921174Y-113786699D01*
X124923090Y-113741533D01*
X124925743Y-113701105D01*
X124929252Y-113664670D01*
X124933732Y-113631483D01*
X124939301Y-113600800D01*
X124946078Y-113571875D01*
X124954177Y-113543964D01*
X124963718Y-113516321D01*
X124974816Y-113488203D01*
X124987590Y-113458864D01*
X125018633Y-113393544D01*
X125037951Y-113356134D01*
X125058648Y-113319861D01*
X125080714Y-113284735D01*
X125104137Y-113250766D01*
X125128906Y-113217966D01*
X125155012Y-113186344D01*
X125182443Y-113155910D01*
X125211188Y-113126676D01*
X125241238Y-113098651D01*
X125272581Y-113071846D01*
X125305207Y-113046272D01*
X125339105Y-113021938D01*
X125374264Y-112998856D01*
X125410673Y-112977035D01*
X125448323Y-112956486D01*
X125487201Y-112937220D01*
X125518423Y-112922924D01*
X125548549Y-112910099D01*
X125578038Y-112898680D01*
X125607350Y-112888603D01*
X125636945Y-112879801D01*
X125667281Y-112872210D01*
X125698819Y-112865765D01*
X125732018Y-112860401D01*
X125767338Y-112856052D01*
X125805237Y-112852653D01*
X125846176Y-112850139D01*
X125890614Y-112848445D01*
X125939011Y-112847506D01*
X125991826Y-112847256D01*
X126112549Y-112848565D01*
G37*
G36*
X122045353Y-114582138D02*
G01*
X122045691Y-114582345D01*
X122046024Y-114582703D01*
X122046354Y-114583211D01*
X122046684Y-114583869D01*
X122047347Y-114585629D01*
X122048025Y-114587977D01*
X122048732Y-114590908D01*
X122049478Y-114594415D01*
X122050278Y-114598491D01*
X122075445Y-114730783D01*
X122085306Y-114778179D01*
X122097031Y-114826607D01*
X122110554Y-114875910D01*
X122125807Y-114925933D01*
X122142723Y-114976520D01*
X122161234Y-115027515D01*
X122181273Y-115078763D01*
X122202772Y-115130107D01*
X122225664Y-115181391D01*
X122249882Y-115232461D01*
X122275358Y-115283160D01*
X122302025Y-115333332D01*
X122329816Y-115382821D01*
X122358663Y-115431473D01*
X122388498Y-115479130D01*
X122419255Y-115525638D01*
X122586222Y-115771461D01*
X122608922Y-115805873D01*
X122629356Y-115838871D01*
X122647538Y-115870515D01*
X122663482Y-115900866D01*
X122677204Y-115929982D01*
X122688716Y-115957925D01*
X122698034Y-115984754D01*
X122705171Y-116010529D01*
X122710143Y-116035311D01*
X122712963Y-116059158D01*
X122713647Y-116082132D01*
X122712207Y-116104291D01*
X122708660Y-116125697D01*
X122703018Y-116146409D01*
X122695297Y-116166487D01*
X122685510Y-116185991D01*
X122680855Y-116193863D01*
X122675924Y-116201415D01*
X122670719Y-116208645D01*
X122665246Y-116215552D01*
X122659507Y-116222135D01*
X122653507Y-116228392D01*
X122647249Y-116234323D01*
X122640736Y-116239926D01*
X122633974Y-116245199D01*
X122626965Y-116250143D01*
X122619714Y-116254754D01*
X122612223Y-116259033D01*
X122604497Y-116262978D01*
X122596540Y-116266588D01*
X122588356Y-116269861D01*
X122579947Y-116272797D01*
X122571318Y-116275394D01*
X122562473Y-116277650D01*
X122553416Y-116279565D01*
X122544149Y-116281138D01*
X122534678Y-116282367D01*
X122525005Y-116283251D01*
X122515135Y-116283788D01*
X122505071Y-116283979D01*
X122494817Y-116283820D01*
X122484377Y-116283312D01*
X122473754Y-116282452D01*
X122462953Y-116281240D01*
X122451977Y-116279674D01*
X122440829Y-116277754D01*
X122429515Y-116275478D01*
X122418037Y-116272844D01*
X122418036Y-116272844D01*
X122401115Y-116267284D01*
X122375088Y-116256857D01*
X122301346Y-116224180D01*
X122208064Y-116180369D01*
X122106498Y-116130981D01*
X122007904Y-116081570D01*
X121923538Y-116037693D01*
X121864654Y-116004906D01*
X121848286Y-115994407D01*
X121842509Y-115988763D01*
X121936416Y-115299560D01*
X122036813Y-114605106D01*
X122039335Y-114595523D01*
X122040425Y-114591710D01*
X122041417Y-114588541D01*
X122042325Y-114586010D01*
X122043159Y-114584110D01*
X122043553Y-114583395D01*
X122043934Y-114582836D01*
X122044303Y-114582431D01*
X122044661Y-114582180D01*
X122045011Y-114582083D01*
X122045353Y-114582138D01*
G37*
G36*
X131108241Y-112847378D02*
G01*
X131192549Y-112848715D01*
X131354895Y-112852623D01*
X131412469Y-112855131D01*
X131458361Y-112858373D01*
X131495606Y-112862623D01*
X131527244Y-112868155D01*
X131556311Y-112875243D01*
X131585846Y-112884160D01*
X131633810Y-112900909D01*
X131680676Y-112919848D01*
X131726361Y-112940907D01*
X131770783Y-112964017D01*
X131813859Y-112989111D01*
X131855507Y-113016119D01*
X131895645Y-113044972D01*
X131934190Y-113075603D01*
X131971060Y-113107941D01*
X132006172Y-113141919D01*
X132039445Y-113177467D01*
X132070796Y-113214517D01*
X132100142Y-113253000D01*
X132127402Y-113292847D01*
X132152493Y-113333990D01*
X132175332Y-113376360D01*
X132212939Y-113450859D01*
X132001986Y-113591422D01*
X131919690Y-113645998D01*
X131851559Y-113690691D01*
X131804675Y-113720890D01*
X131791415Y-113729112D01*
X131786123Y-113731981D01*
X131785832Y-113731873D01*
X131785468Y-113731555D01*
X131784525Y-113730304D01*
X131783314Y-113728271D01*
X131781853Y-113725498D01*
X131780158Y-113722027D01*
X131778248Y-113717900D01*
X131773855Y-113707847D01*
X131768816Y-113695675D01*
X131763275Y-113681723D01*
X131757373Y-113666326D01*
X131751255Y-113649822D01*
X131747019Y-113638601D01*
X131742644Y-113627824D01*
X131738094Y-113617437D01*
X131733334Y-113607386D01*
X131728329Y-113597620D01*
X131723043Y-113588084D01*
X131717441Y-113578727D01*
X131711488Y-113569495D01*
X131705147Y-113560336D01*
X131698384Y-113551195D01*
X131691164Y-113542021D01*
X131683450Y-113532761D01*
X131675208Y-113523361D01*
X131666402Y-113513768D01*
X131656997Y-113503930D01*
X131646957Y-113493794D01*
X131621891Y-113469842D01*
X131597093Y-113448226D01*
X131572227Y-113428851D01*
X131559663Y-113419976D01*
X131546956Y-113411625D01*
X131534065Y-113403788D01*
X131520945Y-113396453D01*
X131507557Y-113389608D01*
X131493858Y-113383241D01*
X131479805Y-113377341D01*
X131465356Y-113371896D01*
X131450471Y-113366894D01*
X131435105Y-113362324D01*
X131419219Y-113358173D01*
X131402768Y-113354430D01*
X131385713Y-113351084D01*
X131368009Y-113348122D01*
X131330491Y-113343304D01*
X131289878Y-113339884D01*
X131245834Y-113337767D01*
X131198022Y-113336859D01*
X131146106Y-113337067D01*
X131089750Y-113338297D01*
X131031105Y-113340245D01*
X130982495Y-113342485D01*
X130942253Y-113345228D01*
X130908710Y-113348687D01*
X130880198Y-113353071D01*
X130867308Y-113355676D01*
X130855051Y-113358591D01*
X130831598Y-113365458D01*
X130808174Y-113373883D01*
X130788102Y-113382383D01*
X130767995Y-113392323D01*
X130747954Y-113403608D01*
X130728080Y-113416142D01*
X130708475Y-113429829D01*
X130689239Y-113444573D01*
X130670474Y-113460278D01*
X130652280Y-113476848D01*
X130634758Y-113494186D01*
X130618011Y-113512198D01*
X130602138Y-113530787D01*
X130587240Y-113549858D01*
X130573420Y-113569313D01*
X130560778Y-113589058D01*
X130549415Y-113608996D01*
X130539431Y-113629031D01*
X130501054Y-113712137D01*
X130497139Y-114198309D01*
X130493220Y-114684481D01*
X130857634Y-114684481D01*
X131222044Y-114684481D01*
X131222044Y-114935835D01*
X131222044Y-115187189D01*
X130857913Y-115187189D01*
X130493782Y-115187189D01*
X130497418Y-116162840D01*
X130501054Y-117138491D01*
X130536618Y-117214371D01*
X130545800Y-117232608D01*
X130556245Y-117250901D01*
X130567860Y-117269156D01*
X130580550Y-117287279D01*
X130594220Y-117305175D01*
X130608777Y-117322750D01*
X130624126Y-117339910D01*
X130640173Y-117356560D01*
X130656824Y-117372607D01*
X130673984Y-117387956D01*
X130691559Y-117402513D01*
X130709455Y-117416183D01*
X130727578Y-117428873D01*
X130745833Y-117440488D01*
X130764126Y-117450934D01*
X130782363Y-117460116D01*
X130795386Y-117466140D01*
X130807445Y-117471453D01*
X130818964Y-117476108D01*
X130830370Y-117480155D01*
X130842087Y-117483646D01*
X130854541Y-117486632D01*
X130868156Y-117489165D01*
X130883357Y-117491295D01*
X130900571Y-117493074D01*
X130920221Y-117494553D01*
X130942733Y-117495783D01*
X130968532Y-117496816D01*
X130998043Y-117497703D01*
X131031691Y-117498495D01*
X131113099Y-117500000D01*
X131190812Y-117501148D01*
X131252696Y-117501524D01*
X131301588Y-117500931D01*
X131340323Y-117499170D01*
X131371740Y-117496045D01*
X131385590Y-117493910D01*
X131398674Y-117491359D01*
X131423962Y-117484912D01*
X131450442Y-117476509D01*
X131459133Y-117473455D01*
X131468145Y-117470052D01*
X131486849Y-117462344D01*
X131505989Y-117453676D01*
X131524999Y-117444337D01*
X131543313Y-117434614D01*
X131560365Y-117424799D01*
X131575588Y-117415178D01*
X131582338Y-117410531D01*
X131588418Y-117406042D01*
X131604727Y-117393172D01*
X131619941Y-117380434D01*
X131634157Y-117367683D01*
X131647474Y-117354775D01*
X131659990Y-117341566D01*
X131671803Y-117327911D01*
X131683011Y-117313667D01*
X131693712Y-117298690D01*
X131704006Y-117282834D01*
X131713989Y-117265957D01*
X131723759Y-117247913D01*
X131733416Y-117228559D01*
X131743058Y-117207750D01*
X131752782Y-117185342D01*
X131762686Y-117161192D01*
X131772869Y-117135154D01*
X131773897Y-117132570D01*
X131774950Y-117130199D01*
X131776062Y-117128058D01*
X131776653Y-117127079D01*
X131777272Y-117126165D01*
X131777925Y-117125318D01*
X131778615Y-117124539D01*
X131779348Y-117123832D01*
X131780128Y-117123198D01*
X131780960Y-117122640D01*
X131781848Y-117122161D01*
X131782796Y-117121761D01*
X131783810Y-117121444D01*
X131784893Y-117121212D01*
X131786051Y-117121067D01*
X131787287Y-117121012D01*
X131788607Y-117121048D01*
X131790015Y-117121179D01*
X131791516Y-117121405D01*
X131793114Y-117121731D01*
X131794813Y-117122157D01*
X131796618Y-117122686D01*
X131798534Y-117123321D01*
X131800566Y-117124063D01*
X131802717Y-117124916D01*
X131807397Y-117126960D01*
X131812612Y-117129471D01*
X131818396Y-117132467D01*
X131824788Y-117135968D01*
X131831822Y-117139990D01*
X131839536Y-117144553D01*
X131847967Y-117149674D01*
X131857149Y-117155371D01*
X131867121Y-117161664D01*
X131877917Y-117168570D01*
X131902132Y-117184293D01*
X131930085Y-117202688D01*
X131962067Y-117223900D01*
X131998370Y-117248076D01*
X132212454Y-117390793D01*
X132176963Y-117459649D01*
X132157854Y-117495010D01*
X132137526Y-117529312D01*
X132115993Y-117562546D01*
X132093264Y-117594699D01*
X132069351Y-117625761D01*
X132044266Y-117655722D01*
X132018019Y-117684570D01*
X131990622Y-117712295D01*
X131962085Y-117738885D01*
X131932420Y-117764331D01*
X131901639Y-117788620D01*
X131869752Y-117811742D01*
X131836770Y-117833687D01*
X131802704Y-117854443D01*
X131767567Y-117874000D01*
X131731369Y-117892347D01*
X131698876Y-117907715D01*
X131668182Y-117921450D01*
X131638762Y-117933640D01*
X131610091Y-117944370D01*
X131581644Y-117953727D01*
X131552898Y-117961797D01*
X131523325Y-117968667D01*
X131492403Y-117974422D01*
X131459606Y-117979150D01*
X131424409Y-117982937D01*
X131386288Y-117985868D01*
X131344717Y-117988030D01*
X131299173Y-117989511D01*
X131249129Y-117990395D01*
X131133445Y-117990720D01*
X131001116Y-117989115D01*
X130944890Y-117987500D01*
X130895164Y-117985337D01*
X130851843Y-117982621D01*
X130814832Y-117979346D01*
X130784038Y-117975508D01*
X130759365Y-117971102D01*
X130759365Y-117971103D01*
X130759365Y-117971104D01*
X130759364Y-117971105D01*
X130759364Y-117971106D01*
X130738595Y-117966102D01*
X130716630Y-117959867D01*
X130693640Y-117952481D01*
X130669797Y-117944028D01*
X130645271Y-117934589D01*
X130620235Y-117924246D01*
X130594859Y-117913081D01*
X130569316Y-117901177D01*
X130543775Y-117888615D01*
X130518410Y-117875477D01*
X130493390Y-117861847D01*
X130468888Y-117847805D01*
X130445075Y-117833434D01*
X130422122Y-117818815D01*
X130400201Y-117804032D01*
X130379483Y-117789165D01*
X130349483Y-117765606D01*
X130319995Y-117739872D01*
X130291128Y-117712132D01*
X130262991Y-117682550D01*
X130235693Y-117651292D01*
X130209342Y-117618524D01*
X130184048Y-117584413D01*
X130159920Y-117549125D01*
X130137066Y-117512824D01*
X130115596Y-117475677D01*
X130095618Y-117437851D01*
X130077241Y-117399510D01*
X130060574Y-117360822D01*
X130045726Y-117321951D01*
X130032805Y-117283065D01*
X130021922Y-117244328D01*
X130018028Y-117227355D01*
X130014586Y-117207447D01*
X130011569Y-117182457D01*
X130008948Y-117150239D01*
X130006696Y-117108648D01*
X130004785Y-117055537D01*
X130003188Y-116988760D01*
X130001876Y-116906170D01*
X130000000Y-116684972D01*
X129998934Y-116374774D01*
X129998457Y-115958407D01*
X129998347Y-115418703D01*
X130001876Y-113930551D01*
X130008966Y-113687085D01*
X130014624Y-113630157D01*
X130021989Y-113593443D01*
X130041906Y-113526119D01*
X130066539Y-113460712D01*
X130095666Y-113397434D01*
X130129067Y-113336498D01*
X130166519Y-113278116D01*
X130207800Y-113222500D01*
X130252689Y-113169864D01*
X130300963Y-113120418D01*
X130352402Y-113074377D01*
X130406784Y-113031951D01*
X130463885Y-112993353D01*
X130523486Y-112958796D01*
X130585364Y-112928492D01*
X130649298Y-112902653D01*
X130715065Y-112881492D01*
X130782444Y-112865220D01*
X130815612Y-112859155D01*
X130832399Y-112856621D01*
X130849679Y-112854406D01*
X130867716Y-112852497D01*
X130886780Y-112850885D01*
X130907136Y-112849559D01*
X130929051Y-112848508D01*
X130978628Y-112847189D01*
X131037646Y-112846841D01*
X131108241Y-112847378D01*
G37*
G36*
X122362404Y-113101000D02*
G01*
X122369384Y-113102850D01*
X122371373Y-113103524D01*
X122373278Y-113104263D01*
X122375103Y-113105072D01*
X122376849Y-113105957D01*
X122378520Y-113106925D01*
X122380117Y-113107981D01*
X122381644Y-113109132D01*
X122383103Y-113110385D01*
X122384497Y-113111745D01*
X122385827Y-113113218D01*
X122387098Y-113114811D01*
X122388311Y-113116530D01*
X122389469Y-113118381D01*
X122390574Y-113120370D01*
X122391630Y-113122504D01*
X122392638Y-113124789D01*
X122393602Y-113127230D01*
X122394523Y-113129835D01*
X122395405Y-113132608D01*
X122396250Y-113135558D01*
X122397061Y-113138689D01*
X122397840Y-113142007D01*
X122398589Y-113145520D01*
X122399312Y-113149233D01*
X122400689Y-113157285D01*
X122401990Y-113166213D01*
X122403237Y-113176065D01*
X122404449Y-113186892D01*
X122437693Y-113457346D01*
X122456861Y-113583666D01*
X122477846Y-113704438D01*
X122500736Y-113819954D01*
X122525621Y-113930506D01*
X122552589Y-114036386D01*
X122581729Y-114137888D01*
X122613131Y-114235303D01*
X122646883Y-114328923D01*
X122683074Y-114419041D01*
X122721793Y-114505948D01*
X122763130Y-114589938D01*
X122807172Y-114671303D01*
X122854010Y-114750334D01*
X122903731Y-114827325D01*
X122931128Y-114866965D01*
X122958727Y-114904554D01*
X122987033Y-114940513D01*
X123016548Y-114975266D01*
X123047776Y-115009234D01*
X123081222Y-115042839D01*
X123117387Y-115076504D01*
X123156776Y-115110651D01*
X123199892Y-115145703D01*
X123247238Y-115182081D01*
X123299318Y-115220208D01*
X123356636Y-115260506D01*
X123419694Y-115303397D01*
X123488997Y-115349304D01*
X123565047Y-115398648D01*
X123648349Y-115451853D01*
X123914756Y-115622989D01*
X124129860Y-115766551D01*
X124219987Y-115829550D01*
X124299463Y-115887524D01*
X124369014Y-115941097D01*
X124429365Y-115990893D01*
X124481241Y-116037533D01*
X124525367Y-116081642D01*
X124562469Y-116123842D01*
X124593271Y-116164756D01*
X124618498Y-116205008D01*
X124638877Y-116245221D01*
X124655131Y-116286017D01*
X124667986Y-116328020D01*
X124672114Y-116345497D01*
X124675702Y-116364717D01*
X124678748Y-116385426D01*
X124681253Y-116407374D01*
X124683215Y-116430308D01*
X124684634Y-116453975D01*
X124685510Y-116478123D01*
X124685842Y-116502500D01*
X124685628Y-116526853D01*
X124684870Y-116550931D01*
X124683565Y-116574480D01*
X124681713Y-116597248D01*
X124679315Y-116618984D01*
X124676368Y-116639434D01*
X124672873Y-116658347D01*
X124668829Y-116675470D01*
X124664528Y-116690441D01*
X124659452Y-116706164D01*
X124653664Y-116722511D01*
X124647230Y-116739351D01*
X124640211Y-116756554D01*
X124632673Y-116773990D01*
X124616294Y-116809039D01*
X124598601Y-116843458D01*
X124589421Y-116860106D01*
X124580105Y-116876207D01*
X124570716Y-116891629D01*
X124561318Y-116906244D01*
X124551974Y-116919921D01*
X124542749Y-116932529D01*
X124531583Y-116946171D01*
X124518063Y-116960908D01*
X124502436Y-116976551D01*
X124484948Y-116992916D01*
X124465847Y-117009812D01*
X124445380Y-117027055D01*
X124423794Y-117044456D01*
X124401335Y-117061827D01*
X124378250Y-117078983D01*
X124354788Y-117095735D01*
X124331194Y-117111897D01*
X124307716Y-117127280D01*
X124284600Y-117141698D01*
X124262095Y-117154964D01*
X124240445Y-117166890D01*
X124219900Y-117177289D01*
X124202951Y-117185095D01*
X124184607Y-117192589D01*
X124163272Y-117200088D01*
X124137349Y-117207910D01*
X124105244Y-117216373D01*
X124065361Y-117225794D01*
X124016104Y-117236492D01*
X123955877Y-117248784D01*
X123883085Y-117262989D01*
X123796131Y-117279423D01*
X123573359Y-117320254D01*
X123274794Y-117373819D01*
X122887672Y-117442661D01*
X121627594Y-117669135D01*
X121625235Y-117669784D01*
X121622939Y-117670304D01*
X121620720Y-117670699D01*
X121618588Y-117670969D01*
X121616556Y-117671117D01*
X121614637Y-117671144D01*
X121612841Y-117671053D01*
X121611181Y-117670846D01*
X121609668Y-117670525D01*
X121608316Y-117670091D01*
X121607136Y-117669547D01*
X121606613Y-117669234D01*
X121606139Y-117668895D01*
X121605713Y-117668529D01*
X121605338Y-117668136D01*
X121605014Y-117667717D01*
X121604744Y-117667273D01*
X121604529Y-117666803D01*
X121604371Y-117666308D01*
X121604270Y-117665787D01*
X121604229Y-117665242D01*
X121712253Y-116879575D01*
X121822918Y-116102930D01*
X121824462Y-116103176D01*
X121828439Y-116104636D01*
X121843188Y-116110957D01*
X121866154Y-116121417D01*
X121896330Y-116135540D01*
X121974274Y-116172864D01*
X122068945Y-116219118D01*
X122162260Y-116264592D01*
X122239213Y-116300720D01*
X122302643Y-116328508D01*
X122330175Y-116339588D01*
X122355391Y-116348960D01*
X122378646Y-116356749D01*
X122400296Y-116363082D01*
X122420694Y-116368084D01*
X122440197Y-116371880D01*
X122459159Y-116374596D01*
X122477935Y-116376358D01*
X122496880Y-116377292D01*
X122516349Y-116377523D01*
X122534398Y-116377033D01*
X122551949Y-116375711D01*
X122568993Y-116373559D01*
X122585522Y-116370583D01*
X122601528Y-116366785D01*
X122617001Y-116362170D01*
X122631935Y-116356742D01*
X122646320Y-116350505D01*
X122660149Y-116343463D01*
X122673412Y-116335619D01*
X122686101Y-116326978D01*
X122698209Y-116317543D01*
X122709726Y-116307319D01*
X122720645Y-116296309D01*
X122730957Y-116284518D01*
X122740653Y-116271949D01*
X122751630Y-116256217D01*
X122761667Y-116240579D01*
X122770754Y-116224987D01*
X122778876Y-116209391D01*
X122786023Y-116193742D01*
X122792182Y-116177992D01*
X122797340Y-116162090D01*
X122801485Y-116145989D01*
X122804605Y-116129640D01*
X122806689Y-116112992D01*
X122807722Y-116095998D01*
X122807694Y-116078609D01*
X122806591Y-116060774D01*
X122804402Y-116042446D01*
X122801115Y-116023575D01*
X122796716Y-116004113D01*
X122791194Y-115984010D01*
X122784537Y-115963217D01*
X122776731Y-115941686D01*
X122767766Y-115919367D01*
X122757628Y-115896212D01*
X122746305Y-115872171D01*
X122720057Y-115821236D01*
X122688922Y-115766171D01*
X122652803Y-115706584D01*
X122611602Y-115642082D01*
X122565219Y-115572275D01*
X122513047Y-115493492D01*
X122464788Y-115417395D01*
X122420298Y-115343613D01*
X122379432Y-115271774D01*
X122342045Y-115201508D01*
X122307994Y-115132444D01*
X122277133Y-115064210D01*
X122249319Y-114996436D01*
X122224406Y-114928750D01*
X122202252Y-114860782D01*
X122182710Y-114792160D01*
X122165637Y-114722513D01*
X122150888Y-114651471D01*
X122138319Y-114578663D01*
X122127785Y-114503716D01*
X122119143Y-114426261D01*
X122113941Y-114361292D01*
X122110855Y-114294107D01*
X122109856Y-114224910D01*
X122110918Y-114153909D01*
X122114014Y-114081307D01*
X122119117Y-114007312D01*
X122126201Y-113932127D01*
X122135239Y-113855960D01*
X122146203Y-113779015D01*
X122159067Y-113701497D01*
X122173804Y-113623613D01*
X122190387Y-113545568D01*
X122208789Y-113467567D01*
X122228984Y-113389817D01*
X122250944Y-113312521D01*
X122274644Y-113235887D01*
X122288330Y-113194920D01*
X122294567Y-113177619D01*
X122300482Y-113162321D01*
X122306141Y-113148939D01*
X122311604Y-113137384D01*
X122316936Y-113127566D01*
X122322199Y-113119399D01*
X122327456Y-113112794D01*
X122332770Y-113107661D01*
X122335468Y-113105620D01*
X122338205Y-113103913D01*
X122340987Y-113102531D01*
X122343822Y-113101462D01*
X122346720Y-113100694D01*
X122349686Y-113100218D01*
X122355859Y-113100094D01*
X122362404Y-113101000D01*
G37*
G36*
X119026348Y-116595585D02*
G01*
X119032591Y-116605233D01*
X119054792Y-116642996D01*
X119088719Y-116703148D01*
X119132899Y-116783008D01*
X119246125Y-116991135D01*
X119382688Y-117245937D01*
X119727471Y-117895804D01*
X119753208Y-117946627D01*
X119764648Y-117971915D01*
X119766737Y-117981227D01*
X119764417Y-117984124D01*
X119762381Y-117984968D01*
X119757577Y-117986278D01*
X119740242Y-117990184D01*
X119713575Y-117995620D01*
X119678740Y-118002365D01*
X119589212Y-118018898D01*
X119480960Y-118038014D01*
X119377939Y-118056523D01*
X119293186Y-118073537D01*
X119256794Y-118081778D01*
X119223930Y-118089998D01*
X119194247Y-118098315D01*
X119167400Y-118106846D01*
X119143042Y-118115710D01*
X119120827Y-118125023D01*
X119100408Y-118134904D01*
X119081439Y-118145470D01*
X119063574Y-118156839D01*
X119046467Y-118169129D01*
X119029771Y-118182456D01*
X119013140Y-118196939D01*
X119001616Y-118207961D01*
X118990909Y-118219445D01*
X118981018Y-118231361D01*
X118971940Y-118243680D01*
X118963674Y-118256372D01*
X118956218Y-118269409D01*
X118949569Y-118282760D01*
X118943727Y-118296396D01*
X118938689Y-118310288D01*
X118934454Y-118324405D01*
X118931019Y-118338720D01*
X118928383Y-118353201D01*
X118926544Y-118367820D01*
X118925499Y-118382547D01*
X118925248Y-118397352D01*
X118925788Y-118412207D01*
X118927118Y-118427081D01*
X118929235Y-118441945D01*
X118932138Y-118456770D01*
X118935824Y-118471527D01*
X118940293Y-118486184D01*
X118945542Y-118500714D01*
X118951569Y-118515087D01*
X118958373Y-118529273D01*
X118965951Y-118543243D01*
X118974302Y-118556967D01*
X118983424Y-118570415D01*
X118993315Y-118583559D01*
X119003973Y-118596369D01*
X119015396Y-118608815D01*
X119027583Y-118620868D01*
X119040531Y-118632498D01*
X119057263Y-118646523D01*
X119073673Y-118659614D01*
X119090036Y-118671905D01*
X119106623Y-118683530D01*
X119123707Y-118694622D01*
X119141561Y-118705314D01*
X119160456Y-118715740D01*
X119180665Y-118726034D01*
X119202460Y-118736330D01*
X119226115Y-118746759D01*
X119251901Y-118757458D01*
X119280091Y-118768557D01*
X119310957Y-118780193D01*
X119344772Y-118792497D01*
X119422337Y-118819645D01*
X119509435Y-118850325D01*
X119591820Y-118880954D01*
X119669813Y-118911719D01*
X119743735Y-118942808D01*
X119813905Y-118974409D01*
X119880644Y-119006709D01*
X119944272Y-119039896D01*
X120005111Y-119074158D01*
X120063479Y-119109681D01*
X120119699Y-119146654D01*
X120174089Y-119185263D01*
X120226971Y-119225698D01*
X120278665Y-119268145D01*
X120329491Y-119312792D01*
X120379770Y-119359826D01*
X120429822Y-119409435D01*
X120471963Y-119453629D01*
X120513123Y-119499401D01*
X120553329Y-119546799D01*
X120592611Y-119595865D01*
X120630995Y-119646648D01*
X120668511Y-119699191D01*
X120705187Y-119753541D01*
X120741051Y-119809743D01*
X120776131Y-119867843D01*
X120810456Y-119927885D01*
X120844054Y-119989917D01*
X120876952Y-120053982D01*
X120909181Y-120120128D01*
X120940767Y-120188398D01*
X120971738Y-120258840D01*
X121002124Y-120331498D01*
X121033757Y-120411030D01*
X121060701Y-120482956D01*
X121082794Y-120546720D01*
X121099878Y-120601767D01*
X121111793Y-120647539D01*
X121115762Y-120666773D01*
X121118378Y-120683480D01*
X121119622Y-120697591D01*
X121119473Y-120709035D01*
X121117913Y-120717744D01*
X121114919Y-120723648D01*
X121113158Y-120725664D01*
X121111275Y-120727623D01*
X121109285Y-120729516D01*
X121107208Y-120731332D01*
X121105058Y-120733061D01*
X121102855Y-120734693D01*
X121100614Y-120736217D01*
X121098352Y-120737624D01*
X121096088Y-120738904D01*
X121093838Y-120740046D01*
X121091619Y-120741040D01*
X121089447Y-120741876D01*
X121087342Y-120742544D01*
X121085318Y-120743034D01*
X121083394Y-120743335D01*
X121082475Y-120743412D01*
X121081586Y-120743437D01*
X121080519Y-120743214D01*
X121079068Y-120742550D01*
X121075056Y-120739944D01*
X121069640Y-120735709D01*
X121062907Y-120729932D01*
X121054943Y-120722701D01*
X121045837Y-120714104D01*
X121024546Y-120693160D01*
X120999733Y-120667804D01*
X120972097Y-120638738D01*
X120942336Y-120606662D01*
X120911151Y-120572280D01*
X120911151Y-120572282D01*
X120834877Y-120489322D01*
X120757582Y-120409337D01*
X120679377Y-120332408D01*
X120600375Y-120258615D01*
X120520686Y-120188040D01*
X120440424Y-120120763D01*
X120359699Y-120056865D01*
X120278623Y-119996428D01*
X120197310Y-119939531D01*
X120115869Y-119886256D01*
X120034414Y-119836683D01*
X119953056Y-119790893D01*
X119871907Y-119748968D01*
X119791079Y-119710988D01*
X119710683Y-119677033D01*
X119630832Y-119647185D01*
X119583634Y-119631250D01*
X119538236Y-119617214D01*
X119493700Y-119605031D01*
X119449087Y-119594652D01*
X119403459Y-119586032D01*
X119355877Y-119579123D01*
X119305403Y-119573877D01*
X119251097Y-119570249D01*
X119192022Y-119568190D01*
X119127237Y-119567654D01*
X119055806Y-119568594D01*
X118976789Y-119570962D01*
X118889248Y-119574712D01*
X118792243Y-119579796D01*
X118566090Y-119593779D01*
X118396655Y-119603719D01*
X118237837Y-119610584D01*
X118090942Y-119614381D01*
X117957278Y-119615118D01*
X117838149Y-119612804D01*
X117734863Y-119607446D01*
X117648725Y-119599054D01*
X117581042Y-119587634D01*
X117558042Y-119582142D01*
X117535730Y-119576065D01*
X117514075Y-119569385D01*
X117493044Y-119562083D01*
X117472604Y-119554142D01*
X117452722Y-119545544D01*
X117433366Y-119536270D01*
X117414504Y-119526303D01*
X117396102Y-119515623D01*
X117378128Y-119504214D01*
X117360549Y-119492057D01*
X117343333Y-119479135D01*
X117326448Y-119465428D01*
X117309860Y-119450919D01*
X117293537Y-119435590D01*
X117277446Y-119419423D01*
X117257553Y-119397965D01*
X117238752Y-119376026D01*
X117221043Y-119353617D01*
X117204429Y-119330750D01*
X117188909Y-119307435D01*
X117174486Y-119283684D01*
X117161160Y-119259507D01*
X117148933Y-119234915D01*
X117137806Y-119209921D01*
X117127779Y-119184533D01*
X117118854Y-119158764D01*
X117111032Y-119132625D01*
X117104314Y-119106126D01*
X117098701Y-119079279D01*
X117094195Y-119052094D01*
X117090797Y-119024583D01*
X117088507Y-118996757D01*
X117087327Y-118968626D01*
X117087258Y-118940202D01*
X117088301Y-118911495D01*
X117090458Y-118882517D01*
X117093728Y-118853279D01*
X117103617Y-118794065D01*
X117117977Y-118733943D01*
X117136818Y-118672999D01*
X117160147Y-118611322D01*
X117187974Y-118549000D01*
X117196994Y-118530568D01*
X117205903Y-118513287D01*
X117215098Y-118496682D01*
X117224974Y-118480279D01*
X117235930Y-118463604D01*
X117248360Y-118446183D01*
X117262661Y-118427540D01*
X117279230Y-118407203D01*
X117298464Y-118384695D01*
X117320757Y-118359544D01*
X117346507Y-118331275D01*
X117376111Y-118299412D01*
X117448463Y-118223012D01*
X117540984Y-118126549D01*
X118689164Y-116934585D01*
X119023589Y-116592539D01*
X119026348Y-116595585D01*
G37*
G36*
X124005683Y-135498906D02*
G01*
X124014253Y-135618492D01*
X124025737Y-135735139D01*
X124040163Y-135848821D01*
X124057561Y-135959512D01*
X124077958Y-136067185D01*
X124101383Y-136171813D01*
X124127863Y-136273372D01*
X124141998Y-136321289D01*
X124157208Y-136367914D01*
X124173521Y-136413258D01*
X124190965Y-136457332D01*
X124209568Y-136500148D01*
X124229357Y-136541716D01*
X124250361Y-136582049D01*
X124272607Y-136621157D01*
X124296122Y-136659052D01*
X124320936Y-136695745D01*
X124347075Y-136731248D01*
X124374568Y-136765571D01*
X124403442Y-136798726D01*
X124433725Y-136830724D01*
X124465445Y-136861577D01*
X124498630Y-136891295D01*
X124549157Y-136931453D01*
X124602317Y-136967629D01*
X124657833Y-137000000D01*
X124715427Y-137028744D01*
X124774821Y-137054039D01*
X124835736Y-137076061D01*
X124961021Y-137111001D01*
X125089059Y-137134984D01*
X125217627Y-137149429D01*
X125344501Y-137155758D01*
X125467459Y-137155391D01*
X125584277Y-137149748D01*
X125692733Y-137140249D01*
X125875662Y-137115365D01*
X126043348Y-137081823D01*
X125996695Y-136704230D01*
X126731118Y-137196044D01*
X126140935Y-137871774D01*
X126102158Y-137557875D01*
X126057480Y-137565829D01*
X125934236Y-137581566D01*
X125848210Y-137588543D01*
X125748613Y-137592896D01*
X125637467Y-137593100D01*
X125516797Y-137587632D01*
X125388624Y-137574968D01*
X125322357Y-137565461D01*
X125254973Y-137553584D01*
X125186726Y-137539146D01*
X125117867Y-137521957D01*
X125048651Y-137501826D01*
X124979329Y-137478564D01*
X124910155Y-137451978D01*
X124841382Y-137421880D01*
X124773263Y-137388078D01*
X124706050Y-137350383D01*
X124639997Y-137308602D01*
X124575356Y-137262548D01*
X124512380Y-137212028D01*
X124451323Y-137156852D01*
X124382792Y-137085850D01*
X124319392Y-137009315D01*
X124261053Y-136927301D01*
X124207705Y-136839862D01*
X124159279Y-136747050D01*
X124115707Y-136648919D01*
X124076919Y-136545522D01*
X124042845Y-136436912D01*
X124013417Y-136323142D01*
X123988566Y-136204266D01*
X123968221Y-136080338D01*
X123952314Y-135951410D01*
X123940776Y-135817535D01*
X123933538Y-135678767D01*
X123930530Y-135535160D01*
X123931683Y-135386766D01*
X123932056Y-135386486D01*
X123932664Y-135386181D01*
X123934539Y-135385502D01*
X123937209Y-135384748D01*
X123940577Y-135383938D01*
X123949019Y-135382219D01*
X123959085Y-135380492D01*
X123969995Y-135378901D01*
X123980971Y-135377592D01*
X123986240Y-135377090D01*
X123991232Y-135376713D01*
X123995852Y-135376479D01*
X124000000Y-135376407D01*
X124005683Y-135498906D01*
G37*
G36*
X122981391Y-117518848D02*
G01*
X122982553Y-117519057D01*
X122983018Y-117519215D01*
X122983405Y-117519410D01*
X122983715Y-117519641D01*
X122983947Y-117519909D01*
X122984101Y-117520214D01*
X122984177Y-117520555D01*
X122984175Y-117520932D01*
X122984095Y-117521347D01*
X122983937Y-117521798D01*
X122983700Y-117522287D01*
X122982992Y-117523375D01*
X122981969Y-117524611D01*
X122980631Y-117525997D01*
X122978977Y-117527533D01*
X122977006Y-117529219D01*
X122974717Y-117531056D01*
X122972110Y-117533045D01*
X122969185Y-117535186D01*
X122965939Y-117537480D01*
X122962373Y-117539928D01*
X122954275Y-117545287D01*
X122944885Y-117551266D01*
X122934198Y-117557872D01*
X122922206Y-117565109D01*
X122908904Y-117572981D01*
X122894286Y-117581495D01*
X122842397Y-117612530D01*
X122791166Y-117645258D01*
X122740544Y-117679724D01*
X122690481Y-117715973D01*
X122640931Y-117754050D01*
X122591844Y-117794000D01*
X122543172Y-117835868D01*
X122494866Y-117879699D01*
X122446879Y-117925539D01*
X122399161Y-117973432D01*
X122351665Y-118023424D01*
X122304342Y-118075559D01*
X122257143Y-118129883D01*
X122210020Y-118186440D01*
X122162925Y-118245276D01*
X122115809Y-118306437D01*
X122074518Y-118359941D01*
X122035287Y-118408459D01*
X121997967Y-118452085D01*
X121962406Y-118490912D01*
X121928453Y-118525036D01*
X121895957Y-118554549D01*
X121864767Y-118579546D01*
X121834733Y-118600121D01*
X121820102Y-118608780D01*
X121805703Y-118616369D01*
X121791517Y-118622899D01*
X121777526Y-118628383D01*
X121763711Y-118632832D01*
X121750052Y-118636257D01*
X121736531Y-118638672D01*
X121723129Y-118640086D01*
X121709828Y-118640513D01*
X121696607Y-118639964D01*
X121683449Y-118638451D01*
X121670335Y-118635985D01*
X121657245Y-118632578D01*
X121644161Y-118628242D01*
X121631064Y-118622989D01*
X121617935Y-118616830D01*
X121617934Y-118616830D01*
X121612429Y-118613937D01*
X121607021Y-118610840D01*
X121601713Y-118607544D01*
X121596507Y-118604054D01*
X121591408Y-118600372D01*
X121586417Y-118596504D01*
X121581537Y-118592454D01*
X121576771Y-118588226D01*
X121572123Y-118583825D01*
X121567594Y-118579254D01*
X121558907Y-118569621D01*
X121550733Y-118559362D01*
X121543094Y-118548511D01*
X121536014Y-118537102D01*
X121529515Y-118525169D01*
X121523618Y-118512747D01*
X121518348Y-118499869D01*
X121513726Y-118486569D01*
X121509775Y-118472883D01*
X121506518Y-118458843D01*
X121503977Y-118444485D01*
X121503130Y-118426534D01*
X121504043Y-118397697D01*
X121510333Y-118313900D01*
X121521228Y-118206175D01*
X121535105Y-118087604D01*
X121550343Y-117971266D01*
X121565321Y-117870243D01*
X121578418Y-117797617D01*
X121583755Y-117776040D01*
X121588013Y-117766467D01*
X121619884Y-117759174D01*
X121705410Y-117742776D01*
X122010877Y-117687400D01*
X122451324Y-117609804D01*
X122973661Y-117519453D01*
X122976054Y-117519087D01*
X122978141Y-117518864D01*
X122979920Y-117518784D01*
X122981391Y-117518848D01*
G37*
G36*
X117636329Y-114143444D02*
G01*
X117693388Y-114146062D01*
X117743698Y-114150444D01*
X117765263Y-114153296D01*
X117783870Y-114156590D01*
X117796867Y-114160655D01*
X117819183Y-114169367D01*
X117890974Y-114200356D01*
X117997644Y-114248805D01*
X118137598Y-114313965D01*
X118510964Y-114491419D01*
X118998297Y-114726719D01*
X119809289Y-115121762D01*
X120152199Y-115291309D01*
X120109103Y-115342140D01*
X119989849Y-115471136D01*
X119622351Y-115859396D01*
X119248671Y-116247638D01*
X119121690Y-116376613D01*
X119067776Y-116427415D01*
X119067078Y-116427286D01*
X119066067Y-116426551D01*
X119063144Y-116423321D01*
X119059075Y-116417842D01*
X119053929Y-116410233D01*
X119047776Y-116400613D01*
X119040683Y-116389101D01*
X119023959Y-116360874D01*
X119004306Y-116326501D01*
X118982278Y-116286931D01*
X118958424Y-116243114D01*
X118933298Y-116195998D01*
X118883882Y-116103083D01*
X118843033Y-116028128D01*
X118809153Y-115968664D01*
X118780643Y-115922217D01*
X118767902Y-115903103D01*
X118755905Y-115886317D01*
X118744451Y-115871550D01*
X118733341Y-115858492D01*
X118722375Y-115846836D01*
X118711353Y-115836271D01*
X118688342Y-115817181D01*
X118668663Y-115802840D01*
X118649279Y-115790082D01*
X118630143Y-115778898D01*
X118611211Y-115769284D01*
X118592435Y-115761232D01*
X118573769Y-115754737D01*
X118555168Y-115749790D01*
X118536585Y-115746387D01*
X118517974Y-115744520D01*
X118499290Y-115744183D01*
X118480485Y-115745369D01*
X118461514Y-115748072D01*
X118442330Y-115752285D01*
X118422888Y-115758002D01*
X118403141Y-115765215D01*
X118383044Y-115773920D01*
X118368822Y-115780823D01*
X118355221Y-115788016D01*
X118342226Y-115795537D01*
X118329822Y-115803420D01*
X118317996Y-115811703D01*
X118306732Y-115820421D01*
X118296016Y-115829610D01*
X118285833Y-115839307D01*
X118276169Y-115849548D01*
X118267009Y-115860368D01*
X118258338Y-115871805D01*
X118250143Y-115883893D01*
X118242408Y-115896670D01*
X118235118Y-115910172D01*
X118228260Y-115924434D01*
X118221819Y-115939492D01*
X118215780Y-115955384D01*
X118210128Y-115972145D01*
X118204850Y-115989811D01*
X118199929Y-116008418D01*
X118195353Y-116028002D01*
X118191106Y-116048600D01*
X118187173Y-116070248D01*
X118183540Y-116092982D01*
X118180193Y-116116838D01*
X118177117Y-116141852D01*
X118171720Y-116195500D01*
X118167231Y-116254213D01*
X118163534Y-116318283D01*
X118154385Y-116487365D01*
X118144886Y-116628992D01*
X118134296Y-116748360D01*
X118121878Y-116850667D01*
X118106891Y-116941111D01*
X118088598Y-117024890D01*
X118066259Y-117107200D01*
X118039135Y-117193240D01*
X118008735Y-117278012D01*
X117974107Y-117361929D01*
X117935244Y-117445002D01*
X117892137Y-117527243D01*
X117844777Y-117608663D01*
X117793155Y-117689272D01*
X117737263Y-117769081D01*
X117677091Y-117848102D01*
X117612632Y-117926346D01*
X117543876Y-118003823D01*
X117470815Y-118080544D01*
X117393440Y-118156522D01*
X117311741Y-118231766D01*
X117225712Y-118306287D01*
X117135342Y-118380097D01*
X117040623Y-118453207D01*
X117017570Y-118470289D01*
X116996287Y-118485566D01*
X116976711Y-118499062D01*
X116958779Y-118510799D01*
X116942429Y-118520801D01*
X116927599Y-118529088D01*
X116914225Y-118535685D01*
X116902247Y-118540614D01*
X116891600Y-118543898D01*
X116882223Y-118545559D01*
X116877991Y-118545788D01*
X116874053Y-118545620D01*
X116870401Y-118545058D01*
X116867027Y-118544104D01*
X116863924Y-118542761D01*
X116861084Y-118541033D01*
X116858499Y-118538922D01*
X116856160Y-118536430D01*
X116854062Y-118533561D01*
X116852194Y-118530318D01*
X116849122Y-118522719D01*
X116848725Y-118521084D01*
X116848501Y-118519228D01*
X116848451Y-118517151D01*
X116848572Y-118514855D01*
X116849333Y-118509605D01*
X116850780Y-118503485D01*
X116852911Y-118496499D01*
X116855725Y-118488653D01*
X116859218Y-118479952D01*
X116863389Y-118470402D01*
X116868234Y-118460008D01*
X116873751Y-118448776D01*
X116879938Y-118436710D01*
X116886793Y-118423818D01*
X116894312Y-118410103D01*
X116902494Y-118395571D01*
X116911335Y-118380228D01*
X116920834Y-118364079D01*
X116962974Y-118291486D01*
X117003778Y-118217930D01*
X117081119Y-118068570D01*
X117152337Y-117917293D01*
X117216912Y-117765388D01*
X117274325Y-117614150D01*
X117300183Y-117539184D01*
X117324055Y-117464869D01*
X117345877Y-117391367D01*
X117365583Y-117318839D01*
X117383109Y-117247446D01*
X117398389Y-117177350D01*
X117404606Y-117143744D01*
X117410325Y-117106720D01*
X117420170Y-117024656D01*
X117427739Y-116935630D01*
X117432843Y-116844112D01*
X117435298Y-116754576D01*
X117434915Y-116671492D01*
X117431508Y-116599332D01*
X117428612Y-116568746D01*
X117424890Y-116542568D01*
X117419870Y-116516068D01*
X117413706Y-116487794D01*
X117406332Y-116457552D01*
X117397683Y-116425146D01*
X117376288Y-116353060D01*
X117348987Y-116269973D01*
X117315247Y-116174323D01*
X117274534Y-116064546D01*
X117226314Y-115939081D01*
X117170053Y-115796363D01*
X117086017Y-115582733D01*
X117018141Y-115403722D01*
X116964868Y-115254084D01*
X116924637Y-115128572D01*
X116895890Y-115021942D01*
X116885336Y-114974068D01*
X116877069Y-114928947D01*
X116870894Y-114885923D01*
X116866615Y-114844341D01*
X116862968Y-114762878D01*
X116862757Y-114721677D01*
X116862926Y-114704385D01*
X116863379Y-114688866D01*
X116864188Y-114674797D01*
X116865428Y-114661855D01*
X116867172Y-114649715D01*
X116869495Y-114638054D01*
X116872472Y-114626547D01*
X116876175Y-114614873D01*
X116880679Y-114602706D01*
X116886057Y-114589722D01*
X116892385Y-114575600D01*
X116899736Y-114560013D01*
X116917804Y-114523155D01*
X116935727Y-114489507D01*
X116955645Y-114456779D01*
X116977423Y-114425083D01*
X117000927Y-114394528D01*
X117026020Y-114365224D01*
X117052570Y-114337279D01*
X117080440Y-114310804D01*
X117109495Y-114285908D01*
X117139602Y-114262702D01*
X117170625Y-114241293D01*
X117202429Y-114221793D01*
X117234880Y-114204311D01*
X117267843Y-114188956D01*
X117301183Y-114175838D01*
X117334764Y-114165067D01*
X117368453Y-114156752D01*
X117386942Y-114153444D01*
X117408406Y-114150575D01*
X117458559Y-114146154D01*
X117515525Y-114143491D01*
X117575911Y-114142587D01*
X117636329Y-114143444D01*
G37*
G36*
X128139421Y-118849467D02*
G01*
X128189490Y-118852600D01*
X128237060Y-118857847D01*
X128282253Y-118865267D01*
X128325187Y-118874920D01*
X128365985Y-118886867D01*
X128404766Y-118901167D01*
X128441652Y-118917881D01*
X128476761Y-118937068D01*
X128510216Y-118958789D01*
X128542136Y-118983105D01*
X128572642Y-119010074D01*
X128601855Y-119039757D01*
X128629894Y-119072214D01*
X128656881Y-119107506D01*
X128682936Y-119145692D01*
X128698075Y-119170036D01*
X128712156Y-119194597D01*
X128725191Y-119219421D01*
X128737190Y-119244550D01*
X128748168Y-119270029D01*
X128758135Y-119295901D01*
X128767104Y-119322211D01*
X128775087Y-119349001D01*
X128782096Y-119376315D01*
X128788144Y-119404199D01*
X128793242Y-119432694D01*
X128797403Y-119461845D01*
X128800638Y-119491697D01*
X128802960Y-119522292D01*
X128804381Y-119553674D01*
X128804914Y-119585887D01*
X128802848Y-119660341D01*
X128796281Y-119731710D01*
X128785297Y-119799874D01*
X128769978Y-119864714D01*
X128750408Y-119926108D01*
X128726672Y-119983938D01*
X128698853Y-120038084D01*
X128667035Y-120088425D01*
X128649652Y-120112132D01*
X128631301Y-120134842D01*
X128611992Y-120156541D01*
X128591735Y-120177215D01*
X128570541Y-120196847D01*
X128548421Y-120215423D01*
X128525384Y-120232928D01*
X128501442Y-120249347D01*
X128476605Y-120264665D01*
X128450883Y-120278868D01*
X128424286Y-120291939D01*
X128396826Y-120303864D01*
X128368513Y-120314628D01*
X128339356Y-120324216D01*
X128309367Y-120332614D01*
X128278556Y-120339805D01*
X128256406Y-120344047D01*
X128233010Y-120347716D01*
X128208550Y-120350815D01*
X128183205Y-120353342D01*
X128157158Y-120355298D01*
X128130587Y-120356684D01*
X128076600Y-120357744D01*
X128022687Y-120356525D01*
X127996211Y-120355061D01*
X127970295Y-120353028D01*
X127945119Y-120350427D01*
X127920865Y-120347257D01*
X127897713Y-120343518D01*
X127875844Y-120339212D01*
X127843435Y-120331505D01*
X127812338Y-120322706D01*
X127782502Y-120312779D01*
X127753878Y-120301690D01*
X127726414Y-120289402D01*
X127700060Y-120275880D01*
X127674765Y-120261089D01*
X127650479Y-120244992D01*
X127627152Y-120227555D01*
X127604732Y-120208741D01*
X127583169Y-120188515D01*
X127562414Y-120166841D01*
X127542414Y-120143684D01*
X127523120Y-120119008D01*
X127504482Y-120092778D01*
X127486448Y-120064958D01*
X127470767Y-120039053D01*
X127456384Y-120013952D01*
X127443246Y-119989481D01*
X127431300Y-119965467D01*
X127420497Y-119941738D01*
X127410783Y-119918121D01*
X127402107Y-119894442D01*
X127394417Y-119870528D01*
X127387661Y-119846207D01*
X127381787Y-119821305D01*
X127376744Y-119795650D01*
X127372480Y-119769069D01*
X127368943Y-119741388D01*
X127366081Y-119712434D01*
X127363842Y-119682035D01*
X127362175Y-119650017D01*
X127361067Y-119602578D01*
X127361470Y-119578151D01*
X127731588Y-119578151D01*
X127732102Y-119633142D01*
X127736484Y-119687680D01*
X127744698Y-119740929D01*
X127756706Y-119792055D01*
X127772471Y-119840224D01*
X127781751Y-119862939D01*
X127791956Y-119884601D01*
X127803081Y-119905107D01*
X127815122Y-119924352D01*
X127828075Y-119942231D01*
X127841934Y-119958642D01*
X127856695Y-119973478D01*
X127872353Y-119986636D01*
X127890437Y-119999252D01*
X127909687Y-120010462D01*
X127929973Y-120020257D01*
X127951165Y-120028627D01*
X127973131Y-120035560D01*
X127995741Y-120041048D01*
X128018864Y-120045080D01*
X128042370Y-120047646D01*
X128066128Y-120048736D01*
X128090007Y-120048339D01*
X128113877Y-120046446D01*
X128137607Y-120043047D01*
X128161067Y-120038131D01*
X128184126Y-120031689D01*
X128206652Y-120023709D01*
X128228517Y-120014183D01*
X128228518Y-120014183D01*
X128239727Y-120008479D01*
X128250578Y-120002288D01*
X128261071Y-119995611D01*
X128271206Y-119988448D01*
X128280982Y-119980800D01*
X128290400Y-119972666D01*
X128299459Y-119964048D01*
X128308159Y-119954945D01*
X128316499Y-119945359D01*
X128324480Y-119935290D01*
X128332101Y-119924738D01*
X128339362Y-119913704D01*
X128346263Y-119902189D01*
X128352804Y-119890192D01*
X128358984Y-119877714D01*
X128364804Y-119864756D01*
X128370262Y-119851318D01*
X128375360Y-119837401D01*
X128380096Y-119823006D01*
X128384470Y-119808131D01*
X128388483Y-119792779D01*
X128392134Y-119776950D01*
X128395422Y-119760643D01*
X128398348Y-119743860D01*
X128400912Y-119726601D01*
X128403113Y-119708867D01*
X128404950Y-119690658D01*
X128406425Y-119671974D01*
X128408284Y-119633184D01*
X128408687Y-119592502D01*
X128408080Y-119561756D01*
X128406736Y-119532573D01*
X128404631Y-119504882D01*
X128401743Y-119478608D01*
X128398046Y-119453681D01*
X128393519Y-119430026D01*
X128388138Y-119407572D01*
X128381879Y-119386246D01*
X128374719Y-119365976D01*
X128366634Y-119346689D01*
X128357602Y-119328312D01*
X128347598Y-119310773D01*
X128336599Y-119294000D01*
X128324583Y-119277919D01*
X128311525Y-119262459D01*
X128297402Y-119247546D01*
X128286062Y-119236875D01*
X128274108Y-119226902D01*
X128261584Y-119217625D01*
X128248532Y-119209046D01*
X128234992Y-119201163D01*
X128221009Y-119193977D01*
X128206623Y-119187486D01*
X128191876Y-119181691D01*
X128176812Y-119176592D01*
X128161472Y-119172188D01*
X128145898Y-119168478D01*
X128130132Y-119165464D01*
X128114217Y-119163143D01*
X128098194Y-119161517D01*
X128082106Y-119160584D01*
X128065995Y-119160345D01*
X128049903Y-119160799D01*
X128033872Y-119161946D01*
X128017945Y-119163786D01*
X128002162Y-119166318D01*
X127986568Y-119169542D01*
X127971203Y-119173458D01*
X127956109Y-119178065D01*
X127941330Y-119183363D01*
X127926906Y-119189353D01*
X127912881Y-119196033D01*
X127899296Y-119203404D01*
X127886194Y-119211464D01*
X127873616Y-119220215D01*
X127861604Y-119229655D01*
X127850202Y-119239784D01*
X127839450Y-119250602D01*
X127825126Y-119267278D01*
X127811838Y-119285404D01*
X127799583Y-119304878D01*
X127788356Y-119325594D01*
X127778152Y-119347449D01*
X127768966Y-119370337D01*
X127760795Y-119394155D01*
X127753632Y-119418799D01*
X127742316Y-119470145D01*
X127734980Y-119523540D01*
X127731588Y-119578151D01*
X127361470Y-119578151D01*
X127361830Y-119556362D01*
X127364466Y-119511368D01*
X127368974Y-119467597D01*
X127375354Y-119425047D01*
X127383607Y-119383718D01*
X127393732Y-119343610D01*
X127405730Y-119304722D01*
X127419601Y-119267054D01*
X127435346Y-119230604D01*
X127452964Y-119195373D01*
X127472455Y-119161360D01*
X127493820Y-119128565D01*
X127517059Y-119096986D01*
X127542173Y-119066624D01*
X127569160Y-119037478D01*
X127593964Y-119013312D01*
X127619360Y-118990943D01*
X127645439Y-118970339D01*
X127672287Y-118951468D01*
X127699994Y-118934296D01*
X127728648Y-118918793D01*
X127758337Y-118904925D01*
X127789151Y-118892661D01*
X127821177Y-118881968D01*
X127854503Y-118872813D01*
X127889219Y-118865164D01*
X127925413Y-118858990D01*
X127963172Y-118854257D01*
X128002587Y-118850934D01*
X128043744Y-118848988D01*
X128086734Y-118848386D01*
X128139421Y-118849467D01*
G37*
G36*
X138604271Y-118849576D02*
G01*
X138655141Y-118853021D01*
X138703690Y-118858759D01*
X138749987Y-118866825D01*
X138794107Y-118877259D01*
X138836122Y-118890095D01*
X138876103Y-118905373D01*
X138914124Y-118923129D01*
X138950257Y-118943399D01*
X138984573Y-118966222D01*
X139017147Y-118991634D01*
X139048049Y-119019673D01*
X139077352Y-119050375D01*
X139105129Y-119083778D01*
X139131453Y-119119918D01*
X139156395Y-119158834D01*
X139176969Y-119195231D01*
X139195505Y-119232605D01*
X139212027Y-119270850D01*
X139226556Y-119309859D01*
X139239117Y-119349527D01*
X139249731Y-119389745D01*
X139258421Y-119430408D01*
X139265209Y-119471410D01*
X139273175Y-119554003D01*
X139273808Y-119636674D01*
X139267292Y-119718569D01*
X139253808Y-119798838D01*
X139233537Y-119876629D01*
X139206663Y-119951092D01*
X139190805Y-119986808D01*
X139173365Y-120021373D01*
X139154365Y-120054680D01*
X139133828Y-120086623D01*
X139111775Y-120117094D01*
X139088231Y-120145988D01*
X139063217Y-120173199D01*
X139036757Y-120198619D01*
X139008873Y-120222143D01*
X138979588Y-120243663D01*
X138948925Y-120263074D01*
X138916906Y-120280269D01*
X138887061Y-120293868D01*
X138855525Y-120306234D01*
X138822485Y-120317347D01*
X138788124Y-120327188D01*
X138752628Y-120335738D01*
X138716181Y-120342979D01*
X138678969Y-120348892D01*
X138641177Y-120353457D01*
X138602988Y-120356656D01*
X138564589Y-120358471D01*
X138526163Y-120358881D01*
X138487897Y-120357868D01*
X138449974Y-120355414D01*
X138412580Y-120351499D01*
X138375899Y-120346105D01*
X138340116Y-120339212D01*
X138340115Y-120339212D01*
X138321406Y-120334867D01*
X138302747Y-120329963D01*
X138284186Y-120324521D01*
X138265765Y-120318563D01*
X138247532Y-120312109D01*
X138229531Y-120305181D01*
X138211808Y-120297801D01*
X138194408Y-120289988D01*
X138177377Y-120281764D01*
X138160759Y-120273151D01*
X138144600Y-120264169D01*
X138128945Y-120254839D01*
X138113840Y-120245183D01*
X138099330Y-120235222D01*
X138085461Y-120224977D01*
X138072277Y-120214468D01*
X138059731Y-120203299D01*
X138046637Y-120190199D01*
X138033119Y-120175358D01*
X138019298Y-120158964D01*
X138005299Y-120141207D01*
X137991243Y-120122277D01*
X137977254Y-120102361D01*
X137963454Y-120081649D01*
X137949966Y-120060331D01*
X137936913Y-120038595D01*
X137924418Y-120016631D01*
X137912603Y-119994627D01*
X137901591Y-119972773D01*
X137891506Y-119951258D01*
X137882469Y-119930271D01*
X137874604Y-119910002D01*
X137843245Y-119824012D01*
X137839645Y-120072059D01*
X137836047Y-120320106D01*
X137644516Y-120320106D01*
X137452984Y-120320106D01*
X137452984Y-119611037D01*
X138207094Y-119611037D01*
X138207920Y-119642252D01*
X138209618Y-119673123D01*
X138212174Y-119703304D01*
X138215575Y-119732446D01*
X138219805Y-119760205D01*
X138224851Y-119786233D01*
X138230699Y-119810184D01*
X138237335Y-119831712D01*
X138244744Y-119850470D01*
X138253854Y-119869531D01*
X138263538Y-119887621D01*
X138273805Y-119904748D01*
X138284666Y-119920922D01*
X138296131Y-119936151D01*
X138308210Y-119950444D01*
X138320914Y-119963810D01*
X138334252Y-119976259D01*
X138348234Y-119987798D01*
X138362872Y-119998437D01*
X138378174Y-120008185D01*
X138394151Y-120017051D01*
X138410813Y-120025043D01*
X138428171Y-120032171D01*
X138446234Y-120038443D01*
X138465013Y-120043869D01*
X138476665Y-120046412D01*
X138489463Y-120048292D01*
X138503241Y-120049526D01*
X138517834Y-120050136D01*
X138533077Y-120050141D01*
X138548802Y-120049561D01*
X138564846Y-120048416D01*
X138581042Y-120046726D01*
X138597225Y-120044512D01*
X138613228Y-120041792D01*
X138628888Y-120038588D01*
X138644037Y-120034918D01*
X138658511Y-120030803D01*
X138672144Y-120026264D01*
X138684770Y-120021319D01*
X138696223Y-120015988D01*
X138696225Y-120015988D01*
X138708181Y-120009392D01*
X138720037Y-120001877D01*
X138731747Y-119993499D01*
X138743264Y-119984314D01*
X138754543Y-119974376D01*
X138765535Y-119963742D01*
X138776197Y-119952467D01*
X138786480Y-119940608D01*
X138796339Y-119928220D01*
X138805728Y-119915358D01*
X138814600Y-119902078D01*
X138822909Y-119888437D01*
X138830608Y-119874490D01*
X138837652Y-119860292D01*
X138843994Y-119845899D01*
X138849588Y-119831367D01*
X138851815Y-119824566D01*
X138854052Y-119816659D01*
X138858493Y-119797910D01*
X138862795Y-119775890D01*
X138866839Y-119751369D01*
X138870510Y-119725117D01*
X138873690Y-119697903D01*
X138876262Y-119670497D01*
X138878109Y-119643670D01*
X138879675Y-119590915D01*
X138878429Y-119540990D01*
X138874394Y-119493932D01*
X138867594Y-119449779D01*
X138858052Y-119408570D01*
X138845791Y-119370341D01*
X138830834Y-119335130D01*
X138822353Y-119318668D01*
X138813206Y-119302974D01*
X138803396Y-119288054D01*
X138792928Y-119273912D01*
X138781803Y-119260552D01*
X138770024Y-119247980D01*
X138757595Y-119236200D01*
X138744519Y-119225217D01*
X138730797Y-119215035D01*
X138716434Y-119205660D01*
X138701431Y-119197095D01*
X138685793Y-119189346D01*
X138669521Y-119182417D01*
X138652619Y-119176313D01*
X138635090Y-119171039D01*
X138616936Y-119166600D01*
X138598161Y-119162999D01*
X138578767Y-119160242D01*
X138563553Y-119158788D01*
X138548468Y-119158038D01*
X138533526Y-119157981D01*
X138518743Y-119158608D01*
X138504131Y-119159907D01*
X138489706Y-119161870D01*
X138475481Y-119164484D01*
X138461471Y-119167741D01*
X138447691Y-119171630D01*
X138434154Y-119176141D01*
X138420875Y-119181263D01*
X138407868Y-119186986D01*
X138395148Y-119193301D01*
X138382729Y-119200197D01*
X138370624Y-119207663D01*
X138358849Y-119215689D01*
X138347418Y-119224266D01*
X138336345Y-119233382D01*
X138325644Y-119243029D01*
X138315329Y-119253195D01*
X138305416Y-119263870D01*
X138295917Y-119275044D01*
X138286849Y-119286706D01*
X138278224Y-119298848D01*
X138270057Y-119311457D01*
X138262362Y-119324525D01*
X138255154Y-119338040D01*
X138248447Y-119351994D01*
X138242256Y-119366374D01*
X138236594Y-119381172D01*
X138231476Y-119396376D01*
X138226916Y-119411978D01*
X138221242Y-119435905D01*
X138216540Y-119461914D01*
X138212793Y-119489656D01*
X138209990Y-119518786D01*
X138208115Y-119548957D01*
X138207154Y-119579823D01*
X138207094Y-119611037D01*
X137452984Y-119611037D01*
X137452984Y-119605731D01*
X137452984Y-118891356D01*
X137644807Y-118891356D01*
X137836630Y-118891356D01*
X137837596Y-119139403D01*
X137838562Y-119387450D01*
X137863491Y-119317285D01*
X137870989Y-119297096D01*
X137879101Y-119276989D01*
X137887799Y-119257008D01*
X137897059Y-119237195D01*
X137906852Y-119217594D01*
X137917152Y-119198248D01*
X137927933Y-119179199D01*
X137939167Y-119160492D01*
X137950829Y-119142169D01*
X137962891Y-119124273D01*
X137975327Y-119106848D01*
X137988109Y-119089937D01*
X138001212Y-119073583D01*
X138014609Y-119057829D01*
X138028273Y-119042718D01*
X138042176Y-119028293D01*
X138065964Y-119005606D01*
X138090523Y-118984549D01*
X138115915Y-118965102D01*
X138142206Y-118947240D01*
X138169459Y-118930942D01*
X138197738Y-118916184D01*
X138227107Y-118902945D01*
X138257629Y-118891201D01*
X138289369Y-118880931D01*
X138322390Y-118872111D01*
X138356757Y-118864719D01*
X138392532Y-118858732D01*
X138429781Y-118854128D01*
X138468567Y-118850884D01*
X138508954Y-118848978D01*
X138551005Y-118848386D01*
X138604271Y-118849576D01*
G37*
G36*
X120495649Y-114395629D02*
G01*
X120523581Y-114397813D01*
X120549420Y-114402122D01*
X120573341Y-114408563D01*
X120595522Y-114417142D01*
X120616138Y-114427866D01*
X120635366Y-114440743D01*
X120653381Y-114455778D01*
X120670361Y-114472978D01*
X120677737Y-114481255D01*
X120684329Y-114488926D01*
X120690179Y-114496098D01*
X120695329Y-114502878D01*
X120699823Y-114509372D01*
X120703703Y-114515688D01*
X120707011Y-114521931D01*
X120708464Y-114525058D01*
X120709790Y-114528208D01*
X120710994Y-114531392D01*
X120712083Y-114534625D01*
X120713931Y-114541290D01*
X120715379Y-114548309D01*
X120716468Y-114555788D01*
X120717241Y-114563835D01*
X120717740Y-114572555D01*
X120718008Y-114582055D01*
X120718088Y-114592442D01*
X120717967Y-114600258D01*
X120717606Y-114608149D01*
X120717012Y-114616090D01*
X120716190Y-114624059D01*
X120715145Y-114632031D01*
X120713882Y-114639983D01*
X120712407Y-114647891D01*
X120710726Y-114655732D01*
X120708844Y-114663481D01*
X120706766Y-114671114D01*
X120704498Y-114678610D01*
X120702044Y-114685942D01*
X120699412Y-114693088D01*
X120696605Y-114700024D01*
X120693629Y-114706727D01*
X120690491Y-114713172D01*
X120680498Y-114728622D01*
X120662678Y-114751814D01*
X120608070Y-114816587D01*
X120535702Y-114897825D01*
X120454608Y-114985862D01*
X120373823Y-115071030D01*
X120302381Y-115143664D01*
X120249316Y-115194096D01*
X120232499Y-115207966D01*
X120227013Y-115211536D01*
X120223664Y-115212661D01*
X120207531Y-115206070D01*
X120167078Y-115187564D01*
X120024020Y-115119960D01*
X119816106Y-115020158D01*
X119564948Y-114898468D01*
X119111127Y-114676391D01*
X118973753Y-114608153D01*
X118924108Y-114582282D01*
X118924373Y-114582148D01*
X118924854Y-114582052D01*
X118926446Y-114581971D01*
X118928839Y-114582035D01*
X118931989Y-114582237D01*
X118940375Y-114583035D01*
X118951243Y-114584318D01*
X118964232Y-114586042D01*
X118978979Y-114588160D01*
X118995122Y-114590627D01*
X119012301Y-114593398D01*
X119038565Y-114597066D01*
X119069094Y-114600155D01*
X119140729Y-114604617D01*
X119222760Y-114606836D01*
X119310742Y-114606865D01*
X119400232Y-114604755D01*
X119486784Y-114600559D01*
X119565954Y-114594328D01*
X119633297Y-114586115D01*
X119688576Y-114577062D01*
X119743923Y-114566726D01*
X119801094Y-114554680D01*
X119861842Y-114540497D01*
X119927921Y-114523747D01*
X120001086Y-114504004D01*
X120083092Y-114480840D01*
X120175692Y-114453826D01*
X120226714Y-114439258D01*
X120274232Y-114426760D01*
X120318424Y-114416339D01*
X120359465Y-114408002D01*
X120397532Y-114401756D01*
X120432801Y-114397607D01*
X120465448Y-114395562D01*
X120495649Y-114395629D01*
G37*
G36*
X121410581Y-112622889D02*
G01*
X121451750Y-112626358D01*
X121493225Y-112632764D01*
X121534791Y-112642040D01*
X121576235Y-112654113D01*
X121617342Y-112668916D01*
X121657899Y-112686378D01*
X121697692Y-112706430D01*
X121736506Y-112729002D01*
X121774129Y-112754024D01*
X121810345Y-112781427D01*
X121844942Y-112811141D01*
X121877705Y-112843097D01*
X121890601Y-112857390D01*
X121903763Y-112873656D01*
X121917091Y-112891701D01*
X121930487Y-112911333D01*
X121943853Y-112932357D01*
X121957088Y-112954582D01*
X121970095Y-112977813D01*
X121982775Y-113001858D01*
X121995028Y-113026523D01*
X122006755Y-113051616D01*
X122017859Y-113076942D01*
X122028239Y-113102310D01*
X122037798Y-113127525D01*
X122046435Y-113152395D01*
X122054053Y-113176726D01*
X122060552Y-113200325D01*
X122068428Y-113231704D01*
X122075048Y-113261121D01*
X122077824Y-113275777D01*
X122080210Y-113290761D01*
X122082182Y-113306348D01*
X122083714Y-113322810D01*
X122084780Y-113340420D01*
X122085356Y-113359451D01*
X122085416Y-113380177D01*
X122084935Y-113402871D01*
X122083887Y-113427805D01*
X122082248Y-113455254D01*
X122079993Y-113485489D01*
X122077095Y-113518784D01*
X122069273Y-113595647D01*
X122058580Y-113688027D01*
X122044814Y-113798110D01*
X122027773Y-113928080D01*
X122007255Y-114080122D01*
X121983059Y-114256422D01*
X121922823Y-114690531D01*
X121749964Y-115943995D01*
X121749951Y-115944531D01*
X121749912Y-115945059D01*
X121749849Y-115945577D01*
X121749761Y-115946085D01*
X121749650Y-115946582D01*
X121749516Y-115947068D01*
X121749359Y-115947542D01*
X121749181Y-115948003D01*
X121748982Y-115948452D01*
X121748762Y-115948886D01*
X121748522Y-115949306D01*
X121748263Y-115949710D01*
X121747986Y-115950100D01*
X121747691Y-115950472D01*
X121747378Y-115950828D01*
X121747049Y-115951166D01*
X121746704Y-115951486D01*
X121746344Y-115951788D01*
X121745969Y-115952069D01*
X121745579Y-115952331D01*
X121745177Y-115952572D01*
X121744761Y-115952792D01*
X121744334Y-115952990D01*
X121743894Y-115953165D01*
X121743444Y-115953318D01*
X121742984Y-115953446D01*
X121742514Y-115953550D01*
X121742035Y-115953629D01*
X121741548Y-115953683D01*
X121741052Y-115953710D01*
X121740550Y-115953710D01*
X121740042Y-115953683D01*
X121723547Y-115946478D01*
X121680125Y-115926138D01*
X121524319Y-115851730D01*
X121019600Y-115607729D01*
X121019599Y-115607729D01*
X120309079Y-115262573D01*
X120501156Y-115064041D01*
X120572914Y-114989271D01*
X120630847Y-114927283D01*
X120676761Y-114875759D01*
X120695775Y-114853197D01*
X120712460Y-114832381D01*
X120727043Y-114813021D01*
X120739750Y-114794828D01*
X120750804Y-114777512D01*
X120760433Y-114760783D01*
X120768862Y-114744351D01*
X120776317Y-114727927D01*
X120783022Y-114711220D01*
X120789204Y-114693940D01*
X120796145Y-114671811D01*
X120801618Y-114650542D01*
X120805604Y-114630055D01*
X120808082Y-114610271D01*
X120809032Y-114591111D01*
X120808434Y-114572496D01*
X120807547Y-114563368D01*
X120806266Y-114554347D01*
X120804587Y-114545422D01*
X120802508Y-114536585D01*
X120800027Y-114527825D01*
X120797141Y-114519132D01*
X120790143Y-114501908D01*
X120781494Y-114484834D01*
X120771174Y-114467833D01*
X120759162Y-114450824D01*
X120745438Y-114433729D01*
X120729981Y-114416468D01*
X120712770Y-114398964D01*
X120700132Y-114386984D01*
X120687528Y-114375777D01*
X120674895Y-114365344D01*
X120662172Y-114355685D01*
X120649297Y-114346799D01*
X120636207Y-114338687D01*
X120622840Y-114331349D01*
X120609135Y-114324784D01*
X120595028Y-114318994D01*
X120580459Y-114313978D01*
X120565364Y-114309736D01*
X120549681Y-114306267D01*
X120533349Y-114303573D01*
X120516305Y-114301653D01*
X120498487Y-114300508D01*
X120479833Y-114300136D01*
X120460281Y-114300539D01*
X120439768Y-114301717D01*
X120418233Y-114303669D01*
X120395613Y-114306395D01*
X120371846Y-114309896D01*
X120346870Y-114314171D01*
X120293043Y-114325047D01*
X120233633Y-114339021D01*
X120168145Y-114356094D01*
X120096081Y-114376268D01*
X120016943Y-114399541D01*
X119912252Y-114429749D01*
X119816638Y-114454682D01*
X119727644Y-114474735D01*
X119642811Y-114490306D01*
X119601188Y-114496534D01*
X119559683Y-114501789D01*
X119475803Y-114509580D01*
X119388712Y-114514076D01*
X119295953Y-114515672D01*
X119213073Y-114514865D01*
X119135409Y-114511836D01*
X119061681Y-114506415D01*
X118990609Y-114498432D01*
X118920911Y-114487716D01*
X118851307Y-114474097D01*
X118780515Y-114457406D01*
X118707255Y-114437471D01*
X118656882Y-114422228D01*
X118605568Y-114405300D01*
X118553405Y-114386734D01*
X118500487Y-114366574D01*
X118446908Y-114344866D01*
X118392763Y-114321656D01*
X118283145Y-114270911D01*
X118172384Y-114214704D01*
X118061231Y-114153397D01*
X117950434Y-114087355D01*
X117840745Y-114016942D01*
X117784546Y-113979017D01*
X117737522Y-113946113D01*
X117699271Y-113917892D01*
X117683310Y-113905432D01*
X117669391Y-113894015D01*
X117657465Y-113883599D01*
X117647482Y-113874142D01*
X117639390Y-113865600D01*
X117633140Y-113857933D01*
X117628682Y-113851097D01*
X117625965Y-113845050D01*
X117624940Y-113839750D01*
X117625555Y-113835154D01*
X117626876Y-113831501D01*
X117628338Y-113828077D01*
X117629962Y-113824882D01*
X117631765Y-113821914D01*
X117633767Y-113819173D01*
X117635987Y-113816660D01*
X117638443Y-113814372D01*
X117641154Y-113812310D01*
X117644139Y-113810473D01*
X117647416Y-113808861D01*
X117651006Y-113807472D01*
X117654926Y-113806307D01*
X117659195Y-113805365D01*
X117663833Y-113804645D01*
X117668857Y-113804147D01*
X117674288Y-113803869D01*
X117680143Y-113803813D01*
X117686442Y-113803976D01*
X117693203Y-113804359D01*
X117700446Y-113804961D01*
X117708189Y-113805782D01*
X117716451Y-113806820D01*
X117725250Y-113808075D01*
X117734607Y-113809547D01*
X117744539Y-113811235D01*
X117755065Y-113813139D01*
X117777976Y-113817591D01*
X117803490Y-113822899D01*
X117831759Y-113829058D01*
X117953767Y-113855208D01*
X118062169Y-113876168D01*
X118161972Y-113892474D01*
X118258183Y-113904665D01*
X118355809Y-113913277D01*
X118459859Y-113918849D01*
X118575338Y-113921916D01*
X118707255Y-113923017D01*
X118836374Y-113922691D01*
X118944149Y-113920741D01*
X119035681Y-113916605D01*
X119116071Y-113909721D01*
X119153682Y-113905072D01*
X119190421Y-113899524D01*
X119263832Y-113885453D01*
X119341406Y-113866942D01*
X119428245Y-113843430D01*
X119476665Y-113829163D01*
X119522977Y-113814028D01*
X119567851Y-113797597D01*
X119611957Y-113779444D01*
X119655965Y-113759142D01*
X119700543Y-113736265D01*
X119746361Y-113710385D01*
X119794090Y-113681077D01*
X119844398Y-113647913D01*
X119897956Y-113610467D01*
X119955433Y-113568312D01*
X120017498Y-113521022D01*
X120084821Y-113468169D01*
X120158073Y-113409327D01*
X120325037Y-113271970D01*
X120496266Y-113131435D01*
X120648261Y-113010834D01*
X120782751Y-112908986D01*
X120901469Y-112824713D01*
X120955454Y-112788798D01*
X121006145Y-112756835D01*
X121053758Y-112728676D01*
X121098510Y-112704174D01*
X121140617Y-112683181D01*
X121180296Y-112665550D01*
X121217763Y-112651134D01*
X121253234Y-112639785D01*
X121291043Y-112630806D01*
X121330013Y-112625043D01*
X121369931Y-112622427D01*
X121410581Y-112622889D01*
G37*
G36*
X136700345Y-112885975D02*
G01*
X136735514Y-112887352D01*
X136769765Y-112889464D01*
X136802757Y-112892317D01*
X136834146Y-112895914D01*
X136863589Y-112900261D01*
X136890744Y-112905360D01*
X136921193Y-112912715D01*
X136953031Y-112922129D01*
X136985973Y-112933443D01*
X137019735Y-112946499D01*
X137054034Y-112961138D01*
X137088584Y-112977202D01*
X137123103Y-112994532D01*
X137157306Y-113012971D01*
X137190908Y-113032358D01*
X137223628Y-113052537D01*
X137255179Y-113073349D01*
X137285279Y-113094635D01*
X137313642Y-113116237D01*
X137339986Y-113137996D01*
X137364027Y-113159754D01*
X137385479Y-113181353D01*
X137417193Y-113215284D01*
X137494943Y-113143302D01*
X137513707Y-113126426D01*
X137533130Y-113109928D01*
X137553180Y-113093825D01*
X137573825Y-113078138D01*
X137595034Y-113062884D01*
X137616774Y-113048083D01*
X137639015Y-113033752D01*
X137661724Y-113019912D01*
X137684870Y-113006580D01*
X137708422Y-112993775D01*
X137732347Y-112981517D01*
X137756615Y-112969824D01*
X137781193Y-112958714D01*
X137806049Y-112948206D01*
X137831153Y-112938320D01*
X137856472Y-112929073D01*
X137890814Y-112917346D01*
X137906093Y-112912543D01*
X137920670Y-112908385D01*
X137934967Y-112904827D01*
X137949402Y-112901822D01*
X137964397Y-112899324D01*
X137980371Y-112897287D01*
X137997744Y-112895666D01*
X138016936Y-112894413D01*
X138038367Y-112893483D01*
X138062458Y-112892830D01*
X138120298Y-112892169D01*
X138193817Y-112892063D01*
X138268877Y-112892231D01*
X138327383Y-112892934D01*
X138373093Y-112894622D01*
X138392323Y-112895976D01*
X138409764Y-112897744D01*
X138425885Y-112899982D01*
X138441156Y-112902746D01*
X138456046Y-112906094D01*
X138471025Y-112910080D01*
X138503131Y-112920192D01*
X138541230Y-112933533D01*
X138571207Y-112944520D01*
X138599543Y-112955546D01*
X138626412Y-112966723D01*
X138651988Y-112978162D01*
X138676446Y-112989974D01*
X138699960Y-113002271D01*
X138722703Y-113015163D01*
X138744851Y-113028762D01*
X138766577Y-113043179D01*
X138788056Y-113058526D01*
X138809463Y-113074914D01*
X138830970Y-113092453D01*
X138852752Y-113111256D01*
X138874984Y-113131433D01*
X138897841Y-113153096D01*
X138921495Y-113176356D01*
X138944531Y-113199844D01*
X138966280Y-113223006D01*
X138986804Y-113245938D01*
X139006164Y-113268734D01*
X139024419Y-113291492D01*
X139041632Y-113314306D01*
X139057863Y-113337272D01*
X139073173Y-113360486D01*
X139087622Y-113384044D01*
X139101273Y-113408041D01*
X139114185Y-113432574D01*
X139126420Y-113457738D01*
X139138039Y-113483628D01*
X139149102Y-113510341D01*
X139159671Y-113537972D01*
X139169806Y-113566616D01*
X139205847Y-113672450D01*
X139209385Y-115838726D01*
X139212924Y-118005002D01*
X138968190Y-118005002D01*
X138723454Y-118005002D01*
X138719909Y-115891642D01*
X138716365Y-113778283D01*
X138685887Y-113702855D01*
X138678932Y-113687003D01*
X138670693Y-113670598D01*
X138661287Y-113653781D01*
X138650830Y-113636692D01*
X138639438Y-113619471D01*
X138627228Y-113602259D01*
X138614315Y-113585195D01*
X138600816Y-113568420D01*
X138586847Y-113552074D01*
X138572524Y-113536297D01*
X138557964Y-113521229D01*
X138543283Y-113507010D01*
X138528597Y-113493781D01*
X138514022Y-113481682D01*
X138499675Y-113470852D01*
X138485672Y-113461433D01*
X138468381Y-113450979D01*
X138451176Y-113441432D01*
X138433958Y-113432770D01*
X138416624Y-113424971D01*
X138399074Y-113418012D01*
X138381207Y-113411872D01*
X138362921Y-113406528D01*
X138344117Y-113401957D01*
X138324692Y-113398139D01*
X138304545Y-113395050D01*
X138283577Y-113392669D01*
X138261685Y-113390973D01*
X138238769Y-113389940D01*
X138214727Y-113389549D01*
X138189459Y-113389776D01*
X138162864Y-113390600D01*
X138124127Y-113392469D01*
X138091475Y-113394799D01*
X138077036Y-113396215D01*
X138063647Y-113397840D01*
X138051150Y-113399705D01*
X138039386Y-113401842D01*
X138028199Y-113404283D01*
X138017432Y-113407058D01*
X138006926Y-113410199D01*
X137996525Y-113413738D01*
X137986072Y-113417706D01*
X137975408Y-113422134D01*
X137952819Y-113432497D01*
X137933622Y-113442270D01*
X137914881Y-113452881D01*
X137896619Y-113464305D01*
X137878860Y-113476519D01*
X137861627Y-113489499D01*
X137844943Y-113503222D01*
X137828831Y-113517663D01*
X137813315Y-113532800D01*
X137798417Y-113548609D01*
X137784161Y-113565065D01*
X137770570Y-113582146D01*
X137757668Y-113599828D01*
X137745477Y-113618087D01*
X137734020Y-113636899D01*
X137723322Y-113656242D01*
X137713404Y-113676091D01*
X137671261Y-113765054D01*
X137667756Y-115885028D01*
X137664253Y-118005002D01*
X137419984Y-118005002D01*
X137175717Y-118005002D01*
X137172137Y-115891642D01*
X137168556Y-113778283D01*
X137138078Y-113702855D01*
X137131123Y-113687003D01*
X137122884Y-113670598D01*
X137113478Y-113653781D01*
X137103021Y-113636692D01*
X137091629Y-113619471D01*
X137079419Y-113602259D01*
X137066506Y-113585195D01*
X137053007Y-113568420D01*
X137039038Y-113552074D01*
X137024715Y-113536297D01*
X137010155Y-113521229D01*
X136995474Y-113507010D01*
X136980788Y-113493781D01*
X136966213Y-113481682D01*
X136951866Y-113470852D01*
X136937863Y-113461433D01*
X136920650Y-113451030D01*
X136903501Y-113441521D01*
X136886317Y-113432884D01*
X136869000Y-113425098D01*
X136851450Y-113418141D01*
X136833570Y-113411991D01*
X136815261Y-113406627D01*
X136796423Y-113402026D01*
X136776959Y-113398166D01*
X136756770Y-113395027D01*
X136735758Y-113392586D01*
X136713822Y-113390821D01*
X136690866Y-113389711D01*
X136666791Y-113389234D01*
X136641497Y-113389368D01*
X136614886Y-113390091D01*
X136575664Y-113391820D01*
X136542847Y-113394013D01*
X136528419Y-113395368D01*
X136515086Y-113396939D01*
X136502679Y-113398762D01*
X136491029Y-113400868D01*
X136479968Y-113403293D01*
X136469326Y-113406069D01*
X136458935Y-113409230D01*
X136448626Y-113412811D01*
X136438230Y-113416845D01*
X136427579Y-113421365D01*
X136404834Y-113431999D01*
X136385588Y-113441941D01*
X136366810Y-113452697D01*
X136348523Y-113464246D01*
X136330750Y-113476564D01*
X136313511Y-113489628D01*
X136296830Y-113503415D01*
X136280729Y-113517904D01*
X136265230Y-113533071D01*
X136250356Y-113548893D01*
X136236128Y-113565348D01*
X136222570Y-113582413D01*
X136209703Y-113600065D01*
X136197549Y-113618282D01*
X136186132Y-113637040D01*
X136175473Y-113656318D01*
X136165594Y-113676091D01*
X136123449Y-113765054D01*
X136119944Y-115878413D01*
X136116439Y-117991772D01*
X135871897Y-117991772D01*
X135627356Y-117991772D01*
X135627555Y-115858569D01*
X135628219Y-114511316D01*
X135630847Y-114108966D01*
X135636711Y-113842095D01*
X135647088Y-113676673D01*
X135663256Y-113578671D01*
X135686494Y-113514060D01*
X135718080Y-113448810D01*
X135742882Y-113399774D01*
X135770325Y-113352404D01*
X135800303Y-113306786D01*
X135832714Y-113263004D01*
X135867453Y-113221144D01*
X135904417Y-113181289D01*
X135943502Y-113143525D01*
X135984605Y-113107937D01*
X136027621Y-113074611D01*
X136072448Y-113043630D01*
X136118981Y-113015079D01*
X136167117Y-112989045D01*
X136216752Y-112965611D01*
X136267783Y-112944863D01*
X136320105Y-112926885D01*
X136373616Y-112911763D01*
X136399105Y-112906012D01*
X136427105Y-112900954D01*
X136457273Y-112896595D01*
X136489265Y-112892937D01*
X136522740Y-112889986D01*
X136557353Y-112887746D01*
X136628627Y-112885414D01*
X136700345Y-112885975D01*
G37*
G36*
X134063896Y-112847278D02*
G01*
X134143760Y-112850133D01*
X134179011Y-112852553D01*
X134211716Y-112855698D01*
X134242307Y-112859616D01*
X134271214Y-112864357D01*
X134298869Y-112869967D01*
X134325703Y-112876494D01*
X134352146Y-112883988D01*
X134378631Y-112892496D01*
X134433450Y-112912747D01*
X134478388Y-112931796D01*
X134522171Y-112952929D01*
X134564741Y-112976089D01*
X134606038Y-113001220D01*
X134646003Y-113028264D01*
X134684577Y-113057166D01*
X134721701Y-113087869D01*
X134757316Y-113120316D01*
X134791362Y-113154451D01*
X134823781Y-113190218D01*
X134854514Y-113227560D01*
X134883501Y-113266420D01*
X134910683Y-113306743D01*
X134936002Y-113348470D01*
X134959397Y-113391547D01*
X134980810Y-113435916D01*
X134995115Y-113466661D01*
X135007541Y-113494202D01*
X135013091Y-113508055D01*
X135018221Y-113522649D01*
X135022948Y-113538497D01*
X135027287Y-113556113D01*
X135031256Y-113576012D01*
X135034871Y-113598706D01*
X135038149Y-113624709D01*
X135041106Y-113654536D01*
X135043758Y-113688701D01*
X135046123Y-113727717D01*
X135048216Y-113772097D01*
X135050055Y-113822357D01*
X135051655Y-113879010D01*
X135053033Y-113942569D01*
X135055191Y-114092462D01*
X135056661Y-114276148D01*
X135057574Y-114497737D01*
X135058260Y-115071067D01*
X135058306Y-115845340D01*
X135058505Y-118005002D01*
X134813766Y-118005002D01*
X134569026Y-118005002D01*
X134569026Y-116596096D01*
X134569026Y-115187189D01*
X133914183Y-115187189D01*
X133259340Y-115187189D01*
X133259340Y-116596096D01*
X133259340Y-118005002D01*
X133014370Y-118005002D01*
X132769401Y-118005002D01*
X132772937Y-115818882D01*
X132775503Y-114231876D01*
X133259352Y-114231876D01*
X133260369Y-114534105D01*
X133263405Y-114634338D01*
X133265606Y-114663576D01*
X133268283Y-114675786D01*
X133272527Y-114676679D01*
X133283194Y-114677513D01*
X133322459Y-114678988D01*
X133463360Y-114681094D01*
X133669606Y-114681925D01*
X133919819Y-114681298D01*
X134562410Y-114677866D01*
X134562410Y-114214846D01*
X134561666Y-113966770D01*
X134560459Y-113881920D01*
X134558446Y-113817668D01*
X134555444Y-113769865D01*
X134551265Y-113734368D01*
X134545725Y-113707028D01*
X134538638Y-113683701D01*
X134528344Y-113656382D01*
X134516882Y-113630062D01*
X134504264Y-113604754D01*
X134490502Y-113580469D01*
X134475607Y-113557220D01*
X134459591Y-113535018D01*
X134442465Y-113513876D01*
X134424241Y-113493806D01*
X134404930Y-113474820D01*
X134384545Y-113456929D01*
X134363097Y-113440147D01*
X134340596Y-113424485D01*
X134317056Y-113409954D01*
X134292488Y-113396568D01*
X134266902Y-113384339D01*
X134240312Y-113373277D01*
X134228935Y-113369036D01*
X134217653Y-113365179D01*
X134206282Y-113361682D01*
X134194640Y-113358521D01*
X134182543Y-113355674D01*
X134169808Y-113353117D01*
X134156252Y-113350826D01*
X134141692Y-113348778D01*
X134125945Y-113346950D01*
X134108828Y-113345318D01*
X134090157Y-113343858D01*
X134069750Y-113342548D01*
X134022995Y-113340283D01*
X133967097Y-113338334D01*
X133923798Y-113337339D01*
X133881399Y-113336981D01*
X133840698Y-113337235D01*
X133802496Y-113338078D01*
X133767594Y-113339484D01*
X133736791Y-113341429D01*
X133710888Y-113343887D01*
X133690686Y-113346836D01*
X133650465Y-113355699D01*
X133611836Y-113366962D01*
X133574864Y-113380566D01*
X133539613Y-113396449D01*
X133506146Y-113414549D01*
X133474529Y-113434806D01*
X133444825Y-113457159D01*
X133417100Y-113481546D01*
X133391416Y-113507906D01*
X133367839Y-113536179D01*
X133346433Y-113566303D01*
X133327261Y-113598217D01*
X133310389Y-113631861D01*
X133295881Y-113667172D01*
X133283801Y-113704090D01*
X133274212Y-113742554D01*
X133268682Y-113803869D01*
X133264282Y-113918294D01*
X133259352Y-114231876D01*
X132775503Y-114231876D01*
X132776472Y-113632762D01*
X132813617Y-113526929D01*
X132823957Y-113498623D01*
X132834888Y-113470960D01*
X132846428Y-113443911D01*
X132858595Y-113417449D01*
X132871405Y-113391547D01*
X132884877Y-113366176D01*
X132899027Y-113341308D01*
X132913873Y-113316916D01*
X132929433Y-113292972D01*
X132945725Y-113269448D01*
X132962764Y-113246316D01*
X132980570Y-113223549D01*
X132999159Y-113201120D01*
X133018550Y-113178999D01*
X133038759Y-113157159D01*
X133059803Y-113135573D01*
X133081490Y-113114432D01*
X133103426Y-113094139D01*
X133125638Y-113074678D01*
X133148151Y-113056032D01*
X133170992Y-113038185D01*
X133194184Y-113021122D01*
X133217755Y-113004827D01*
X133241730Y-112989282D01*
X133266135Y-112974472D01*
X133290995Y-112960381D01*
X133316337Y-112946993D01*
X133342185Y-112934292D01*
X133368565Y-112922261D01*
X133395504Y-112910884D01*
X133423026Y-112900146D01*
X133451158Y-112890030D01*
X133485797Y-112878465D01*
X133501523Y-112873702D01*
X133516860Y-112869549D01*
X133532314Y-112865953D01*
X133548390Y-112862861D01*
X133565595Y-112860222D01*
X133584434Y-112857982D01*
X133605413Y-112856090D01*
X133629037Y-112854492D01*
X133655812Y-112853136D01*
X133686243Y-112851970D01*
X133760098Y-112849998D01*
X133854647Y-112848155D01*
X133968675Y-112846747D01*
X134063896Y-112847278D01*
G37*
G36*
X124499266Y-117373981D02*
G01*
X124499870Y-117380126D01*
X124500047Y-117382971D01*
X124500124Y-117385681D01*
X124500086Y-117388266D01*
X124499921Y-117390739D01*
X124499614Y-117393110D01*
X124499153Y-117395391D01*
X124498523Y-117397594D01*
X124497712Y-117399730D01*
X124496706Y-117401811D01*
X124495491Y-117403848D01*
X124494054Y-117405852D01*
X124492382Y-117407836D01*
X124490460Y-117409810D01*
X124488277Y-117411786D01*
X124485817Y-117413777D01*
X124483068Y-117415792D01*
X124480016Y-117417844D01*
X124476648Y-117419944D01*
X124472951Y-117422103D01*
X124468910Y-117424334D01*
X124464512Y-117426648D01*
X124459744Y-117429055D01*
X124449045Y-117434199D01*
X124436703Y-117439858D01*
X124422611Y-117446123D01*
X124406662Y-117453087D01*
X124225036Y-117535676D01*
X124137982Y-117578137D01*
X124053423Y-117621381D01*
X123971350Y-117665416D01*
X123891755Y-117710245D01*
X123814629Y-117755875D01*
X123739965Y-117802311D01*
X123667753Y-117849558D01*
X123597986Y-117897620D01*
X123530656Y-117946505D01*
X123465753Y-117996217D01*
X123403269Y-118046761D01*
X123343197Y-118098142D01*
X123285528Y-118150367D01*
X123230252Y-118203440D01*
X123172080Y-118261940D01*
X123119410Y-118317311D01*
X123071677Y-118370727D01*
X123028317Y-118423359D01*
X122988762Y-118476380D01*
X122952448Y-118530961D01*
X122935330Y-118559204D01*
X122918810Y-118588276D01*
X122887281Y-118649496D01*
X122857296Y-118715794D01*
X122828290Y-118788342D01*
X122799698Y-118868312D01*
X122770953Y-118956876D01*
X122741491Y-119055207D01*
X122710746Y-119164477D01*
X122678151Y-119285858D01*
X122643143Y-119420523D01*
X122587412Y-119633918D01*
X122538546Y-119812418D01*
X122494911Y-119960730D01*
X122454871Y-120083562D01*
X122416792Y-120185620D01*
X122379039Y-120271612D01*
X122339976Y-120346244D01*
X122297968Y-120414224D01*
X122284405Y-120433655D01*
X122270002Y-120452420D01*
X122254776Y-120470504D01*
X122238744Y-120487897D01*
X122221925Y-120504584D01*
X122204336Y-120520553D01*
X122185995Y-120535791D01*
X122166920Y-120550285D01*
X122147128Y-120564022D01*
X122126637Y-120576990D01*
X122105464Y-120589175D01*
X122083628Y-120600565D01*
X122061147Y-120611147D01*
X122038037Y-120620907D01*
X122014316Y-120629834D01*
X121990003Y-120637915D01*
X121970001Y-120643396D01*
X121947542Y-120648234D01*
X121922996Y-120652422D01*
X121896731Y-120655954D01*
X121869116Y-120658824D01*
X121840521Y-120661025D01*
X121811314Y-120662551D01*
X121781864Y-120663396D01*
X121752540Y-120663554D01*
X121723711Y-120663017D01*
X121695745Y-120661781D01*
X121669013Y-120659838D01*
X121643881Y-120657183D01*
X121620721Y-120653808D01*
X121599899Y-120649708D01*
X121581786Y-120644877D01*
X121581785Y-120644877D01*
X121557439Y-120636365D01*
X121531452Y-120625609D01*
X121504129Y-120612821D01*
X121475775Y-120598212D01*
X121446694Y-120581992D01*
X121417193Y-120564372D01*
X121387575Y-120545563D01*
X121358146Y-120525775D01*
X121329211Y-120505221D01*
X121301074Y-120484109D01*
X121274041Y-120462651D01*
X121248417Y-120441059D01*
X121224506Y-120419542D01*
X121202614Y-120398312D01*
X121183046Y-120377578D01*
X121166106Y-120357553D01*
X121145336Y-120323898D01*
X121102348Y-120248327D01*
X120960236Y-119990683D01*
X120760805Y-119623124D01*
X120525087Y-119184153D01*
X120179850Y-118537062D01*
X120006031Y-118203681D01*
X119966937Y-118121643D01*
X119950938Y-118078445D01*
X119949541Y-118067288D01*
X119951448Y-118060893D01*
X119961880Y-118055791D01*
X120244334Y-118002958D01*
X120759618Y-117913752D01*
X121255761Y-117831010D01*
X121480793Y-117797568D01*
X121481196Y-117798342D01*
X121481503Y-117799749D01*
X121481832Y-117804395D01*
X121481794Y-117811375D01*
X121481403Y-117820556D01*
X121479615Y-117844996D01*
X121476577Y-117876662D01*
X121472400Y-117914499D01*
X121467191Y-117957453D01*
X121461061Y-118004472D01*
X121454119Y-118054500D01*
X121440601Y-118153587D01*
X121430572Y-118238117D01*
X121423985Y-118309890D01*
X121420791Y-118370703D01*
X121420451Y-118397561D01*
X121420940Y-118422353D01*
X121422254Y-118445305D01*
X121424385Y-118466640D01*
X121427327Y-118486584D01*
X121431076Y-118505361D01*
X121435623Y-118523195D01*
X121440965Y-118540313D01*
X121446692Y-118555713D01*
X121453171Y-118570551D01*
X121460373Y-118584814D01*
X121468269Y-118598491D01*
X121476829Y-118611572D01*
X121486025Y-118624046D01*
X121495827Y-118635900D01*
X121506206Y-118647124D01*
X121517134Y-118657707D01*
X121528580Y-118667638D01*
X121540517Y-118676905D01*
X121552915Y-118685498D01*
X121565745Y-118693404D01*
X121578978Y-118700614D01*
X121592585Y-118707115D01*
X121606536Y-118712898D01*
X121620804Y-118717949D01*
X121635358Y-118722259D01*
X121650170Y-118725816D01*
X121665210Y-118728610D01*
X121680450Y-118730628D01*
X121695860Y-118731859D01*
X121711411Y-118732294D01*
X121727075Y-118731920D01*
X121742823Y-118730726D01*
X121758624Y-118728701D01*
X121774450Y-118725834D01*
X121790273Y-118722114D01*
X121806062Y-118717529D01*
X121821790Y-118712069D01*
X121837426Y-118705722D01*
X121852942Y-118698478D01*
X121872100Y-118688437D01*
X121890938Y-118677517D01*
X121909613Y-118665559D01*
X121928283Y-118652408D01*
X121947107Y-118637906D01*
X121966243Y-118621897D01*
X121985848Y-118604223D01*
X122006081Y-118584728D01*
X122027099Y-118563254D01*
X122049060Y-118539645D01*
X122072123Y-118513743D01*
X122096446Y-118485393D01*
X122122186Y-118454437D01*
X122149501Y-118420717D01*
X122178550Y-118384078D01*
X122209491Y-118344362D01*
X122261941Y-118277441D01*
X122312563Y-118214792D01*
X122361658Y-118156141D01*
X122409527Y-118101218D01*
X122456474Y-118049751D01*
X122502798Y-118001468D01*
X122548803Y-117956097D01*
X122594789Y-117913366D01*
X122641058Y-117873004D01*
X122687913Y-117834740D01*
X122735655Y-117798301D01*
X122784584Y-117763415D01*
X122835004Y-117729811D01*
X122887216Y-117697218D01*
X122941522Y-117665363D01*
X122998222Y-117633974D01*
X123063083Y-117600693D01*
X123130721Y-117569203D01*
X123200958Y-117539544D01*
X123273618Y-117511757D01*
X123348524Y-117485884D01*
X123425499Y-117461965D01*
X123504366Y-117440042D01*
X123584948Y-117420155D01*
X123667069Y-117402345D01*
X123750550Y-117386654D01*
X123835216Y-117373123D01*
X123920890Y-117361791D01*
X124007394Y-117352701D01*
X124094552Y-117345894D01*
X124182186Y-117341410D01*
X124270120Y-117339290D01*
X124495015Y-117336929D01*
X124499266Y-117373981D01*
G37*
G36*
X118496112Y-115828901D02*
G01*
X118505886Y-115829781D01*
X118515729Y-115831172D01*
X118525632Y-115833077D01*
X118535589Y-115835503D01*
X118544088Y-115837971D01*
X118552421Y-115840770D01*
X118560612Y-115843931D01*
X118568684Y-115847483D01*
X118576661Y-115851459D01*
X118584568Y-115855889D01*
X118592429Y-115860804D01*
X118600268Y-115866235D01*
X118608108Y-115872212D01*
X118615974Y-115878766D01*
X118623889Y-115885928D01*
X118631879Y-115893730D01*
X118639966Y-115902201D01*
X118648175Y-115911373D01*
X118656530Y-115921277D01*
X118665055Y-115931942D01*
X118673774Y-115943401D01*
X118682711Y-115955684D01*
X118701335Y-115982845D01*
X118721119Y-116013672D01*
X118742255Y-116048412D01*
X118764936Y-116087310D01*
X118789354Y-116130615D01*
X118815702Y-116178572D01*
X118844171Y-116231428D01*
X118987701Y-116500063D01*
X118916104Y-116574538D01*
X118416366Y-117092189D01*
X117977856Y-117547402D01*
X117977411Y-117547825D01*
X117977142Y-117547860D01*
X117977046Y-117547516D01*
X117977120Y-117546801D01*
X117977761Y-117544293D01*
X117979037Y-117540405D01*
X117983379Y-117528772D01*
X117989918Y-117512459D01*
X117998425Y-117492022D01*
X118008673Y-117468020D01*
X118020434Y-117441008D01*
X118033478Y-117411546D01*
X118063095Y-117341504D01*
X118091248Y-117267664D01*
X118117604Y-117191156D01*
X118141830Y-117113112D01*
X118163595Y-117034665D01*
X118182564Y-116956947D01*
X118198407Y-116881090D01*
X118210789Y-116808225D01*
X118215245Y-116773610D01*
X118219836Y-116729492D01*
X118224432Y-116677682D01*
X118228899Y-116619991D01*
X118236925Y-116494212D01*
X118240221Y-116429746D01*
X118242862Y-116366644D01*
X118249604Y-116207546D01*
X118253084Y-116150940D01*
X118257014Y-116106099D01*
X118261675Y-116070374D01*
X118267349Y-116041116D01*
X118274320Y-116015678D01*
X118282870Y-115991410D01*
X118287470Y-115980004D01*
X118292362Y-115968971D01*
X118297540Y-115958314D01*
X118302993Y-115948040D01*
X118308716Y-115938153D01*
X118314699Y-115928657D01*
X118320935Y-115919559D01*
X118327416Y-115910862D01*
X118334133Y-115902572D01*
X118341079Y-115894694D01*
X118348246Y-115887232D01*
X118355625Y-115880192D01*
X118363210Y-115873579D01*
X118370991Y-115867396D01*
X118378961Y-115861650D01*
X118387111Y-115856346D01*
X118395435Y-115851487D01*
X118403923Y-115847080D01*
X118412568Y-115843128D01*
X118421362Y-115839638D01*
X118430297Y-115836613D01*
X118439365Y-115834060D01*
X118448557Y-115831982D01*
X118457866Y-115830385D01*
X118467285Y-115829273D01*
X118476804Y-115828652D01*
X118486416Y-115828526D01*
X118496112Y-115828901D01*
G37*
G36*
X129925587Y-118912302D02*
G01*
X129926466Y-119120297D01*
X129928945Y-119280573D01*
X129932785Y-119383217D01*
X129935140Y-119409830D01*
X129936414Y-119416417D01*
X129937747Y-119418318D01*
X129940129Y-119416547D01*
X129944690Y-119412234D01*
X129959866Y-119396511D01*
X129982322Y-119372211D01*
X130011102Y-119340397D01*
X130045254Y-119302130D01*
X130083822Y-119258475D01*
X130125853Y-119210493D01*
X130170391Y-119159246D01*
X130390876Y-118904585D01*
X130624229Y-118904585D01*
X130857580Y-118904585D01*
X130758766Y-119007111D01*
X130643327Y-119126179D01*
X130504539Y-119268475D01*
X130349124Y-119427313D01*
X130509362Y-119698423D01*
X130572621Y-119804733D01*
X130626405Y-119893780D01*
X130665023Y-119956233D01*
X130676867Y-119974571D01*
X130682786Y-119982762D01*
X130683586Y-119983511D01*
X130684343Y-119984112D01*
X130685057Y-119984564D01*
X130685727Y-119984867D01*
X130686046Y-119984963D01*
X130686355Y-119985021D01*
X130686652Y-119985042D01*
X130686939Y-119985027D01*
X130687215Y-119984974D01*
X130687481Y-119984883D01*
X130687735Y-119984756D01*
X130687979Y-119984592D01*
X130688212Y-119984390D01*
X130688434Y-119984151D01*
X130688846Y-119983562D01*
X130689215Y-119982825D01*
X130689541Y-119981939D01*
X130689824Y-119980905D01*
X130690063Y-119979723D01*
X130690260Y-119978392D01*
X130690413Y-119976914D01*
X130690524Y-119975287D01*
X130690591Y-119973512D01*
X130690615Y-119971589D01*
X130690595Y-119969519D01*
X130690533Y-119967300D01*
X130690428Y-119964934D01*
X130690279Y-119962420D01*
X130690087Y-119959758D01*
X130689574Y-119953991D01*
X130688889Y-119947634D01*
X130688030Y-119940688D01*
X130686999Y-119933152D01*
X130678028Y-119870314D01*
X130870152Y-119870314D01*
X131062275Y-119870314D01*
X131077166Y-119925613D01*
X131080285Y-119936163D01*
X131083860Y-119946337D01*
X131087892Y-119956134D01*
X131092381Y-119965556D01*
X131097331Y-119974602D01*
X131102740Y-119983274D01*
X131108612Y-119991572D01*
X131114946Y-119999497D01*
X131121745Y-120007049D01*
X131129010Y-120014228D01*
X131136741Y-120021036D01*
X131144940Y-120027472D01*
X131153609Y-120033538D01*
X131162748Y-120039234D01*
X131172358Y-120044561D01*
X131182442Y-120049519D01*
X131192999Y-120054108D01*
X131204033Y-120058330D01*
X131215542Y-120062185D01*
X131227530Y-120065673D01*
X131239997Y-120068795D01*
X131252944Y-120071552D01*
X131266372Y-120073944D01*
X131280284Y-120075971D01*
X131294679Y-120077635D01*
X131309560Y-120078936D01*
X131324927Y-120079874D01*
X131340782Y-120080450D01*
X131357126Y-120080665D01*
X131373961Y-120080519D01*
X131391286Y-120080012D01*
X131409105Y-120079146D01*
X131429655Y-120077725D01*
X131448693Y-120075904D01*
X131466307Y-120073641D01*
X131482585Y-120070894D01*
X131497614Y-120067620D01*
X131511483Y-120063778D01*
X131524279Y-120059324D01*
X131536091Y-120054217D01*
X131547006Y-120048415D01*
X131557112Y-120041875D01*
X131566498Y-120034556D01*
X131575251Y-120026414D01*
X131583458Y-120017408D01*
X131591209Y-120007496D01*
X131598591Y-119996635D01*
X131605691Y-119984783D01*
X131608794Y-119979193D01*
X131611483Y-119974081D01*
X131613757Y-119969378D01*
X131615617Y-119965017D01*
X131617062Y-119960926D01*
X131617629Y-119958960D01*
X131618092Y-119957036D01*
X131618452Y-119955145D01*
X131618708Y-119953279D01*
X131618860Y-119951428D01*
X131618908Y-119949585D01*
X131618853Y-119947739D01*
X131618694Y-119945884D01*
X131618431Y-119944009D01*
X131618064Y-119942107D01*
X131617594Y-119940169D01*
X131617019Y-119938185D01*
X131615558Y-119934049D01*
X131613682Y-119929629D01*
X131611390Y-119924855D01*
X131608682Y-119919659D01*
X131605558Y-119913970D01*
X131602553Y-119908822D01*
X131599382Y-119903849D01*
X131596018Y-119899042D01*
X131592432Y-119894386D01*
X131588598Y-119889872D01*
X131584487Y-119885486D01*
X131580072Y-119881216D01*
X131575325Y-119877052D01*
X131570218Y-119872979D01*
X131564724Y-119868988D01*
X131558815Y-119865065D01*
X131552463Y-119861198D01*
X131545641Y-119857377D01*
X131538320Y-119853588D01*
X131530474Y-119849819D01*
X131522073Y-119846059D01*
X131513092Y-119842296D01*
X131503501Y-119838518D01*
X131493274Y-119834712D01*
X131482382Y-119830867D01*
X131458495Y-119823011D01*
X131431616Y-119814854D01*
X131401526Y-119806299D01*
X131368003Y-119797252D01*
X131330823Y-119787616D01*
X131289767Y-119777294D01*
X131155160Y-119742216D01*
X131097316Y-119725618D01*
X131045303Y-119709376D01*
X130998762Y-119693289D01*
X130957338Y-119677152D01*
X130920672Y-119660764D01*
X130888407Y-119643922D01*
X130860186Y-119626422D01*
X130835652Y-119608061D01*
X130814447Y-119588638D01*
X130796215Y-119567949D01*
X130780598Y-119545791D01*
X130767238Y-119521962D01*
X130755779Y-119496258D01*
X130745863Y-119468476D01*
X130741620Y-119452761D01*
X130738258Y-119435069D01*
X130735754Y-119415694D01*
X130734086Y-119394931D01*
X130733229Y-119373075D01*
X130733163Y-119350419D01*
X130733863Y-119327259D01*
X130735307Y-119303889D01*
X130737473Y-119280603D01*
X130740337Y-119257696D01*
X130743876Y-119235462D01*
X130748069Y-119214196D01*
X130752892Y-119194193D01*
X130758322Y-119175746D01*
X130764337Y-119159151D01*
X130770913Y-119144702D01*
X130781931Y-119124465D01*
X130793743Y-119104914D01*
X130806338Y-119086054D01*
X130819703Y-119067891D01*
X130833823Y-119050429D01*
X130848686Y-119033675D01*
X130864279Y-119017633D01*
X130880589Y-119002310D01*
X130897602Y-118987710D01*
X130915305Y-118973839D01*
X130933686Y-118960702D01*
X130952730Y-118948305D01*
X130972426Y-118936654D01*
X130992759Y-118925752D01*
X131013716Y-118915607D01*
X131035286Y-118906223D01*
X131057453Y-118897606D01*
X131080205Y-118889762D01*
X131103530Y-118882694D01*
X131127413Y-118876410D01*
X131151842Y-118870915D01*
X131176804Y-118866213D01*
X131202285Y-118862310D01*
X131228272Y-118859213D01*
X131254752Y-118856925D01*
X131281712Y-118855453D01*
X131309140Y-118854801D01*
X131337020Y-118854976D01*
X131365341Y-118855983D01*
X131394090Y-118857827D01*
X131423253Y-118860514D01*
X131452816Y-118864048D01*
X131506943Y-118872532D01*
X131557698Y-118883153D01*
X131605128Y-118895949D01*
X131649279Y-118910961D01*
X131690199Y-118928227D01*
X131727934Y-118947788D01*
X131745621Y-118958442D01*
X131762530Y-118969684D01*
X131778665Y-118981519D01*
X131794033Y-118993952D01*
X131808640Y-119006989D01*
X131822492Y-119020635D01*
X131835593Y-119034893D01*
X131847951Y-119049770D01*
X131859571Y-119065270D01*
X131870458Y-119081397D01*
X131880619Y-119098158D01*
X131890060Y-119115557D01*
X131898785Y-119133599D01*
X131906802Y-119152288D01*
X131920732Y-119191631D01*
X131931895Y-119233624D01*
X131940339Y-119278308D01*
X131947990Y-119327917D01*
X131758470Y-119327917D01*
X131568951Y-119327917D01*
X131560699Y-119283932D01*
X131559706Y-119279290D01*
X131558468Y-119274613D01*
X131556990Y-119269908D01*
X131555280Y-119265184D01*
X131551194Y-119255709D01*
X131546268Y-119246249D01*
X131540560Y-119236868D01*
X131534128Y-119227629D01*
X131527031Y-119218593D01*
X131519325Y-119209824D01*
X131511070Y-119201383D01*
X131502324Y-119193335D01*
X131493144Y-119185741D01*
X131483588Y-119178664D01*
X131473716Y-119172167D01*
X131463584Y-119166312D01*
X131453251Y-119161162D01*
X131442775Y-119156780D01*
X131431569Y-119153268D01*
X131418170Y-119150289D01*
X131402893Y-119147837D01*
X131386051Y-119145907D01*
X131367959Y-119144493D01*
X131348931Y-119143589D01*
X131329282Y-119143191D01*
X131309327Y-119143293D01*
X131289380Y-119143888D01*
X131269755Y-119144972D01*
X131250767Y-119146540D01*
X131232730Y-119148585D01*
X131215960Y-119151102D01*
X131200769Y-119154086D01*
X131187473Y-119157531D01*
X131176387Y-119161432D01*
X131171452Y-119163577D01*
X131166698Y-119165812D01*
X131162122Y-119168138D01*
X131157726Y-119170556D01*
X131153508Y-119173068D01*
X131149468Y-119175672D01*
X131145605Y-119178371D01*
X131141919Y-119181165D01*
X131138411Y-119184054D01*
X131135078Y-119187040D01*
X131131921Y-119190123D01*
X131128940Y-119193303D01*
X131126134Y-119196582D01*
X131123502Y-119199959D01*
X131121045Y-119203437D01*
X131118761Y-119207015D01*
X131116650Y-119210694D01*
X131114713Y-119214475D01*
X131112948Y-119218358D01*
X131111354Y-119222345D01*
X131109933Y-119226436D01*
X131108682Y-119230631D01*
X131107603Y-119234932D01*
X131106694Y-119239339D01*
X131105954Y-119243853D01*
X131105384Y-119248474D01*
X131104984Y-119253203D01*
X131104751Y-119258041D01*
X131104687Y-119262989D01*
X131104791Y-119268047D01*
X131105062Y-119273216D01*
X131105500Y-119278497D01*
X131106261Y-119284621D01*
X131107344Y-119290529D01*
X131108777Y-119296233D01*
X131110588Y-119301749D01*
X131112806Y-119307090D01*
X131115458Y-119312268D01*
X131118574Y-119317298D01*
X131122182Y-119322194D01*
X131126309Y-119326969D01*
X131130984Y-119331636D01*
X131136236Y-119336210D01*
X131142092Y-119340704D01*
X131148581Y-119345131D01*
X131155732Y-119349506D01*
X131163572Y-119353841D01*
X131172129Y-119358151D01*
X131181433Y-119362449D01*
X131191511Y-119366748D01*
X131202392Y-119371063D01*
X131214103Y-119375407D01*
X131226674Y-119379793D01*
X131240132Y-119384236D01*
X131254506Y-119388749D01*
X131269824Y-119393345D01*
X131303405Y-119402842D01*
X131341102Y-119412837D01*
X131383140Y-119423438D01*
X131429747Y-119434755D01*
X131493440Y-119450584D01*
X131552156Y-119466466D01*
X131606108Y-119482532D01*
X131655507Y-119498912D01*
X131700566Y-119515738D01*
X131741498Y-119533140D01*
X131778514Y-119551248D01*
X131811828Y-119570194D01*
X131841652Y-119590109D01*
X131868198Y-119611122D01*
X131891678Y-119633366D01*
X131912306Y-119656969D01*
X131930293Y-119682065D01*
X131945852Y-119708782D01*
X131959195Y-119737252D01*
X131970535Y-119767606D01*
X131975031Y-119783043D01*
X131978787Y-119799899D01*
X131981811Y-119817967D01*
X131984113Y-119837040D01*
X131985700Y-119856909D01*
X131986580Y-119877368D01*
X131986763Y-119898209D01*
X131986255Y-119919225D01*
X131985067Y-119940208D01*
X131983206Y-119960950D01*
X131980680Y-119981246D01*
X131977498Y-120000886D01*
X131973668Y-120019664D01*
X131969199Y-120037372D01*
X131964098Y-120053803D01*
X131958375Y-120068750D01*
X131947305Y-120092683D01*
X131934904Y-120115740D01*
X131921195Y-120137902D01*
X131906201Y-120159150D01*
X131889945Y-120179465D01*
X131872449Y-120198829D01*
X131853737Y-120217221D01*
X131833831Y-120234624D01*
X131812754Y-120251018D01*
X131790531Y-120266385D01*
X131767182Y-120280706D01*
X131742731Y-120293961D01*
X131717202Y-120306132D01*
X131690617Y-120317200D01*
X131662998Y-120327146D01*
X131634370Y-120335952D01*
X131610740Y-120341906D01*
X131584261Y-120347287D01*
X131555324Y-120352080D01*
X131524321Y-120356271D01*
X131491644Y-120359846D01*
X131457685Y-120362789D01*
X131387488Y-120366725D01*
X131316862Y-120367965D01*
X131248943Y-120366392D01*
X131216978Y-120364516D01*
X131186864Y-120361893D01*
X131158994Y-120358510D01*
X131133760Y-120354351D01*
X131133757Y-120354354D01*
X131113809Y-120350203D01*
X131093483Y-120345334D01*
X131072931Y-120339810D01*
X131052306Y-120333696D01*
X131031762Y-120327056D01*
X131011453Y-120319955D01*
X130991531Y-120312455D01*
X130972150Y-120304623D01*
X130953463Y-120296521D01*
X130935624Y-120288214D01*
X130918785Y-120279766D01*
X130903101Y-120271241D01*
X130888725Y-120262704D01*
X130875810Y-120254219D01*
X130864509Y-120245850D01*
X130854975Y-120237660D01*
X130848430Y-120231634D01*
X130842743Y-120226667D01*
X130837916Y-120222768D01*
X130835824Y-120221222D01*
X130833947Y-120219946D01*
X130832285Y-120218942D01*
X130830837Y-120218211D01*
X130829603Y-120217753D01*
X130828584Y-120217571D01*
X130827779Y-120217664D01*
X130827456Y-120217815D01*
X130827188Y-120218035D01*
X130826973Y-120218324D01*
X130826811Y-120218684D01*
X130826649Y-120219612D01*
X130826701Y-120220820D01*
X130826966Y-120222311D01*
X130827446Y-120224084D01*
X130828139Y-120226140D01*
X130829047Y-120228482D01*
X130830168Y-120231110D01*
X130833051Y-120237228D01*
X130836789Y-120244504D01*
X130841381Y-120252946D01*
X130846826Y-120262564D01*
X130853125Y-120273366D01*
X130881079Y-120320743D01*
X130652053Y-120317117D01*
X130423028Y-120313491D01*
X130250375Y-120012091D01*
X130077723Y-119710691D01*
X130001655Y-119789186D01*
X129925587Y-119867680D01*
X129925587Y-120094265D01*
X129925587Y-120320852D01*
X129743687Y-120317172D01*
X129561785Y-120313491D01*
X129565589Y-119774403D01*
X129569391Y-119235314D01*
X129512672Y-119235394D01*
X129488700Y-119236135D01*
X129465465Y-119238285D01*
X129442993Y-119241828D01*
X129421309Y-119246747D01*
X129400440Y-119253026D01*
X129380412Y-119260650D01*
X129361251Y-119269602D01*
X129342984Y-119279867D01*
X129325637Y-119291427D01*
X129309236Y-119304268D01*
X129293806Y-119318373D01*
X129279375Y-119333726D01*
X129265968Y-119350312D01*
X129253612Y-119368113D01*
X129242333Y-119387114D01*
X129232157Y-119407299D01*
X129227590Y-119417558D01*
X129223543Y-119427808D01*
X129221703Y-119433111D01*
X129219979Y-119438629D01*
X129218366Y-119444432D01*
X129216860Y-119450595D01*
X129215455Y-119457187D01*
X129214148Y-119464283D01*
X129212933Y-119471954D01*
X129211807Y-119480271D01*
X129209797Y-119499135D01*
X129208082Y-119521451D01*
X129206625Y-119547796D01*
X129205387Y-119578748D01*
X129204330Y-119614881D01*
X129203418Y-119656774D01*
X129201877Y-119760144D01*
X129200461Y-119893471D01*
X129196325Y-120320106D01*
X129011946Y-120320106D01*
X128827567Y-120320106D01*
X128827567Y-119605731D01*
X128827567Y-118891356D01*
X129006160Y-118891356D01*
X129184754Y-118891356D01*
X129184754Y-119005259D01*
X129184754Y-119119163D01*
X129244635Y-119037818D01*
X129257188Y-119021433D01*
X129270276Y-119005627D01*
X129283836Y-118990446D01*
X129297806Y-118975935D01*
X129312124Y-118962139D01*
X129326728Y-118949104D01*
X129341556Y-118936875D01*
X129356545Y-118925497D01*
X129371635Y-118915014D01*
X129386761Y-118905473D01*
X129401863Y-118896918D01*
X129416877Y-118889394D01*
X129431743Y-118882947D01*
X129446397Y-118877622D01*
X129460779Y-118873464D01*
X129474824Y-118870518D01*
X129507949Y-118865296D01*
X129521102Y-118862879D01*
X129526901Y-118861523D01*
X129532210Y-118859995D01*
X129537051Y-118858237D01*
X129541446Y-118856195D01*
X129545414Y-118853812D01*
X129548979Y-118851032D01*
X129552161Y-118847799D01*
X129554982Y-118844057D01*
X129557463Y-118839751D01*
X129559625Y-118834824D01*
X129561491Y-118829220D01*
X129563081Y-118822883D01*
X129564417Y-118815758D01*
X129565520Y-118807788D01*
X129566412Y-118798917D01*
X129567114Y-118789090D01*
X129568034Y-118766341D01*
X129568451Y-118739094D01*
X129568537Y-118706900D01*
X129568400Y-118625881D01*
X129568400Y-118401877D01*
X129746994Y-118401877D01*
X129925587Y-118401877D01*
X129925587Y-118912302D01*
G37*
G36*
X129581630Y-113090154D02*
G01*
X129581630Y-113334681D01*
X129221135Y-113338201D01*
X128860640Y-113341721D01*
X128857295Y-115673361D01*
X128853952Y-118005002D01*
X128609285Y-118005002D01*
X128364619Y-118005002D01*
X128361276Y-115673361D01*
X128357931Y-113341721D01*
X127997436Y-113338201D01*
X127636942Y-113334681D01*
X127636942Y-113090154D01*
X127636942Y-112845627D01*
X128609285Y-112845627D01*
X129581630Y-112845627D01*
X129581630Y-113090154D01*
G37*
G36*
X137641499Y-118378362D02*
G01*
X137830014Y-118382033D01*
X137833717Y-118550704D01*
X137837420Y-118719377D01*
X137645201Y-118719377D01*
X137452983Y-118719377D01*
X137452983Y-118547034D01*
X137452983Y-118374692D01*
X137641499Y-118378362D01*
G37*
G36*
X127463994Y-118388821D02*
G01*
X127509350Y-118389403D01*
X127544770Y-118390477D01*
X127571218Y-118392128D01*
X127581379Y-118393196D01*
X127589658Y-118394441D01*
X127596177Y-118395872D01*
X127601056Y-118397501D01*
X127604414Y-118399338D01*
X127606374Y-118401394D01*
X127607054Y-118403679D01*
X127606577Y-118406205D01*
X127531270Y-118670899D01*
X127359674Y-119282637D01*
X127093238Y-120230808D01*
X127066968Y-120320104D01*
X126876597Y-120320104D01*
X126819593Y-120319957D01*
X126774965Y-120319393D01*
X126741148Y-120318227D01*
X126727804Y-120317362D01*
X126716577Y-120316277D01*
X126707269Y-120314951D01*
X126699687Y-120313359D01*
X126693633Y-120311479D01*
X126688912Y-120309288D01*
X126685329Y-120306762D01*
X126682688Y-120303880D01*
X126680793Y-120300618D01*
X126679448Y-120296953D01*
X126552143Y-119679010D01*
X126409580Y-118964115D01*
X126385180Y-118831823D01*
X126361373Y-118964115D01*
X126238846Y-119580987D01*
X126101886Y-120250651D01*
X126086937Y-120320104D01*
X125902410Y-120320104D01*
X125850005Y-120319928D01*
X125808021Y-120319316D01*
X125775299Y-120318143D01*
X125750678Y-120316287D01*
X125741043Y-120315064D01*
X125732998Y-120313624D01*
X125726397Y-120311950D01*
X125721097Y-120310028D01*
X125716951Y-120307842D01*
X125713816Y-120305377D01*
X125711545Y-120302616D01*
X125709993Y-120299546D01*
X125626142Y-120008354D01*
X125435624Y-119337124D01*
X125169143Y-118395262D01*
X125373027Y-118391609D01*
X125452744Y-118390743D01*
X125519075Y-118391084D01*
X125545060Y-118391674D01*
X125565103Y-118392524D01*
X125578340Y-118393621D01*
X125582137Y-118394258D01*
X125583907Y-118394952D01*
X125597204Y-118441191D01*
X125625915Y-118558145D01*
X125710723Y-118921825D01*
X125800618Y-119321256D01*
X125857884Y-119591699D01*
X125871174Y-119661050D01*
X125882664Y-119718449D01*
X125891124Y-119757929D01*
X125893835Y-119769086D01*
X125895327Y-119773526D01*
X125895573Y-119773512D01*
X125895894Y-119773062D01*
X125896749Y-119770895D01*
X125897875Y-119767109D01*
X125899255Y-119761789D01*
X125902707Y-119746882D01*
X125906965Y-119726850D01*
X125911891Y-119702367D01*
X125917344Y-119674108D01*
X125923186Y-119642749D01*
X125929278Y-119608963D01*
X125980318Y-119336392D01*
X126061025Y-118917814D01*
X126162856Y-118395262D01*
X126375833Y-118391634D01*
X126445846Y-118390506D01*
X126498637Y-118390035D01*
X126536748Y-118390525D01*
X126551094Y-118391226D01*
X126562724Y-118392282D01*
X126571957Y-118393732D01*
X126579109Y-118395612D01*
X126584499Y-118397962D01*
X126588445Y-118400820D01*
X126591265Y-118404224D01*
X126593277Y-118408212D01*
X126596149Y-118418092D01*
X126726982Y-119038226D01*
X126858021Y-119675486D01*
X126861481Y-119693276D01*
X126865061Y-119709469D01*
X126868658Y-119723740D01*
X126872168Y-119735763D01*
X126875488Y-119745212D01*
X126877044Y-119748869D01*
X126878514Y-119751761D01*
X126879884Y-119753847D01*
X126881142Y-119755086D01*
X126881725Y-119755376D01*
X126882275Y-119755438D01*
X126882791Y-119755268D01*
X126883270Y-119754861D01*
X126884299Y-119753236D01*
X126885534Y-119750512D01*
X126886957Y-119746752D01*
X126888553Y-119742018D01*
X126892197Y-119729882D01*
X126896334Y-119714608D01*
X126900833Y-119696698D01*
X126905564Y-119676656D01*
X126910396Y-119654985D01*
X126915197Y-119632188D01*
X127059205Y-118995488D01*
X127195314Y-118411797D01*
X127195940Y-118409904D01*
X127196686Y-118408116D01*
X127197578Y-118406429D01*
X127198643Y-118404842D01*
X127199908Y-118403350D01*
X127200624Y-118402639D01*
X127201400Y-118401951D01*
X127202239Y-118401286D01*
X127203145Y-118400643D01*
X127204121Y-118400021D01*
X127205171Y-118399421D01*
X127207504Y-118398284D01*
X127210171Y-118397228D01*
X127213199Y-118396250D01*
X127216616Y-118395348D01*
X127220446Y-118394519D01*
X127224719Y-118393759D01*
X127229459Y-118393066D01*
X127234695Y-118392436D01*
X127240453Y-118391867D01*
X127246761Y-118391357D01*
X127253643Y-118390901D01*
X127261129Y-118390497D01*
X127269244Y-118390142D01*
X127278016Y-118389834D01*
X127287470Y-118389569D01*
X127297635Y-118389344D01*
X127320202Y-118389004D01*
X127345932Y-118388789D01*
X127375039Y-118388678D01*
X127407739Y-118388646D01*
X127463994Y-118388821D01*
G37*
G36*
X133206417Y-118339462D02*
G01*
X133245296Y-118341158D01*
X133281977Y-118343500D01*
X133316651Y-118346544D01*
X133349511Y-118350348D01*
X133380749Y-118354966D01*
X133410556Y-118360456D01*
X133439126Y-118366872D01*
X133466649Y-118374272D01*
X133493317Y-118382711D01*
X133519324Y-118392246D01*
X133544861Y-118402932D01*
X133570119Y-118414826D01*
X133595291Y-118427984D01*
X133620569Y-118442462D01*
X133646145Y-118458316D01*
X133672210Y-118475602D01*
X133696041Y-118492570D01*
X133718552Y-118510020D01*
X133739768Y-118527989D01*
X133759713Y-118546511D01*
X133778412Y-118565623D01*
X133795888Y-118585361D01*
X133812166Y-118605760D01*
X133827271Y-118626856D01*
X133841226Y-118648685D01*
X133854055Y-118671283D01*
X133865784Y-118694686D01*
X133876436Y-118718929D01*
X133886035Y-118744048D01*
X133894606Y-118770080D01*
X133902173Y-118797059D01*
X133908760Y-118825022D01*
X133922985Y-118891355D01*
X134014494Y-118891355D01*
X134106002Y-118891355D01*
X134106002Y-118699531D01*
X134106002Y-118507709D01*
X134291211Y-118507709D01*
X134476419Y-118507709D01*
X134476419Y-118699743D01*
X134476419Y-118891778D01*
X134773080Y-118882886D01*
X135069741Y-118873994D01*
X135074044Y-119375461D01*
X135077043Y-119663532D01*
X135078993Y-119754764D01*
X135081766Y-119819173D01*
X135085757Y-119863044D01*
X135091356Y-119892659D01*
X135098956Y-119914306D01*
X135108950Y-119934266D01*
X135116961Y-119947790D01*
X135126007Y-119960371D01*
X135136020Y-119972012D01*
X135146934Y-119982717D01*
X135158681Y-119992488D01*
X135171192Y-120001328D01*
X135184401Y-120009242D01*
X135198239Y-120016230D01*
X135212639Y-120022298D01*
X135227534Y-120027447D01*
X135242855Y-120031681D01*
X135258536Y-120035003D01*
X135274507Y-120037416D01*
X135290703Y-120038922D01*
X135307054Y-120039526D01*
X135323494Y-120039230D01*
X135339955Y-120038037D01*
X135356369Y-120035950D01*
X135372669Y-120032973D01*
X135388786Y-120029108D01*
X135404653Y-120024358D01*
X135420203Y-120018727D01*
X135435368Y-120012218D01*
X135450081Y-120004833D01*
X135464272Y-119996575D01*
X135477876Y-119987449D01*
X135490824Y-119977456D01*
X135503049Y-119966600D01*
X135514483Y-119954884D01*
X135525058Y-119942311D01*
X135534707Y-119928884D01*
X135543362Y-119914606D01*
X135552207Y-119897751D01*
X135560118Y-119880550D01*
X135567146Y-119862472D01*
X135573341Y-119842991D01*
X135578753Y-119821578D01*
X135583431Y-119797705D01*
X135587426Y-119770842D01*
X135590788Y-119740463D01*
X135593567Y-119706039D01*
X135595813Y-119667041D01*
X135597576Y-119622941D01*
X135597915Y-119610244D01*
X136361331Y-119610244D01*
X136361950Y-119641892D01*
X136363979Y-119673624D01*
X136367367Y-119705207D01*
X136372062Y-119736406D01*
X136378014Y-119766986D01*
X136385171Y-119796713D01*
X136393483Y-119825351D01*
X136402899Y-119852666D01*
X136413368Y-119878425D01*
X136424838Y-119902391D01*
X136437258Y-119924330D01*
X136450578Y-119944008D01*
X136464747Y-119961190D01*
X136471122Y-119967784D01*
X136477877Y-119974118D01*
X136484997Y-119980191D01*
X136492468Y-119985999D01*
X136500273Y-119991539D01*
X136508399Y-119996808D01*
X136525550Y-120006519D01*
X136543800Y-120015106D01*
X136563028Y-120022544D01*
X136583112Y-120028808D01*
X136603932Y-120033872D01*
X136625367Y-120037711D01*
X136647295Y-120040299D01*
X136669597Y-120041610D01*
X136692150Y-120041620D01*
X136714833Y-120040302D01*
X136737527Y-120037632D01*
X136760109Y-120033583D01*
X136782460Y-120028131D01*
X136782461Y-120028131D01*
X136789040Y-120026131D01*
X136795644Y-120023784D01*
X136802264Y-120021097D01*
X136808892Y-120018081D01*
X136822138Y-120011094D01*
X136835315Y-120002892D01*
X136848358Y-119993546D01*
X136861199Y-119983127D01*
X136873772Y-119971705D01*
X136886011Y-119959352D01*
X136897848Y-119946137D01*
X136909218Y-119932132D01*
X136920055Y-119917407D01*
X136930291Y-119902032D01*
X136939859Y-119886079D01*
X136948695Y-119869617D01*
X136956730Y-119852718D01*
X136963899Y-119835452D01*
X136970854Y-119815162D01*
X136976980Y-119792744D01*
X136982269Y-119768500D01*
X136986716Y-119742732D01*
X136990316Y-119715744D01*
X136993060Y-119687836D01*
X136994945Y-119659312D01*
X136995963Y-119630475D01*
X136996108Y-119601626D01*
X136995374Y-119573069D01*
X136993756Y-119545106D01*
X136991247Y-119518039D01*
X136987841Y-119492171D01*
X136983531Y-119467804D01*
X136978312Y-119445241D01*
X136972178Y-119424784D01*
X136965956Y-119407575D01*
X136959253Y-119390956D01*
X136952081Y-119374935D01*
X136944451Y-119359517D01*
X136936375Y-119344710D01*
X136927864Y-119330520D01*
X136918929Y-119316954D01*
X136909583Y-119304019D01*
X136899835Y-119291722D01*
X136889698Y-119280069D01*
X136879183Y-119269066D01*
X136868302Y-119258722D01*
X136857065Y-119249041D01*
X136845485Y-119240032D01*
X136833573Y-119231700D01*
X136821339Y-119224054D01*
X136808796Y-119217098D01*
X136795955Y-119210840D01*
X136782827Y-119205287D01*
X136769423Y-119200445D01*
X136755756Y-119196322D01*
X136741836Y-119192923D01*
X136727675Y-119190256D01*
X136713285Y-119188327D01*
X136698676Y-119187144D01*
X136683860Y-119186711D01*
X136668848Y-119187038D01*
X136653652Y-119188129D01*
X136638284Y-119189993D01*
X136622754Y-119192634D01*
X136607075Y-119196062D01*
X136591256Y-119200281D01*
X136579920Y-119203815D01*
X136568882Y-119207740D01*
X136558139Y-119212058D01*
X136547690Y-119216772D01*
X136537535Y-119221884D01*
X136527670Y-119227396D01*
X136518095Y-119233309D01*
X136508808Y-119239628D01*
X136499808Y-119246352D01*
X136491093Y-119253485D01*
X136482662Y-119261029D01*
X136474513Y-119268986D01*
X136466644Y-119277358D01*
X136459055Y-119286147D01*
X136451743Y-119295355D01*
X136444707Y-119304986D01*
X136437946Y-119315039D01*
X136431458Y-119325519D01*
X136425241Y-119336426D01*
X136419294Y-119347764D01*
X136413616Y-119359534D01*
X136408205Y-119371739D01*
X136403059Y-119384380D01*
X136398177Y-119397461D01*
X136389199Y-119424946D01*
X136381259Y-119454212D01*
X136374344Y-119485277D01*
X136368443Y-119518158D01*
X136364527Y-119548143D01*
X136362173Y-119578916D01*
X136361331Y-119610244D01*
X135597915Y-119610244D01*
X135598906Y-119573211D01*
X135599853Y-119517322D01*
X135600468Y-119454747D01*
X135600900Y-119307423D01*
X135600900Y-118891356D01*
X135792723Y-118891356D01*
X135984546Y-118891356D01*
X135985630Y-119179090D01*
X135986565Y-119343345D01*
X135987481Y-119390970D01*
X135989007Y-119418599D01*
X135990071Y-119425618D01*
X135991377Y-119428484D01*
X135992128Y-119428447D01*
X135992951Y-119427477D01*
X135994824Y-119422880D01*
X135999584Y-119404041D01*
X136005888Y-119374221D01*
X136010893Y-119352266D01*
X136016905Y-119329740D01*
X136023857Y-119306786D01*
X136031676Y-119283551D01*
X136040295Y-119260182D01*
X136049642Y-119236823D01*
X136059648Y-119213621D01*
X136070243Y-119190722D01*
X136081358Y-119168272D01*
X136092921Y-119146417D01*
X136104864Y-119125302D01*
X136117117Y-119105073D01*
X136129609Y-119085878D01*
X136142272Y-119067860D01*
X136155034Y-119051167D01*
X136167826Y-119035945D01*
X136187086Y-119015406D01*
X136207350Y-118996107D01*
X136228551Y-118978049D01*
X136250618Y-118961236D01*
X136273480Y-118945669D01*
X136297070Y-118931352D01*
X136321316Y-118918288D01*
X136346148Y-118906479D01*
X136371498Y-118895927D01*
X136397295Y-118886635D01*
X136423469Y-118878607D01*
X136449951Y-118871844D01*
X136476671Y-118866350D01*
X136503558Y-118862127D01*
X136530544Y-118859178D01*
X136557558Y-118857504D01*
X136584530Y-118857110D01*
X136611392Y-118857998D01*
X136638072Y-118860170D01*
X136664501Y-118863630D01*
X136690609Y-118868379D01*
X136716327Y-118874420D01*
X136741585Y-118881757D01*
X136766312Y-118890391D01*
X136790439Y-118900326D01*
X136813897Y-118911564D01*
X136836615Y-118924107D01*
X136858524Y-118937960D01*
X136879553Y-118953123D01*
X136899634Y-118969600D01*
X136918695Y-118987394D01*
X136936668Y-119006507D01*
X136989962Y-119067060D01*
X136989962Y-118734469D01*
X136989962Y-118401877D01*
X137181785Y-118401877D01*
X137373608Y-118401877D01*
X137373608Y-119360991D01*
X137373608Y-120320106D01*
X137188400Y-120320106D01*
X137003192Y-120320106D01*
X137003192Y-120227042D01*
X137003192Y-120133977D01*
X136960197Y-120183910D01*
X136941106Y-120205389D01*
X136922252Y-120225156D01*
X136903512Y-120243272D01*
X136884762Y-120259798D01*
X136865880Y-120274796D01*
X136846743Y-120288326D01*
X136827228Y-120300450D01*
X136807213Y-120311230D01*
X136786573Y-120320727D01*
X136765187Y-120329002D01*
X136742931Y-120336116D01*
X136719682Y-120342131D01*
X136695318Y-120347107D01*
X136669715Y-120351107D01*
X136642751Y-120354192D01*
X136614303Y-120356422D01*
X136587276Y-120357515D01*
X136560584Y-120357413D01*
X136534244Y-120356128D01*
X136508275Y-120353677D01*
X136482694Y-120350074D01*
X136457522Y-120345333D01*
X136432774Y-120339468D01*
X136408471Y-120332495D01*
X136384629Y-120324427D01*
X136361267Y-120315280D01*
X136338404Y-120305067D01*
X136316057Y-120293804D01*
X136294245Y-120281505D01*
X136272986Y-120268184D01*
X136252298Y-120253857D01*
X136232200Y-120238537D01*
X136212709Y-120222239D01*
X136193843Y-120204978D01*
X136175622Y-120186768D01*
X136158063Y-120167623D01*
X136141185Y-120147559D01*
X136125005Y-120126590D01*
X136109542Y-120104730D01*
X136094814Y-120081995D01*
X136080839Y-120058397D01*
X136067635Y-120033953D01*
X136055222Y-120008676D01*
X136043616Y-119982581D01*
X136032836Y-119955683D01*
X136022901Y-119927996D01*
X136013828Y-119899535D01*
X136005636Y-119870314D01*
X135999440Y-119847386D01*
X135996903Y-119839193D01*
X135995760Y-119836027D01*
X135994697Y-119833524D01*
X135993707Y-119831715D01*
X135992789Y-119830633D01*
X135992355Y-119830375D01*
X135991937Y-119830310D01*
X135991535Y-119830443D01*
X135991148Y-119830778D01*
X135990417Y-119832069D01*
X135989740Y-119834214D01*
X135989114Y-119837247D01*
X135988534Y-119841198D01*
X135987497Y-119851985D01*
X135986597Y-119866833D01*
X135985802Y-119885996D01*
X135985079Y-119909732D01*
X135983720Y-119971945D01*
X135982261Y-120055522D01*
X135977931Y-120313491D01*
X135796029Y-120317172D01*
X135614129Y-120320852D01*
X135614129Y-120223818D01*
X135614129Y-120126785D01*
X135544366Y-120194355D01*
X135536918Y-120201407D01*
X135529008Y-120208590D01*
X135512083Y-120223148D01*
X135494147Y-120237619D01*
X135475756Y-120251594D01*
X135457466Y-120264661D01*
X135439834Y-120276412D01*
X135431438Y-120281665D01*
X135423416Y-120286436D01*
X135415835Y-120290672D01*
X135408767Y-120294322D01*
X135398047Y-120299488D01*
X135387932Y-120304080D01*
X135378188Y-120308132D01*
X135368576Y-120311677D01*
X135358861Y-120314748D01*
X135348807Y-120317378D01*
X135338177Y-120319600D01*
X135326734Y-120321448D01*
X135314242Y-120322954D01*
X135300465Y-120324152D01*
X135285166Y-120325075D01*
X135268108Y-120325755D01*
X135249056Y-120326227D01*
X135227772Y-120326523D01*
X135177566Y-120326720D01*
X135126800Y-120326526D01*
X135086106Y-120325748D01*
X135068896Y-120325046D01*
X135053435Y-120324088D01*
X135039465Y-120322834D01*
X135026731Y-120321249D01*
X135014977Y-120319296D01*
X135003945Y-120316936D01*
X134993379Y-120314134D01*
X134983022Y-120310852D01*
X134972619Y-120307053D01*
X134961911Y-120302699D01*
X134938560Y-120292182D01*
X134912704Y-120279193D01*
X134900439Y-120272350D01*
X134888605Y-120265259D01*
X134877197Y-120257907D01*
X134866205Y-120250284D01*
X134855623Y-120242377D01*
X134845443Y-120234175D01*
X134835657Y-120225665D01*
X134826259Y-120216835D01*
X134817241Y-120207675D01*
X134808594Y-120198172D01*
X134800313Y-120188314D01*
X134792388Y-120178089D01*
X134784814Y-120167486D01*
X134777582Y-120156493D01*
X134770684Y-120145098D01*
X134764114Y-120133288D01*
X134757864Y-120121053D01*
X134751927Y-120108380D01*
X134746294Y-120095258D01*
X134740959Y-120081675D01*
X134735913Y-120067618D01*
X134731151Y-120053076D01*
X134722443Y-120022491D01*
X134714776Y-119989823D01*
X134708090Y-119954979D01*
X134702325Y-119917863D01*
X134699464Y-119890555D01*
X134696796Y-119852045D01*
X134694378Y-119804110D01*
X134692268Y-119748523D01*
X134690526Y-119687059D01*
X134689209Y-119621492D01*
X134688376Y-119553599D01*
X134688086Y-119485153D01*
X134688086Y-119154826D01*
X134585560Y-119158689D01*
X134483033Y-119162553D01*
X134483033Y-119588547D01*
X134483842Y-119794658D01*
X134484948Y-119869769D01*
X134486604Y-119928437D01*
X134488875Y-119972303D01*
X134491822Y-120003006D01*
X134495508Y-120022188D01*
X134497648Y-120027971D01*
X134499997Y-120031488D01*
X134501019Y-120032392D01*
X134502270Y-120033294D01*
X134505436Y-120035085D01*
X134509445Y-120036853D01*
X134514247Y-120038588D01*
X134519793Y-120040280D01*
X134526034Y-120041921D01*
X134532919Y-120043501D01*
X134540400Y-120045010D01*
X134548428Y-120046440D01*
X134556951Y-120047780D01*
X134565922Y-120049022D01*
X134575290Y-120050156D01*
X134585007Y-120051172D01*
X134595022Y-120052062D01*
X134605287Y-120052816D01*
X134615751Y-120053424D01*
X134714544Y-120058413D01*
X134714544Y-120194921D01*
X134714544Y-120331430D01*
X134639497Y-120340806D01*
X134621982Y-120342532D01*
X134600925Y-120343836D01*
X134577125Y-120344712D01*
X134551380Y-120345153D01*
X134524488Y-120345153D01*
X134497246Y-120344705D01*
X134470454Y-120343802D01*
X134444909Y-120342438D01*
X134416853Y-120340172D01*
X134390128Y-120337093D01*
X134364730Y-120333200D01*
X134340656Y-120328492D01*
X134317901Y-120322965D01*
X134296462Y-120316619D01*
X134276333Y-120309451D01*
X134257512Y-120301460D01*
X134239993Y-120292643D01*
X134223774Y-120282999D01*
X134208849Y-120272526D01*
X134195215Y-120261222D01*
X134182868Y-120249085D01*
X134171803Y-120236112D01*
X134162018Y-120222304D01*
X134153506Y-120207656D01*
X134148845Y-120198375D01*
X134146721Y-120193741D01*
X134144728Y-120188997D01*
X134142861Y-120184057D01*
X134141115Y-120178835D01*
X134139485Y-120173245D01*
X134137966Y-120167201D01*
X134136553Y-120160617D01*
X134135241Y-120153408D01*
X134134024Y-120145487D01*
X134132899Y-120136768D01*
X134131860Y-120127165D01*
X134130902Y-120116593D01*
X134129208Y-120092195D01*
X134127779Y-120062888D01*
X134126573Y-120027984D01*
X134125552Y-119986793D01*
X134124674Y-119938630D01*
X134123901Y-119882807D01*
X134123191Y-119818635D01*
X134121804Y-119662496D01*
X134117762Y-119170254D01*
X134015971Y-119166403D01*
X133914180Y-119162553D01*
X133910315Y-119060027D01*
X133906453Y-118957501D01*
X133724543Y-118957501D01*
X133542636Y-118957501D01*
X133525892Y-118894902D01*
X133521148Y-118878659D01*
X133515782Y-118863108D01*
X133509778Y-118848233D01*
X133503121Y-118834013D01*
X133495795Y-118820431D01*
X133487784Y-118807468D01*
X133479074Y-118795106D01*
X133469647Y-118783327D01*
X133459489Y-118772112D01*
X133448583Y-118761442D01*
X133436915Y-118751300D01*
X133424468Y-118741667D01*
X133411228Y-118732524D01*
X133397177Y-118723854D01*
X133382300Y-118715637D01*
X133366583Y-118707856D01*
X133354564Y-118702317D01*
X133343335Y-118697392D01*
X133332668Y-118693045D01*
X133322331Y-118689241D01*
X133312095Y-118685945D01*
X133301729Y-118683122D01*
X133291003Y-118680735D01*
X133279686Y-118678749D01*
X133267549Y-118677130D01*
X133254361Y-118675842D01*
X133239892Y-118674848D01*
X133223911Y-118674115D01*
X133206189Y-118673606D01*
X133186496Y-118673287D01*
X133140272Y-118673073D01*
X133091693Y-118673226D01*
X133053558Y-118673959D01*
X133037695Y-118674673D01*
X133023588Y-118675687D01*
X133010953Y-118677054D01*
X132999503Y-118678825D01*
X132988955Y-118681051D01*
X132979023Y-118683786D01*
X132969422Y-118687080D01*
X132959868Y-118690986D01*
X132950074Y-118695554D01*
X132939757Y-118700838D01*
X132916410Y-118713757D01*
X132900049Y-118723472D01*
X132885017Y-118733317D01*
X132871292Y-118743335D01*
X132858847Y-118753569D01*
X132853097Y-118758780D01*
X132847657Y-118764061D01*
X132842525Y-118769416D01*
X132837698Y-118774851D01*
X132833171Y-118780372D01*
X132828943Y-118785984D01*
X132825010Y-118791692D01*
X132821369Y-118797501D01*
X132818016Y-118803416D01*
X132814949Y-118809443D01*
X132812164Y-118815587D01*
X132809659Y-118821854D01*
X132807429Y-118828248D01*
X132805473Y-118834775D01*
X132803786Y-118841440D01*
X132802367Y-118848248D01*
X132801210Y-118855205D01*
X132800314Y-118862316D01*
X132799676Y-118869587D01*
X132799291Y-118877021D01*
X132799158Y-118884626D01*
X132799272Y-118892405D01*
X132800232Y-118908510D01*
X132801991Y-118923066D01*
X132804681Y-118936998D01*
X132806378Y-118943733D01*
X132808313Y-118950319D01*
X132810488Y-118956755D01*
X132812903Y-118963045D01*
X132815561Y-118969190D01*
X132818463Y-118975192D01*
X132821611Y-118981053D01*
X132825007Y-118986775D01*
X132828652Y-118992361D01*
X132832548Y-118997810D01*
X132836698Y-119003127D01*
X132841101Y-119008312D01*
X132845762Y-119013368D01*
X132850680Y-119018297D01*
X132855858Y-119023100D01*
X132861297Y-119027779D01*
X132872966Y-119036775D01*
X132885702Y-119045300D01*
X132899517Y-119053368D01*
X132914426Y-119060997D01*
X132930442Y-119068201D01*
X132947578Y-119074995D01*
X132966440Y-119081259D01*
X132994476Y-119089518D01*
X133030325Y-119099418D01*
X133072629Y-119110605D01*
X133171156Y-119135429D01*
X133279176Y-119161162D01*
X133387099Y-119186746D01*
X133478610Y-119209915D01*
X133555652Y-119231326D01*
X133620167Y-119251640D01*
X133674100Y-119271516D01*
X133697704Y-119281496D01*
X133719392Y-119291613D01*
X133739405Y-119301950D01*
X133757986Y-119312590D01*
X133775380Y-119323615D01*
X133791827Y-119335107D01*
X133816783Y-119354366D01*
X133828491Y-119364190D01*
X133839692Y-119374161D01*
X133850394Y-119384294D01*
X133860601Y-119394602D01*
X133870319Y-119405099D01*
X133879554Y-119415799D01*
X133888311Y-119426716D01*
X133896597Y-119437864D01*
X133904417Y-119449257D01*
X133911777Y-119460907D01*
X133918682Y-119472830D01*
X133925138Y-119485039D01*
X133931151Y-119497548D01*
X133936727Y-119510371D01*
X133941871Y-119523522D01*
X133946589Y-119537013D01*
X133950887Y-119550860D01*
X133954770Y-119565077D01*
X133958244Y-119579676D01*
X133961315Y-119594672D01*
X133963989Y-119610078D01*
X133966271Y-119625910D01*
X133969682Y-119658901D01*
X133971596Y-119693756D01*
X133972056Y-119730586D01*
X133971110Y-119769502D01*
X133969232Y-119808462D01*
X133966889Y-119841205D01*
X133965456Y-119855667D01*
X133963805Y-119869082D01*
X133961899Y-119881617D01*
X133959704Y-119893443D01*
X133957187Y-119904728D01*
X133954312Y-119915640D01*
X133951045Y-119926350D01*
X133947353Y-119937025D01*
X133943199Y-119947835D01*
X133938551Y-119958948D01*
X133927630Y-119982762D01*
X133919840Y-119998303D01*
X133911456Y-120013650D01*
X133892963Y-120043716D01*
X133872278Y-120072867D01*
X133849527Y-120101012D01*
X133824834Y-120128057D01*
X133798324Y-120153911D01*
X133770125Y-120178480D01*
X133740360Y-120201673D01*
X133709155Y-120223396D01*
X133676636Y-120243559D01*
X133642928Y-120262068D01*
X133608157Y-120278830D01*
X133572447Y-120293754D01*
X133535925Y-120306747D01*
X133498716Y-120317717D01*
X133460945Y-120326570D01*
X133419638Y-120333776D01*
X133371590Y-120340113D01*
X133319164Y-120345430D01*
X133264726Y-120349575D01*
X133210639Y-120352396D01*
X133159267Y-120353742D01*
X133112974Y-120353461D01*
X133074125Y-120351400D01*
X133074128Y-120351400D01*
X133038569Y-120347640D01*
X133002857Y-120342590D01*
X132967153Y-120336309D01*
X132931614Y-120328854D01*
X132896402Y-120320284D01*
X132861675Y-120310657D01*
X132827592Y-120300032D01*
X132794312Y-120288467D01*
X132761995Y-120276020D01*
X132730801Y-120262750D01*
X132700888Y-120248715D01*
X132672416Y-120233973D01*
X132645544Y-120218582D01*
X132620431Y-120202601D01*
X132597237Y-120186088D01*
X132576121Y-120169101D01*
X132556656Y-120151451D01*
X132538013Y-120132672D01*
X132520218Y-120112818D01*
X132503298Y-120091941D01*
X132487280Y-120070096D01*
X132472192Y-120047335D01*
X132458060Y-120023711D01*
X132444912Y-119999277D01*
X132432774Y-119974086D01*
X132421674Y-119948191D01*
X132411638Y-119921646D01*
X132402694Y-119894503D01*
X132394869Y-119866816D01*
X132388189Y-119838637D01*
X132382682Y-119810020D01*
X132378375Y-119781017D01*
X132369572Y-119711563D01*
X132574639Y-119711563D01*
X132779704Y-119711563D01*
X132788360Y-119765695D01*
X132792499Y-119787503D01*
X132797800Y-119808436D01*
X132804268Y-119828496D01*
X132811905Y-119847685D01*
X132820713Y-119866008D01*
X132830695Y-119883468D01*
X132841854Y-119900066D01*
X132854192Y-119915808D01*
X132867712Y-119930694D01*
X132882416Y-119944730D01*
X132898308Y-119957917D01*
X132915389Y-119970259D01*
X132933662Y-119981759D01*
X132953130Y-119992420D01*
X132973796Y-120002245D01*
X132995662Y-120011238D01*
X133014694Y-120017378D01*
X133036920Y-120022605D01*
X133061894Y-120026926D01*
X133089172Y-120030348D01*
X133118307Y-120032879D01*
X133148855Y-120034525D01*
X133180370Y-120035295D01*
X133212407Y-120035196D01*
X133244521Y-120034234D01*
X133276267Y-120032418D01*
X133307199Y-120029755D01*
X133336873Y-120026252D01*
X133364842Y-120021916D01*
X133390662Y-120016755D01*
X133413887Y-120010777D01*
X133434072Y-120003987D01*
X133445531Y-119999286D01*
X133456638Y-119994227D01*
X133467387Y-119988822D01*
X133477770Y-119983082D01*
X133487780Y-119977020D01*
X133497411Y-119970649D01*
X133506655Y-119963981D01*
X133515504Y-119957027D01*
X133523953Y-119949799D01*
X133531993Y-119942311D01*
X133539617Y-119934574D01*
X133546819Y-119926601D01*
X133553591Y-119918403D01*
X133559925Y-119909993D01*
X133565816Y-119901383D01*
X133571256Y-119892585D01*
X133576237Y-119883611D01*
X133580752Y-119874474D01*
X133584795Y-119865186D01*
X133588358Y-119855758D01*
X133591434Y-119846204D01*
X133594016Y-119836535D01*
X133596096Y-119826763D01*
X133597669Y-119816901D01*
X133598725Y-119806961D01*
X133599259Y-119796954D01*
X133599263Y-119786894D01*
X133598730Y-119776792D01*
X133597653Y-119766661D01*
X133596025Y-119756513D01*
X133593838Y-119746359D01*
X133591085Y-119736212D01*
X133588041Y-119726807D01*
X133584625Y-119717743D01*
X133580801Y-119709003D01*
X133576532Y-119700570D01*
X133571782Y-119692426D01*
X133566515Y-119684555D01*
X133560692Y-119676939D01*
X133554279Y-119669562D01*
X133547239Y-119662406D01*
X133539534Y-119655455D01*
X133531130Y-119648690D01*
X133521988Y-119642096D01*
X133512072Y-119635654D01*
X133501346Y-119629349D01*
X133489774Y-119623162D01*
X133477319Y-119617076D01*
X133463943Y-119611076D01*
X133449612Y-119605142D01*
X133434287Y-119599259D01*
X133417934Y-119593410D01*
X133400514Y-119587576D01*
X133381992Y-119581742D01*
X133362331Y-119575889D01*
X133341494Y-119570001D01*
X133296149Y-119558052D01*
X133245662Y-119545757D01*
X133189743Y-119532980D01*
X133128099Y-119519583D01*
X132978327Y-119485630D01*
X132912952Y-119468967D01*
X132853450Y-119452275D01*
X132799467Y-119435375D01*
X132750652Y-119418087D01*
X132706652Y-119400233D01*
X132667116Y-119381634D01*
X132631692Y-119362110D01*
X132600028Y-119341482D01*
X132571771Y-119319572D01*
X132546571Y-119296201D01*
X132524074Y-119271189D01*
X132503928Y-119244358D01*
X132485783Y-119215528D01*
X132469285Y-119184520D01*
X132463223Y-119172012D01*
X132457863Y-119160475D01*
X132453162Y-119149629D01*
X132449077Y-119139194D01*
X132445566Y-119128887D01*
X132442585Y-119118429D01*
X132440092Y-119107537D01*
X132438043Y-119095931D01*
X132436396Y-119083330D01*
X132435108Y-119069452D01*
X132434136Y-119054018D01*
X132433437Y-119036744D01*
X132432968Y-119017352D01*
X132432686Y-118995559D01*
X132432511Y-118943647D01*
X132432621Y-118888937D01*
X132433326Y-118846478D01*
X132434080Y-118828887D01*
X132435194Y-118813213D01*
X132436741Y-118799074D01*
X132438792Y-118786088D01*
X132441416Y-118773873D01*
X132444684Y-118762047D01*
X132448669Y-118750227D01*
X132453439Y-118738033D01*
X132459067Y-118725081D01*
X132465622Y-118710991D01*
X132481800Y-118677865D01*
X132493451Y-118655321D01*
X132505739Y-118633583D01*
X132518671Y-118612648D01*
X132532255Y-118592511D01*
X132546497Y-118573171D01*
X132561405Y-118554622D01*
X132576986Y-118536863D01*
X132593248Y-118519890D01*
X132610197Y-118503699D01*
X132627841Y-118488286D01*
X132646187Y-118473650D01*
X132665243Y-118459785D01*
X132685015Y-118446690D01*
X132705510Y-118434359D01*
X132726737Y-118422791D01*
X132748701Y-118411982D01*
X132771411Y-118401928D01*
X132794874Y-118392626D01*
X132819096Y-118384072D01*
X132844086Y-118376264D01*
X132869849Y-118369197D01*
X132896395Y-118362869D01*
X132923729Y-118357276D01*
X132951858Y-118352415D01*
X132980791Y-118348282D01*
X133010535Y-118344874D01*
X133041096Y-118342188D01*
X133072482Y-118340220D01*
X133104699Y-118338967D01*
X133137757Y-118338425D01*
X133206417Y-118339462D01*
G37*
D11*
X120461730Y-129028861D02*
X120394387Y-129028861D01*
X120394387Y-129028861D02*
X120259700Y-128961517D01*
X120259700Y-128961517D02*
X120192356Y-128894174D01*
X120192356Y-128894174D02*
X120125013Y-128759487D01*
X120125013Y-128759487D02*
X120125013Y-128624800D01*
X120125013Y-128624800D02*
X120158684Y-128523784D01*
X120158684Y-128523784D02*
X120259700Y-128355426D01*
X120259700Y-128355426D02*
X120360715Y-128254410D01*
X120360715Y-128254410D02*
X120529074Y-128153395D01*
X120529074Y-128153395D02*
X120630089Y-128119723D01*
X120630089Y-128119723D02*
X120764776Y-128119723D01*
X120764776Y-128119723D02*
X120899463Y-128187067D01*
X120899463Y-128187067D02*
X120966806Y-128254410D01*
X120966806Y-128254410D02*
X121034150Y-128389097D01*
X121034150Y-128389097D02*
X121034150Y-128456441D01*
X120798448Y-129500265D02*
X120764776Y-129399250D01*
X120764776Y-129399250D02*
X120764776Y-129331907D01*
X120764776Y-129331907D02*
X120798448Y-129230891D01*
X120798448Y-129230891D02*
X121000478Y-129028861D01*
X121000478Y-129028861D02*
X121101493Y-128995189D01*
X121101493Y-128995189D02*
X121168837Y-128995189D01*
X121168837Y-128995189D02*
X121269852Y-129028861D01*
X121269852Y-129028861D02*
X121370867Y-129129876D01*
X121370867Y-129129876D02*
X121404539Y-129230891D01*
X121404539Y-129230891D02*
X121404539Y-129298235D01*
X121404539Y-129298235D02*
X121370867Y-129399250D01*
X121370867Y-129399250D02*
X121168837Y-129601281D01*
X121168837Y-129601281D02*
X121067822Y-129634952D01*
X121067822Y-129634952D02*
X121000478Y-129634952D01*
X121000478Y-129634952D02*
X120899463Y-129601281D01*
X120899463Y-129601281D02*
X120798448Y-129500265D01*
X121741257Y-129500265D02*
X121438211Y-130140029D01*
X121438211Y-130140029D02*
X122077974Y-129836983D01*
X122178990Y-130813464D02*
X122077974Y-130779792D01*
X122077974Y-130779792D02*
X121943287Y-130645105D01*
X121943287Y-130645105D02*
X121909616Y-130544090D01*
X121909616Y-130544090D02*
X121943287Y-130443075D01*
X121943287Y-130443075D02*
X122212661Y-130173701D01*
X122212661Y-130173701D02*
X122313677Y-130140029D01*
X122313677Y-130140029D02*
X122414692Y-130173701D01*
X122414692Y-130173701D02*
X122549379Y-130308388D01*
X122549379Y-130308388D02*
X122583051Y-130409403D01*
X122583051Y-130409403D02*
X122549379Y-130510418D01*
X122549379Y-130510418D02*
X122482035Y-130577762D01*
X122482035Y-130577762D02*
X122077974Y-130308388D01*
X122482035Y-131183853D02*
X122953440Y-130712449D01*
X122818753Y-130847136D02*
X122919768Y-130813464D01*
X122919768Y-130813464D02*
X122987112Y-130813464D01*
X122987112Y-130813464D02*
X123088127Y-130847136D01*
X123088127Y-130847136D02*
X123155471Y-130914479D01*
X119222313Y-129258125D02*
X119491687Y-129527499D01*
X119559030Y-129123438D02*
X118952939Y-129729530D01*
X118952939Y-129729530D02*
X118919267Y-129830545D01*
X118919267Y-129830545D02*
X118952939Y-129931560D01*
X118952939Y-129931560D02*
X119020282Y-129998904D01*
X119357000Y-130335622D02*
X119323328Y-130234607D01*
X119323328Y-130234607D02*
X119323328Y-130167263D01*
X119323328Y-130167263D02*
X119357000Y-130066248D01*
X119357000Y-130066248D02*
X119559031Y-129864217D01*
X119559031Y-129864217D02*
X119660046Y-129830546D01*
X119660046Y-129830546D02*
X119727389Y-129830546D01*
X119727389Y-129830546D02*
X119828405Y-129864217D01*
X119828405Y-129864217D02*
X119929420Y-129965233D01*
X119929420Y-129965233D02*
X119963092Y-130066248D01*
X119963092Y-130066248D02*
X119963092Y-130133591D01*
X119963092Y-130133591D02*
X119929420Y-130234607D01*
X119929420Y-130234607D02*
X119727389Y-130436637D01*
X119727389Y-130436637D02*
X119626374Y-130470309D01*
X119626374Y-130470309D02*
X119559031Y-130470309D01*
X119559031Y-130470309D02*
X119458015Y-130436637D01*
X119458015Y-130436637D02*
X119357000Y-130335622D01*
X120535512Y-131514133D02*
X120501840Y-131413118D01*
X120501840Y-131413118D02*
X120535512Y-131312103D01*
X120535512Y-131312103D02*
X121141603Y-130706011D01*
X120804886Y-131783508D02*
X121276291Y-131312103D01*
X121511993Y-131076401D02*
X121444649Y-131076401D01*
X121444649Y-131076401D02*
X121444649Y-131143744D01*
X121444649Y-131143744D02*
X121511993Y-131143744D01*
X121511993Y-131143744D02*
X121511993Y-131076401D01*
X121511993Y-131076401D02*
X121444649Y-131143744D01*
X121916053Y-131951866D02*
X121343634Y-132524286D01*
X121343634Y-132524286D02*
X121242618Y-132557958D01*
X121242618Y-132557958D02*
X121175275Y-132557958D01*
X121175275Y-132557958D02*
X121074260Y-132524286D01*
X121074260Y-132524286D02*
X120973244Y-132423271D01*
X120973244Y-132423271D02*
X120939573Y-132322255D01*
X121478321Y-132389599D02*
X121377305Y-132355927D01*
X121377305Y-132355927D02*
X121242618Y-132221240D01*
X121242618Y-132221240D02*
X121208947Y-132120225D01*
X121208947Y-132120225D02*
X121208947Y-132052881D01*
X121208947Y-132052881D02*
X121242618Y-131951866D01*
X121242618Y-131951866D02*
X121444649Y-131749836D01*
X121444649Y-131749836D02*
X121545664Y-131716164D01*
X121545664Y-131716164D02*
X121613008Y-131716164D01*
X121613008Y-131716164D02*
X121714023Y-131749836D01*
X121714023Y-131749836D02*
X121848710Y-131884523D01*
X121848710Y-131884523D02*
X121882382Y-131985538D01*
X121781367Y-132759988D02*
X122488473Y-132052881D01*
X122084412Y-133063034D02*
X122454802Y-132692645D01*
X122454802Y-132692645D02*
X122488473Y-132591629D01*
X122488473Y-132591629D02*
X122454802Y-132490614D01*
X122454802Y-132490614D02*
X122353786Y-132389599D01*
X122353786Y-132389599D02*
X122252771Y-132355927D01*
X122252771Y-132355927D02*
X122185428Y-132355927D01*
X122791519Y-132827332D02*
X123060893Y-133096706D01*
X123128237Y-132692645D02*
X122522145Y-133298736D01*
X122522145Y-133298736D02*
X122488473Y-133399752D01*
X122488473Y-133399752D02*
X122522145Y-133500767D01*
X122522145Y-133500767D02*
X122589489Y-133568110D01*
X117713522Y-130968947D02*
X118184926Y-130497543D01*
X118117583Y-130564886D02*
X118184926Y-130564886D01*
X118184926Y-130564886D02*
X118285941Y-130598558D01*
X118285941Y-130598558D02*
X118386957Y-130699573D01*
X118386957Y-130699573D02*
X118420628Y-130800588D01*
X118420628Y-130800588D02*
X118386957Y-130901604D01*
X118386957Y-130901604D02*
X118016567Y-131271993D01*
X118386957Y-130901604D02*
X118487972Y-130867932D01*
X118487972Y-130867932D02*
X118588987Y-130901604D01*
X118588987Y-130901604D02*
X118690002Y-131002619D01*
X118690002Y-131002619D02*
X118723674Y-131103634D01*
X118723674Y-131103634D02*
X118690002Y-131204649D01*
X118690002Y-131204649D02*
X118319613Y-131575039D01*
X118959376Y-132147458D02*
X118858361Y-132113787D01*
X118858361Y-132113787D02*
X118723674Y-131979100D01*
X118723674Y-131979100D02*
X118690002Y-131878084D01*
X118690002Y-131878084D02*
X118723674Y-131777069D01*
X118723674Y-131777069D02*
X118993048Y-131507695D01*
X118993048Y-131507695D02*
X119094063Y-131474023D01*
X119094063Y-131474023D02*
X119195078Y-131507695D01*
X119195078Y-131507695D02*
X119329765Y-131642382D01*
X119329765Y-131642382D02*
X119363437Y-131743397D01*
X119363437Y-131743397D02*
X119329765Y-131844413D01*
X119329765Y-131844413D02*
X119262422Y-131911756D01*
X119262422Y-131911756D02*
X118858361Y-131642382D01*
X120575620Y-132888237D02*
X120104216Y-133359642D01*
X120272575Y-132585191D02*
X119902185Y-132955581D01*
X119902185Y-132955581D02*
X119868514Y-133056596D01*
X119868514Y-133056596D02*
X119902185Y-133157611D01*
X119902185Y-133157611D02*
X120003201Y-133258626D01*
X120003201Y-133258626D02*
X120104216Y-133292298D01*
X120104216Y-133292298D02*
X120171559Y-133292298D01*
X120912338Y-133224955D02*
X120205231Y-133932061D01*
X120878666Y-133258626D02*
X120979682Y-133292298D01*
X120979682Y-133292298D02*
X121114369Y-133426985D01*
X121114369Y-133426985D02*
X121148040Y-133528000D01*
X121148040Y-133528000D02*
X121148040Y-133595344D01*
X121148040Y-133595344D02*
X121114369Y-133696359D01*
X121114369Y-133696359D02*
X120912338Y-133898390D01*
X120912338Y-133898390D02*
X120811323Y-133932061D01*
X120811323Y-133932061D02*
X120743979Y-133932061D01*
X120743979Y-133932061D02*
X120642964Y-133898390D01*
X120642964Y-133898390D02*
X120508277Y-133763703D01*
X120508277Y-133763703D02*
X120474605Y-133662687D01*
X121148040Y-134268779D02*
X121148040Y-134336123D01*
X121148040Y-134336123D02*
X121080697Y-134336123D01*
X121080697Y-134336123D02*
X121080697Y-134268779D01*
X121080697Y-134268779D02*
X121148040Y-134268779D01*
X121148040Y-134268779D02*
X121080697Y-134336123D01*
X121350071Y-134066749D02*
X121720460Y-133629016D01*
X121720460Y-133629016D02*
X121787804Y-133629016D01*
X121787804Y-133629016D02*
X121787804Y-133696359D01*
X121787804Y-133696359D02*
X121350071Y-134066749D01*
X121350071Y-134066749D02*
X121787804Y-133629016D01*
D12*
X126418484Y-132230188D02*
X122324335Y-136324336D01*
X116405852Y-130405852D01*
X120500000Y-126311704D01*
X126418484Y-132230188D01*
D13*
X164256905Y-76494819D02*
X164256905Y-75494819D01*
X164256905Y-75494819D02*
X164495000Y-75494819D01*
X164495000Y-75494819D02*
X164637857Y-75542438D01*
X164637857Y-75542438D02*
X164733095Y-75637676D01*
X164733095Y-75637676D02*
X164780714Y-75732914D01*
X164780714Y-75732914D02*
X164828333Y-75923390D01*
X164828333Y-75923390D02*
X164828333Y-76066247D01*
X164828333Y-76066247D02*
X164780714Y-76256723D01*
X164780714Y-76256723D02*
X164733095Y-76351961D01*
X164733095Y-76351961D02*
X164637857Y-76447200D01*
X164637857Y-76447200D02*
X164495000Y-76494819D01*
X164495000Y-76494819D02*
X164256905Y-76494819D01*
X165209286Y-75590057D02*
X165256905Y-75542438D01*
X165256905Y-75542438D02*
X165352143Y-75494819D01*
X165352143Y-75494819D02*
X165590238Y-75494819D01*
X165590238Y-75494819D02*
X165685476Y-75542438D01*
X165685476Y-75542438D02*
X165733095Y-75590057D01*
X165733095Y-75590057D02*
X165780714Y-75685295D01*
X165780714Y-75685295D02*
X165780714Y-75780533D01*
X165780714Y-75780533D02*
X165733095Y-75923390D01*
X165733095Y-75923390D02*
X165161667Y-76494819D01*
X165161667Y-76494819D02*
X165780714Y-76494819D01*
X94266905Y-84414819D02*
X94266905Y-83414819D01*
X94266905Y-83414819D02*
X94505000Y-83414819D01*
X94505000Y-83414819D02*
X94647857Y-83462438D01*
X94647857Y-83462438D02*
X94743095Y-83557676D01*
X94743095Y-83557676D02*
X94790714Y-83652914D01*
X94790714Y-83652914D02*
X94838333Y-83843390D01*
X94838333Y-83843390D02*
X94838333Y-83986247D01*
X94838333Y-83986247D02*
X94790714Y-84176723D01*
X94790714Y-84176723D02*
X94743095Y-84271961D01*
X94743095Y-84271961D02*
X94647857Y-84367200D01*
X94647857Y-84367200D02*
X94505000Y-84414819D01*
X94505000Y-84414819D02*
X94266905Y-84414819D01*
X95790714Y-84414819D02*
X95219286Y-84414819D01*
X95505000Y-84414819D02*
X95505000Y-83414819D01*
X95505000Y-83414819D02*
X95409762Y-83557676D01*
X95409762Y-83557676D02*
X95314524Y-83652914D01*
X95314524Y-83652914D02*
X95219286Y-83700533D01*
X153777914Y-110763611D02*
X153205495Y-110662596D01*
X153373853Y-111167672D02*
X152666747Y-110460565D01*
X152666747Y-110460565D02*
X152936121Y-110191191D01*
X152936121Y-110191191D02*
X153037136Y-110157519D01*
X153037136Y-110157519D02*
X153104479Y-110157519D01*
X153104479Y-110157519D02*
X153205495Y-110191191D01*
X153205495Y-110191191D02*
X153306510Y-110292206D01*
X153306510Y-110292206D02*
X153340182Y-110393222D01*
X153340182Y-110393222D02*
X153340182Y-110460565D01*
X153340182Y-110460565D02*
X153306510Y-110561580D01*
X153306510Y-110561580D02*
X153037136Y-110830954D01*
X153306510Y-109820802D02*
X153744243Y-109383069D01*
X153744243Y-109383069D02*
X153777914Y-109888145D01*
X153777914Y-109888145D02*
X153878930Y-109787130D01*
X153878930Y-109787130D02*
X153979945Y-109753458D01*
X153979945Y-109753458D02*
X154047288Y-109753458D01*
X154047288Y-109753458D02*
X154148304Y-109787130D01*
X154148304Y-109787130D02*
X154316662Y-109955489D01*
X154316662Y-109955489D02*
X154350334Y-110056504D01*
X154350334Y-110056504D02*
X154350334Y-110123848D01*
X154350334Y-110123848D02*
X154316662Y-110224863D01*
X154316662Y-110224863D02*
X154114632Y-110426893D01*
X154114632Y-110426893D02*
X154013617Y-110460565D01*
X154013617Y-110460565D02*
X153946273Y-110460565D01*
X169074819Y-96916666D02*
X168598628Y-97249999D01*
X169074819Y-97488094D02*
X168074819Y-97488094D01*
X168074819Y-97488094D02*
X168074819Y-97107142D01*
X168074819Y-97107142D02*
X168122438Y-97011904D01*
X168122438Y-97011904D02*
X168170057Y-96964285D01*
X168170057Y-96964285D02*
X168265295Y-96916666D01*
X168265295Y-96916666D02*
X168408152Y-96916666D01*
X168408152Y-96916666D02*
X168503390Y-96964285D01*
X168503390Y-96964285D02*
X168551009Y-97011904D01*
X168551009Y-97011904D02*
X168598628Y-97107142D01*
X168598628Y-97107142D02*
X168598628Y-97488094D01*
X168170057Y-96535713D02*
X168122438Y-96488094D01*
X168122438Y-96488094D02*
X168074819Y-96392856D01*
X168074819Y-96392856D02*
X168074819Y-96154761D01*
X168074819Y-96154761D02*
X168122438Y-96059523D01*
X168122438Y-96059523D02*
X168170057Y-96011904D01*
X168170057Y-96011904D02*
X168265295Y-95964285D01*
X168265295Y-95964285D02*
X168360533Y-95964285D01*
X168360533Y-95964285D02*
X168503390Y-96011904D01*
X168503390Y-96011904D02*
X169074819Y-96583332D01*
X169074819Y-96583332D02*
X169074819Y-95964285D01*
X130214285Y-85431009D02*
X130357142Y-85478628D01*
X130357142Y-85478628D02*
X130404761Y-85526247D01*
X130404761Y-85526247D02*
X130452380Y-85621485D01*
X130452380Y-85621485D02*
X130452380Y-85764342D01*
X130452380Y-85764342D02*
X130404761Y-85859580D01*
X130404761Y-85859580D02*
X130357142Y-85907200D01*
X130357142Y-85907200D02*
X130261904Y-85954819D01*
X130261904Y-85954819D02*
X129880952Y-85954819D01*
X129880952Y-85954819D02*
X129880952Y-84954819D01*
X129880952Y-84954819D02*
X130214285Y-84954819D01*
X130214285Y-84954819D02*
X130309523Y-85002438D01*
X130309523Y-85002438D02*
X130357142Y-85050057D01*
X130357142Y-85050057D02*
X130404761Y-85145295D01*
X130404761Y-85145295D02*
X130404761Y-85240533D01*
X130404761Y-85240533D02*
X130357142Y-85335771D01*
X130357142Y-85335771D02*
X130309523Y-85383390D01*
X130309523Y-85383390D02*
X130214285Y-85431009D01*
X130214285Y-85431009D02*
X129880952Y-85431009D01*
X130738095Y-84954819D02*
X131309523Y-84954819D01*
X131023809Y-85954819D02*
X131023809Y-84954819D01*
X132166666Y-85954819D02*
X131595238Y-85954819D01*
X131880952Y-85954819D02*
X131880952Y-84954819D01*
X131880952Y-84954819D02*
X131785714Y-85097676D01*
X131785714Y-85097676D02*
X131690476Y-85192914D01*
X131690476Y-85192914D02*
X131595238Y-85240533D01*
X129914761Y-79130057D02*
X129819523Y-79082438D01*
X129819523Y-79082438D02*
X129724285Y-78987200D01*
X129724285Y-78987200D02*
X129581428Y-78844342D01*
X129581428Y-78844342D02*
X129486190Y-78796723D01*
X129486190Y-78796723D02*
X129390952Y-78796723D01*
X129438571Y-79034819D02*
X129343333Y-78987200D01*
X129343333Y-78987200D02*
X129248095Y-78891961D01*
X129248095Y-78891961D02*
X129200476Y-78701485D01*
X129200476Y-78701485D02*
X129200476Y-78368152D01*
X129200476Y-78368152D02*
X129248095Y-78177676D01*
X129248095Y-78177676D02*
X129343333Y-78082438D01*
X129343333Y-78082438D02*
X129438571Y-78034819D01*
X129438571Y-78034819D02*
X129629047Y-78034819D01*
X129629047Y-78034819D02*
X129724285Y-78082438D01*
X129724285Y-78082438D02*
X129819523Y-78177676D01*
X129819523Y-78177676D02*
X129867142Y-78368152D01*
X129867142Y-78368152D02*
X129867142Y-78701485D01*
X129867142Y-78701485D02*
X129819523Y-78891961D01*
X129819523Y-78891961D02*
X129724285Y-78987200D01*
X129724285Y-78987200D02*
X129629047Y-79034819D01*
X129629047Y-79034819D02*
X129438571Y-79034819D01*
X130819523Y-79034819D02*
X130248095Y-79034819D01*
X130533809Y-79034819D02*
X130533809Y-78034819D01*
X130533809Y-78034819D02*
X130438571Y-78177676D01*
X130438571Y-78177676D02*
X130343333Y-78272914D01*
X130343333Y-78272914D02*
X130248095Y-78320533D01*
X105026744Y-109568268D02*
X105127759Y-108995849D01*
X104622683Y-109164207D02*
X105329790Y-108457101D01*
X105329790Y-108457101D02*
X105599164Y-108726475D01*
X105599164Y-108726475D02*
X105632836Y-108827490D01*
X105632836Y-108827490D02*
X105632836Y-108894833D01*
X105632836Y-108894833D02*
X105599164Y-108995849D01*
X105599164Y-108995849D02*
X105498149Y-109096864D01*
X105498149Y-109096864D02*
X105397133Y-109130536D01*
X105397133Y-109130536D02*
X105329790Y-109130536D01*
X105329790Y-109130536D02*
X105228775Y-109096864D01*
X105228775Y-109096864D02*
X104959401Y-108827490D01*
X106373614Y-109500925D02*
X106036897Y-109164207D01*
X106036897Y-109164207D02*
X105666507Y-109467253D01*
X105666507Y-109467253D02*
X105733851Y-109467253D01*
X105733851Y-109467253D02*
X105834866Y-109500925D01*
X105834866Y-109500925D02*
X106003225Y-109669284D01*
X106003225Y-109669284D02*
X106036897Y-109770299D01*
X106036897Y-109770299D02*
X106036897Y-109837642D01*
X106036897Y-109837642D02*
X106003225Y-109938658D01*
X106003225Y-109938658D02*
X105834866Y-110107016D01*
X105834866Y-110107016D02*
X105733851Y-110140688D01*
X105733851Y-110140688D02*
X105666507Y-110140688D01*
X105666507Y-110140688D02*
X105565492Y-110107016D01*
X105565492Y-110107016D02*
X105397133Y-109938658D01*
X105397133Y-109938658D02*
X105363462Y-109837642D01*
X105363462Y-109837642D02*
X105363462Y-109770299D01*
X106845019Y-109972329D02*
X106912362Y-110039673D01*
X106912362Y-110039673D02*
X106946034Y-110140688D01*
X106946034Y-110140688D02*
X106946034Y-110208032D01*
X106946034Y-110208032D02*
X106912362Y-110309047D01*
X106912362Y-110309047D02*
X106811347Y-110477406D01*
X106811347Y-110477406D02*
X106642988Y-110645764D01*
X106642988Y-110645764D02*
X106474629Y-110746780D01*
X106474629Y-110746780D02*
X106373614Y-110780451D01*
X106373614Y-110780451D02*
X106306271Y-110780451D01*
X106306271Y-110780451D02*
X106205255Y-110746780D01*
X106205255Y-110746780D02*
X106137912Y-110679436D01*
X106137912Y-110679436D02*
X106104240Y-110578421D01*
X106104240Y-110578421D02*
X106104240Y-110511077D01*
X106104240Y-110511077D02*
X106137912Y-110410062D01*
X106137912Y-110410062D02*
X106238927Y-110241703D01*
X106238927Y-110241703D02*
X106407286Y-110073345D01*
X106407286Y-110073345D02*
X106575645Y-109972329D01*
X106575645Y-109972329D02*
X106676660Y-109938658D01*
X106676660Y-109938658D02*
X106744003Y-109938658D01*
X106744003Y-109938658D02*
X106845019Y-109972329D01*
X106676660Y-111218184D02*
X107383767Y-110511077D01*
X107013377Y-111016154D02*
X106946034Y-111487558D01*
X107417438Y-111016154D02*
X106878690Y-111016154D01*
X107619469Y-112160993D02*
X107215408Y-111756932D01*
X107417439Y-111958963D02*
X108124545Y-111251856D01*
X108124545Y-111251856D02*
X107956187Y-111285528D01*
X107956187Y-111285528D02*
X107821500Y-111285528D01*
X107821500Y-111285528D02*
X107720484Y-111251856D01*
X96574820Y-96666666D02*
X96098629Y-96999999D01*
X96574820Y-97238094D02*
X95574820Y-97238094D01*
X95574820Y-97238094D02*
X95574820Y-96857142D01*
X95574820Y-96857142D02*
X95622439Y-96761904D01*
X95622439Y-96761904D02*
X95670058Y-96714285D01*
X95670058Y-96714285D02*
X95765296Y-96666666D01*
X95765296Y-96666666D02*
X95908153Y-96666666D01*
X95908153Y-96666666D02*
X96003391Y-96714285D01*
X96003391Y-96714285D02*
X96051010Y-96761904D01*
X96051010Y-96761904D02*
X96098629Y-96857142D01*
X96098629Y-96857142D02*
X96098629Y-97238094D01*
X96574820Y-95714285D02*
X96574820Y-96285713D01*
X96574820Y-95999999D02*
X95574820Y-95999999D01*
X95574820Y-95999999D02*
X95717677Y-96095237D01*
X95717677Y-96095237D02*
X95812915Y-96190475D01*
X95812915Y-96190475D02*
X95860534Y-96285713D01*
X129256905Y-123994819D02*
X129256905Y-122994819D01*
X129256905Y-122994819D02*
X129495000Y-122994819D01*
X129495000Y-122994819D02*
X129637857Y-123042438D01*
X129637857Y-123042438D02*
X129733095Y-123137676D01*
X129733095Y-123137676D02*
X129780714Y-123232914D01*
X129780714Y-123232914D02*
X129828333Y-123423390D01*
X129828333Y-123423390D02*
X129828333Y-123566247D01*
X129828333Y-123566247D02*
X129780714Y-123756723D01*
X129780714Y-123756723D02*
X129733095Y-123851961D01*
X129733095Y-123851961D02*
X129637857Y-123947200D01*
X129637857Y-123947200D02*
X129495000Y-123994819D01*
X129495000Y-123994819D02*
X129256905Y-123994819D01*
X130161667Y-122994819D02*
X130780714Y-122994819D01*
X130780714Y-122994819D02*
X130447381Y-123375771D01*
X130447381Y-123375771D02*
X130590238Y-123375771D01*
X130590238Y-123375771D02*
X130685476Y-123423390D01*
X130685476Y-123423390D02*
X130733095Y-123471009D01*
X130733095Y-123471009D02*
X130780714Y-123566247D01*
X130780714Y-123566247D02*
X130780714Y-123804342D01*
X130780714Y-123804342D02*
X130733095Y-123899580D01*
X130733095Y-123899580D02*
X130685476Y-123947200D01*
X130685476Y-123947200D02*
X130590238Y-123994819D01*
X130590238Y-123994819D02*
X130304524Y-123994819D01*
X130304524Y-123994819D02*
X130209286Y-123947200D01*
X130209286Y-123947200D02*
X130161667Y-123899580D01*
X129833333Y-141354819D02*
X129500000Y-140878628D01*
X129261905Y-141354819D02*
X129261905Y-140354819D01*
X129261905Y-140354819D02*
X129642857Y-140354819D01*
X129642857Y-140354819D02*
X129738095Y-140402438D01*
X129738095Y-140402438D02*
X129785714Y-140450057D01*
X129785714Y-140450057D02*
X129833333Y-140545295D01*
X129833333Y-140545295D02*
X129833333Y-140688152D01*
X129833333Y-140688152D02*
X129785714Y-140783390D01*
X129785714Y-140783390D02*
X129738095Y-140831009D01*
X129738095Y-140831009D02*
X129642857Y-140878628D01*
X129642857Y-140878628D02*
X129261905Y-140878628D01*
X130166667Y-140354819D02*
X130833333Y-140354819D01*
X130833333Y-140354819D02*
X130404762Y-141354819D01*
D14*
X162435000Y-78455000D02*
X162435000Y-81545000D01*
X162435000Y-78455170D02*
G75*
G02*
X167985000Y-79999952I2560000J-1544830D01*
G01*
X167985000Y-80000048D02*
G75*
G02*
X162435000Y-81544830I-2990000J48D01*
G01*
X167495000Y-80000000D02*
G75*
G02*
X162495000Y-80000000I-2500000J0D01*
G01*
X162495000Y-80000000D02*
G75*
G02*
X167495000Y-80000000I2500000J0D01*
G01*
X97565000Y-81545000D02*
X97565000Y-78455000D01*
X92015000Y-79999952D02*
G75*
G02*
X97565000Y-78455170I2990000J-48D01*
G01*
X97565000Y-81544830D02*
G75*
G02*
X92015000Y-80000048I-2560000J1544830D01*
G01*
X97505000Y-80000000D02*
G75*
G02*
X92505000Y-80000000I-2500000J0D01*
G01*
X92505000Y-80000000D02*
G75*
G02*
X97505000Y-80000000I2500000J0D01*
G01*
X151969027Y-113343500D02*
X153906500Y-115280973D01*
X152393291Y-114856709D02*
X152937763Y-114312236D01*
X153906500Y-115280973D02*
X158530979Y-110656494D01*
X156593506Y-108719021D02*
X151969027Y-113343500D01*
X158106714Y-109143286D02*
X157562242Y-109687758D01*
X158530979Y-110656494D02*
X156593506Y-108719021D01*
X164880000Y-93480000D02*
X164880000Y-100020000D01*
X164880000Y-100020000D02*
X167620000Y-100020000D01*
X166250000Y-92710000D02*
X166250000Y-93480000D01*
X166250000Y-100790000D02*
X166250000Y-100020000D01*
X167620000Y-93480000D02*
X164880000Y-93480000D01*
X167620000Y-100020000D02*
X167620000Y-93480000D01*
X120220000Y-91540000D02*
X120220000Y-94000000D01*
X120220000Y-100000000D02*
X120220000Y-100630000D01*
X120220000Y-100630000D02*
X121660000Y-104580000D01*
X122300000Y-89460000D02*
X120220000Y-91540000D01*
X125800000Y-89460000D02*
X122300000Y-89460000D01*
X139700000Y-89460000D02*
X136200000Y-89460000D01*
X139700000Y-89460000D02*
X141780000Y-91540000D01*
X141780000Y-91540000D02*
X141780000Y-94000000D01*
X141780000Y-100000000D02*
X141780000Y-100630000D01*
X141780000Y-100630000D02*
X140340000Y-104580000D01*
X124996646Y-105566530D02*
G75*
G02*
X121660000Y-104580000I-1306646J1716531D01*
G01*
X140325243Y-104588169D02*
G75*
G02*
X137000000Y-105550000I-2015243J738169D01*
G01*
X128200000Y-84620000D02*
X131800000Y-84620000D01*
X127632801Y-81666158D02*
G75*
G02*
X128860001Y-80420000I2367199J-1103842D01*
G01*
X128200000Y-84620000D02*
G75*
G02*
X127675816Y-83892795I1800000J1850000D01*
G01*
X131110000Y-80420000D02*
G75*
G02*
X132355458Y-81671629I-1110000J-2350000D01*
G01*
X132324184Y-83892795D02*
G75*
G02*
X131800000Y-84620000I-2324184J1122795D01*
G01*
X101469027Y-110656500D02*
X106093505Y-115280978D01*
X101893291Y-109143291D02*
X102437763Y-109687763D01*
X103406500Y-108719027D02*
X101469027Y-110656500D01*
X106093505Y-115280978D02*
X108030978Y-113343505D01*
X107606714Y-114856714D02*
X107062242Y-114312242D01*
X108030978Y-113343505D02*
X103406500Y-108719027D01*
X92380000Y-93230000D02*
X92380000Y-99770000D01*
X92380000Y-99770000D02*
X95120000Y-99770000D01*
X93750000Y-92460000D02*
X93750000Y-93230000D01*
X93750000Y-100540000D02*
X93750000Y-99770001D01*
X95120000Y-93230000D02*
X92380000Y-93230000D01*
X95120000Y-99770000D02*
X95120000Y-93230000D01*
X127435000Y-125955000D02*
X127435000Y-129045000D01*
X127435000Y-125955170D02*
G75*
G02*
X132985000Y-127499952I2560000J-1544830D01*
G01*
X132985000Y-127500048D02*
G75*
G02*
X127435000Y-129044830I-2990000J48D01*
G01*
X132495000Y-127500000D02*
G75*
G02*
X127495000Y-127500000I-2500000J0D01*
G01*
X127495000Y-127500000D02*
G75*
G02*
X132495000Y-127500000I2500000J0D01*
G01*
X131550000Y-135850000D02*
X128500000Y-135850000D01*
X131550000Y-140150000D02*
X128500000Y-140150000D01*
X128500000Y-140150000D02*
G75*
G02*
X128455487Y-135881751I1500000J2150000D01*
G01*
X131550000Y-135850000D02*
G75*
G02*
X131528234Y-140165525I-1550000J-2150000D01*
G01*
%LPC*%
D15*
X163725000Y-80000000D03*
D16*
X166265000Y-80000000D03*
D15*
X96275000Y-80000000D03*
D16*
X93735000Y-80000000D03*
D17*
X151657900Y-115592100D03*
D18*
X158842103Y-108407895D03*
D19*
X130000000Y-71000000D03*
D17*
X166250000Y-91670000D03*
D20*
X166250000Y-101830000D03*
D21*
X120015000Y-97000000D03*
X141985000Y-97000000D03*
D22*
X131000000Y-97000000D03*
D23*
X127460000Y-82770000D03*
D24*
X130000001Y-80230000D03*
X132540000Y-82770000D03*
D17*
X101157900Y-108407900D03*
D25*
X108342105Y-115592105D03*
D17*
X93750000Y-91420000D03*
D20*
X93750000Y-101580000D03*
D15*
X128725000Y-127500000D03*
D16*
X131265000Y-127500000D03*
D24*
X131700000Y-138000000D03*
X128300000Y-138000000D03*
%LPD*%
M02*
