G04 #@! TF.GenerationSoftware,KiCad,Pcbnew,9.0.0*
G04 #@! TF.CreationDate,2025-06-03T17:11:12-04:00*
G04 #@! TF.ProjectId,mothers_day_necklace,6d6f7468-6572-4735-9f64-61795f6e6563,A*
G04 #@! TF.SameCoordinates,Original*
G04 #@! TF.FileFunction,Copper,L1,Top*
G04 #@! TF.FilePolarity,Positive*
%FSLAX46Y46*%
G04 Gerber Fmt 4.6, Leading zero omitted, Abs format (unit mm)*
G04 Created by KiCad (PCBNEW 9.0.0) date 2025-06-03 17:11:12*
%MOMM*%
%LPD*%
G01*
G04 APERTURE LIST*
G04 Aperture macros list*
%AMHorizOval*
0 Thick line with rounded ends*
0 $1 width*
0 $2 $3 position (X,Y) of the first rounded end (center of the circle)*
0 $4 $5 position (X,Y) of the second rounded end (center of the circle)*
0 Add line between two ends*
20,1,$1,$2,$3,$4,$5,0*
0 Add two circle primitives to create the rounded ends*
1,1,$1,$2,$3*
1,1,$1,$4,$5*%
G04 Aperture macros list end*
G04 #@! TA.AperFunction,ComponentPad*
%ADD10R,1.800000X1.800000*%
G04 #@! TD*
G04 #@! TA.AperFunction,ComponentPad*
%ADD11C,1.800000*%
G04 #@! TD*
G04 #@! TA.AperFunction,ComponentPad*
%ADD12C,1.600000*%
G04 #@! TD*
G04 #@! TA.AperFunction,ComponentPad*
%ADD13HorizOval,1.600000X0.000000X0.000000X0.000000X0.000000X0*%
G04 #@! TD*
G04 #@! TA.AperFunction,ComponentPad*
%ADD14O,1.600000X1.600000*%
G04 #@! TD*
G04 #@! TA.AperFunction,SMDPad,CuDef*
%ADD15R,1.270000X5.080000*%
G04 #@! TD*
G04 #@! TA.AperFunction,SMDPad,CuDef*
%ADD16C,17.800000*%
G04 #@! TD*
G04 #@! TA.AperFunction,ComponentPad*
%ADD17R,1.500000X1.500000*%
G04 #@! TD*
G04 #@! TA.AperFunction,ComponentPad*
%ADD18C,1.500000*%
G04 #@! TD*
G04 #@! TA.AperFunction,ComponentPad*
%ADD19HorizOval,1.600000X0.000000X0.000000X0.000000X0.000000X0*%
G04 #@! TD*
G04 #@! TA.AperFunction,ViaPad*
%ADD20C,0.600000*%
G04 #@! TD*
G04 #@! TA.AperFunction,Conductor*
%ADD21C,0.200000*%
G04 #@! TD*
G04 APERTURE END LIST*
D10*
X163725000Y-80000000D03*
D11*
X166265000Y-80000000D03*
D10*
X96275000Y-80000000D03*
D11*
X93735000Y-80000000D03*
D12*
X151657900Y-115592100D03*
D13*
X158842103Y-108407895D03*
D12*
X166250000Y-91670000D03*
D14*
X166250000Y-101830000D03*
D15*
X120015000Y-97000000D03*
X141985000Y-97000000D03*
D16*
X131000000Y-97000000D03*
D17*
X127460000Y-82770000D03*
D18*
X130000001Y-80230000D03*
X132540000Y-82770000D03*
D12*
X101157900Y-108407900D03*
D19*
X108342105Y-115592105D03*
D12*
X93750000Y-91420000D03*
D14*
X93750000Y-101580000D03*
D10*
X128725000Y-127500000D03*
D11*
X131265000Y-127500000D03*
D18*
X131700000Y-138000000D03*
X128300000Y-138000000D03*
D20*
X120096500Y-100042700D03*
X121036800Y-108982100D03*
X126987000Y-107996600D03*
D21*
X159231600Y-108018400D02*
X159621200Y-107628800D01*
X121036800Y-109186900D02*
X114747300Y-109186900D01*
X163160000Y-99841700D02*
X165148300Y-101830000D01*
X120055800Y-100001900D02*
X120015000Y-99961100D01*
X120096500Y-100042700D02*
X120055800Y-100001900D01*
X158063100Y-109186900D02*
X121241600Y-109186900D01*
X141985000Y-99841700D02*
X163160000Y-99841700D01*
X121200300Y-109186900D02*
X121036800Y-109186900D01*
X96470600Y-99961100D02*
X94851700Y-101580000D01*
X114747300Y-109186900D02*
X108342100Y-115592100D01*
X93750000Y-101580000D02*
X94851700Y-101580000D01*
X166250000Y-101830000D02*
X165148300Y-101830000D01*
X159621200Y-107628800D02*
X165148300Y-102101700D01*
X158842100Y-108407900D02*
X158063100Y-109186900D01*
X159231600Y-108018400D02*
X158842100Y-108407900D01*
X120015000Y-99961100D02*
X96470600Y-99961100D01*
X121241600Y-109186900D02*
X121200300Y-109186900D01*
X121036800Y-109186900D02*
X121036800Y-108982100D01*
X120015000Y-99961100D02*
X120015000Y-97000000D01*
X141985000Y-97000000D02*
X141985000Y-99841700D01*
X165148300Y-102101700D02*
X165148300Y-101830000D01*
X100246700Y-82770000D02*
X97476700Y-80000000D01*
X130000000Y-82770000D02*
X127460000Y-82770000D01*
X127460000Y-82770000D02*
X100246700Y-82770000D01*
X163725000Y-80000000D02*
X132770000Y-80000000D01*
X96275000Y-80000000D02*
X97476700Y-80000000D01*
X132770000Y-80000000D02*
X130000000Y-82770000D01*
X143172900Y-115592100D02*
X131265000Y-127500000D01*
X151657900Y-115592100D02*
X143172900Y-115592100D01*
X101569200Y-107996600D02*
X101157900Y-108407900D01*
X126987000Y-107996600D02*
X101569200Y-107996600D01*
G04 #@! TA.AperFunction,Conductor*
G36*
X130308444Y-65505616D02*
G01*
X130345105Y-65507969D01*
X130908222Y-65544122D01*
X130916081Y-65544880D01*
X131512183Y-65621739D01*
X131520027Y-65623008D01*
X132109924Y-65737890D01*
X132117675Y-65739658D01*
X132699050Y-65892113D01*
X132706627Y-65894363D01*
X133277024Y-66083746D01*
X133284468Y-66086486D01*
X133841571Y-66312032D01*
X133848821Y-66315242D01*
X134390311Y-66576009D01*
X134397335Y-66579674D01*
X134921006Y-66874601D01*
X134927790Y-66878713D01*
X135006334Y-66929839D01*
X135431487Y-67206583D01*
X135438007Y-67211131D01*
X135919659Y-67570596D01*
X135925873Y-67575552D01*
X136383487Y-67965125D01*
X136389372Y-67970469D01*
X136821109Y-68388583D01*
X136826638Y-68394293D01*
X137230674Y-68839181D01*
X137235827Y-68845233D01*
X137610554Y-69315126D01*
X137615308Y-69321497D01*
X137959133Y-69814396D01*
X137963470Y-69821057D01*
X138275034Y-70335014D01*
X138278934Y-70341940D01*
X138556913Y-70874774D01*
X138560362Y-70881936D01*
X138803635Y-71431493D01*
X138806618Y-71438861D01*
X139014180Y-72002873D01*
X139016685Y-72010417D01*
X139187685Y-72586575D01*
X139189701Y-72594263D01*
X139323434Y-73180184D01*
X139324954Y-73187987D01*
X139420875Y-73781289D01*
X139421891Y-73789172D01*
X139479600Y-74387389D01*
X139480109Y-74395321D01*
X139499436Y-74997981D01*
X139499500Y-75001956D01*
X139499500Y-75065870D01*
X139516554Y-75129517D01*
X139533608Y-75193165D01*
X139533609Y-75193166D01*
X139599500Y-75307292D01*
X139692686Y-75400478D01*
X139806814Y-75466370D01*
X139934108Y-75500478D01*
X139934110Y-75500478D01*
X140065890Y-75500478D01*
X140065892Y-75500478D01*
X140193186Y-75466370D01*
X140307314Y-75400478D01*
X140352979Y-75354812D01*
X140354821Y-75353009D01*
X141004764Y-74730824D01*
X141008722Y-74727197D01*
X141684123Y-74134887D01*
X141688192Y-74131472D01*
X142388849Y-73569135D01*
X142393062Y-73565903D01*
X143117533Y-73034700D01*
X143121885Y-73031652D01*
X143868856Y-72532542D01*
X143873350Y-72529679D01*
X144641360Y-72063639D01*
X144645992Y-72060965D01*
X145433593Y-71628872D01*
X145438344Y-71626399D01*
X146244003Y-71229092D01*
X146248886Y-71226814D01*
X147071151Y-70865010D01*
X147076102Y-70862959D01*
X147913371Y-70537363D01*
X147918360Y-70535547D01*
X148769007Y-70246791D01*
X148774152Y-70245169D01*
X149636587Y-69993792D01*
X149641771Y-69992403D01*
X150514335Y-69778889D01*
X150519591Y-69777723D01*
X151400624Y-69602474D01*
X151405926Y-69601539D01*
X152293795Y-69464883D01*
X152299122Y-69464182D01*
X153192100Y-69366385D01*
X153197427Y-69365918D01*
X154093870Y-69307162D01*
X154099229Y-69306929D01*
X154997296Y-69287334D01*
X155002704Y-69287334D01*
X155900768Y-69306929D01*
X155906131Y-69307163D01*
X156802568Y-69365918D01*
X156807903Y-69366385D01*
X157700871Y-69464181D01*
X157706210Y-69464884D01*
X158594065Y-69601537D01*
X158599383Y-69602476D01*
X158925952Y-69667435D01*
X159480395Y-69777721D01*
X159485674Y-69778891D01*
X160358216Y-69992400D01*
X160363424Y-69993795D01*
X161103043Y-70209375D01*
X161225833Y-70245165D01*
X161230992Y-70246792D01*
X161490886Y-70335014D01*
X162081624Y-70535542D01*
X162086642Y-70537368D01*
X162923873Y-70862950D01*
X162928864Y-70865017D01*
X163325038Y-71039337D01*
X163751103Y-71226810D01*
X163756006Y-71229097D01*
X164561631Y-71626387D01*
X164566425Y-71628882D01*
X165254928Y-72006608D01*
X165353981Y-72060950D01*
X165358660Y-72063651D01*
X166126628Y-72529666D01*
X166131164Y-72532555D01*
X166878092Y-73031638D01*
X166882487Y-73034715D01*
X167606914Y-73565887D01*
X167611171Y-73569152D01*
X168311784Y-74131454D01*
X168315898Y-74134906D01*
X168761787Y-74525940D01*
X168991261Y-74727184D01*
X168995250Y-74730839D01*
X169644138Y-75352014D01*
X169647963Y-75355839D01*
X170269138Y-76004727D01*
X170272793Y-76008716D01*
X170865058Y-76684064D01*
X170868536Y-76688208D01*
X171430811Y-77388788D01*
X171434104Y-77393081D01*
X171965249Y-78117472D01*
X171968346Y-78121894D01*
X172459972Y-78857664D01*
X172467413Y-78868800D01*
X172470320Y-78873363D01*
X172936322Y-79641311D01*
X172939027Y-79645996D01*
X173371092Y-80433547D01*
X173373590Y-80438346D01*
X173770880Y-81243971D01*
X173773167Y-81248874D01*
X174134957Y-82071105D01*
X174137027Y-82076104D01*
X174151196Y-82112539D01*
X174404788Y-82764649D01*
X174462594Y-82913295D01*
X174464444Y-82918379D01*
X174753185Y-83768985D01*
X174754812Y-83774144D01*
X175006179Y-84636544D01*
X175007579Y-84641770D01*
X175221085Y-85514300D01*
X175222256Y-85519582D01*
X175397500Y-86400589D01*
X175398440Y-86405917D01*
X175535091Y-87293755D01*
X175535797Y-87299118D01*
X175633589Y-88192047D01*
X175634061Y-88197437D01*
X175692813Y-89093825D01*
X175693048Y-89099230D01*
X175712643Y-89997273D01*
X175712643Y-90002683D01*
X175693048Y-90900725D01*
X175692813Y-90906130D01*
X175634061Y-91802518D01*
X175633589Y-91807908D01*
X175535797Y-92700837D01*
X175535091Y-92706200D01*
X175398440Y-93594038D01*
X175397500Y-93599366D01*
X175222256Y-94480373D01*
X175221085Y-94485655D01*
X175007579Y-95358185D01*
X175006179Y-95363411D01*
X174754812Y-96225811D01*
X174753185Y-96230970D01*
X174464444Y-97081576D01*
X174462594Y-97086660D01*
X174137027Y-97923851D01*
X174134957Y-97928850D01*
X173773167Y-98751081D01*
X173770880Y-98755984D01*
X173373590Y-99561609D01*
X173371092Y-99566408D01*
X172939027Y-100353959D01*
X172936322Y-100358644D01*
X172470320Y-101126592D01*
X172467413Y-101131155D01*
X171968352Y-101878052D01*
X171965249Y-101882483D01*
X171434104Y-102606874D01*
X171430811Y-102611167D01*
X170868536Y-103311747D01*
X170865058Y-103315891D01*
X170272793Y-103991239D01*
X170269138Y-103995228D01*
X169647034Y-104645086D01*
X169645142Y-104647019D01*
X130087680Y-144204481D01*
X130026357Y-144237966D01*
X129956665Y-144232982D01*
X129912318Y-144204481D01*
X123609454Y-137901617D01*
X127050000Y-137901617D01*
X127050000Y-138098382D01*
X127080778Y-138292705D01*
X127141581Y-138479835D01*
X127230905Y-138655145D01*
X127256319Y-138690125D01*
X127256320Y-138690125D01*
X127900000Y-138046445D01*
X127900000Y-138052661D01*
X127927259Y-138154394D01*
X127979920Y-138245606D01*
X128054394Y-138320080D01*
X128145606Y-138372741D01*
X128247339Y-138400000D01*
X128253553Y-138400000D01*
X127609873Y-139043677D01*
X127609873Y-139043678D01*
X127644858Y-139069096D01*
X127820164Y-139158418D01*
X128007294Y-139219221D01*
X128201618Y-139250000D01*
X128398382Y-139250000D01*
X128592705Y-139219221D01*
X128779835Y-139158418D01*
X128955143Y-139069095D01*
X128990125Y-139043678D01*
X128990126Y-139043678D01*
X128346448Y-138400000D01*
X128352661Y-138400000D01*
X128454394Y-138372741D01*
X128545606Y-138320080D01*
X128620080Y-138245606D01*
X128672741Y-138154394D01*
X128700000Y-138052661D01*
X128700000Y-138046448D01*
X129343678Y-138690126D01*
X129343678Y-138690125D01*
X129369095Y-138655143D01*
X129458418Y-138479835D01*
X129519221Y-138292705D01*
X129550000Y-138098382D01*
X129550000Y-137901617D01*
X129549994Y-137901577D01*
X130449500Y-137901577D01*
X130449500Y-138098422D01*
X130480290Y-138292826D01*
X130541117Y-138480029D01*
X130630343Y-138655143D01*
X130630476Y-138655405D01*
X130746172Y-138814646D01*
X130885354Y-138953828D01*
X131044595Y-139069524D01*
X131127455Y-139111743D01*
X131219970Y-139158882D01*
X131219972Y-139158882D01*
X131219975Y-139158884D01*
X131320317Y-139191487D01*
X131407173Y-139219709D01*
X131601578Y-139250500D01*
X131601583Y-139250500D01*
X131798422Y-139250500D01*
X131992826Y-139219709D01*
X131994328Y-139219221D01*
X132180025Y-139158884D01*
X132355405Y-139069524D01*
X132514646Y-138953828D01*
X132653828Y-138814646D01*
X132769524Y-138655405D01*
X132858884Y-138480025D01*
X132919709Y-138292826D01*
X132927188Y-138245606D01*
X132950500Y-138098422D01*
X132950500Y-137901577D01*
X132919709Y-137707173D01*
X132858882Y-137519970D01*
X132811743Y-137427455D01*
X132769524Y-137344595D01*
X132653828Y-137185354D01*
X132514646Y-137046172D01*
X132355405Y-136930476D01*
X132180029Y-136841117D01*
X131992826Y-136780290D01*
X131798422Y-136749500D01*
X131798417Y-136749500D01*
X131601583Y-136749500D01*
X131601578Y-136749500D01*
X131407173Y-136780290D01*
X131219970Y-136841117D01*
X131044594Y-136930476D01*
X130953741Y-136996485D01*
X130885354Y-137046172D01*
X130885352Y-137046174D01*
X130885351Y-137046174D01*
X130746174Y-137185351D01*
X130746174Y-137185352D01*
X130746172Y-137185354D01*
X130696485Y-137253741D01*
X130630476Y-137344594D01*
X130541117Y-137519970D01*
X130480290Y-137707173D01*
X130449500Y-137901577D01*
X129549994Y-137901577D01*
X129519221Y-137707294D01*
X129458418Y-137520164D01*
X129369096Y-137344858D01*
X129343678Y-137309873D01*
X129343677Y-137309873D01*
X128700000Y-137953551D01*
X128700000Y-137947339D01*
X128672741Y-137845606D01*
X128620080Y-137754394D01*
X128545606Y-137679920D01*
X128454394Y-137627259D01*
X128352661Y-137600000D01*
X128346447Y-137600000D01*
X128990125Y-136956320D01*
X128990125Y-136956319D01*
X128955145Y-136930905D01*
X128779835Y-136841581D01*
X128592705Y-136780778D01*
X128398382Y-136750000D01*
X128201618Y-136750000D01*
X128007294Y-136780778D01*
X127820161Y-136841582D01*
X127644863Y-136930899D01*
X127644859Y-136930902D01*
X127609873Y-136956320D01*
X127609872Y-136956320D01*
X128253554Y-137600000D01*
X128247339Y-137600000D01*
X128145606Y-137627259D01*
X128054394Y-137679920D01*
X127979920Y-137754394D01*
X127927259Y-137845606D01*
X127900000Y-137947339D01*
X127900000Y-137953552D01*
X127256320Y-137309872D01*
X127256320Y-137309873D01*
X127230902Y-137344859D01*
X127230899Y-137344863D01*
X127141582Y-137520161D01*
X127080778Y-137707294D01*
X127050000Y-137901617D01*
X123609454Y-137901617D01*
X112259972Y-126552135D01*
X127324500Y-126552135D01*
X127324500Y-128447870D01*
X127324501Y-128447876D01*
X127330908Y-128507483D01*
X127381202Y-128642328D01*
X127381206Y-128642335D01*
X127467452Y-128757544D01*
X127467455Y-128757547D01*
X127582664Y-128843793D01*
X127582671Y-128843797D01*
X127717517Y-128894091D01*
X127717516Y-128894091D01*
X127724444Y-128894835D01*
X127777127Y-128900500D01*
X129672872Y-128900499D01*
X129732483Y-128894091D01*
X129867331Y-128843796D01*
X129982546Y-128757546D01*
X130068796Y-128642331D01*
X130096429Y-128568243D01*
X130098601Y-128562420D01*
X130140471Y-128506486D01*
X130205936Y-128482068D01*
X130274209Y-128496919D01*
X130302464Y-128518071D01*
X130352636Y-128568243D01*
X130352641Y-128568247D01*
X130454603Y-128642326D01*
X130530978Y-128697815D01*
X130659375Y-128763237D01*
X130727393Y-128797895D01*
X130727396Y-128797896D01*
X130832221Y-128831955D01*
X130937049Y-128866015D01*
X131154778Y-128900500D01*
X131154779Y-128900500D01*
X131375221Y-128900500D01*
X131375222Y-128900500D01*
X131592951Y-128866015D01*
X131802606Y-128797895D01*
X131999022Y-128697815D01*
X132177365Y-128568242D01*
X132333242Y-128412365D01*
X132462815Y-128234022D01*
X132562895Y-128037606D01*
X132631015Y-127827951D01*
X132665500Y-127610222D01*
X132665500Y-127389778D01*
X132631015Y-127172049D01*
X132608188Y-127101794D01*
X132606193Y-127031953D01*
X132638436Y-126975797D01*
X143385317Y-116228919D01*
X143446640Y-116195434D01*
X143472998Y-116192600D01*
X150428298Y-116192600D01*
X150495337Y-116212285D01*
X150538783Y-116260305D01*
X150545615Y-116273714D01*
X150665928Y-116439313D01*
X150810686Y-116584071D01*
X150965649Y-116696656D01*
X150976290Y-116704387D01*
X151092507Y-116763603D01*
X151158676Y-116797318D01*
X151158678Y-116797318D01*
X151158681Y-116797320D01*
X151263037Y-116831227D01*
X151353365Y-116860577D01*
X151454457Y-116876588D01*
X151555548Y-116892600D01*
X151555549Y-116892600D01*
X151760251Y-116892600D01*
X151760252Y-116892600D01*
X151962434Y-116860577D01*
X152157119Y-116797320D01*
X152339510Y-116704387D01*
X152432490Y-116636832D01*
X152505113Y-116584071D01*
X152505115Y-116584068D01*
X152505119Y-116584066D01*
X152649866Y-116439319D01*
X152649868Y-116439315D01*
X152649871Y-116439313D01*
X152702632Y-116366690D01*
X152770187Y-116273710D01*
X152863120Y-116091319D01*
X152926377Y-115896634D01*
X152958400Y-115694452D01*
X152958400Y-115489748D01*
X152926377Y-115287566D01*
X152921727Y-115273256D01*
X152869196Y-115111581D01*
X152863120Y-115092881D01*
X152863118Y-115092878D01*
X152863118Y-115092876D01*
X152829403Y-115026707D01*
X152770187Y-114910490D01*
X152762456Y-114899849D01*
X152649871Y-114744886D01*
X152505113Y-114600128D01*
X152339513Y-114479815D01*
X152339512Y-114479814D01*
X152339510Y-114479813D01*
X152282553Y-114450791D01*
X152157123Y-114386881D01*
X151962434Y-114323622D01*
X151787895Y-114295978D01*
X151760252Y-114291600D01*
X151555548Y-114291600D01*
X151531229Y-114295451D01*
X151353365Y-114323622D01*
X151158676Y-114386881D01*
X150976286Y-114479815D01*
X150810686Y-114600128D01*
X150665928Y-114744886D01*
X150545615Y-114910485D01*
X150538783Y-114923895D01*
X150490809Y-114974691D01*
X150428298Y-114991600D01*
X143259570Y-114991600D01*
X143259554Y-114991599D01*
X143251958Y-114991599D01*
X143093843Y-114991599D01*
X143017479Y-115012061D01*
X142941114Y-115032523D01*
X142941109Y-115032526D01*
X142804190Y-115111575D01*
X142804182Y-115111581D01*
X131789202Y-126126561D01*
X131727879Y-126160046D01*
X131663203Y-126156811D01*
X131638584Y-126148812D01*
X131592952Y-126133985D01*
X131484086Y-126116742D01*
X131375222Y-126099500D01*
X131154778Y-126099500D01*
X131082201Y-126110995D01*
X130937047Y-126133985D01*
X130727396Y-126202103D01*
X130727393Y-126202104D01*
X130530974Y-126302187D01*
X130352641Y-126431752D01*
X130352636Y-126431756D01*
X130302463Y-126481929D01*
X130241140Y-126515413D01*
X130171448Y-126510428D01*
X130115515Y-126468557D01*
X130098601Y-126437580D01*
X130068797Y-126357671D01*
X130068793Y-126357664D01*
X129982547Y-126242455D01*
X129982544Y-126242452D01*
X129867335Y-126156206D01*
X129867328Y-126156202D01*
X129732482Y-126105908D01*
X129732483Y-126105908D01*
X129672883Y-126099501D01*
X129672881Y-126099500D01*
X129672873Y-126099500D01*
X129672864Y-126099500D01*
X127777129Y-126099500D01*
X127777123Y-126099501D01*
X127717516Y-126105908D01*
X127582671Y-126156202D01*
X127582664Y-126156206D01*
X127467455Y-126242452D01*
X127467452Y-126242455D01*
X127381206Y-126357664D01*
X127381202Y-126357671D01*
X127330908Y-126492517D01*
X127324501Y-126552116D01*
X127324500Y-126552135D01*
X112259972Y-126552135D01*
X94013385Y-108305548D01*
X99857400Y-108305548D01*
X99857400Y-108510251D01*
X99889422Y-108712434D01*
X99952681Y-108907123D01*
X100016591Y-109032553D01*
X100045610Y-109089505D01*
X100045615Y-109089513D01*
X100165928Y-109255113D01*
X100310686Y-109399871D01*
X100465649Y-109512456D01*
X100476290Y-109520187D01*
X100592507Y-109579403D01*
X100658676Y-109613118D01*
X100658678Y-109613118D01*
X100658681Y-109613120D01*
X100763037Y-109647027D01*
X100853365Y-109676377D01*
X100954457Y-109692388D01*
X101055548Y-109708400D01*
X101055549Y-109708400D01*
X101260251Y-109708400D01*
X101260252Y-109708400D01*
X101462434Y-109676377D01*
X101657119Y-109613120D01*
X101839510Y-109520187D01*
X101932490Y-109452632D01*
X102005113Y-109399871D01*
X102005115Y-109399868D01*
X102005119Y-109399866D01*
X102149866Y-109255119D01*
X102149870Y-109255114D01*
X102149871Y-109255113D01*
X102202632Y-109182490D01*
X102270187Y-109089510D01*
X102363120Y-108907119D01*
X102426377Y-108712434D01*
X102428077Y-108701702D01*
X102458007Y-108638567D01*
X102517318Y-108601636D01*
X102550550Y-108597100D01*
X114188502Y-108597100D01*
X114255541Y-108616785D01*
X114301296Y-108669589D01*
X114311240Y-108738747D01*
X114282215Y-108802303D01*
X114276183Y-108808781D01*
X108786939Y-114298024D01*
X108725616Y-114331509D01*
X108660946Y-114328276D01*
X108646637Y-114323627D01*
X108482505Y-114297631D01*
X108444457Y-114291605D01*
X108239753Y-114291605D01*
X108215434Y-114295456D01*
X108037570Y-114323627D01*
X107842881Y-114386886D01*
X107660491Y-114479820D01*
X107494891Y-114600133D01*
X107350133Y-114744891D01*
X107229820Y-114910491D01*
X107136886Y-115092881D01*
X107073627Y-115287570D01*
X107041605Y-115489753D01*
X107041605Y-115694456D01*
X107073627Y-115896639D01*
X107136886Y-116091328D01*
X107188488Y-116192600D01*
X107229817Y-116273714D01*
X107229820Y-116273718D01*
X107350133Y-116439318D01*
X107494891Y-116584076D01*
X107649854Y-116696661D01*
X107660495Y-116704392D01*
X107776712Y-116763608D01*
X107842881Y-116797323D01*
X107842883Y-116797323D01*
X107842886Y-116797325D01*
X107947242Y-116831232D01*
X108037570Y-116860582D01*
X108138662Y-116876593D01*
X108239753Y-116892605D01*
X108239754Y-116892605D01*
X108444456Y-116892605D01*
X108444457Y-116892605D01*
X108646639Y-116860582D01*
X108841324Y-116797325D01*
X109023715Y-116704392D01*
X109116695Y-116636837D01*
X109189318Y-116584076D01*
X109189320Y-116584073D01*
X109189324Y-116584071D01*
X109334071Y-116439324D01*
X109334075Y-116439319D01*
X109334076Y-116439318D01*
X109386837Y-116366695D01*
X109454392Y-116273715D01*
X109547325Y-116091324D01*
X109610582Y-115896639D01*
X109642605Y-115694457D01*
X109642605Y-115489753D01*
X109610582Y-115287571D01*
X109605929Y-115273253D01*
X109603933Y-115203414D01*
X109636177Y-115147256D01*
X114959717Y-109823719D01*
X115021040Y-109790234D01*
X115047398Y-109787400D01*
X120957743Y-109787400D01*
X121115857Y-109787400D01*
X121121243Y-109787400D01*
X121162543Y-109787400D01*
X157976431Y-109787400D01*
X157976447Y-109787401D01*
X157984043Y-109787401D01*
X158142154Y-109787401D01*
X158142157Y-109787401D01*
X158294885Y-109746477D01*
X158360836Y-109708400D01*
X158412166Y-109678764D01*
X158480065Y-109662292D01*
X158512480Y-109668220D01*
X158537569Y-109676372D01*
X158739751Y-109708395D01*
X158739752Y-109708395D01*
X158944454Y-109708395D01*
X158944455Y-109708395D01*
X159146637Y-109676372D01*
X159341322Y-109613115D01*
X159523713Y-109520182D01*
X159616693Y-109452627D01*
X159689316Y-109399866D01*
X159689318Y-109399863D01*
X159689322Y-109399861D01*
X159834069Y-109255114D01*
X159834071Y-109255110D01*
X159834074Y-109255108D01*
X159886835Y-109182485D01*
X159954390Y-109089505D01*
X160047323Y-108907114D01*
X160110580Y-108712429D01*
X160142603Y-108510247D01*
X160142603Y-108305543D01*
X160110580Y-108103361D01*
X160105929Y-108089049D01*
X160103936Y-108019208D01*
X160136179Y-107963054D01*
X165255200Y-102844034D01*
X165316521Y-102810551D01*
X165386213Y-102815535D01*
X165415764Y-102831399D01*
X165483347Y-102880500D01*
X165568390Y-102942287D01*
X165684607Y-103001503D01*
X165750776Y-103035218D01*
X165750778Y-103035218D01*
X165750781Y-103035220D01*
X165855137Y-103069127D01*
X165945465Y-103098477D01*
X166046557Y-103114488D01*
X166147648Y-103130500D01*
X166147649Y-103130500D01*
X166352351Y-103130500D01*
X166352352Y-103130500D01*
X166554534Y-103098477D01*
X166749219Y-103035220D01*
X166931610Y-102942287D01*
X167024590Y-102874732D01*
X167097213Y-102821971D01*
X167097215Y-102821968D01*
X167097219Y-102821966D01*
X167241966Y-102677219D01*
X167241968Y-102677215D01*
X167241971Y-102677213D01*
X167294732Y-102604590D01*
X167362287Y-102511610D01*
X167455220Y-102329219D01*
X167518477Y-102134534D01*
X167550500Y-101932352D01*
X167550500Y-101727648D01*
X167518477Y-101525466D01*
X167455220Y-101330781D01*
X167455218Y-101330778D01*
X167455218Y-101330776D01*
X167421503Y-101264607D01*
X167362287Y-101148390D01*
X167349765Y-101131155D01*
X167241971Y-100982786D01*
X167097213Y-100838028D01*
X166931613Y-100717715D01*
X166931612Y-100717714D01*
X166931610Y-100717713D01*
X166874653Y-100688691D01*
X166749223Y-100624781D01*
X166554534Y-100561522D01*
X166379995Y-100533878D01*
X166352352Y-100529500D01*
X166147648Y-100529500D01*
X166123329Y-100533351D01*
X165945465Y-100561522D01*
X165750776Y-100624781D01*
X165568386Y-100717715D01*
X165402786Y-100838028D01*
X165402782Y-100838032D01*
X165291856Y-100948959D01*
X165230533Y-100982444D01*
X165160841Y-100977460D01*
X165116494Y-100948959D01*
X163647590Y-99480055D01*
X163647588Y-99480052D01*
X163528717Y-99361181D01*
X163528716Y-99361180D01*
X163441904Y-99311060D01*
X163441904Y-99311059D01*
X163441900Y-99311058D01*
X163391785Y-99282123D01*
X163239057Y-99241199D01*
X163080943Y-99241199D01*
X163073347Y-99241199D01*
X163073331Y-99241200D01*
X143244500Y-99241200D01*
X143177461Y-99221515D01*
X143131706Y-99168711D01*
X143120500Y-99117200D01*
X143120499Y-94412129D01*
X143120498Y-94412123D01*
X143120497Y-94412116D01*
X143114091Y-94352517D01*
X143063796Y-94217669D01*
X143063795Y-94217668D01*
X143063793Y-94217664D01*
X142977547Y-94102455D01*
X142977544Y-94102452D01*
X142862335Y-94016206D01*
X142862328Y-94016202D01*
X142727482Y-93965908D01*
X142727483Y-93965908D01*
X142667883Y-93959501D01*
X142667881Y-93959500D01*
X142667873Y-93959500D01*
X142667864Y-93959500D01*
X141302129Y-93959500D01*
X141302123Y-93959501D01*
X141242516Y-93965908D01*
X141107671Y-94016202D01*
X141107664Y-94016206D01*
X140992455Y-94102452D01*
X140992452Y-94102455D01*
X140906206Y-94217664D01*
X140906202Y-94217671D01*
X140855908Y-94352517D01*
X140849501Y-94412116D01*
X140849501Y-94412123D01*
X140849500Y-94412135D01*
X140849500Y-99587870D01*
X140849501Y-99587876D01*
X140855908Y-99647483D01*
X140906202Y-99782328D01*
X140906206Y-99782335D01*
X140992452Y-99897544D01*
X140992455Y-99897547D01*
X141107664Y-99983793D01*
X141107671Y-99983797D01*
X141242516Y-100034091D01*
X141268419Y-100036875D01*
X141302127Y-100040500D01*
X141334786Y-100040499D01*
X141401824Y-100060182D01*
X141442174Y-100102499D01*
X141504477Y-100210412D01*
X141504479Y-100210415D01*
X141504480Y-100210416D01*
X141616284Y-100322220D01*
X141616286Y-100322221D01*
X141616290Y-100322224D01*
X141707321Y-100374780D01*
X141753216Y-100401277D01*
X141905943Y-100442200D01*
X142064057Y-100442200D01*
X162859903Y-100442200D01*
X162926942Y-100461885D01*
X162947584Y-100478519D01*
X164347233Y-101878168D01*
X164380718Y-101939491D01*
X164375734Y-102009183D01*
X164347233Y-102053530D01*
X159286946Y-107113817D01*
X159225623Y-107147302D01*
X159160948Y-107144068D01*
X159146637Y-107139418D01*
X159146634Y-107139417D01*
X158985001Y-107113817D01*
X158944455Y-107107395D01*
X158739751Y-107107395D01*
X158715432Y-107111246D01*
X158537568Y-107139417D01*
X158342879Y-107202676D01*
X158160489Y-107295610D01*
X157994889Y-107415923D01*
X157850131Y-107560681D01*
X157729818Y-107726281D01*
X157636884Y-107908671D01*
X157573625Y-108103360D01*
X157541603Y-108305543D01*
X157541603Y-108462400D01*
X157521918Y-108529439D01*
X157469114Y-108575194D01*
X157417603Y-108586400D01*
X127787650Y-108586400D01*
X127720611Y-108566715D01*
X127674856Y-108513911D01*
X127664912Y-108444753D01*
X127684547Y-108393510D01*
X127696391Y-108375783D01*
X127696394Y-108375779D01*
X127756737Y-108230097D01*
X127787500Y-108075442D01*
X127787500Y-107917758D01*
X127787500Y-107917755D01*
X127787499Y-107917753D01*
X127756738Y-107763110D01*
X127756737Y-107763103D01*
X127741485Y-107726281D01*
X127696397Y-107617427D01*
X127696390Y-107617414D01*
X127608789Y-107486311D01*
X127608786Y-107486307D01*
X127497292Y-107374813D01*
X127497288Y-107374810D01*
X127366185Y-107287209D01*
X127366172Y-107287202D01*
X127220501Y-107226864D01*
X127220489Y-107226861D01*
X127065845Y-107196100D01*
X127065842Y-107196100D01*
X126908158Y-107196100D01*
X126908155Y-107196100D01*
X126753510Y-107226861D01*
X126753498Y-107226864D01*
X126607827Y-107287202D01*
X126607814Y-107287209D01*
X126476125Y-107375202D01*
X126409447Y-107396080D01*
X126407234Y-107396100D01*
X102018109Y-107396100D01*
X101951070Y-107376415D01*
X101945224Y-107372418D01*
X101839512Y-107295614D01*
X101839508Y-107295612D01*
X101657123Y-107202681D01*
X101462434Y-107139422D01*
X101287895Y-107111778D01*
X101260252Y-107107400D01*
X101055548Y-107107400D01*
X101031229Y-107111251D01*
X100853365Y-107139422D01*
X100658676Y-107202681D01*
X100476286Y-107295615D01*
X100310686Y-107415928D01*
X100165928Y-107560686D01*
X100045615Y-107726286D01*
X99952681Y-107908676D01*
X99889422Y-108103365D01*
X99857400Y-108305548D01*
X94013385Y-108305548D01*
X90354857Y-104647020D01*
X90352965Y-104645087D01*
X89730861Y-103995228D01*
X89727206Y-103991239D01*
X89606830Y-103853977D01*
X89580173Y-103823580D01*
X124529972Y-103823580D01*
X124570785Y-103864393D01*
X125033514Y-104270196D01*
X125521774Y-104644851D01*
X126033486Y-104986766D01*
X126033511Y-104986782D01*
X126566496Y-105294501D01*
X127118472Y-105566705D01*
X127687067Y-105802225D01*
X127687078Y-105802229D01*
X128269852Y-106000055D01*
X128269860Y-106000057D01*
X128864345Y-106159349D01*
X128864363Y-106159353D01*
X129467952Y-106279414D01*
X129467963Y-106279416D01*
X130078139Y-106359747D01*
X130692287Y-106400000D01*
X131307713Y-106400000D01*
X131921860Y-106359747D01*
X132532036Y-106279416D01*
X132532047Y-106279414D01*
X133135636Y-106159353D01*
X133135654Y-106159349D01*
X133730139Y-106000057D01*
X133730147Y-106000055D01*
X134312921Y-105802229D01*
X134312932Y-105802225D01*
X134881527Y-105566705D01*
X135433503Y-105294501D01*
X135966488Y-104986782D01*
X135966513Y-104986766D01*
X136478225Y-104644851D01*
X136966485Y-104270196D01*
X137429207Y-103864400D01*
X137470027Y-103823579D01*
X131000000Y-97353553D01*
X124529972Y-103823580D01*
X89580173Y-103823580D01*
X89234317Y-103429207D01*
X89134928Y-103315876D01*
X89131476Y-103311762D01*
X88569174Y-102611149D01*
X88565909Y-102606892D01*
X88034737Y-101882465D01*
X88031660Y-101878070D01*
X87764106Y-101477648D01*
X92449500Y-101477648D01*
X92449500Y-101682351D01*
X92481522Y-101884534D01*
X92544781Y-102079223D01*
X92595021Y-102177822D01*
X92615112Y-102217254D01*
X92637715Y-102261613D01*
X92758028Y-102427213D01*
X92902786Y-102571971D01*
X93057749Y-102684556D01*
X93068390Y-102692287D01*
X93184607Y-102751503D01*
X93250776Y-102785218D01*
X93250778Y-102785218D01*
X93250781Y-102785220D01*
X93328742Y-102810551D01*
X93445465Y-102848477D01*
X93546557Y-102864488D01*
X93647648Y-102880500D01*
X93647649Y-102880500D01*
X93852351Y-102880500D01*
X93852352Y-102880500D01*
X94054534Y-102848477D01*
X94249219Y-102785220D01*
X94431610Y-102692287D01*
X94549172Y-102606874D01*
X94597213Y-102571971D01*
X94597215Y-102571968D01*
X94597219Y-102571966D01*
X94741966Y-102427219D01*
X94741968Y-102427215D01*
X94741971Y-102427213D01*
X94862284Y-102261614D01*
X94862285Y-102261613D01*
X94862287Y-102261610D01*
X94874258Y-102238114D01*
X94893959Y-102217254D01*
X94911375Y-102194443D01*
X94918925Y-102190819D01*
X94922231Y-102187319D01*
X94942510Y-102177822D01*
X94947497Y-102176015D01*
X95083485Y-102139577D01*
X95133604Y-102110639D01*
X95220416Y-102060520D01*
X95332220Y-101948716D01*
X95332220Y-101948714D01*
X95342428Y-101938507D01*
X95342429Y-101938504D01*
X96683016Y-100597919D01*
X96744339Y-100564434D01*
X96770697Y-100561600D01*
X119431960Y-100561600D01*
X119498999Y-100581285D01*
X119519636Y-100597914D01*
X119586208Y-100664486D01*
X119586212Y-100664490D01*
X119717314Y-100752090D01*
X119717327Y-100752097D01*
X119821316Y-100795170D01*
X119863003Y-100812437D01*
X119991657Y-100838028D01*
X120017653Y-100843199D01*
X120017656Y-100843200D01*
X120017658Y-100843200D01*
X120175344Y-100843200D01*
X120175345Y-100843199D01*
X120329997Y-100812437D01*
X120475679Y-100752094D01*
X120606789Y-100664489D01*
X120718289Y-100552989D01*
X120805894Y-100421879D01*
X120866237Y-100276197D01*
X120897000Y-100121542D01*
X120897000Y-100042369D01*
X120916685Y-99975330D01*
X120946688Y-99943103D01*
X121007546Y-99897546D01*
X121093796Y-99782331D01*
X121144091Y-99647483D01*
X121150500Y-99587873D01*
X121150499Y-96692287D01*
X121600000Y-96692287D01*
X121600000Y-97307712D01*
X121640252Y-97921860D01*
X121720583Y-98532036D01*
X121720585Y-98532047D01*
X121840646Y-99135636D01*
X121840650Y-99135654D01*
X121999942Y-99730139D01*
X121999944Y-99730147D01*
X122197770Y-100312921D01*
X122197774Y-100312932D01*
X122433294Y-100881527D01*
X122705498Y-101433503D01*
X123013217Y-101966488D01*
X123013233Y-101966513D01*
X123355148Y-102478225D01*
X123729803Y-102966485D01*
X124135606Y-103429214D01*
X124176419Y-103470027D01*
X130646446Y-97000000D01*
X130646446Y-96999999D01*
X131353553Y-96999999D01*
X131353553Y-97000000D01*
X137823579Y-103470027D01*
X137823580Y-103470027D01*
X137864400Y-103429207D01*
X138270196Y-102966485D01*
X138644851Y-102478225D01*
X138986766Y-101966513D01*
X138986782Y-101966488D01*
X139294501Y-101433503D01*
X139566705Y-100881527D01*
X139802225Y-100312932D01*
X139802229Y-100312921D01*
X140000055Y-99730147D01*
X140000057Y-99730139D01*
X140159349Y-99135654D01*
X140159353Y-99135636D01*
X140279414Y-98532047D01*
X140279416Y-98532036D01*
X140359747Y-97921860D01*
X140400000Y-97307712D01*
X140400000Y-96692287D01*
X140359747Y-96078139D01*
X140279416Y-95467963D01*
X140279414Y-95467952D01*
X140159353Y-94864363D01*
X140159349Y-94864345D01*
X140000057Y-94269860D01*
X140000055Y-94269852D01*
X139802229Y-93687078D01*
X139802225Y-93687067D01*
X139566705Y-93118472D01*
X139294501Y-92566496D01*
X138986782Y-92033511D01*
X138986766Y-92033486D01*
X138718279Y-91631667D01*
X138675503Y-91567648D01*
X164949500Y-91567648D01*
X164949500Y-91772351D01*
X164981522Y-91974534D01*
X165044781Y-92169223D01*
X165137715Y-92351613D01*
X165258028Y-92517213D01*
X165402786Y-92661971D01*
X165557749Y-92774556D01*
X165568390Y-92782287D01*
X165684607Y-92841503D01*
X165750776Y-92875218D01*
X165750778Y-92875218D01*
X165750781Y-92875220D01*
X165855137Y-92909127D01*
X165945465Y-92938477D01*
X166046557Y-92954488D01*
X166147648Y-92970500D01*
X166147649Y-92970500D01*
X166352351Y-92970500D01*
X166352352Y-92970500D01*
X166554534Y-92938477D01*
X166749219Y-92875220D01*
X166931610Y-92782287D01*
X167036336Y-92706200D01*
X167097213Y-92661971D01*
X167097215Y-92661968D01*
X167097219Y-92661966D01*
X167241966Y-92517219D01*
X167241968Y-92517215D01*
X167241971Y-92517213D01*
X167294732Y-92444590D01*
X167362287Y-92351610D01*
X167455220Y-92169219D01*
X167518477Y-91974534D01*
X167550500Y-91772352D01*
X167550500Y-91567648D01*
X167518477Y-91365466D01*
X167455220Y-91170781D01*
X167455218Y-91170778D01*
X167455218Y-91170776D01*
X167421503Y-91104607D01*
X167362287Y-90988390D01*
X167354556Y-90977749D01*
X167241971Y-90822786D01*
X167097213Y-90678028D01*
X166931613Y-90557715D01*
X166931612Y-90557714D01*
X166931610Y-90557713D01*
X166874653Y-90528691D01*
X166749223Y-90464781D01*
X166554534Y-90401522D01*
X166379995Y-90373878D01*
X166352352Y-90369500D01*
X166147648Y-90369500D01*
X166123329Y-90373351D01*
X165945465Y-90401522D01*
X165750776Y-90464781D01*
X165568386Y-90557715D01*
X165402786Y-90678028D01*
X165258028Y-90822786D01*
X165137715Y-90988386D01*
X165044781Y-91170776D01*
X164981522Y-91365465D01*
X164949500Y-91567648D01*
X138675503Y-91567648D01*
X138644851Y-91521774D01*
X138270196Y-91033514D01*
X137864393Y-90570785D01*
X137823580Y-90529972D01*
X131353553Y-96999999D01*
X130646446Y-96999999D01*
X124176419Y-90529972D01*
X124176418Y-90529972D01*
X124135628Y-90570762D01*
X124135601Y-90570791D01*
X123729803Y-91033514D01*
X123355148Y-91521774D01*
X123013233Y-92033486D01*
X123013217Y-92033511D01*
X122705498Y-92566496D01*
X122433294Y-93118472D01*
X122197774Y-93687067D01*
X122197770Y-93687078D01*
X121999944Y-94269852D01*
X121999942Y-94269860D01*
X121840650Y-94864345D01*
X121840646Y-94864363D01*
X121720585Y-95467952D01*
X121720583Y-95467963D01*
X121640252Y-96078139D01*
X121600000Y-96692287D01*
X121150499Y-96692287D01*
X121150499Y-94412128D01*
X121144091Y-94352517D01*
X121093796Y-94217669D01*
X121093795Y-94217668D01*
X121093793Y-94217664D01*
X121007547Y-94102455D01*
X121007544Y-94102452D01*
X120892335Y-94016206D01*
X120892328Y-94016202D01*
X120757482Y-93965908D01*
X120757483Y-93965908D01*
X120697883Y-93959501D01*
X120697881Y-93959500D01*
X120697873Y-93959500D01*
X120697864Y-93959500D01*
X119332129Y-93959500D01*
X119332123Y-93959501D01*
X119272516Y-93965908D01*
X119137671Y-94016202D01*
X119137664Y-94016206D01*
X119022455Y-94102452D01*
X119022452Y-94102455D01*
X118936206Y-94217664D01*
X118936202Y-94217671D01*
X118885908Y-94352517D01*
X118879501Y-94412116D01*
X118879501Y-94412123D01*
X118879500Y-94412135D01*
X118879501Y-99236600D01*
X118859816Y-99303639D01*
X118807012Y-99349394D01*
X118755501Y-99360600D01*
X96391540Y-99360600D01*
X96350619Y-99371564D01*
X96350619Y-99371565D01*
X96313351Y-99381551D01*
X96238814Y-99401523D01*
X96238809Y-99401526D01*
X96101890Y-99480575D01*
X96101882Y-99480581D01*
X95990078Y-99592386D01*
X94883505Y-100698958D01*
X94822182Y-100732443D01*
X94752490Y-100727459D01*
X94708143Y-100698958D01*
X94597213Y-100588028D01*
X94431613Y-100467715D01*
X94431612Y-100467714D01*
X94431610Y-100467713D01*
X94341656Y-100421879D01*
X94249223Y-100374781D01*
X94054534Y-100311522D01*
X93879995Y-100283878D01*
X93852352Y-100279500D01*
X93647648Y-100279500D01*
X93623329Y-100283351D01*
X93445465Y-100311522D01*
X93250776Y-100374781D01*
X93068386Y-100467715D01*
X92902786Y-100588028D01*
X92758028Y-100732786D01*
X92637715Y-100898386D01*
X92544781Y-101080776D01*
X92481522Y-101275465D01*
X92449500Y-101477648D01*
X87764106Y-101477648D01*
X87532577Y-101131142D01*
X87529679Y-101126592D01*
X87501880Y-101080781D01*
X87063673Y-100358638D01*
X87060972Y-100353959D01*
X87043559Y-100322220D01*
X86628904Y-99566403D01*
X86626409Y-99561609D01*
X86586450Y-99480581D01*
X86416351Y-99135654D01*
X86229119Y-98755984D01*
X86226832Y-98751081D01*
X86045937Y-98339965D01*
X85865039Y-97928842D01*
X85862972Y-97923851D01*
X85862198Y-97921860D01*
X85537390Y-97086620D01*
X85535564Y-97081602D01*
X85246814Y-96230970D01*
X85245187Y-96225811D01*
X84993817Y-95363402D01*
X84992420Y-95358185D01*
X84778914Y-94485655D01*
X84777743Y-94480373D01*
X84702570Y-94102454D01*
X84602498Y-93599361D01*
X84601559Y-93594038D01*
X84490923Y-92875220D01*
X84464906Y-92706188D01*
X84464202Y-92700837D01*
X84366407Y-91807881D01*
X84365940Y-91802546D01*
X84334158Y-91317648D01*
X92449500Y-91317648D01*
X92449500Y-91522351D01*
X92481522Y-91724534D01*
X92544781Y-91919223D01*
X92637715Y-92101613D01*
X92758028Y-92267213D01*
X92902786Y-92411971D01*
X93057749Y-92524556D01*
X93068390Y-92532287D01*
X93184607Y-92591503D01*
X93250776Y-92625218D01*
X93250778Y-92625218D01*
X93250781Y-92625220D01*
X93355137Y-92659127D01*
X93445465Y-92688477D01*
X93540493Y-92703528D01*
X93647648Y-92720500D01*
X93647649Y-92720500D01*
X93852351Y-92720500D01*
X93852352Y-92720500D01*
X94054534Y-92688477D01*
X94249219Y-92625220D01*
X94431610Y-92532287D01*
X94524590Y-92464732D01*
X94597213Y-92411971D01*
X94597215Y-92411968D01*
X94597219Y-92411966D01*
X94741966Y-92267219D01*
X94741968Y-92267215D01*
X94741971Y-92267213D01*
X94794732Y-92194590D01*
X94862287Y-92101610D01*
X94955220Y-91919219D01*
X95018477Y-91724534D01*
X95050500Y-91522352D01*
X95050500Y-91317648D01*
X95018477Y-91115466D01*
X94955220Y-90920781D01*
X94955218Y-90920778D01*
X94955218Y-90920776D01*
X94905286Y-90822781D01*
X94862287Y-90738390D01*
X94854556Y-90727749D01*
X94741971Y-90572786D01*
X94597213Y-90428028D01*
X94431613Y-90307715D01*
X94431612Y-90307714D01*
X94431610Y-90307713D01*
X94289963Y-90235540D01*
X94249223Y-90214781D01*
X94131152Y-90176417D01*
X124529972Y-90176417D01*
X124529972Y-90176418D01*
X130999999Y-96646446D01*
X137470027Y-90176419D01*
X137429214Y-90135606D01*
X136966485Y-89729803D01*
X136478225Y-89355148D01*
X135966513Y-89013233D01*
X135966488Y-89013217D01*
X135433503Y-88705498D01*
X134881527Y-88433294D01*
X134312932Y-88197774D01*
X134312921Y-88197770D01*
X133730147Y-87999944D01*
X133730139Y-87999942D01*
X133135654Y-87840650D01*
X133135636Y-87840646D01*
X132532047Y-87720585D01*
X132532036Y-87720583D01*
X131921860Y-87640252D01*
X131307713Y-87600000D01*
X130692287Y-87600000D01*
X130078139Y-87640252D01*
X129467963Y-87720583D01*
X129467952Y-87720585D01*
X128864363Y-87840646D01*
X128864345Y-87840650D01*
X128269860Y-87999942D01*
X128269852Y-87999944D01*
X127687078Y-88197770D01*
X127687067Y-88197774D01*
X127118472Y-88433294D01*
X126566496Y-88705498D01*
X126033511Y-89013217D01*
X126033486Y-89013233D01*
X125521774Y-89355148D01*
X125033514Y-89729803D01*
X124570791Y-90135601D01*
X124570762Y-90135628D01*
X124529972Y-90176417D01*
X94131152Y-90176417D01*
X94054534Y-90151522D01*
X93879995Y-90123878D01*
X93852352Y-90119500D01*
X93647648Y-90119500D01*
X93623329Y-90123351D01*
X93445465Y-90151522D01*
X93250776Y-90214781D01*
X93068386Y-90307715D01*
X92902786Y-90428028D01*
X92758028Y-90572786D01*
X92637715Y-90738386D01*
X92544781Y-90920776D01*
X92481522Y-91115465D01*
X92449500Y-91317648D01*
X84334158Y-91317648D01*
X84307185Y-90906109D01*
X84306951Y-90900725D01*
X84305250Y-90822786D01*
X84287356Y-90002681D01*
X84287356Y-89997273D01*
X84306951Y-89099230D01*
X84307184Y-89093848D01*
X84365940Y-88197405D01*
X84366407Y-88192078D01*
X84464204Y-87299100D01*
X84464908Y-87293755D01*
X84472978Y-87241329D01*
X84601561Y-86405904D01*
X84602499Y-86400589D01*
X84777743Y-85519582D01*
X84778914Y-85514300D01*
X84992420Y-84641770D01*
X84993820Y-84636544D01*
X85173382Y-84020498D01*
X85245191Y-83774130D01*
X85246814Y-83768985D01*
X85315082Y-83567873D01*
X85535569Y-82918338D01*
X85537385Y-82913349D01*
X85862981Y-82076080D01*
X85865032Y-82071129D01*
X86226836Y-81248864D01*
X86229119Y-81243971D01*
X86251882Y-81197812D01*
X86626421Y-80438322D01*
X86628894Y-80433571D01*
X86927229Y-79889778D01*
X92334500Y-79889778D01*
X92334500Y-80110221D01*
X92368985Y-80327952D01*
X92437103Y-80537603D01*
X92437104Y-80537606D01*
X92487657Y-80636819D01*
X92532333Y-80724500D01*
X92537187Y-80734025D01*
X92666752Y-80912358D01*
X92666756Y-80912363D01*
X92822636Y-81068243D01*
X92822641Y-81068247D01*
X92898939Y-81123680D01*
X93000978Y-81197815D01*
X93129375Y-81263237D01*
X93197393Y-81297895D01*
X93197396Y-81297896D01*
X93302221Y-81331955D01*
X93407049Y-81366015D01*
X93624778Y-81400500D01*
X93624779Y-81400500D01*
X93845221Y-81400500D01*
X93845222Y-81400500D01*
X94062951Y-81366015D01*
X94272606Y-81297895D01*
X94469022Y-81197815D01*
X94647365Y-81068242D01*
X94697536Y-81018070D01*
X94758857Y-80984586D01*
X94828548Y-80989570D01*
X94884482Y-81031441D01*
X94901398Y-81062419D01*
X94931202Y-81142328D01*
X94931206Y-81142335D01*
X95017452Y-81257544D01*
X95017455Y-81257547D01*
X95132664Y-81343793D01*
X95132671Y-81343797D01*
X95267517Y-81394091D01*
X95267516Y-81394091D01*
X95274444Y-81394835D01*
X95327127Y-81400500D01*
X97222872Y-81400499D01*
X97282483Y-81394091D01*
X97417331Y-81343796D01*
X97532546Y-81257546D01*
X97597684Y-81170532D01*
X97653615Y-81128664D01*
X97723306Y-81123680D01*
X97784629Y-81157165D01*
X99877984Y-83250520D01*
X99877986Y-83250521D01*
X99877990Y-83250524D01*
X100014909Y-83329573D01*
X100014916Y-83329577D01*
X100167643Y-83370501D01*
X100167645Y-83370501D01*
X100333354Y-83370501D01*
X100333370Y-83370500D01*
X126085501Y-83370500D01*
X126152540Y-83390185D01*
X126198295Y-83442989D01*
X126209501Y-83494500D01*
X126209501Y-83567876D01*
X126215908Y-83627483D01*
X126266202Y-83762328D01*
X126266206Y-83762335D01*
X126352452Y-83877544D01*
X126352455Y-83877547D01*
X126467664Y-83963793D01*
X126467671Y-83963797D01*
X126602517Y-84014091D01*
X126602516Y-84014091D01*
X126609444Y-84014835D01*
X126662127Y-84020500D01*
X128257872Y-84020499D01*
X128317483Y-84014091D01*
X128452331Y-83963796D01*
X128567546Y-83877546D01*
X128653796Y-83762331D01*
X128656299Y-83755617D01*
X128668434Y-83723086D01*
X128704091Y-83627482D01*
X128710500Y-83567873D01*
X128710500Y-83494500D01*
X128730185Y-83427461D01*
X128782989Y-83381706D01*
X128834500Y-83370500D01*
X129913331Y-83370500D01*
X129913347Y-83370501D01*
X129920943Y-83370501D01*
X130079054Y-83370501D01*
X130079057Y-83370501D01*
X130231785Y-83329577D01*
X130281904Y-83300639D01*
X130368716Y-83250520D01*
X130480520Y-83138716D01*
X130480520Y-83138714D01*
X130490728Y-83128507D01*
X130490729Y-83128504D01*
X131084582Y-82534652D01*
X131145902Y-82501169D01*
X131215594Y-82506153D01*
X131271527Y-82548025D01*
X131295944Y-82613489D01*
X131294733Y-82641732D01*
X131290000Y-82671616D01*
X131290000Y-82868382D01*
X131320778Y-83062705D01*
X131381581Y-83249835D01*
X131470905Y-83425145D01*
X131496319Y-83460125D01*
X131496320Y-83460125D01*
X132140000Y-82816445D01*
X132140000Y-82822661D01*
X132167259Y-82924394D01*
X132219920Y-83015606D01*
X132294394Y-83090080D01*
X132385606Y-83142741D01*
X132487339Y-83170000D01*
X132493553Y-83170000D01*
X131849873Y-83813677D01*
X131849873Y-83813678D01*
X131884858Y-83839096D01*
X132060164Y-83928418D01*
X132247294Y-83989221D01*
X132441618Y-84020000D01*
X132638382Y-84020000D01*
X132832705Y-83989221D01*
X133019835Y-83928418D01*
X133195143Y-83839095D01*
X133230125Y-83813678D01*
X133230126Y-83813678D01*
X132586448Y-83170000D01*
X132592661Y-83170000D01*
X132694394Y-83142741D01*
X132785606Y-83090080D01*
X132860080Y-83015606D01*
X132912741Y-82924394D01*
X132940000Y-82822661D01*
X132940000Y-82816448D01*
X133583678Y-83460126D01*
X133583678Y-83460125D01*
X133609095Y-83425143D01*
X133698418Y-83249835D01*
X133759221Y-83062705D01*
X133790000Y-82868382D01*
X133790000Y-82671617D01*
X133759221Y-82477294D01*
X133698418Y-82290164D01*
X133609096Y-82114858D01*
X133583678Y-82079873D01*
X133583677Y-82079873D01*
X132940000Y-82723551D01*
X132940000Y-82717339D01*
X132912741Y-82615606D01*
X132860080Y-82524394D01*
X132785606Y-82449920D01*
X132694394Y-82397259D01*
X132592661Y-82370000D01*
X132586446Y-82370000D01*
X133230125Y-81726320D01*
X133230125Y-81726319D01*
X133195145Y-81700905D01*
X133019835Y-81611581D01*
X132832705Y-81550778D01*
X132638382Y-81520000D01*
X132441618Y-81520000D01*
X132411734Y-81524733D01*
X132342440Y-81515778D01*
X132288988Y-81470782D01*
X132268349Y-81404030D01*
X132287074Y-81336717D01*
X132304649Y-81314585D01*
X132982417Y-80636819D01*
X133043740Y-80603334D01*
X133070098Y-80600500D01*
X162200501Y-80600500D01*
X162267540Y-80620185D01*
X162313295Y-80672989D01*
X162324501Y-80724500D01*
X162324501Y-80947876D01*
X162330908Y-81007483D01*
X162381202Y-81142328D01*
X162381206Y-81142335D01*
X162467452Y-81257544D01*
X162467455Y-81257547D01*
X162582664Y-81343793D01*
X162582671Y-81343797D01*
X162717517Y-81394091D01*
X162717516Y-81394091D01*
X162724444Y-81394835D01*
X162777127Y-81400500D01*
X164672872Y-81400499D01*
X164732483Y-81394091D01*
X164867331Y-81343796D01*
X164982546Y-81257546D01*
X165068796Y-81142331D01*
X165068798Y-81142326D01*
X165098601Y-81062420D01*
X165140471Y-81006486D01*
X165205936Y-80982068D01*
X165274209Y-80996919D01*
X165302464Y-81018071D01*
X165352636Y-81068243D01*
X165352641Y-81068247D01*
X165428939Y-81123680D01*
X165530978Y-81197815D01*
X165659375Y-81263237D01*
X165727393Y-81297895D01*
X165727396Y-81297896D01*
X165832221Y-81331955D01*
X165937049Y-81366015D01*
X166154778Y-81400500D01*
X166154779Y-81400500D01*
X166375221Y-81400500D01*
X166375222Y-81400500D01*
X166592951Y-81366015D01*
X166802606Y-81297895D01*
X166999022Y-81197815D01*
X167177365Y-81068242D01*
X167333242Y-80912365D01*
X167462815Y-80734022D01*
X167562895Y-80537606D01*
X167631015Y-80327951D01*
X167665500Y-80110222D01*
X167665500Y-79889778D01*
X167631015Y-79672049D01*
X167595680Y-79563298D01*
X167562895Y-79462393D01*
X167562893Y-79462390D01*
X167547196Y-79431584D01*
X167462815Y-79265978D01*
X167404501Y-79185715D01*
X167333247Y-79087641D01*
X167333243Y-79087636D01*
X167177363Y-78931756D01*
X167177358Y-78931752D01*
X166999025Y-78802187D01*
X166999024Y-78802186D01*
X166999022Y-78802185D01*
X166881791Y-78742452D01*
X166802606Y-78702104D01*
X166802603Y-78702103D01*
X166592952Y-78633985D01*
X166458942Y-78612760D01*
X166375222Y-78599500D01*
X166154778Y-78599500D01*
X166082201Y-78610995D01*
X165937047Y-78633985D01*
X165727396Y-78702103D01*
X165727393Y-78702104D01*
X165530974Y-78802187D01*
X165352641Y-78931752D01*
X165352636Y-78931756D01*
X165302463Y-78981929D01*
X165241140Y-79015413D01*
X165171448Y-79010428D01*
X165115515Y-78968557D01*
X165098601Y-78937580D01*
X165068797Y-78857671D01*
X165068793Y-78857664D01*
X164982547Y-78742455D01*
X164982544Y-78742452D01*
X164867335Y-78656206D01*
X164867328Y-78656202D01*
X164732482Y-78605908D01*
X164732483Y-78605908D01*
X164672883Y-78599501D01*
X164672881Y-78599500D01*
X164672873Y-78599500D01*
X164672864Y-78599500D01*
X162777129Y-78599500D01*
X162777123Y-78599501D01*
X162717516Y-78605908D01*
X162582671Y-78656202D01*
X162582664Y-78656206D01*
X162467455Y-78742452D01*
X162467452Y-78742455D01*
X162381206Y-78857664D01*
X162381202Y-78857671D01*
X162330908Y-78992517D01*
X162324501Y-79052116D01*
X162324501Y-79052123D01*
X162324500Y-79052135D01*
X162324500Y-79275500D01*
X162304815Y-79342539D01*
X162252011Y-79388294D01*
X162200500Y-79399500D01*
X132856670Y-79399500D01*
X132856654Y-79399499D01*
X132849058Y-79399499D01*
X132690943Y-79399499D01*
X132631773Y-79415354D01*
X132538214Y-79440423D01*
X132538209Y-79440426D01*
X132401290Y-79519475D01*
X132401282Y-79519481D01*
X131456024Y-80464739D01*
X131394701Y-80498224D01*
X131325009Y-80493240D01*
X131269076Y-80451368D01*
X131244659Y-80385904D01*
X131245870Y-80357659D01*
X131250501Y-80328421D01*
X131250501Y-80131577D01*
X131219710Y-79937173D01*
X131158883Y-79749970D01*
X131102012Y-79638355D01*
X131069525Y-79574595D01*
X130953829Y-79415354D01*
X130814647Y-79276172D01*
X130655406Y-79160476D01*
X130480030Y-79071117D01*
X130292827Y-79010290D01*
X130098423Y-78979500D01*
X130098418Y-78979500D01*
X129901584Y-78979500D01*
X129901579Y-78979500D01*
X129707174Y-79010290D01*
X129519971Y-79071117D01*
X129344595Y-79160476D01*
X129253742Y-79226485D01*
X129185355Y-79276172D01*
X129185353Y-79276174D01*
X129185352Y-79276174D01*
X129046175Y-79415351D01*
X129046175Y-79415352D01*
X129046173Y-79415354D01*
X129027957Y-79440426D01*
X128930477Y-79574594D01*
X128841118Y-79749970D01*
X128780291Y-79937173D01*
X128749501Y-80131577D01*
X128749501Y-80328422D01*
X128780291Y-80522826D01*
X128841118Y-80710029D01*
X128930477Y-80885405D01*
X129046173Y-81044646D01*
X129185355Y-81183828D01*
X129344596Y-81299524D01*
X129417592Y-81336717D01*
X129519971Y-81388882D01*
X129519973Y-81388882D01*
X129519976Y-81388884D01*
X129620318Y-81421487D01*
X129707174Y-81449709D01*
X129901579Y-81480500D01*
X129901584Y-81480500D01*
X130098422Y-81480500D01*
X130127660Y-81475869D01*
X130196954Y-81484823D01*
X130250406Y-81529819D01*
X130271046Y-81596571D01*
X130252322Y-81663884D01*
X130234740Y-81686023D01*
X129787584Y-82133181D01*
X129726261Y-82166666D01*
X129699903Y-82169500D01*
X128834499Y-82169500D01*
X128767460Y-82149815D01*
X128721705Y-82097011D01*
X128710499Y-82045500D01*
X128710499Y-81972129D01*
X128710498Y-81972123D01*
X128710497Y-81972116D01*
X128704091Y-81912517D01*
X128700190Y-81902059D01*
X128653797Y-81777671D01*
X128653793Y-81777664D01*
X128567547Y-81662455D01*
X128567544Y-81662452D01*
X128452335Y-81576206D01*
X128452328Y-81576202D01*
X128317482Y-81525908D01*
X128317483Y-81525908D01*
X128257883Y-81519501D01*
X128257881Y-81519500D01*
X128257873Y-81519500D01*
X128257864Y-81519500D01*
X126662129Y-81519500D01*
X126662123Y-81519501D01*
X126602516Y-81525908D01*
X126467671Y-81576202D01*
X126467664Y-81576206D01*
X126352455Y-81662452D01*
X126352452Y-81662455D01*
X126266206Y-81777664D01*
X126266202Y-81777671D01*
X126215908Y-81912517D01*
X126209501Y-81972116D01*
X126209501Y-81972123D01*
X126209500Y-81972135D01*
X126209500Y-82045500D01*
X126189815Y-82112539D01*
X126137011Y-82158294D01*
X126085500Y-82169500D01*
X100546798Y-82169500D01*
X100479759Y-82149815D01*
X100459117Y-82133181D01*
X97964290Y-79638355D01*
X97964288Y-79638352D01*
X97845417Y-79519481D01*
X97845416Y-79519480D01*
X97746539Y-79462394D01*
X97745937Y-79462046D01*
X97737492Y-79457170D01*
X97707825Y-79426052D01*
X97689283Y-79406605D01*
X97689282Y-79406602D01*
X97689280Y-79406600D01*
X97689273Y-79406564D01*
X97675499Y-79349787D01*
X97675499Y-79052129D01*
X97675498Y-79052123D01*
X97675497Y-79052116D01*
X97669091Y-78992517D01*
X97648601Y-78937581D01*
X97618797Y-78857671D01*
X97618793Y-78857664D01*
X97532547Y-78742455D01*
X97532544Y-78742452D01*
X97417335Y-78656206D01*
X97417328Y-78656202D01*
X97282482Y-78605908D01*
X97282483Y-78605908D01*
X97222883Y-78599501D01*
X97222881Y-78599500D01*
X97222873Y-78599500D01*
X97222864Y-78599500D01*
X95327129Y-78599500D01*
X95327123Y-78599501D01*
X95267516Y-78605908D01*
X95132671Y-78656202D01*
X95132664Y-78656206D01*
X95017455Y-78742452D01*
X95017452Y-78742455D01*
X94931206Y-78857664D01*
X94931203Y-78857669D01*
X94901398Y-78937581D01*
X94859526Y-78993514D01*
X94794062Y-79017931D01*
X94725789Y-79003079D01*
X94697535Y-78981928D01*
X94647363Y-78931756D01*
X94647358Y-78931752D01*
X94469025Y-78802187D01*
X94469024Y-78802186D01*
X94469022Y-78802185D01*
X94351791Y-78742452D01*
X94272606Y-78702104D01*
X94272603Y-78702103D01*
X94062952Y-78633985D01*
X93928942Y-78612760D01*
X93845222Y-78599500D01*
X93624778Y-78599500D01*
X93552201Y-78610995D01*
X93407047Y-78633985D01*
X93197396Y-78702103D01*
X93197393Y-78702104D01*
X93000974Y-78802187D01*
X92822641Y-78931752D01*
X92822636Y-78931756D01*
X92666756Y-79087636D01*
X92666752Y-79087641D01*
X92537187Y-79265974D01*
X92437107Y-79462390D01*
X92437105Y-79462393D01*
X92368985Y-79672047D01*
X92334500Y-79889778D01*
X86927229Y-79889778D01*
X87060979Y-79645984D01*
X87063661Y-79641338D01*
X87529701Y-78873328D01*
X87532564Y-78868834D01*
X88031674Y-78121863D01*
X88034722Y-78117511D01*
X88565925Y-77393040D01*
X88569157Y-77388827D01*
X89131494Y-76688170D01*
X89134909Y-76684101D01*
X89727219Y-76008700D01*
X89730846Y-76004742D01*
X90352046Y-75355828D01*
X90355861Y-75352014D01*
X91004764Y-74730824D01*
X91008722Y-74727197D01*
X91684123Y-74134887D01*
X91688192Y-74131472D01*
X92388849Y-73569135D01*
X92393062Y-73565903D01*
X93117533Y-73034700D01*
X93121885Y-73031652D01*
X93868856Y-72532542D01*
X93873350Y-72529678D01*
X94641359Y-72063639D01*
X94645991Y-72060965D01*
X95433593Y-71628872D01*
X95438344Y-71626399D01*
X96244003Y-71229092D01*
X96248886Y-71226814D01*
X97071151Y-70865010D01*
X97076102Y-70862959D01*
X97913371Y-70537363D01*
X97918360Y-70535547D01*
X98769007Y-70246791D01*
X98774152Y-70245169D01*
X99636587Y-69993792D01*
X99641771Y-69992403D01*
X100514335Y-69778889D01*
X100519591Y-69777723D01*
X101400624Y-69602474D01*
X101405926Y-69601539D01*
X102293795Y-69464883D01*
X102299122Y-69464182D01*
X103192100Y-69366385D01*
X103197427Y-69365918D01*
X104093870Y-69307162D01*
X104099229Y-69306929D01*
X104997296Y-69287334D01*
X105002704Y-69287334D01*
X105900768Y-69306929D01*
X105906131Y-69307163D01*
X106802568Y-69365918D01*
X106807903Y-69366385D01*
X107700871Y-69464181D01*
X107706210Y-69464884D01*
X108594065Y-69601537D01*
X108599383Y-69602476D01*
X108925952Y-69667435D01*
X109480395Y-69777721D01*
X109485674Y-69778891D01*
X110358216Y-69992400D01*
X110363424Y-69993795D01*
X111103043Y-70209375D01*
X111225833Y-70245165D01*
X111230992Y-70246792D01*
X111490886Y-70335014D01*
X112081624Y-70535542D01*
X112086642Y-70537368D01*
X112923873Y-70862950D01*
X112928864Y-70865017D01*
X113325038Y-71039337D01*
X113751103Y-71226810D01*
X113756006Y-71229097D01*
X114561631Y-71626387D01*
X114566425Y-71628882D01*
X115254928Y-72006608D01*
X115353981Y-72060950D01*
X115358660Y-72063651D01*
X116126628Y-72529666D01*
X116131164Y-72532555D01*
X116878092Y-73031638D01*
X116882487Y-73034715D01*
X117606914Y-73565887D01*
X117611171Y-73569152D01*
X118311784Y-74131454D01*
X118315898Y-74134906D01*
X118761787Y-74525940D01*
X118991261Y-74727184D01*
X118995250Y-74730839D01*
X119645109Y-75352943D01*
X119647042Y-75354835D01*
X119692686Y-75400479D01*
X119791521Y-75457542D01*
X119806810Y-75466369D01*
X119806814Y-75466371D01*
X119934108Y-75500479D01*
X119934110Y-75500479D01*
X120065890Y-75500479D01*
X120065892Y-75500479D01*
X120193186Y-75466371D01*
X120307314Y-75400479D01*
X120400500Y-75307293D01*
X120466392Y-75193165D01*
X120500500Y-75065871D01*
X120500500Y-75001956D01*
X120500564Y-74997983D01*
X120519890Y-74395323D01*
X120520399Y-74387390D01*
X120578110Y-73789151D01*
X120579121Y-73781313D01*
X120675046Y-73187980D01*
X120676565Y-73180185D01*
X120810300Y-72594254D01*
X120812314Y-72586576D01*
X120983318Y-72010403D01*
X120985814Y-72002888D01*
X121193390Y-71438835D01*
X121196352Y-71431520D01*
X121439641Y-70881925D01*
X121443078Y-70874787D01*
X121458342Y-70845528D01*
X127249500Y-70845528D01*
X127249500Y-71154471D01*
X127284086Y-71461437D01*
X127284089Y-71461455D01*
X127352831Y-71762635D01*
X127352835Y-71762647D01*
X127454862Y-72054222D01*
X127454868Y-72054236D01*
X127588903Y-72332562D01*
X127588905Y-72332565D01*
X127753265Y-72594143D01*
X127945880Y-72835674D01*
X128164326Y-73054120D01*
X128405857Y-73246735D01*
X128667435Y-73411095D01*
X128945771Y-73545135D01*
X128945777Y-73545137D01*
X129237352Y-73647164D01*
X129237364Y-73647168D01*
X129538548Y-73715911D01*
X129538554Y-73715911D01*
X129538562Y-73715913D01*
X129743206Y-73738970D01*
X129845529Y-73750499D01*
X129845532Y-73750500D01*
X129845535Y-73750500D01*
X130154468Y-73750500D01*
X130154469Y-73750499D01*
X130311356Y-73732822D01*
X130461437Y-73715913D01*
X130461442Y-73715912D01*
X130461452Y-73715911D01*
X130762636Y-73647168D01*
X131054229Y-73545135D01*
X131332565Y-73411095D01*
X131594143Y-73246735D01*
X131835674Y-73054120D01*
X132054120Y-72835674D01*
X132246735Y-72594143D01*
X132411095Y-72332565D01*
X132545135Y-72054229D01*
X132647168Y-71762636D01*
X132715911Y-71461452D01*
X132718457Y-71438862D01*
X132742091Y-71229097D01*
X132750500Y-71154465D01*
X132750500Y-70845535D01*
X132738970Y-70743206D01*
X132715913Y-70538562D01*
X132715910Y-70538544D01*
X132647168Y-70237364D01*
X132647164Y-70237352D01*
X132561676Y-69993043D01*
X132545135Y-69945771D01*
X132411095Y-69667435D01*
X132246735Y-69405857D01*
X132054120Y-69164326D01*
X131835674Y-68945880D01*
X131594143Y-68753265D01*
X131332565Y-68588905D01*
X131332562Y-68588903D01*
X131054236Y-68454868D01*
X131054222Y-68454862D01*
X130762647Y-68352835D01*
X130762635Y-68352831D01*
X130461455Y-68284089D01*
X130461437Y-68284086D01*
X130154471Y-68249500D01*
X130154465Y-68249500D01*
X129845535Y-68249500D01*
X129845528Y-68249500D01*
X129538562Y-68284086D01*
X129538544Y-68284089D01*
X129237364Y-68352831D01*
X129237352Y-68352835D01*
X128945777Y-68454862D01*
X128945763Y-68454868D01*
X128667437Y-68588903D01*
X128405858Y-68753264D01*
X128164326Y-68945879D01*
X127945879Y-69164326D01*
X127753264Y-69405858D01*
X127588903Y-69667437D01*
X127454868Y-69945763D01*
X127454862Y-69945777D01*
X127352835Y-70237352D01*
X127352831Y-70237364D01*
X127284089Y-70538544D01*
X127284086Y-70538562D01*
X127249500Y-70845528D01*
X121458342Y-70845528D01*
X121721075Y-70341920D01*
X121724952Y-70335034D01*
X122036545Y-69821030D01*
X122040837Y-69814437D01*
X122384715Y-69321464D01*
X122389430Y-69315146D01*
X122764184Y-68845218D01*
X122769310Y-68839198D01*
X123173375Y-68394278D01*
X123178876Y-68388597D01*
X123610642Y-67970454D01*
X123616493Y-67965141D01*
X124074145Y-67575537D01*
X124080321Y-67570611D01*
X124562022Y-67211109D01*
X124568479Y-67206604D01*
X125072214Y-66878709D01*
X125078962Y-66874617D01*
X125602672Y-66579670D01*
X125609689Y-66576009D01*
X126151198Y-66315232D01*
X126158419Y-66312035D01*
X126715541Y-66086482D01*
X126722965Y-66083750D01*
X127293379Y-65894360D01*
X127300940Y-65892115D01*
X127882330Y-65739656D01*
X127890069Y-65737890D01*
X128479979Y-65623006D01*
X128487810Y-65621740D01*
X129083920Y-65544880D01*
X129091773Y-65544122D01*
X129657285Y-65507816D01*
X129691555Y-65505616D01*
X129699499Y-65505361D01*
X130300500Y-65505361D01*
X130308444Y-65505616D01*
G37*
G04 #@! TD.AperFunction*
M02*
