M48
; DRILL file {KiCad 9.0.0} date 2025-07-01T14:00:06-0400
; FORMAT={-:-/ absolute / metric / decimal}
; #@! TF.CreationDate,2025-07-01T14:00:06-04:00
; #@! TF.GenerationSoftware,Kicad,Pcbnew,9.0.0
; #@! TF.FileFunction,MixedPlating,1,2
FMAT,2
METRIC
; #@! TA.AperFunction,Plated,PTH,ViaDrill
T1C0.300
; #@! TA.AperFunction,Plated,PTH,ComponentDrill
T2C1.000
; #@! TA.AperFunction,Plated,PTH,ComponentDrill
T3C1.200
; #@! TA.AperFunction,NonPlated,NPTH,ComponentDrill
T4C5.000
%
G90
G05
T1
X97.134Y-87.024
X127.001Y-77.913
X133.041Y-78.875
X138.964Y-77.571
X144.939Y-77.569
T2
X111.992Y-87.25
X111.992Y-102.25
X119.7Y-93.65
X119.7Y-96.75
X140.5Y-93.65
X140.5Y-96.75
X148.25Y-87.25
X148.25Y-102.25
T3
X93.75Y-91.42
X93.75Y-101.58
X96.5Y-80.08
X100.82Y-80.04
X101.066Y-108.316
X108.25Y-115.5
X125.59Y-112.5
X127.91Y-124.75
X132.23Y-124.71
X135.75Y-112.5
X151.658Y-115.592
X158.842Y-108.408
X159.18Y-80.04
X163.5Y-80.0
X166.25Y-91.84
X166.25Y-102.0
T4
X130.0Y-68.25
M30
