G04 #@! TF.GenerationSoftware,KiCad,Pcbnew,9.0.0*
G04 #@! TF.CreationDate,2025-07-07T15:25:40-04:00*
G04 #@! TF.ProjectId,mothers_day_necklace,6d6f7468-6572-4735-9f64-61795f6e6563,A*
G04 #@! TF.SameCoordinates,Original*
G04 #@! TF.FileFunction,Profile,NP*
%FSLAX46Y46*%
G04 Gerber Fmt 4.6, Leading zero omitted, Abs format (unit mm)*
G04 Created by KiCad (PCBNEW 9.0.0) date 2025-07-07 15:25:40*
%MOMM*%
%LPD*%
G01*
G04 APERTURE LIST*
G04 #@! TA.AperFunction,Profile*
%ADD10C,0.050000*%
G04 #@! TD*
%ADD11C,0.050000*%
G04 APERTURE END LIST*
D10*
X136500000Y-83000000D02*
G75*
G02*
X166500000Y-109000000I15000000J-13000000D01*
G01*
X166500000Y-109000000D02*
X130500000Y-150000000D01*
X123500000Y-83000001D02*
G75*
G02*
X136500000Y-83000002I6500000J-999999D01*
G01*
X93500000Y-109000000D02*
G75*
G02*
X123500000Y-83000000I15000000J13000000D01*
G01*
X93500001Y-109000794D02*
X129500000Y-150000000D01*
D11*
X129500000Y-150000000D02*
X129503159Y-150003583D01*
X129506319Y-150007136D01*
X129509476Y-150010656D01*
X129512634Y-150014147D01*
X129515789Y-150017606D01*
X129518945Y-150021035D01*
X129522099Y-150024433D01*
X129525253Y-150027802D01*
X129528405Y-150031139D01*
X129531557Y-150034448D01*
X129534707Y-150037725D01*
X129537857Y-150040974D01*
X129541006Y-150044192D01*
X129544154Y-150047382D01*
X129547301Y-150050541D01*
X129550447Y-150053672D01*
X129553592Y-150056774D01*
X129556737Y-150059847D01*
X129559880Y-150062890D01*
X129563023Y-150065906D01*
X129566165Y-150068892D01*
X129569306Y-150071851D01*
X129572445Y-150074781D01*
X129575584Y-150077683D01*
X129578723Y-150080557D01*
X129581860Y-150083403D01*
X129584996Y-150086222D01*
X129588132Y-150089013D01*
X129591267Y-150091776D01*
X129594401Y-150094512D01*
X129597534Y-150097221D01*
X129600666Y-150099903D01*
X129603797Y-150102558D01*
X129606928Y-150105185D01*
X129610058Y-150107787D01*
X129613187Y-150110361D01*
X129616315Y-150112910D01*
X129619443Y-150115431D01*
X129622570Y-150117927D01*
X129625696Y-150120396D01*
X129628821Y-150122840D01*
X129631946Y-150125257D01*
X129635070Y-150127649D01*
X129638193Y-150130015D01*
X129641316Y-150132356D01*
X129644437Y-150134671D01*
X129647559Y-150136961D01*
X129650679Y-150139226D01*
X129653800Y-150141466D01*
X129656919Y-150143680D01*
X129660038Y-150145870D01*
X129663156Y-150148035D01*
X129666274Y-150150175D01*
X129669391Y-150152291D01*
X129672509Y-150154382D01*
X129675624Y-150156449D01*
X129678741Y-150158492D01*
X129681856Y-150160510D01*
X129684971Y-150162505D01*
X129688085Y-150164476D01*
X129691200Y-150166423D01*
X129694313Y-150168345D01*
X129697428Y-150170245D01*
X129700540Y-150172121D01*
X129703654Y-150173973D01*
X129706766Y-150175802D01*
X129709879Y-150177608D01*
X129712990Y-150179390D01*
X129716103Y-150181150D01*
X129719214Y-150182886D01*
X129722327Y-150184600D01*
X129725437Y-150186290D01*
X129728550Y-150187959D01*
X129731660Y-150189603D01*
X129734773Y-150191227D01*
X129737883Y-150192826D01*
X129740996Y-150194405D01*
X129744106Y-150195959D01*
X129747219Y-150197493D01*
X129750329Y-150199004D01*
X129753442Y-150200493D01*
X129756553Y-150201959D01*
X129759667Y-150203405D01*
X129762778Y-150204827D01*
X129769003Y-150207608D01*
X129775230Y-150210302D01*
X129781458Y-150212910D01*
X129787689Y-150215433D01*
X129793921Y-150217870D01*
X129800155Y-150220222D01*
X129806392Y-150222491D01*
X129812632Y-150224676D01*
X129818876Y-150226777D01*
X129825122Y-150228796D01*
X129831373Y-150230732D01*
X129837627Y-150232586D01*
X129843886Y-150234358D01*
X129850149Y-150236048D01*
X129856418Y-150237658D01*
X129862691Y-150239186D01*
X129868970Y-150240634D01*
X129875255Y-150242002D01*
X129881547Y-150243289D01*
X129887844Y-150244497D01*
X129894149Y-150245624D01*
X129900460Y-150246672D01*
X129906779Y-150247641D01*
X129913106Y-150248530D01*
X129919441Y-150249339D01*
X129925784Y-150250070D01*
X129932136Y-150250721D01*
X129938497Y-150251293D01*
X129944867Y-150251786D01*
X129951246Y-150252200D01*
X129957636Y-150252535D01*
X129964036Y-150252790D01*
X129970446Y-150252967D01*
X129976867Y-150253063D01*
X129983299Y-150253081D01*
X129989742Y-150253019D01*
X129996197Y-150252877D01*
X130002664Y-150252655D01*
X130009143Y-150252353D01*
X130015634Y-150251970D01*
X130022138Y-150251507D01*
X130028654Y-150250964D01*
X130035184Y-150250339D01*
X130041727Y-150249634D01*
X130048283Y-150248846D01*
X130054853Y-150247977D01*
X130061437Y-150247026D01*
X130068035Y-150245992D01*
X130074647Y-150244876D01*
X130081274Y-150243676D01*
X130087914Y-150242393D01*
X130094570Y-150241026D01*
X130101239Y-150239575D01*
X130107924Y-150238039D01*
X130114623Y-150236419D01*
X130121337Y-150234713D01*
X130128066Y-150232921D01*
X130134809Y-150231042D01*
X130141567Y-150229078D01*
X130148340Y-150227026D01*
X130155127Y-150224887D01*
X130161928Y-150222659D01*
X130168744Y-150220344D01*
X130175574Y-150217940D01*
X130182418Y-150215447D01*
X130189275Y-150212864D01*
X130196145Y-150210191D01*
X130203029Y-150207428D01*
X130209925Y-150204575D01*
X130216833Y-150201630D01*
X130223753Y-150198595D01*
X130230684Y-150195468D01*
X130237625Y-150192249D01*
X130244577Y-150188938D01*
X130251537Y-150185534D01*
X130258506Y-150182039D01*
X130265483Y-150178451D01*
X130272466Y-150174770D01*
X130279455Y-150170997D01*
X130286449Y-150167132D01*
X130293446Y-150163174D01*
X130300445Y-150159124D01*
X130307444Y-150154983D01*
X130314443Y-150150750D01*
X130321439Y-150146427D01*
X130328430Y-150142013D01*
X130335415Y-150137511D01*
X130342391Y-150132920D01*
X130349356Y-150128242D01*
X130356307Y-150123479D01*
X130363241Y-150118632D01*
X130370156Y-150113702D01*
X130377047Y-150108693D01*
X130383911Y-150103607D01*
X130390744Y-150098446D01*
X130397540Y-150093215D01*
X130404295Y-150087917D01*
X130411002Y-150082557D01*
X130417655Y-150077141D01*
X130424246Y-150071675D01*
X130430767Y-150066166D01*
X130437208Y-150060624D01*
X130443558Y-150055058D01*
X130449802Y-150049482D01*
X130455927Y-150043912D01*
X130461912Y-150038365D01*
X130467735Y-150032865D01*
X130473367Y-150027443D01*
X130478771Y-150022138D01*
X130483898Y-150017002D01*
X130488678Y-150012113D01*
X130493007Y-150007588D01*
X130496704Y-150003634D01*
X130499371Y-150000706D01*
X130500000Y-150000000D01*
M02*
