%TF.GenerationSoftware,KiCad,Pcbnew,9.0.0*%
%TF.CreationDate,2025-07-07T15:25:06-04:00*%
%TF.ProjectId,mothers_day_necklace,6d6f7468-6572-4735-9f64-61795f6e6563,A*%
%TF.SameCoordinates,Original*%
%TF.FileFunction,Drillmap*%
%TF.FilePolarity,Positive*%
%FSLAX45Y45*%
G04 Gerber Fmt 4.5, Leading zero omitted, Abs format (unit mm)*
G04 Created by KiCad (PCBNEW 9.0.0) date 2025-07-07 15:25:06*
%MOMM*%
%LPD*%
G01*
G04 APERTURE LIST*
%ADD10C,0.050000*%
%ADD11C,0.200000*%
%ADD12C,0.300000*%
G04 APERTURE END LIST*
D10*
X13650000Y-8300000D02*
G75*
G02*
X16650000Y-10900000I1500000J-1300000D01*
G01*
X16650000Y-10900000D02*
X13050000Y-15000000D01*
X12350000Y-8300000D02*
G75*
G02*
X13650000Y-8300000I650000J-100000D01*
G01*
X9350000Y-10900000D02*
G75*
G02*
X12350000Y-8300000I1500000J1300000D01*
G01*
X9350000Y-10900079D02*
X12950000Y-15000000D01*
X12950000Y-15000000D02*
X12950316Y-15000358D01*
X12950632Y-15000714D01*
X12950948Y-15001066D01*
X12951263Y-15001415D01*
X12951579Y-15001761D01*
X12951894Y-15002103D01*
X12952210Y-15002443D01*
X12952525Y-15002780D01*
X12952840Y-15003114D01*
X12953156Y-15003445D01*
X12953471Y-15003772D01*
X12953786Y-15004097D01*
X12954101Y-15004419D01*
X12954415Y-15004738D01*
X12954730Y-15005054D01*
X12955045Y-15005367D01*
X12955359Y-15005677D01*
X12955674Y-15005985D01*
X12955988Y-15006289D01*
X12956302Y-15006591D01*
X12956616Y-15006889D01*
X12956931Y-15007185D01*
X12957244Y-15007478D01*
X12957558Y-15007768D01*
X12957872Y-15008056D01*
X12958186Y-15008340D01*
X12958500Y-15008622D01*
X12958813Y-15008901D01*
X12959127Y-15009178D01*
X12959440Y-15009451D01*
X12959753Y-15009722D01*
X12960067Y-15009990D01*
X12960380Y-15010256D01*
X12960693Y-15010518D01*
X12961006Y-15010779D01*
X12961319Y-15011036D01*
X12961631Y-15011291D01*
X12961944Y-15011543D01*
X12962257Y-15011793D01*
X12962570Y-15012040D01*
X12962882Y-15012284D01*
X12963195Y-15012526D01*
X12963507Y-15012765D01*
X12963819Y-15013001D01*
X12964132Y-15013236D01*
X12964444Y-15013467D01*
X12964756Y-15013696D01*
X12965068Y-15013923D01*
X12965380Y-15014147D01*
X12965692Y-15014368D01*
X12966004Y-15014587D01*
X12966316Y-15014803D01*
X12966627Y-15015017D01*
X12966939Y-15015229D01*
X12967251Y-15015438D01*
X12967562Y-15015645D01*
X12967874Y-15015849D01*
X12968186Y-15016051D01*
X12968497Y-15016250D01*
X12968808Y-15016448D01*
X12969120Y-15016642D01*
X12969431Y-15016834D01*
X12969743Y-15017024D01*
X12970054Y-15017212D01*
X12970365Y-15017397D01*
X12970677Y-15017580D01*
X12970988Y-15017761D01*
X12971299Y-15017939D01*
X12971610Y-15018115D01*
X12971921Y-15018289D01*
X12972233Y-15018460D01*
X12972544Y-15018629D01*
X12972855Y-15018796D01*
X12973166Y-15018960D01*
X12973477Y-15019123D01*
X12973788Y-15019283D01*
X12974100Y-15019440D01*
X12974411Y-15019596D01*
X12974722Y-15019749D01*
X12975033Y-15019900D01*
X12975344Y-15020049D01*
X12975655Y-15020196D01*
X12975967Y-15020340D01*
X12976278Y-15020483D01*
X12976900Y-15020761D01*
X12977523Y-15021030D01*
X12978146Y-15021291D01*
X12978769Y-15021543D01*
X12979392Y-15021787D01*
X12980015Y-15022022D01*
X12980639Y-15022249D01*
X12981263Y-15022468D01*
X12981888Y-15022678D01*
X12982512Y-15022880D01*
X12983137Y-15023073D01*
X12983763Y-15023259D01*
X12984389Y-15023436D01*
X12985015Y-15023605D01*
X12985642Y-15023766D01*
X12986269Y-15023919D01*
X12986897Y-15024063D01*
X12987525Y-15024200D01*
X12988155Y-15024329D01*
X12988784Y-15024450D01*
X12989415Y-15024562D01*
X12990046Y-15024667D01*
X12990678Y-15024764D01*
X12991311Y-15024853D01*
X12991944Y-15024934D01*
X12992578Y-15025007D01*
X12993214Y-15025072D01*
X12993850Y-15025129D01*
X12994487Y-15025179D01*
X12995125Y-15025220D01*
X12995764Y-15025253D01*
X12996404Y-15025279D01*
X12997045Y-15025297D01*
X12997687Y-15025306D01*
X12998330Y-15025308D01*
X12998974Y-15025302D01*
X12999620Y-15025288D01*
X13000266Y-15025265D01*
X13000914Y-15025235D01*
X13001563Y-15025197D01*
X13002214Y-15025151D01*
X13002865Y-15025096D01*
X13003518Y-15025034D01*
X13004173Y-15024963D01*
X13004828Y-15024885D01*
X13005485Y-15024798D01*
X13006144Y-15024703D01*
X13006803Y-15024599D01*
X13007465Y-15024488D01*
X13008127Y-15024368D01*
X13008791Y-15024239D01*
X13009457Y-15024103D01*
X13010124Y-15023957D01*
X13010792Y-15023804D01*
X13011462Y-15023642D01*
X13012134Y-15023471D01*
X13012807Y-15023292D01*
X13013481Y-15023104D01*
X13014157Y-15022908D01*
X13014834Y-15022703D01*
X13015513Y-15022489D01*
X13016193Y-15022266D01*
X13016874Y-15022034D01*
X13017557Y-15021794D01*
X13018242Y-15021545D01*
X13018927Y-15021286D01*
X13019614Y-15021019D01*
X13020303Y-15020743D01*
X13020992Y-15020457D01*
X13021683Y-15020163D01*
X13022375Y-15019859D01*
X13023068Y-15019547D01*
X13023762Y-15019225D01*
X13024458Y-15018894D01*
X13025154Y-15018553D01*
X13025851Y-15018204D01*
X13026548Y-15017845D01*
X13027247Y-15017477D01*
X13027945Y-15017100D01*
X13028645Y-15016713D01*
X13029345Y-15016317D01*
X13030044Y-15015912D01*
X13030744Y-15015498D01*
X13031444Y-15015075D01*
X13032144Y-15014643D01*
X13032843Y-15014201D01*
X13033541Y-15013751D01*
X13034239Y-15013292D01*
X13034936Y-15012824D01*
X13035631Y-15012348D01*
X13036324Y-15011863D01*
X13037016Y-15011370D01*
X13037705Y-15010869D01*
X13038391Y-15010361D01*
X13039074Y-15009845D01*
X13039754Y-15009321D01*
X13040429Y-15008792D01*
X13041100Y-15008256D01*
X13041765Y-15007714D01*
X13042425Y-15007167D01*
X13043077Y-15006617D01*
X13043721Y-15006062D01*
X13044356Y-15005506D01*
X13044980Y-15004948D01*
X13045593Y-15004391D01*
X13046191Y-15003836D01*
X13046773Y-15003286D01*
X13047337Y-15002744D01*
X13047877Y-15002214D01*
X13048390Y-15001700D01*
X13048868Y-15001211D01*
X13049301Y-15000759D01*
X13049670Y-15000363D01*
X13049937Y-15000071D01*
X13050000Y-15000000D01*
D11*
D12*
X12850000Y-7852000D02*
X13150000Y-8152000D01*
X13150000Y-7852000D02*
X12850000Y-8152000D01*
D11*
X9123334Y-15338865D02*
X9123334Y-15138865D01*
X9123334Y-15138865D02*
X9170953Y-15138865D01*
X9170953Y-15138865D02*
X9199524Y-15148388D01*
X9199524Y-15148388D02*
X9218572Y-15167436D01*
X9218572Y-15167436D02*
X9228095Y-15186484D01*
X9228095Y-15186484D02*
X9237619Y-15224579D01*
X9237619Y-15224579D02*
X9237619Y-15253150D01*
X9237619Y-15253150D02*
X9228095Y-15291245D01*
X9228095Y-15291245D02*
X9218572Y-15310293D01*
X9218572Y-15310293D02*
X9199524Y-15329341D01*
X9199524Y-15329341D02*
X9170953Y-15338865D01*
X9170953Y-15338865D02*
X9123334Y-15338865D01*
X9323334Y-15338865D02*
X9323334Y-15205531D01*
X9323334Y-15243626D02*
X9332857Y-15224579D01*
X9332857Y-15224579D02*
X9342381Y-15215055D01*
X9342381Y-15215055D02*
X9361429Y-15205531D01*
X9361429Y-15205531D02*
X9380476Y-15205531D01*
X9447143Y-15338865D02*
X9447143Y-15205531D01*
X9447143Y-15138865D02*
X9437619Y-15148388D01*
X9437619Y-15148388D02*
X9447143Y-15157912D01*
X9447143Y-15157912D02*
X9456667Y-15148388D01*
X9456667Y-15148388D02*
X9447143Y-15138865D01*
X9447143Y-15138865D02*
X9447143Y-15157912D01*
X9570953Y-15338865D02*
X9551905Y-15329341D01*
X9551905Y-15329341D02*
X9542381Y-15310293D01*
X9542381Y-15310293D02*
X9542381Y-15138865D01*
X9675714Y-15338865D02*
X9656667Y-15329341D01*
X9656667Y-15329341D02*
X9647143Y-15310293D01*
X9647143Y-15310293D02*
X9647143Y-15138865D01*
X9904286Y-15338865D02*
X9904286Y-15138865D01*
X9904286Y-15138865D02*
X9970953Y-15281722D01*
X9970953Y-15281722D02*
X10037619Y-15138865D01*
X10037619Y-15138865D02*
X10037619Y-15338865D01*
X10218572Y-15338865D02*
X10218572Y-15234103D01*
X10218572Y-15234103D02*
X10209048Y-15215055D01*
X10209048Y-15215055D02*
X10190000Y-15205531D01*
X10190000Y-15205531D02*
X10151905Y-15205531D01*
X10151905Y-15205531D02*
X10132857Y-15215055D01*
X10218572Y-15329341D02*
X10199524Y-15338865D01*
X10199524Y-15338865D02*
X10151905Y-15338865D01*
X10151905Y-15338865D02*
X10132857Y-15329341D01*
X10132857Y-15329341D02*
X10123334Y-15310293D01*
X10123334Y-15310293D02*
X10123334Y-15291245D01*
X10123334Y-15291245D02*
X10132857Y-15272198D01*
X10132857Y-15272198D02*
X10151905Y-15262674D01*
X10151905Y-15262674D02*
X10199524Y-15262674D01*
X10199524Y-15262674D02*
X10218572Y-15253150D01*
X10313810Y-15205531D02*
X10313810Y-15405531D01*
X10313810Y-15215055D02*
X10332857Y-15205531D01*
X10332857Y-15205531D02*
X10370953Y-15205531D01*
X10370953Y-15205531D02*
X10390000Y-15215055D01*
X10390000Y-15215055D02*
X10399524Y-15224579D01*
X10399524Y-15224579D02*
X10409048Y-15243626D01*
X10409048Y-15243626D02*
X10409048Y-15300769D01*
X10409048Y-15300769D02*
X10399524Y-15319817D01*
X10399524Y-15319817D02*
X10390000Y-15329341D01*
X10390000Y-15329341D02*
X10370953Y-15338865D01*
X10370953Y-15338865D02*
X10332857Y-15338865D01*
X10332857Y-15338865D02*
X10313810Y-15329341D01*
X10494762Y-15319817D02*
X10504286Y-15329341D01*
X10504286Y-15329341D02*
X10494762Y-15338865D01*
X10494762Y-15338865D02*
X10485238Y-15329341D01*
X10485238Y-15329341D02*
X10494762Y-15319817D01*
X10494762Y-15319817D02*
X10494762Y-15338865D01*
X10494762Y-15215055D02*
X10504286Y-15224579D01*
X10504286Y-15224579D02*
X10494762Y-15234103D01*
X10494762Y-15234103D02*
X10485238Y-15224579D01*
X10485238Y-15224579D02*
X10494762Y-15215055D01*
X10494762Y-15215055D02*
X10494762Y-15234103D01*
X8662557Y-15567381D02*
X8862557Y-15767381D01*
X8862557Y-15567381D02*
X8662557Y-15767381D01*
X9104286Y-15558865D02*
X9228095Y-15558865D01*
X9228095Y-15558865D02*
X9161429Y-15635055D01*
X9161429Y-15635055D02*
X9190000Y-15635055D01*
X9190000Y-15635055D02*
X9209048Y-15644579D01*
X9209048Y-15644579D02*
X9218572Y-15654103D01*
X9218572Y-15654103D02*
X9228095Y-15673150D01*
X9228095Y-15673150D02*
X9228095Y-15720769D01*
X9228095Y-15720769D02*
X9218572Y-15739817D01*
X9218572Y-15739817D02*
X9209048Y-15749341D01*
X9209048Y-15749341D02*
X9190000Y-15758865D01*
X9190000Y-15758865D02*
X9132857Y-15758865D01*
X9132857Y-15758865D02*
X9113810Y-15749341D01*
X9113810Y-15749341D02*
X9104286Y-15739817D01*
X9313810Y-15739817D02*
X9323334Y-15749341D01*
X9323334Y-15749341D02*
X9313810Y-15758865D01*
X9313810Y-15758865D02*
X9304286Y-15749341D01*
X9304286Y-15749341D02*
X9313810Y-15739817D01*
X9313810Y-15739817D02*
X9313810Y-15758865D01*
X9447143Y-15558865D02*
X9466191Y-15558865D01*
X9466191Y-15558865D02*
X9485238Y-15568388D01*
X9485238Y-15568388D02*
X9494762Y-15577912D01*
X9494762Y-15577912D02*
X9504286Y-15596960D01*
X9504286Y-15596960D02*
X9513810Y-15635055D01*
X9513810Y-15635055D02*
X9513810Y-15682674D01*
X9513810Y-15682674D02*
X9504286Y-15720769D01*
X9504286Y-15720769D02*
X9494762Y-15739817D01*
X9494762Y-15739817D02*
X9485238Y-15749341D01*
X9485238Y-15749341D02*
X9466191Y-15758865D01*
X9466191Y-15758865D02*
X9447143Y-15758865D01*
X9447143Y-15758865D02*
X9428095Y-15749341D01*
X9428095Y-15749341D02*
X9418572Y-15739817D01*
X9418572Y-15739817D02*
X9409048Y-15720769D01*
X9409048Y-15720769D02*
X9399524Y-15682674D01*
X9399524Y-15682674D02*
X9399524Y-15635055D01*
X9399524Y-15635055D02*
X9409048Y-15596960D01*
X9409048Y-15596960D02*
X9418572Y-15577912D01*
X9418572Y-15577912D02*
X9428095Y-15568388D01*
X9428095Y-15568388D02*
X9447143Y-15558865D01*
X9637619Y-15558865D02*
X9656667Y-15558865D01*
X9656667Y-15558865D02*
X9675715Y-15568388D01*
X9675715Y-15568388D02*
X9685238Y-15577912D01*
X9685238Y-15577912D02*
X9694762Y-15596960D01*
X9694762Y-15596960D02*
X9704286Y-15635055D01*
X9704286Y-15635055D02*
X9704286Y-15682674D01*
X9704286Y-15682674D02*
X9694762Y-15720769D01*
X9694762Y-15720769D02*
X9685238Y-15739817D01*
X9685238Y-15739817D02*
X9675715Y-15749341D01*
X9675715Y-15749341D02*
X9656667Y-15758865D01*
X9656667Y-15758865D02*
X9637619Y-15758865D01*
X9637619Y-15758865D02*
X9618572Y-15749341D01*
X9618572Y-15749341D02*
X9609048Y-15739817D01*
X9609048Y-15739817D02*
X9599524Y-15720769D01*
X9599524Y-15720769D02*
X9590000Y-15682674D01*
X9590000Y-15682674D02*
X9590000Y-15635055D01*
X9590000Y-15635055D02*
X9599524Y-15596960D01*
X9599524Y-15596960D02*
X9609048Y-15577912D01*
X9609048Y-15577912D02*
X9618572Y-15568388D01*
X9618572Y-15568388D02*
X9637619Y-15558865D01*
X9828095Y-15558865D02*
X9847143Y-15558865D01*
X9847143Y-15558865D02*
X9866191Y-15568388D01*
X9866191Y-15568388D02*
X9875715Y-15577912D01*
X9875715Y-15577912D02*
X9885238Y-15596960D01*
X9885238Y-15596960D02*
X9894762Y-15635055D01*
X9894762Y-15635055D02*
X9894762Y-15682674D01*
X9894762Y-15682674D02*
X9885238Y-15720769D01*
X9885238Y-15720769D02*
X9875715Y-15739817D01*
X9875715Y-15739817D02*
X9866191Y-15749341D01*
X9866191Y-15749341D02*
X9847143Y-15758865D01*
X9847143Y-15758865D02*
X9828095Y-15758865D01*
X9828095Y-15758865D02*
X9809048Y-15749341D01*
X9809048Y-15749341D02*
X9799524Y-15739817D01*
X9799524Y-15739817D02*
X9790000Y-15720769D01*
X9790000Y-15720769D02*
X9780476Y-15682674D01*
X9780476Y-15682674D02*
X9780476Y-15635055D01*
X9780476Y-15635055D02*
X9790000Y-15596960D01*
X9790000Y-15596960D02*
X9799524Y-15577912D01*
X9799524Y-15577912D02*
X9809048Y-15568388D01*
X9809048Y-15568388D02*
X9828095Y-15558865D01*
X9980476Y-15758865D02*
X9980476Y-15625531D01*
X9980476Y-15644579D02*
X9990000Y-15635055D01*
X9990000Y-15635055D02*
X10009048Y-15625531D01*
X10009048Y-15625531D02*
X10037619Y-15625531D01*
X10037619Y-15625531D02*
X10056667Y-15635055D01*
X10056667Y-15635055D02*
X10066191Y-15654103D01*
X10066191Y-15654103D02*
X10066191Y-15758865D01*
X10066191Y-15654103D02*
X10075715Y-15635055D01*
X10075715Y-15635055D02*
X10094762Y-15625531D01*
X10094762Y-15625531D02*
X10123334Y-15625531D01*
X10123334Y-15625531D02*
X10142381Y-15635055D01*
X10142381Y-15635055D02*
X10151905Y-15654103D01*
X10151905Y-15654103D02*
X10151905Y-15758865D01*
X10247143Y-15758865D02*
X10247143Y-15625531D01*
X10247143Y-15644579D02*
X10256667Y-15635055D01*
X10256667Y-15635055D02*
X10275715Y-15625531D01*
X10275715Y-15625531D02*
X10304286Y-15625531D01*
X10304286Y-15625531D02*
X10323334Y-15635055D01*
X10323334Y-15635055D02*
X10332857Y-15654103D01*
X10332857Y-15654103D02*
X10332857Y-15758865D01*
X10332857Y-15654103D02*
X10342381Y-15635055D01*
X10342381Y-15635055D02*
X10361429Y-15625531D01*
X10361429Y-15625531D02*
X10390000Y-15625531D01*
X10390000Y-15625531D02*
X10409048Y-15635055D01*
X10409048Y-15635055D02*
X10418572Y-15654103D01*
X10418572Y-15654103D02*
X10418572Y-15758865D01*
X10809048Y-15549341D02*
X10637619Y-15806484D01*
X11066191Y-15558865D02*
X11085239Y-15558865D01*
X11085239Y-15558865D02*
X11104286Y-15568388D01*
X11104286Y-15568388D02*
X11113810Y-15577912D01*
X11113810Y-15577912D02*
X11123334Y-15596960D01*
X11123334Y-15596960D02*
X11132858Y-15635055D01*
X11132858Y-15635055D02*
X11132858Y-15682674D01*
X11132858Y-15682674D02*
X11123334Y-15720769D01*
X11123334Y-15720769D02*
X11113810Y-15739817D01*
X11113810Y-15739817D02*
X11104286Y-15749341D01*
X11104286Y-15749341D02*
X11085239Y-15758865D01*
X11085239Y-15758865D02*
X11066191Y-15758865D01*
X11066191Y-15758865D02*
X11047143Y-15749341D01*
X11047143Y-15749341D02*
X11037619Y-15739817D01*
X11037619Y-15739817D02*
X11028096Y-15720769D01*
X11028096Y-15720769D02*
X11018572Y-15682674D01*
X11018572Y-15682674D02*
X11018572Y-15635055D01*
X11018572Y-15635055D02*
X11028096Y-15596960D01*
X11028096Y-15596960D02*
X11037619Y-15577912D01*
X11037619Y-15577912D02*
X11047143Y-15568388D01*
X11047143Y-15568388D02*
X11066191Y-15558865D01*
X11218572Y-15739817D02*
X11228096Y-15749341D01*
X11228096Y-15749341D02*
X11218572Y-15758865D01*
X11218572Y-15758865D02*
X11209048Y-15749341D01*
X11209048Y-15749341D02*
X11218572Y-15739817D01*
X11218572Y-15739817D02*
X11218572Y-15758865D01*
X11418572Y-15758865D02*
X11304286Y-15758865D01*
X11361429Y-15758865D02*
X11361429Y-15558865D01*
X11361429Y-15558865D02*
X11342381Y-15587436D01*
X11342381Y-15587436D02*
X11323334Y-15606484D01*
X11323334Y-15606484D02*
X11304286Y-15616007D01*
X11609048Y-15758865D02*
X11494762Y-15758865D01*
X11551905Y-15758865D02*
X11551905Y-15558865D01*
X11551905Y-15558865D02*
X11532857Y-15587436D01*
X11532857Y-15587436D02*
X11513810Y-15606484D01*
X11513810Y-15606484D02*
X11494762Y-15616007D01*
X11723334Y-15644579D02*
X11704286Y-15635055D01*
X11704286Y-15635055D02*
X11694762Y-15625531D01*
X11694762Y-15625531D02*
X11685238Y-15606484D01*
X11685238Y-15606484D02*
X11685238Y-15596960D01*
X11685238Y-15596960D02*
X11694762Y-15577912D01*
X11694762Y-15577912D02*
X11704286Y-15568388D01*
X11704286Y-15568388D02*
X11723334Y-15558865D01*
X11723334Y-15558865D02*
X11761429Y-15558865D01*
X11761429Y-15558865D02*
X11780477Y-15568388D01*
X11780477Y-15568388D02*
X11790000Y-15577912D01*
X11790000Y-15577912D02*
X11799524Y-15596960D01*
X11799524Y-15596960D02*
X11799524Y-15606484D01*
X11799524Y-15606484D02*
X11790000Y-15625531D01*
X11790000Y-15625531D02*
X11780477Y-15635055D01*
X11780477Y-15635055D02*
X11761429Y-15644579D01*
X11761429Y-15644579D02*
X11723334Y-15644579D01*
X11723334Y-15644579D02*
X11704286Y-15654103D01*
X11704286Y-15654103D02*
X11694762Y-15663626D01*
X11694762Y-15663626D02*
X11685238Y-15682674D01*
X11685238Y-15682674D02*
X11685238Y-15720769D01*
X11685238Y-15720769D02*
X11694762Y-15739817D01*
X11694762Y-15739817D02*
X11704286Y-15749341D01*
X11704286Y-15749341D02*
X11723334Y-15758865D01*
X11723334Y-15758865D02*
X11761429Y-15758865D01*
X11761429Y-15758865D02*
X11780477Y-15749341D01*
X11780477Y-15749341D02*
X11790000Y-15739817D01*
X11790000Y-15739817D02*
X11799524Y-15720769D01*
X11799524Y-15720769D02*
X11799524Y-15682674D01*
X11799524Y-15682674D02*
X11790000Y-15663626D01*
X11790000Y-15663626D02*
X11780477Y-15654103D01*
X11780477Y-15654103D02*
X11761429Y-15644579D01*
X11990000Y-15758865D02*
X11875715Y-15758865D01*
X11932857Y-15758865D02*
X11932857Y-15558865D01*
X11932857Y-15558865D02*
X11913810Y-15587436D01*
X11913810Y-15587436D02*
X11894762Y-15606484D01*
X11894762Y-15606484D02*
X11875715Y-15616007D01*
X12066191Y-15558865D02*
X12066191Y-15596960D01*
X12142381Y-15558865D02*
X12142381Y-15596960D01*
X12437620Y-15835055D02*
X12428096Y-15825531D01*
X12428096Y-15825531D02*
X12409048Y-15796960D01*
X12409048Y-15796960D02*
X12399524Y-15777912D01*
X12399524Y-15777912D02*
X12390000Y-15749341D01*
X12390000Y-15749341D02*
X12380477Y-15701722D01*
X12380477Y-15701722D02*
X12380477Y-15663626D01*
X12380477Y-15663626D02*
X12390000Y-15616007D01*
X12390000Y-15616007D02*
X12399524Y-15587436D01*
X12399524Y-15587436D02*
X12409048Y-15568388D01*
X12409048Y-15568388D02*
X12428096Y-15539817D01*
X12428096Y-15539817D02*
X12437620Y-15530293D01*
X12618572Y-15758865D02*
X12504286Y-15758865D01*
X12561429Y-15758865D02*
X12561429Y-15558865D01*
X12561429Y-15558865D02*
X12542381Y-15587436D01*
X12542381Y-15587436D02*
X12523334Y-15606484D01*
X12523334Y-15606484D02*
X12504286Y-15616007D01*
X12856667Y-15758865D02*
X12856667Y-15558865D01*
X12942381Y-15758865D02*
X12942381Y-15654103D01*
X12942381Y-15654103D02*
X12932858Y-15635055D01*
X12932858Y-15635055D02*
X12913810Y-15625531D01*
X12913810Y-15625531D02*
X12885239Y-15625531D01*
X12885239Y-15625531D02*
X12866191Y-15635055D01*
X12866191Y-15635055D02*
X12856667Y-15644579D01*
X13066191Y-15758865D02*
X13047143Y-15749341D01*
X13047143Y-15749341D02*
X13037620Y-15739817D01*
X13037620Y-15739817D02*
X13028096Y-15720769D01*
X13028096Y-15720769D02*
X13028096Y-15663626D01*
X13028096Y-15663626D02*
X13037620Y-15644579D01*
X13037620Y-15644579D02*
X13047143Y-15635055D01*
X13047143Y-15635055D02*
X13066191Y-15625531D01*
X13066191Y-15625531D02*
X13094762Y-15625531D01*
X13094762Y-15625531D02*
X13113810Y-15635055D01*
X13113810Y-15635055D02*
X13123334Y-15644579D01*
X13123334Y-15644579D02*
X13132858Y-15663626D01*
X13132858Y-15663626D02*
X13132858Y-15720769D01*
X13132858Y-15720769D02*
X13123334Y-15739817D01*
X13123334Y-15739817D02*
X13113810Y-15749341D01*
X13113810Y-15749341D02*
X13094762Y-15758865D01*
X13094762Y-15758865D02*
X13066191Y-15758865D01*
X13247143Y-15758865D02*
X13228096Y-15749341D01*
X13228096Y-15749341D02*
X13218572Y-15730293D01*
X13218572Y-15730293D02*
X13218572Y-15558865D01*
X13399524Y-15749341D02*
X13380477Y-15758865D01*
X13380477Y-15758865D02*
X13342381Y-15758865D01*
X13342381Y-15758865D02*
X13323334Y-15749341D01*
X13323334Y-15749341D02*
X13313810Y-15730293D01*
X13313810Y-15730293D02*
X13313810Y-15654103D01*
X13313810Y-15654103D02*
X13323334Y-15635055D01*
X13323334Y-15635055D02*
X13342381Y-15625531D01*
X13342381Y-15625531D02*
X13380477Y-15625531D01*
X13380477Y-15625531D02*
X13399524Y-15635055D01*
X13399524Y-15635055D02*
X13409048Y-15654103D01*
X13409048Y-15654103D02*
X13409048Y-15673150D01*
X13409048Y-15673150D02*
X13313810Y-15692198D01*
X13475715Y-15835055D02*
X13485239Y-15825531D01*
X13485239Y-15825531D02*
X13504286Y-15796960D01*
X13504286Y-15796960D02*
X13513810Y-15777912D01*
X13513810Y-15777912D02*
X13523334Y-15749341D01*
X13523334Y-15749341D02*
X13532858Y-15701722D01*
X13532858Y-15701722D02*
X13532858Y-15663626D01*
X13532858Y-15663626D02*
X13523334Y-15616007D01*
X13523334Y-15616007D02*
X13513810Y-15587436D01*
X13513810Y-15587436D02*
X13504286Y-15568388D01*
X13504286Y-15568388D02*
X13485239Y-15539817D01*
X13485239Y-15539817D02*
X13475715Y-15530293D01*
X13837620Y-15835055D02*
X13828096Y-15825531D01*
X13828096Y-15825531D02*
X13809048Y-15796960D01*
X13809048Y-15796960D02*
X13799524Y-15777912D01*
X13799524Y-15777912D02*
X13790001Y-15749341D01*
X13790001Y-15749341D02*
X13780477Y-15701722D01*
X13780477Y-15701722D02*
X13780477Y-15663626D01*
X13780477Y-15663626D02*
X13790001Y-15616007D01*
X13790001Y-15616007D02*
X13799524Y-15587436D01*
X13799524Y-15587436D02*
X13809048Y-15568388D01*
X13809048Y-15568388D02*
X13828096Y-15539817D01*
X13828096Y-15539817D02*
X13837620Y-15530293D01*
X13913810Y-15625531D02*
X13913810Y-15758865D01*
X13913810Y-15644579D02*
X13923334Y-15635055D01*
X13923334Y-15635055D02*
X13942381Y-15625531D01*
X13942381Y-15625531D02*
X13970953Y-15625531D01*
X13970953Y-15625531D02*
X13990001Y-15635055D01*
X13990001Y-15635055D02*
X13999524Y-15654103D01*
X13999524Y-15654103D02*
X13999524Y-15758865D01*
X14123334Y-15758865D02*
X14104286Y-15749341D01*
X14104286Y-15749341D02*
X14094762Y-15739817D01*
X14094762Y-15739817D02*
X14085239Y-15720769D01*
X14085239Y-15720769D02*
X14085239Y-15663626D01*
X14085239Y-15663626D02*
X14094762Y-15644579D01*
X14094762Y-15644579D02*
X14104286Y-15635055D01*
X14104286Y-15635055D02*
X14123334Y-15625531D01*
X14123334Y-15625531D02*
X14151905Y-15625531D01*
X14151905Y-15625531D02*
X14170953Y-15635055D01*
X14170953Y-15635055D02*
X14180477Y-15644579D01*
X14180477Y-15644579D02*
X14190001Y-15663626D01*
X14190001Y-15663626D02*
X14190001Y-15720769D01*
X14190001Y-15720769D02*
X14180477Y-15739817D01*
X14180477Y-15739817D02*
X14170953Y-15749341D01*
X14170953Y-15749341D02*
X14151905Y-15758865D01*
X14151905Y-15758865D02*
X14123334Y-15758865D01*
X14247143Y-15625531D02*
X14323334Y-15625531D01*
X14275715Y-15558865D02*
X14275715Y-15730293D01*
X14275715Y-15730293D02*
X14285239Y-15749341D01*
X14285239Y-15749341D02*
X14304286Y-15758865D01*
X14304286Y-15758865D02*
X14323334Y-15758865D01*
X14542382Y-15625531D02*
X14542382Y-15825531D01*
X14542382Y-15635055D02*
X14561429Y-15625531D01*
X14561429Y-15625531D02*
X14599524Y-15625531D01*
X14599524Y-15625531D02*
X14618572Y-15635055D01*
X14618572Y-15635055D02*
X14628096Y-15644579D01*
X14628096Y-15644579D02*
X14637620Y-15663626D01*
X14637620Y-15663626D02*
X14637620Y-15720769D01*
X14637620Y-15720769D02*
X14628096Y-15739817D01*
X14628096Y-15739817D02*
X14618572Y-15749341D01*
X14618572Y-15749341D02*
X14599524Y-15758865D01*
X14599524Y-15758865D02*
X14561429Y-15758865D01*
X14561429Y-15758865D02*
X14542382Y-15749341D01*
X14751905Y-15758865D02*
X14732858Y-15749341D01*
X14732858Y-15749341D02*
X14723334Y-15730293D01*
X14723334Y-15730293D02*
X14723334Y-15558865D01*
X14913810Y-15758865D02*
X14913810Y-15654103D01*
X14913810Y-15654103D02*
X14904286Y-15635055D01*
X14904286Y-15635055D02*
X14885239Y-15625531D01*
X14885239Y-15625531D02*
X14847143Y-15625531D01*
X14847143Y-15625531D02*
X14828096Y-15635055D01*
X14913810Y-15749341D02*
X14894763Y-15758865D01*
X14894763Y-15758865D02*
X14847143Y-15758865D01*
X14847143Y-15758865D02*
X14828096Y-15749341D01*
X14828096Y-15749341D02*
X14818572Y-15730293D01*
X14818572Y-15730293D02*
X14818572Y-15711245D01*
X14818572Y-15711245D02*
X14828096Y-15692198D01*
X14828096Y-15692198D02*
X14847143Y-15682674D01*
X14847143Y-15682674D02*
X14894763Y-15682674D01*
X14894763Y-15682674D02*
X14913810Y-15673150D01*
X14980477Y-15625531D02*
X15056667Y-15625531D01*
X15009048Y-15558865D02*
X15009048Y-15730293D01*
X15009048Y-15730293D02*
X15018572Y-15749341D01*
X15018572Y-15749341D02*
X15037620Y-15758865D01*
X15037620Y-15758865D02*
X15056667Y-15758865D01*
X15199524Y-15749341D02*
X15180477Y-15758865D01*
X15180477Y-15758865D02*
X15142382Y-15758865D01*
X15142382Y-15758865D02*
X15123334Y-15749341D01*
X15123334Y-15749341D02*
X15113810Y-15730293D01*
X15113810Y-15730293D02*
X15113810Y-15654103D01*
X15113810Y-15654103D02*
X15123334Y-15635055D01*
X15123334Y-15635055D02*
X15142382Y-15625531D01*
X15142382Y-15625531D02*
X15180477Y-15625531D01*
X15180477Y-15625531D02*
X15199524Y-15635055D01*
X15199524Y-15635055D02*
X15209048Y-15654103D01*
X15209048Y-15654103D02*
X15209048Y-15673150D01*
X15209048Y-15673150D02*
X15113810Y-15692198D01*
X15380477Y-15758865D02*
X15380477Y-15558865D01*
X15380477Y-15749341D02*
X15361429Y-15758865D01*
X15361429Y-15758865D02*
X15323334Y-15758865D01*
X15323334Y-15758865D02*
X15304286Y-15749341D01*
X15304286Y-15749341D02*
X15294763Y-15739817D01*
X15294763Y-15739817D02*
X15285239Y-15720769D01*
X15285239Y-15720769D02*
X15285239Y-15663626D01*
X15285239Y-15663626D02*
X15294763Y-15644579D01*
X15294763Y-15644579D02*
X15304286Y-15635055D01*
X15304286Y-15635055D02*
X15323334Y-15625531D01*
X15323334Y-15625531D02*
X15361429Y-15625531D01*
X15361429Y-15625531D02*
X15380477Y-15635055D01*
X15456667Y-15835055D02*
X15466191Y-15825531D01*
X15466191Y-15825531D02*
X15485239Y-15796960D01*
X15485239Y-15796960D02*
X15494763Y-15777912D01*
X15494763Y-15777912D02*
X15504286Y-15749341D01*
X15504286Y-15749341D02*
X15513810Y-15701722D01*
X15513810Y-15701722D02*
X15513810Y-15663626D01*
X15513810Y-15663626D02*
X15504286Y-15616007D01*
X15504286Y-15616007D02*
X15494763Y-15587436D01*
X15494763Y-15587436D02*
X15485239Y-15568388D01*
X15485239Y-15568388D02*
X15466191Y-15539817D01*
X15466191Y-15539817D02*
X15456667Y-15530293D01*
M02*
