G04 #@! TF.GenerationSoftware,KiCad,Pcbnew,9.0.0*
G04 #@! TF.CreationDate,2025-07-07T15:25:40-04:00*
G04 #@! TF.ProjectId,mothers_day_necklace,6d6f7468-6572-4735-9f64-61795f6e6563,A*
G04 #@! TF.SameCoordinates,Original*
G04 #@! TF.FileFunction,Legend,Top*
G04 #@! TF.FilePolarity,Positive*
%FSLAX46Y46*%
G04 Gerber Fmt 4.6, Leading zero omitted, Abs format (unit mm)*
G04 Created by KiCad (PCBNEW 9.0.0) date 2025-07-07 15:25:40*
%MOMM*%
%LPD*%
G01*
G04 APERTURE LIST*
G04 Aperture macros list*
%AMRoundRect*
0 Rectangle with rounded corners*
0 $1 Rounding radius*
0 $2 $3 $4 $5 $6 $7 $8 $9 X,Y pos of 4 corners*
0 Add a 4 corners polygon primitive as box body*
4,1,4,$2,$3,$4,$5,$6,$7,$8,$9,$2,$3,0*
0 Add four circle primitives for the rounded corners*
1,1,$1+$1,$2,$3*
1,1,$1+$1,$4,$5*
1,1,$1+$1,$6,$7*
1,1,$1+$1,$8,$9*
0 Add four rect primitives between the rounded corners*
20,1,$1+$1,$2,$3,$4,$5,0*
20,1,$1+$1,$4,$5,$6,$7,0*
20,1,$1+$1,$6,$7,$8,$9,0*
20,1,$1+$1,$8,$9,$2,$3,0*%
%AMHorizOval*
0 Thick line with rounded ends*
0 $1 width*
0 $2 $3 position (X,Y) of the first rounded end (center of the circle)*
0 $4 $5 position (X,Y) of the second rounded end (center of the circle)*
0 Add line between two ends*
20,1,$1,$2,$3,$4,$5,0*
0 Add two circle primitives to create the rounded ends*
1,1,$1,$2,$3*
1,1,$1,$4,$5*%
G04 Aperture macros list end*
%ADD10C,0.000000*%
%ADD11C,0.125000*%
%ADD12C,0.100000*%
%ADD13C,0.150000*%
%ADD14C,0.120000*%
%ADD15C,0.127000*%
%ADD16RoundRect,0.062500X-0.287500X-0.062500X0.287500X-0.062500X0.287500X0.062500X-0.287500X0.062500X0*%
%ADD17R,0.900000X1.500000*%
%ADD18R,1.200000X1.200000*%
%ADD19C,1.200000*%
%ADD20C,3.000000*%
%ADD21C,2.400000*%
%ADD22O,2.400000X2.400000*%
%ADD23C,4.000000*%
%ADD24R,2.400000X2.400000*%
%ADD25HorizOval,2.400000X0.000000X0.000000X0.000000X0.000000X0*%
%ADD26HorizOval,2.400000X0.000000X0.000000X0.000000X0.000000X0*%
%ADD27C,18.004000*%
%ADD28C,2.504000*%
G04 APERTURE END LIST*
D10*
G36*
X124067616Y-136816534D02*
G01*
X124073737Y-136901953D01*
X124081939Y-136985273D01*
X124092244Y-137066474D01*
X124104671Y-137145539D01*
X124119241Y-137222448D01*
X124135973Y-137297183D01*
X124154887Y-137369725D01*
X124164983Y-137403951D01*
X124175848Y-137437255D01*
X124187500Y-137469643D01*
X124199960Y-137501125D01*
X124213248Y-137531707D01*
X124227383Y-137561399D01*
X124242385Y-137590208D01*
X124258275Y-137618143D01*
X124275072Y-137645211D01*
X124292796Y-137671420D01*
X124311467Y-137696779D01*
X124331105Y-137721295D01*
X124351729Y-137744977D01*
X124373360Y-137767833D01*
X124396017Y-137789871D01*
X124419721Y-137811098D01*
X124455811Y-137839783D01*
X124493783Y-137865622D01*
X124533437Y-137888745D01*
X124574576Y-137909276D01*
X124616999Y-137927344D01*
X124660511Y-137943074D01*
X124750000Y-137968031D01*
X124841456Y-137985162D01*
X124933290Y-137995480D01*
X125023914Y-138000000D01*
X125111741Y-137999738D01*
X125195183Y-137995707D01*
X125272651Y-137988922D01*
X125403315Y-137971148D01*
X125523090Y-137947189D01*
X125489767Y-137677480D01*
X126014355Y-138028776D01*
X125592796Y-138511441D01*
X125565098Y-138287227D01*
X125533185Y-138292908D01*
X125445153Y-138304149D01*
X125383706Y-138309133D01*
X125312565Y-138312242D01*
X125233176Y-138312387D01*
X125146982Y-138308482D01*
X125055431Y-138299436D01*
X125008097Y-138292645D01*
X124959966Y-138284162D01*
X124911217Y-138273849D01*
X124862033Y-138261571D01*
X124812592Y-138247192D01*
X124763077Y-138230576D01*
X124713667Y-138211586D01*
X124664543Y-138190087D01*
X124615887Y-138165943D01*
X124567878Y-138139018D01*
X124520697Y-138109175D01*
X124474525Y-138076279D01*
X124429542Y-138040193D01*
X124385929Y-138000782D01*
X124336979Y-137950066D01*
X124291693Y-137895398D01*
X124250022Y-137836817D01*
X124211917Y-137774360D01*
X124177327Y-137708066D01*
X124146204Y-137637972D01*
X124118498Y-137564117D01*
X124094160Y-137486539D01*
X124073140Y-137405275D01*
X124055389Y-137320363D01*
X124040857Y-137231843D01*
X124029495Y-137139752D01*
X124021254Y-137044127D01*
X124016083Y-136945007D01*
X124013935Y-136842430D01*
X124014758Y-136736434D01*
X124015025Y-136736235D01*
X124015459Y-136736016D01*
X124016798Y-136735532D01*
X124018705Y-136734993D01*
X124021111Y-136734415D01*
X124027141Y-136733187D01*
X124034331Y-136731953D01*
X124042124Y-136730816D01*
X124049964Y-136729882D01*
X124053727Y-136729523D01*
X124057294Y-136729254D01*
X124060593Y-136729087D01*
X124063556Y-136729035D01*
X124067616Y-136816534D01*
G37*
D11*
X120214155Y-130001759D02*
X120618216Y-130405820D01*
X119709079Y-130910896D02*
X120416186Y-130203790D01*
X120247827Y-131449645D02*
X120214155Y-131348629D01*
X120214155Y-131348629D02*
X120214155Y-131281286D01*
X120214155Y-131281286D02*
X120247827Y-131180271D01*
X120247827Y-131180271D02*
X120449858Y-130978240D01*
X120449858Y-130978240D02*
X120550873Y-130944568D01*
X120550873Y-130944568D02*
X120618216Y-130944568D01*
X120618216Y-130944568D02*
X120719232Y-130978240D01*
X120719232Y-130978240D02*
X120820247Y-131079255D01*
X120820247Y-131079255D02*
X120853919Y-131180271D01*
X120853919Y-131180271D02*
X120853919Y-131247614D01*
X120853919Y-131247614D02*
X120820247Y-131348629D01*
X120820247Y-131348629D02*
X120618216Y-131550660D01*
X120618216Y-131550660D02*
X120517201Y-131584332D01*
X120517201Y-131584332D02*
X120449858Y-131584332D01*
X120449858Y-131584332D02*
X120348842Y-131550660D01*
X120348842Y-131550660D02*
X120247827Y-131449645D01*
X121561025Y-131820034D02*
X121089621Y-132291439D01*
X121257980Y-131516988D02*
X120887590Y-131887378D01*
X120887590Y-131887378D02*
X120853919Y-131988393D01*
X120853919Y-131988393D02*
X120887590Y-132089408D01*
X120887590Y-132089408D02*
X120988606Y-132190423D01*
X120988606Y-132190423D02*
X121089621Y-132224095D01*
X121089621Y-132224095D02*
X121156964Y-132224095D01*
X121763056Y-132897530D02*
X121662041Y-132863858D01*
X121662041Y-132863858D02*
X121527354Y-132729171D01*
X121527354Y-132729171D02*
X121493682Y-132628156D01*
X121493682Y-132628156D02*
X121493682Y-132560813D01*
X121493682Y-132560813D02*
X121527354Y-132459797D01*
X121527354Y-132459797D02*
X121729384Y-132257767D01*
X121729384Y-132257767D02*
X121830399Y-132224095D01*
X121830399Y-132224095D02*
X121897743Y-132224095D01*
X121897743Y-132224095D02*
X121998758Y-132257767D01*
X121998758Y-132257767D02*
X122133445Y-132392454D01*
X122133445Y-132392454D02*
X122167117Y-132493469D01*
X122032430Y-133234248D02*
X122739537Y-132527141D01*
X122335476Y-133537294D02*
X122705865Y-133166904D01*
X122705865Y-133166904D02*
X122739537Y-133065889D01*
X122739537Y-133065889D02*
X122705865Y-132964874D01*
X122705865Y-132964874D02*
X122604850Y-132863858D01*
X122604850Y-132863858D02*
X122503835Y-132830187D01*
X122503835Y-132830187D02*
X122436491Y-132830187D01*
X118840051Y-131375863D02*
X119109425Y-131645237D01*
X119176768Y-131241176D02*
X118570677Y-131847268D01*
X118570677Y-131847268D02*
X118537005Y-131948283D01*
X118537005Y-131948283D02*
X118570677Y-132049298D01*
X118570677Y-132049298D02*
X118638020Y-132116642D01*
X118974738Y-132453360D02*
X118941066Y-132352345D01*
X118941066Y-132352345D02*
X118941066Y-132285001D01*
X118941066Y-132285001D02*
X118974738Y-132183986D01*
X118974738Y-132183986D02*
X119176769Y-131981955D01*
X119176769Y-131981955D02*
X119277784Y-131948284D01*
X119277784Y-131948284D02*
X119345127Y-131948284D01*
X119345127Y-131948284D02*
X119446143Y-131981955D01*
X119446143Y-131981955D02*
X119547158Y-132082971D01*
X119547158Y-132082971D02*
X119580830Y-132183986D01*
X119580830Y-132183986D02*
X119580830Y-132251329D01*
X119580830Y-132251329D02*
X119547158Y-132352345D01*
X119547158Y-132352345D02*
X119345127Y-132554375D01*
X119345127Y-132554375D02*
X119244112Y-132588047D01*
X119244112Y-132588047D02*
X119176769Y-132588047D01*
X119176769Y-132588047D02*
X119075753Y-132554375D01*
X119075753Y-132554375D02*
X118974738Y-132453360D01*
X120153250Y-133631871D02*
X120119578Y-133530856D01*
X120119578Y-133530856D02*
X120153250Y-133429841D01*
X120153250Y-133429841D02*
X120759341Y-132823749D01*
X120422624Y-133901246D02*
X120894029Y-133429841D01*
X121129731Y-133194139D02*
X121062387Y-133194139D01*
X121062387Y-133194139D02*
X121062387Y-133261482D01*
X121062387Y-133261482D02*
X121129731Y-133261482D01*
X121129731Y-133261482D02*
X121129731Y-133194139D01*
X121129731Y-133194139D02*
X121062387Y-133261482D01*
X121533791Y-134069604D02*
X120961372Y-134642024D01*
X120961372Y-134642024D02*
X120860356Y-134675696D01*
X120860356Y-134675696D02*
X120793013Y-134675696D01*
X120793013Y-134675696D02*
X120691998Y-134642024D01*
X120691998Y-134642024D02*
X120590982Y-134541009D01*
X120590982Y-134541009D02*
X120557311Y-134439993D01*
X121096059Y-134507337D02*
X120995043Y-134473665D01*
X120995043Y-134473665D02*
X120860356Y-134338978D01*
X120860356Y-134338978D02*
X120826685Y-134237963D01*
X120826685Y-134237963D02*
X120826685Y-134170619D01*
X120826685Y-134170619D02*
X120860356Y-134069604D01*
X120860356Y-134069604D02*
X121062387Y-133867574D01*
X121062387Y-133867574D02*
X121163402Y-133833902D01*
X121163402Y-133833902D02*
X121230746Y-133833902D01*
X121230746Y-133833902D02*
X121331761Y-133867574D01*
X121331761Y-133867574D02*
X121466448Y-134002261D01*
X121466448Y-134002261D02*
X121500120Y-134103276D01*
X121399105Y-134877726D02*
X122106211Y-134170619D01*
X121702150Y-135180772D02*
X122072540Y-134810383D01*
X122072540Y-134810383D02*
X122106211Y-134709367D01*
X122106211Y-134709367D02*
X122072540Y-134608352D01*
X122072540Y-134608352D02*
X121971524Y-134507337D01*
X121971524Y-134507337D02*
X121870509Y-134473665D01*
X121870509Y-134473665D02*
X121803166Y-134473665D01*
X122409257Y-134945070D02*
X122678631Y-135214444D01*
X122745975Y-134810383D02*
X122139883Y-135416474D01*
X122139883Y-135416474D02*
X122106211Y-135517490D01*
X122106211Y-135517490D02*
X122139883Y-135618505D01*
X122139883Y-135618505D02*
X122207227Y-135685848D01*
X117331260Y-133086685D02*
X117802664Y-132615281D01*
X117735321Y-132682624D02*
X117802664Y-132682624D01*
X117802664Y-132682624D02*
X117903679Y-132716296D01*
X117903679Y-132716296D02*
X118004695Y-132817311D01*
X118004695Y-132817311D02*
X118038366Y-132918326D01*
X118038366Y-132918326D02*
X118004695Y-133019342D01*
X118004695Y-133019342D02*
X117634305Y-133389731D01*
X118004695Y-133019342D02*
X118105710Y-132985670D01*
X118105710Y-132985670D02*
X118206725Y-133019342D01*
X118206725Y-133019342D02*
X118307740Y-133120357D01*
X118307740Y-133120357D02*
X118341412Y-133221372D01*
X118341412Y-133221372D02*
X118307740Y-133322387D01*
X118307740Y-133322387D02*
X117937351Y-133692777D01*
X118577114Y-134265196D02*
X118476099Y-134231525D01*
X118476099Y-134231525D02*
X118341412Y-134096838D01*
X118341412Y-134096838D02*
X118307740Y-133995822D01*
X118307740Y-133995822D02*
X118341412Y-133894807D01*
X118341412Y-133894807D02*
X118610786Y-133625433D01*
X118610786Y-133625433D02*
X118711801Y-133591761D01*
X118711801Y-133591761D02*
X118812816Y-133625433D01*
X118812816Y-133625433D02*
X118947503Y-133760120D01*
X118947503Y-133760120D02*
X118981175Y-133861135D01*
X118981175Y-133861135D02*
X118947503Y-133962151D01*
X118947503Y-133962151D02*
X118880160Y-134029494D01*
X118880160Y-134029494D02*
X118476099Y-133760120D01*
X120193358Y-135005975D02*
X119721954Y-135477380D01*
X119890313Y-134702929D02*
X119519923Y-135073319D01*
X119519923Y-135073319D02*
X119486252Y-135174334D01*
X119486252Y-135174334D02*
X119519923Y-135275349D01*
X119519923Y-135275349D02*
X119620939Y-135376364D01*
X119620939Y-135376364D02*
X119721954Y-135410036D01*
X119721954Y-135410036D02*
X119789297Y-135410036D01*
X120530076Y-135342693D02*
X119822969Y-136049799D01*
X120496404Y-135376364D02*
X120597420Y-135410036D01*
X120597420Y-135410036D02*
X120732107Y-135544723D01*
X120732107Y-135544723D02*
X120765778Y-135645738D01*
X120765778Y-135645738D02*
X120765778Y-135713082D01*
X120765778Y-135713082D02*
X120732107Y-135814097D01*
X120732107Y-135814097D02*
X120530076Y-136016128D01*
X120530076Y-136016128D02*
X120429061Y-136049799D01*
X120429061Y-136049799D02*
X120361717Y-136049799D01*
X120361717Y-136049799D02*
X120260702Y-136016128D01*
X120260702Y-136016128D02*
X120126015Y-135881441D01*
X120126015Y-135881441D02*
X120092343Y-135780425D01*
X120765778Y-136386517D02*
X120765778Y-136453861D01*
X120765778Y-136453861D02*
X120698435Y-136453861D01*
X120698435Y-136453861D02*
X120698435Y-136386517D01*
X120698435Y-136386517D02*
X120765778Y-136386517D01*
X120765778Y-136386517D02*
X120698435Y-136453861D01*
X120967809Y-136184487D02*
X121338198Y-135746754D01*
X121338198Y-135746754D02*
X121405542Y-135746754D01*
X121405542Y-135746754D02*
X121405542Y-135814097D01*
X121405542Y-135814097D02*
X120967809Y-136184487D01*
X120967809Y-136184487D02*
X121405542Y-135746754D01*
D12*
X126036222Y-134347926D02*
X121942073Y-138442074D01*
X116023590Y-132523590D01*
X120117738Y-128429442D01*
X126036222Y-134347926D01*
D13*
X130213095Y-84739819D02*
X130213095Y-85549342D01*
X130213095Y-85549342D02*
X130260714Y-85644580D01*
X130260714Y-85644580D02*
X130308333Y-85692200D01*
X130308333Y-85692200D02*
X130403571Y-85739819D01*
X130403571Y-85739819D02*
X130594047Y-85739819D01*
X130594047Y-85739819D02*
X130689285Y-85692200D01*
X130689285Y-85692200D02*
X130736904Y-85644580D01*
X130736904Y-85644580D02*
X130784523Y-85549342D01*
X130784523Y-85549342D02*
X130784523Y-84739819D01*
X131784523Y-85739819D02*
X131213095Y-85739819D01*
X131498809Y-85739819D02*
X131498809Y-84739819D01*
X131498809Y-84739819D02*
X131403571Y-84882676D01*
X131403571Y-84882676D02*
X131308333Y-84977914D01*
X131308333Y-84977914D02*
X131213095Y-85025533D01*
X112109580Y-89416666D02*
X112157200Y-89464285D01*
X112157200Y-89464285D02*
X112204819Y-89607142D01*
X112204819Y-89607142D02*
X112204819Y-89702380D01*
X112204819Y-89702380D02*
X112157200Y-89845237D01*
X112157200Y-89845237D02*
X112061961Y-89940475D01*
X112061961Y-89940475D02*
X111966723Y-89988094D01*
X111966723Y-89988094D02*
X111776247Y-90035713D01*
X111776247Y-90035713D02*
X111633390Y-90035713D01*
X111633390Y-90035713D02*
X111442914Y-89988094D01*
X111442914Y-89988094D02*
X111347676Y-89940475D01*
X111347676Y-89940475D02*
X111252438Y-89845237D01*
X111252438Y-89845237D02*
X111204819Y-89702380D01*
X111204819Y-89702380D02*
X111204819Y-89607142D01*
X111204819Y-89607142D02*
X111252438Y-89464285D01*
X111252438Y-89464285D02*
X111300057Y-89416666D01*
X112204819Y-88464285D02*
X112204819Y-89035713D01*
X112204819Y-88749999D02*
X111204819Y-88749999D01*
X111204819Y-88749999D02*
X111347676Y-88845237D01*
X111347676Y-88845237D02*
X111442914Y-88940475D01*
X111442914Y-88940475D02*
X111490533Y-89035713D01*
X111954819Y-102756666D02*
X111478628Y-103089999D01*
X111954819Y-103328094D02*
X110954819Y-103328094D01*
X110954819Y-103328094D02*
X110954819Y-102947142D01*
X110954819Y-102947142D02*
X111002438Y-102851904D01*
X111002438Y-102851904D02*
X111050057Y-102804285D01*
X111050057Y-102804285D02*
X111145295Y-102756666D01*
X111145295Y-102756666D02*
X111288152Y-102756666D01*
X111288152Y-102756666D02*
X111383390Y-102804285D01*
X111383390Y-102804285D02*
X111431009Y-102851904D01*
X111431009Y-102851904D02*
X111478628Y-102947142D01*
X111478628Y-102947142D02*
X111478628Y-103328094D01*
X110954819Y-102423332D02*
X110954819Y-101804285D01*
X110954819Y-101804285D02*
X111335771Y-102137618D01*
X111335771Y-102137618D02*
X111335771Y-101994761D01*
X111335771Y-101994761D02*
X111383390Y-101899523D01*
X111383390Y-101899523D02*
X111431009Y-101851904D01*
X111431009Y-101851904D02*
X111526247Y-101804285D01*
X111526247Y-101804285D02*
X111764342Y-101804285D01*
X111764342Y-101804285D02*
X111859580Y-101851904D01*
X111859580Y-101851904D02*
X111907200Y-101899523D01*
X111907200Y-101899523D02*
X111954819Y-101994761D01*
X111954819Y-101994761D02*
X111954819Y-102280475D01*
X111954819Y-102280475D02*
X111907200Y-102375713D01*
X111907200Y-102375713D02*
X111859580Y-102423332D01*
X148609580Y-89416666D02*
X148657200Y-89464285D01*
X148657200Y-89464285D02*
X148704819Y-89607142D01*
X148704819Y-89607142D02*
X148704819Y-89702380D01*
X148704819Y-89702380D02*
X148657200Y-89845237D01*
X148657200Y-89845237D02*
X148561961Y-89940475D01*
X148561961Y-89940475D02*
X148466723Y-89988094D01*
X148466723Y-89988094D02*
X148276247Y-90035713D01*
X148276247Y-90035713D02*
X148133390Y-90035713D01*
X148133390Y-90035713D02*
X147942914Y-89988094D01*
X147942914Y-89988094D02*
X147847676Y-89940475D01*
X147847676Y-89940475D02*
X147752438Y-89845237D01*
X147752438Y-89845237D02*
X147704819Y-89702380D01*
X147704819Y-89702380D02*
X147704819Y-89607142D01*
X147704819Y-89607142D02*
X147752438Y-89464285D01*
X147752438Y-89464285D02*
X147800057Y-89416666D01*
X147800057Y-89035713D02*
X147752438Y-88988094D01*
X147752438Y-88988094D02*
X147704819Y-88892856D01*
X147704819Y-88892856D02*
X147704819Y-88654761D01*
X147704819Y-88654761D02*
X147752438Y-88559523D01*
X147752438Y-88559523D02*
X147800057Y-88511904D01*
X147800057Y-88511904D02*
X147895295Y-88464285D01*
X147895295Y-88464285D02*
X147990533Y-88464285D01*
X147990533Y-88464285D02*
X148133390Y-88511904D01*
X148133390Y-88511904D02*
X148704819Y-89083332D01*
X148704819Y-89083332D02*
X148704819Y-88464285D01*
X129833333Y-119824819D02*
X129500000Y-119348628D01*
X129261905Y-119824819D02*
X129261905Y-118824819D01*
X129261905Y-118824819D02*
X129642857Y-118824819D01*
X129642857Y-118824819D02*
X129738095Y-118872438D01*
X129738095Y-118872438D02*
X129785714Y-118920057D01*
X129785714Y-118920057D02*
X129833333Y-119015295D01*
X129833333Y-119015295D02*
X129833333Y-119158152D01*
X129833333Y-119158152D02*
X129785714Y-119253390D01*
X129785714Y-119253390D02*
X129738095Y-119301009D01*
X129738095Y-119301009D02*
X129642857Y-119348628D01*
X129642857Y-119348628D02*
X129261905Y-119348628D01*
X130785714Y-119824819D02*
X130214286Y-119824819D01*
X130500000Y-119824819D02*
X130500000Y-118824819D01*
X130500000Y-118824819D02*
X130404762Y-118967676D01*
X130404762Y-118967676D02*
X130309524Y-119062914D01*
X130309524Y-119062914D02*
X130214286Y-119110533D01*
X128738095Y-133556819D02*
X129309523Y-133556819D01*
X129023809Y-134556819D02*
X129023809Y-133556819D01*
X129642857Y-134556819D02*
X129642857Y-133556819D01*
X129642857Y-133556819D02*
X130023809Y-133556819D01*
X130023809Y-133556819D02*
X130119047Y-133604438D01*
X130119047Y-133604438D02*
X130166666Y-133652057D01*
X130166666Y-133652057D02*
X130214285Y-133747295D01*
X130214285Y-133747295D02*
X130214285Y-133890152D01*
X130214285Y-133890152D02*
X130166666Y-133985390D01*
X130166666Y-133985390D02*
X130119047Y-134033009D01*
X130119047Y-134033009D02*
X130023809Y-134080628D01*
X130023809Y-134080628D02*
X129642857Y-134080628D01*
X131166666Y-134556819D02*
X130595238Y-134556819D01*
X130880952Y-134556819D02*
X130880952Y-133556819D01*
X130880952Y-133556819D02*
X130785714Y-133699676D01*
X130785714Y-133699676D02*
X130690476Y-133794914D01*
X130690476Y-133794914D02*
X130595238Y-133842533D01*
X129261905Y-121394819D02*
X129261905Y-120394819D01*
X129261905Y-120394819D02*
X129500000Y-120394819D01*
X129500000Y-120394819D02*
X129642857Y-120442438D01*
X129642857Y-120442438D02*
X129738095Y-120537676D01*
X129738095Y-120537676D02*
X129785714Y-120632914D01*
X129785714Y-120632914D02*
X129833333Y-120823390D01*
X129833333Y-120823390D02*
X129833333Y-120966247D01*
X129833333Y-120966247D02*
X129785714Y-121156723D01*
X129785714Y-121156723D02*
X129738095Y-121251961D01*
X129738095Y-121251961D02*
X129642857Y-121347200D01*
X129642857Y-121347200D02*
X129500000Y-121394819D01*
X129500000Y-121394819D02*
X129261905Y-121394819D01*
X130166667Y-120394819D02*
X130785714Y-120394819D01*
X130785714Y-120394819D02*
X130452381Y-120775771D01*
X130452381Y-120775771D02*
X130595238Y-120775771D01*
X130595238Y-120775771D02*
X130690476Y-120823390D01*
X130690476Y-120823390D02*
X130738095Y-120871009D01*
X130738095Y-120871009D02*
X130785714Y-120966247D01*
X130785714Y-120966247D02*
X130785714Y-121204342D01*
X130785714Y-121204342D02*
X130738095Y-121299580D01*
X130738095Y-121299580D02*
X130690476Y-121347200D01*
X130690476Y-121347200D02*
X130595238Y-121394819D01*
X130595238Y-121394819D02*
X130309524Y-121394819D01*
X130309524Y-121394819D02*
X130214286Y-121347200D01*
X130214286Y-121347200D02*
X130166667Y-121299580D01*
X110384697Y-120379595D02*
X110485712Y-119807176D01*
X109980636Y-119975534D02*
X110687743Y-119268428D01*
X110687743Y-119268428D02*
X110957117Y-119537802D01*
X110957117Y-119537802D02*
X110990789Y-119638817D01*
X110990789Y-119638817D02*
X110990789Y-119706160D01*
X110990789Y-119706160D02*
X110957117Y-119807176D01*
X110957117Y-119807176D02*
X110856102Y-119908191D01*
X110856102Y-119908191D02*
X110755086Y-119941863D01*
X110755086Y-119941863D02*
X110687743Y-119941863D01*
X110687743Y-119941863D02*
X110586728Y-119908191D01*
X110586728Y-119908191D02*
X110317354Y-119638817D01*
X111293834Y-120009206D02*
X111361178Y-120009206D01*
X111361178Y-120009206D02*
X111462193Y-120042878D01*
X111462193Y-120042878D02*
X111630552Y-120211237D01*
X111630552Y-120211237D02*
X111664224Y-120312252D01*
X111664224Y-120312252D02*
X111664224Y-120379595D01*
X111664224Y-120379595D02*
X111630552Y-120480611D01*
X111630552Y-120480611D02*
X111563208Y-120547954D01*
X111563208Y-120547954D02*
X111428521Y-120615298D01*
X111428521Y-120615298D02*
X110620399Y-120615298D01*
X110620399Y-120615298D02*
X111058132Y-121053030D01*
X155084819Y-105166666D02*
X154608628Y-105499999D01*
X155084819Y-105738094D02*
X154084819Y-105738094D01*
X154084819Y-105738094D02*
X154084819Y-105357142D01*
X154084819Y-105357142D02*
X154132438Y-105261904D01*
X154132438Y-105261904D02*
X154180057Y-105214285D01*
X154180057Y-105214285D02*
X154275295Y-105166666D01*
X154275295Y-105166666D02*
X154418152Y-105166666D01*
X154418152Y-105166666D02*
X154513390Y-105214285D01*
X154513390Y-105214285D02*
X154561009Y-105261904D01*
X154561009Y-105261904D02*
X154608628Y-105357142D01*
X154608628Y-105357142D02*
X154608628Y-105738094D01*
X154418152Y-104309523D02*
X155084819Y-104309523D01*
X154037200Y-104547618D02*
X154751485Y-104785713D01*
X154751485Y-104785713D02*
X154751485Y-104166666D01*
X149527913Y-119763610D02*
X148955494Y-119662595D01*
X149123852Y-120167671D02*
X148416746Y-119460564D01*
X148416746Y-119460564D02*
X148686120Y-119191190D01*
X148686120Y-119191190D02*
X148787135Y-119157518D01*
X148787135Y-119157518D02*
X148854478Y-119157518D01*
X148854478Y-119157518D02*
X148955494Y-119191190D01*
X148955494Y-119191190D02*
X149056509Y-119292205D01*
X149056509Y-119292205D02*
X149090181Y-119393221D01*
X149090181Y-119393221D02*
X149090181Y-119460564D01*
X149090181Y-119460564D02*
X149056509Y-119561579D01*
X149056509Y-119561579D02*
X148787135Y-119830953D01*
X149460570Y-118416740D02*
X149123852Y-118753457D01*
X149123852Y-118753457D02*
X149426898Y-119123847D01*
X149426898Y-119123847D02*
X149426898Y-119056503D01*
X149426898Y-119056503D02*
X149460570Y-118955488D01*
X149460570Y-118955488D02*
X149628929Y-118787129D01*
X149628929Y-118787129D02*
X149729944Y-118753457D01*
X149729944Y-118753457D02*
X149797287Y-118753457D01*
X149797287Y-118753457D02*
X149898303Y-118787129D01*
X149898303Y-118787129D02*
X150066661Y-118955488D01*
X150066661Y-118955488D02*
X150100333Y-119056503D01*
X150100333Y-119056503D02*
X150100333Y-119123847D01*
X150100333Y-119123847D02*
X150066661Y-119224862D01*
X150066661Y-119224862D02*
X149898303Y-119393221D01*
X149898303Y-119393221D02*
X149797287Y-119426892D01*
X149797287Y-119426892D02*
X149729944Y-119426892D01*
X159031905Y-85934819D02*
X159031905Y-84934819D01*
X159031905Y-84934819D02*
X159270000Y-84934819D01*
X159270000Y-84934819D02*
X159412857Y-84982438D01*
X159412857Y-84982438D02*
X159508095Y-85077676D01*
X159508095Y-85077676D02*
X159555714Y-85172914D01*
X159555714Y-85172914D02*
X159603333Y-85363390D01*
X159603333Y-85363390D02*
X159603333Y-85506247D01*
X159603333Y-85506247D02*
X159555714Y-85696723D01*
X159555714Y-85696723D02*
X159508095Y-85791961D01*
X159508095Y-85791961D02*
X159412857Y-85887200D01*
X159412857Y-85887200D02*
X159270000Y-85934819D01*
X159270000Y-85934819D02*
X159031905Y-85934819D01*
X159984286Y-85030057D02*
X160031905Y-84982438D01*
X160031905Y-84982438D02*
X160127143Y-84934819D01*
X160127143Y-84934819D02*
X160365238Y-84934819D01*
X160365238Y-84934819D02*
X160460476Y-84982438D01*
X160460476Y-84982438D02*
X160508095Y-85030057D01*
X160508095Y-85030057D02*
X160555714Y-85125295D01*
X160555714Y-85125295D02*
X160555714Y-85220533D01*
X160555714Y-85220533D02*
X160508095Y-85363390D01*
X160508095Y-85363390D02*
X159936667Y-85934819D01*
X159936667Y-85934819D02*
X160555714Y-85934819D01*
X122845000Y-92017533D02*
X123045000Y-92084200D01*
X123045000Y-92084200D02*
X123111666Y-92150866D01*
X123111666Y-92150866D02*
X123178333Y-92284200D01*
X123178333Y-92284200D02*
X123178333Y-92484200D01*
X123178333Y-92484200D02*
X123111666Y-92617533D01*
X123111666Y-92617533D02*
X123045000Y-92684200D01*
X123045000Y-92684200D02*
X122911666Y-92750866D01*
X122911666Y-92750866D02*
X122378333Y-92750866D01*
X122378333Y-92750866D02*
X122378333Y-91350866D01*
X122378333Y-91350866D02*
X122845000Y-91350866D01*
X122845000Y-91350866D02*
X122978333Y-91417533D01*
X122978333Y-91417533D02*
X123045000Y-91484200D01*
X123045000Y-91484200D02*
X123111666Y-91617533D01*
X123111666Y-91617533D02*
X123111666Y-91750866D01*
X123111666Y-91750866D02*
X123045000Y-91884200D01*
X123045000Y-91884200D02*
X122978333Y-91950866D01*
X122978333Y-91950866D02*
X122845000Y-92017533D01*
X122845000Y-92017533D02*
X122378333Y-92017533D01*
X123578333Y-91350866D02*
X124378333Y-91350866D01*
X123978333Y-92750866D02*
X123978333Y-91350866D01*
X125578333Y-92750866D02*
X124778333Y-92750866D01*
X125178333Y-92750866D02*
X125178333Y-91350866D01*
X125178333Y-91350866D02*
X125045000Y-91550866D01*
X125045000Y-91550866D02*
X124911667Y-91684200D01*
X124911667Y-91684200D02*
X124778333Y-91750866D01*
X99491905Y-96974819D02*
X99491905Y-95974819D01*
X99491905Y-95974819D02*
X99730000Y-95974819D01*
X99730000Y-95974819D02*
X99872857Y-96022438D01*
X99872857Y-96022438D02*
X99968095Y-96117676D01*
X99968095Y-96117676D02*
X100015714Y-96212914D01*
X100015714Y-96212914D02*
X100063333Y-96403390D01*
X100063333Y-96403390D02*
X100063333Y-96546247D01*
X100063333Y-96546247D02*
X100015714Y-96736723D01*
X100015714Y-96736723D02*
X99968095Y-96831961D01*
X99968095Y-96831961D02*
X99872857Y-96927200D01*
X99872857Y-96927200D02*
X99730000Y-96974819D01*
X99730000Y-96974819D02*
X99491905Y-96974819D01*
X101015714Y-96974819D02*
X100444286Y-96974819D01*
X100730000Y-96974819D02*
X100730000Y-95974819D01*
X100730000Y-95974819D02*
X100634762Y-96117676D01*
X100634762Y-96117676D02*
X100539524Y-96212914D01*
X100539524Y-96212914D02*
X100444286Y-96260533D01*
D14*
X129975000Y-86100000D02*
X131975000Y-86100000D01*
X129975000Y-88370000D02*
X131975000Y-88370000D01*
X129455000Y-86185000D02*
X129175000Y-86185000D01*
X129455000Y-85905000D01*
X129455000Y-86185000D01*
G36*
X129455000Y-86185000D02*
G01*
X129175000Y-86185000D01*
X129455000Y-85905000D01*
X129455000Y-86185000D01*
G37*
X112920000Y-89210000D02*
X114160000Y-89210000D01*
X112920000Y-89250000D02*
X114160000Y-89250000D01*
X112921000Y-89170000D02*
X114160000Y-89170000D01*
X112923000Y-89130000D02*
X114160000Y-89130000D01*
X112926000Y-89090000D02*
X114160000Y-89090000D01*
X112929000Y-89050000D02*
X114160000Y-89050000D01*
X112933000Y-89010000D02*
X114160000Y-89010000D01*
X112938000Y-88970000D02*
X114160000Y-88970000D01*
X112944000Y-88930000D02*
X114160000Y-88930000D01*
X112950000Y-88890000D02*
X114160000Y-88890000D01*
X112958000Y-88850000D02*
X114160000Y-88850000D01*
X112966000Y-88810000D02*
X114160000Y-88810000D01*
X112975000Y-88770000D02*
X114160000Y-88770000D01*
X112984000Y-88730000D02*
X114160000Y-88730000D01*
X112995000Y-88690000D02*
X114160000Y-88690000D01*
X113006000Y-88650000D02*
X114160000Y-88650000D01*
X113018000Y-88610000D02*
X114160000Y-88610000D01*
X113032000Y-88570000D02*
X114160000Y-88570000D01*
X113046000Y-88529000D02*
X114160000Y-88529000D01*
X113060000Y-88489000D02*
X114160000Y-88489000D01*
X113076000Y-88449000D02*
X114160000Y-88449000D01*
X113093000Y-88409000D02*
X114160000Y-88409000D01*
X113111000Y-88369000D02*
X114160000Y-88369000D01*
X113130000Y-88329000D02*
X114160000Y-88329000D01*
X113149000Y-88289000D02*
X114160000Y-88289000D01*
X113170000Y-88249000D02*
X114160000Y-88249000D01*
X113192000Y-88209000D02*
X114160000Y-88209000D01*
X113215000Y-88169000D02*
X114160000Y-88169000D01*
X113240000Y-88129000D02*
X114160000Y-88129000D01*
X113265000Y-88089000D02*
X114160000Y-88089000D01*
X113292000Y-88049000D02*
X114160000Y-88049000D01*
X113320000Y-88009000D02*
X114160000Y-88009000D01*
X113350000Y-87969000D02*
X114160000Y-87969000D01*
X113381000Y-87929000D02*
X114160000Y-87929000D01*
X113413000Y-87889000D02*
X114160000Y-87889000D01*
X113448000Y-87849000D02*
X114160000Y-87849000D01*
X113484000Y-87809000D02*
X114160000Y-87809000D01*
X113522000Y-87769000D02*
X114160000Y-87769000D01*
X113562000Y-87729000D02*
X114160000Y-87729000D01*
X113604000Y-87689000D02*
X114160000Y-87689000D01*
X113605000Y-91319801D02*
X114005000Y-91319801D01*
X113649000Y-87649000D02*
X116351000Y-87649000D01*
X113696000Y-87609000D02*
X116304000Y-87609000D01*
X113746000Y-87569000D02*
X116254000Y-87569000D01*
X113800000Y-87529000D02*
X116200000Y-87529000D01*
X113805000Y-91519801D02*
X113805000Y-91119801D01*
X113858000Y-87489000D02*
X116142000Y-87489000D01*
X113920000Y-87449000D02*
X116080000Y-87449000D01*
X113987000Y-87409000D02*
X116013000Y-87409000D01*
X114060000Y-87369000D02*
X115940000Y-87369000D01*
X114141000Y-87329000D02*
X115859000Y-87329000D01*
X114232000Y-87289000D02*
X115768000Y-87289000D01*
X114336000Y-87249000D02*
X115664000Y-87249000D01*
X114463000Y-87209000D02*
X115537000Y-87209000D01*
X114630000Y-87169000D02*
X115370000Y-87169000D01*
X115840000Y-87689000D02*
X116396000Y-87689000D01*
X115840000Y-87729000D02*
X116438000Y-87729000D01*
X115840000Y-87769000D02*
X116478000Y-87769000D01*
X115840000Y-87809000D02*
X116516000Y-87809000D01*
X115840000Y-87849000D02*
X116552000Y-87849000D01*
X115840000Y-87889000D02*
X116587000Y-87889000D01*
X115840000Y-87929000D02*
X116619000Y-87929000D01*
X115840000Y-87969000D02*
X116650000Y-87969000D01*
X115840000Y-88009000D02*
X116680000Y-88009000D01*
X115840000Y-88049000D02*
X116708000Y-88049000D01*
X115840000Y-88089000D02*
X116735000Y-88089000D01*
X115840000Y-88129000D02*
X116760000Y-88129000D01*
X115840000Y-88169000D02*
X116785000Y-88169000D01*
X115840000Y-88209000D02*
X116808000Y-88209000D01*
X115840000Y-88249000D02*
X116830000Y-88249000D01*
X115840000Y-88289000D02*
X116851000Y-88289000D01*
X115840000Y-88329000D02*
X116870000Y-88329000D01*
X115840000Y-88369000D02*
X116889000Y-88369000D01*
X115840000Y-88409000D02*
X116907000Y-88409000D01*
X115840000Y-88449000D02*
X116924000Y-88449000D01*
X115840000Y-88489000D02*
X116940000Y-88489000D01*
X115840000Y-88529000D02*
X116954000Y-88529000D01*
X115840000Y-88570000D02*
X116968000Y-88570000D01*
X115840000Y-88610000D02*
X116982000Y-88610000D01*
X115840000Y-88650000D02*
X116994000Y-88650000D01*
X115840000Y-88690000D02*
X117005000Y-88690000D01*
X115840000Y-88730000D02*
X117016000Y-88730000D01*
X115840000Y-88770000D02*
X117025000Y-88770000D01*
X115840000Y-88810000D02*
X117034000Y-88810000D01*
X115840000Y-88850000D02*
X117042000Y-88850000D01*
X115840000Y-88890000D02*
X117050000Y-88890000D01*
X115840000Y-88930000D02*
X117056000Y-88930000D01*
X115840000Y-88970000D02*
X117062000Y-88970000D01*
X115840000Y-89010000D02*
X117067000Y-89010000D01*
X115840000Y-89050000D02*
X117071000Y-89050000D01*
X115840000Y-89090000D02*
X117074000Y-89090000D01*
X115840000Y-89130000D02*
X117077000Y-89130000D01*
X115840000Y-89170000D02*
X117079000Y-89170000D01*
X115840000Y-89210000D02*
X117080000Y-89210000D01*
X115840000Y-89250000D02*
X117080000Y-89250000D01*
X117120000Y-89250000D02*
G75*
G02*
X112880000Y-89250000I-2120000J0D01*
G01*
X112880000Y-89250000D02*
G75*
G02*
X117120000Y-89250000I2120000J0D01*
G01*
X107760000Y-99320000D02*
X107760000Y-105860000D01*
X107760000Y-105860000D02*
X110500000Y-105860000D01*
X109130000Y-98770000D02*
X109130000Y-99320000D01*
X109130000Y-106410000D02*
X109130000Y-105860000D01*
X110500000Y-99320000D02*
X107760000Y-99320000D01*
X110500000Y-105860000D02*
X110500000Y-99320000D01*
X144160000Y-89250000D02*
X142920000Y-89250000D01*
X144160000Y-89290000D02*
X142920000Y-89290000D01*
X144160000Y-89330000D02*
X142921000Y-89330000D01*
X144160000Y-89370000D02*
X142923000Y-89370000D01*
X144160000Y-89410000D02*
X142926000Y-89410000D01*
X144160000Y-89450000D02*
X142929000Y-89450000D01*
X144160000Y-89490000D02*
X142933000Y-89490000D01*
X144160000Y-89530000D02*
X142938000Y-89530000D01*
X144160000Y-89570000D02*
X142944000Y-89570000D01*
X144160000Y-89610000D02*
X142950000Y-89610000D01*
X144160000Y-89650000D02*
X142958000Y-89650000D01*
X144160000Y-89690000D02*
X142966000Y-89690000D01*
X144160000Y-89730000D02*
X142975000Y-89730000D01*
X144160000Y-89770000D02*
X142984000Y-89770000D01*
X144160000Y-89810000D02*
X142995000Y-89810000D01*
X144160000Y-89850000D02*
X143006000Y-89850000D01*
X144160000Y-89890000D02*
X143018000Y-89890000D01*
X144160000Y-89930000D02*
X143032000Y-89930000D01*
X144160000Y-89971000D02*
X143046000Y-89971000D01*
X144160000Y-90011000D02*
X143060000Y-90011000D01*
X144160000Y-90051000D02*
X143076000Y-90051000D01*
X144160000Y-90091000D02*
X143093000Y-90091000D01*
X144160000Y-90131000D02*
X143111000Y-90131000D01*
X144160000Y-90171000D02*
X143130000Y-90171000D01*
X144160000Y-90211000D02*
X143149000Y-90211000D01*
X144160000Y-90251000D02*
X143170000Y-90251000D01*
X144160000Y-90291000D02*
X143192000Y-90291000D01*
X144160000Y-90331000D02*
X143215000Y-90331000D01*
X144160000Y-90371000D02*
X143240000Y-90371000D01*
X144160000Y-90411000D02*
X143265000Y-90411000D01*
X144160000Y-90451000D02*
X143292000Y-90451000D01*
X144160000Y-90491000D02*
X143320000Y-90491000D01*
X144160000Y-90531000D02*
X143350000Y-90531000D01*
X144160000Y-90571000D02*
X143381000Y-90571000D01*
X144160000Y-90611000D02*
X143413000Y-90611000D01*
X144160000Y-90651000D02*
X143448000Y-90651000D01*
X144160000Y-90691000D02*
X143484000Y-90691000D01*
X144160000Y-90731000D02*
X143522000Y-90731000D01*
X144160000Y-90771000D02*
X143562000Y-90771000D01*
X144160000Y-90811000D02*
X143604000Y-90811000D01*
X145370000Y-91331000D02*
X144630000Y-91331000D01*
X145537000Y-91291000D02*
X144463000Y-91291000D01*
X145664000Y-91251000D02*
X144336000Y-91251000D01*
X145768000Y-91211000D02*
X144232000Y-91211000D01*
X145859000Y-91171000D02*
X144141000Y-91171000D01*
X145940000Y-91131000D02*
X144060000Y-91131000D01*
X146013000Y-91091000D02*
X143987000Y-91091000D01*
X146080000Y-91051000D02*
X143920000Y-91051000D01*
X146142000Y-91011000D02*
X143858000Y-91011000D01*
X146195000Y-86980199D02*
X146195000Y-87380199D01*
X146200000Y-90971000D02*
X143800000Y-90971000D01*
X146254000Y-90931000D02*
X143746000Y-90931000D01*
X146304000Y-90891000D02*
X143696000Y-90891000D01*
X146351000Y-90851000D02*
X143649000Y-90851000D01*
X146395000Y-87180199D02*
X145995000Y-87180199D01*
X146396000Y-90811000D02*
X145840000Y-90811000D01*
X146438000Y-90771000D02*
X145840000Y-90771000D01*
X146478000Y-90731000D02*
X145840000Y-90731000D01*
X146516000Y-90691000D02*
X145840000Y-90691000D01*
X146552000Y-90651000D02*
X145840000Y-90651000D01*
X146587000Y-90611000D02*
X145840000Y-90611000D01*
X146619000Y-90571000D02*
X145840000Y-90571000D01*
X146650000Y-90531000D02*
X145840000Y-90531000D01*
X146680000Y-90491000D02*
X145840000Y-90491000D01*
X146708000Y-90451000D02*
X145840000Y-90451000D01*
X146735000Y-90411000D02*
X145840000Y-90411000D01*
X146760000Y-90371000D02*
X145840000Y-90371000D01*
X146785000Y-90331000D02*
X145840000Y-90331000D01*
X146808000Y-90291000D02*
X145840000Y-90291000D01*
X146830000Y-90251000D02*
X145840000Y-90251000D01*
X146851000Y-90211000D02*
X145840000Y-90211000D01*
X146870000Y-90171000D02*
X145840000Y-90171000D01*
X146889000Y-90131000D02*
X145840000Y-90131000D01*
X146907000Y-90091000D02*
X145840000Y-90091000D01*
X146924000Y-90051000D02*
X145840000Y-90051000D01*
X146940000Y-90011000D02*
X145840000Y-90011000D01*
X146954000Y-89971000D02*
X145840000Y-89971000D01*
X146968000Y-89930000D02*
X145840000Y-89930000D01*
X146982000Y-89890000D02*
X145840000Y-89890000D01*
X146994000Y-89850000D02*
X145840000Y-89850000D01*
X147005000Y-89810000D02*
X145840000Y-89810000D01*
X147016000Y-89770000D02*
X145840000Y-89770000D01*
X147025000Y-89730000D02*
X145840000Y-89730000D01*
X147034000Y-89690000D02*
X145840000Y-89690000D01*
X147042000Y-89650000D02*
X145840000Y-89650000D01*
X147050000Y-89610000D02*
X145840000Y-89610000D01*
X147056000Y-89570000D02*
X145840000Y-89570000D01*
X147062000Y-89530000D02*
X145840000Y-89530000D01*
X147067000Y-89490000D02*
X145840000Y-89490000D01*
X147071000Y-89450000D02*
X145840000Y-89450000D01*
X147074000Y-89410000D02*
X145840000Y-89410000D01*
X147077000Y-89370000D02*
X145840000Y-89370000D01*
X147079000Y-89330000D02*
X145840000Y-89330000D01*
X147080000Y-89250000D02*
X145840000Y-89250000D01*
X147080000Y-89290000D02*
X145840000Y-89290000D01*
X147120000Y-89250000D02*
G75*
G02*
X142880000Y-89250000I-2120000J0D01*
G01*
X142880000Y-89250000D02*
G75*
G02*
X147120000Y-89250000I2120000J0D01*
G01*
X126180000Y-117000000D02*
X126730000Y-117000000D01*
X126730000Y-115630000D02*
X126730000Y-118370000D01*
X126730000Y-118370000D02*
X133270000Y-118370000D01*
X133270000Y-115630000D02*
X126730000Y-115630000D01*
X133270000Y-118370000D02*
X133270000Y-115630000D01*
X133820000Y-117000000D02*
X133270000Y-117000000D01*
X132250000Y-137000000D02*
G75*
G02*
X127750000Y-137000000I-2250000J0D01*
G01*
X127750000Y-137000000D02*
G75*
G02*
X132250000Y-137000000I2250000J0D01*
G01*
X125940000Y-124358000D02*
X125940000Y-128642000D01*
X125940000Y-124358855D02*
G75*
G02*
X134590000Y-126499934I4060000J-2141145D01*
G01*
X134590000Y-126500066D02*
G75*
G02*
X125940000Y-128641145I-4590000J66D01*
G01*
X134000000Y-126500000D02*
G75*
G02*
X126000000Y-126500000I-4000000J0D01*
G01*
X126000000Y-126500000D02*
G75*
G02*
X134000000Y-126500000I4000000J0D01*
G01*
X109219022Y-117156495D02*
X113843500Y-121780973D01*
X109798850Y-115798850D02*
X110187758Y-116187758D01*
X111156495Y-115219022D02*
X109219022Y-117156495D01*
X113843500Y-121780973D02*
X115780973Y-119843500D01*
X115201145Y-121201145D02*
X114812237Y-120812237D01*
X115780973Y-119843500D02*
X111156495Y-115219022D01*
X155630000Y-101730000D02*
X155630000Y-108270000D01*
X155630000Y-108270000D02*
X158370000Y-108270000D01*
X157000000Y-101180000D02*
X157000000Y-101730000D01*
X157000000Y-108820000D02*
X157000000Y-108270000D01*
X158370000Y-101730000D02*
X155630000Y-101730000D01*
X158370000Y-108270000D02*
X158370000Y-101730000D01*
X147719027Y-122343500D02*
X149656500Y-124280973D01*
X148298855Y-123701145D02*
X148687763Y-123312237D01*
X149656500Y-124280973D02*
X154280978Y-119656495D01*
X152343505Y-117719022D02*
X147719027Y-122343500D01*
X153701150Y-118298850D02*
X153312242Y-118687758D01*
X154280978Y-119656495D02*
X152343505Y-117719022D01*
X155710000Y-88898000D02*
X155710000Y-93182000D01*
X155710000Y-88898855D02*
G75*
G02*
X164360000Y-91039934I4060000J-2141145D01*
G01*
X164360000Y-91040066D02*
G75*
G02*
X155710000Y-93181145I-4590000J66D01*
G01*
X163770000Y-91040000D02*
G75*
G02*
X155770000Y-91040000I-4000000J0D01*
G01*
X155770000Y-91040000D02*
G75*
G02*
X163770000Y-91040000I4000000J0D01*
G01*
D15*
X119450000Y-95000000D02*
X124000000Y-95000000D01*
X119450000Y-99530000D02*
X119450000Y-95000000D01*
X119450000Y-105570000D02*
X119450000Y-110500000D01*
X119450000Y-110500000D02*
X124500000Y-110500000D01*
X135500000Y-110500000D02*
X140550000Y-110500000D01*
X136000000Y-95000000D02*
X140550000Y-95000000D01*
X140550000Y-95000000D02*
X140550000Y-99530000D01*
X140550000Y-110500000D02*
X140550000Y-105570000D01*
D14*
X104290000Y-93102000D02*
X104290000Y-88818000D01*
X95640000Y-90959934D02*
G75*
G02*
X104290000Y-88818855I4590000J-66D01*
G01*
X104290000Y-93101145D02*
G75*
G02*
X95640000Y-90960066I-4060000J2141145D01*
G01*
X104230000Y-90960000D02*
G75*
G02*
X96230000Y-90960000I-4000000J0D01*
G01*
X96230000Y-90960000D02*
G75*
G02*
X104230000Y-90960000I4000000J0D01*
G01*
%LPC*%
D16*
X129975000Y-86485000D03*
X129975000Y-86985000D03*
X129975000Y-87485000D03*
X129975000Y-87985000D03*
X131975000Y-87985000D03*
X131975000Y-87485000D03*
X131975000Y-86985000D03*
X131975000Y-86485000D03*
D17*
X130975000Y-87235000D03*
D18*
X115000000Y-90000000D03*
D19*
X115000000Y-88500000D03*
D20*
X130000000Y-80020000D03*
D21*
X109130000Y-97510000D03*
D22*
X109130000Y-107670000D03*
D18*
X145000000Y-88500000D03*
D19*
X145000000Y-90000000D03*
D21*
X135080000Y-117000000D03*
D22*
X124920000Y-117000000D03*
D23*
X130000000Y-137000000D03*
D24*
X127910000Y-126500000D03*
D21*
X132230000Y-126460000D03*
X116092100Y-122092100D03*
D25*
X108907895Y-114907895D03*
D21*
X157000000Y-110080000D03*
D22*
X157000000Y-99920000D03*
D21*
X147407900Y-124592100D03*
D26*
X154592105Y-117407895D03*
D24*
X157680000Y-91040000D03*
D21*
X162000000Y-91000000D03*
D27*
X130000000Y-102500000D03*
D28*
X119600000Y-101000000D03*
X119600000Y-104100000D03*
X140400000Y-104100000D03*
X140400000Y-101000000D03*
D24*
X102320000Y-90960000D03*
D21*
X98000000Y-91000000D03*
%LPD*%
M02*
