G04 #@! TF.GenerationSoftware,KiCad,Pcbnew,9.0.0*
G04 #@! TF.CreationDate,2025-07-07T15:25:39-04:00*
G04 #@! TF.ProjectId,mothers_day_necklace,6d6f7468-6572-4735-9f64-61795f6e6563,A*
G04 #@! TF.SameCoordinates,Original*
G04 #@! TF.FileFunction,Copper,L1,Top*
G04 #@! TF.FilePolarity,Positive*
%FSLAX46Y46*%
G04 Gerber Fmt 4.6, Leading zero omitted, Abs format (unit mm)*
G04 Created by KiCad (PCBNEW 9.0.0) date 2025-07-07 15:25:39*
%MOMM*%
%LPD*%
G01*
G04 APERTURE LIST*
G04 Aperture macros list*
%AMRoundRect*
0 Rectangle with rounded corners*
0 $1 Rounding radius*
0 $2 $3 $4 $5 $6 $7 $8 $9 X,Y pos of 4 corners*
0 Add a 4 corners polygon primitive as box body*
4,1,4,$2,$3,$4,$5,$6,$7,$8,$9,$2,$3,0*
0 Add four circle primitives for the rounded corners*
1,1,$1+$1,$2,$3*
1,1,$1+$1,$4,$5*
1,1,$1+$1,$6,$7*
1,1,$1+$1,$8,$9*
0 Add four rect primitives between the rounded corners*
20,1,$1+$1,$2,$3,$4,$5,0*
20,1,$1+$1,$4,$5,$6,$7,0*
20,1,$1+$1,$6,$7,$8,$9,0*
20,1,$1+$1,$8,$9,$2,$3,0*%
%AMHorizOval*
0 Thick line with rounded ends*
0 $1 width*
0 $2 $3 position (X,Y) of the first rounded end (center of the circle)*
0 $4 $5 position (X,Y) of the second rounded end (center of the circle)*
0 Add line between two ends*
20,1,$1,$2,$3,$4,$5,0*
0 Add two circle primitives to create the rounded ends*
1,1,$1,$2,$3*
1,1,$1,$4,$5*%
G04 Aperture macros list end*
G04 #@! TA.AperFunction,SMDPad,CuDef*
%ADD10RoundRect,0.062500X-0.287500X-0.062500X0.287500X-0.062500X0.287500X0.062500X-0.287500X0.062500X0*%
G04 #@! TD*
G04 #@! TA.AperFunction,HeatsinkPad*
%ADD11R,0.900000X1.500000*%
G04 #@! TD*
G04 #@! TA.AperFunction,ComponentPad*
%ADD12R,1.200000X1.200000*%
G04 #@! TD*
G04 #@! TA.AperFunction,ComponentPad*
%ADD13C,1.200000*%
G04 #@! TD*
G04 #@! TA.AperFunction,ComponentPad*
%ADD14C,2.400000*%
G04 #@! TD*
G04 #@! TA.AperFunction,ComponentPad*
%ADD15O,2.400000X2.400000*%
G04 #@! TD*
G04 #@! TA.AperFunction,SMDPad,CuDef*
%ADD16C,4.000000*%
G04 #@! TD*
G04 #@! TA.AperFunction,ComponentPad*
%ADD17R,2.400000X2.400000*%
G04 #@! TD*
G04 #@! TA.AperFunction,ComponentPad*
%ADD18HorizOval,2.400000X0.000000X0.000000X0.000000X0.000000X0*%
G04 #@! TD*
G04 #@! TA.AperFunction,ComponentPad*
%ADD19HorizOval,2.400000X0.000000X0.000000X0.000000X0.000000X0*%
G04 #@! TD*
G04 #@! TA.AperFunction,SMDPad,CuDef*
%ADD20C,17.800000*%
G04 #@! TD*
G04 #@! TA.AperFunction,ComponentPad*
%ADD21C,2.300000*%
G04 #@! TD*
G04 #@! TA.AperFunction,ViaPad*
%ADD22C,0.600000*%
G04 #@! TD*
G04 #@! TA.AperFunction,Conductor*
%ADD23C,0.200000*%
G04 #@! TD*
G04 APERTURE END LIST*
D10*
X129975000Y-86485000D03*
X129975000Y-86985000D03*
X129975000Y-87485000D03*
X129975000Y-87985000D03*
X131975000Y-87985000D03*
X131975000Y-87485000D03*
X131975000Y-86985000D03*
X131975000Y-86485000D03*
D11*
X130975000Y-87235000D03*
D12*
X115000000Y-90000000D03*
D13*
X115000000Y-88500000D03*
D14*
X109130000Y-97510000D03*
D15*
X109130000Y-107670000D03*
D12*
X145000000Y-88500000D03*
D13*
X145000000Y-90000000D03*
D14*
X135080000Y-117000000D03*
D15*
X124920000Y-117000000D03*
D16*
X130000000Y-137000000D03*
D17*
X127910000Y-126500000D03*
D14*
X132230000Y-126460000D03*
X116092100Y-122092100D03*
D18*
X108907895Y-114907895D03*
D14*
X157000000Y-110080000D03*
D15*
X157000000Y-99920000D03*
D14*
X147407900Y-124592100D03*
D19*
X154592105Y-117407895D03*
D17*
X157680000Y-91040000D03*
D14*
X162000000Y-91000000D03*
D20*
X130000000Y-102500000D03*
D21*
X119600000Y-101000000D03*
X119600000Y-104100000D03*
X140400000Y-104100000D03*
X140400000Y-101000000D03*
D17*
X102320000Y-90960000D03*
D14*
X98000000Y-91000000D03*
D22*
X130710200Y-88902400D03*
X140363400Y-91166400D03*
D23*
X129268300Y-86314100D02*
X129268300Y-87544900D01*
X131057600Y-88902400D02*
X131975000Y-87985000D01*
X101455100Y-87544900D02*
X129268300Y-87544900D01*
X129268300Y-88181500D02*
X129989200Y-88902400D01*
X162000000Y-91000000D02*
X156635300Y-85635300D01*
X129989200Y-88902400D02*
X130710200Y-88902400D01*
X129268300Y-87544900D02*
X129268300Y-88181500D01*
X98000000Y-91000000D02*
X101455100Y-87544900D01*
X130710200Y-88902400D02*
X131057600Y-88902400D01*
X156635300Y-85635300D02*
X129947100Y-85635300D01*
X129947100Y-85635300D02*
X129268300Y-86314100D01*
X153233900Y-113846100D02*
X109969800Y-113846100D01*
X109969800Y-113846100D02*
X109969800Y-113846000D01*
X157000000Y-110080000D02*
X153233900Y-113846100D01*
X108907900Y-114907900D02*
X109969800Y-113846000D01*
X115000000Y-90000000D02*
X130844900Y-90000000D01*
X132340900Y-86985000D02*
X131975000Y-86985000D01*
X132637600Y-90000000D02*
X132637600Y-87281700D01*
X130886200Y-90000000D02*
X132637600Y-90000000D01*
X130844900Y-90000000D02*
X130886200Y-90000000D01*
X132637600Y-90000000D02*
X139197000Y-90000000D01*
X139197000Y-90000000D02*
X140363400Y-91166400D01*
X132637600Y-87281700D02*
X132340900Y-86985000D01*
X131975000Y-86485000D02*
X142083300Y-86485000D01*
X142083300Y-86485000D02*
X144098300Y-88500000D01*
X145000000Y-88500000D02*
X144098300Y-88500000D01*
X145926800Y-89274200D02*
X145201000Y-90000000D01*
X143231900Y-91768100D02*
X145000000Y-90000000D01*
X130407000Y-86053000D02*
X144241600Y-86053000D01*
X129975000Y-86485000D02*
X130407000Y-86053000D01*
X109130000Y-97510000D02*
X114871900Y-91768100D01*
X144241600Y-86053000D02*
X145926800Y-87738200D01*
X114871900Y-91768100D02*
X143231900Y-91768100D01*
X145201000Y-90000000D02*
X145000000Y-90000000D01*
X145926800Y-87738200D02*
X145926800Y-89274200D01*
X153530200Y-118469700D02*
X153530300Y-118469700D01*
X137442000Y-118469700D02*
X153530200Y-118469700D01*
X154592100Y-117407900D02*
X153530300Y-118469700D01*
X127910000Y-126500000D02*
X129411700Y-126500000D01*
X129411700Y-126500000D02*
X137442000Y-118469700D01*
G04 #@! TA.AperFunction,Conductor*
G36*
X152052274Y-76358890D02*
G01*
X152057741Y-76359044D01*
X152920550Y-76402544D01*
X152925983Y-76402939D01*
X153786013Y-76484561D01*
X153791407Y-76485193D01*
X154631132Y-76602561D01*
X154646975Y-76604776D01*
X154652390Y-76605655D01*
X155501817Y-76762962D01*
X155507188Y-76764080D01*
X156348831Y-76958807D01*
X156354147Y-76960162D01*
X156493364Y-76998933D01*
X157186347Y-77191925D01*
X157191538Y-77193495D01*
X158012749Y-77461868D01*
X158017878Y-77463671D01*
X158826357Y-77768086D01*
X158831403Y-77770114D01*
X159625639Y-78109997D01*
X159630590Y-78112246D01*
X160409038Y-78486940D01*
X160413907Y-78489419D01*
X161174946Y-78898140D01*
X161179714Y-78900838D01*
X161229187Y-78930299D01*
X161921938Y-79342828D01*
X161926589Y-79345738D01*
X162648565Y-79820146D01*
X162653082Y-79823260D01*
X163156110Y-80186642D01*
X163353330Y-80329111D01*
X163357699Y-80332416D01*
X164034922Y-80868776D01*
X164039115Y-80872249D01*
X164691946Y-81438038D01*
X164695989Y-81441701D01*
X165168442Y-81889252D01*
X165323170Y-82035825D01*
X165327063Y-82039681D01*
X165825351Y-82555400D01*
X165927309Y-82660924D01*
X165931026Y-82664945D01*
X166407812Y-83204233D01*
X166503214Y-83312141D01*
X166506756Y-83316330D01*
X167049751Y-83988196D01*
X167053105Y-83992538D01*
X167565879Y-84687805D01*
X167569036Y-84692292D01*
X168050505Y-85409487D01*
X168053462Y-85414108D01*
X168502770Y-86151956D01*
X168505519Y-86156704D01*
X168921743Y-86913690D01*
X168924279Y-86918555D01*
X169306602Y-87693189D01*
X169308919Y-87698158D01*
X169538551Y-88220444D01*
X169656619Y-88488983D01*
X169658715Y-88494053D01*
X169971076Y-89299438D01*
X169972947Y-89304596D01*
X170249390Y-90123050D01*
X170251030Y-90128285D01*
X170490996Y-90958150D01*
X170492403Y-90963453D01*
X170695426Y-91803121D01*
X170696597Y-91808481D01*
X170862278Y-92656300D01*
X170863211Y-92661706D01*
X170991230Y-93516031D01*
X170991923Y-93521473D01*
X171082028Y-94380638D01*
X171082479Y-94386106D01*
X171134491Y-95248395D01*
X171134700Y-95253877D01*
X171148519Y-96117614D01*
X171148486Y-96123100D01*
X171124085Y-96986649D01*
X171123808Y-96992129D01*
X171061236Y-97853697D01*
X171060718Y-97859159D01*
X170960092Y-98717165D01*
X170959333Y-98722595D01*
X170820854Y-99575306D01*
X170819860Y-99580669D01*
X170643805Y-100426389D01*
X170642569Y-100431734D01*
X170429268Y-101268868D01*
X170427796Y-101274153D01*
X170177684Y-102101007D01*
X170175980Y-102106222D01*
X169889526Y-102921236D01*
X169887592Y-102926370D01*
X169565389Y-103727864D01*
X169563231Y-103732908D01*
X169205875Y-104519398D01*
X169203496Y-104524341D01*
X168811703Y-105294251D01*
X168809107Y-105299085D01*
X168383642Y-106050909D01*
X168380835Y-106055622D01*
X167922521Y-106787907D01*
X167919508Y-106792492D01*
X167429274Y-107503755D01*
X167426061Y-107508203D01*
X166904835Y-108197099D01*
X166901429Y-108201400D01*
X166349698Y-108867219D01*
X166347398Y-108869915D01*
X130356667Y-149859358D01*
X130350849Y-149865544D01*
X130327192Y-149889029D01*
X130315377Y-149899358D01*
X130231001Y-149964183D01*
X130211951Y-149976235D01*
X130131294Y-150017517D01*
X130106021Y-150027140D01*
X130041232Y-150043997D01*
X130010418Y-150047991D01*
X129958312Y-150048163D01*
X129925451Y-150043842D01*
X129862027Y-150026644D01*
X129839417Y-150018070D01*
X129817312Y-150007115D01*
X129804070Y-149999503D01*
X129766866Y-149974947D01*
X129755472Y-149966451D01*
X129712450Y-149930352D01*
X129702985Y-149921528D01*
X129649575Y-149866256D01*
X129645567Y-149861906D01*
X120547131Y-139499999D01*
X120051736Y-138935810D01*
X128417741Y-138935810D01*
X128417741Y-138935811D01*
X128551043Y-139042115D01*
X128788799Y-139191507D01*
X129041782Y-139313337D01*
X129306819Y-139406077D01*
X129306821Y-139406078D01*
X129580575Y-139468560D01*
X129580587Y-139468562D01*
X129859598Y-139499999D01*
X129859600Y-139500000D01*
X130140400Y-139500000D01*
X130140401Y-139499999D01*
X130419412Y-139468562D01*
X130419424Y-139468560D01*
X130693178Y-139406078D01*
X130693180Y-139406077D01*
X130958217Y-139313337D01*
X131211200Y-139191507D01*
X131448956Y-139042116D01*
X131582257Y-138935810D01*
X130000000Y-137353554D01*
X128417741Y-138935810D01*
X120051736Y-138935810D01*
X118228685Y-136859598D01*
X127500000Y-136859598D01*
X127500000Y-137140401D01*
X127531437Y-137419412D01*
X127531439Y-137419424D01*
X127593921Y-137693178D01*
X127593922Y-137693180D01*
X127686662Y-137958217D01*
X127808492Y-138211200D01*
X127957884Y-138448956D01*
X128064187Y-138582257D01*
X129646446Y-137000000D01*
X129646446Y-136999999D01*
X130353554Y-136999999D01*
X130353554Y-137000001D01*
X131935810Y-138582257D01*
X132042116Y-138448956D01*
X132191507Y-138211200D01*
X132313337Y-137958217D01*
X132406077Y-137693180D01*
X132406078Y-137693178D01*
X132468560Y-137419424D01*
X132468562Y-137419412D01*
X132499999Y-137140401D01*
X132500000Y-137140399D01*
X132500000Y-136859600D01*
X132499999Y-136859598D01*
X132468562Y-136580587D01*
X132468560Y-136580575D01*
X132406078Y-136306821D01*
X132406077Y-136306819D01*
X132313337Y-136041782D01*
X132191507Y-135788799D01*
X132042115Y-135551043D01*
X131935810Y-135417741D01*
X130353554Y-136999999D01*
X129646446Y-136999999D01*
X128064187Y-135417741D01*
X127957884Y-135551043D01*
X127808492Y-135788799D01*
X127686662Y-136041782D01*
X127593922Y-136306819D01*
X127593921Y-136306821D01*
X127531439Y-136580575D01*
X127531437Y-136580587D01*
X127500000Y-136859598D01*
X118228685Y-136859598D01*
X116652196Y-135064187D01*
X128417741Y-135064187D01*
X130000000Y-136646446D01*
X130000001Y-136646446D01*
X131582257Y-135064187D01*
X131448956Y-134957884D01*
X131211200Y-134808492D01*
X130958217Y-134686662D01*
X130693180Y-134593922D01*
X130693178Y-134593921D01*
X130419424Y-134531439D01*
X130419412Y-134531437D01*
X130140401Y-134500000D01*
X129859598Y-134500000D01*
X129580587Y-134531437D01*
X129580575Y-134531439D01*
X129306821Y-134593921D01*
X129306819Y-134593922D01*
X129041782Y-134686662D01*
X128788799Y-134808492D01*
X128551043Y-134957884D01*
X128417741Y-135064187D01*
X116652196Y-135064187D01*
X108036570Y-125252135D01*
X126209500Y-125252135D01*
X126209500Y-127747870D01*
X126209501Y-127747876D01*
X126215908Y-127807483D01*
X126266202Y-127942328D01*
X126266206Y-127942335D01*
X126352452Y-128057544D01*
X126352455Y-128057547D01*
X126467664Y-128143793D01*
X126467671Y-128143797D01*
X126602517Y-128194091D01*
X126602516Y-128194091D01*
X126609444Y-128194835D01*
X126662127Y-128200500D01*
X129157872Y-128200499D01*
X129217483Y-128194091D01*
X129352331Y-128143796D01*
X129467546Y-128057546D01*
X129553796Y-127942331D01*
X129604091Y-127807483D01*
X129610500Y-127747873D01*
X129610499Y-127150210D01*
X129613880Y-127138692D01*
X129612740Y-127126745D01*
X129623540Y-127105793D01*
X129630183Y-127083172D01*
X129640055Y-127073758D01*
X129644755Y-127064642D01*
X129672491Y-127042828D01*
X129693604Y-127030639D01*
X129780416Y-126980520D01*
X129892220Y-126868716D01*
X129892220Y-126868714D01*
X129902428Y-126858507D01*
X129902430Y-126858504D01*
X130317819Y-126443115D01*
X130379142Y-126409630D01*
X130448834Y-126414614D01*
X130504767Y-126456486D01*
X130529184Y-126521950D01*
X130529500Y-126530796D01*
X130529500Y-126571450D01*
X130529501Y-126571466D01*
X130558594Y-126792452D01*
X130558595Y-126792457D01*
X130558596Y-126792463D01*
X130616290Y-127007780D01*
X130616293Y-127007790D01*
X130675286Y-127150211D01*
X130701595Y-127213726D01*
X130813052Y-127406774D01*
X130813057Y-127406780D01*
X130813058Y-127406782D01*
X130948751Y-127583622D01*
X130948757Y-127583629D01*
X131106370Y-127741242D01*
X131106376Y-127741247D01*
X131283226Y-127876948D01*
X131476274Y-127988405D01*
X131606140Y-128042197D01*
X131643195Y-128057546D01*
X131682219Y-128073710D01*
X131897537Y-128131404D01*
X132118543Y-128160500D01*
X132118550Y-128160500D01*
X132341450Y-128160500D01*
X132341457Y-128160500D01*
X132562463Y-128131404D01*
X132777781Y-128073710D01*
X132983726Y-127988405D01*
X133176774Y-127876948D01*
X133353624Y-127741247D01*
X133511247Y-127583624D01*
X133646948Y-127406774D01*
X133758405Y-127213726D01*
X133843710Y-127007781D01*
X133901404Y-126792463D01*
X133930500Y-126571457D01*
X133930500Y-126348543D01*
X133901404Y-126127537D01*
X133843710Y-125912219D01*
X133758405Y-125706274D01*
X133646948Y-125513226D01*
X133511247Y-125336376D01*
X133511242Y-125336370D01*
X133353629Y-125178757D01*
X133353622Y-125178751D01*
X133176782Y-125043058D01*
X133176780Y-125043057D01*
X133176774Y-125043052D01*
X132983726Y-124931595D01*
X132983722Y-124931593D01*
X132777790Y-124846293D01*
X132777783Y-124846291D01*
X132777781Y-124846290D01*
X132562463Y-124788596D01*
X132562457Y-124788595D01*
X132562452Y-124788594D01*
X132341466Y-124759501D01*
X132341463Y-124759500D01*
X132341457Y-124759500D01*
X132300796Y-124759500D01*
X132279550Y-124753261D01*
X132257462Y-124751682D01*
X132246678Y-124743609D01*
X132233757Y-124739815D01*
X132219257Y-124723081D01*
X132201529Y-124709810D01*
X132196821Y-124697189D01*
X132188002Y-124687011D01*
X132184850Y-124665093D01*
X132177112Y-124644346D01*
X132179974Y-124631185D01*
X132178058Y-124617853D01*
X132187257Y-124597709D01*
X132191964Y-124576073D01*
X132205232Y-124558347D01*
X132207083Y-124554297D01*
X132213115Y-124547819D01*
X132280285Y-124480649D01*
X145707400Y-124480649D01*
X145707400Y-124703550D01*
X145707401Y-124703566D01*
X145736494Y-124924552D01*
X145736495Y-124924557D01*
X145736496Y-124924563D01*
X145772162Y-125057671D01*
X145794190Y-125139880D01*
X145794193Y-125139890D01*
X145875581Y-125336377D01*
X145879495Y-125345826D01*
X145990952Y-125538874D01*
X145990957Y-125538880D01*
X145990958Y-125538882D01*
X146126651Y-125715722D01*
X146126657Y-125715729D01*
X146284270Y-125873342D01*
X146284276Y-125873347D01*
X146461126Y-126009048D01*
X146654174Y-126120505D01*
X146860119Y-126205810D01*
X147075437Y-126263504D01*
X147296443Y-126292600D01*
X147296450Y-126292600D01*
X147519350Y-126292600D01*
X147519357Y-126292600D01*
X147740363Y-126263504D01*
X147955681Y-126205810D01*
X148161626Y-126120505D01*
X148354674Y-126009048D01*
X148531524Y-125873347D01*
X148689147Y-125715724D01*
X148824848Y-125538874D01*
X148936305Y-125345826D01*
X149021610Y-125139881D01*
X149079304Y-124924563D01*
X149108400Y-124703557D01*
X149108400Y-124480643D01*
X149079304Y-124259637D01*
X149021610Y-124044319D01*
X148936305Y-123838374D01*
X148824848Y-123645326D01*
X148719962Y-123508635D01*
X148689148Y-123468477D01*
X148689142Y-123468470D01*
X148531529Y-123310857D01*
X148531522Y-123310851D01*
X148354682Y-123175158D01*
X148354680Y-123175157D01*
X148354674Y-123175152D01*
X148161626Y-123063695D01*
X148161622Y-123063693D01*
X147955690Y-122978393D01*
X147955683Y-122978391D01*
X147955681Y-122978390D01*
X147740363Y-122920696D01*
X147740357Y-122920695D01*
X147740352Y-122920694D01*
X147519366Y-122891601D01*
X147519363Y-122891600D01*
X147519357Y-122891600D01*
X147296443Y-122891600D01*
X147296437Y-122891600D01*
X147296433Y-122891601D01*
X147075447Y-122920694D01*
X147075440Y-122920695D01*
X147075437Y-122920696D01*
X146860119Y-122978390D01*
X146860109Y-122978393D01*
X146654177Y-123063693D01*
X146654173Y-123063695D01*
X146461126Y-123175152D01*
X146461117Y-123175158D01*
X146284277Y-123310851D01*
X146284270Y-123310857D01*
X146126657Y-123468470D01*
X146126651Y-123468477D01*
X145990958Y-123645317D01*
X145990952Y-123645326D01*
X145879495Y-123838373D01*
X145879493Y-123838377D01*
X145794193Y-124044309D01*
X145794190Y-124044319D01*
X145736497Y-124259634D01*
X145736494Y-124259647D01*
X145707401Y-124480633D01*
X145707400Y-124480649D01*
X132280285Y-124480649D01*
X132372031Y-124388903D01*
X134900426Y-121860509D01*
X137654416Y-119106519D01*
X137715739Y-119073034D01*
X137742097Y-119070200D01*
X153443631Y-119070200D01*
X153443647Y-119070201D01*
X153451243Y-119070201D01*
X153609354Y-119070201D01*
X153609357Y-119070201D01*
X153762085Y-119029277D01*
X153812204Y-119000339D01*
X153834768Y-118987311D01*
X153902664Y-118970840D01*
X153944214Y-118980138D01*
X154044324Y-119021605D01*
X154259642Y-119079299D01*
X154480648Y-119108395D01*
X154480655Y-119108395D01*
X154703555Y-119108395D01*
X154703562Y-119108395D01*
X154924568Y-119079299D01*
X155139886Y-119021605D01*
X155345831Y-118936300D01*
X155538879Y-118824843D01*
X155715729Y-118689142D01*
X155873352Y-118531519D01*
X156009053Y-118354669D01*
X156120510Y-118161621D01*
X156205815Y-117955676D01*
X156263509Y-117740358D01*
X156292605Y-117519352D01*
X156292605Y-117296438D01*
X156263509Y-117075432D01*
X156205815Y-116860114D01*
X156120510Y-116654169D01*
X156009053Y-116461121D01*
X155904483Y-116324842D01*
X155873353Y-116284272D01*
X155873347Y-116284265D01*
X155715734Y-116126652D01*
X155715727Y-116126646D01*
X155538887Y-115990953D01*
X155538885Y-115990952D01*
X155538879Y-115990947D01*
X155345831Y-115879490D01*
X155345827Y-115879488D01*
X155139895Y-115794188D01*
X155139888Y-115794186D01*
X155139886Y-115794185D01*
X154924568Y-115736491D01*
X154924562Y-115736490D01*
X154924557Y-115736489D01*
X154703571Y-115707396D01*
X154703568Y-115707395D01*
X154703562Y-115707395D01*
X154480648Y-115707395D01*
X154480642Y-115707395D01*
X154480638Y-115707396D01*
X154259652Y-115736489D01*
X154259645Y-115736490D01*
X154259642Y-115736491D01*
X154044324Y-115794185D01*
X154044314Y-115794188D01*
X153838382Y-115879488D01*
X153838378Y-115879490D01*
X153645331Y-115990947D01*
X153645322Y-115990953D01*
X153468482Y-116126646D01*
X153468475Y-116126652D01*
X153310862Y-116284265D01*
X153310856Y-116284272D01*
X153175163Y-116461112D01*
X153175157Y-116461121D01*
X153063700Y-116654168D01*
X153063698Y-116654172D01*
X152978398Y-116860104D01*
X152978395Y-116860114D01*
X152920702Y-117075429D01*
X152920699Y-117075442D01*
X152891606Y-117296428D01*
X152891605Y-117296444D01*
X152891605Y-117519359D01*
X152919208Y-117729014D01*
X152908443Y-117798050D01*
X152862063Y-117850306D01*
X152796269Y-117869200D01*
X137521057Y-117869200D01*
X137362943Y-117869200D01*
X137210215Y-117910123D01*
X137210214Y-117910123D01*
X137210212Y-117910124D01*
X137210209Y-117910125D01*
X137160096Y-117939059D01*
X137160095Y-117939060D01*
X137116689Y-117964120D01*
X137073285Y-117989179D01*
X137073282Y-117989181D01*
X136961478Y-118100986D01*
X129812130Y-125250333D01*
X129750807Y-125283818D01*
X129681115Y-125278834D01*
X129625182Y-125236962D01*
X129607652Y-125199467D01*
X129606802Y-125199785D01*
X129553797Y-125057671D01*
X129553793Y-125057664D01*
X129467547Y-124942455D01*
X129467544Y-124942452D01*
X129352335Y-124856206D01*
X129352328Y-124856202D01*
X129217482Y-124805908D01*
X129217483Y-124805908D01*
X129157883Y-124799501D01*
X129157881Y-124799500D01*
X129157873Y-124799500D01*
X129157864Y-124799500D01*
X126662129Y-124799500D01*
X126662123Y-124799501D01*
X126602516Y-124805908D01*
X126467671Y-124856202D01*
X126467664Y-124856206D01*
X126352455Y-124942452D01*
X126352452Y-124942455D01*
X126266206Y-125057664D01*
X126266202Y-125057671D01*
X126215908Y-125192517D01*
X126209501Y-125252116D01*
X126209500Y-125252135D01*
X108036570Y-125252135D01*
X105042334Y-121842099D01*
X114410344Y-121842099D01*
X114410345Y-121842100D01*
X115543618Y-121842100D01*
X115532989Y-121860509D01*
X115492100Y-122013109D01*
X115492100Y-122171091D01*
X115532989Y-122323691D01*
X115543618Y-122342100D01*
X114410344Y-122342100D01*
X114421187Y-122424467D01*
X114478864Y-122639720D01*
X114564145Y-122845602D01*
X114564154Y-122845620D01*
X114675564Y-123038591D01*
X114675566Y-123038595D01*
X114811230Y-123215393D01*
X114811238Y-123215402D01*
X114968798Y-123372962D01*
X114968806Y-123372969D01*
X115145604Y-123508633D01*
X115145608Y-123508635D01*
X115338579Y-123620045D01*
X115338597Y-123620054D01*
X115544479Y-123705335D01*
X115759732Y-123763012D01*
X115842099Y-123773855D01*
X115842100Y-123773855D01*
X115842100Y-122640582D01*
X115860509Y-122651211D01*
X116013109Y-122692100D01*
X116171091Y-122692100D01*
X116323691Y-122651211D01*
X116342100Y-122640582D01*
X116342100Y-123773855D01*
X116424467Y-123763012D01*
X116639720Y-123705335D01*
X116845602Y-123620054D01*
X116845620Y-123620045D01*
X117038591Y-123508635D01*
X117038595Y-123508633D01*
X117215393Y-123372969D01*
X117215402Y-123372962D01*
X117372962Y-123215402D01*
X117372969Y-123215393D01*
X117508633Y-123038595D01*
X117508635Y-123038591D01*
X117620045Y-122845620D01*
X117620054Y-122845602D01*
X117705335Y-122639720D01*
X117763012Y-122424467D01*
X117773856Y-122342100D01*
X116640582Y-122342100D01*
X116651211Y-122323691D01*
X116692100Y-122171091D01*
X116692100Y-122013109D01*
X116651211Y-121860509D01*
X116640582Y-121842100D01*
X117773855Y-121842100D01*
X117773855Y-121842099D01*
X117763012Y-121759732D01*
X117705335Y-121544479D01*
X117620054Y-121338597D01*
X117620045Y-121338579D01*
X117508635Y-121145608D01*
X117508633Y-121145604D01*
X117372969Y-120968806D01*
X117372962Y-120968798D01*
X117215402Y-120811238D01*
X117215393Y-120811230D01*
X117038595Y-120675566D01*
X117038591Y-120675564D01*
X116845620Y-120564154D01*
X116845602Y-120564145D01*
X116639718Y-120478863D01*
X116424463Y-120421187D01*
X116342100Y-120410342D01*
X116342100Y-121543617D01*
X116323691Y-121532989D01*
X116171091Y-121492100D01*
X116013109Y-121492100D01*
X115860509Y-121532989D01*
X115842100Y-121543617D01*
X115842100Y-120410342D01*
X115842099Y-120410342D01*
X115759736Y-120421187D01*
X115544481Y-120478863D01*
X115338597Y-120564145D01*
X115338579Y-120564154D01*
X115145608Y-120675564D01*
X115145604Y-120675566D01*
X114968806Y-120811230D01*
X114811230Y-120968806D01*
X114675566Y-121145604D01*
X114675564Y-121145608D01*
X114564154Y-121338579D01*
X114564145Y-121338597D01*
X114478864Y-121544479D01*
X114421187Y-121759732D01*
X114410344Y-121842099D01*
X105042334Y-121842099D01*
X100692792Y-116888549D01*
X123219500Y-116888549D01*
X123219500Y-117111450D01*
X123219501Y-117111466D01*
X123248594Y-117332452D01*
X123248595Y-117332457D01*
X123248596Y-117332463D01*
X123306290Y-117547780D01*
X123306293Y-117547790D01*
X123391593Y-117753722D01*
X123391595Y-117753726D01*
X123503052Y-117946774D01*
X123503057Y-117946780D01*
X123503058Y-117946782D01*
X123638751Y-118123622D01*
X123638757Y-118123629D01*
X123796370Y-118281242D01*
X123796376Y-118281247D01*
X123973226Y-118416948D01*
X124166274Y-118528405D01*
X124296140Y-118582197D01*
X124371074Y-118613236D01*
X124372219Y-118613710D01*
X124587537Y-118671404D01*
X124808543Y-118700500D01*
X124808550Y-118700500D01*
X125031450Y-118700500D01*
X125031457Y-118700500D01*
X125252463Y-118671404D01*
X125467781Y-118613710D01*
X125673726Y-118528405D01*
X125866774Y-118416948D01*
X126043624Y-118281247D01*
X126043629Y-118281242D01*
X126094550Y-118230322D01*
X126201242Y-118123629D01*
X126201247Y-118123624D01*
X126336948Y-117946774D01*
X126448405Y-117753726D01*
X126533710Y-117547781D01*
X126591404Y-117332463D01*
X126620500Y-117111457D01*
X126620500Y-116888575D01*
X133380000Y-116888575D01*
X133380000Y-117111424D01*
X133409085Y-117332354D01*
X133409088Y-117332367D01*
X133466763Y-117547618D01*
X133552045Y-117753502D01*
X133552054Y-117753520D01*
X133663464Y-117946491D01*
X133663473Y-117946504D01*
X133714040Y-118012403D01*
X133714043Y-118012403D01*
X134515387Y-117211058D01*
X134520889Y-117231591D01*
X134599881Y-117368408D01*
X134711592Y-117480119D01*
X134848409Y-117559111D01*
X134868940Y-117564612D01*
X134067595Y-118365955D01*
X134067595Y-118365956D01*
X134133507Y-118416533D01*
X134326485Y-118527949D01*
X134326497Y-118527954D01*
X134532381Y-118613236D01*
X134747632Y-118670911D01*
X134747645Y-118670914D01*
X134968575Y-118700000D01*
X135191425Y-118700000D01*
X135412354Y-118670914D01*
X135412367Y-118670911D01*
X135627618Y-118613236D01*
X135833502Y-118527954D01*
X135833514Y-118527949D01*
X136026498Y-118416530D01*
X136092403Y-118365957D01*
X136092404Y-118365956D01*
X135291059Y-117564612D01*
X135311591Y-117559111D01*
X135448408Y-117480119D01*
X135560119Y-117368408D01*
X135639111Y-117231591D01*
X135644612Y-117211059D01*
X136445956Y-118012404D01*
X136445957Y-118012403D01*
X136496530Y-117946498D01*
X136607949Y-117753514D01*
X136607954Y-117753502D01*
X136693236Y-117547618D01*
X136750911Y-117332367D01*
X136750914Y-117332354D01*
X136780000Y-117111424D01*
X136780000Y-116888575D01*
X136750914Y-116667645D01*
X136750911Y-116667632D01*
X136693236Y-116452381D01*
X136607954Y-116246497D01*
X136607949Y-116246485D01*
X136496533Y-116053507D01*
X136445956Y-115987595D01*
X136445955Y-115987595D01*
X135644612Y-116788939D01*
X135639111Y-116768409D01*
X135560119Y-116631592D01*
X135448408Y-116519881D01*
X135311591Y-116440889D01*
X135291058Y-116435387D01*
X136092403Y-115634043D01*
X136092403Y-115634040D01*
X136026504Y-115583473D01*
X136026491Y-115583464D01*
X135833520Y-115472054D01*
X135833502Y-115472045D01*
X135627618Y-115386763D01*
X135412367Y-115329088D01*
X135412354Y-115329085D01*
X135191425Y-115300000D01*
X134968575Y-115300000D01*
X134747645Y-115329085D01*
X134747632Y-115329088D01*
X134532381Y-115386763D01*
X134326497Y-115472045D01*
X134326479Y-115472054D01*
X134133511Y-115583462D01*
X134067595Y-115634042D01*
X134868941Y-116435387D01*
X134848409Y-116440889D01*
X134711592Y-116519881D01*
X134599881Y-116631592D01*
X134520889Y-116768409D01*
X134515387Y-116788940D01*
X133714042Y-115987595D01*
X133663462Y-116053511D01*
X133552054Y-116246479D01*
X133552045Y-116246497D01*
X133466763Y-116452381D01*
X133409088Y-116667632D01*
X133409085Y-116667645D01*
X133380000Y-116888575D01*
X126620500Y-116888575D01*
X126620500Y-116888543D01*
X126591404Y-116667537D01*
X126533710Y-116452219D01*
X126448405Y-116246274D01*
X126336948Y-116053226D01*
X126286588Y-115987595D01*
X126201248Y-115876377D01*
X126201242Y-115876370D01*
X126043629Y-115718757D01*
X126043622Y-115718751D01*
X125866782Y-115583058D01*
X125866780Y-115583057D01*
X125866774Y-115583052D01*
X125673726Y-115471595D01*
X125673722Y-115471593D01*
X125467790Y-115386293D01*
X125467783Y-115386291D01*
X125467781Y-115386290D01*
X125252463Y-115328596D01*
X125252457Y-115328595D01*
X125252452Y-115328594D01*
X125031466Y-115299501D01*
X125031463Y-115299500D01*
X125031457Y-115299500D01*
X124808543Y-115299500D01*
X124808537Y-115299500D01*
X124808533Y-115299501D01*
X124587547Y-115328594D01*
X124587540Y-115328595D01*
X124587537Y-115328596D01*
X124372219Y-115386290D01*
X124372209Y-115386293D01*
X124166277Y-115471593D01*
X124166273Y-115471595D01*
X123973226Y-115583052D01*
X123973217Y-115583058D01*
X123796377Y-115718751D01*
X123796370Y-115718757D01*
X123638757Y-115876370D01*
X123638751Y-115876377D01*
X123503058Y-116053217D01*
X123503052Y-116053226D01*
X123391595Y-116246273D01*
X123391593Y-116246277D01*
X123306293Y-116452209D01*
X123306290Y-116452219D01*
X123258228Y-116631592D01*
X123248597Y-116667534D01*
X123248594Y-116667547D01*
X123219501Y-116888533D01*
X123219500Y-116888549D01*
X100692792Y-116888549D01*
X98855786Y-114796444D01*
X107207395Y-114796444D01*
X107207395Y-115019345D01*
X107207396Y-115019361D01*
X107236489Y-115240347D01*
X107236490Y-115240352D01*
X107236491Y-115240358D01*
X107275594Y-115386293D01*
X107294185Y-115455675D01*
X107294188Y-115455685D01*
X107379488Y-115661617D01*
X107379490Y-115661621D01*
X107490947Y-115854669D01*
X107490952Y-115854675D01*
X107490953Y-115854677D01*
X107626646Y-116031517D01*
X107626652Y-116031524D01*
X107784265Y-116189137D01*
X107784271Y-116189142D01*
X107961121Y-116324843D01*
X108154169Y-116436300D01*
X108360114Y-116521605D01*
X108575432Y-116579299D01*
X108796438Y-116608395D01*
X108796445Y-116608395D01*
X109019345Y-116608395D01*
X109019352Y-116608395D01*
X109240358Y-116579299D01*
X109455676Y-116521605D01*
X109661621Y-116436300D01*
X109854669Y-116324843D01*
X110031519Y-116189142D01*
X110189142Y-116031519D01*
X110324843Y-115854669D01*
X110436300Y-115661621D01*
X110521605Y-115455676D01*
X110579299Y-115240358D01*
X110608395Y-115019352D01*
X110608395Y-114796438D01*
X110580794Y-114586785D01*
X110591560Y-114517750D01*
X110637940Y-114465494D01*
X110703733Y-114446600D01*
X153147231Y-114446600D01*
X153147247Y-114446601D01*
X153154843Y-114446601D01*
X153312954Y-114446601D01*
X153312957Y-114446601D01*
X153465685Y-114405677D01*
X153544602Y-114360114D01*
X153602616Y-114326620D01*
X153714420Y-114214816D01*
X153714420Y-114214814D01*
X153724624Y-114204611D01*
X153724627Y-114204606D01*
X156240408Y-111688826D01*
X156301729Y-111655343D01*
X156371421Y-111660327D01*
X156375489Y-111661927D01*
X156452219Y-111693710D01*
X156667537Y-111751404D01*
X156888543Y-111780500D01*
X156888550Y-111780500D01*
X157111450Y-111780500D01*
X157111457Y-111780500D01*
X157332463Y-111751404D01*
X157547781Y-111693710D01*
X157753726Y-111608405D01*
X157946774Y-111496948D01*
X158123624Y-111361247D01*
X158281247Y-111203624D01*
X158416948Y-111026774D01*
X158528405Y-110833726D01*
X158613710Y-110627781D01*
X158671404Y-110412463D01*
X158700500Y-110191457D01*
X158700500Y-109968543D01*
X158671404Y-109747537D01*
X158613710Y-109532219D01*
X158528405Y-109326274D01*
X158416948Y-109133226D01*
X158281247Y-108956376D01*
X158281242Y-108956370D01*
X158123629Y-108798757D01*
X158123622Y-108798751D01*
X157946782Y-108663058D01*
X157946780Y-108663057D01*
X157946774Y-108663052D01*
X157753726Y-108551595D01*
X157753722Y-108551593D01*
X157547790Y-108466293D01*
X157547783Y-108466291D01*
X157547781Y-108466290D01*
X157332463Y-108408596D01*
X157332457Y-108408595D01*
X157332452Y-108408594D01*
X157111466Y-108379501D01*
X157111463Y-108379500D01*
X157111457Y-108379500D01*
X156888543Y-108379500D01*
X156888537Y-108379500D01*
X156888533Y-108379501D01*
X156667547Y-108408594D01*
X156667540Y-108408595D01*
X156667537Y-108408596D01*
X156611907Y-108423502D01*
X156452219Y-108466290D01*
X156452209Y-108466293D01*
X156246277Y-108551593D01*
X156246273Y-108551595D01*
X156053226Y-108663052D01*
X156053217Y-108663058D01*
X155876377Y-108798751D01*
X155876370Y-108798757D01*
X155718757Y-108956370D01*
X155718751Y-108956377D01*
X155583058Y-109133217D01*
X155583052Y-109133226D01*
X155471595Y-109326273D01*
X155471593Y-109326277D01*
X155386293Y-109532209D01*
X155386290Y-109532219D01*
X155328597Y-109747534D01*
X155328594Y-109747547D01*
X155299501Y-109968533D01*
X155299500Y-109968549D01*
X155299500Y-110191450D01*
X155299501Y-110191466D01*
X155328594Y-110412452D01*
X155328595Y-110412457D01*
X155328596Y-110412463D01*
X155348510Y-110486782D01*
X155386290Y-110627780D01*
X155386295Y-110627796D01*
X155418050Y-110704459D01*
X155425519Y-110773928D01*
X155394244Y-110836407D01*
X155391170Y-110839592D01*
X153021484Y-113209281D01*
X152960161Y-113242766D01*
X152933803Y-113245600D01*
X110057748Y-113245600D01*
X110056223Y-113245500D01*
X110048857Y-113245500D01*
X109890742Y-113245500D01*
X109890740Y-113245500D01*
X109849819Y-113256464D01*
X109849819Y-113256465D01*
X109812551Y-113266451D01*
X109738014Y-113286423D01*
X109738011Y-113286425D01*
X109665198Y-113328462D01*
X109597297Y-113344933D01*
X109555748Y-113335635D01*
X109455691Y-113294190D01*
X109455679Y-113294186D01*
X109455676Y-113294185D01*
X109240358Y-113236491D01*
X109240352Y-113236490D01*
X109240347Y-113236489D01*
X109019361Y-113207396D01*
X109019358Y-113207395D01*
X109019352Y-113207395D01*
X108796438Y-113207395D01*
X108796432Y-113207395D01*
X108796428Y-113207396D01*
X108575442Y-113236489D01*
X108575435Y-113236490D01*
X108575432Y-113236491D01*
X108500888Y-113256465D01*
X108360114Y-113294185D01*
X108360104Y-113294188D01*
X108154172Y-113379488D01*
X108154168Y-113379490D01*
X107961121Y-113490947D01*
X107961112Y-113490953D01*
X107784272Y-113626646D01*
X107784265Y-113626652D01*
X107626652Y-113784265D01*
X107626646Y-113784272D01*
X107490953Y-113961112D01*
X107490947Y-113961121D01*
X107379490Y-114154168D01*
X107379488Y-114154172D01*
X107294188Y-114360104D01*
X107294186Y-114360111D01*
X107294185Y-114360114D01*
X107281977Y-114405677D01*
X107236492Y-114575429D01*
X107236489Y-114575442D01*
X107207396Y-114796428D01*
X107207395Y-114796444D01*
X98855786Y-114796444D01*
X93881862Y-109131807D01*
X93686605Y-108909435D01*
X93685805Y-108908514D01*
X93677743Y-108899149D01*
X93677636Y-108898825D01*
X93652330Y-108869625D01*
X93652143Y-108869408D01*
X93652137Y-108869395D01*
X93650668Y-108867663D01*
X93098570Y-108201400D01*
X93095164Y-108197099D01*
X92975097Y-108038408D01*
X92593711Y-107534336D01*
X92593711Y-107534335D01*
X92573939Y-107508204D01*
X92570725Y-107503755D01*
X92512997Y-107420000D01*
X92512996Y-107419999D01*
X107448244Y-107419999D01*
X107448245Y-107420000D01*
X108581518Y-107420000D01*
X108570889Y-107438409D01*
X108530000Y-107591009D01*
X108530000Y-107748991D01*
X108570889Y-107901591D01*
X108581518Y-107920000D01*
X107448244Y-107920000D01*
X107459087Y-108002367D01*
X107516764Y-108217620D01*
X107602045Y-108423502D01*
X107602054Y-108423520D01*
X107713464Y-108616491D01*
X107713466Y-108616495D01*
X107849130Y-108793293D01*
X107849138Y-108793302D01*
X108006698Y-108950862D01*
X108006706Y-108950869D01*
X108183504Y-109086533D01*
X108183508Y-109086535D01*
X108376479Y-109197945D01*
X108376497Y-109197954D01*
X108582379Y-109283235D01*
X108797632Y-109340912D01*
X108879999Y-109351755D01*
X108880000Y-109351755D01*
X108880000Y-108218482D01*
X108898409Y-108229111D01*
X109051009Y-108270000D01*
X109208991Y-108270000D01*
X109361591Y-108229111D01*
X109380000Y-108218482D01*
X109380000Y-109351755D01*
X109462367Y-109340912D01*
X109527054Y-109323579D01*
X123529972Y-109323579D01*
X123570793Y-109364400D01*
X124033514Y-109770196D01*
X124521774Y-110144851D01*
X125033486Y-110486766D01*
X125033511Y-110486782D01*
X125566496Y-110794501D01*
X126118472Y-111066705D01*
X126687067Y-111302225D01*
X126687078Y-111302229D01*
X127269852Y-111500055D01*
X127269860Y-111500057D01*
X127864345Y-111659349D01*
X127864363Y-111659353D01*
X128467952Y-111779414D01*
X128467963Y-111779416D01*
X129078139Y-111859747D01*
X129692287Y-111900000D01*
X130307713Y-111900000D01*
X130921860Y-111859747D01*
X131532036Y-111779416D01*
X131532047Y-111779414D01*
X132135636Y-111659353D01*
X132135654Y-111659349D01*
X132730139Y-111500057D01*
X132730147Y-111500055D01*
X133312921Y-111302229D01*
X133312932Y-111302225D01*
X133881527Y-111066705D01*
X134433503Y-110794501D01*
X134966488Y-110486782D01*
X134966513Y-110486766D01*
X135478225Y-110144851D01*
X135966485Y-109770196D01*
X136429207Y-109364400D01*
X136470027Y-109323579D01*
X130000000Y-102853553D01*
X123529972Y-109323579D01*
X109527054Y-109323579D01*
X109677620Y-109283235D01*
X109883502Y-109197954D01*
X109883521Y-109197945D01*
X109940880Y-109164830D01*
X110076491Y-109086535D01*
X110076495Y-109086533D01*
X110253293Y-108950869D01*
X110253302Y-108950862D01*
X110410862Y-108793302D01*
X110410869Y-108793293D01*
X110546533Y-108616495D01*
X110546535Y-108616491D01*
X110657945Y-108423520D01*
X110657954Y-108423502D01*
X110743235Y-108217620D01*
X110800912Y-108002367D01*
X110811756Y-107920000D01*
X109678482Y-107920000D01*
X109689111Y-107901591D01*
X109730000Y-107748991D01*
X109730000Y-107591009D01*
X109689111Y-107438409D01*
X109678482Y-107420000D01*
X110811755Y-107420000D01*
X110811755Y-107419999D01*
X110800912Y-107337632D01*
X110743235Y-107122379D01*
X110657954Y-106916497D01*
X110657945Y-106916479D01*
X110546535Y-106723508D01*
X110546533Y-106723504D01*
X110410869Y-106546706D01*
X110410862Y-106546698D01*
X110253302Y-106389138D01*
X110253293Y-106389130D01*
X110076495Y-106253466D01*
X110076491Y-106253464D01*
X109883520Y-106142054D01*
X109883502Y-106142045D01*
X109677618Y-106056763D01*
X109462363Y-105999087D01*
X109380000Y-105988242D01*
X109380000Y-107121517D01*
X109361591Y-107110889D01*
X109208991Y-107070000D01*
X109051009Y-107070000D01*
X108898409Y-107110889D01*
X108880000Y-107121517D01*
X108880000Y-105988242D01*
X108879999Y-105988242D01*
X108797636Y-105999087D01*
X108582381Y-106056763D01*
X108376497Y-106142045D01*
X108376479Y-106142054D01*
X108183508Y-106253464D01*
X108183504Y-106253466D01*
X108006706Y-106389130D01*
X107849130Y-106546706D01*
X107713466Y-106723504D01*
X107713464Y-106723508D01*
X107602054Y-106916479D01*
X107602045Y-106916497D01*
X107516764Y-107122379D01*
X107459087Y-107337632D01*
X107448244Y-107419999D01*
X92512996Y-107419999D01*
X92080491Y-106792492D01*
X92077478Y-106787907D01*
X91619164Y-106055622D01*
X91616357Y-106050909D01*
X91190892Y-105299085D01*
X91188296Y-105294251D01*
X90796503Y-104524341D01*
X90794124Y-104519398D01*
X90436768Y-103732908D01*
X90434610Y-103727864D01*
X90428838Y-103713507D01*
X90112402Y-102926356D01*
X90110473Y-102921236D01*
X89824007Y-102106187D01*
X89822326Y-102101042D01*
X89572200Y-101274143D01*
X89570731Y-101268868D01*
X89553502Y-101201248D01*
X89469125Y-100870097D01*
X117949500Y-100870097D01*
X117949500Y-101129902D01*
X117990140Y-101386493D01*
X118070422Y-101633576D01*
X118151534Y-101792764D01*
X118188366Y-101865051D01*
X118341069Y-102075229D01*
X118524771Y-102258931D01*
X118524774Y-102258933D01*
X118734949Y-102411634D01*
X118734950Y-102411635D01*
X118789668Y-102439516D01*
X118840464Y-102487490D01*
X118857259Y-102555311D01*
X118834721Y-102621446D01*
X118789668Y-102660484D01*
X118734950Y-102688364D01*
X118734949Y-102688365D01*
X118524774Y-102841066D01*
X118524768Y-102841071D01*
X118341071Y-103024768D01*
X118341066Y-103024774D01*
X118188368Y-103234945D01*
X118070422Y-103466423D01*
X117990140Y-103713506D01*
X117949500Y-103970097D01*
X117949500Y-104229902D01*
X117990140Y-104486493D01*
X118070422Y-104733576D01*
X118151534Y-104892764D01*
X118188366Y-104965051D01*
X118341069Y-105175229D01*
X118524771Y-105358931D01*
X118734949Y-105511634D01*
X118882445Y-105586787D01*
X118966423Y-105629577D01*
X118966425Y-105629577D01*
X118966428Y-105629579D01*
X119213507Y-105709860D01*
X119345706Y-105730797D01*
X119470098Y-105750500D01*
X119470103Y-105750500D01*
X119729902Y-105750500D01*
X119843298Y-105732539D01*
X119986493Y-105709860D01*
X120233572Y-105629579D01*
X120465051Y-105511634D01*
X120675229Y-105358931D01*
X120809290Y-105224869D01*
X120870609Y-105191387D01*
X120940301Y-105196371D01*
X120996235Y-105238242D01*
X121014387Y-105272694D01*
X121197770Y-105812921D01*
X121197774Y-105812932D01*
X121433294Y-106381527D01*
X121705498Y-106933503D01*
X122013217Y-107466488D01*
X122013233Y-107466513D01*
X122355148Y-107978225D01*
X122729803Y-108466485D01*
X123135606Y-108929214D01*
X123176419Y-108970027D01*
X129646446Y-102500000D01*
X129646446Y-102499999D01*
X130353553Y-102499999D01*
X130353553Y-102500001D01*
X136823579Y-108970027D01*
X136823580Y-108970027D01*
X136864400Y-108929207D01*
X137270196Y-108466485D01*
X137644851Y-107978225D01*
X137986766Y-107466513D01*
X137986782Y-107466488D01*
X138294501Y-106933503D01*
X138566705Y-106381527D01*
X138802225Y-105812932D01*
X138802233Y-105812912D01*
X138985612Y-105272695D01*
X139025801Y-105215540D01*
X139090510Y-105189187D01*
X139159194Y-105202001D01*
X139190712Y-105224872D01*
X139324771Y-105358931D01*
X139534949Y-105511634D01*
X139682445Y-105586787D01*
X139766423Y-105629577D01*
X139766425Y-105629577D01*
X139766428Y-105629579D01*
X140013507Y-105709860D01*
X140145706Y-105730797D01*
X140270098Y-105750500D01*
X140270103Y-105750500D01*
X140529902Y-105750500D01*
X140643298Y-105732539D01*
X140786493Y-105709860D01*
X141033572Y-105629579D01*
X141265051Y-105511634D01*
X141475229Y-105358931D01*
X141658931Y-105175229D01*
X141811634Y-104965051D01*
X141929579Y-104733572D01*
X142009860Y-104486493D01*
X142040021Y-104296061D01*
X142050500Y-104229902D01*
X142050500Y-103970097D01*
X142028947Y-103834021D01*
X142009860Y-103713507D01*
X141929579Y-103466428D01*
X141929577Y-103466425D01*
X141929577Y-103466423D01*
X141886787Y-103382445D01*
X141811634Y-103234949D01*
X141658931Y-103024771D01*
X141475229Y-102841069D01*
X141265051Y-102688366D01*
X141210330Y-102660484D01*
X141159535Y-102612511D01*
X141142740Y-102544690D01*
X141165277Y-102478555D01*
X141210329Y-102439515D01*
X141265051Y-102411634D01*
X141475229Y-102258931D01*
X141658931Y-102075229D01*
X141811634Y-101865051D01*
X141929579Y-101633572D01*
X142009860Y-101386493D01*
X142032539Y-101243298D01*
X142050500Y-101129902D01*
X142050500Y-100870097D01*
X142028947Y-100734021D01*
X142009860Y-100613507D01*
X141929579Y-100366428D01*
X141929577Y-100366425D01*
X141929577Y-100366423D01*
X141886787Y-100282445D01*
X141811634Y-100134949D01*
X141658931Y-99924771D01*
X141542709Y-99808549D01*
X155299500Y-99808549D01*
X155299500Y-100031450D01*
X155299501Y-100031466D01*
X155328594Y-100252452D01*
X155328595Y-100252457D01*
X155328596Y-100252463D01*
X155386290Y-100467780D01*
X155386293Y-100467790D01*
X155471593Y-100673722D01*
X155471595Y-100673726D01*
X155583052Y-100866774D01*
X155583057Y-100866780D01*
X155583058Y-100866782D01*
X155718751Y-101043622D01*
X155718757Y-101043629D01*
X155876370Y-101201242D01*
X155876376Y-101201247D01*
X156053226Y-101336948D01*
X156246274Y-101448405D01*
X156452219Y-101533710D01*
X156667537Y-101591404D01*
X156888543Y-101620500D01*
X156888550Y-101620500D01*
X157111450Y-101620500D01*
X157111457Y-101620500D01*
X157332463Y-101591404D01*
X157547781Y-101533710D01*
X157753726Y-101448405D01*
X157946774Y-101336948D01*
X158123624Y-101201247D01*
X158281247Y-101043624D01*
X158416948Y-100866774D01*
X158528405Y-100673726D01*
X158613710Y-100467781D01*
X158671404Y-100252463D01*
X158700500Y-100031457D01*
X158700500Y-99808543D01*
X158671404Y-99587537D01*
X158613710Y-99372219D01*
X158528405Y-99166274D01*
X158416948Y-98973226D01*
X158281247Y-98796376D01*
X158281242Y-98796370D01*
X158123629Y-98638757D01*
X158123622Y-98638751D01*
X157946782Y-98503058D01*
X157946780Y-98503057D01*
X157946774Y-98503052D01*
X157753726Y-98391595D01*
X157753722Y-98391593D01*
X157547790Y-98306293D01*
X157547783Y-98306291D01*
X157547781Y-98306290D01*
X157332463Y-98248596D01*
X157332457Y-98248595D01*
X157332452Y-98248594D01*
X157111466Y-98219501D01*
X157111463Y-98219500D01*
X157111457Y-98219500D01*
X156888543Y-98219500D01*
X156888537Y-98219500D01*
X156888533Y-98219501D01*
X156667547Y-98248594D01*
X156667540Y-98248595D01*
X156667537Y-98248596D01*
X156611086Y-98263722D01*
X156452219Y-98306290D01*
X156452209Y-98306293D01*
X156246277Y-98391593D01*
X156246273Y-98391595D01*
X156053226Y-98503052D01*
X156053217Y-98503058D01*
X155876377Y-98638751D01*
X155876370Y-98638757D01*
X155718757Y-98796370D01*
X155718751Y-98796377D01*
X155583058Y-98973217D01*
X155583052Y-98973226D01*
X155471595Y-99166273D01*
X155471593Y-99166277D01*
X155386293Y-99372209D01*
X155386290Y-99372219D01*
X155331156Y-99577985D01*
X155328597Y-99587534D01*
X155328594Y-99587547D01*
X155299501Y-99808533D01*
X155299500Y-99808549D01*
X141542709Y-99808549D01*
X141475229Y-99741069D01*
X141265051Y-99588366D01*
X141192764Y-99551534D01*
X141033576Y-99470422D01*
X140786493Y-99390140D01*
X140529902Y-99349500D01*
X140529897Y-99349500D01*
X140270103Y-99349500D01*
X140270098Y-99349500D01*
X140013506Y-99390140D01*
X139766423Y-99470422D01*
X139534945Y-99588368D01*
X139324774Y-99741066D01*
X139214461Y-99851379D01*
X139153138Y-99884863D01*
X139083446Y-99879879D01*
X139027513Y-99838007D01*
X139007005Y-99795788D01*
X139000059Y-99769866D01*
X139000058Y-99769860D01*
X138802229Y-99187078D01*
X138802225Y-99187067D01*
X138566705Y-98618472D01*
X138294501Y-98066496D01*
X137986782Y-97533511D01*
X137986766Y-97533486D01*
X137644851Y-97021774D01*
X137270196Y-96533514D01*
X136864393Y-96070785D01*
X136823580Y-96029972D01*
X130353553Y-102499999D01*
X129646446Y-102499999D01*
X123176419Y-96029972D01*
X123176418Y-96029972D01*
X123135628Y-96070762D01*
X123135601Y-96070791D01*
X122729803Y-96533514D01*
X122355148Y-97021774D01*
X122013233Y-97533486D01*
X122013217Y-97533511D01*
X121705498Y-98066496D01*
X121433294Y-98618472D01*
X121197774Y-99187067D01*
X121197770Y-99187078D01*
X120999944Y-99769852D01*
X120999942Y-99769860D01*
X120992994Y-99795791D01*
X120956628Y-99855451D01*
X120893781Y-99885980D01*
X120824406Y-99877685D01*
X120785538Y-99851378D01*
X120675231Y-99741071D01*
X120675225Y-99741066D01*
X120465054Y-99588368D01*
X120465053Y-99588367D01*
X120465051Y-99588366D01*
X120392764Y-99551534D01*
X120233576Y-99470422D01*
X119986493Y-99390140D01*
X119729902Y-99349500D01*
X119729897Y-99349500D01*
X119470103Y-99349500D01*
X119470098Y-99349500D01*
X119213506Y-99390140D01*
X118966423Y-99470422D01*
X118734945Y-99588368D01*
X118524774Y-99741066D01*
X118524768Y-99741071D01*
X118341071Y-99924768D01*
X118341066Y-99924774D01*
X118188368Y-100134945D01*
X118070422Y-100366423D01*
X117990140Y-100613506D01*
X117949500Y-100870097D01*
X89469125Y-100870097D01*
X89357423Y-100431704D01*
X89356201Y-100426420D01*
X89180133Y-99580636D01*
X89179153Y-99575349D01*
X89040659Y-98722551D01*
X89039907Y-98717165D01*
X89030110Y-98633629D01*
X88939278Y-97859135D01*
X88938765Y-97853722D01*
X88876188Y-96992086D01*
X88875916Y-96986691D01*
X88851512Y-96123096D01*
X88851480Y-96117614D01*
X88865299Y-95253877D01*
X88865508Y-95248395D01*
X88917520Y-94386094D01*
X88917971Y-94380638D01*
X88936339Y-94205498D01*
X89008078Y-93521454D01*
X89008769Y-93516031D01*
X89035051Y-93340646D01*
X89136789Y-92661696D01*
X89137721Y-92656300D01*
X89147981Y-92603797D01*
X89303405Y-91808466D01*
X89304573Y-91803121D01*
X89507606Y-90963414D01*
X89508992Y-90958189D01*
X89529129Y-90888549D01*
X96299500Y-90888549D01*
X96299500Y-91111450D01*
X96299501Y-91111466D01*
X96328594Y-91332452D01*
X96328595Y-91332457D01*
X96328596Y-91332463D01*
X96346528Y-91399385D01*
X96386290Y-91547780D01*
X96386293Y-91547790D01*
X96471593Y-91753722D01*
X96471595Y-91753726D01*
X96583052Y-91946774D01*
X96583057Y-91946780D01*
X96583058Y-91946782D01*
X96718751Y-92123622D01*
X96718757Y-92123629D01*
X96876370Y-92281242D01*
X96876377Y-92281248D01*
X96885010Y-92287872D01*
X97053226Y-92416948D01*
X97246274Y-92528405D01*
X97376140Y-92582197D01*
X97413195Y-92597546D01*
X97452219Y-92613710D01*
X97667537Y-92671404D01*
X97888543Y-92700500D01*
X97888550Y-92700500D01*
X98111450Y-92700500D01*
X98111457Y-92700500D01*
X98332463Y-92671404D01*
X98547781Y-92613710D01*
X98753726Y-92528405D01*
X98946774Y-92416948D01*
X99123624Y-92281247D01*
X99281247Y-92123624D01*
X99416948Y-91946774D01*
X99528405Y-91753726D01*
X99613710Y-91547781D01*
X99671404Y-91332463D01*
X99700500Y-91111457D01*
X99700500Y-90888543D01*
X99671404Y-90667537D01*
X99613710Y-90452219D01*
X99581947Y-90375539D01*
X99574479Y-90306071D01*
X99605754Y-90243591D01*
X99608828Y-90240406D01*
X99972864Y-89876370D01*
X100480916Y-89368318D01*
X100542236Y-89334835D01*
X100611927Y-89339819D01*
X100667861Y-89381691D01*
X100692278Y-89447155D01*
X100678790Y-89509167D01*
X100679303Y-89509359D01*
X100677974Y-89512922D01*
X100677431Y-89515419D01*
X100676205Y-89517663D01*
X100625908Y-89652517D01*
X100620683Y-89701125D01*
X100619501Y-89712123D01*
X100619500Y-89712135D01*
X100619500Y-92207870D01*
X100619501Y-92207876D01*
X100625908Y-92267483D01*
X100676202Y-92402328D01*
X100676206Y-92402335D01*
X100762452Y-92517544D01*
X100762455Y-92517547D01*
X100877664Y-92603793D01*
X100877671Y-92603797D01*
X101012517Y-92654091D01*
X101012516Y-92654091D01*
X101019444Y-92654835D01*
X101072127Y-92660500D01*
X103567872Y-92660499D01*
X103627483Y-92654091D01*
X103762331Y-92603796D01*
X103877546Y-92517546D01*
X103963796Y-92402331D01*
X104014091Y-92267483D01*
X104020500Y-92207873D01*
X104020499Y-89712128D01*
X104014091Y-89652517D01*
X104010510Y-89642917D01*
X103963797Y-89517671D01*
X103963793Y-89517664D01*
X103877547Y-89402455D01*
X103877544Y-89402452D01*
X103762335Y-89316206D01*
X103762328Y-89316202D01*
X103627482Y-89265908D01*
X103627483Y-89265908D01*
X103567883Y-89259501D01*
X103567881Y-89259500D01*
X103567873Y-89259500D01*
X103567864Y-89259500D01*
X101072129Y-89259500D01*
X101072123Y-89259501D01*
X101012516Y-89265908D01*
X100877663Y-89316205D01*
X100875419Y-89317431D01*
X100872922Y-89317973D01*
X100869359Y-89319303D01*
X100869167Y-89318790D01*
X100807145Y-89332277D01*
X100741682Y-89307855D01*
X100699816Y-89251918D01*
X100694837Y-89182226D01*
X100728318Y-89120916D01*
X101667516Y-88181719D01*
X101728839Y-88148234D01*
X101755197Y-88145400D01*
X113797267Y-88145400D01*
X113864306Y-88165085D01*
X113910061Y-88217889D01*
X113920005Y-88287047D01*
X113919740Y-88288798D01*
X113900000Y-88413429D01*
X113900000Y-88586571D01*
X113927086Y-88757585D01*
X113927086Y-88757588D01*
X113980588Y-88922250D01*
X114007032Y-88974149D01*
X114019928Y-89042819D01*
X113995815Y-89104753D01*
X113956205Y-89157665D01*
X113956202Y-89157671D01*
X113905908Y-89292517D01*
X113899501Y-89352116D01*
X113899500Y-89352135D01*
X113899500Y-90647870D01*
X113899501Y-90647876D01*
X113905908Y-90707483D01*
X113956202Y-90842328D01*
X113956206Y-90842335D01*
X114042452Y-90957544D01*
X114042455Y-90957547D01*
X114157664Y-91043793D01*
X114157671Y-91043797D01*
X114292517Y-91094091D01*
X114292516Y-91094091D01*
X114299444Y-91094835D01*
X114352127Y-91100500D01*
X114390902Y-91100499D01*
X114412146Y-91106737D01*
X114434235Y-91108317D01*
X114445016Y-91116388D01*
X114457939Y-91120182D01*
X114472440Y-91136916D01*
X114490169Y-91150188D01*
X114494875Y-91162807D01*
X114503695Y-91172985D01*
X114506846Y-91194902D01*
X114514586Y-91215652D01*
X114511723Y-91228813D01*
X114513640Y-91242143D01*
X114504442Y-91262285D01*
X114499735Y-91283925D01*
X114486466Y-91301650D01*
X114484617Y-91305700D01*
X114478584Y-91312180D01*
X114391380Y-91399384D01*
X114391379Y-91399384D01*
X114391378Y-91399385D01*
X114391378Y-91399386D01*
X109889592Y-95901171D01*
X109828269Y-95934656D01*
X109758577Y-95929672D01*
X109754459Y-95928051D01*
X109677781Y-95896290D01*
X109462463Y-95838596D01*
X109462457Y-95838595D01*
X109462452Y-95838594D01*
X109241466Y-95809501D01*
X109241463Y-95809500D01*
X109241457Y-95809500D01*
X109018543Y-95809500D01*
X109018537Y-95809500D01*
X109018533Y-95809501D01*
X108797547Y-95838594D01*
X108797540Y-95838595D01*
X108797537Y-95838596D01*
X108582219Y-95896290D01*
X108582209Y-95896293D01*
X108376277Y-95981593D01*
X108376273Y-95981595D01*
X108183226Y-96093052D01*
X108183217Y-96093058D01*
X108006377Y-96228751D01*
X108006370Y-96228757D01*
X107848757Y-96386370D01*
X107848751Y-96386377D01*
X107713058Y-96563217D01*
X107713052Y-96563226D01*
X107601595Y-96756273D01*
X107601593Y-96756277D01*
X107516293Y-96962209D01*
X107516290Y-96962219D01*
X107458597Y-97177534D01*
X107458594Y-97177547D01*
X107429501Y-97398533D01*
X107429500Y-97398549D01*
X107429500Y-97621450D01*
X107429501Y-97621466D01*
X107458594Y-97842452D01*
X107458595Y-97842457D01*
X107458596Y-97842463D01*
X107462342Y-97856443D01*
X107516290Y-98057780D01*
X107516293Y-98057790D01*
X107583276Y-98219500D01*
X107601595Y-98263726D01*
X107713052Y-98456774D01*
X107713057Y-98456780D01*
X107713058Y-98456782D01*
X107848751Y-98633622D01*
X107848757Y-98633629D01*
X108006370Y-98791242D01*
X108006377Y-98791248D01*
X108132294Y-98887867D01*
X108183226Y-98926948D01*
X108376274Y-99038405D01*
X108582219Y-99123710D01*
X108797537Y-99181404D01*
X109018543Y-99210500D01*
X109018550Y-99210500D01*
X109241450Y-99210500D01*
X109241457Y-99210500D01*
X109462463Y-99181404D01*
X109677781Y-99123710D01*
X109883726Y-99038405D01*
X110076774Y-98926948D01*
X110253624Y-98791247D01*
X110411247Y-98633624D01*
X110546948Y-98456774D01*
X110658405Y-98263726D01*
X110743710Y-98057781D01*
X110801404Y-97842463D01*
X110830500Y-97621457D01*
X110830500Y-97398543D01*
X110801404Y-97177537D01*
X110743710Y-96962219D01*
X110711947Y-96885539D01*
X110704479Y-96816071D01*
X110735754Y-96753591D01*
X110738828Y-96750406D01*
X111812817Y-95676417D01*
X123529972Y-95676417D01*
X123529972Y-95676418D01*
X129999999Y-102146446D01*
X136470027Y-95676419D01*
X136429214Y-95635606D01*
X135966485Y-95229803D01*
X135478225Y-94855148D01*
X134966513Y-94513233D01*
X134966488Y-94513217D01*
X134433503Y-94205498D01*
X133881527Y-93933294D01*
X133312932Y-93697774D01*
X133312921Y-93697770D01*
X132730147Y-93499944D01*
X132730139Y-93499942D01*
X132135654Y-93340650D01*
X132135636Y-93340646D01*
X131532047Y-93220585D01*
X131532036Y-93220583D01*
X130921860Y-93140252D01*
X130307713Y-93100000D01*
X129692287Y-93100000D01*
X129078139Y-93140252D01*
X128467963Y-93220583D01*
X128467952Y-93220585D01*
X127864363Y-93340646D01*
X127864345Y-93340650D01*
X127269860Y-93499942D01*
X127269852Y-93499944D01*
X126687078Y-93697770D01*
X126687067Y-93697774D01*
X126118472Y-93933294D01*
X125566496Y-94205498D01*
X125033511Y-94513217D01*
X125033486Y-94513233D01*
X124521774Y-94855148D01*
X124033514Y-95229803D01*
X123570791Y-95635601D01*
X123570762Y-95635628D01*
X123529972Y-95676417D01*
X111812817Y-95676417D01*
X111951860Y-95537374D01*
X112976002Y-94513233D01*
X115084316Y-92404919D01*
X115145639Y-92371434D01*
X115171997Y-92368600D01*
X143145231Y-92368600D01*
X143145247Y-92368601D01*
X143152843Y-92368601D01*
X143310954Y-92368601D01*
X143310957Y-92368601D01*
X143463685Y-92327677D01*
X143532629Y-92287872D01*
X143600616Y-92248620D01*
X143712420Y-92136816D01*
X143712420Y-92136814D01*
X143722624Y-92126611D01*
X143722628Y-92126606D01*
X144726573Y-91122660D01*
X144787894Y-91089177D01*
X144833646Y-91087870D01*
X144886715Y-91096275D01*
X144913386Y-91100500D01*
X144913389Y-91100500D01*
X145086610Y-91100500D01*
X145086611Y-91100500D01*
X145257701Y-91073402D01*
X145422445Y-91019873D01*
X145576788Y-90941232D01*
X145716928Y-90839414D01*
X145839414Y-90716928D01*
X145941232Y-90576788D01*
X146019873Y-90422445D01*
X146073402Y-90257701D01*
X146100500Y-90086611D01*
X146100500Y-90001096D01*
X146109144Y-89971655D01*
X146115668Y-89941669D01*
X146119422Y-89936653D01*
X146120185Y-89934057D01*
X146136810Y-89913424D01*
X146258098Y-89792135D01*
X155979500Y-89792135D01*
X155979500Y-92287870D01*
X155979501Y-92287871D01*
X155985908Y-92347483D01*
X156036202Y-92482328D01*
X156036206Y-92482335D01*
X156122452Y-92597544D01*
X156122455Y-92597547D01*
X156237664Y-92683793D01*
X156237671Y-92683797D01*
X156372517Y-92734091D01*
X156372516Y-92734091D01*
X156379444Y-92734835D01*
X156432127Y-92740500D01*
X158927872Y-92740499D01*
X158987483Y-92734091D01*
X159122331Y-92683796D01*
X159237546Y-92597546D01*
X159323796Y-92482331D01*
X159374091Y-92347483D01*
X159380500Y-92287873D01*
X159380499Y-89792128D01*
X159374091Y-89732517D01*
X159368957Y-89718753D01*
X159323797Y-89597671D01*
X159323793Y-89597664D01*
X159237547Y-89482455D01*
X159237544Y-89482452D01*
X159122335Y-89396206D01*
X159122328Y-89396202D01*
X158987482Y-89345908D01*
X158987483Y-89345908D01*
X158927883Y-89339501D01*
X158927881Y-89339500D01*
X158927873Y-89339500D01*
X158927864Y-89339500D01*
X156432129Y-89339500D01*
X156432123Y-89339501D01*
X156372516Y-89345908D01*
X156237671Y-89396202D01*
X156237664Y-89396206D01*
X156122455Y-89482452D01*
X156122452Y-89482455D01*
X156036206Y-89597664D01*
X156036202Y-89597671D01*
X155985908Y-89732517D01*
X155979501Y-89792116D01*
X155979501Y-89792123D01*
X155979500Y-89792135D01*
X146258098Y-89792135D01*
X146285309Y-89764924D01*
X146285314Y-89764921D01*
X146295514Y-89754720D01*
X146295516Y-89754720D01*
X146407320Y-89642916D01*
X146445056Y-89577555D01*
X146459290Y-89552901D01*
X146479634Y-89517664D01*
X146486377Y-89505985D01*
X146527300Y-89353258D01*
X146527300Y-89195143D01*
X146527300Y-87827260D01*
X146527301Y-87827247D01*
X146527301Y-87659144D01*
X146504073Y-87572457D01*
X146486377Y-87506416D01*
X146476286Y-87488938D01*
X146407324Y-87369490D01*
X146407318Y-87369482D01*
X145951526Y-86913690D01*
X145485315Y-86447480D01*
X145451831Y-86386158D01*
X145456815Y-86316467D01*
X145498687Y-86260533D01*
X145564151Y-86236116D01*
X145572997Y-86235800D01*
X156335203Y-86235800D01*
X156402242Y-86255485D01*
X156422884Y-86272119D01*
X160391171Y-90240406D01*
X160424656Y-90301729D01*
X160419672Y-90371421D01*
X160418051Y-90375540D01*
X160386293Y-90452209D01*
X160386290Y-90452219D01*
X160334183Y-90646688D01*
X160328597Y-90667534D01*
X160328594Y-90667547D01*
X160299501Y-90888533D01*
X160299500Y-90888549D01*
X160299500Y-91111450D01*
X160299501Y-91111466D01*
X160328594Y-91332452D01*
X160328595Y-91332457D01*
X160328596Y-91332463D01*
X160346528Y-91399385D01*
X160386290Y-91547780D01*
X160386293Y-91547790D01*
X160471593Y-91753722D01*
X160471595Y-91753726D01*
X160583052Y-91946774D01*
X160583057Y-91946780D01*
X160583058Y-91946782D01*
X160718751Y-92123622D01*
X160718757Y-92123629D01*
X160876370Y-92281242D01*
X160876377Y-92281248D01*
X160885010Y-92287872D01*
X161053226Y-92416948D01*
X161246274Y-92528405D01*
X161376140Y-92582197D01*
X161413195Y-92597546D01*
X161452219Y-92613710D01*
X161667537Y-92671404D01*
X161888543Y-92700500D01*
X161888550Y-92700500D01*
X162111450Y-92700500D01*
X162111457Y-92700500D01*
X162332463Y-92671404D01*
X162547781Y-92613710D01*
X162753726Y-92528405D01*
X162946774Y-92416948D01*
X163123624Y-92281247D01*
X163281247Y-92123624D01*
X163416948Y-91946774D01*
X163528405Y-91753726D01*
X163613710Y-91547781D01*
X163671404Y-91332463D01*
X163700500Y-91111457D01*
X163700500Y-90888543D01*
X163671404Y-90667537D01*
X163613710Y-90452219D01*
X163528405Y-90246274D01*
X163416948Y-90053226D01*
X163281247Y-89876376D01*
X163281242Y-89876370D01*
X163123629Y-89718757D01*
X163123622Y-89718751D01*
X162946782Y-89583058D01*
X162946780Y-89583057D01*
X162946774Y-89583052D01*
X162753726Y-89471595D01*
X162753722Y-89471593D01*
X162547790Y-89386293D01*
X162547783Y-89386291D01*
X162547781Y-89386290D01*
X162332463Y-89328596D01*
X162332457Y-89328595D01*
X162332452Y-89328594D01*
X162111466Y-89299501D01*
X162111463Y-89299500D01*
X162111457Y-89299500D01*
X161888543Y-89299500D01*
X161888537Y-89299500D01*
X161888533Y-89299501D01*
X161667547Y-89328594D01*
X161667540Y-89328595D01*
X161667537Y-89328596D01*
X161495224Y-89374767D01*
X161452219Y-89386290D01*
X161452209Y-89386293D01*
X161375540Y-89418051D01*
X161306070Y-89425520D01*
X161243591Y-89394245D01*
X161240406Y-89391171D01*
X157122890Y-85273655D01*
X157122888Y-85273652D01*
X157004017Y-85154781D01*
X157004016Y-85154780D01*
X156917204Y-85104660D01*
X156917204Y-85104659D01*
X156917200Y-85104658D01*
X156867085Y-85075723D01*
X156714357Y-85034799D01*
X156556243Y-85034799D01*
X156548647Y-85034799D01*
X156548631Y-85034800D01*
X130026157Y-85034800D01*
X129868043Y-85034800D01*
X129715315Y-85075723D01*
X129715314Y-85075723D01*
X129715312Y-85075724D01*
X129715309Y-85075725D01*
X129665196Y-85104659D01*
X129665195Y-85104660D01*
X129621789Y-85129720D01*
X129578385Y-85154779D01*
X129578382Y-85154781D01*
X128787781Y-85945382D01*
X128787775Y-85945390D01*
X128753661Y-86004479D01*
X128753661Y-86004481D01*
X128708723Y-86082314D01*
X128708723Y-86082315D01*
X128667799Y-86235043D01*
X128667799Y-86235045D01*
X128667799Y-86403146D01*
X128667800Y-86403159D01*
X128667800Y-86820400D01*
X128648115Y-86887439D01*
X128595311Y-86933194D01*
X128543800Y-86944400D01*
X101534157Y-86944400D01*
X101376042Y-86944400D01*
X101223315Y-86985323D01*
X101223314Y-86985323D01*
X101223312Y-86985324D01*
X101223309Y-86985325D01*
X101173196Y-87014259D01*
X101173195Y-87014260D01*
X101129789Y-87039320D01*
X101086385Y-87064379D01*
X101086382Y-87064381D01*
X100974578Y-87176186D01*
X98759592Y-89391171D01*
X98698269Y-89424656D01*
X98628577Y-89419672D01*
X98624459Y-89418051D01*
X98547781Y-89386290D01*
X98504776Y-89374767D01*
X98332463Y-89328596D01*
X98332457Y-89328595D01*
X98332452Y-89328594D01*
X98111466Y-89299501D01*
X98111463Y-89299500D01*
X98111457Y-89299500D01*
X97888543Y-89299500D01*
X97888537Y-89299500D01*
X97888533Y-89299501D01*
X97667547Y-89328594D01*
X97667540Y-89328595D01*
X97667537Y-89328596D01*
X97495224Y-89374767D01*
X97452219Y-89386290D01*
X97452209Y-89386293D01*
X97246277Y-89471593D01*
X97246273Y-89471595D01*
X97053226Y-89583052D01*
X97053217Y-89583058D01*
X96876377Y-89718751D01*
X96876370Y-89718757D01*
X96718757Y-89876370D01*
X96718751Y-89876377D01*
X96583058Y-90053217D01*
X96583052Y-90053226D01*
X96471595Y-90246273D01*
X96471593Y-90246277D01*
X96386293Y-90452209D01*
X96386290Y-90452219D01*
X96334183Y-90646688D01*
X96328597Y-90667534D01*
X96328594Y-90667547D01*
X96299501Y-90888533D01*
X96299500Y-90888549D01*
X89529129Y-90888549D01*
X89748975Y-90128265D01*
X89750602Y-90123070D01*
X90027064Y-89304560D01*
X90028909Y-89299474D01*
X90341300Y-88494012D01*
X90343363Y-88489022D01*
X90691096Y-87698120D01*
X90693378Y-87693229D01*
X91075727Y-86918539D01*
X91078256Y-86913690D01*
X91092690Y-86887439D01*
X91494490Y-86156685D01*
X91497218Y-86151973D01*
X91946557Y-85414076D01*
X91949473Y-85409519D01*
X92430983Y-84692262D01*
X92434100Y-84687833D01*
X92946919Y-83992505D01*
X92950222Y-83988229D01*
X93493265Y-83316303D01*
X93496762Y-83312167D01*
X94068995Y-82664921D01*
X94072660Y-82660955D01*
X94672958Y-82039658D01*
X94676802Y-82035851D01*
X95304032Y-81441680D01*
X95308030Y-81438058D01*
X95960906Y-80872230D01*
X95965054Y-80868793D01*
X96642322Y-80332399D01*
X96646640Y-80329132D01*
X97346933Y-79823248D01*
X97351418Y-79820156D01*
X98073426Y-79345727D01*
X98078044Y-79342838D01*
X98820304Y-78900826D01*
X98825025Y-78898155D01*
X99586110Y-78489409D01*
X99590943Y-78486949D01*
X100369426Y-78112238D01*
X100374343Y-78110004D01*
X101168611Y-77770107D01*
X101173626Y-77768092D01*
X101982135Y-77463666D01*
X101987236Y-77461873D01*
X102808474Y-77193490D01*
X102813639Y-77191929D01*
X103645857Y-76960160D01*
X103651168Y-76958807D01*
X104492819Y-76764078D01*
X104498174Y-76762963D01*
X105347616Y-76605653D01*
X105353018Y-76604776D01*
X106208597Y-76485193D01*
X106213980Y-76484561D01*
X107074020Y-76402939D01*
X107079445Y-76402544D01*
X107942259Y-76359044D01*
X107947723Y-76358890D01*
X108811621Y-76353597D01*
X108817037Y-76353684D01*
X109680301Y-76386609D01*
X109685765Y-76386938D01*
X110546747Y-76458018D01*
X110552166Y-76458587D01*
X111409152Y-76567679D01*
X111414511Y-76568483D01*
X112265818Y-76715374D01*
X112271201Y-76716425D01*
X113115164Y-76900826D01*
X113120487Y-76902113D01*
X113955474Y-77123666D01*
X113960723Y-77125183D01*
X114785139Y-77383467D01*
X114790252Y-77385195D01*
X115602423Y-77679689D01*
X115607522Y-77681666D01*
X116405840Y-78011784D01*
X116410838Y-78013982D01*
X117193798Y-78379100D01*
X117198652Y-78381496D01*
X117964706Y-78780896D01*
X117969483Y-78783522D01*
X118717110Y-79216411D01*
X118721766Y-79219247D01*
X119449484Y-79684762D01*
X119454030Y-79687814D01*
X120078315Y-80127252D01*
X120160441Y-80185061D01*
X120164855Y-80188316D01*
X120677085Y-80583887D01*
X120848583Y-80716326D01*
X120852843Y-80719769D01*
X121393276Y-81176670D01*
X121512532Y-81277493D01*
X121516639Y-81281123D01*
X122016550Y-81743198D01*
X122151032Y-81867501D01*
X122154973Y-81871309D01*
X122321696Y-82039686D01*
X122762796Y-82485162D01*
X122766569Y-82489145D01*
X123317420Y-83097034D01*
X123339861Y-83121798D01*
X123341341Y-83123461D01*
X123344835Y-83127459D01*
X123361901Y-83150730D01*
X123368869Y-83154958D01*
X123374421Y-83161310D01*
X123374603Y-83161452D01*
X123386440Y-83167375D01*
X123398455Y-83173388D01*
X123407266Y-83178254D01*
X123430094Y-83192105D01*
X123430099Y-83192105D01*
X123430100Y-83192106D01*
X123438413Y-83193384D01*
X123445934Y-83197149D01*
X123477564Y-83199408D01*
X123508931Y-83204234D01*
X123514686Y-83202824D01*
X123517107Y-83202232D01*
X123525496Y-83202832D01*
X123555583Y-83192814D01*
X123560476Y-83191617D01*
X123560480Y-83191616D01*
X123568072Y-83189757D01*
X123586407Y-83185270D01*
X123593193Y-83180293D01*
X123601175Y-83177636D01*
X123625146Y-83156860D01*
X123650729Y-83138100D01*
X123650731Y-83138097D01*
X123655094Y-83130904D01*
X123661452Y-83125396D01*
X123675648Y-83097028D01*
X123692104Y-83069907D01*
X123692104Y-83069906D01*
X123692105Y-83069905D01*
X123692236Y-83069544D01*
X123693578Y-83061197D01*
X123697149Y-83054066D01*
X123699082Y-83026986D01*
X123699951Y-83021591D01*
X123700190Y-83021088D01*
X123700629Y-83017757D01*
X123790021Y-82555387D01*
X123792175Y-82546159D01*
X123918888Y-82084063D01*
X123921750Y-82075005D01*
X123925369Y-82064912D01*
X124083477Y-81623974D01*
X124087010Y-81615196D01*
X124282810Y-81177857D01*
X124287013Y-81169360D01*
X124515721Y-80748317D01*
X124520545Y-80740194D01*
X124780842Y-80337878D01*
X124786293Y-80330122D01*
X125076636Y-79948920D01*
X125082657Y-79941617D01*
X125115037Y-79905258D01*
X128249500Y-79905258D01*
X128249500Y-80134741D01*
X128256554Y-80188317D01*
X128279452Y-80362238D01*
X128338842Y-80583887D01*
X128426650Y-80795876D01*
X128426657Y-80795890D01*
X128541392Y-80994617D01*
X128681081Y-81176661D01*
X128681089Y-81176670D01*
X128843330Y-81338911D01*
X128843338Y-81338918D01*
X129025382Y-81478607D01*
X129025385Y-81478608D01*
X129025388Y-81478611D01*
X129224112Y-81593344D01*
X129224117Y-81593346D01*
X129224123Y-81593349D01*
X129276833Y-81615182D01*
X129436113Y-81681158D01*
X129657762Y-81740548D01*
X129885266Y-81770500D01*
X129885273Y-81770500D01*
X130114727Y-81770500D01*
X130114734Y-81770500D01*
X130342238Y-81740548D01*
X130563887Y-81681158D01*
X130775888Y-81593344D01*
X130974612Y-81478611D01*
X131156661Y-81338919D01*
X131156665Y-81338914D01*
X131156670Y-81338911D01*
X131318911Y-81176670D01*
X131318914Y-81176665D01*
X131318919Y-81176661D01*
X131458611Y-80994612D01*
X131573344Y-80795888D01*
X131661158Y-80583887D01*
X131720548Y-80362238D01*
X131750500Y-80134734D01*
X131750500Y-79905266D01*
X131720548Y-79677762D01*
X131661158Y-79456113D01*
X131611190Y-79335480D01*
X131573349Y-79244123D01*
X131573346Y-79244117D01*
X131573344Y-79244112D01*
X131458611Y-79045388D01*
X131458608Y-79045385D01*
X131458607Y-79045382D01*
X131318918Y-78863338D01*
X131318911Y-78863330D01*
X131156670Y-78701089D01*
X131156661Y-78701081D01*
X130974617Y-78561392D01*
X130775890Y-78446657D01*
X130775876Y-78446650D01*
X130563887Y-78358842D01*
X130463497Y-78331943D01*
X130342238Y-78299452D01*
X130304215Y-78294446D01*
X130114741Y-78269500D01*
X130114734Y-78269500D01*
X129885266Y-78269500D01*
X129885258Y-78269500D01*
X129668715Y-78298009D01*
X129657762Y-78299452D01*
X129564076Y-78324554D01*
X129436112Y-78358842D01*
X129224123Y-78446650D01*
X129224109Y-78446657D01*
X129025382Y-78561392D01*
X128843338Y-78701081D01*
X128681081Y-78863338D01*
X128541392Y-79045382D01*
X128426657Y-79244109D01*
X128426650Y-79244123D01*
X128338842Y-79456112D01*
X128279453Y-79677759D01*
X128279451Y-79677770D01*
X128249500Y-79905258D01*
X125115037Y-79905258D01*
X125401318Y-79583794D01*
X125407889Y-79576963D01*
X125753014Y-79244599D01*
X125760106Y-79238274D01*
X125783153Y-79219256D01*
X126129671Y-78933314D01*
X126137202Y-78927570D01*
X126529057Y-78651795D01*
X126537001Y-78646647D01*
X126948817Y-78401694D01*
X126957135Y-78397168D01*
X127386508Y-78184468D01*
X127395145Y-78180594D01*
X127839546Y-78001402D01*
X127848463Y-77998198D01*
X128305264Y-77853569D01*
X128314393Y-77851058D01*
X128780958Y-77741831D01*
X128790241Y-77740030D01*
X129263794Y-77666854D01*
X129273201Y-77665767D01*
X129750941Y-77629074D01*
X129760437Y-77628710D01*
X130239564Y-77628710D01*
X130249060Y-77629074D01*
X130726796Y-77665767D01*
X130736209Y-77666854D01*
X131209754Y-77740029D01*
X131219047Y-77741832D01*
X131685599Y-77851057D01*
X131694741Y-77853571D01*
X132151528Y-77998195D01*
X132160462Y-78001405D01*
X132604845Y-78180591D01*
X132613501Y-78184474D01*
X133042850Y-78397161D01*
X133051194Y-78401700D01*
X133459440Y-78644531D01*
X133462983Y-78646638D01*
X133470958Y-78651805D01*
X133862784Y-78927562D01*
X133870340Y-78933325D01*
X134239894Y-79238275D01*
X134246986Y-79244600D01*
X134592110Y-79576963D01*
X134598693Y-79583808D01*
X134884962Y-79905258D01*
X134917342Y-79941617D01*
X134923378Y-79948941D01*
X135064883Y-80134727D01*
X135213698Y-80330111D01*
X135219163Y-80337887D01*
X135479435Y-80740166D01*
X135484287Y-80748336D01*
X135712986Y-81169360D01*
X135717194Y-81177869D01*
X135912988Y-81615193D01*
X135916532Y-81623999D01*
X136078248Y-82075002D01*
X136081111Y-82084063D01*
X136207820Y-82546146D01*
X136209980Y-82555400D01*
X136299367Y-83017741D01*
X136300047Y-83021582D01*
X136300916Y-83026986D01*
X136302851Y-83054066D01*
X136306421Y-83061199D01*
X136307764Y-83069546D01*
X136307895Y-83069907D01*
X136307896Y-83069908D01*
X136324354Y-83097034D01*
X136338548Y-83125396D01*
X136344904Y-83130904D01*
X136349270Y-83138100D01*
X136370791Y-83153883D01*
X136370790Y-83153883D01*
X136374865Y-83156871D01*
X136398825Y-83177636D01*
X136406800Y-83180290D01*
X136413589Y-83185269D01*
X136413590Y-83185269D01*
X136413593Y-83185271D01*
X136444426Y-83192818D01*
X136474504Y-83202832D01*
X136482889Y-83202233D01*
X136491069Y-83204235D01*
X136517462Y-83200174D01*
X136517463Y-83200174D01*
X136522449Y-83199406D01*
X136554066Y-83197149D01*
X136561584Y-83193386D01*
X136569906Y-83192106D01*
X136585738Y-83182498D01*
X136592727Y-83178259D01*
X136592731Y-83178256D01*
X136597041Y-83175641D01*
X136625396Y-83161452D01*
X136630904Y-83155096D01*
X136638099Y-83150731D01*
X136652035Y-83131725D01*
X136660136Y-83121800D01*
X137233449Y-82489124D01*
X137237184Y-82485181D01*
X137845048Y-81871287D01*
X137848938Y-81867528D01*
X138483382Y-81281103D01*
X138487443Y-81277513D01*
X139147178Y-80719750D01*
X139151386Y-80716350D01*
X139835165Y-80188300D01*
X139839536Y-80185077D01*
X140545989Y-79687799D01*
X140550484Y-79684782D01*
X141278253Y-79219234D01*
X141282869Y-79216423D01*
X142030535Y-78783512D01*
X142035273Y-78780906D01*
X142801364Y-78381486D01*
X142806183Y-78379108D01*
X143589177Y-78013974D01*
X143594142Y-78011791D01*
X144392493Y-77681660D01*
X144397560Y-77679694D01*
X145209761Y-77385190D01*
X145214846Y-77383472D01*
X146039288Y-77125180D01*
X146044513Y-77123669D01*
X146879522Y-76902110D01*
X146884825Y-76900828D01*
X147728806Y-76716423D01*
X147734171Y-76715375D01*
X148585495Y-76568481D01*
X148590841Y-76567680D01*
X149447838Y-76458586D01*
X149453247Y-76458018D01*
X150314237Y-76386938D01*
X150319695Y-76386609D01*
X151182963Y-76353684D01*
X151188378Y-76353597D01*
X152052274Y-76358890D01*
G37*
G04 #@! TD.AperFunction*
M02*
