M48
; DRILL file {KiCad 9.0.0} date 2025-07-07T15:25:06-0400
; FORMAT={-:-/ absolute / metric / decimal}
; #@! TF.CreationDate,2025-07-07T15:25:06-04:00
; #@! TF.GenerationSoftware,Kicad,Pcbnew,9.0.0
; #@! TF.FileFunction,Plated,1,2,PTH
FMAT,2
METRIC
; #@! TA.AperFunction,Plated,PTH,ViaDrill
T1C0.300
; #@! TA.AperFunction,Plated,PTH,ComponentDrill
T2C0.600
; #@! TA.AperFunction,Plated,PTH,ComponentDrill
T3C1.000
; #@! TA.AperFunction,Plated,PTH,ComponentDrill
T4C1.200
%
G90
G05
T1
X130.71Y-88.902
X140.363Y-91.166
T2
X115.0Y-88.5
X115.0Y-90.0
X145.0Y-88.5
X145.0Y-90.0
T3
X119.6Y-101.0
X119.6Y-104.1
X140.4Y-101.0
X140.4Y-104.1
T4
X98.0Y-91.0
X102.32Y-90.96
X108.908Y-114.908
X109.13Y-97.51
X109.13Y-107.67
X116.092Y-122.092
X124.92Y-117.0
X127.91Y-126.5
X132.23Y-126.46
X135.08Y-117.0
X147.408Y-124.592
X154.592Y-117.408
X157.0Y-99.92
X157.0Y-110.08
X157.68Y-91.04
X162.0Y-91.0
M30
