%TF.GenerationSoftware,KiCad,Pcbnew,9.0.0*%
%TF.CreationDate,2025-07-01T14:00:06-04:00*%
%TF.ProjectId,mothers_day_necklace,6d6f7468-6572-4735-9f64-61795f6e6563,A*%
%TF.SameCoordinates,Original*%
%TF.FileFunction,Drillmap*%
%TF.FilePolarity,Positive*%
%FSLAX45Y45*%
G04 Gerber Fmt 4.5, Leading zero omitted, Abs format (unit mm)*
G04 Created by KiCad (PCBNEW 9.0.0) date 2025-07-01 14:00:06*
%MOMM*%
%LPD*%
G01*
G04 APERTURE LIST*
%ADD10C,0.050000*%
%ADD11C,0.200000*%
%ADD12C,0.100000*%
%ADD13C,0.120000*%
%ADD14C,0.500000*%
G04 APERTURE END LIST*
D10*
X9000000Y-10499998D02*
G75*
G02*
X12000000Y-7499998I1500000J1500000D01*
G01*
X12900000Y-14400000D02*
X12900461Y-14400459D01*
X12900921Y-14400915D01*
X12901382Y-14401369D01*
X12901842Y-14401820D01*
X12902303Y-14402268D01*
X12902763Y-14402713D01*
X12903224Y-14403155D01*
X12903685Y-14403595D01*
X12904145Y-14404032D01*
X12904606Y-14404466D01*
X12905066Y-14404897D01*
X12905527Y-14405326D01*
X12905987Y-14405751D01*
X12906448Y-14406175D01*
X12906908Y-14406595D01*
X12907369Y-14407013D01*
X12907830Y-14407428D01*
X12908290Y-14407840D01*
X12908751Y-14408250D01*
X12909211Y-14408657D01*
X12909672Y-14409061D01*
X12910132Y-14409463D01*
X12910593Y-14409862D01*
X12911053Y-14410258D01*
X12911514Y-14410652D01*
X12911975Y-14411043D01*
X12912435Y-14411432D01*
X12912896Y-14411818D01*
X12913356Y-14412201D01*
X12913817Y-14412582D01*
X12914278Y-14412960D01*
X12914738Y-14413335D01*
X12915199Y-14413708D01*
X12915659Y-14414079D01*
X12916120Y-14414447D01*
X12916581Y-14414812D01*
X12917041Y-14415175D01*
X12917502Y-14415535D01*
X12917963Y-14415893D01*
X12918423Y-14416248D01*
X12918884Y-14416601D01*
X12919345Y-14416951D01*
X12919805Y-14417298D01*
X12920266Y-14417644D01*
X12920727Y-14417986D01*
X12921188Y-14418327D01*
X12921649Y-14418664D01*
X12922109Y-14419000D01*
X12922570Y-14419333D01*
X12923031Y-14419663D01*
X12923492Y-14419991D01*
X12923953Y-14420316D01*
X12924414Y-14420640D01*
X12924875Y-14420960D01*
X12925336Y-14421279D01*
X12925797Y-14421594D01*
X12926258Y-14421908D01*
X12926719Y-14422219D01*
X12927180Y-14422528D01*
X12927641Y-14422834D01*
X12928102Y-14423138D01*
X12928563Y-14423439D01*
X12929025Y-14423739D01*
X12929486Y-14424035D01*
X12929947Y-14424330D01*
X12930408Y-14424622D01*
X12930870Y-14424912D01*
X12931331Y-14425199D01*
X12931793Y-14425485D01*
X12932254Y-14425767D01*
X12932716Y-14426048D01*
X12933177Y-14426326D01*
X12933639Y-14426602D01*
X12934101Y-14426876D01*
X12934563Y-14427147D01*
X12935024Y-14427416D01*
X12935486Y-14427683D01*
X12935948Y-14427947D01*
X12936410Y-14428210D01*
X12936872Y-14428470D01*
X12937334Y-14428727D01*
X12937796Y-14428983D01*
X12938259Y-14429236D01*
X12938721Y-14429487D01*
X12939183Y-14429736D01*
X12939645Y-14429982D01*
X12940108Y-14430227D01*
X12940571Y-14430469D01*
X12941496Y-14430946D01*
X12942421Y-14431415D01*
X12943347Y-14431875D01*
X12944274Y-14432326D01*
X12945200Y-14432768D01*
X12946127Y-14433202D01*
X12947055Y-14433627D01*
X12947983Y-14434044D01*
X12948911Y-14434452D01*
X12949839Y-14434851D01*
X12950768Y-14435242D01*
X12951698Y-14435625D01*
X12952628Y-14435999D01*
X12953558Y-14436365D01*
X12954489Y-14436722D01*
X12955421Y-14437071D01*
X12956353Y-14437412D01*
X12957286Y-14437744D01*
X12958219Y-14438068D01*
X12959152Y-14438384D01*
X12960087Y-14438692D01*
X12961022Y-14438991D01*
X12961957Y-14439283D01*
X12962894Y-14439566D01*
X12963831Y-14439841D01*
X12964768Y-14440108D01*
X12965707Y-14440367D01*
X12966646Y-14440617D01*
X12967586Y-14440860D01*
X12968527Y-14441095D01*
X12969468Y-14441322D01*
X12970410Y-14441540D01*
X12971353Y-14441751D01*
X12972297Y-14441954D01*
X12973242Y-14442148D01*
X12974188Y-14442335D01*
X12975135Y-14442514D01*
X12976082Y-14442685D01*
X12977031Y-14442848D01*
X12977980Y-14443003D01*
X12978930Y-14443150D01*
X12979882Y-14443289D01*
X12980834Y-14443420D01*
X12981788Y-14443543D01*
X12982742Y-14443659D01*
X12983698Y-14443766D01*
X12984654Y-14443866D01*
X12985612Y-14443958D01*
X12986571Y-14444042D01*
X12987531Y-14444117D01*
X12988492Y-14444186D01*
X12989454Y-14444246D01*
X12990418Y-14444298D01*
X12991383Y-14444342D01*
X12992349Y-14444378D01*
X12993316Y-14444407D01*
X12994284Y-14444427D01*
X12995254Y-14444440D01*
X12996225Y-14444444D01*
X12997197Y-14444441D01*
X12998171Y-14444430D01*
X12999146Y-14444410D01*
X13000122Y-14444383D01*
X13001100Y-14444347D01*
X13002079Y-14444304D01*
X13003059Y-14444253D01*
X13004041Y-14444193D01*
X13005024Y-14444126D01*
X13006008Y-14444050D01*
X13006994Y-14443966D01*
X13007982Y-14443874D01*
X13008971Y-14443774D01*
X13009961Y-14443666D01*
X13010953Y-14443550D01*
X13011946Y-14443425D01*
X13012940Y-14443292D01*
X13013936Y-14443151D01*
X13014934Y-14443002D01*
X13015933Y-14442845D01*
X13016933Y-14442679D01*
X13017935Y-14442505D01*
X13018939Y-14442322D01*
X13019944Y-14442131D01*
X13020950Y-14441932D01*
X13021958Y-14441724D01*
X13022967Y-14441508D01*
X13023978Y-14441284D01*
X13024990Y-14441051D01*
X13026004Y-14440809D01*
X13027019Y-14440559D01*
X13028035Y-14440301D01*
X13029053Y-14440034D01*
X13030072Y-14439758D01*
X13031093Y-14439473D01*
X13032115Y-14439180D01*
X13033138Y-14438879D01*
X13034163Y-14438568D01*
X13035189Y-14438249D01*
X13036216Y-14437921D01*
X13037244Y-14437585D01*
X13038274Y-14437240D01*
X13039305Y-14436886D01*
X13040337Y-14436523D01*
X13041370Y-14436151D01*
X13042404Y-14435770D01*
X13043439Y-14435381D01*
X13044475Y-14434983D01*
X13045512Y-14434576D01*
X13046550Y-14434159D01*
X13047589Y-14433735D01*
X13048628Y-14433301D01*
X13049668Y-14432858D01*
X13050709Y-14432406D01*
X13051751Y-14431946D01*
X13052793Y-14431476D01*
X13053835Y-14430998D01*
X13054878Y-14430511D01*
X13055920Y-14430015D01*
X13056964Y-14429510D01*
X13058007Y-14428996D01*
X13059050Y-14428473D01*
X13060093Y-14427942D01*
X13061135Y-14427402D01*
X13062177Y-14426853D01*
X13063219Y-14426295D01*
X13064260Y-14425729D01*
X13065300Y-14425155D01*
X13066339Y-14424572D01*
X13067377Y-14423980D01*
X13068413Y-14423380D01*
X13069448Y-14422772D01*
X13070481Y-14422156D01*
X13071512Y-14421531D01*
X13072541Y-14420899D01*
X13073567Y-14420259D01*
X13074591Y-14419612D01*
X13075612Y-14418957D01*
X13076629Y-14418295D01*
X13077642Y-14417626D01*
X13078651Y-14416950D01*
X13079656Y-14416268D01*
X13080656Y-14415580D01*
X13081651Y-14414886D01*
X13082639Y-14414186D01*
X13083622Y-14413481D01*
X13084597Y-14412772D01*
X13085564Y-14412059D01*
X13086523Y-14411342D01*
X13087473Y-14410622D01*
X13088412Y-14409901D01*
X13089341Y-14409178D01*
X13090256Y-14408455D01*
X13091159Y-14407733D01*
X13092046Y-14407013D01*
X13092916Y-14406297D01*
X13093767Y-14405587D01*
X13094597Y-14404884D01*
X13095403Y-14404192D01*
X13096181Y-14403514D01*
X13096927Y-14402855D01*
X13097634Y-14402219D01*
X13098295Y-14401616D01*
X13098897Y-14401057D01*
X13099421Y-14400562D01*
X13099827Y-14400170D01*
X13100000Y-14400000D01*
X12000000Y-7499998D02*
G75*
G02*
X14000000Y-7499998I1000000J0D01*
G01*
X13100000Y-14400000D02*
X17000000Y-10499998D01*
X9000000Y-10499998D02*
X12900000Y-14400000D01*
X14000000Y-7499998D02*
G75*
G02*
X17000000Y-10499998I1500000J-1500000D01*
G01*
X9240000Y-9976000D02*
X9511000Y-9976000D01*
X9511000Y-9323000D01*
X9240000Y-9323000D01*
X9240000Y-9976000D01*
X13393000Y-11385000D02*
X12740000Y-11385000D01*
X12740000Y-11114000D01*
X13393000Y-11114000D01*
X13393000Y-11385000D01*
X10792473Y-11325140D02*
X10600847Y-11516766D01*
X10139106Y-11055025D01*
X10330732Y-10863399D01*
X10792473Y-11325140D01*
X16490000Y-10018000D02*
X16761000Y-10018000D01*
X16761000Y-9365000D01*
X16490000Y-9365000D01*
X16490000Y-10018000D01*
X15852391Y-11064942D02*
X15390650Y-11526683D01*
X15199024Y-11335057D01*
X15660765Y-10873316D01*
X15852391Y-11064942D01*
D11*
D12*
X9698440Y-8687380D02*
X9728440Y-8717380D01*
X9728440Y-8687380D02*
X9698440Y-8717380D01*
X12685110Y-7776270D02*
X12715110Y-7806270D01*
X12715110Y-7776270D02*
X12685110Y-7806270D01*
X13289110Y-7872480D02*
X13319110Y-7902480D01*
X13319110Y-7872480D02*
X13289110Y-7902480D01*
X13881360Y-7742070D02*
X13911360Y-7772070D01*
X13911360Y-7742070D02*
X13881360Y-7772070D01*
X14478920Y-7741910D02*
X14508920Y-7771910D01*
X14508920Y-7741910D02*
X14478920Y-7771910D01*
X11249250Y-8725000D02*
G75*
G02*
X11149250Y-8725000I-50000J0D01*
G01*
X11149250Y-8725000D02*
G75*
G02*
X11249250Y-8725000I50000J0D01*
G01*
X11249250Y-10225000D02*
G75*
G02*
X11149250Y-10225000I-50000J0D01*
G01*
X11149250Y-10225000D02*
G75*
G02*
X11249250Y-10225000I50000J0D01*
G01*
X12020000Y-9365000D02*
G75*
G02*
X11920000Y-9365000I-50000J0D01*
G01*
X11920000Y-9365000D02*
G75*
G02*
X12020000Y-9365000I50000J0D01*
G01*
X12020000Y-9675000D02*
G75*
G02*
X11920000Y-9675000I-50000J0D01*
G01*
X11920000Y-9675000D02*
G75*
G02*
X12020000Y-9675000I50000J0D01*
G01*
X14100000Y-9365000D02*
G75*
G02*
X14000000Y-9365000I-50000J0D01*
G01*
X14000000Y-9365000D02*
G75*
G02*
X14100000Y-9365000I50000J0D01*
G01*
X14100000Y-9675000D02*
G75*
G02*
X14000000Y-9675000I-50000J0D01*
G01*
X14000000Y-9675000D02*
G75*
G02*
X14100000Y-9675000I50000J0D01*
G01*
X14875000Y-8725000D02*
G75*
G02*
X14775000Y-8725000I-50000J0D01*
G01*
X14775000Y-8725000D02*
G75*
G02*
X14875000Y-8725000I50000J0D01*
G01*
X14875000Y-10225000D02*
G75*
G02*
X14775000Y-10225000I-50000J0D01*
G01*
X14775000Y-10225000D02*
G75*
G02*
X14875000Y-10225000I50000J0D01*
G01*
D13*
X9375000Y-9082000D02*
X9375000Y-9202000D01*
X9315000Y-9142000D02*
X9435000Y-9142000D01*
X9375000Y-10098000D02*
X9375000Y-10218000D01*
X9315000Y-10158000D02*
X9435000Y-10158000D01*
X9650000Y-7948000D02*
X9650000Y-8068000D01*
X9590000Y-8008000D02*
X9710000Y-8008000D01*
X10082000Y-7944000D02*
X10082000Y-8064000D01*
X10022000Y-8004000D02*
X10142000Y-8004000D01*
X10106580Y-10771580D02*
X10106580Y-10891580D01*
X10046580Y-10831580D02*
X10166580Y-10831580D01*
X10825000Y-11490000D02*
X10825000Y-11610000D01*
X10765000Y-11550000D02*
X10885000Y-11550000D01*
X12559000Y-11190000D02*
X12559000Y-11310000D01*
X12499000Y-11250000D02*
X12619000Y-11250000D01*
X12791000Y-12415000D02*
X12791000Y-12535000D01*
X12731000Y-12475000D02*
X12851000Y-12475000D01*
X13223000Y-12411000D02*
X13223000Y-12531000D01*
X13163000Y-12471000D02*
X13283000Y-12471000D01*
X13575000Y-11190000D02*
X13575000Y-11310000D01*
X13515000Y-11250000D02*
X13635000Y-11250000D01*
X15165790Y-11499210D02*
X15165790Y-11619210D01*
X15105790Y-11559210D02*
X15225790Y-11559210D01*
X15884210Y-10780790D02*
X15884210Y-10900790D01*
X15824210Y-10840790D02*
X15944210Y-10840790D01*
X15918000Y-7944000D02*
X15918000Y-8064000D01*
X15858000Y-8004000D02*
X15978000Y-8004000D01*
X16350000Y-7940000D02*
X16350000Y-8060000D01*
X16290000Y-8000000D02*
X16410000Y-8000000D01*
X16625000Y-9124000D02*
X16625000Y-9244000D01*
X16565000Y-9184000D02*
X16685000Y-9184000D01*
X16625000Y-10140000D02*
X16625000Y-10260000D01*
X16565000Y-10200000D02*
X16685000Y-10200000D01*
D14*
X13176778Y-7001778D02*
X13176778Y-6648222D01*
X12823222Y-6648222D01*
X12823222Y-7001778D01*
X13176778Y-7001778D01*
D11*
X8636957Y-14758245D02*
X8636957Y-14558245D01*
X8636957Y-14558245D02*
X8684576Y-14558245D01*
X8684576Y-14558245D02*
X8713147Y-14567769D01*
X8713147Y-14567769D02*
X8732195Y-14586816D01*
X8732195Y-14586816D02*
X8741718Y-14605864D01*
X8741718Y-14605864D02*
X8751242Y-14643959D01*
X8751242Y-14643959D02*
X8751242Y-14672531D01*
X8751242Y-14672531D02*
X8741718Y-14710626D01*
X8741718Y-14710626D02*
X8732195Y-14729674D01*
X8732195Y-14729674D02*
X8713147Y-14748721D01*
X8713147Y-14748721D02*
X8684576Y-14758245D01*
X8684576Y-14758245D02*
X8636957Y-14758245D01*
X8836957Y-14758245D02*
X8836957Y-14624912D01*
X8836957Y-14663007D02*
X8846480Y-14643959D01*
X8846480Y-14643959D02*
X8856004Y-14634435D01*
X8856004Y-14634435D02*
X8875052Y-14624912D01*
X8875052Y-14624912D02*
X8894099Y-14624912D01*
X8960766Y-14758245D02*
X8960766Y-14624912D01*
X8960766Y-14558245D02*
X8951242Y-14567769D01*
X8951242Y-14567769D02*
X8960766Y-14577293D01*
X8960766Y-14577293D02*
X8970290Y-14567769D01*
X8970290Y-14567769D02*
X8960766Y-14558245D01*
X8960766Y-14558245D02*
X8960766Y-14577293D01*
X9084576Y-14758245D02*
X9065528Y-14748721D01*
X9065528Y-14748721D02*
X9056004Y-14729674D01*
X9056004Y-14729674D02*
X9056004Y-14558245D01*
X9189337Y-14758245D02*
X9170290Y-14748721D01*
X9170290Y-14748721D02*
X9160766Y-14729674D01*
X9160766Y-14729674D02*
X9160766Y-14558245D01*
X9417909Y-14758245D02*
X9417909Y-14558245D01*
X9417909Y-14558245D02*
X9484576Y-14701102D01*
X9484576Y-14701102D02*
X9551242Y-14558245D01*
X9551242Y-14558245D02*
X9551242Y-14758245D01*
X9732195Y-14758245D02*
X9732195Y-14653483D01*
X9732195Y-14653483D02*
X9722671Y-14634435D01*
X9722671Y-14634435D02*
X9703623Y-14624912D01*
X9703623Y-14624912D02*
X9665528Y-14624912D01*
X9665528Y-14624912D02*
X9646480Y-14634435D01*
X9732195Y-14748721D02*
X9713147Y-14758245D01*
X9713147Y-14758245D02*
X9665528Y-14758245D01*
X9665528Y-14758245D02*
X9646480Y-14748721D01*
X9646480Y-14748721D02*
X9636957Y-14729674D01*
X9636957Y-14729674D02*
X9636957Y-14710626D01*
X9636957Y-14710626D02*
X9646480Y-14691578D01*
X9646480Y-14691578D02*
X9665528Y-14682055D01*
X9665528Y-14682055D02*
X9713147Y-14682055D01*
X9713147Y-14682055D02*
X9732195Y-14672531D01*
X9827433Y-14624912D02*
X9827433Y-14824912D01*
X9827433Y-14634435D02*
X9846480Y-14624912D01*
X9846480Y-14624912D02*
X9884576Y-14624912D01*
X9884576Y-14624912D02*
X9903623Y-14634435D01*
X9903623Y-14634435D02*
X9913147Y-14643959D01*
X9913147Y-14643959D02*
X9922671Y-14663007D01*
X9922671Y-14663007D02*
X9922671Y-14720150D01*
X9922671Y-14720150D02*
X9913147Y-14739197D01*
X9913147Y-14739197D02*
X9903623Y-14748721D01*
X9903623Y-14748721D02*
X9884576Y-14758245D01*
X9884576Y-14758245D02*
X9846480Y-14758245D01*
X9846480Y-14758245D02*
X9827433Y-14748721D01*
X10008385Y-14739197D02*
X10017909Y-14748721D01*
X10017909Y-14748721D02*
X10008385Y-14758245D01*
X10008385Y-14758245D02*
X9998861Y-14748721D01*
X9998861Y-14748721D02*
X10008385Y-14739197D01*
X10008385Y-14739197D02*
X10008385Y-14758245D01*
X10008385Y-14634435D02*
X10017909Y-14643959D01*
X10017909Y-14643959D02*
X10008385Y-14653483D01*
X10008385Y-14653483D02*
X9998861Y-14643959D01*
X9998861Y-14643959D02*
X10008385Y-14634435D01*
X10008385Y-14634435D02*
X10008385Y-14653483D01*
D12*
X8346180Y-15071761D02*
X8376180Y-15101761D01*
X8376180Y-15071761D02*
X8346180Y-15101761D01*
D11*
X8675052Y-14978245D02*
X8694099Y-14978245D01*
X8694099Y-14978245D02*
X8713147Y-14987769D01*
X8713147Y-14987769D02*
X8722671Y-14997293D01*
X8722671Y-14997293D02*
X8732195Y-15016340D01*
X8732195Y-15016340D02*
X8741718Y-15054435D01*
X8741718Y-15054435D02*
X8741718Y-15102055D01*
X8741718Y-15102055D02*
X8732195Y-15140150D01*
X8732195Y-15140150D02*
X8722671Y-15159197D01*
X8722671Y-15159197D02*
X8713147Y-15168721D01*
X8713147Y-15168721D02*
X8694099Y-15178245D01*
X8694099Y-15178245D02*
X8675052Y-15178245D01*
X8675052Y-15178245D02*
X8656004Y-15168721D01*
X8656004Y-15168721D02*
X8646480Y-15159197D01*
X8646480Y-15159197D02*
X8636957Y-15140150D01*
X8636957Y-15140150D02*
X8627433Y-15102055D01*
X8627433Y-15102055D02*
X8627433Y-15054435D01*
X8627433Y-15054435D02*
X8636957Y-15016340D01*
X8636957Y-15016340D02*
X8646480Y-14997293D01*
X8646480Y-14997293D02*
X8656004Y-14987769D01*
X8656004Y-14987769D02*
X8675052Y-14978245D01*
X8827433Y-15159197D02*
X8836957Y-15168721D01*
X8836957Y-15168721D02*
X8827433Y-15178245D01*
X8827433Y-15178245D02*
X8817909Y-15168721D01*
X8817909Y-15168721D02*
X8827433Y-15159197D01*
X8827433Y-15159197D02*
X8827433Y-15178245D01*
X8903623Y-14978245D02*
X9027433Y-14978245D01*
X9027433Y-14978245D02*
X8960766Y-15054435D01*
X8960766Y-15054435D02*
X8989338Y-15054435D01*
X8989338Y-15054435D02*
X9008385Y-15063959D01*
X9008385Y-15063959D02*
X9017909Y-15073483D01*
X9017909Y-15073483D02*
X9027433Y-15092531D01*
X9027433Y-15092531D02*
X9027433Y-15140150D01*
X9027433Y-15140150D02*
X9017909Y-15159197D01*
X9017909Y-15159197D02*
X9008385Y-15168721D01*
X9008385Y-15168721D02*
X8989338Y-15178245D01*
X8989338Y-15178245D02*
X8932195Y-15178245D01*
X8932195Y-15178245D02*
X8913147Y-15168721D01*
X8913147Y-15168721D02*
X8903623Y-15159197D01*
X9151242Y-14978245D02*
X9170290Y-14978245D01*
X9170290Y-14978245D02*
X9189338Y-14987769D01*
X9189338Y-14987769D02*
X9198861Y-14997293D01*
X9198861Y-14997293D02*
X9208385Y-15016340D01*
X9208385Y-15016340D02*
X9217909Y-15054435D01*
X9217909Y-15054435D02*
X9217909Y-15102055D01*
X9217909Y-15102055D02*
X9208385Y-15140150D01*
X9208385Y-15140150D02*
X9198861Y-15159197D01*
X9198861Y-15159197D02*
X9189338Y-15168721D01*
X9189338Y-15168721D02*
X9170290Y-15178245D01*
X9170290Y-15178245D02*
X9151242Y-15178245D01*
X9151242Y-15178245D02*
X9132195Y-15168721D01*
X9132195Y-15168721D02*
X9122671Y-15159197D01*
X9122671Y-15159197D02*
X9113147Y-15140150D01*
X9113147Y-15140150D02*
X9103623Y-15102055D01*
X9103623Y-15102055D02*
X9103623Y-15054435D01*
X9103623Y-15054435D02*
X9113147Y-15016340D01*
X9113147Y-15016340D02*
X9122671Y-14997293D01*
X9122671Y-14997293D02*
X9132195Y-14987769D01*
X9132195Y-14987769D02*
X9151242Y-14978245D01*
X9341718Y-14978245D02*
X9360766Y-14978245D01*
X9360766Y-14978245D02*
X9379814Y-14987769D01*
X9379814Y-14987769D02*
X9389338Y-14997293D01*
X9389338Y-14997293D02*
X9398861Y-15016340D01*
X9398861Y-15016340D02*
X9408385Y-15054435D01*
X9408385Y-15054435D02*
X9408385Y-15102055D01*
X9408385Y-15102055D02*
X9398861Y-15140150D01*
X9398861Y-15140150D02*
X9389338Y-15159197D01*
X9389338Y-15159197D02*
X9379814Y-15168721D01*
X9379814Y-15168721D02*
X9360766Y-15178245D01*
X9360766Y-15178245D02*
X9341718Y-15178245D01*
X9341718Y-15178245D02*
X9322671Y-15168721D01*
X9322671Y-15168721D02*
X9313147Y-15159197D01*
X9313147Y-15159197D02*
X9303623Y-15140150D01*
X9303623Y-15140150D02*
X9294099Y-15102055D01*
X9294099Y-15102055D02*
X9294099Y-15054435D01*
X9294099Y-15054435D02*
X9303623Y-15016340D01*
X9303623Y-15016340D02*
X9313147Y-14997293D01*
X9313147Y-14997293D02*
X9322671Y-14987769D01*
X9322671Y-14987769D02*
X9341718Y-14978245D01*
X9494099Y-15178245D02*
X9494099Y-15044912D01*
X9494099Y-15063959D02*
X9503623Y-15054435D01*
X9503623Y-15054435D02*
X9522671Y-15044912D01*
X9522671Y-15044912D02*
X9551242Y-15044912D01*
X9551242Y-15044912D02*
X9570290Y-15054435D01*
X9570290Y-15054435D02*
X9579814Y-15073483D01*
X9579814Y-15073483D02*
X9579814Y-15178245D01*
X9579814Y-15073483D02*
X9589338Y-15054435D01*
X9589338Y-15054435D02*
X9608385Y-15044912D01*
X9608385Y-15044912D02*
X9636957Y-15044912D01*
X9636957Y-15044912D02*
X9656004Y-15054435D01*
X9656004Y-15054435D02*
X9665528Y-15073483D01*
X9665528Y-15073483D02*
X9665528Y-15178245D01*
X9760766Y-15178245D02*
X9760766Y-15044912D01*
X9760766Y-15063959D02*
X9770290Y-15054435D01*
X9770290Y-15054435D02*
X9789338Y-15044912D01*
X9789338Y-15044912D02*
X9817909Y-15044912D01*
X9817909Y-15044912D02*
X9836957Y-15054435D01*
X9836957Y-15054435D02*
X9846480Y-15073483D01*
X9846480Y-15073483D02*
X9846480Y-15178245D01*
X9846480Y-15073483D02*
X9856004Y-15054435D01*
X9856004Y-15054435D02*
X9875052Y-15044912D01*
X9875052Y-15044912D02*
X9903623Y-15044912D01*
X9903623Y-15044912D02*
X9922671Y-15054435D01*
X9922671Y-15054435D02*
X9932195Y-15073483D01*
X9932195Y-15073483D02*
X9932195Y-15178245D01*
X10322671Y-14968721D02*
X10151242Y-15225864D01*
X10579814Y-14978245D02*
X10598862Y-14978245D01*
X10598862Y-14978245D02*
X10617909Y-14987769D01*
X10617909Y-14987769D02*
X10627433Y-14997293D01*
X10627433Y-14997293D02*
X10636957Y-15016340D01*
X10636957Y-15016340D02*
X10646481Y-15054435D01*
X10646481Y-15054435D02*
X10646481Y-15102055D01*
X10646481Y-15102055D02*
X10636957Y-15140150D01*
X10636957Y-15140150D02*
X10627433Y-15159197D01*
X10627433Y-15159197D02*
X10617909Y-15168721D01*
X10617909Y-15168721D02*
X10598862Y-15178245D01*
X10598862Y-15178245D02*
X10579814Y-15178245D01*
X10579814Y-15178245D02*
X10560766Y-15168721D01*
X10560766Y-15168721D02*
X10551242Y-15159197D01*
X10551242Y-15159197D02*
X10541719Y-15140150D01*
X10541719Y-15140150D02*
X10532195Y-15102055D01*
X10532195Y-15102055D02*
X10532195Y-15054435D01*
X10532195Y-15054435D02*
X10541719Y-15016340D01*
X10541719Y-15016340D02*
X10551242Y-14997293D01*
X10551242Y-14997293D02*
X10560766Y-14987769D01*
X10560766Y-14987769D02*
X10579814Y-14978245D01*
X10732195Y-15159197D02*
X10741719Y-15168721D01*
X10741719Y-15168721D02*
X10732195Y-15178245D01*
X10732195Y-15178245D02*
X10722671Y-15168721D01*
X10722671Y-15168721D02*
X10732195Y-15159197D01*
X10732195Y-15159197D02*
X10732195Y-15178245D01*
X10865528Y-14978245D02*
X10884576Y-14978245D01*
X10884576Y-14978245D02*
X10903623Y-14987769D01*
X10903623Y-14987769D02*
X10913147Y-14997293D01*
X10913147Y-14997293D02*
X10922671Y-15016340D01*
X10922671Y-15016340D02*
X10932195Y-15054435D01*
X10932195Y-15054435D02*
X10932195Y-15102055D01*
X10932195Y-15102055D02*
X10922671Y-15140150D01*
X10922671Y-15140150D02*
X10913147Y-15159197D01*
X10913147Y-15159197D02*
X10903623Y-15168721D01*
X10903623Y-15168721D02*
X10884576Y-15178245D01*
X10884576Y-15178245D02*
X10865528Y-15178245D01*
X10865528Y-15178245D02*
X10846481Y-15168721D01*
X10846481Y-15168721D02*
X10836957Y-15159197D01*
X10836957Y-15159197D02*
X10827433Y-15140150D01*
X10827433Y-15140150D02*
X10817909Y-15102055D01*
X10817909Y-15102055D02*
X10817909Y-15054435D01*
X10817909Y-15054435D02*
X10827433Y-15016340D01*
X10827433Y-15016340D02*
X10836957Y-14997293D01*
X10836957Y-14997293D02*
X10846481Y-14987769D01*
X10846481Y-14987769D02*
X10865528Y-14978245D01*
X11122671Y-15178245D02*
X11008385Y-15178245D01*
X11065528Y-15178245D02*
X11065528Y-14978245D01*
X11065528Y-14978245D02*
X11046481Y-15006816D01*
X11046481Y-15006816D02*
X11027433Y-15025864D01*
X11027433Y-15025864D02*
X11008385Y-15035388D01*
X11313147Y-15178245D02*
X11198861Y-15178245D01*
X11256004Y-15178245D02*
X11256004Y-14978245D01*
X11256004Y-14978245D02*
X11236957Y-15006816D01*
X11236957Y-15006816D02*
X11217909Y-15025864D01*
X11217909Y-15025864D02*
X11198861Y-15035388D01*
X11427433Y-15063959D02*
X11408385Y-15054435D01*
X11408385Y-15054435D02*
X11398861Y-15044912D01*
X11398861Y-15044912D02*
X11389338Y-15025864D01*
X11389338Y-15025864D02*
X11389338Y-15016340D01*
X11389338Y-15016340D02*
X11398861Y-14997293D01*
X11398861Y-14997293D02*
X11408385Y-14987769D01*
X11408385Y-14987769D02*
X11427433Y-14978245D01*
X11427433Y-14978245D02*
X11465528Y-14978245D01*
X11465528Y-14978245D02*
X11484576Y-14987769D01*
X11484576Y-14987769D02*
X11494100Y-14997293D01*
X11494100Y-14997293D02*
X11503623Y-15016340D01*
X11503623Y-15016340D02*
X11503623Y-15025864D01*
X11503623Y-15025864D02*
X11494100Y-15044912D01*
X11494100Y-15044912D02*
X11484576Y-15054435D01*
X11484576Y-15054435D02*
X11465528Y-15063959D01*
X11465528Y-15063959D02*
X11427433Y-15063959D01*
X11427433Y-15063959D02*
X11408385Y-15073483D01*
X11408385Y-15073483D02*
X11398861Y-15083007D01*
X11398861Y-15083007D02*
X11389338Y-15102055D01*
X11389338Y-15102055D02*
X11389338Y-15140150D01*
X11389338Y-15140150D02*
X11398861Y-15159197D01*
X11398861Y-15159197D02*
X11408385Y-15168721D01*
X11408385Y-15168721D02*
X11427433Y-15178245D01*
X11427433Y-15178245D02*
X11465528Y-15178245D01*
X11465528Y-15178245D02*
X11484576Y-15168721D01*
X11484576Y-15168721D02*
X11494100Y-15159197D01*
X11494100Y-15159197D02*
X11503623Y-15140150D01*
X11503623Y-15140150D02*
X11503623Y-15102055D01*
X11503623Y-15102055D02*
X11494100Y-15083007D01*
X11494100Y-15083007D02*
X11484576Y-15073483D01*
X11484576Y-15073483D02*
X11465528Y-15063959D01*
X11579814Y-14978245D02*
X11579814Y-15016340D01*
X11656004Y-14978245D02*
X11656004Y-15016340D01*
X11951243Y-15254435D02*
X11941719Y-15244912D01*
X11941719Y-15244912D02*
X11922671Y-15216340D01*
X11922671Y-15216340D02*
X11913147Y-15197293D01*
X11913147Y-15197293D02*
X11903623Y-15168721D01*
X11903623Y-15168721D02*
X11894100Y-15121102D01*
X11894100Y-15121102D02*
X11894100Y-15083007D01*
X11894100Y-15083007D02*
X11903623Y-15035388D01*
X11903623Y-15035388D02*
X11913147Y-15006816D01*
X11913147Y-15006816D02*
X11922671Y-14987769D01*
X11922671Y-14987769D02*
X11941719Y-14959197D01*
X11941719Y-14959197D02*
X11951243Y-14949674D01*
X12122671Y-14978245D02*
X12027433Y-14978245D01*
X12027433Y-14978245D02*
X12017909Y-15073483D01*
X12017909Y-15073483D02*
X12027433Y-15063959D01*
X12027433Y-15063959D02*
X12046481Y-15054435D01*
X12046481Y-15054435D02*
X12094100Y-15054435D01*
X12094100Y-15054435D02*
X12113147Y-15063959D01*
X12113147Y-15063959D02*
X12122671Y-15073483D01*
X12122671Y-15073483D02*
X12132195Y-15092531D01*
X12132195Y-15092531D02*
X12132195Y-15140150D01*
X12132195Y-15140150D02*
X12122671Y-15159197D01*
X12122671Y-15159197D02*
X12113147Y-15168721D01*
X12113147Y-15168721D02*
X12094100Y-15178245D01*
X12094100Y-15178245D02*
X12046481Y-15178245D01*
X12046481Y-15178245D02*
X12027433Y-15168721D01*
X12027433Y-15168721D02*
X12017909Y-15159197D01*
X12370290Y-15178245D02*
X12370290Y-14978245D01*
X12456004Y-15178245D02*
X12456004Y-15073483D01*
X12456004Y-15073483D02*
X12446481Y-15054435D01*
X12446481Y-15054435D02*
X12427433Y-15044912D01*
X12427433Y-15044912D02*
X12398862Y-15044912D01*
X12398862Y-15044912D02*
X12379814Y-15054435D01*
X12379814Y-15054435D02*
X12370290Y-15063959D01*
X12579814Y-15178245D02*
X12560766Y-15168721D01*
X12560766Y-15168721D02*
X12551243Y-15159197D01*
X12551243Y-15159197D02*
X12541719Y-15140150D01*
X12541719Y-15140150D02*
X12541719Y-15083007D01*
X12541719Y-15083007D02*
X12551243Y-15063959D01*
X12551243Y-15063959D02*
X12560766Y-15054435D01*
X12560766Y-15054435D02*
X12579814Y-15044912D01*
X12579814Y-15044912D02*
X12608385Y-15044912D01*
X12608385Y-15044912D02*
X12627433Y-15054435D01*
X12627433Y-15054435D02*
X12636957Y-15063959D01*
X12636957Y-15063959D02*
X12646481Y-15083007D01*
X12646481Y-15083007D02*
X12646481Y-15140150D01*
X12646481Y-15140150D02*
X12636957Y-15159197D01*
X12636957Y-15159197D02*
X12627433Y-15168721D01*
X12627433Y-15168721D02*
X12608385Y-15178245D01*
X12608385Y-15178245D02*
X12579814Y-15178245D01*
X12760766Y-15178245D02*
X12741719Y-15168721D01*
X12741719Y-15168721D02*
X12732195Y-15149674D01*
X12732195Y-15149674D02*
X12732195Y-14978245D01*
X12913147Y-15168721D02*
X12894100Y-15178245D01*
X12894100Y-15178245D02*
X12856004Y-15178245D01*
X12856004Y-15178245D02*
X12836957Y-15168721D01*
X12836957Y-15168721D02*
X12827433Y-15149674D01*
X12827433Y-15149674D02*
X12827433Y-15073483D01*
X12827433Y-15073483D02*
X12836957Y-15054435D01*
X12836957Y-15054435D02*
X12856004Y-15044912D01*
X12856004Y-15044912D02*
X12894100Y-15044912D01*
X12894100Y-15044912D02*
X12913147Y-15054435D01*
X12913147Y-15054435D02*
X12922671Y-15073483D01*
X12922671Y-15073483D02*
X12922671Y-15092531D01*
X12922671Y-15092531D02*
X12827433Y-15111578D01*
X12998862Y-15168721D02*
X13017909Y-15178245D01*
X13017909Y-15178245D02*
X13056004Y-15178245D01*
X13056004Y-15178245D02*
X13075052Y-15168721D01*
X13075052Y-15168721D02*
X13084576Y-15149674D01*
X13084576Y-15149674D02*
X13084576Y-15140150D01*
X13084576Y-15140150D02*
X13075052Y-15121102D01*
X13075052Y-15121102D02*
X13056004Y-15111578D01*
X13056004Y-15111578D02*
X13027433Y-15111578D01*
X13027433Y-15111578D02*
X13008385Y-15102055D01*
X13008385Y-15102055D02*
X12998862Y-15083007D01*
X12998862Y-15083007D02*
X12998862Y-15073483D01*
X12998862Y-15073483D02*
X13008385Y-15054435D01*
X13008385Y-15054435D02*
X13027433Y-15044912D01*
X13027433Y-15044912D02*
X13056004Y-15044912D01*
X13056004Y-15044912D02*
X13075052Y-15054435D01*
X13151243Y-15254435D02*
X13160766Y-15244912D01*
X13160766Y-15244912D02*
X13179814Y-15216340D01*
X13179814Y-15216340D02*
X13189338Y-15197293D01*
X13189338Y-15197293D02*
X13198862Y-15168721D01*
X13198862Y-15168721D02*
X13208385Y-15121102D01*
X13208385Y-15121102D02*
X13208385Y-15083007D01*
X13208385Y-15083007D02*
X13198862Y-15035388D01*
X13198862Y-15035388D02*
X13189338Y-15006816D01*
X13189338Y-15006816D02*
X13179814Y-14987769D01*
X13179814Y-14987769D02*
X13160766Y-14959197D01*
X13160766Y-14959197D02*
X13151243Y-14949674D01*
D12*
X8376180Y-15350761D02*
G75*
G02*
X8276180Y-15350761I-50000J0D01*
G01*
X8276180Y-15350761D02*
G75*
G02*
X8376180Y-15350761I50000J0D01*
G01*
D11*
X8741718Y-15442245D02*
X8627433Y-15442245D01*
X8684576Y-15442245D02*
X8684576Y-15242245D01*
X8684576Y-15242245D02*
X8665528Y-15270816D01*
X8665528Y-15270816D02*
X8646480Y-15289864D01*
X8646480Y-15289864D02*
X8627433Y-15299388D01*
X8827433Y-15423197D02*
X8836957Y-15432721D01*
X8836957Y-15432721D02*
X8827433Y-15442245D01*
X8827433Y-15442245D02*
X8817909Y-15432721D01*
X8817909Y-15432721D02*
X8827433Y-15423197D01*
X8827433Y-15423197D02*
X8827433Y-15442245D01*
X8960766Y-15242245D02*
X8979814Y-15242245D01*
X8979814Y-15242245D02*
X8998861Y-15251769D01*
X8998861Y-15251769D02*
X9008385Y-15261293D01*
X9008385Y-15261293D02*
X9017909Y-15280340D01*
X9017909Y-15280340D02*
X9027433Y-15318435D01*
X9027433Y-15318435D02*
X9027433Y-15366055D01*
X9027433Y-15366055D02*
X9017909Y-15404150D01*
X9017909Y-15404150D02*
X9008385Y-15423197D01*
X9008385Y-15423197D02*
X8998861Y-15432721D01*
X8998861Y-15432721D02*
X8979814Y-15442245D01*
X8979814Y-15442245D02*
X8960766Y-15442245D01*
X8960766Y-15442245D02*
X8941718Y-15432721D01*
X8941718Y-15432721D02*
X8932195Y-15423197D01*
X8932195Y-15423197D02*
X8922671Y-15404150D01*
X8922671Y-15404150D02*
X8913147Y-15366055D01*
X8913147Y-15366055D02*
X8913147Y-15318435D01*
X8913147Y-15318435D02*
X8922671Y-15280340D01*
X8922671Y-15280340D02*
X8932195Y-15261293D01*
X8932195Y-15261293D02*
X8941718Y-15251769D01*
X8941718Y-15251769D02*
X8960766Y-15242245D01*
X9151242Y-15242245D02*
X9170290Y-15242245D01*
X9170290Y-15242245D02*
X9189338Y-15251769D01*
X9189338Y-15251769D02*
X9198861Y-15261293D01*
X9198861Y-15261293D02*
X9208385Y-15280340D01*
X9208385Y-15280340D02*
X9217909Y-15318435D01*
X9217909Y-15318435D02*
X9217909Y-15366055D01*
X9217909Y-15366055D02*
X9208385Y-15404150D01*
X9208385Y-15404150D02*
X9198861Y-15423197D01*
X9198861Y-15423197D02*
X9189338Y-15432721D01*
X9189338Y-15432721D02*
X9170290Y-15442245D01*
X9170290Y-15442245D02*
X9151242Y-15442245D01*
X9151242Y-15442245D02*
X9132195Y-15432721D01*
X9132195Y-15432721D02*
X9122671Y-15423197D01*
X9122671Y-15423197D02*
X9113147Y-15404150D01*
X9113147Y-15404150D02*
X9103623Y-15366055D01*
X9103623Y-15366055D02*
X9103623Y-15318435D01*
X9103623Y-15318435D02*
X9113147Y-15280340D01*
X9113147Y-15280340D02*
X9122671Y-15261293D01*
X9122671Y-15261293D02*
X9132195Y-15251769D01*
X9132195Y-15251769D02*
X9151242Y-15242245D01*
X9341718Y-15242245D02*
X9360766Y-15242245D01*
X9360766Y-15242245D02*
X9379814Y-15251769D01*
X9379814Y-15251769D02*
X9389338Y-15261293D01*
X9389338Y-15261293D02*
X9398861Y-15280340D01*
X9398861Y-15280340D02*
X9408385Y-15318435D01*
X9408385Y-15318435D02*
X9408385Y-15366055D01*
X9408385Y-15366055D02*
X9398861Y-15404150D01*
X9398861Y-15404150D02*
X9389338Y-15423197D01*
X9389338Y-15423197D02*
X9379814Y-15432721D01*
X9379814Y-15432721D02*
X9360766Y-15442245D01*
X9360766Y-15442245D02*
X9341718Y-15442245D01*
X9341718Y-15442245D02*
X9322671Y-15432721D01*
X9322671Y-15432721D02*
X9313147Y-15423197D01*
X9313147Y-15423197D02*
X9303623Y-15404150D01*
X9303623Y-15404150D02*
X9294099Y-15366055D01*
X9294099Y-15366055D02*
X9294099Y-15318435D01*
X9294099Y-15318435D02*
X9303623Y-15280340D01*
X9303623Y-15280340D02*
X9313147Y-15261293D01*
X9313147Y-15261293D02*
X9322671Y-15251769D01*
X9322671Y-15251769D02*
X9341718Y-15242245D01*
X9494099Y-15442245D02*
X9494099Y-15308912D01*
X9494099Y-15327959D02*
X9503623Y-15318435D01*
X9503623Y-15318435D02*
X9522671Y-15308912D01*
X9522671Y-15308912D02*
X9551242Y-15308912D01*
X9551242Y-15308912D02*
X9570290Y-15318435D01*
X9570290Y-15318435D02*
X9579814Y-15337483D01*
X9579814Y-15337483D02*
X9579814Y-15442245D01*
X9579814Y-15337483D02*
X9589338Y-15318435D01*
X9589338Y-15318435D02*
X9608385Y-15308912D01*
X9608385Y-15308912D02*
X9636957Y-15308912D01*
X9636957Y-15308912D02*
X9656004Y-15318435D01*
X9656004Y-15318435D02*
X9665528Y-15337483D01*
X9665528Y-15337483D02*
X9665528Y-15442245D01*
X9760766Y-15442245D02*
X9760766Y-15308912D01*
X9760766Y-15327959D02*
X9770290Y-15318435D01*
X9770290Y-15318435D02*
X9789338Y-15308912D01*
X9789338Y-15308912D02*
X9817909Y-15308912D01*
X9817909Y-15308912D02*
X9836957Y-15318435D01*
X9836957Y-15318435D02*
X9846480Y-15337483D01*
X9846480Y-15337483D02*
X9846480Y-15442245D01*
X9846480Y-15337483D02*
X9856004Y-15318435D01*
X9856004Y-15318435D02*
X9875052Y-15308912D01*
X9875052Y-15308912D02*
X9903623Y-15308912D01*
X9903623Y-15308912D02*
X9922671Y-15318435D01*
X9922671Y-15318435D02*
X9932195Y-15337483D01*
X9932195Y-15337483D02*
X9932195Y-15442245D01*
X10322671Y-15232721D02*
X10151242Y-15489864D01*
X10579814Y-15242245D02*
X10598862Y-15242245D01*
X10598862Y-15242245D02*
X10617909Y-15251769D01*
X10617909Y-15251769D02*
X10627433Y-15261293D01*
X10627433Y-15261293D02*
X10636957Y-15280340D01*
X10636957Y-15280340D02*
X10646481Y-15318435D01*
X10646481Y-15318435D02*
X10646481Y-15366055D01*
X10646481Y-15366055D02*
X10636957Y-15404150D01*
X10636957Y-15404150D02*
X10627433Y-15423197D01*
X10627433Y-15423197D02*
X10617909Y-15432721D01*
X10617909Y-15432721D02*
X10598862Y-15442245D01*
X10598862Y-15442245D02*
X10579814Y-15442245D01*
X10579814Y-15442245D02*
X10560766Y-15432721D01*
X10560766Y-15432721D02*
X10551242Y-15423197D01*
X10551242Y-15423197D02*
X10541719Y-15404150D01*
X10541719Y-15404150D02*
X10532195Y-15366055D01*
X10532195Y-15366055D02*
X10532195Y-15318435D01*
X10532195Y-15318435D02*
X10541719Y-15280340D01*
X10541719Y-15280340D02*
X10551242Y-15261293D01*
X10551242Y-15261293D02*
X10560766Y-15251769D01*
X10560766Y-15251769D02*
X10579814Y-15242245D01*
X10732195Y-15423197D02*
X10741719Y-15432721D01*
X10741719Y-15432721D02*
X10732195Y-15442245D01*
X10732195Y-15442245D02*
X10722671Y-15432721D01*
X10722671Y-15432721D02*
X10732195Y-15423197D01*
X10732195Y-15423197D02*
X10732195Y-15442245D01*
X10865528Y-15242245D02*
X10884576Y-15242245D01*
X10884576Y-15242245D02*
X10903623Y-15251769D01*
X10903623Y-15251769D02*
X10913147Y-15261293D01*
X10913147Y-15261293D02*
X10922671Y-15280340D01*
X10922671Y-15280340D02*
X10932195Y-15318435D01*
X10932195Y-15318435D02*
X10932195Y-15366055D01*
X10932195Y-15366055D02*
X10922671Y-15404150D01*
X10922671Y-15404150D02*
X10913147Y-15423197D01*
X10913147Y-15423197D02*
X10903623Y-15432721D01*
X10903623Y-15432721D02*
X10884576Y-15442245D01*
X10884576Y-15442245D02*
X10865528Y-15442245D01*
X10865528Y-15442245D02*
X10846481Y-15432721D01*
X10846481Y-15432721D02*
X10836957Y-15423197D01*
X10836957Y-15423197D02*
X10827433Y-15404150D01*
X10827433Y-15404150D02*
X10817909Y-15366055D01*
X10817909Y-15366055D02*
X10817909Y-15318435D01*
X10817909Y-15318435D02*
X10827433Y-15280340D01*
X10827433Y-15280340D02*
X10836957Y-15261293D01*
X10836957Y-15261293D02*
X10846481Y-15251769D01*
X10846481Y-15251769D02*
X10865528Y-15242245D01*
X10998862Y-15242245D02*
X11122671Y-15242245D01*
X11122671Y-15242245D02*
X11056004Y-15318435D01*
X11056004Y-15318435D02*
X11084576Y-15318435D01*
X11084576Y-15318435D02*
X11103623Y-15327959D01*
X11103623Y-15327959D02*
X11113147Y-15337483D01*
X11113147Y-15337483D02*
X11122671Y-15356531D01*
X11122671Y-15356531D02*
X11122671Y-15404150D01*
X11122671Y-15404150D02*
X11113147Y-15423197D01*
X11113147Y-15423197D02*
X11103623Y-15432721D01*
X11103623Y-15432721D02*
X11084576Y-15442245D01*
X11084576Y-15442245D02*
X11027433Y-15442245D01*
X11027433Y-15442245D02*
X11008385Y-15432721D01*
X11008385Y-15432721D02*
X10998862Y-15423197D01*
X11217909Y-15442245D02*
X11256004Y-15442245D01*
X11256004Y-15442245D02*
X11275052Y-15432721D01*
X11275052Y-15432721D02*
X11284576Y-15423197D01*
X11284576Y-15423197D02*
X11303623Y-15394626D01*
X11303623Y-15394626D02*
X11313147Y-15356531D01*
X11313147Y-15356531D02*
X11313147Y-15280340D01*
X11313147Y-15280340D02*
X11303623Y-15261293D01*
X11303623Y-15261293D02*
X11294100Y-15251769D01*
X11294100Y-15251769D02*
X11275052Y-15242245D01*
X11275052Y-15242245D02*
X11236957Y-15242245D01*
X11236957Y-15242245D02*
X11217909Y-15251769D01*
X11217909Y-15251769D02*
X11208385Y-15261293D01*
X11208385Y-15261293D02*
X11198861Y-15280340D01*
X11198861Y-15280340D02*
X11198861Y-15327959D01*
X11198861Y-15327959D02*
X11208385Y-15347007D01*
X11208385Y-15347007D02*
X11217909Y-15356531D01*
X11217909Y-15356531D02*
X11236957Y-15366055D01*
X11236957Y-15366055D02*
X11275052Y-15366055D01*
X11275052Y-15366055D02*
X11294100Y-15356531D01*
X11294100Y-15356531D02*
X11303623Y-15347007D01*
X11303623Y-15347007D02*
X11313147Y-15327959D01*
X11484576Y-15308912D02*
X11484576Y-15442245D01*
X11436957Y-15232721D02*
X11389338Y-15375578D01*
X11389338Y-15375578D02*
X11513147Y-15375578D01*
X11579814Y-15242245D02*
X11579814Y-15280340D01*
X11656004Y-15242245D02*
X11656004Y-15280340D01*
X11951243Y-15518435D02*
X11941719Y-15508912D01*
X11941719Y-15508912D02*
X11922671Y-15480340D01*
X11922671Y-15480340D02*
X11913147Y-15461293D01*
X11913147Y-15461293D02*
X11903623Y-15432721D01*
X11903623Y-15432721D02*
X11894100Y-15385102D01*
X11894100Y-15385102D02*
X11894100Y-15347007D01*
X11894100Y-15347007D02*
X11903623Y-15299388D01*
X11903623Y-15299388D02*
X11913147Y-15270816D01*
X11913147Y-15270816D02*
X11922671Y-15251769D01*
X11922671Y-15251769D02*
X11941719Y-15223197D01*
X11941719Y-15223197D02*
X11951243Y-15213674D01*
X12056004Y-15327959D02*
X12036957Y-15318435D01*
X12036957Y-15318435D02*
X12027433Y-15308912D01*
X12027433Y-15308912D02*
X12017909Y-15289864D01*
X12017909Y-15289864D02*
X12017909Y-15280340D01*
X12017909Y-15280340D02*
X12027433Y-15261293D01*
X12027433Y-15261293D02*
X12036957Y-15251769D01*
X12036957Y-15251769D02*
X12056004Y-15242245D01*
X12056004Y-15242245D02*
X12094100Y-15242245D01*
X12094100Y-15242245D02*
X12113147Y-15251769D01*
X12113147Y-15251769D02*
X12122671Y-15261293D01*
X12122671Y-15261293D02*
X12132195Y-15280340D01*
X12132195Y-15280340D02*
X12132195Y-15289864D01*
X12132195Y-15289864D02*
X12122671Y-15308912D01*
X12122671Y-15308912D02*
X12113147Y-15318435D01*
X12113147Y-15318435D02*
X12094100Y-15327959D01*
X12094100Y-15327959D02*
X12056004Y-15327959D01*
X12056004Y-15327959D02*
X12036957Y-15337483D01*
X12036957Y-15337483D02*
X12027433Y-15347007D01*
X12027433Y-15347007D02*
X12017909Y-15366055D01*
X12017909Y-15366055D02*
X12017909Y-15404150D01*
X12017909Y-15404150D02*
X12027433Y-15423197D01*
X12027433Y-15423197D02*
X12036957Y-15432721D01*
X12036957Y-15432721D02*
X12056004Y-15442245D01*
X12056004Y-15442245D02*
X12094100Y-15442245D01*
X12094100Y-15442245D02*
X12113147Y-15432721D01*
X12113147Y-15432721D02*
X12122671Y-15423197D01*
X12122671Y-15423197D02*
X12132195Y-15404150D01*
X12132195Y-15404150D02*
X12132195Y-15366055D01*
X12132195Y-15366055D02*
X12122671Y-15347007D01*
X12122671Y-15347007D02*
X12113147Y-15337483D01*
X12113147Y-15337483D02*
X12094100Y-15327959D01*
X12370290Y-15442245D02*
X12370290Y-15242245D01*
X12456004Y-15442245D02*
X12456004Y-15337483D01*
X12456004Y-15337483D02*
X12446481Y-15318435D01*
X12446481Y-15318435D02*
X12427433Y-15308912D01*
X12427433Y-15308912D02*
X12398862Y-15308912D01*
X12398862Y-15308912D02*
X12379814Y-15318435D01*
X12379814Y-15318435D02*
X12370290Y-15327959D01*
X12579814Y-15442245D02*
X12560766Y-15432721D01*
X12560766Y-15432721D02*
X12551243Y-15423197D01*
X12551243Y-15423197D02*
X12541719Y-15404150D01*
X12541719Y-15404150D02*
X12541719Y-15347007D01*
X12541719Y-15347007D02*
X12551243Y-15327959D01*
X12551243Y-15327959D02*
X12560766Y-15318435D01*
X12560766Y-15318435D02*
X12579814Y-15308912D01*
X12579814Y-15308912D02*
X12608385Y-15308912D01*
X12608385Y-15308912D02*
X12627433Y-15318435D01*
X12627433Y-15318435D02*
X12636957Y-15327959D01*
X12636957Y-15327959D02*
X12646481Y-15347007D01*
X12646481Y-15347007D02*
X12646481Y-15404150D01*
X12646481Y-15404150D02*
X12636957Y-15423197D01*
X12636957Y-15423197D02*
X12627433Y-15432721D01*
X12627433Y-15432721D02*
X12608385Y-15442245D01*
X12608385Y-15442245D02*
X12579814Y-15442245D01*
X12760766Y-15442245D02*
X12741719Y-15432721D01*
X12741719Y-15432721D02*
X12732195Y-15413674D01*
X12732195Y-15413674D02*
X12732195Y-15242245D01*
X12913147Y-15432721D02*
X12894100Y-15442245D01*
X12894100Y-15442245D02*
X12856004Y-15442245D01*
X12856004Y-15442245D02*
X12836957Y-15432721D01*
X12836957Y-15432721D02*
X12827433Y-15413674D01*
X12827433Y-15413674D02*
X12827433Y-15337483D01*
X12827433Y-15337483D02*
X12836957Y-15318435D01*
X12836957Y-15318435D02*
X12856004Y-15308912D01*
X12856004Y-15308912D02*
X12894100Y-15308912D01*
X12894100Y-15308912D02*
X12913147Y-15318435D01*
X12913147Y-15318435D02*
X12922671Y-15337483D01*
X12922671Y-15337483D02*
X12922671Y-15356531D01*
X12922671Y-15356531D02*
X12827433Y-15375578D01*
X12998862Y-15432721D02*
X13017909Y-15442245D01*
X13017909Y-15442245D02*
X13056004Y-15442245D01*
X13056004Y-15442245D02*
X13075052Y-15432721D01*
X13075052Y-15432721D02*
X13084576Y-15413674D01*
X13084576Y-15413674D02*
X13084576Y-15404150D01*
X13084576Y-15404150D02*
X13075052Y-15385102D01*
X13075052Y-15385102D02*
X13056004Y-15375578D01*
X13056004Y-15375578D02*
X13027433Y-15375578D01*
X13027433Y-15375578D02*
X13008385Y-15366055D01*
X13008385Y-15366055D02*
X12998862Y-15347007D01*
X12998862Y-15347007D02*
X12998862Y-15337483D01*
X12998862Y-15337483D02*
X13008385Y-15318435D01*
X13008385Y-15318435D02*
X13027433Y-15308912D01*
X13027433Y-15308912D02*
X13056004Y-15308912D01*
X13056004Y-15308912D02*
X13075052Y-15318435D01*
X13151243Y-15518435D02*
X13160766Y-15508912D01*
X13160766Y-15508912D02*
X13179814Y-15480340D01*
X13179814Y-15480340D02*
X13189338Y-15461293D01*
X13189338Y-15461293D02*
X13198862Y-15432721D01*
X13198862Y-15432721D02*
X13208385Y-15385102D01*
X13208385Y-15385102D02*
X13208385Y-15347007D01*
X13208385Y-15347007D02*
X13198862Y-15299388D01*
X13198862Y-15299388D02*
X13189338Y-15270816D01*
X13189338Y-15270816D02*
X13179814Y-15251769D01*
X13179814Y-15251769D02*
X13160766Y-15223197D01*
X13160766Y-15223197D02*
X13151243Y-15213674D01*
D13*
X8316180Y-15554761D02*
X8316180Y-15674761D01*
X8256180Y-15614761D02*
X8376180Y-15614761D01*
D11*
X8741718Y-15706245D02*
X8627433Y-15706245D01*
X8684576Y-15706245D02*
X8684576Y-15506245D01*
X8684576Y-15506245D02*
X8665528Y-15534816D01*
X8665528Y-15534816D02*
X8646480Y-15553864D01*
X8646480Y-15553864D02*
X8627433Y-15563388D01*
X8827433Y-15687197D02*
X8836957Y-15696721D01*
X8836957Y-15696721D02*
X8827433Y-15706245D01*
X8827433Y-15706245D02*
X8817909Y-15696721D01*
X8817909Y-15696721D02*
X8827433Y-15687197D01*
X8827433Y-15687197D02*
X8827433Y-15706245D01*
X8913147Y-15525293D02*
X8922671Y-15515769D01*
X8922671Y-15515769D02*
X8941718Y-15506245D01*
X8941718Y-15506245D02*
X8989338Y-15506245D01*
X8989338Y-15506245D02*
X9008385Y-15515769D01*
X9008385Y-15515769D02*
X9017909Y-15525293D01*
X9017909Y-15525293D02*
X9027433Y-15544340D01*
X9027433Y-15544340D02*
X9027433Y-15563388D01*
X9027433Y-15563388D02*
X9017909Y-15591959D01*
X9017909Y-15591959D02*
X8903623Y-15706245D01*
X8903623Y-15706245D02*
X9027433Y-15706245D01*
X9151242Y-15506245D02*
X9170290Y-15506245D01*
X9170290Y-15506245D02*
X9189338Y-15515769D01*
X9189338Y-15515769D02*
X9198861Y-15525293D01*
X9198861Y-15525293D02*
X9208385Y-15544340D01*
X9208385Y-15544340D02*
X9217909Y-15582435D01*
X9217909Y-15582435D02*
X9217909Y-15630055D01*
X9217909Y-15630055D02*
X9208385Y-15668150D01*
X9208385Y-15668150D02*
X9198861Y-15687197D01*
X9198861Y-15687197D02*
X9189338Y-15696721D01*
X9189338Y-15696721D02*
X9170290Y-15706245D01*
X9170290Y-15706245D02*
X9151242Y-15706245D01*
X9151242Y-15706245D02*
X9132195Y-15696721D01*
X9132195Y-15696721D02*
X9122671Y-15687197D01*
X9122671Y-15687197D02*
X9113147Y-15668150D01*
X9113147Y-15668150D02*
X9103623Y-15630055D01*
X9103623Y-15630055D02*
X9103623Y-15582435D01*
X9103623Y-15582435D02*
X9113147Y-15544340D01*
X9113147Y-15544340D02*
X9122671Y-15525293D01*
X9122671Y-15525293D02*
X9132195Y-15515769D01*
X9132195Y-15515769D02*
X9151242Y-15506245D01*
X9341718Y-15506245D02*
X9360766Y-15506245D01*
X9360766Y-15506245D02*
X9379814Y-15515769D01*
X9379814Y-15515769D02*
X9389338Y-15525293D01*
X9389338Y-15525293D02*
X9398861Y-15544340D01*
X9398861Y-15544340D02*
X9408385Y-15582435D01*
X9408385Y-15582435D02*
X9408385Y-15630055D01*
X9408385Y-15630055D02*
X9398861Y-15668150D01*
X9398861Y-15668150D02*
X9389338Y-15687197D01*
X9389338Y-15687197D02*
X9379814Y-15696721D01*
X9379814Y-15696721D02*
X9360766Y-15706245D01*
X9360766Y-15706245D02*
X9341718Y-15706245D01*
X9341718Y-15706245D02*
X9322671Y-15696721D01*
X9322671Y-15696721D02*
X9313147Y-15687197D01*
X9313147Y-15687197D02*
X9303623Y-15668150D01*
X9303623Y-15668150D02*
X9294099Y-15630055D01*
X9294099Y-15630055D02*
X9294099Y-15582435D01*
X9294099Y-15582435D02*
X9303623Y-15544340D01*
X9303623Y-15544340D02*
X9313147Y-15525293D01*
X9313147Y-15525293D02*
X9322671Y-15515769D01*
X9322671Y-15515769D02*
X9341718Y-15506245D01*
X9494099Y-15706245D02*
X9494099Y-15572912D01*
X9494099Y-15591959D02*
X9503623Y-15582435D01*
X9503623Y-15582435D02*
X9522671Y-15572912D01*
X9522671Y-15572912D02*
X9551242Y-15572912D01*
X9551242Y-15572912D02*
X9570290Y-15582435D01*
X9570290Y-15582435D02*
X9579814Y-15601483D01*
X9579814Y-15601483D02*
X9579814Y-15706245D01*
X9579814Y-15601483D02*
X9589338Y-15582435D01*
X9589338Y-15582435D02*
X9608385Y-15572912D01*
X9608385Y-15572912D02*
X9636957Y-15572912D01*
X9636957Y-15572912D02*
X9656004Y-15582435D01*
X9656004Y-15582435D02*
X9665528Y-15601483D01*
X9665528Y-15601483D02*
X9665528Y-15706245D01*
X9760766Y-15706245D02*
X9760766Y-15572912D01*
X9760766Y-15591959D02*
X9770290Y-15582435D01*
X9770290Y-15582435D02*
X9789338Y-15572912D01*
X9789338Y-15572912D02*
X9817909Y-15572912D01*
X9817909Y-15572912D02*
X9836957Y-15582435D01*
X9836957Y-15582435D02*
X9846480Y-15601483D01*
X9846480Y-15601483D02*
X9846480Y-15706245D01*
X9846480Y-15601483D02*
X9856004Y-15582435D01*
X9856004Y-15582435D02*
X9875052Y-15572912D01*
X9875052Y-15572912D02*
X9903623Y-15572912D01*
X9903623Y-15572912D02*
X9922671Y-15582435D01*
X9922671Y-15582435D02*
X9932195Y-15601483D01*
X9932195Y-15601483D02*
X9932195Y-15706245D01*
X10322671Y-15496721D02*
X10151242Y-15753864D01*
X10579814Y-15506245D02*
X10598862Y-15506245D01*
X10598862Y-15506245D02*
X10617909Y-15515769D01*
X10617909Y-15515769D02*
X10627433Y-15525293D01*
X10627433Y-15525293D02*
X10636957Y-15544340D01*
X10636957Y-15544340D02*
X10646481Y-15582435D01*
X10646481Y-15582435D02*
X10646481Y-15630055D01*
X10646481Y-15630055D02*
X10636957Y-15668150D01*
X10636957Y-15668150D02*
X10627433Y-15687197D01*
X10627433Y-15687197D02*
X10617909Y-15696721D01*
X10617909Y-15696721D02*
X10598862Y-15706245D01*
X10598862Y-15706245D02*
X10579814Y-15706245D01*
X10579814Y-15706245D02*
X10560766Y-15696721D01*
X10560766Y-15696721D02*
X10551242Y-15687197D01*
X10551242Y-15687197D02*
X10541719Y-15668150D01*
X10541719Y-15668150D02*
X10532195Y-15630055D01*
X10532195Y-15630055D02*
X10532195Y-15582435D01*
X10532195Y-15582435D02*
X10541719Y-15544340D01*
X10541719Y-15544340D02*
X10551242Y-15525293D01*
X10551242Y-15525293D02*
X10560766Y-15515769D01*
X10560766Y-15515769D02*
X10579814Y-15506245D01*
X10732195Y-15687197D02*
X10741719Y-15696721D01*
X10741719Y-15696721D02*
X10732195Y-15706245D01*
X10732195Y-15706245D02*
X10722671Y-15696721D01*
X10722671Y-15696721D02*
X10732195Y-15687197D01*
X10732195Y-15687197D02*
X10732195Y-15706245D01*
X10865528Y-15506245D02*
X10884576Y-15506245D01*
X10884576Y-15506245D02*
X10903623Y-15515769D01*
X10903623Y-15515769D02*
X10913147Y-15525293D01*
X10913147Y-15525293D02*
X10922671Y-15544340D01*
X10922671Y-15544340D02*
X10932195Y-15582435D01*
X10932195Y-15582435D02*
X10932195Y-15630055D01*
X10932195Y-15630055D02*
X10922671Y-15668150D01*
X10922671Y-15668150D02*
X10913147Y-15687197D01*
X10913147Y-15687197D02*
X10903623Y-15696721D01*
X10903623Y-15696721D02*
X10884576Y-15706245D01*
X10884576Y-15706245D02*
X10865528Y-15706245D01*
X10865528Y-15706245D02*
X10846481Y-15696721D01*
X10846481Y-15696721D02*
X10836957Y-15687197D01*
X10836957Y-15687197D02*
X10827433Y-15668150D01*
X10827433Y-15668150D02*
X10817909Y-15630055D01*
X10817909Y-15630055D02*
X10817909Y-15582435D01*
X10817909Y-15582435D02*
X10827433Y-15544340D01*
X10827433Y-15544340D02*
X10836957Y-15525293D01*
X10836957Y-15525293D02*
X10846481Y-15515769D01*
X10846481Y-15515769D02*
X10865528Y-15506245D01*
X11103623Y-15572912D02*
X11103623Y-15706245D01*
X11056004Y-15496721D02*
X11008385Y-15639578D01*
X11008385Y-15639578D02*
X11132195Y-15639578D01*
X11189338Y-15506245D02*
X11322671Y-15506245D01*
X11322671Y-15506245D02*
X11236957Y-15706245D01*
X11389338Y-15525293D02*
X11398861Y-15515769D01*
X11398861Y-15515769D02*
X11417909Y-15506245D01*
X11417909Y-15506245D02*
X11465528Y-15506245D01*
X11465528Y-15506245D02*
X11484576Y-15515769D01*
X11484576Y-15515769D02*
X11494100Y-15525293D01*
X11494100Y-15525293D02*
X11503623Y-15544340D01*
X11503623Y-15544340D02*
X11503623Y-15563388D01*
X11503623Y-15563388D02*
X11494100Y-15591959D01*
X11494100Y-15591959D02*
X11379814Y-15706245D01*
X11379814Y-15706245D02*
X11503623Y-15706245D01*
X11579814Y-15506245D02*
X11579814Y-15544340D01*
X11656004Y-15506245D02*
X11656004Y-15544340D01*
X11951243Y-15782435D02*
X11941719Y-15772912D01*
X11941719Y-15772912D02*
X11922671Y-15744340D01*
X11922671Y-15744340D02*
X11913147Y-15725293D01*
X11913147Y-15725293D02*
X11903623Y-15696721D01*
X11903623Y-15696721D02*
X11894100Y-15649102D01*
X11894100Y-15649102D02*
X11894100Y-15611007D01*
X11894100Y-15611007D02*
X11903623Y-15563388D01*
X11903623Y-15563388D02*
X11913147Y-15534816D01*
X11913147Y-15534816D02*
X11922671Y-15515769D01*
X11922671Y-15515769D02*
X11941719Y-15487197D01*
X11941719Y-15487197D02*
X11951243Y-15477674D01*
X12132195Y-15706245D02*
X12017909Y-15706245D01*
X12075052Y-15706245D02*
X12075052Y-15506245D01*
X12075052Y-15506245D02*
X12056004Y-15534816D01*
X12056004Y-15534816D02*
X12036957Y-15553864D01*
X12036957Y-15553864D02*
X12017909Y-15563388D01*
X12303623Y-15506245D02*
X12265528Y-15506245D01*
X12265528Y-15506245D02*
X12246481Y-15515769D01*
X12246481Y-15515769D02*
X12236957Y-15525293D01*
X12236957Y-15525293D02*
X12217909Y-15553864D01*
X12217909Y-15553864D02*
X12208385Y-15591959D01*
X12208385Y-15591959D02*
X12208385Y-15668150D01*
X12208385Y-15668150D02*
X12217909Y-15687197D01*
X12217909Y-15687197D02*
X12227433Y-15696721D01*
X12227433Y-15696721D02*
X12246481Y-15706245D01*
X12246481Y-15706245D02*
X12284576Y-15706245D01*
X12284576Y-15706245D02*
X12303623Y-15696721D01*
X12303623Y-15696721D02*
X12313147Y-15687197D01*
X12313147Y-15687197D02*
X12322671Y-15668150D01*
X12322671Y-15668150D02*
X12322671Y-15620531D01*
X12322671Y-15620531D02*
X12313147Y-15601483D01*
X12313147Y-15601483D02*
X12303623Y-15591959D01*
X12303623Y-15591959D02*
X12284576Y-15582435D01*
X12284576Y-15582435D02*
X12246481Y-15582435D01*
X12246481Y-15582435D02*
X12227433Y-15591959D01*
X12227433Y-15591959D02*
X12217909Y-15601483D01*
X12217909Y-15601483D02*
X12208385Y-15620531D01*
X12560766Y-15706245D02*
X12560766Y-15506245D01*
X12646481Y-15706245D02*
X12646481Y-15601483D01*
X12646481Y-15601483D02*
X12636957Y-15582435D01*
X12636957Y-15582435D02*
X12617909Y-15572912D01*
X12617909Y-15572912D02*
X12589338Y-15572912D01*
X12589338Y-15572912D02*
X12570290Y-15582435D01*
X12570290Y-15582435D02*
X12560766Y-15591959D01*
X12770290Y-15706245D02*
X12751243Y-15696721D01*
X12751243Y-15696721D02*
X12741719Y-15687197D01*
X12741719Y-15687197D02*
X12732195Y-15668150D01*
X12732195Y-15668150D02*
X12732195Y-15611007D01*
X12732195Y-15611007D02*
X12741719Y-15591959D01*
X12741719Y-15591959D02*
X12751243Y-15582435D01*
X12751243Y-15582435D02*
X12770290Y-15572912D01*
X12770290Y-15572912D02*
X12798862Y-15572912D01*
X12798862Y-15572912D02*
X12817909Y-15582435D01*
X12817909Y-15582435D02*
X12827433Y-15591959D01*
X12827433Y-15591959D02*
X12836957Y-15611007D01*
X12836957Y-15611007D02*
X12836957Y-15668150D01*
X12836957Y-15668150D02*
X12827433Y-15687197D01*
X12827433Y-15687197D02*
X12817909Y-15696721D01*
X12817909Y-15696721D02*
X12798862Y-15706245D01*
X12798862Y-15706245D02*
X12770290Y-15706245D01*
X12951243Y-15706245D02*
X12932195Y-15696721D01*
X12932195Y-15696721D02*
X12922671Y-15677674D01*
X12922671Y-15677674D02*
X12922671Y-15506245D01*
X13103624Y-15696721D02*
X13084576Y-15706245D01*
X13084576Y-15706245D02*
X13046481Y-15706245D01*
X13046481Y-15706245D02*
X13027433Y-15696721D01*
X13027433Y-15696721D02*
X13017909Y-15677674D01*
X13017909Y-15677674D02*
X13017909Y-15601483D01*
X13017909Y-15601483D02*
X13027433Y-15582435D01*
X13027433Y-15582435D02*
X13046481Y-15572912D01*
X13046481Y-15572912D02*
X13084576Y-15572912D01*
X13084576Y-15572912D02*
X13103624Y-15582435D01*
X13103624Y-15582435D02*
X13113147Y-15601483D01*
X13113147Y-15601483D02*
X13113147Y-15620531D01*
X13113147Y-15620531D02*
X13017909Y-15639578D01*
X13189338Y-15696721D02*
X13208385Y-15706245D01*
X13208385Y-15706245D02*
X13246481Y-15706245D01*
X13246481Y-15706245D02*
X13265528Y-15696721D01*
X13265528Y-15696721D02*
X13275052Y-15677674D01*
X13275052Y-15677674D02*
X13275052Y-15668150D01*
X13275052Y-15668150D02*
X13265528Y-15649102D01*
X13265528Y-15649102D02*
X13246481Y-15639578D01*
X13246481Y-15639578D02*
X13217909Y-15639578D01*
X13217909Y-15639578D02*
X13198862Y-15630055D01*
X13198862Y-15630055D02*
X13189338Y-15611007D01*
X13189338Y-15611007D02*
X13189338Y-15601483D01*
X13189338Y-15601483D02*
X13198862Y-15582435D01*
X13198862Y-15582435D02*
X13217909Y-15572912D01*
X13217909Y-15572912D02*
X13246481Y-15572912D01*
X13246481Y-15572912D02*
X13265528Y-15582435D01*
X13341719Y-15782435D02*
X13351243Y-15772912D01*
X13351243Y-15772912D02*
X13370290Y-15744340D01*
X13370290Y-15744340D02*
X13379814Y-15725293D01*
X13379814Y-15725293D02*
X13389338Y-15696721D01*
X13389338Y-15696721D02*
X13398862Y-15649102D01*
X13398862Y-15649102D02*
X13398862Y-15611007D01*
X13398862Y-15611007D02*
X13389338Y-15563388D01*
X13389338Y-15563388D02*
X13379814Y-15534816D01*
X13379814Y-15534816D02*
X13370290Y-15515769D01*
X13370290Y-15515769D02*
X13351243Y-15487197D01*
X13351243Y-15487197D02*
X13341719Y-15477674D01*
X8346891Y-15949473D02*
X8346891Y-15808050D01*
X8205468Y-15808050D01*
X8205468Y-15949473D01*
X8346891Y-15949473D01*
X8732195Y-15770245D02*
X8636957Y-15770245D01*
X8636957Y-15770245D02*
X8627433Y-15865483D01*
X8627433Y-15865483D02*
X8636957Y-15855959D01*
X8636957Y-15855959D02*
X8656004Y-15846435D01*
X8656004Y-15846435D02*
X8703623Y-15846435D01*
X8703623Y-15846435D02*
X8722671Y-15855959D01*
X8722671Y-15855959D02*
X8732195Y-15865483D01*
X8732195Y-15865483D02*
X8741718Y-15884531D01*
X8741718Y-15884531D02*
X8741718Y-15932150D01*
X8741718Y-15932150D02*
X8732195Y-15951197D01*
X8732195Y-15951197D02*
X8722671Y-15960721D01*
X8722671Y-15960721D02*
X8703623Y-15970245D01*
X8703623Y-15970245D02*
X8656004Y-15970245D01*
X8656004Y-15970245D02*
X8636957Y-15960721D01*
X8636957Y-15960721D02*
X8627433Y-15951197D01*
X8827433Y-15951197D02*
X8836957Y-15960721D01*
X8836957Y-15960721D02*
X8827433Y-15970245D01*
X8827433Y-15970245D02*
X8817909Y-15960721D01*
X8817909Y-15960721D02*
X8827433Y-15951197D01*
X8827433Y-15951197D02*
X8827433Y-15970245D01*
X8960766Y-15770245D02*
X8979814Y-15770245D01*
X8979814Y-15770245D02*
X8998861Y-15779769D01*
X8998861Y-15779769D02*
X9008385Y-15789293D01*
X9008385Y-15789293D02*
X9017909Y-15808340D01*
X9017909Y-15808340D02*
X9027433Y-15846435D01*
X9027433Y-15846435D02*
X9027433Y-15894055D01*
X9027433Y-15894055D02*
X9017909Y-15932150D01*
X9017909Y-15932150D02*
X9008385Y-15951197D01*
X9008385Y-15951197D02*
X8998861Y-15960721D01*
X8998861Y-15960721D02*
X8979814Y-15970245D01*
X8979814Y-15970245D02*
X8960766Y-15970245D01*
X8960766Y-15970245D02*
X8941718Y-15960721D01*
X8941718Y-15960721D02*
X8932195Y-15951197D01*
X8932195Y-15951197D02*
X8922671Y-15932150D01*
X8922671Y-15932150D02*
X8913147Y-15894055D01*
X8913147Y-15894055D02*
X8913147Y-15846435D01*
X8913147Y-15846435D02*
X8922671Y-15808340D01*
X8922671Y-15808340D02*
X8932195Y-15789293D01*
X8932195Y-15789293D02*
X8941718Y-15779769D01*
X8941718Y-15779769D02*
X8960766Y-15770245D01*
X9151242Y-15770245D02*
X9170290Y-15770245D01*
X9170290Y-15770245D02*
X9189338Y-15779769D01*
X9189338Y-15779769D02*
X9198861Y-15789293D01*
X9198861Y-15789293D02*
X9208385Y-15808340D01*
X9208385Y-15808340D02*
X9217909Y-15846435D01*
X9217909Y-15846435D02*
X9217909Y-15894055D01*
X9217909Y-15894055D02*
X9208385Y-15932150D01*
X9208385Y-15932150D02*
X9198861Y-15951197D01*
X9198861Y-15951197D02*
X9189338Y-15960721D01*
X9189338Y-15960721D02*
X9170290Y-15970245D01*
X9170290Y-15970245D02*
X9151242Y-15970245D01*
X9151242Y-15970245D02*
X9132195Y-15960721D01*
X9132195Y-15960721D02*
X9122671Y-15951197D01*
X9122671Y-15951197D02*
X9113147Y-15932150D01*
X9113147Y-15932150D02*
X9103623Y-15894055D01*
X9103623Y-15894055D02*
X9103623Y-15846435D01*
X9103623Y-15846435D02*
X9113147Y-15808340D01*
X9113147Y-15808340D02*
X9122671Y-15789293D01*
X9122671Y-15789293D02*
X9132195Y-15779769D01*
X9132195Y-15779769D02*
X9151242Y-15770245D01*
X9341718Y-15770245D02*
X9360766Y-15770245D01*
X9360766Y-15770245D02*
X9379814Y-15779769D01*
X9379814Y-15779769D02*
X9389338Y-15789293D01*
X9389338Y-15789293D02*
X9398861Y-15808340D01*
X9398861Y-15808340D02*
X9408385Y-15846435D01*
X9408385Y-15846435D02*
X9408385Y-15894055D01*
X9408385Y-15894055D02*
X9398861Y-15932150D01*
X9398861Y-15932150D02*
X9389338Y-15951197D01*
X9389338Y-15951197D02*
X9379814Y-15960721D01*
X9379814Y-15960721D02*
X9360766Y-15970245D01*
X9360766Y-15970245D02*
X9341718Y-15970245D01*
X9341718Y-15970245D02*
X9322671Y-15960721D01*
X9322671Y-15960721D02*
X9313147Y-15951197D01*
X9313147Y-15951197D02*
X9303623Y-15932150D01*
X9303623Y-15932150D02*
X9294099Y-15894055D01*
X9294099Y-15894055D02*
X9294099Y-15846435D01*
X9294099Y-15846435D02*
X9303623Y-15808340D01*
X9303623Y-15808340D02*
X9313147Y-15789293D01*
X9313147Y-15789293D02*
X9322671Y-15779769D01*
X9322671Y-15779769D02*
X9341718Y-15770245D01*
X9494099Y-15970245D02*
X9494099Y-15836912D01*
X9494099Y-15855959D02*
X9503623Y-15846435D01*
X9503623Y-15846435D02*
X9522671Y-15836912D01*
X9522671Y-15836912D02*
X9551242Y-15836912D01*
X9551242Y-15836912D02*
X9570290Y-15846435D01*
X9570290Y-15846435D02*
X9579814Y-15865483D01*
X9579814Y-15865483D02*
X9579814Y-15970245D01*
X9579814Y-15865483D02*
X9589338Y-15846435D01*
X9589338Y-15846435D02*
X9608385Y-15836912D01*
X9608385Y-15836912D02*
X9636957Y-15836912D01*
X9636957Y-15836912D02*
X9656004Y-15846435D01*
X9656004Y-15846435D02*
X9665528Y-15865483D01*
X9665528Y-15865483D02*
X9665528Y-15970245D01*
X9760766Y-15970245D02*
X9760766Y-15836912D01*
X9760766Y-15855959D02*
X9770290Y-15846435D01*
X9770290Y-15846435D02*
X9789338Y-15836912D01*
X9789338Y-15836912D02*
X9817909Y-15836912D01*
X9817909Y-15836912D02*
X9836957Y-15846435D01*
X9836957Y-15846435D02*
X9846480Y-15865483D01*
X9846480Y-15865483D02*
X9846480Y-15970245D01*
X9846480Y-15865483D02*
X9856004Y-15846435D01*
X9856004Y-15846435D02*
X9875052Y-15836912D01*
X9875052Y-15836912D02*
X9903623Y-15836912D01*
X9903623Y-15836912D02*
X9922671Y-15846435D01*
X9922671Y-15846435D02*
X9932195Y-15865483D01*
X9932195Y-15865483D02*
X9932195Y-15970245D01*
X10322671Y-15760721D02*
X10151242Y-16017864D01*
X10579814Y-15770245D02*
X10598862Y-15770245D01*
X10598862Y-15770245D02*
X10617909Y-15779769D01*
X10617909Y-15779769D02*
X10627433Y-15789293D01*
X10627433Y-15789293D02*
X10636957Y-15808340D01*
X10636957Y-15808340D02*
X10646481Y-15846435D01*
X10646481Y-15846435D02*
X10646481Y-15894055D01*
X10646481Y-15894055D02*
X10636957Y-15932150D01*
X10636957Y-15932150D02*
X10627433Y-15951197D01*
X10627433Y-15951197D02*
X10617909Y-15960721D01*
X10617909Y-15960721D02*
X10598862Y-15970245D01*
X10598862Y-15970245D02*
X10579814Y-15970245D01*
X10579814Y-15970245D02*
X10560766Y-15960721D01*
X10560766Y-15960721D02*
X10551242Y-15951197D01*
X10551242Y-15951197D02*
X10541719Y-15932150D01*
X10541719Y-15932150D02*
X10532195Y-15894055D01*
X10532195Y-15894055D02*
X10532195Y-15846435D01*
X10532195Y-15846435D02*
X10541719Y-15808340D01*
X10541719Y-15808340D02*
X10551242Y-15789293D01*
X10551242Y-15789293D02*
X10560766Y-15779769D01*
X10560766Y-15779769D02*
X10579814Y-15770245D01*
X10732195Y-15951197D02*
X10741719Y-15960721D01*
X10741719Y-15960721D02*
X10732195Y-15970245D01*
X10732195Y-15970245D02*
X10722671Y-15960721D01*
X10722671Y-15960721D02*
X10732195Y-15951197D01*
X10732195Y-15951197D02*
X10732195Y-15970245D01*
X10932195Y-15970245D02*
X10817909Y-15970245D01*
X10875052Y-15970245D02*
X10875052Y-15770245D01*
X10875052Y-15770245D02*
X10856004Y-15798816D01*
X10856004Y-15798816D02*
X10836957Y-15817864D01*
X10836957Y-15817864D02*
X10817909Y-15827388D01*
X11027433Y-15970245D02*
X11065528Y-15970245D01*
X11065528Y-15970245D02*
X11084576Y-15960721D01*
X11084576Y-15960721D02*
X11094100Y-15951197D01*
X11094100Y-15951197D02*
X11113147Y-15922626D01*
X11113147Y-15922626D02*
X11122671Y-15884531D01*
X11122671Y-15884531D02*
X11122671Y-15808340D01*
X11122671Y-15808340D02*
X11113147Y-15789293D01*
X11113147Y-15789293D02*
X11103623Y-15779769D01*
X11103623Y-15779769D02*
X11084576Y-15770245D01*
X11084576Y-15770245D02*
X11046481Y-15770245D01*
X11046481Y-15770245D02*
X11027433Y-15779769D01*
X11027433Y-15779769D02*
X11017909Y-15789293D01*
X11017909Y-15789293D02*
X11008385Y-15808340D01*
X11008385Y-15808340D02*
X11008385Y-15855959D01*
X11008385Y-15855959D02*
X11017909Y-15875007D01*
X11017909Y-15875007D02*
X11027433Y-15884531D01*
X11027433Y-15884531D02*
X11046481Y-15894055D01*
X11046481Y-15894055D02*
X11084576Y-15894055D01*
X11084576Y-15894055D02*
X11103623Y-15884531D01*
X11103623Y-15884531D02*
X11113147Y-15875007D01*
X11113147Y-15875007D02*
X11122671Y-15855959D01*
X11294100Y-15770245D02*
X11256004Y-15770245D01*
X11256004Y-15770245D02*
X11236957Y-15779769D01*
X11236957Y-15779769D02*
X11227433Y-15789293D01*
X11227433Y-15789293D02*
X11208385Y-15817864D01*
X11208385Y-15817864D02*
X11198861Y-15855959D01*
X11198861Y-15855959D02*
X11198861Y-15932150D01*
X11198861Y-15932150D02*
X11208385Y-15951197D01*
X11208385Y-15951197D02*
X11217909Y-15960721D01*
X11217909Y-15960721D02*
X11236957Y-15970245D01*
X11236957Y-15970245D02*
X11275052Y-15970245D01*
X11275052Y-15970245D02*
X11294100Y-15960721D01*
X11294100Y-15960721D02*
X11303623Y-15951197D01*
X11303623Y-15951197D02*
X11313147Y-15932150D01*
X11313147Y-15932150D02*
X11313147Y-15884531D01*
X11313147Y-15884531D02*
X11303623Y-15865483D01*
X11303623Y-15865483D02*
X11294100Y-15855959D01*
X11294100Y-15855959D02*
X11275052Y-15846435D01*
X11275052Y-15846435D02*
X11236957Y-15846435D01*
X11236957Y-15846435D02*
X11217909Y-15855959D01*
X11217909Y-15855959D02*
X11208385Y-15865483D01*
X11208385Y-15865483D02*
X11198861Y-15884531D01*
X11408385Y-15970245D02*
X11446480Y-15970245D01*
X11446480Y-15970245D02*
X11465528Y-15960721D01*
X11465528Y-15960721D02*
X11475052Y-15951197D01*
X11475052Y-15951197D02*
X11494100Y-15922626D01*
X11494100Y-15922626D02*
X11503623Y-15884531D01*
X11503623Y-15884531D02*
X11503623Y-15808340D01*
X11503623Y-15808340D02*
X11494100Y-15789293D01*
X11494100Y-15789293D02*
X11484576Y-15779769D01*
X11484576Y-15779769D02*
X11465528Y-15770245D01*
X11465528Y-15770245D02*
X11427433Y-15770245D01*
X11427433Y-15770245D02*
X11408385Y-15779769D01*
X11408385Y-15779769D02*
X11398861Y-15789293D01*
X11398861Y-15789293D02*
X11389338Y-15808340D01*
X11389338Y-15808340D02*
X11389338Y-15855959D01*
X11389338Y-15855959D02*
X11398861Y-15875007D01*
X11398861Y-15875007D02*
X11408385Y-15884531D01*
X11408385Y-15884531D02*
X11427433Y-15894055D01*
X11427433Y-15894055D02*
X11465528Y-15894055D01*
X11465528Y-15894055D02*
X11484576Y-15884531D01*
X11484576Y-15884531D02*
X11494100Y-15875007D01*
X11494100Y-15875007D02*
X11503623Y-15855959D01*
X11579814Y-15770245D02*
X11579814Y-15808340D01*
X11656004Y-15770245D02*
X11656004Y-15808340D01*
X11951243Y-16046435D02*
X11941719Y-16036912D01*
X11941719Y-16036912D02*
X11922671Y-16008340D01*
X11922671Y-16008340D02*
X11913147Y-15989293D01*
X11913147Y-15989293D02*
X11903623Y-15960721D01*
X11903623Y-15960721D02*
X11894100Y-15913102D01*
X11894100Y-15913102D02*
X11894100Y-15875007D01*
X11894100Y-15875007D02*
X11903623Y-15827388D01*
X11903623Y-15827388D02*
X11913147Y-15798816D01*
X11913147Y-15798816D02*
X11922671Y-15779769D01*
X11922671Y-15779769D02*
X11941719Y-15751197D01*
X11941719Y-15751197D02*
X11951243Y-15741674D01*
X12132195Y-15970245D02*
X12017909Y-15970245D01*
X12075052Y-15970245D02*
X12075052Y-15770245D01*
X12075052Y-15770245D02*
X12056004Y-15798816D01*
X12056004Y-15798816D02*
X12036957Y-15817864D01*
X12036957Y-15817864D02*
X12017909Y-15827388D01*
X12370290Y-15970245D02*
X12370290Y-15770245D01*
X12456004Y-15970245D02*
X12456004Y-15865483D01*
X12456004Y-15865483D02*
X12446481Y-15846435D01*
X12446481Y-15846435D02*
X12427433Y-15836912D01*
X12427433Y-15836912D02*
X12398862Y-15836912D01*
X12398862Y-15836912D02*
X12379814Y-15846435D01*
X12379814Y-15846435D02*
X12370290Y-15855959D01*
X12579814Y-15970245D02*
X12560766Y-15960721D01*
X12560766Y-15960721D02*
X12551243Y-15951197D01*
X12551243Y-15951197D02*
X12541719Y-15932150D01*
X12541719Y-15932150D02*
X12541719Y-15875007D01*
X12541719Y-15875007D02*
X12551243Y-15855959D01*
X12551243Y-15855959D02*
X12560766Y-15846435D01*
X12560766Y-15846435D02*
X12579814Y-15836912D01*
X12579814Y-15836912D02*
X12608385Y-15836912D01*
X12608385Y-15836912D02*
X12627433Y-15846435D01*
X12627433Y-15846435D02*
X12636957Y-15855959D01*
X12636957Y-15855959D02*
X12646481Y-15875007D01*
X12646481Y-15875007D02*
X12646481Y-15932150D01*
X12646481Y-15932150D02*
X12636957Y-15951197D01*
X12636957Y-15951197D02*
X12627433Y-15960721D01*
X12627433Y-15960721D02*
X12608385Y-15970245D01*
X12608385Y-15970245D02*
X12579814Y-15970245D01*
X12760766Y-15970245D02*
X12741719Y-15960721D01*
X12741719Y-15960721D02*
X12732195Y-15941674D01*
X12732195Y-15941674D02*
X12732195Y-15770245D01*
X12913147Y-15960721D02*
X12894100Y-15970245D01*
X12894100Y-15970245D02*
X12856004Y-15970245D01*
X12856004Y-15970245D02*
X12836957Y-15960721D01*
X12836957Y-15960721D02*
X12827433Y-15941674D01*
X12827433Y-15941674D02*
X12827433Y-15865483D01*
X12827433Y-15865483D02*
X12836957Y-15846435D01*
X12836957Y-15846435D02*
X12856004Y-15836912D01*
X12856004Y-15836912D02*
X12894100Y-15836912D01*
X12894100Y-15836912D02*
X12913147Y-15846435D01*
X12913147Y-15846435D02*
X12922671Y-15865483D01*
X12922671Y-15865483D02*
X12922671Y-15884531D01*
X12922671Y-15884531D02*
X12827433Y-15903578D01*
X12989338Y-16046435D02*
X12998862Y-16036912D01*
X12998862Y-16036912D02*
X13017909Y-16008340D01*
X13017909Y-16008340D02*
X13027433Y-15989293D01*
X13027433Y-15989293D02*
X13036957Y-15960721D01*
X13036957Y-15960721D02*
X13046481Y-15913102D01*
X13046481Y-15913102D02*
X13046481Y-15875007D01*
X13046481Y-15875007D02*
X13036957Y-15827388D01*
X13036957Y-15827388D02*
X13027433Y-15798816D01*
X13027433Y-15798816D02*
X13017909Y-15779769D01*
X13017909Y-15779769D02*
X12998862Y-15751197D01*
X12998862Y-15751197D02*
X12989338Y-15741674D01*
X13351243Y-16046435D02*
X13341719Y-16036912D01*
X13341719Y-16036912D02*
X13322671Y-16008340D01*
X13322671Y-16008340D02*
X13313147Y-15989293D01*
X13313147Y-15989293D02*
X13303624Y-15960721D01*
X13303624Y-15960721D02*
X13294100Y-15913102D01*
X13294100Y-15913102D02*
X13294100Y-15875007D01*
X13294100Y-15875007D02*
X13303624Y-15827388D01*
X13303624Y-15827388D02*
X13313147Y-15798816D01*
X13313147Y-15798816D02*
X13322671Y-15779769D01*
X13322671Y-15779769D02*
X13341719Y-15751197D01*
X13341719Y-15751197D02*
X13351243Y-15741674D01*
X13427433Y-15836912D02*
X13427433Y-15970245D01*
X13427433Y-15855959D02*
X13436957Y-15846435D01*
X13436957Y-15846435D02*
X13456004Y-15836912D01*
X13456004Y-15836912D02*
X13484576Y-15836912D01*
X13484576Y-15836912D02*
X13503624Y-15846435D01*
X13503624Y-15846435D02*
X13513147Y-15865483D01*
X13513147Y-15865483D02*
X13513147Y-15970245D01*
X13636957Y-15970245D02*
X13617909Y-15960721D01*
X13617909Y-15960721D02*
X13608385Y-15951197D01*
X13608385Y-15951197D02*
X13598862Y-15932150D01*
X13598862Y-15932150D02*
X13598862Y-15875007D01*
X13598862Y-15875007D02*
X13608385Y-15855959D01*
X13608385Y-15855959D02*
X13617909Y-15846435D01*
X13617909Y-15846435D02*
X13636957Y-15836912D01*
X13636957Y-15836912D02*
X13665528Y-15836912D01*
X13665528Y-15836912D02*
X13684576Y-15846435D01*
X13684576Y-15846435D02*
X13694100Y-15855959D01*
X13694100Y-15855959D02*
X13703624Y-15875007D01*
X13703624Y-15875007D02*
X13703624Y-15932150D01*
X13703624Y-15932150D02*
X13694100Y-15951197D01*
X13694100Y-15951197D02*
X13684576Y-15960721D01*
X13684576Y-15960721D02*
X13665528Y-15970245D01*
X13665528Y-15970245D02*
X13636957Y-15970245D01*
X13760766Y-15836912D02*
X13836957Y-15836912D01*
X13789338Y-15770245D02*
X13789338Y-15941674D01*
X13789338Y-15941674D02*
X13798862Y-15960721D01*
X13798862Y-15960721D02*
X13817909Y-15970245D01*
X13817909Y-15970245D02*
X13836957Y-15970245D01*
X14056005Y-15836912D02*
X14056005Y-16036912D01*
X14056005Y-15846435D02*
X14075052Y-15836912D01*
X14075052Y-15836912D02*
X14113147Y-15836912D01*
X14113147Y-15836912D02*
X14132195Y-15846435D01*
X14132195Y-15846435D02*
X14141719Y-15855959D01*
X14141719Y-15855959D02*
X14151243Y-15875007D01*
X14151243Y-15875007D02*
X14151243Y-15932150D01*
X14151243Y-15932150D02*
X14141719Y-15951197D01*
X14141719Y-15951197D02*
X14132195Y-15960721D01*
X14132195Y-15960721D02*
X14113147Y-15970245D01*
X14113147Y-15970245D02*
X14075052Y-15970245D01*
X14075052Y-15970245D02*
X14056005Y-15960721D01*
X14265528Y-15970245D02*
X14246481Y-15960721D01*
X14246481Y-15960721D02*
X14236957Y-15941674D01*
X14236957Y-15941674D02*
X14236957Y-15770245D01*
X14427433Y-15970245D02*
X14427433Y-15865483D01*
X14427433Y-15865483D02*
X14417909Y-15846435D01*
X14417909Y-15846435D02*
X14398862Y-15836912D01*
X14398862Y-15836912D02*
X14360766Y-15836912D01*
X14360766Y-15836912D02*
X14341719Y-15846435D01*
X14427433Y-15960721D02*
X14408386Y-15970245D01*
X14408386Y-15970245D02*
X14360766Y-15970245D01*
X14360766Y-15970245D02*
X14341719Y-15960721D01*
X14341719Y-15960721D02*
X14332195Y-15941674D01*
X14332195Y-15941674D02*
X14332195Y-15922626D01*
X14332195Y-15922626D02*
X14341719Y-15903578D01*
X14341719Y-15903578D02*
X14360766Y-15894055D01*
X14360766Y-15894055D02*
X14408386Y-15894055D01*
X14408386Y-15894055D02*
X14427433Y-15884531D01*
X14494100Y-15836912D02*
X14570290Y-15836912D01*
X14522671Y-15770245D02*
X14522671Y-15941674D01*
X14522671Y-15941674D02*
X14532195Y-15960721D01*
X14532195Y-15960721D02*
X14551243Y-15970245D01*
X14551243Y-15970245D02*
X14570290Y-15970245D01*
X14713147Y-15960721D02*
X14694100Y-15970245D01*
X14694100Y-15970245D02*
X14656005Y-15970245D01*
X14656005Y-15970245D02*
X14636957Y-15960721D01*
X14636957Y-15960721D02*
X14627433Y-15941674D01*
X14627433Y-15941674D02*
X14627433Y-15865483D01*
X14627433Y-15865483D02*
X14636957Y-15846435D01*
X14636957Y-15846435D02*
X14656005Y-15836912D01*
X14656005Y-15836912D02*
X14694100Y-15836912D01*
X14694100Y-15836912D02*
X14713147Y-15846435D01*
X14713147Y-15846435D02*
X14722671Y-15865483D01*
X14722671Y-15865483D02*
X14722671Y-15884531D01*
X14722671Y-15884531D02*
X14627433Y-15903578D01*
X14894100Y-15970245D02*
X14894100Y-15770245D01*
X14894100Y-15960721D02*
X14875052Y-15970245D01*
X14875052Y-15970245D02*
X14836957Y-15970245D01*
X14836957Y-15970245D02*
X14817909Y-15960721D01*
X14817909Y-15960721D02*
X14808386Y-15951197D01*
X14808386Y-15951197D02*
X14798862Y-15932150D01*
X14798862Y-15932150D02*
X14798862Y-15875007D01*
X14798862Y-15875007D02*
X14808386Y-15855959D01*
X14808386Y-15855959D02*
X14817909Y-15846435D01*
X14817909Y-15846435D02*
X14836957Y-15836912D01*
X14836957Y-15836912D02*
X14875052Y-15836912D01*
X14875052Y-15836912D02*
X14894100Y-15846435D01*
X14970290Y-16046435D02*
X14979814Y-16036912D01*
X14979814Y-16036912D02*
X14998862Y-16008340D01*
X14998862Y-16008340D02*
X15008386Y-15989293D01*
X15008386Y-15989293D02*
X15017909Y-15960721D01*
X15017909Y-15960721D02*
X15027433Y-15913102D01*
X15027433Y-15913102D02*
X15027433Y-15875007D01*
X15027433Y-15875007D02*
X15017909Y-15827388D01*
X15017909Y-15827388D02*
X15008386Y-15798816D01*
X15008386Y-15798816D02*
X14998862Y-15779769D01*
X14998862Y-15779769D02*
X14979814Y-15751197D01*
X14979814Y-15751197D02*
X14970290Y-15741674D01*
M02*
