M48
; DRILL file {KiCad 9.0.3} date 2025-07-22T12:04:46-0400
; FORMAT={-:-/ absolute / metric / decimal}
; #@! TF.CreationDate,2025-07-22T12:04:46-04:00
; #@! TF.GenerationSoftware,Kicad,Pcbnew,9.0.3
; #@! TF.FileFunction,Plated,1,2,PTH
FMAT,2
METRIC
; #@! TA.AperFunction,Plated,PTH,ViaDrill
T1C0.300
; #@! TA.AperFunction,Plated,PTH,ComponentDrill
T2C0.800
; #@! TA.AperFunction,Plated,PTH,ComponentDrill
T3C0.850
; #@! TA.AperFunction,Plated,PTH,ComponentDrill
T4C0.900
%
G90
G05
T1
X147.988Y-82.971
T2
X109.0Y-66.0
X109.0Y-76.16
X116.0Y-83.0
X123.184Y-90.184
X142.46Y-57.77
X143.3Y-113.0
X145.0Y-55.23
X146.7Y-113.0
X147.54Y-57.77
X163.816Y-93.184
X171.0Y-86.0
X180.0Y-65.92
X180.0Y-76.08
T3
X134.705Y-75.0
X155.205Y-75.0
T4
X108.735Y-55.0
X111.275Y-55.0
X143.46Y-96.0
X146.0Y-96.0
X178.725Y-55.0
X181.265Y-55.0
M30
