%TF.GenerationSoftware,KiCad,Pcbnew,9.0.3*%
%TF.CreationDate,2025-07-22T12:04:46-04:00*%
%TF.ProjectId,mothers_day_necklace_8cm,6d6f7468-6572-4735-9f64-61795f6e6563,rev?*%
%TF.SameCoordinates,Original*%
%TF.FileFunction,Drillmap*%
%TF.FilePolarity,Positive*%
%FSLAX45Y45*%
G04 Gerber Fmt 4.5, Leading zero omitted, Abs format (unit mm)*
G04 Created by KiCad (PCBNEW 9.0.3) date 2025-07-22 12:04:46*
%MOMM*%
%LPD*%
G01*
G04 APERTURE LIST*
%ADD10C,0.050000*%
%ADD11C,0.200000*%
%ADD12C,0.370000*%
G04 APERTURE END LIST*
D10*
X14500000Y-12000000D02*
X18500000Y-8000000D01*
X13500000Y-5000000D02*
G75*
G02*
X15500000Y-5000000I1000000J0D01*
G01*
X10500000Y-8000000D02*
G75*
G02*
X13500000Y-5000000I1500000J1500000D01*
G01*
X15500000Y-5000000D02*
G75*
G02*
X18500000Y-8000000I1500000J-1500000D01*
G01*
X10500000Y-8000000D02*
X14500000Y-12000000D01*
D11*
D12*
X14315000Y-4315000D02*
X14685000Y-4685000D01*
X14685000Y-4315000D02*
X14315000Y-4685000D01*
D11*
X10136957Y-12313984D02*
X10136957Y-12113984D01*
X10136957Y-12113984D02*
X10184576Y-12113984D01*
X10184576Y-12113984D02*
X10213147Y-12123508D01*
X10213147Y-12123508D02*
X10232195Y-12142555D01*
X10232195Y-12142555D02*
X10241718Y-12161603D01*
X10241718Y-12161603D02*
X10251242Y-12199698D01*
X10251242Y-12199698D02*
X10251242Y-12228269D01*
X10251242Y-12228269D02*
X10241718Y-12266365D01*
X10241718Y-12266365D02*
X10232195Y-12285412D01*
X10232195Y-12285412D02*
X10213147Y-12304460D01*
X10213147Y-12304460D02*
X10184576Y-12313984D01*
X10184576Y-12313984D02*
X10136957Y-12313984D01*
X10336957Y-12313984D02*
X10336957Y-12180650D01*
X10336957Y-12218746D02*
X10346480Y-12199698D01*
X10346480Y-12199698D02*
X10356004Y-12190174D01*
X10356004Y-12190174D02*
X10375052Y-12180650D01*
X10375052Y-12180650D02*
X10394099Y-12180650D01*
X10460766Y-12313984D02*
X10460766Y-12180650D01*
X10460766Y-12113984D02*
X10451242Y-12123508D01*
X10451242Y-12123508D02*
X10460766Y-12133031D01*
X10460766Y-12133031D02*
X10470290Y-12123508D01*
X10470290Y-12123508D02*
X10460766Y-12113984D01*
X10460766Y-12113984D02*
X10460766Y-12133031D01*
X10584576Y-12313984D02*
X10565528Y-12304460D01*
X10565528Y-12304460D02*
X10556004Y-12285412D01*
X10556004Y-12285412D02*
X10556004Y-12113984D01*
X10689337Y-12313984D02*
X10670290Y-12304460D01*
X10670290Y-12304460D02*
X10660766Y-12285412D01*
X10660766Y-12285412D02*
X10660766Y-12113984D01*
X10917909Y-12313984D02*
X10917909Y-12113984D01*
X10917909Y-12113984D02*
X10984576Y-12256841D01*
X10984576Y-12256841D02*
X11051242Y-12113984D01*
X11051242Y-12113984D02*
X11051242Y-12313984D01*
X11232195Y-12313984D02*
X11232195Y-12209222D01*
X11232195Y-12209222D02*
X11222671Y-12190174D01*
X11222671Y-12190174D02*
X11203623Y-12180650D01*
X11203623Y-12180650D02*
X11165528Y-12180650D01*
X11165528Y-12180650D02*
X11146480Y-12190174D01*
X11232195Y-12304460D02*
X11213147Y-12313984D01*
X11213147Y-12313984D02*
X11165528Y-12313984D01*
X11165528Y-12313984D02*
X11146480Y-12304460D01*
X11146480Y-12304460D02*
X11136957Y-12285412D01*
X11136957Y-12285412D02*
X11136957Y-12266365D01*
X11136957Y-12266365D02*
X11146480Y-12247317D01*
X11146480Y-12247317D02*
X11165528Y-12237793D01*
X11165528Y-12237793D02*
X11213147Y-12237793D01*
X11213147Y-12237793D02*
X11232195Y-12228269D01*
X11327433Y-12180650D02*
X11327433Y-12380650D01*
X11327433Y-12190174D02*
X11346480Y-12180650D01*
X11346480Y-12180650D02*
X11384576Y-12180650D01*
X11384576Y-12180650D02*
X11403623Y-12190174D01*
X11403623Y-12190174D02*
X11413147Y-12199698D01*
X11413147Y-12199698D02*
X11422671Y-12218746D01*
X11422671Y-12218746D02*
X11422671Y-12275888D01*
X11422671Y-12275888D02*
X11413147Y-12294936D01*
X11413147Y-12294936D02*
X11403623Y-12304460D01*
X11403623Y-12304460D02*
X11384576Y-12313984D01*
X11384576Y-12313984D02*
X11346480Y-12313984D01*
X11346480Y-12313984D02*
X11327433Y-12304460D01*
X11508385Y-12294936D02*
X11517909Y-12304460D01*
X11517909Y-12304460D02*
X11508385Y-12313984D01*
X11508385Y-12313984D02*
X11498861Y-12304460D01*
X11498861Y-12304460D02*
X11508385Y-12294936D01*
X11508385Y-12294936D02*
X11508385Y-12313984D01*
X11508385Y-12190174D02*
X11517909Y-12199698D01*
X11517909Y-12199698D02*
X11508385Y-12209222D01*
X11508385Y-12209222D02*
X11498861Y-12199698D01*
X11498861Y-12199698D02*
X11508385Y-12190174D01*
X11508385Y-12190174D02*
X11508385Y-12209222D01*
X9676180Y-12542500D02*
X9876180Y-12742500D01*
X9876180Y-12542500D02*
X9676180Y-12742500D01*
X10117909Y-12533984D02*
X10241718Y-12533984D01*
X10241718Y-12533984D02*
X10175052Y-12610174D01*
X10175052Y-12610174D02*
X10203623Y-12610174D01*
X10203623Y-12610174D02*
X10222671Y-12619698D01*
X10222671Y-12619698D02*
X10232195Y-12629222D01*
X10232195Y-12629222D02*
X10241718Y-12648269D01*
X10241718Y-12648269D02*
X10241718Y-12695888D01*
X10241718Y-12695888D02*
X10232195Y-12714936D01*
X10232195Y-12714936D02*
X10222671Y-12724460D01*
X10222671Y-12724460D02*
X10203623Y-12733984D01*
X10203623Y-12733984D02*
X10146480Y-12733984D01*
X10146480Y-12733984D02*
X10127433Y-12724460D01*
X10127433Y-12724460D02*
X10117909Y-12714936D01*
X10327433Y-12714936D02*
X10336957Y-12724460D01*
X10336957Y-12724460D02*
X10327433Y-12733984D01*
X10327433Y-12733984D02*
X10317909Y-12724460D01*
X10317909Y-12724460D02*
X10327433Y-12714936D01*
X10327433Y-12714936D02*
X10327433Y-12733984D01*
X10403623Y-12533984D02*
X10536957Y-12533984D01*
X10536957Y-12533984D02*
X10451242Y-12733984D01*
X10651242Y-12533984D02*
X10670290Y-12533984D01*
X10670290Y-12533984D02*
X10689338Y-12543508D01*
X10689338Y-12543508D02*
X10698861Y-12553031D01*
X10698861Y-12553031D02*
X10708385Y-12572079D01*
X10708385Y-12572079D02*
X10717909Y-12610174D01*
X10717909Y-12610174D02*
X10717909Y-12657793D01*
X10717909Y-12657793D02*
X10708385Y-12695888D01*
X10708385Y-12695888D02*
X10698861Y-12714936D01*
X10698861Y-12714936D02*
X10689338Y-12724460D01*
X10689338Y-12724460D02*
X10670290Y-12733984D01*
X10670290Y-12733984D02*
X10651242Y-12733984D01*
X10651242Y-12733984D02*
X10632195Y-12724460D01*
X10632195Y-12724460D02*
X10622671Y-12714936D01*
X10622671Y-12714936D02*
X10613147Y-12695888D01*
X10613147Y-12695888D02*
X10603623Y-12657793D01*
X10603623Y-12657793D02*
X10603623Y-12610174D01*
X10603623Y-12610174D02*
X10613147Y-12572079D01*
X10613147Y-12572079D02*
X10622671Y-12553031D01*
X10622671Y-12553031D02*
X10632195Y-12543508D01*
X10632195Y-12543508D02*
X10651242Y-12533984D01*
X10841718Y-12533984D02*
X10860766Y-12533984D01*
X10860766Y-12533984D02*
X10879814Y-12543508D01*
X10879814Y-12543508D02*
X10889338Y-12553031D01*
X10889338Y-12553031D02*
X10898861Y-12572079D01*
X10898861Y-12572079D02*
X10908385Y-12610174D01*
X10908385Y-12610174D02*
X10908385Y-12657793D01*
X10908385Y-12657793D02*
X10898861Y-12695888D01*
X10898861Y-12695888D02*
X10889338Y-12714936D01*
X10889338Y-12714936D02*
X10879814Y-12724460D01*
X10879814Y-12724460D02*
X10860766Y-12733984D01*
X10860766Y-12733984D02*
X10841718Y-12733984D01*
X10841718Y-12733984D02*
X10822671Y-12724460D01*
X10822671Y-12724460D02*
X10813147Y-12714936D01*
X10813147Y-12714936D02*
X10803623Y-12695888D01*
X10803623Y-12695888D02*
X10794099Y-12657793D01*
X10794099Y-12657793D02*
X10794099Y-12610174D01*
X10794099Y-12610174D02*
X10803623Y-12572079D01*
X10803623Y-12572079D02*
X10813147Y-12553031D01*
X10813147Y-12553031D02*
X10822671Y-12543508D01*
X10822671Y-12543508D02*
X10841718Y-12533984D01*
X10994099Y-12733984D02*
X10994099Y-12600650D01*
X10994099Y-12619698D02*
X11003623Y-12610174D01*
X11003623Y-12610174D02*
X11022671Y-12600650D01*
X11022671Y-12600650D02*
X11051242Y-12600650D01*
X11051242Y-12600650D02*
X11070290Y-12610174D01*
X11070290Y-12610174D02*
X11079814Y-12629222D01*
X11079814Y-12629222D02*
X11079814Y-12733984D01*
X11079814Y-12629222D02*
X11089338Y-12610174D01*
X11089338Y-12610174D02*
X11108385Y-12600650D01*
X11108385Y-12600650D02*
X11136957Y-12600650D01*
X11136957Y-12600650D02*
X11156004Y-12610174D01*
X11156004Y-12610174D02*
X11165528Y-12629222D01*
X11165528Y-12629222D02*
X11165528Y-12733984D01*
X11260766Y-12733984D02*
X11260766Y-12600650D01*
X11260766Y-12619698D02*
X11270290Y-12610174D01*
X11270290Y-12610174D02*
X11289337Y-12600650D01*
X11289337Y-12600650D02*
X11317909Y-12600650D01*
X11317909Y-12600650D02*
X11336957Y-12610174D01*
X11336957Y-12610174D02*
X11346480Y-12629222D01*
X11346480Y-12629222D02*
X11346480Y-12733984D01*
X11346480Y-12629222D02*
X11356004Y-12610174D01*
X11356004Y-12610174D02*
X11375052Y-12600650D01*
X11375052Y-12600650D02*
X11403623Y-12600650D01*
X11403623Y-12600650D02*
X11422671Y-12610174D01*
X11422671Y-12610174D02*
X11432195Y-12629222D01*
X11432195Y-12629222D02*
X11432195Y-12733984D01*
X11822671Y-12524460D02*
X11651242Y-12781603D01*
X12079814Y-12533984D02*
X12098861Y-12533984D01*
X12098861Y-12533984D02*
X12117909Y-12543508D01*
X12117909Y-12543508D02*
X12127433Y-12553031D01*
X12127433Y-12553031D02*
X12136957Y-12572079D01*
X12136957Y-12572079D02*
X12146480Y-12610174D01*
X12146480Y-12610174D02*
X12146480Y-12657793D01*
X12146480Y-12657793D02*
X12136957Y-12695888D01*
X12136957Y-12695888D02*
X12127433Y-12714936D01*
X12127433Y-12714936D02*
X12117909Y-12724460D01*
X12117909Y-12724460D02*
X12098861Y-12733984D01*
X12098861Y-12733984D02*
X12079814Y-12733984D01*
X12079814Y-12733984D02*
X12060766Y-12724460D01*
X12060766Y-12724460D02*
X12051242Y-12714936D01*
X12051242Y-12714936D02*
X12041719Y-12695888D01*
X12041719Y-12695888D02*
X12032195Y-12657793D01*
X12032195Y-12657793D02*
X12032195Y-12610174D01*
X12032195Y-12610174D02*
X12041719Y-12572079D01*
X12041719Y-12572079D02*
X12051242Y-12553031D01*
X12051242Y-12553031D02*
X12060766Y-12543508D01*
X12060766Y-12543508D02*
X12079814Y-12533984D01*
X12232195Y-12714936D02*
X12241719Y-12724460D01*
X12241719Y-12724460D02*
X12232195Y-12733984D01*
X12232195Y-12733984D02*
X12222671Y-12724460D01*
X12222671Y-12724460D02*
X12232195Y-12714936D01*
X12232195Y-12714936D02*
X12232195Y-12733984D01*
X12432195Y-12733984D02*
X12317909Y-12733984D01*
X12375052Y-12733984D02*
X12375052Y-12533984D01*
X12375052Y-12533984D02*
X12356004Y-12562555D01*
X12356004Y-12562555D02*
X12336957Y-12581603D01*
X12336957Y-12581603D02*
X12317909Y-12591127D01*
X12603623Y-12600650D02*
X12603623Y-12733984D01*
X12556004Y-12524460D02*
X12508385Y-12667317D01*
X12508385Y-12667317D02*
X12632195Y-12667317D01*
X12803623Y-12533984D02*
X12708385Y-12533984D01*
X12708385Y-12533984D02*
X12698861Y-12629222D01*
X12698861Y-12629222D02*
X12708385Y-12619698D01*
X12708385Y-12619698D02*
X12727433Y-12610174D01*
X12727433Y-12610174D02*
X12775052Y-12610174D01*
X12775052Y-12610174D02*
X12794100Y-12619698D01*
X12794100Y-12619698D02*
X12803623Y-12629222D01*
X12803623Y-12629222D02*
X12813147Y-12648269D01*
X12813147Y-12648269D02*
X12813147Y-12695888D01*
X12813147Y-12695888D02*
X12803623Y-12714936D01*
X12803623Y-12714936D02*
X12794100Y-12724460D01*
X12794100Y-12724460D02*
X12775052Y-12733984D01*
X12775052Y-12733984D02*
X12727433Y-12733984D01*
X12727433Y-12733984D02*
X12708385Y-12724460D01*
X12708385Y-12724460D02*
X12698861Y-12714936D01*
X12879814Y-12533984D02*
X13013147Y-12533984D01*
X13013147Y-12533984D02*
X12927433Y-12733984D01*
X13079814Y-12533984D02*
X13079814Y-12572079D01*
X13156004Y-12533984D02*
X13156004Y-12572079D01*
X13451243Y-12810174D02*
X13441719Y-12800650D01*
X13441719Y-12800650D02*
X13422671Y-12772079D01*
X13422671Y-12772079D02*
X13413147Y-12753031D01*
X13413147Y-12753031D02*
X13403623Y-12724460D01*
X13403623Y-12724460D02*
X13394100Y-12676841D01*
X13394100Y-12676841D02*
X13394100Y-12638746D01*
X13394100Y-12638746D02*
X13403623Y-12591127D01*
X13403623Y-12591127D02*
X13413147Y-12562555D01*
X13413147Y-12562555D02*
X13422671Y-12543508D01*
X13422671Y-12543508D02*
X13441719Y-12514936D01*
X13441719Y-12514936D02*
X13451243Y-12505412D01*
X13632195Y-12733984D02*
X13517909Y-12733984D01*
X13575052Y-12733984D02*
X13575052Y-12533984D01*
X13575052Y-12533984D02*
X13556004Y-12562555D01*
X13556004Y-12562555D02*
X13536957Y-12581603D01*
X13536957Y-12581603D02*
X13517909Y-12591127D01*
X13870290Y-12733984D02*
X13870290Y-12533984D01*
X13956004Y-12733984D02*
X13956004Y-12629222D01*
X13956004Y-12629222D02*
X13946481Y-12610174D01*
X13946481Y-12610174D02*
X13927433Y-12600650D01*
X13927433Y-12600650D02*
X13898862Y-12600650D01*
X13898862Y-12600650D02*
X13879814Y-12610174D01*
X13879814Y-12610174D02*
X13870290Y-12619698D01*
X14079814Y-12733984D02*
X14060766Y-12724460D01*
X14060766Y-12724460D02*
X14051243Y-12714936D01*
X14051243Y-12714936D02*
X14041719Y-12695888D01*
X14041719Y-12695888D02*
X14041719Y-12638746D01*
X14041719Y-12638746D02*
X14051243Y-12619698D01*
X14051243Y-12619698D02*
X14060766Y-12610174D01*
X14060766Y-12610174D02*
X14079814Y-12600650D01*
X14079814Y-12600650D02*
X14108385Y-12600650D01*
X14108385Y-12600650D02*
X14127433Y-12610174D01*
X14127433Y-12610174D02*
X14136957Y-12619698D01*
X14136957Y-12619698D02*
X14146481Y-12638746D01*
X14146481Y-12638746D02*
X14146481Y-12695888D01*
X14146481Y-12695888D02*
X14136957Y-12714936D01*
X14136957Y-12714936D02*
X14127433Y-12724460D01*
X14127433Y-12724460D02*
X14108385Y-12733984D01*
X14108385Y-12733984D02*
X14079814Y-12733984D01*
X14260766Y-12733984D02*
X14241719Y-12724460D01*
X14241719Y-12724460D02*
X14232195Y-12705412D01*
X14232195Y-12705412D02*
X14232195Y-12533984D01*
X14413147Y-12724460D02*
X14394100Y-12733984D01*
X14394100Y-12733984D02*
X14356004Y-12733984D01*
X14356004Y-12733984D02*
X14336957Y-12724460D01*
X14336957Y-12724460D02*
X14327433Y-12705412D01*
X14327433Y-12705412D02*
X14327433Y-12629222D01*
X14327433Y-12629222D02*
X14336957Y-12610174D01*
X14336957Y-12610174D02*
X14356004Y-12600650D01*
X14356004Y-12600650D02*
X14394100Y-12600650D01*
X14394100Y-12600650D02*
X14413147Y-12610174D01*
X14413147Y-12610174D02*
X14422671Y-12629222D01*
X14422671Y-12629222D02*
X14422671Y-12648269D01*
X14422671Y-12648269D02*
X14327433Y-12667317D01*
X14489338Y-12810174D02*
X14498862Y-12800650D01*
X14498862Y-12800650D02*
X14517909Y-12772079D01*
X14517909Y-12772079D02*
X14527433Y-12753031D01*
X14527433Y-12753031D02*
X14536957Y-12724460D01*
X14536957Y-12724460D02*
X14546481Y-12676841D01*
X14546481Y-12676841D02*
X14546481Y-12638746D01*
X14546481Y-12638746D02*
X14536957Y-12591127D01*
X14536957Y-12591127D02*
X14527433Y-12562555D01*
X14527433Y-12562555D02*
X14517909Y-12543508D01*
X14517909Y-12543508D02*
X14498862Y-12514936D01*
X14498862Y-12514936D02*
X14489338Y-12505412D01*
X14851243Y-12810174D02*
X14841719Y-12800650D01*
X14841719Y-12800650D02*
X14822671Y-12772079D01*
X14822671Y-12772079D02*
X14813147Y-12753031D01*
X14813147Y-12753031D02*
X14803624Y-12724460D01*
X14803624Y-12724460D02*
X14794100Y-12676841D01*
X14794100Y-12676841D02*
X14794100Y-12638746D01*
X14794100Y-12638746D02*
X14803624Y-12591127D01*
X14803624Y-12591127D02*
X14813147Y-12562555D01*
X14813147Y-12562555D02*
X14822671Y-12543508D01*
X14822671Y-12543508D02*
X14841719Y-12514936D01*
X14841719Y-12514936D02*
X14851243Y-12505412D01*
X14927433Y-12600650D02*
X14927433Y-12733984D01*
X14927433Y-12619698D02*
X14936957Y-12610174D01*
X14936957Y-12610174D02*
X14956004Y-12600650D01*
X14956004Y-12600650D02*
X14984576Y-12600650D01*
X14984576Y-12600650D02*
X15003624Y-12610174D01*
X15003624Y-12610174D02*
X15013147Y-12629222D01*
X15013147Y-12629222D02*
X15013147Y-12733984D01*
X15136957Y-12733984D02*
X15117909Y-12724460D01*
X15117909Y-12724460D02*
X15108385Y-12714936D01*
X15108385Y-12714936D02*
X15098862Y-12695888D01*
X15098862Y-12695888D02*
X15098862Y-12638746D01*
X15098862Y-12638746D02*
X15108385Y-12619698D01*
X15108385Y-12619698D02*
X15117909Y-12610174D01*
X15117909Y-12610174D02*
X15136957Y-12600650D01*
X15136957Y-12600650D02*
X15165528Y-12600650D01*
X15165528Y-12600650D02*
X15184576Y-12610174D01*
X15184576Y-12610174D02*
X15194100Y-12619698D01*
X15194100Y-12619698D02*
X15203624Y-12638746D01*
X15203624Y-12638746D02*
X15203624Y-12695888D01*
X15203624Y-12695888D02*
X15194100Y-12714936D01*
X15194100Y-12714936D02*
X15184576Y-12724460D01*
X15184576Y-12724460D02*
X15165528Y-12733984D01*
X15165528Y-12733984D02*
X15136957Y-12733984D01*
X15260766Y-12600650D02*
X15336957Y-12600650D01*
X15289338Y-12533984D02*
X15289338Y-12705412D01*
X15289338Y-12705412D02*
X15298862Y-12724460D01*
X15298862Y-12724460D02*
X15317909Y-12733984D01*
X15317909Y-12733984D02*
X15336957Y-12733984D01*
X15556005Y-12600650D02*
X15556005Y-12800650D01*
X15556005Y-12610174D02*
X15575052Y-12600650D01*
X15575052Y-12600650D02*
X15613147Y-12600650D01*
X15613147Y-12600650D02*
X15632195Y-12610174D01*
X15632195Y-12610174D02*
X15641719Y-12619698D01*
X15641719Y-12619698D02*
X15651243Y-12638746D01*
X15651243Y-12638746D02*
X15651243Y-12695888D01*
X15651243Y-12695888D02*
X15641719Y-12714936D01*
X15641719Y-12714936D02*
X15632195Y-12724460D01*
X15632195Y-12724460D02*
X15613147Y-12733984D01*
X15613147Y-12733984D02*
X15575052Y-12733984D01*
X15575052Y-12733984D02*
X15556005Y-12724460D01*
X15765528Y-12733984D02*
X15746481Y-12724460D01*
X15746481Y-12724460D02*
X15736957Y-12705412D01*
X15736957Y-12705412D02*
X15736957Y-12533984D01*
X15927433Y-12733984D02*
X15927433Y-12629222D01*
X15927433Y-12629222D02*
X15917909Y-12610174D01*
X15917909Y-12610174D02*
X15898862Y-12600650D01*
X15898862Y-12600650D02*
X15860766Y-12600650D01*
X15860766Y-12600650D02*
X15841719Y-12610174D01*
X15927433Y-12724460D02*
X15908386Y-12733984D01*
X15908386Y-12733984D02*
X15860766Y-12733984D01*
X15860766Y-12733984D02*
X15841719Y-12724460D01*
X15841719Y-12724460D02*
X15832195Y-12705412D01*
X15832195Y-12705412D02*
X15832195Y-12686365D01*
X15832195Y-12686365D02*
X15841719Y-12667317D01*
X15841719Y-12667317D02*
X15860766Y-12657793D01*
X15860766Y-12657793D02*
X15908386Y-12657793D01*
X15908386Y-12657793D02*
X15927433Y-12648269D01*
X15994100Y-12600650D02*
X16070290Y-12600650D01*
X16022671Y-12533984D02*
X16022671Y-12705412D01*
X16022671Y-12705412D02*
X16032195Y-12724460D01*
X16032195Y-12724460D02*
X16051243Y-12733984D01*
X16051243Y-12733984D02*
X16070290Y-12733984D01*
X16213147Y-12724460D02*
X16194100Y-12733984D01*
X16194100Y-12733984D02*
X16156005Y-12733984D01*
X16156005Y-12733984D02*
X16136957Y-12724460D01*
X16136957Y-12724460D02*
X16127433Y-12705412D01*
X16127433Y-12705412D02*
X16127433Y-12629222D01*
X16127433Y-12629222D02*
X16136957Y-12610174D01*
X16136957Y-12610174D02*
X16156005Y-12600650D01*
X16156005Y-12600650D02*
X16194100Y-12600650D01*
X16194100Y-12600650D02*
X16213147Y-12610174D01*
X16213147Y-12610174D02*
X16222671Y-12629222D01*
X16222671Y-12629222D02*
X16222671Y-12648269D01*
X16222671Y-12648269D02*
X16127433Y-12667317D01*
X16394100Y-12733984D02*
X16394100Y-12533984D01*
X16394100Y-12724460D02*
X16375052Y-12733984D01*
X16375052Y-12733984D02*
X16336957Y-12733984D01*
X16336957Y-12733984D02*
X16317909Y-12724460D01*
X16317909Y-12724460D02*
X16308386Y-12714936D01*
X16308386Y-12714936D02*
X16298862Y-12695888D01*
X16298862Y-12695888D02*
X16298862Y-12638746D01*
X16298862Y-12638746D02*
X16308386Y-12619698D01*
X16308386Y-12619698D02*
X16317909Y-12610174D01*
X16317909Y-12610174D02*
X16336957Y-12600650D01*
X16336957Y-12600650D02*
X16375052Y-12600650D01*
X16375052Y-12600650D02*
X16394100Y-12610174D01*
X16470290Y-12810174D02*
X16479814Y-12800650D01*
X16479814Y-12800650D02*
X16498862Y-12772079D01*
X16498862Y-12772079D02*
X16508386Y-12753031D01*
X16508386Y-12753031D02*
X16517909Y-12724460D01*
X16517909Y-12724460D02*
X16527433Y-12676841D01*
X16527433Y-12676841D02*
X16527433Y-12638746D01*
X16527433Y-12638746D02*
X16517909Y-12591127D01*
X16517909Y-12591127D02*
X16508386Y-12562555D01*
X16508386Y-12562555D02*
X16498862Y-12543508D01*
X16498862Y-12543508D02*
X16479814Y-12514936D01*
X16479814Y-12514936D02*
X16470290Y-12505412D01*
M02*
