%TF.GenerationSoftware,KiCad,Pcbnew,9.0.3*%
%TF.CreationDate,2025-07-22T12:04:46-04:00*%
%TF.ProjectId,mothers_day_necklace_8cm,6d6f7468-6572-4735-9f64-61795f6e6563,rev?*%
%TF.SameCoordinates,Original*%
%TF.FileFunction,Drillmap*%
%TF.FilePolarity,Positive*%
%FSLAX45Y45*%
G04 Gerber Fmt 4.5, Leading zero omitted, Abs format (unit mm)*
G04 Created by KiCad (PCBNEW 9.0.3) date 2025-07-22 12:04:46*
%MOMM*%
%LPD*%
G01*
G04 APERTURE LIST*
%ADD10C,0.050000*%
%ADD11C,0.200000*%
%ADD12C,0.100000*%
G04 APERTURE END LIST*
D10*
X14500000Y-12000000D02*
X18500000Y-8000000D01*
X13500000Y-5000000D02*
G75*
G02*
X15500000Y-5000000I1000000J0D01*
G01*
X10500000Y-8000000D02*
G75*
G02*
X13500000Y-5000000I1500000J1500000D01*
G01*
X15500000Y-5000000D02*
G75*
G02*
X18500000Y-8000000I1500000J-1500000D01*
G01*
X10500000Y-8000000D02*
X14500000Y-12000000D01*
D11*
D12*
X14783800Y-8282120D02*
X14813800Y-8312120D01*
X14813800Y-8282120D02*
X14783800Y-8312120D01*
X10940000Y-6600000D02*
G75*
G02*
X10860000Y-6600000I-40000J0D01*
G01*
X10860000Y-6600000D02*
G75*
G02*
X10940000Y-6600000I40000J0D01*
G01*
X10940000Y-7616000D02*
G75*
G02*
X10860000Y-7616000I-40000J0D01*
G01*
X10860000Y-7616000D02*
G75*
G02*
X10940000Y-7616000I40000J0D01*
G01*
X11640000Y-8300000D02*
G75*
G02*
X11560000Y-8300000I-40000J0D01*
G01*
X11560000Y-8300000D02*
G75*
G02*
X11640000Y-8300000I40000J0D01*
G01*
X12358420Y-9018421D02*
G75*
G02*
X12278420Y-9018421I-40000J0D01*
G01*
X12278420Y-9018421D02*
G75*
G02*
X12358420Y-9018421I40000J0D01*
G01*
X14286000Y-5777000D02*
G75*
G02*
X14206000Y-5777000I-40000J0D01*
G01*
X14206000Y-5777000D02*
G75*
G02*
X14286000Y-5777000I40000J0D01*
G01*
X14370000Y-11300000D02*
G75*
G02*
X14290000Y-11300000I-40000J0D01*
G01*
X14290000Y-11300000D02*
G75*
G02*
X14370000Y-11300000I40000J0D01*
G01*
X14540000Y-5523000D02*
G75*
G02*
X14460000Y-5523000I-40000J0D01*
G01*
X14460000Y-5523000D02*
G75*
G02*
X14540000Y-5523000I40000J0D01*
G01*
X14710000Y-11300000D02*
G75*
G02*
X14630000Y-11300000I-40000J0D01*
G01*
X14630000Y-11300000D02*
G75*
G02*
X14710000Y-11300000I40000J0D01*
G01*
X14794000Y-5777000D02*
G75*
G02*
X14714000Y-5777000I-40000J0D01*
G01*
X14714000Y-5777000D02*
G75*
G02*
X14794000Y-5777000I40000J0D01*
G01*
X16421580Y-9318420D02*
G75*
G02*
X16341580Y-9318420I-40000J0D01*
G01*
X16341580Y-9318420D02*
G75*
G02*
X16421580Y-9318420I40000J0D01*
G01*
X17140000Y-8600000D02*
G75*
G02*
X17060000Y-8600000I-40000J0D01*
G01*
X17060000Y-8600000D02*
G75*
G02*
X17140000Y-8600000I40000J0D01*
G01*
X18040000Y-6592000D02*
G75*
G02*
X17960000Y-6592000I-40000J0D01*
G01*
X17960000Y-6592000D02*
G75*
G02*
X18040000Y-6592000I40000J0D01*
G01*
X18040000Y-7608000D02*
G75*
G02*
X17960000Y-7608000I-40000J0D01*
G01*
X17960000Y-7608000D02*
G75*
G02*
X18040000Y-7608000I40000J0D01*
G01*
X13470500Y-7457490D02*
X13470500Y-7542490D01*
X13428000Y-7499990D02*
X13513000Y-7499990D01*
X15520500Y-7457490D02*
X15520500Y-7542490D01*
X15478000Y-7499990D02*
X15563000Y-7499990D01*
X10905320Y-5531820D02*
X10905320Y-5468180D01*
X10841680Y-5468180D01*
X10841680Y-5531820D01*
X10905320Y-5531820D01*
X11159320Y-5531820D02*
X11159320Y-5468180D01*
X11095680Y-5468180D01*
X11095680Y-5531820D01*
X11159320Y-5531820D01*
X14377820Y-9631820D02*
X14377820Y-9568180D01*
X14314180Y-9568180D01*
X14314180Y-9631820D01*
X14377820Y-9631820D01*
X14631820Y-9631820D02*
X14631820Y-9568180D01*
X14568180Y-9568180D01*
X14568180Y-9631820D01*
X14631820Y-9631820D01*
X17904320Y-5531820D02*
X17904320Y-5468180D01*
X17840680Y-5468180D01*
X17840680Y-5531820D01*
X17904320Y-5531820D01*
X18158320Y-5531820D02*
X18158320Y-5468180D01*
X18094680Y-5468180D01*
X18094680Y-5531820D01*
X18158320Y-5531820D01*
D11*
X10136957Y-12313984D02*
X10136957Y-12113984D01*
X10136957Y-12113984D02*
X10184576Y-12113984D01*
X10184576Y-12113984D02*
X10213147Y-12123508D01*
X10213147Y-12123508D02*
X10232195Y-12142555D01*
X10232195Y-12142555D02*
X10241718Y-12161603D01*
X10241718Y-12161603D02*
X10251242Y-12199698D01*
X10251242Y-12199698D02*
X10251242Y-12228269D01*
X10251242Y-12228269D02*
X10241718Y-12266365D01*
X10241718Y-12266365D02*
X10232195Y-12285412D01*
X10232195Y-12285412D02*
X10213147Y-12304460D01*
X10213147Y-12304460D02*
X10184576Y-12313984D01*
X10184576Y-12313984D02*
X10136957Y-12313984D01*
X10336957Y-12313984D02*
X10336957Y-12180650D01*
X10336957Y-12218746D02*
X10346480Y-12199698D01*
X10346480Y-12199698D02*
X10356004Y-12190174D01*
X10356004Y-12190174D02*
X10375052Y-12180650D01*
X10375052Y-12180650D02*
X10394099Y-12180650D01*
X10460766Y-12313984D02*
X10460766Y-12180650D01*
X10460766Y-12113984D02*
X10451242Y-12123508D01*
X10451242Y-12123508D02*
X10460766Y-12133031D01*
X10460766Y-12133031D02*
X10470290Y-12123508D01*
X10470290Y-12123508D02*
X10460766Y-12113984D01*
X10460766Y-12113984D02*
X10460766Y-12133031D01*
X10584576Y-12313984D02*
X10565528Y-12304460D01*
X10565528Y-12304460D02*
X10556004Y-12285412D01*
X10556004Y-12285412D02*
X10556004Y-12113984D01*
X10689337Y-12313984D02*
X10670290Y-12304460D01*
X10670290Y-12304460D02*
X10660766Y-12285412D01*
X10660766Y-12285412D02*
X10660766Y-12113984D01*
X10917909Y-12313984D02*
X10917909Y-12113984D01*
X10917909Y-12113984D02*
X10984576Y-12256841D01*
X10984576Y-12256841D02*
X11051242Y-12113984D01*
X11051242Y-12113984D02*
X11051242Y-12313984D01*
X11232195Y-12313984D02*
X11232195Y-12209222D01*
X11232195Y-12209222D02*
X11222671Y-12190174D01*
X11222671Y-12190174D02*
X11203623Y-12180650D01*
X11203623Y-12180650D02*
X11165528Y-12180650D01*
X11165528Y-12180650D02*
X11146480Y-12190174D01*
X11232195Y-12304460D02*
X11213147Y-12313984D01*
X11213147Y-12313984D02*
X11165528Y-12313984D01*
X11165528Y-12313984D02*
X11146480Y-12304460D01*
X11146480Y-12304460D02*
X11136957Y-12285412D01*
X11136957Y-12285412D02*
X11136957Y-12266365D01*
X11136957Y-12266365D02*
X11146480Y-12247317D01*
X11146480Y-12247317D02*
X11165528Y-12237793D01*
X11165528Y-12237793D02*
X11213147Y-12237793D01*
X11213147Y-12237793D02*
X11232195Y-12228269D01*
X11327433Y-12180650D02*
X11327433Y-12380650D01*
X11327433Y-12190174D02*
X11346480Y-12180650D01*
X11346480Y-12180650D02*
X11384576Y-12180650D01*
X11384576Y-12180650D02*
X11403623Y-12190174D01*
X11403623Y-12190174D02*
X11413147Y-12199698D01*
X11413147Y-12199698D02*
X11422671Y-12218746D01*
X11422671Y-12218746D02*
X11422671Y-12275888D01*
X11422671Y-12275888D02*
X11413147Y-12294936D01*
X11413147Y-12294936D02*
X11403623Y-12304460D01*
X11403623Y-12304460D02*
X11384576Y-12313984D01*
X11384576Y-12313984D02*
X11346480Y-12313984D01*
X11346480Y-12313984D02*
X11327433Y-12304460D01*
X11508385Y-12294936D02*
X11517909Y-12304460D01*
X11517909Y-12304460D02*
X11508385Y-12313984D01*
X11508385Y-12313984D02*
X11498861Y-12304460D01*
X11498861Y-12304460D02*
X11508385Y-12294936D01*
X11508385Y-12294936D02*
X11508385Y-12313984D01*
X11508385Y-12190174D02*
X11517909Y-12199698D01*
X11517909Y-12199698D02*
X11508385Y-12209222D01*
X11508385Y-12209222D02*
X11498861Y-12199698D01*
X11498861Y-12199698D02*
X11508385Y-12190174D01*
X11508385Y-12190174D02*
X11508385Y-12209222D01*
D12*
X9846180Y-12627500D02*
X9876180Y-12657500D01*
X9876180Y-12627500D02*
X9846180Y-12657500D01*
D11*
X10175052Y-12533984D02*
X10194099Y-12533984D01*
X10194099Y-12533984D02*
X10213147Y-12543508D01*
X10213147Y-12543508D02*
X10222671Y-12553031D01*
X10222671Y-12553031D02*
X10232195Y-12572079D01*
X10232195Y-12572079D02*
X10241718Y-12610174D01*
X10241718Y-12610174D02*
X10241718Y-12657793D01*
X10241718Y-12657793D02*
X10232195Y-12695888D01*
X10232195Y-12695888D02*
X10222671Y-12714936D01*
X10222671Y-12714936D02*
X10213147Y-12724460D01*
X10213147Y-12724460D02*
X10194099Y-12733984D01*
X10194099Y-12733984D02*
X10175052Y-12733984D01*
X10175052Y-12733984D02*
X10156004Y-12724460D01*
X10156004Y-12724460D02*
X10146480Y-12714936D01*
X10146480Y-12714936D02*
X10136957Y-12695888D01*
X10136957Y-12695888D02*
X10127433Y-12657793D01*
X10127433Y-12657793D02*
X10127433Y-12610174D01*
X10127433Y-12610174D02*
X10136957Y-12572079D01*
X10136957Y-12572079D02*
X10146480Y-12553031D01*
X10146480Y-12553031D02*
X10156004Y-12543508D01*
X10156004Y-12543508D02*
X10175052Y-12533984D01*
X10327433Y-12714936D02*
X10336957Y-12724460D01*
X10336957Y-12724460D02*
X10327433Y-12733984D01*
X10327433Y-12733984D02*
X10317909Y-12724460D01*
X10317909Y-12724460D02*
X10327433Y-12714936D01*
X10327433Y-12714936D02*
X10327433Y-12733984D01*
X10403623Y-12533984D02*
X10527433Y-12533984D01*
X10527433Y-12533984D02*
X10460766Y-12610174D01*
X10460766Y-12610174D02*
X10489338Y-12610174D01*
X10489338Y-12610174D02*
X10508385Y-12619698D01*
X10508385Y-12619698D02*
X10517909Y-12629222D01*
X10517909Y-12629222D02*
X10527433Y-12648269D01*
X10527433Y-12648269D02*
X10527433Y-12695888D01*
X10527433Y-12695888D02*
X10517909Y-12714936D01*
X10517909Y-12714936D02*
X10508385Y-12724460D01*
X10508385Y-12724460D02*
X10489338Y-12733984D01*
X10489338Y-12733984D02*
X10432195Y-12733984D01*
X10432195Y-12733984D02*
X10413147Y-12724460D01*
X10413147Y-12724460D02*
X10403623Y-12714936D01*
X10651242Y-12533984D02*
X10670290Y-12533984D01*
X10670290Y-12533984D02*
X10689338Y-12543508D01*
X10689338Y-12543508D02*
X10698861Y-12553031D01*
X10698861Y-12553031D02*
X10708385Y-12572079D01*
X10708385Y-12572079D02*
X10717909Y-12610174D01*
X10717909Y-12610174D02*
X10717909Y-12657793D01*
X10717909Y-12657793D02*
X10708385Y-12695888D01*
X10708385Y-12695888D02*
X10698861Y-12714936D01*
X10698861Y-12714936D02*
X10689338Y-12724460D01*
X10689338Y-12724460D02*
X10670290Y-12733984D01*
X10670290Y-12733984D02*
X10651242Y-12733984D01*
X10651242Y-12733984D02*
X10632195Y-12724460D01*
X10632195Y-12724460D02*
X10622671Y-12714936D01*
X10622671Y-12714936D02*
X10613147Y-12695888D01*
X10613147Y-12695888D02*
X10603623Y-12657793D01*
X10603623Y-12657793D02*
X10603623Y-12610174D01*
X10603623Y-12610174D02*
X10613147Y-12572079D01*
X10613147Y-12572079D02*
X10622671Y-12553031D01*
X10622671Y-12553031D02*
X10632195Y-12543508D01*
X10632195Y-12543508D02*
X10651242Y-12533984D01*
X10841718Y-12533984D02*
X10860766Y-12533984D01*
X10860766Y-12533984D02*
X10879814Y-12543508D01*
X10879814Y-12543508D02*
X10889338Y-12553031D01*
X10889338Y-12553031D02*
X10898861Y-12572079D01*
X10898861Y-12572079D02*
X10908385Y-12610174D01*
X10908385Y-12610174D02*
X10908385Y-12657793D01*
X10908385Y-12657793D02*
X10898861Y-12695888D01*
X10898861Y-12695888D02*
X10889338Y-12714936D01*
X10889338Y-12714936D02*
X10879814Y-12724460D01*
X10879814Y-12724460D02*
X10860766Y-12733984D01*
X10860766Y-12733984D02*
X10841718Y-12733984D01*
X10841718Y-12733984D02*
X10822671Y-12724460D01*
X10822671Y-12724460D02*
X10813147Y-12714936D01*
X10813147Y-12714936D02*
X10803623Y-12695888D01*
X10803623Y-12695888D02*
X10794099Y-12657793D01*
X10794099Y-12657793D02*
X10794099Y-12610174D01*
X10794099Y-12610174D02*
X10803623Y-12572079D01*
X10803623Y-12572079D02*
X10813147Y-12553031D01*
X10813147Y-12553031D02*
X10822671Y-12543508D01*
X10822671Y-12543508D02*
X10841718Y-12533984D01*
X10994099Y-12733984D02*
X10994099Y-12600650D01*
X10994099Y-12619698D02*
X11003623Y-12610174D01*
X11003623Y-12610174D02*
X11022671Y-12600650D01*
X11022671Y-12600650D02*
X11051242Y-12600650D01*
X11051242Y-12600650D02*
X11070290Y-12610174D01*
X11070290Y-12610174D02*
X11079814Y-12629222D01*
X11079814Y-12629222D02*
X11079814Y-12733984D01*
X11079814Y-12629222D02*
X11089338Y-12610174D01*
X11089338Y-12610174D02*
X11108385Y-12600650D01*
X11108385Y-12600650D02*
X11136957Y-12600650D01*
X11136957Y-12600650D02*
X11156004Y-12610174D01*
X11156004Y-12610174D02*
X11165528Y-12629222D01*
X11165528Y-12629222D02*
X11165528Y-12733984D01*
X11260766Y-12733984D02*
X11260766Y-12600650D01*
X11260766Y-12619698D02*
X11270290Y-12610174D01*
X11270290Y-12610174D02*
X11289337Y-12600650D01*
X11289337Y-12600650D02*
X11317909Y-12600650D01*
X11317909Y-12600650D02*
X11336957Y-12610174D01*
X11336957Y-12610174D02*
X11346480Y-12629222D01*
X11346480Y-12629222D02*
X11346480Y-12733984D01*
X11346480Y-12629222D02*
X11356004Y-12610174D01*
X11356004Y-12610174D02*
X11375052Y-12600650D01*
X11375052Y-12600650D02*
X11403623Y-12600650D01*
X11403623Y-12600650D02*
X11422671Y-12610174D01*
X11422671Y-12610174D02*
X11432195Y-12629222D01*
X11432195Y-12629222D02*
X11432195Y-12733984D01*
X11822671Y-12524460D02*
X11651242Y-12781603D01*
X12079814Y-12533984D02*
X12098861Y-12533984D01*
X12098861Y-12533984D02*
X12117909Y-12543508D01*
X12117909Y-12543508D02*
X12127433Y-12553031D01*
X12127433Y-12553031D02*
X12136957Y-12572079D01*
X12136957Y-12572079D02*
X12146480Y-12610174D01*
X12146480Y-12610174D02*
X12146480Y-12657793D01*
X12146480Y-12657793D02*
X12136957Y-12695888D01*
X12136957Y-12695888D02*
X12127433Y-12714936D01*
X12127433Y-12714936D02*
X12117909Y-12724460D01*
X12117909Y-12724460D02*
X12098861Y-12733984D01*
X12098861Y-12733984D02*
X12079814Y-12733984D01*
X12079814Y-12733984D02*
X12060766Y-12724460D01*
X12060766Y-12724460D02*
X12051242Y-12714936D01*
X12051242Y-12714936D02*
X12041719Y-12695888D01*
X12041719Y-12695888D02*
X12032195Y-12657793D01*
X12032195Y-12657793D02*
X12032195Y-12610174D01*
X12032195Y-12610174D02*
X12041719Y-12572079D01*
X12041719Y-12572079D02*
X12051242Y-12553031D01*
X12051242Y-12553031D02*
X12060766Y-12543508D01*
X12060766Y-12543508D02*
X12079814Y-12533984D01*
X12232195Y-12714936D02*
X12241719Y-12724460D01*
X12241719Y-12724460D02*
X12232195Y-12733984D01*
X12232195Y-12733984D02*
X12222671Y-12724460D01*
X12222671Y-12724460D02*
X12232195Y-12714936D01*
X12232195Y-12714936D02*
X12232195Y-12733984D01*
X12365528Y-12533984D02*
X12384576Y-12533984D01*
X12384576Y-12533984D02*
X12403623Y-12543508D01*
X12403623Y-12543508D02*
X12413147Y-12553031D01*
X12413147Y-12553031D02*
X12422671Y-12572079D01*
X12422671Y-12572079D02*
X12432195Y-12610174D01*
X12432195Y-12610174D02*
X12432195Y-12657793D01*
X12432195Y-12657793D02*
X12422671Y-12695888D01*
X12422671Y-12695888D02*
X12413147Y-12714936D01*
X12413147Y-12714936D02*
X12403623Y-12724460D01*
X12403623Y-12724460D02*
X12384576Y-12733984D01*
X12384576Y-12733984D02*
X12365528Y-12733984D01*
X12365528Y-12733984D02*
X12346480Y-12724460D01*
X12346480Y-12724460D02*
X12336957Y-12714936D01*
X12336957Y-12714936D02*
X12327433Y-12695888D01*
X12327433Y-12695888D02*
X12317909Y-12657793D01*
X12317909Y-12657793D02*
X12317909Y-12610174D01*
X12317909Y-12610174D02*
X12327433Y-12572079D01*
X12327433Y-12572079D02*
X12336957Y-12553031D01*
X12336957Y-12553031D02*
X12346480Y-12543508D01*
X12346480Y-12543508D02*
X12365528Y-12533984D01*
X12622671Y-12733984D02*
X12508385Y-12733984D01*
X12565528Y-12733984D02*
X12565528Y-12533984D01*
X12565528Y-12533984D02*
X12546480Y-12562555D01*
X12546480Y-12562555D02*
X12527433Y-12581603D01*
X12527433Y-12581603D02*
X12508385Y-12591127D01*
X12813147Y-12733984D02*
X12698861Y-12733984D01*
X12756004Y-12733984D02*
X12756004Y-12533984D01*
X12756004Y-12533984D02*
X12736957Y-12562555D01*
X12736957Y-12562555D02*
X12717909Y-12581603D01*
X12717909Y-12581603D02*
X12698861Y-12591127D01*
X12927433Y-12619698D02*
X12908385Y-12610174D01*
X12908385Y-12610174D02*
X12898861Y-12600650D01*
X12898861Y-12600650D02*
X12889338Y-12581603D01*
X12889338Y-12581603D02*
X12889338Y-12572079D01*
X12889338Y-12572079D02*
X12898861Y-12553031D01*
X12898861Y-12553031D02*
X12908385Y-12543508D01*
X12908385Y-12543508D02*
X12927433Y-12533984D01*
X12927433Y-12533984D02*
X12965528Y-12533984D01*
X12965528Y-12533984D02*
X12984576Y-12543508D01*
X12984576Y-12543508D02*
X12994100Y-12553031D01*
X12994100Y-12553031D02*
X13003623Y-12572079D01*
X13003623Y-12572079D02*
X13003623Y-12581603D01*
X13003623Y-12581603D02*
X12994100Y-12600650D01*
X12994100Y-12600650D02*
X12984576Y-12610174D01*
X12984576Y-12610174D02*
X12965528Y-12619698D01*
X12965528Y-12619698D02*
X12927433Y-12619698D01*
X12927433Y-12619698D02*
X12908385Y-12629222D01*
X12908385Y-12629222D02*
X12898861Y-12638746D01*
X12898861Y-12638746D02*
X12889338Y-12657793D01*
X12889338Y-12657793D02*
X12889338Y-12695888D01*
X12889338Y-12695888D02*
X12898861Y-12714936D01*
X12898861Y-12714936D02*
X12908385Y-12724460D01*
X12908385Y-12724460D02*
X12927433Y-12733984D01*
X12927433Y-12733984D02*
X12965528Y-12733984D01*
X12965528Y-12733984D02*
X12984576Y-12724460D01*
X12984576Y-12724460D02*
X12994100Y-12714936D01*
X12994100Y-12714936D02*
X13003623Y-12695888D01*
X13003623Y-12695888D02*
X13003623Y-12657793D01*
X13003623Y-12657793D02*
X12994100Y-12638746D01*
X12994100Y-12638746D02*
X12984576Y-12629222D01*
X12984576Y-12629222D02*
X12965528Y-12619698D01*
X13079814Y-12533984D02*
X13079814Y-12572079D01*
X13156004Y-12533984D02*
X13156004Y-12572079D01*
X13451243Y-12810174D02*
X13441719Y-12800650D01*
X13441719Y-12800650D02*
X13422671Y-12772079D01*
X13422671Y-12772079D02*
X13413147Y-12753031D01*
X13413147Y-12753031D02*
X13403623Y-12724460D01*
X13403623Y-12724460D02*
X13394100Y-12676841D01*
X13394100Y-12676841D02*
X13394100Y-12638746D01*
X13394100Y-12638746D02*
X13403623Y-12591127D01*
X13403623Y-12591127D02*
X13413147Y-12562555D01*
X13413147Y-12562555D02*
X13422671Y-12543508D01*
X13422671Y-12543508D02*
X13441719Y-12514936D01*
X13441719Y-12514936D02*
X13451243Y-12505412D01*
X13632195Y-12733984D02*
X13517909Y-12733984D01*
X13575052Y-12733984D02*
X13575052Y-12533984D01*
X13575052Y-12533984D02*
X13556004Y-12562555D01*
X13556004Y-12562555D02*
X13536957Y-12581603D01*
X13536957Y-12581603D02*
X13517909Y-12591127D01*
X13870290Y-12733984D02*
X13870290Y-12533984D01*
X13956004Y-12733984D02*
X13956004Y-12629222D01*
X13956004Y-12629222D02*
X13946481Y-12610174D01*
X13946481Y-12610174D02*
X13927433Y-12600650D01*
X13927433Y-12600650D02*
X13898862Y-12600650D01*
X13898862Y-12600650D02*
X13879814Y-12610174D01*
X13879814Y-12610174D02*
X13870290Y-12619698D01*
X14079814Y-12733984D02*
X14060766Y-12724460D01*
X14060766Y-12724460D02*
X14051243Y-12714936D01*
X14051243Y-12714936D02*
X14041719Y-12695888D01*
X14041719Y-12695888D02*
X14041719Y-12638746D01*
X14041719Y-12638746D02*
X14051243Y-12619698D01*
X14051243Y-12619698D02*
X14060766Y-12610174D01*
X14060766Y-12610174D02*
X14079814Y-12600650D01*
X14079814Y-12600650D02*
X14108385Y-12600650D01*
X14108385Y-12600650D02*
X14127433Y-12610174D01*
X14127433Y-12610174D02*
X14136957Y-12619698D01*
X14136957Y-12619698D02*
X14146481Y-12638746D01*
X14146481Y-12638746D02*
X14146481Y-12695888D01*
X14146481Y-12695888D02*
X14136957Y-12714936D01*
X14136957Y-12714936D02*
X14127433Y-12724460D01*
X14127433Y-12724460D02*
X14108385Y-12733984D01*
X14108385Y-12733984D02*
X14079814Y-12733984D01*
X14260766Y-12733984D02*
X14241719Y-12724460D01*
X14241719Y-12724460D02*
X14232195Y-12705412D01*
X14232195Y-12705412D02*
X14232195Y-12533984D01*
X14413147Y-12724460D02*
X14394100Y-12733984D01*
X14394100Y-12733984D02*
X14356004Y-12733984D01*
X14356004Y-12733984D02*
X14336957Y-12724460D01*
X14336957Y-12724460D02*
X14327433Y-12705412D01*
X14327433Y-12705412D02*
X14327433Y-12629222D01*
X14327433Y-12629222D02*
X14336957Y-12610174D01*
X14336957Y-12610174D02*
X14356004Y-12600650D01*
X14356004Y-12600650D02*
X14394100Y-12600650D01*
X14394100Y-12600650D02*
X14413147Y-12610174D01*
X14413147Y-12610174D02*
X14422671Y-12629222D01*
X14422671Y-12629222D02*
X14422671Y-12648269D01*
X14422671Y-12648269D02*
X14327433Y-12667317D01*
X14489338Y-12810174D02*
X14498862Y-12800650D01*
X14498862Y-12800650D02*
X14517909Y-12772079D01*
X14517909Y-12772079D02*
X14527433Y-12753031D01*
X14527433Y-12753031D02*
X14536957Y-12724460D01*
X14536957Y-12724460D02*
X14546481Y-12676841D01*
X14546481Y-12676841D02*
X14546481Y-12638746D01*
X14546481Y-12638746D02*
X14536957Y-12591127D01*
X14536957Y-12591127D02*
X14527433Y-12562555D01*
X14527433Y-12562555D02*
X14517909Y-12543508D01*
X14517909Y-12543508D02*
X14498862Y-12514936D01*
X14498862Y-12514936D02*
X14489338Y-12505412D01*
D12*
X9876180Y-12906500D02*
G75*
G02*
X9796180Y-12906500I-40000J0D01*
G01*
X9796180Y-12906500D02*
G75*
G02*
X9876180Y-12906500I40000J0D01*
G01*
D11*
X10175052Y-12797984D02*
X10194099Y-12797984D01*
X10194099Y-12797984D02*
X10213147Y-12807508D01*
X10213147Y-12807508D02*
X10222671Y-12817031D01*
X10222671Y-12817031D02*
X10232195Y-12836079D01*
X10232195Y-12836079D02*
X10241718Y-12874174D01*
X10241718Y-12874174D02*
X10241718Y-12921793D01*
X10241718Y-12921793D02*
X10232195Y-12959888D01*
X10232195Y-12959888D02*
X10222671Y-12978936D01*
X10222671Y-12978936D02*
X10213147Y-12988460D01*
X10213147Y-12988460D02*
X10194099Y-12997984D01*
X10194099Y-12997984D02*
X10175052Y-12997984D01*
X10175052Y-12997984D02*
X10156004Y-12988460D01*
X10156004Y-12988460D02*
X10146480Y-12978936D01*
X10146480Y-12978936D02*
X10136957Y-12959888D01*
X10136957Y-12959888D02*
X10127433Y-12921793D01*
X10127433Y-12921793D02*
X10127433Y-12874174D01*
X10127433Y-12874174D02*
X10136957Y-12836079D01*
X10136957Y-12836079D02*
X10146480Y-12817031D01*
X10146480Y-12817031D02*
X10156004Y-12807508D01*
X10156004Y-12807508D02*
X10175052Y-12797984D01*
X10327433Y-12978936D02*
X10336957Y-12988460D01*
X10336957Y-12988460D02*
X10327433Y-12997984D01*
X10327433Y-12997984D02*
X10317909Y-12988460D01*
X10317909Y-12988460D02*
X10327433Y-12978936D01*
X10327433Y-12978936D02*
X10327433Y-12997984D01*
X10451242Y-12883698D02*
X10432195Y-12874174D01*
X10432195Y-12874174D02*
X10422671Y-12864650D01*
X10422671Y-12864650D02*
X10413147Y-12845603D01*
X10413147Y-12845603D02*
X10413147Y-12836079D01*
X10413147Y-12836079D02*
X10422671Y-12817031D01*
X10422671Y-12817031D02*
X10432195Y-12807508D01*
X10432195Y-12807508D02*
X10451242Y-12797984D01*
X10451242Y-12797984D02*
X10489338Y-12797984D01*
X10489338Y-12797984D02*
X10508385Y-12807508D01*
X10508385Y-12807508D02*
X10517909Y-12817031D01*
X10517909Y-12817031D02*
X10527433Y-12836079D01*
X10527433Y-12836079D02*
X10527433Y-12845603D01*
X10527433Y-12845603D02*
X10517909Y-12864650D01*
X10517909Y-12864650D02*
X10508385Y-12874174D01*
X10508385Y-12874174D02*
X10489338Y-12883698D01*
X10489338Y-12883698D02*
X10451242Y-12883698D01*
X10451242Y-12883698D02*
X10432195Y-12893222D01*
X10432195Y-12893222D02*
X10422671Y-12902746D01*
X10422671Y-12902746D02*
X10413147Y-12921793D01*
X10413147Y-12921793D02*
X10413147Y-12959888D01*
X10413147Y-12959888D02*
X10422671Y-12978936D01*
X10422671Y-12978936D02*
X10432195Y-12988460D01*
X10432195Y-12988460D02*
X10451242Y-12997984D01*
X10451242Y-12997984D02*
X10489338Y-12997984D01*
X10489338Y-12997984D02*
X10508385Y-12988460D01*
X10508385Y-12988460D02*
X10517909Y-12978936D01*
X10517909Y-12978936D02*
X10527433Y-12959888D01*
X10527433Y-12959888D02*
X10527433Y-12921793D01*
X10527433Y-12921793D02*
X10517909Y-12902746D01*
X10517909Y-12902746D02*
X10508385Y-12893222D01*
X10508385Y-12893222D02*
X10489338Y-12883698D01*
X10651242Y-12797984D02*
X10670290Y-12797984D01*
X10670290Y-12797984D02*
X10689338Y-12807508D01*
X10689338Y-12807508D02*
X10698861Y-12817031D01*
X10698861Y-12817031D02*
X10708385Y-12836079D01*
X10708385Y-12836079D02*
X10717909Y-12874174D01*
X10717909Y-12874174D02*
X10717909Y-12921793D01*
X10717909Y-12921793D02*
X10708385Y-12959888D01*
X10708385Y-12959888D02*
X10698861Y-12978936D01*
X10698861Y-12978936D02*
X10689338Y-12988460D01*
X10689338Y-12988460D02*
X10670290Y-12997984D01*
X10670290Y-12997984D02*
X10651242Y-12997984D01*
X10651242Y-12997984D02*
X10632195Y-12988460D01*
X10632195Y-12988460D02*
X10622671Y-12978936D01*
X10622671Y-12978936D02*
X10613147Y-12959888D01*
X10613147Y-12959888D02*
X10603623Y-12921793D01*
X10603623Y-12921793D02*
X10603623Y-12874174D01*
X10603623Y-12874174D02*
X10613147Y-12836079D01*
X10613147Y-12836079D02*
X10622671Y-12817031D01*
X10622671Y-12817031D02*
X10632195Y-12807508D01*
X10632195Y-12807508D02*
X10651242Y-12797984D01*
X10841718Y-12797984D02*
X10860766Y-12797984D01*
X10860766Y-12797984D02*
X10879814Y-12807508D01*
X10879814Y-12807508D02*
X10889338Y-12817031D01*
X10889338Y-12817031D02*
X10898861Y-12836079D01*
X10898861Y-12836079D02*
X10908385Y-12874174D01*
X10908385Y-12874174D02*
X10908385Y-12921793D01*
X10908385Y-12921793D02*
X10898861Y-12959888D01*
X10898861Y-12959888D02*
X10889338Y-12978936D01*
X10889338Y-12978936D02*
X10879814Y-12988460D01*
X10879814Y-12988460D02*
X10860766Y-12997984D01*
X10860766Y-12997984D02*
X10841718Y-12997984D01*
X10841718Y-12997984D02*
X10822671Y-12988460D01*
X10822671Y-12988460D02*
X10813147Y-12978936D01*
X10813147Y-12978936D02*
X10803623Y-12959888D01*
X10803623Y-12959888D02*
X10794099Y-12921793D01*
X10794099Y-12921793D02*
X10794099Y-12874174D01*
X10794099Y-12874174D02*
X10803623Y-12836079D01*
X10803623Y-12836079D02*
X10813147Y-12817031D01*
X10813147Y-12817031D02*
X10822671Y-12807508D01*
X10822671Y-12807508D02*
X10841718Y-12797984D01*
X10994099Y-12997984D02*
X10994099Y-12864650D01*
X10994099Y-12883698D02*
X11003623Y-12874174D01*
X11003623Y-12874174D02*
X11022671Y-12864650D01*
X11022671Y-12864650D02*
X11051242Y-12864650D01*
X11051242Y-12864650D02*
X11070290Y-12874174D01*
X11070290Y-12874174D02*
X11079814Y-12893222D01*
X11079814Y-12893222D02*
X11079814Y-12997984D01*
X11079814Y-12893222D02*
X11089338Y-12874174D01*
X11089338Y-12874174D02*
X11108385Y-12864650D01*
X11108385Y-12864650D02*
X11136957Y-12864650D01*
X11136957Y-12864650D02*
X11156004Y-12874174D01*
X11156004Y-12874174D02*
X11165528Y-12893222D01*
X11165528Y-12893222D02*
X11165528Y-12997984D01*
X11260766Y-12997984D02*
X11260766Y-12864650D01*
X11260766Y-12883698D02*
X11270290Y-12874174D01*
X11270290Y-12874174D02*
X11289337Y-12864650D01*
X11289337Y-12864650D02*
X11317909Y-12864650D01*
X11317909Y-12864650D02*
X11336957Y-12874174D01*
X11336957Y-12874174D02*
X11346480Y-12893222D01*
X11346480Y-12893222D02*
X11346480Y-12997984D01*
X11346480Y-12893222D02*
X11356004Y-12874174D01*
X11356004Y-12874174D02*
X11375052Y-12864650D01*
X11375052Y-12864650D02*
X11403623Y-12864650D01*
X11403623Y-12864650D02*
X11422671Y-12874174D01*
X11422671Y-12874174D02*
X11432195Y-12893222D01*
X11432195Y-12893222D02*
X11432195Y-12997984D01*
X11822671Y-12788460D02*
X11651242Y-13045603D01*
X12079814Y-12797984D02*
X12098861Y-12797984D01*
X12098861Y-12797984D02*
X12117909Y-12807508D01*
X12117909Y-12807508D02*
X12127433Y-12817031D01*
X12127433Y-12817031D02*
X12136957Y-12836079D01*
X12136957Y-12836079D02*
X12146480Y-12874174D01*
X12146480Y-12874174D02*
X12146480Y-12921793D01*
X12146480Y-12921793D02*
X12136957Y-12959888D01*
X12136957Y-12959888D02*
X12127433Y-12978936D01*
X12127433Y-12978936D02*
X12117909Y-12988460D01*
X12117909Y-12988460D02*
X12098861Y-12997984D01*
X12098861Y-12997984D02*
X12079814Y-12997984D01*
X12079814Y-12997984D02*
X12060766Y-12988460D01*
X12060766Y-12988460D02*
X12051242Y-12978936D01*
X12051242Y-12978936D02*
X12041719Y-12959888D01*
X12041719Y-12959888D02*
X12032195Y-12921793D01*
X12032195Y-12921793D02*
X12032195Y-12874174D01*
X12032195Y-12874174D02*
X12041719Y-12836079D01*
X12041719Y-12836079D02*
X12051242Y-12817031D01*
X12051242Y-12817031D02*
X12060766Y-12807508D01*
X12060766Y-12807508D02*
X12079814Y-12797984D01*
X12232195Y-12978936D02*
X12241719Y-12988460D01*
X12241719Y-12988460D02*
X12232195Y-12997984D01*
X12232195Y-12997984D02*
X12222671Y-12988460D01*
X12222671Y-12988460D02*
X12232195Y-12978936D01*
X12232195Y-12978936D02*
X12232195Y-12997984D01*
X12365528Y-12797984D02*
X12384576Y-12797984D01*
X12384576Y-12797984D02*
X12403623Y-12807508D01*
X12403623Y-12807508D02*
X12413147Y-12817031D01*
X12413147Y-12817031D02*
X12422671Y-12836079D01*
X12422671Y-12836079D02*
X12432195Y-12874174D01*
X12432195Y-12874174D02*
X12432195Y-12921793D01*
X12432195Y-12921793D02*
X12422671Y-12959888D01*
X12422671Y-12959888D02*
X12413147Y-12978936D01*
X12413147Y-12978936D02*
X12403623Y-12988460D01*
X12403623Y-12988460D02*
X12384576Y-12997984D01*
X12384576Y-12997984D02*
X12365528Y-12997984D01*
X12365528Y-12997984D02*
X12346480Y-12988460D01*
X12346480Y-12988460D02*
X12336957Y-12978936D01*
X12336957Y-12978936D02*
X12327433Y-12959888D01*
X12327433Y-12959888D02*
X12317909Y-12921793D01*
X12317909Y-12921793D02*
X12317909Y-12874174D01*
X12317909Y-12874174D02*
X12327433Y-12836079D01*
X12327433Y-12836079D02*
X12336957Y-12817031D01*
X12336957Y-12817031D02*
X12346480Y-12807508D01*
X12346480Y-12807508D02*
X12365528Y-12797984D01*
X12498861Y-12797984D02*
X12622671Y-12797984D01*
X12622671Y-12797984D02*
X12556004Y-12874174D01*
X12556004Y-12874174D02*
X12584576Y-12874174D01*
X12584576Y-12874174D02*
X12603623Y-12883698D01*
X12603623Y-12883698D02*
X12613147Y-12893222D01*
X12613147Y-12893222D02*
X12622671Y-12912269D01*
X12622671Y-12912269D02*
X12622671Y-12959888D01*
X12622671Y-12959888D02*
X12613147Y-12978936D01*
X12613147Y-12978936D02*
X12603623Y-12988460D01*
X12603623Y-12988460D02*
X12584576Y-12997984D01*
X12584576Y-12997984D02*
X12527433Y-12997984D01*
X12527433Y-12997984D02*
X12508385Y-12988460D01*
X12508385Y-12988460D02*
X12498861Y-12978936D01*
X12813147Y-12997984D02*
X12698861Y-12997984D01*
X12756004Y-12997984D02*
X12756004Y-12797984D01*
X12756004Y-12797984D02*
X12736957Y-12826555D01*
X12736957Y-12826555D02*
X12717909Y-12845603D01*
X12717909Y-12845603D02*
X12698861Y-12855127D01*
X12994100Y-12797984D02*
X12898861Y-12797984D01*
X12898861Y-12797984D02*
X12889338Y-12893222D01*
X12889338Y-12893222D02*
X12898861Y-12883698D01*
X12898861Y-12883698D02*
X12917909Y-12874174D01*
X12917909Y-12874174D02*
X12965528Y-12874174D01*
X12965528Y-12874174D02*
X12984576Y-12883698D01*
X12984576Y-12883698D02*
X12994100Y-12893222D01*
X12994100Y-12893222D02*
X13003623Y-12912269D01*
X13003623Y-12912269D02*
X13003623Y-12959888D01*
X13003623Y-12959888D02*
X12994100Y-12978936D01*
X12994100Y-12978936D02*
X12984576Y-12988460D01*
X12984576Y-12988460D02*
X12965528Y-12997984D01*
X12965528Y-12997984D02*
X12917909Y-12997984D01*
X12917909Y-12997984D02*
X12898861Y-12988460D01*
X12898861Y-12988460D02*
X12889338Y-12978936D01*
X13079814Y-12797984D02*
X13079814Y-12836079D01*
X13156004Y-12797984D02*
X13156004Y-12836079D01*
X13451243Y-13074174D02*
X13441719Y-13064650D01*
X13441719Y-13064650D02*
X13422671Y-13036079D01*
X13422671Y-13036079D02*
X13413147Y-13017031D01*
X13413147Y-13017031D02*
X13403623Y-12988460D01*
X13403623Y-12988460D02*
X13394100Y-12940841D01*
X13394100Y-12940841D02*
X13394100Y-12902746D01*
X13394100Y-12902746D02*
X13403623Y-12855127D01*
X13403623Y-12855127D02*
X13413147Y-12826555D01*
X13413147Y-12826555D02*
X13422671Y-12807508D01*
X13422671Y-12807508D02*
X13441719Y-12778936D01*
X13441719Y-12778936D02*
X13451243Y-12769412D01*
X13632195Y-12997984D02*
X13517909Y-12997984D01*
X13575052Y-12997984D02*
X13575052Y-12797984D01*
X13575052Y-12797984D02*
X13556004Y-12826555D01*
X13556004Y-12826555D02*
X13536957Y-12845603D01*
X13536957Y-12845603D02*
X13517909Y-12855127D01*
X13698862Y-12797984D02*
X13822671Y-12797984D01*
X13822671Y-12797984D02*
X13756004Y-12874174D01*
X13756004Y-12874174D02*
X13784576Y-12874174D01*
X13784576Y-12874174D02*
X13803623Y-12883698D01*
X13803623Y-12883698D02*
X13813147Y-12893222D01*
X13813147Y-12893222D02*
X13822671Y-12912269D01*
X13822671Y-12912269D02*
X13822671Y-12959888D01*
X13822671Y-12959888D02*
X13813147Y-12978936D01*
X13813147Y-12978936D02*
X13803623Y-12988460D01*
X13803623Y-12988460D02*
X13784576Y-12997984D01*
X13784576Y-12997984D02*
X13727433Y-12997984D01*
X13727433Y-12997984D02*
X13708385Y-12988460D01*
X13708385Y-12988460D02*
X13698862Y-12978936D01*
X14060766Y-12997984D02*
X14060766Y-12797984D01*
X14146481Y-12997984D02*
X14146481Y-12893222D01*
X14146481Y-12893222D02*
X14136957Y-12874174D01*
X14136957Y-12874174D02*
X14117909Y-12864650D01*
X14117909Y-12864650D02*
X14089338Y-12864650D01*
X14089338Y-12864650D02*
X14070290Y-12874174D01*
X14070290Y-12874174D02*
X14060766Y-12883698D01*
X14270290Y-12997984D02*
X14251243Y-12988460D01*
X14251243Y-12988460D02*
X14241719Y-12978936D01*
X14241719Y-12978936D02*
X14232195Y-12959888D01*
X14232195Y-12959888D02*
X14232195Y-12902746D01*
X14232195Y-12902746D02*
X14241719Y-12883698D01*
X14241719Y-12883698D02*
X14251243Y-12874174D01*
X14251243Y-12874174D02*
X14270290Y-12864650D01*
X14270290Y-12864650D02*
X14298862Y-12864650D01*
X14298862Y-12864650D02*
X14317909Y-12874174D01*
X14317909Y-12874174D02*
X14327433Y-12883698D01*
X14327433Y-12883698D02*
X14336957Y-12902746D01*
X14336957Y-12902746D02*
X14336957Y-12959888D01*
X14336957Y-12959888D02*
X14327433Y-12978936D01*
X14327433Y-12978936D02*
X14317909Y-12988460D01*
X14317909Y-12988460D02*
X14298862Y-12997984D01*
X14298862Y-12997984D02*
X14270290Y-12997984D01*
X14451243Y-12997984D02*
X14432195Y-12988460D01*
X14432195Y-12988460D02*
X14422671Y-12969412D01*
X14422671Y-12969412D02*
X14422671Y-12797984D01*
X14603624Y-12988460D02*
X14584576Y-12997984D01*
X14584576Y-12997984D02*
X14546481Y-12997984D01*
X14546481Y-12997984D02*
X14527433Y-12988460D01*
X14527433Y-12988460D02*
X14517909Y-12969412D01*
X14517909Y-12969412D02*
X14517909Y-12893222D01*
X14517909Y-12893222D02*
X14527433Y-12874174D01*
X14527433Y-12874174D02*
X14546481Y-12864650D01*
X14546481Y-12864650D02*
X14584576Y-12864650D01*
X14584576Y-12864650D02*
X14603624Y-12874174D01*
X14603624Y-12874174D02*
X14613147Y-12893222D01*
X14613147Y-12893222D02*
X14613147Y-12912269D01*
X14613147Y-12912269D02*
X14517909Y-12931317D01*
X14689338Y-12988460D02*
X14708385Y-12997984D01*
X14708385Y-12997984D02*
X14746481Y-12997984D01*
X14746481Y-12997984D02*
X14765528Y-12988460D01*
X14765528Y-12988460D02*
X14775052Y-12969412D01*
X14775052Y-12969412D02*
X14775052Y-12959888D01*
X14775052Y-12959888D02*
X14765528Y-12940841D01*
X14765528Y-12940841D02*
X14746481Y-12931317D01*
X14746481Y-12931317D02*
X14717909Y-12931317D01*
X14717909Y-12931317D02*
X14698862Y-12921793D01*
X14698862Y-12921793D02*
X14689338Y-12902746D01*
X14689338Y-12902746D02*
X14689338Y-12893222D01*
X14689338Y-12893222D02*
X14698862Y-12874174D01*
X14698862Y-12874174D02*
X14717909Y-12864650D01*
X14717909Y-12864650D02*
X14746481Y-12864650D01*
X14746481Y-12864650D02*
X14765528Y-12874174D01*
X14841719Y-13074174D02*
X14851243Y-13064650D01*
X14851243Y-13064650D02*
X14870290Y-13036079D01*
X14870290Y-13036079D02*
X14879814Y-13017031D01*
X14879814Y-13017031D02*
X14889338Y-12988460D01*
X14889338Y-12988460D02*
X14898862Y-12940841D01*
X14898862Y-12940841D02*
X14898862Y-12902746D01*
X14898862Y-12902746D02*
X14889338Y-12855127D01*
X14889338Y-12855127D02*
X14879814Y-12826555D01*
X14879814Y-12826555D02*
X14870290Y-12807508D01*
X14870290Y-12807508D02*
X14851243Y-12778936D01*
X14851243Y-12778936D02*
X14841719Y-12769412D01*
D12*
X9833680Y-13128000D02*
X9833680Y-13213000D01*
X9791180Y-13170500D02*
X9876180Y-13170500D01*
D11*
X10175052Y-13061984D02*
X10194099Y-13061984D01*
X10194099Y-13061984D02*
X10213147Y-13071508D01*
X10213147Y-13071508D02*
X10222671Y-13081031D01*
X10222671Y-13081031D02*
X10232195Y-13100079D01*
X10232195Y-13100079D02*
X10241718Y-13138174D01*
X10241718Y-13138174D02*
X10241718Y-13185793D01*
X10241718Y-13185793D02*
X10232195Y-13223888D01*
X10232195Y-13223888D02*
X10222671Y-13242936D01*
X10222671Y-13242936D02*
X10213147Y-13252460D01*
X10213147Y-13252460D02*
X10194099Y-13261984D01*
X10194099Y-13261984D02*
X10175052Y-13261984D01*
X10175052Y-13261984D02*
X10156004Y-13252460D01*
X10156004Y-13252460D02*
X10146480Y-13242936D01*
X10146480Y-13242936D02*
X10136957Y-13223888D01*
X10136957Y-13223888D02*
X10127433Y-13185793D01*
X10127433Y-13185793D02*
X10127433Y-13138174D01*
X10127433Y-13138174D02*
X10136957Y-13100079D01*
X10136957Y-13100079D02*
X10146480Y-13081031D01*
X10146480Y-13081031D02*
X10156004Y-13071508D01*
X10156004Y-13071508D02*
X10175052Y-13061984D01*
X10327433Y-13242936D02*
X10336957Y-13252460D01*
X10336957Y-13252460D02*
X10327433Y-13261984D01*
X10327433Y-13261984D02*
X10317909Y-13252460D01*
X10317909Y-13252460D02*
X10327433Y-13242936D01*
X10327433Y-13242936D02*
X10327433Y-13261984D01*
X10451242Y-13147698D02*
X10432195Y-13138174D01*
X10432195Y-13138174D02*
X10422671Y-13128650D01*
X10422671Y-13128650D02*
X10413147Y-13109603D01*
X10413147Y-13109603D02*
X10413147Y-13100079D01*
X10413147Y-13100079D02*
X10422671Y-13081031D01*
X10422671Y-13081031D02*
X10432195Y-13071508D01*
X10432195Y-13071508D02*
X10451242Y-13061984D01*
X10451242Y-13061984D02*
X10489338Y-13061984D01*
X10489338Y-13061984D02*
X10508385Y-13071508D01*
X10508385Y-13071508D02*
X10517909Y-13081031D01*
X10517909Y-13081031D02*
X10527433Y-13100079D01*
X10527433Y-13100079D02*
X10527433Y-13109603D01*
X10527433Y-13109603D02*
X10517909Y-13128650D01*
X10517909Y-13128650D02*
X10508385Y-13138174D01*
X10508385Y-13138174D02*
X10489338Y-13147698D01*
X10489338Y-13147698D02*
X10451242Y-13147698D01*
X10451242Y-13147698D02*
X10432195Y-13157222D01*
X10432195Y-13157222D02*
X10422671Y-13166746D01*
X10422671Y-13166746D02*
X10413147Y-13185793D01*
X10413147Y-13185793D02*
X10413147Y-13223888D01*
X10413147Y-13223888D02*
X10422671Y-13242936D01*
X10422671Y-13242936D02*
X10432195Y-13252460D01*
X10432195Y-13252460D02*
X10451242Y-13261984D01*
X10451242Y-13261984D02*
X10489338Y-13261984D01*
X10489338Y-13261984D02*
X10508385Y-13252460D01*
X10508385Y-13252460D02*
X10517909Y-13242936D01*
X10517909Y-13242936D02*
X10527433Y-13223888D01*
X10527433Y-13223888D02*
X10527433Y-13185793D01*
X10527433Y-13185793D02*
X10517909Y-13166746D01*
X10517909Y-13166746D02*
X10508385Y-13157222D01*
X10508385Y-13157222D02*
X10489338Y-13147698D01*
X10708385Y-13061984D02*
X10613147Y-13061984D01*
X10613147Y-13061984D02*
X10603623Y-13157222D01*
X10603623Y-13157222D02*
X10613147Y-13147698D01*
X10613147Y-13147698D02*
X10632195Y-13138174D01*
X10632195Y-13138174D02*
X10679814Y-13138174D01*
X10679814Y-13138174D02*
X10698861Y-13147698D01*
X10698861Y-13147698D02*
X10708385Y-13157222D01*
X10708385Y-13157222D02*
X10717909Y-13176269D01*
X10717909Y-13176269D02*
X10717909Y-13223888D01*
X10717909Y-13223888D02*
X10708385Y-13242936D01*
X10708385Y-13242936D02*
X10698861Y-13252460D01*
X10698861Y-13252460D02*
X10679814Y-13261984D01*
X10679814Y-13261984D02*
X10632195Y-13261984D01*
X10632195Y-13261984D02*
X10613147Y-13252460D01*
X10613147Y-13252460D02*
X10603623Y-13242936D01*
X10841718Y-13061984D02*
X10860766Y-13061984D01*
X10860766Y-13061984D02*
X10879814Y-13071508D01*
X10879814Y-13071508D02*
X10889338Y-13081031D01*
X10889338Y-13081031D02*
X10898861Y-13100079D01*
X10898861Y-13100079D02*
X10908385Y-13138174D01*
X10908385Y-13138174D02*
X10908385Y-13185793D01*
X10908385Y-13185793D02*
X10898861Y-13223888D01*
X10898861Y-13223888D02*
X10889338Y-13242936D01*
X10889338Y-13242936D02*
X10879814Y-13252460D01*
X10879814Y-13252460D02*
X10860766Y-13261984D01*
X10860766Y-13261984D02*
X10841718Y-13261984D01*
X10841718Y-13261984D02*
X10822671Y-13252460D01*
X10822671Y-13252460D02*
X10813147Y-13242936D01*
X10813147Y-13242936D02*
X10803623Y-13223888D01*
X10803623Y-13223888D02*
X10794099Y-13185793D01*
X10794099Y-13185793D02*
X10794099Y-13138174D01*
X10794099Y-13138174D02*
X10803623Y-13100079D01*
X10803623Y-13100079D02*
X10813147Y-13081031D01*
X10813147Y-13081031D02*
X10822671Y-13071508D01*
X10822671Y-13071508D02*
X10841718Y-13061984D01*
X10994099Y-13261984D02*
X10994099Y-13128650D01*
X10994099Y-13147698D02*
X11003623Y-13138174D01*
X11003623Y-13138174D02*
X11022671Y-13128650D01*
X11022671Y-13128650D02*
X11051242Y-13128650D01*
X11051242Y-13128650D02*
X11070290Y-13138174D01*
X11070290Y-13138174D02*
X11079814Y-13157222D01*
X11079814Y-13157222D02*
X11079814Y-13261984D01*
X11079814Y-13157222D02*
X11089338Y-13138174D01*
X11089338Y-13138174D02*
X11108385Y-13128650D01*
X11108385Y-13128650D02*
X11136957Y-13128650D01*
X11136957Y-13128650D02*
X11156004Y-13138174D01*
X11156004Y-13138174D02*
X11165528Y-13157222D01*
X11165528Y-13157222D02*
X11165528Y-13261984D01*
X11260766Y-13261984D02*
X11260766Y-13128650D01*
X11260766Y-13147698D02*
X11270290Y-13138174D01*
X11270290Y-13138174D02*
X11289337Y-13128650D01*
X11289337Y-13128650D02*
X11317909Y-13128650D01*
X11317909Y-13128650D02*
X11336957Y-13138174D01*
X11336957Y-13138174D02*
X11346480Y-13157222D01*
X11346480Y-13157222D02*
X11346480Y-13261984D01*
X11346480Y-13157222D02*
X11356004Y-13138174D01*
X11356004Y-13138174D02*
X11375052Y-13128650D01*
X11375052Y-13128650D02*
X11403623Y-13128650D01*
X11403623Y-13128650D02*
X11422671Y-13138174D01*
X11422671Y-13138174D02*
X11432195Y-13157222D01*
X11432195Y-13157222D02*
X11432195Y-13261984D01*
X11822671Y-13052460D02*
X11651242Y-13309603D01*
X12079814Y-13061984D02*
X12098861Y-13061984D01*
X12098861Y-13061984D02*
X12117909Y-13071508D01*
X12117909Y-13071508D02*
X12127433Y-13081031D01*
X12127433Y-13081031D02*
X12136957Y-13100079D01*
X12136957Y-13100079D02*
X12146480Y-13138174D01*
X12146480Y-13138174D02*
X12146480Y-13185793D01*
X12146480Y-13185793D02*
X12136957Y-13223888D01*
X12136957Y-13223888D02*
X12127433Y-13242936D01*
X12127433Y-13242936D02*
X12117909Y-13252460D01*
X12117909Y-13252460D02*
X12098861Y-13261984D01*
X12098861Y-13261984D02*
X12079814Y-13261984D01*
X12079814Y-13261984D02*
X12060766Y-13252460D01*
X12060766Y-13252460D02*
X12051242Y-13242936D01*
X12051242Y-13242936D02*
X12041719Y-13223888D01*
X12041719Y-13223888D02*
X12032195Y-13185793D01*
X12032195Y-13185793D02*
X12032195Y-13138174D01*
X12032195Y-13138174D02*
X12041719Y-13100079D01*
X12041719Y-13100079D02*
X12051242Y-13081031D01*
X12051242Y-13081031D02*
X12060766Y-13071508D01*
X12060766Y-13071508D02*
X12079814Y-13061984D01*
X12232195Y-13242936D02*
X12241719Y-13252460D01*
X12241719Y-13252460D02*
X12232195Y-13261984D01*
X12232195Y-13261984D02*
X12222671Y-13252460D01*
X12222671Y-13252460D02*
X12232195Y-13242936D01*
X12232195Y-13242936D02*
X12232195Y-13261984D01*
X12365528Y-13061984D02*
X12384576Y-13061984D01*
X12384576Y-13061984D02*
X12403623Y-13071508D01*
X12403623Y-13071508D02*
X12413147Y-13081031D01*
X12413147Y-13081031D02*
X12422671Y-13100079D01*
X12422671Y-13100079D02*
X12432195Y-13138174D01*
X12432195Y-13138174D02*
X12432195Y-13185793D01*
X12432195Y-13185793D02*
X12422671Y-13223888D01*
X12422671Y-13223888D02*
X12413147Y-13242936D01*
X12413147Y-13242936D02*
X12403623Y-13252460D01*
X12403623Y-13252460D02*
X12384576Y-13261984D01*
X12384576Y-13261984D02*
X12365528Y-13261984D01*
X12365528Y-13261984D02*
X12346480Y-13252460D01*
X12346480Y-13252460D02*
X12336957Y-13242936D01*
X12336957Y-13242936D02*
X12327433Y-13223888D01*
X12327433Y-13223888D02*
X12317909Y-13185793D01*
X12317909Y-13185793D02*
X12317909Y-13138174D01*
X12317909Y-13138174D02*
X12327433Y-13100079D01*
X12327433Y-13100079D02*
X12336957Y-13081031D01*
X12336957Y-13081031D02*
X12346480Y-13071508D01*
X12346480Y-13071508D02*
X12365528Y-13061984D01*
X12498861Y-13061984D02*
X12622671Y-13061984D01*
X12622671Y-13061984D02*
X12556004Y-13138174D01*
X12556004Y-13138174D02*
X12584576Y-13138174D01*
X12584576Y-13138174D02*
X12603623Y-13147698D01*
X12603623Y-13147698D02*
X12613147Y-13157222D01*
X12613147Y-13157222D02*
X12622671Y-13176269D01*
X12622671Y-13176269D02*
X12622671Y-13223888D01*
X12622671Y-13223888D02*
X12613147Y-13242936D01*
X12613147Y-13242936D02*
X12603623Y-13252460D01*
X12603623Y-13252460D02*
X12584576Y-13261984D01*
X12584576Y-13261984D02*
X12527433Y-13261984D01*
X12527433Y-13261984D02*
X12508385Y-13252460D01*
X12508385Y-13252460D02*
X12498861Y-13242936D01*
X12689338Y-13061984D02*
X12813147Y-13061984D01*
X12813147Y-13061984D02*
X12746480Y-13138174D01*
X12746480Y-13138174D02*
X12775052Y-13138174D01*
X12775052Y-13138174D02*
X12794100Y-13147698D01*
X12794100Y-13147698D02*
X12803623Y-13157222D01*
X12803623Y-13157222D02*
X12813147Y-13176269D01*
X12813147Y-13176269D02*
X12813147Y-13223888D01*
X12813147Y-13223888D02*
X12803623Y-13242936D01*
X12803623Y-13242936D02*
X12794100Y-13252460D01*
X12794100Y-13252460D02*
X12775052Y-13261984D01*
X12775052Y-13261984D02*
X12717909Y-13261984D01*
X12717909Y-13261984D02*
X12698861Y-13252460D01*
X12698861Y-13252460D02*
X12689338Y-13242936D01*
X12994100Y-13061984D02*
X12898861Y-13061984D01*
X12898861Y-13061984D02*
X12889338Y-13157222D01*
X12889338Y-13157222D02*
X12898861Y-13147698D01*
X12898861Y-13147698D02*
X12917909Y-13138174D01*
X12917909Y-13138174D02*
X12965528Y-13138174D01*
X12965528Y-13138174D02*
X12984576Y-13147698D01*
X12984576Y-13147698D02*
X12994100Y-13157222D01*
X12994100Y-13157222D02*
X13003623Y-13176269D01*
X13003623Y-13176269D02*
X13003623Y-13223888D01*
X13003623Y-13223888D02*
X12994100Y-13242936D01*
X12994100Y-13242936D02*
X12984576Y-13252460D01*
X12984576Y-13252460D02*
X12965528Y-13261984D01*
X12965528Y-13261984D02*
X12917909Y-13261984D01*
X12917909Y-13261984D02*
X12898861Y-13252460D01*
X12898861Y-13252460D02*
X12889338Y-13242936D01*
X13079814Y-13061984D02*
X13079814Y-13100079D01*
X13156004Y-13061984D02*
X13156004Y-13100079D01*
X13451243Y-13338174D02*
X13441719Y-13328650D01*
X13441719Y-13328650D02*
X13422671Y-13300079D01*
X13422671Y-13300079D02*
X13413147Y-13281031D01*
X13413147Y-13281031D02*
X13403623Y-13252460D01*
X13403623Y-13252460D02*
X13394100Y-13204841D01*
X13394100Y-13204841D02*
X13394100Y-13166746D01*
X13394100Y-13166746D02*
X13403623Y-13119127D01*
X13403623Y-13119127D02*
X13413147Y-13090555D01*
X13413147Y-13090555D02*
X13422671Y-13071508D01*
X13422671Y-13071508D02*
X13441719Y-13042936D01*
X13441719Y-13042936D02*
X13451243Y-13033412D01*
X13517909Y-13081031D02*
X13527433Y-13071508D01*
X13527433Y-13071508D02*
X13546481Y-13061984D01*
X13546481Y-13061984D02*
X13594100Y-13061984D01*
X13594100Y-13061984D02*
X13613147Y-13071508D01*
X13613147Y-13071508D02*
X13622671Y-13081031D01*
X13622671Y-13081031D02*
X13632195Y-13100079D01*
X13632195Y-13100079D02*
X13632195Y-13119127D01*
X13632195Y-13119127D02*
X13622671Y-13147698D01*
X13622671Y-13147698D02*
X13508385Y-13261984D01*
X13508385Y-13261984D02*
X13632195Y-13261984D01*
X13870290Y-13261984D02*
X13870290Y-13061984D01*
X13956004Y-13261984D02*
X13956004Y-13157222D01*
X13956004Y-13157222D02*
X13946481Y-13138174D01*
X13946481Y-13138174D02*
X13927433Y-13128650D01*
X13927433Y-13128650D02*
X13898862Y-13128650D01*
X13898862Y-13128650D02*
X13879814Y-13138174D01*
X13879814Y-13138174D02*
X13870290Y-13147698D01*
X14079814Y-13261984D02*
X14060766Y-13252460D01*
X14060766Y-13252460D02*
X14051243Y-13242936D01*
X14051243Y-13242936D02*
X14041719Y-13223888D01*
X14041719Y-13223888D02*
X14041719Y-13166746D01*
X14041719Y-13166746D02*
X14051243Y-13147698D01*
X14051243Y-13147698D02*
X14060766Y-13138174D01*
X14060766Y-13138174D02*
X14079814Y-13128650D01*
X14079814Y-13128650D02*
X14108385Y-13128650D01*
X14108385Y-13128650D02*
X14127433Y-13138174D01*
X14127433Y-13138174D02*
X14136957Y-13147698D01*
X14136957Y-13147698D02*
X14146481Y-13166746D01*
X14146481Y-13166746D02*
X14146481Y-13223888D01*
X14146481Y-13223888D02*
X14136957Y-13242936D01*
X14136957Y-13242936D02*
X14127433Y-13252460D01*
X14127433Y-13252460D02*
X14108385Y-13261984D01*
X14108385Y-13261984D02*
X14079814Y-13261984D01*
X14260766Y-13261984D02*
X14241719Y-13252460D01*
X14241719Y-13252460D02*
X14232195Y-13233412D01*
X14232195Y-13233412D02*
X14232195Y-13061984D01*
X14413147Y-13252460D02*
X14394100Y-13261984D01*
X14394100Y-13261984D02*
X14356004Y-13261984D01*
X14356004Y-13261984D02*
X14336957Y-13252460D01*
X14336957Y-13252460D02*
X14327433Y-13233412D01*
X14327433Y-13233412D02*
X14327433Y-13157222D01*
X14327433Y-13157222D02*
X14336957Y-13138174D01*
X14336957Y-13138174D02*
X14356004Y-13128650D01*
X14356004Y-13128650D02*
X14394100Y-13128650D01*
X14394100Y-13128650D02*
X14413147Y-13138174D01*
X14413147Y-13138174D02*
X14422671Y-13157222D01*
X14422671Y-13157222D02*
X14422671Y-13176269D01*
X14422671Y-13176269D02*
X14327433Y-13195317D01*
X14498862Y-13252460D02*
X14517909Y-13261984D01*
X14517909Y-13261984D02*
X14556004Y-13261984D01*
X14556004Y-13261984D02*
X14575052Y-13252460D01*
X14575052Y-13252460D02*
X14584576Y-13233412D01*
X14584576Y-13233412D02*
X14584576Y-13223888D01*
X14584576Y-13223888D02*
X14575052Y-13204841D01*
X14575052Y-13204841D02*
X14556004Y-13195317D01*
X14556004Y-13195317D02*
X14527433Y-13195317D01*
X14527433Y-13195317D02*
X14508385Y-13185793D01*
X14508385Y-13185793D02*
X14498862Y-13166746D01*
X14498862Y-13166746D02*
X14498862Y-13157222D01*
X14498862Y-13157222D02*
X14508385Y-13138174D01*
X14508385Y-13138174D02*
X14527433Y-13128650D01*
X14527433Y-13128650D02*
X14556004Y-13128650D01*
X14556004Y-13128650D02*
X14575052Y-13138174D01*
X14651243Y-13338174D02*
X14660766Y-13328650D01*
X14660766Y-13328650D02*
X14679814Y-13300079D01*
X14679814Y-13300079D02*
X14689338Y-13281031D01*
X14689338Y-13281031D02*
X14698862Y-13252460D01*
X14698862Y-13252460D02*
X14708385Y-13204841D01*
X14708385Y-13204841D02*
X14708385Y-13166746D01*
X14708385Y-13166746D02*
X14698862Y-13119127D01*
X14698862Y-13119127D02*
X14689338Y-13090555D01*
X14689338Y-13090555D02*
X14679814Y-13071508D01*
X14679814Y-13071508D02*
X14660766Y-13042936D01*
X14660766Y-13042936D02*
X14651243Y-13033412D01*
D12*
X9863000Y-13466320D02*
X9863000Y-13402680D01*
X9799360Y-13402680D01*
X9799360Y-13466320D01*
X9863000Y-13466320D01*
D11*
X10175052Y-13325984D02*
X10194099Y-13325984D01*
X10194099Y-13325984D02*
X10213147Y-13335508D01*
X10213147Y-13335508D02*
X10222671Y-13345031D01*
X10222671Y-13345031D02*
X10232195Y-13364079D01*
X10232195Y-13364079D02*
X10241718Y-13402174D01*
X10241718Y-13402174D02*
X10241718Y-13449793D01*
X10241718Y-13449793D02*
X10232195Y-13487888D01*
X10232195Y-13487888D02*
X10222671Y-13506936D01*
X10222671Y-13506936D02*
X10213147Y-13516460D01*
X10213147Y-13516460D02*
X10194099Y-13525984D01*
X10194099Y-13525984D02*
X10175052Y-13525984D01*
X10175052Y-13525984D02*
X10156004Y-13516460D01*
X10156004Y-13516460D02*
X10146480Y-13506936D01*
X10146480Y-13506936D02*
X10136957Y-13487888D01*
X10136957Y-13487888D02*
X10127433Y-13449793D01*
X10127433Y-13449793D02*
X10127433Y-13402174D01*
X10127433Y-13402174D02*
X10136957Y-13364079D01*
X10136957Y-13364079D02*
X10146480Y-13345031D01*
X10146480Y-13345031D02*
X10156004Y-13335508D01*
X10156004Y-13335508D02*
X10175052Y-13325984D01*
X10327433Y-13506936D02*
X10336957Y-13516460D01*
X10336957Y-13516460D02*
X10327433Y-13525984D01*
X10327433Y-13525984D02*
X10317909Y-13516460D01*
X10317909Y-13516460D02*
X10327433Y-13506936D01*
X10327433Y-13506936D02*
X10327433Y-13525984D01*
X10432195Y-13525984D02*
X10470290Y-13525984D01*
X10470290Y-13525984D02*
X10489338Y-13516460D01*
X10489338Y-13516460D02*
X10498861Y-13506936D01*
X10498861Y-13506936D02*
X10517909Y-13478365D01*
X10517909Y-13478365D02*
X10527433Y-13440269D01*
X10527433Y-13440269D02*
X10527433Y-13364079D01*
X10527433Y-13364079D02*
X10517909Y-13345031D01*
X10517909Y-13345031D02*
X10508385Y-13335508D01*
X10508385Y-13335508D02*
X10489338Y-13325984D01*
X10489338Y-13325984D02*
X10451242Y-13325984D01*
X10451242Y-13325984D02*
X10432195Y-13335508D01*
X10432195Y-13335508D02*
X10422671Y-13345031D01*
X10422671Y-13345031D02*
X10413147Y-13364079D01*
X10413147Y-13364079D02*
X10413147Y-13411698D01*
X10413147Y-13411698D02*
X10422671Y-13430746D01*
X10422671Y-13430746D02*
X10432195Y-13440269D01*
X10432195Y-13440269D02*
X10451242Y-13449793D01*
X10451242Y-13449793D02*
X10489338Y-13449793D01*
X10489338Y-13449793D02*
X10508385Y-13440269D01*
X10508385Y-13440269D02*
X10517909Y-13430746D01*
X10517909Y-13430746D02*
X10527433Y-13411698D01*
X10651242Y-13325984D02*
X10670290Y-13325984D01*
X10670290Y-13325984D02*
X10689338Y-13335508D01*
X10689338Y-13335508D02*
X10698861Y-13345031D01*
X10698861Y-13345031D02*
X10708385Y-13364079D01*
X10708385Y-13364079D02*
X10717909Y-13402174D01*
X10717909Y-13402174D02*
X10717909Y-13449793D01*
X10717909Y-13449793D02*
X10708385Y-13487888D01*
X10708385Y-13487888D02*
X10698861Y-13506936D01*
X10698861Y-13506936D02*
X10689338Y-13516460D01*
X10689338Y-13516460D02*
X10670290Y-13525984D01*
X10670290Y-13525984D02*
X10651242Y-13525984D01*
X10651242Y-13525984D02*
X10632195Y-13516460D01*
X10632195Y-13516460D02*
X10622671Y-13506936D01*
X10622671Y-13506936D02*
X10613147Y-13487888D01*
X10613147Y-13487888D02*
X10603623Y-13449793D01*
X10603623Y-13449793D02*
X10603623Y-13402174D01*
X10603623Y-13402174D02*
X10613147Y-13364079D01*
X10613147Y-13364079D02*
X10622671Y-13345031D01*
X10622671Y-13345031D02*
X10632195Y-13335508D01*
X10632195Y-13335508D02*
X10651242Y-13325984D01*
X10841718Y-13325984D02*
X10860766Y-13325984D01*
X10860766Y-13325984D02*
X10879814Y-13335508D01*
X10879814Y-13335508D02*
X10889338Y-13345031D01*
X10889338Y-13345031D02*
X10898861Y-13364079D01*
X10898861Y-13364079D02*
X10908385Y-13402174D01*
X10908385Y-13402174D02*
X10908385Y-13449793D01*
X10908385Y-13449793D02*
X10898861Y-13487888D01*
X10898861Y-13487888D02*
X10889338Y-13506936D01*
X10889338Y-13506936D02*
X10879814Y-13516460D01*
X10879814Y-13516460D02*
X10860766Y-13525984D01*
X10860766Y-13525984D02*
X10841718Y-13525984D01*
X10841718Y-13525984D02*
X10822671Y-13516460D01*
X10822671Y-13516460D02*
X10813147Y-13506936D01*
X10813147Y-13506936D02*
X10803623Y-13487888D01*
X10803623Y-13487888D02*
X10794099Y-13449793D01*
X10794099Y-13449793D02*
X10794099Y-13402174D01*
X10794099Y-13402174D02*
X10803623Y-13364079D01*
X10803623Y-13364079D02*
X10813147Y-13345031D01*
X10813147Y-13345031D02*
X10822671Y-13335508D01*
X10822671Y-13335508D02*
X10841718Y-13325984D01*
X10994099Y-13525984D02*
X10994099Y-13392650D01*
X10994099Y-13411698D02*
X11003623Y-13402174D01*
X11003623Y-13402174D02*
X11022671Y-13392650D01*
X11022671Y-13392650D02*
X11051242Y-13392650D01*
X11051242Y-13392650D02*
X11070290Y-13402174D01*
X11070290Y-13402174D02*
X11079814Y-13421222D01*
X11079814Y-13421222D02*
X11079814Y-13525984D01*
X11079814Y-13421222D02*
X11089338Y-13402174D01*
X11089338Y-13402174D02*
X11108385Y-13392650D01*
X11108385Y-13392650D02*
X11136957Y-13392650D01*
X11136957Y-13392650D02*
X11156004Y-13402174D01*
X11156004Y-13402174D02*
X11165528Y-13421222D01*
X11165528Y-13421222D02*
X11165528Y-13525984D01*
X11260766Y-13525984D02*
X11260766Y-13392650D01*
X11260766Y-13411698D02*
X11270290Y-13402174D01*
X11270290Y-13402174D02*
X11289337Y-13392650D01*
X11289337Y-13392650D02*
X11317909Y-13392650D01*
X11317909Y-13392650D02*
X11336957Y-13402174D01*
X11336957Y-13402174D02*
X11346480Y-13421222D01*
X11346480Y-13421222D02*
X11346480Y-13525984D01*
X11346480Y-13421222D02*
X11356004Y-13402174D01*
X11356004Y-13402174D02*
X11375052Y-13392650D01*
X11375052Y-13392650D02*
X11403623Y-13392650D01*
X11403623Y-13392650D02*
X11422671Y-13402174D01*
X11422671Y-13402174D02*
X11432195Y-13421222D01*
X11432195Y-13421222D02*
X11432195Y-13525984D01*
X11822671Y-13316460D02*
X11651242Y-13573603D01*
X12079814Y-13325984D02*
X12098861Y-13325984D01*
X12098861Y-13325984D02*
X12117909Y-13335508D01*
X12117909Y-13335508D02*
X12127433Y-13345031D01*
X12127433Y-13345031D02*
X12136957Y-13364079D01*
X12136957Y-13364079D02*
X12146480Y-13402174D01*
X12146480Y-13402174D02*
X12146480Y-13449793D01*
X12146480Y-13449793D02*
X12136957Y-13487888D01*
X12136957Y-13487888D02*
X12127433Y-13506936D01*
X12127433Y-13506936D02*
X12117909Y-13516460D01*
X12117909Y-13516460D02*
X12098861Y-13525984D01*
X12098861Y-13525984D02*
X12079814Y-13525984D01*
X12079814Y-13525984D02*
X12060766Y-13516460D01*
X12060766Y-13516460D02*
X12051242Y-13506936D01*
X12051242Y-13506936D02*
X12041719Y-13487888D01*
X12041719Y-13487888D02*
X12032195Y-13449793D01*
X12032195Y-13449793D02*
X12032195Y-13402174D01*
X12032195Y-13402174D02*
X12041719Y-13364079D01*
X12041719Y-13364079D02*
X12051242Y-13345031D01*
X12051242Y-13345031D02*
X12060766Y-13335508D01*
X12060766Y-13335508D02*
X12079814Y-13325984D01*
X12232195Y-13506936D02*
X12241719Y-13516460D01*
X12241719Y-13516460D02*
X12232195Y-13525984D01*
X12232195Y-13525984D02*
X12222671Y-13516460D01*
X12222671Y-13516460D02*
X12232195Y-13506936D01*
X12232195Y-13506936D02*
X12232195Y-13525984D01*
X12365528Y-13325984D02*
X12384576Y-13325984D01*
X12384576Y-13325984D02*
X12403623Y-13335508D01*
X12403623Y-13335508D02*
X12413147Y-13345031D01*
X12413147Y-13345031D02*
X12422671Y-13364079D01*
X12422671Y-13364079D02*
X12432195Y-13402174D01*
X12432195Y-13402174D02*
X12432195Y-13449793D01*
X12432195Y-13449793D02*
X12422671Y-13487888D01*
X12422671Y-13487888D02*
X12413147Y-13506936D01*
X12413147Y-13506936D02*
X12403623Y-13516460D01*
X12403623Y-13516460D02*
X12384576Y-13525984D01*
X12384576Y-13525984D02*
X12365528Y-13525984D01*
X12365528Y-13525984D02*
X12346480Y-13516460D01*
X12346480Y-13516460D02*
X12336957Y-13506936D01*
X12336957Y-13506936D02*
X12327433Y-13487888D01*
X12327433Y-13487888D02*
X12317909Y-13449793D01*
X12317909Y-13449793D02*
X12317909Y-13402174D01*
X12317909Y-13402174D02*
X12327433Y-13364079D01*
X12327433Y-13364079D02*
X12336957Y-13345031D01*
X12336957Y-13345031D02*
X12346480Y-13335508D01*
X12346480Y-13335508D02*
X12365528Y-13325984D01*
X12498861Y-13325984D02*
X12622671Y-13325984D01*
X12622671Y-13325984D02*
X12556004Y-13402174D01*
X12556004Y-13402174D02*
X12584576Y-13402174D01*
X12584576Y-13402174D02*
X12603623Y-13411698D01*
X12603623Y-13411698D02*
X12613147Y-13421222D01*
X12613147Y-13421222D02*
X12622671Y-13440269D01*
X12622671Y-13440269D02*
X12622671Y-13487888D01*
X12622671Y-13487888D02*
X12613147Y-13506936D01*
X12613147Y-13506936D02*
X12603623Y-13516460D01*
X12603623Y-13516460D02*
X12584576Y-13525984D01*
X12584576Y-13525984D02*
X12527433Y-13525984D01*
X12527433Y-13525984D02*
X12508385Y-13516460D01*
X12508385Y-13516460D02*
X12498861Y-13506936D01*
X12803623Y-13325984D02*
X12708385Y-13325984D01*
X12708385Y-13325984D02*
X12698861Y-13421222D01*
X12698861Y-13421222D02*
X12708385Y-13411698D01*
X12708385Y-13411698D02*
X12727433Y-13402174D01*
X12727433Y-13402174D02*
X12775052Y-13402174D01*
X12775052Y-13402174D02*
X12794100Y-13411698D01*
X12794100Y-13411698D02*
X12803623Y-13421222D01*
X12803623Y-13421222D02*
X12813147Y-13440269D01*
X12813147Y-13440269D02*
X12813147Y-13487888D01*
X12813147Y-13487888D02*
X12803623Y-13506936D01*
X12803623Y-13506936D02*
X12794100Y-13516460D01*
X12794100Y-13516460D02*
X12775052Y-13525984D01*
X12775052Y-13525984D02*
X12727433Y-13525984D01*
X12727433Y-13525984D02*
X12708385Y-13516460D01*
X12708385Y-13516460D02*
X12698861Y-13506936D01*
X12984576Y-13392650D02*
X12984576Y-13525984D01*
X12936957Y-13316460D02*
X12889338Y-13459317D01*
X12889338Y-13459317D02*
X13013147Y-13459317D01*
X13079814Y-13325984D02*
X13079814Y-13364079D01*
X13156004Y-13325984D02*
X13156004Y-13364079D01*
X13451243Y-13602174D02*
X13441719Y-13592650D01*
X13441719Y-13592650D02*
X13422671Y-13564079D01*
X13422671Y-13564079D02*
X13413147Y-13545031D01*
X13413147Y-13545031D02*
X13403623Y-13516460D01*
X13403623Y-13516460D02*
X13394100Y-13468841D01*
X13394100Y-13468841D02*
X13394100Y-13430746D01*
X13394100Y-13430746D02*
X13403623Y-13383127D01*
X13403623Y-13383127D02*
X13413147Y-13354555D01*
X13413147Y-13354555D02*
X13422671Y-13335508D01*
X13422671Y-13335508D02*
X13441719Y-13306936D01*
X13441719Y-13306936D02*
X13451243Y-13297412D01*
X13613147Y-13325984D02*
X13575052Y-13325984D01*
X13575052Y-13325984D02*
X13556004Y-13335508D01*
X13556004Y-13335508D02*
X13546481Y-13345031D01*
X13546481Y-13345031D02*
X13527433Y-13373603D01*
X13527433Y-13373603D02*
X13517909Y-13411698D01*
X13517909Y-13411698D02*
X13517909Y-13487888D01*
X13517909Y-13487888D02*
X13527433Y-13506936D01*
X13527433Y-13506936D02*
X13536957Y-13516460D01*
X13536957Y-13516460D02*
X13556004Y-13525984D01*
X13556004Y-13525984D02*
X13594100Y-13525984D01*
X13594100Y-13525984D02*
X13613147Y-13516460D01*
X13613147Y-13516460D02*
X13622671Y-13506936D01*
X13622671Y-13506936D02*
X13632195Y-13487888D01*
X13632195Y-13487888D02*
X13632195Y-13440269D01*
X13632195Y-13440269D02*
X13622671Y-13421222D01*
X13622671Y-13421222D02*
X13613147Y-13411698D01*
X13613147Y-13411698D02*
X13594100Y-13402174D01*
X13594100Y-13402174D02*
X13556004Y-13402174D01*
X13556004Y-13402174D02*
X13536957Y-13411698D01*
X13536957Y-13411698D02*
X13527433Y-13421222D01*
X13527433Y-13421222D02*
X13517909Y-13440269D01*
X13870290Y-13525984D02*
X13870290Y-13325984D01*
X13956004Y-13525984D02*
X13956004Y-13421222D01*
X13956004Y-13421222D02*
X13946481Y-13402174D01*
X13946481Y-13402174D02*
X13927433Y-13392650D01*
X13927433Y-13392650D02*
X13898862Y-13392650D01*
X13898862Y-13392650D02*
X13879814Y-13402174D01*
X13879814Y-13402174D02*
X13870290Y-13411698D01*
X14079814Y-13525984D02*
X14060766Y-13516460D01*
X14060766Y-13516460D02*
X14051243Y-13506936D01*
X14051243Y-13506936D02*
X14041719Y-13487888D01*
X14041719Y-13487888D02*
X14041719Y-13430746D01*
X14041719Y-13430746D02*
X14051243Y-13411698D01*
X14051243Y-13411698D02*
X14060766Y-13402174D01*
X14060766Y-13402174D02*
X14079814Y-13392650D01*
X14079814Y-13392650D02*
X14108385Y-13392650D01*
X14108385Y-13392650D02*
X14127433Y-13402174D01*
X14127433Y-13402174D02*
X14136957Y-13411698D01*
X14136957Y-13411698D02*
X14146481Y-13430746D01*
X14146481Y-13430746D02*
X14146481Y-13487888D01*
X14146481Y-13487888D02*
X14136957Y-13506936D01*
X14136957Y-13506936D02*
X14127433Y-13516460D01*
X14127433Y-13516460D02*
X14108385Y-13525984D01*
X14108385Y-13525984D02*
X14079814Y-13525984D01*
X14260766Y-13525984D02*
X14241719Y-13516460D01*
X14241719Y-13516460D02*
X14232195Y-13497412D01*
X14232195Y-13497412D02*
X14232195Y-13325984D01*
X14413147Y-13516460D02*
X14394100Y-13525984D01*
X14394100Y-13525984D02*
X14356004Y-13525984D01*
X14356004Y-13525984D02*
X14336957Y-13516460D01*
X14336957Y-13516460D02*
X14327433Y-13497412D01*
X14327433Y-13497412D02*
X14327433Y-13421222D01*
X14327433Y-13421222D02*
X14336957Y-13402174D01*
X14336957Y-13402174D02*
X14356004Y-13392650D01*
X14356004Y-13392650D02*
X14394100Y-13392650D01*
X14394100Y-13392650D02*
X14413147Y-13402174D01*
X14413147Y-13402174D02*
X14422671Y-13421222D01*
X14422671Y-13421222D02*
X14422671Y-13440269D01*
X14422671Y-13440269D02*
X14327433Y-13459317D01*
X14498862Y-13516460D02*
X14517909Y-13525984D01*
X14517909Y-13525984D02*
X14556004Y-13525984D01*
X14556004Y-13525984D02*
X14575052Y-13516460D01*
X14575052Y-13516460D02*
X14584576Y-13497412D01*
X14584576Y-13497412D02*
X14584576Y-13487888D01*
X14584576Y-13487888D02*
X14575052Y-13468841D01*
X14575052Y-13468841D02*
X14556004Y-13459317D01*
X14556004Y-13459317D02*
X14527433Y-13459317D01*
X14527433Y-13459317D02*
X14508385Y-13449793D01*
X14508385Y-13449793D02*
X14498862Y-13430746D01*
X14498862Y-13430746D02*
X14498862Y-13421222D01*
X14498862Y-13421222D02*
X14508385Y-13402174D01*
X14508385Y-13402174D02*
X14527433Y-13392650D01*
X14527433Y-13392650D02*
X14556004Y-13392650D01*
X14556004Y-13392650D02*
X14575052Y-13402174D01*
X14651243Y-13602174D02*
X14660766Y-13592650D01*
X14660766Y-13592650D02*
X14679814Y-13564079D01*
X14679814Y-13564079D02*
X14689338Y-13545031D01*
X14689338Y-13545031D02*
X14698862Y-13516460D01*
X14698862Y-13516460D02*
X14708385Y-13468841D01*
X14708385Y-13468841D02*
X14708385Y-13430746D01*
X14708385Y-13430746D02*
X14698862Y-13383127D01*
X14698862Y-13383127D02*
X14689338Y-13354555D01*
X14689338Y-13354555D02*
X14679814Y-13335508D01*
X14679814Y-13335508D02*
X14660766Y-13306936D01*
X14660766Y-13306936D02*
X14651243Y-13297412D01*
M02*
