%TF.GenerationSoftware,KiCad,Pcbnew,9.0.3*%
%TF.CreationDate,2025-07-22T12:06:33-04:00*%
%TF.ProjectId,mothers_day_necklace_8cm,6d6f7468-6572-4735-9f64-61795f6e6563,rev?*%
%TF.SameCoordinates,Original*%
%TF.FileFunction,Copper,L2,Bot*%
%TF.FilePolarity,Positive*%
%FSLAX46Y46*%
G04 Gerber Fmt 4.6, Leading zero omitted, Abs format (unit mm)*
G04 Created by KiCad (PCBNEW 9.0.3) date 2025-07-22 12:06:33*
%MOMM*%
%LPD*%
G01*
G04 APERTURE LIST*
G04 Aperture macros list*
%AMHorizOval*
0 Thick line with rounded ends*
0 $1 width*
0 $2 $3 position (X,Y) of the first rounded end (center of the circle)*
0 $4 $5 position (X,Y) of the second rounded end (center of the circle)*
0 Add line between two ends*
20,1,$1,$2,$3,$4,$5,0*
0 Add two circle primitives to create the rounded ends*
1,1,$1,$2,$3*
1,1,$1,$4,$5*%
G04 Aperture macros list end*
%TA.AperFunction,ComponentPad*%
%ADD10R,1.800000X1.800000*%
%TD*%
%TA.AperFunction,ComponentPad*%
%ADD11C,1.800000*%
%TD*%
%TA.AperFunction,ComponentPad*%
%ADD12C,1.500000*%
%TD*%
%TA.AperFunction,ComponentPad*%
%ADD13C,1.600000*%
%TD*%
%TA.AperFunction,ComponentPad*%
%ADD14O,1.600000X1.600000*%
%TD*%
%TA.AperFunction,ComponentPad*%
%ADD15HorizOval,1.600000X0.000000X0.000000X0.000000X0.000000X0*%
%TD*%
%TA.AperFunction,ComponentPad*%
%ADD16R,1.500000X1.500000*%
%TD*%
%TA.AperFunction,ComponentPad*%
%ADD17R,1.600000X2.000000*%
%TD*%
%TA.AperFunction,ComponentPad*%
%ADD18O,1.600000X2.000000*%
%TD*%
%TA.AperFunction,ComponentPad*%
%ADD19HorizOval,1.600000X0.000000X0.000000X0.000000X0.000000X0*%
%TD*%
%TA.AperFunction,ViaPad*%
%ADD20C,0.600000*%
%TD*%
%TA.AperFunction,Conductor*%
%ADD21C,0.200000*%
%TD*%
G04 APERTURE END LIST*
D10*
X143460000Y-96000000D03*
D11*
X146000000Y-96000000D03*
D10*
X178725000Y-55000000D03*
D11*
X181265000Y-55000000D03*
D12*
X146700000Y-113000000D03*
X143300000Y-113000000D03*
D13*
X109000000Y-66000000D03*
D14*
X109000000Y-76160000D03*
D13*
X180000000Y-65920000D03*
D14*
X180000000Y-76080000D03*
D13*
X116000000Y-83000000D03*
D15*
X123184205Y-90184205D03*
D10*
X111275000Y-55000000D03*
D11*
X108735000Y-55000000D03*
D16*
X142460000Y-57770000D03*
D12*
X145000001Y-55230000D03*
X147540000Y-57770000D03*
D17*
X134705000Y-74999900D03*
D18*
X155205000Y-74999900D03*
D13*
X163815800Y-93184200D03*
D19*
X171000003Y-85999995D03*
D20*
X147988000Y-82971200D03*
D21*
X123184200Y-90184200D02*
X134705000Y-78663400D01*
X171000000Y-86000000D02*
X179818300Y-77181700D01*
X180000000Y-76080000D02*
X180000000Y-77181700D01*
X134705000Y-78663400D02*
X134705000Y-74999900D01*
X179818300Y-77181700D02*
X180000000Y-77181700D01*
X109000000Y-66000000D02*
X108735000Y-65735000D01*
X108735000Y-65735000D02*
X108735000Y-55000000D01*
X143460000Y-96000000D02*
X143460000Y-59821700D01*
X142460000Y-57770000D02*
X142460000Y-58821700D01*
X143460000Y-59821700D02*
X142460000Y-58821700D01*
X181265000Y-64655000D02*
X181265000Y-55000000D01*
X180000000Y-65920000D02*
X181265000Y-64655000D01*
X147249600Y-112450400D02*
X147249600Y-82971200D01*
X145000000Y-82971200D02*
X145000000Y-55230000D01*
X146700000Y-113000000D02*
X147249600Y-112450400D01*
X145000000Y-82971200D02*
X145041300Y-82971200D01*
X145041300Y-82971200D02*
X147249600Y-82971200D01*
X147249600Y-82971200D02*
X147988000Y-82971200D01*
%TA.AperFunction,Conductor*%
G36*
X145308444Y-40505636D02*
G01*
X145345105Y-40507989D01*
X145908222Y-40544142D01*
X145916081Y-40544900D01*
X146512183Y-40621759D01*
X146520027Y-40623028D01*
X147109924Y-40737910D01*
X147117675Y-40739678D01*
X147699050Y-40892133D01*
X147706627Y-40894383D01*
X148277024Y-41083766D01*
X148284468Y-41086506D01*
X148841564Y-41312049D01*
X148848812Y-41315257D01*
X149312379Y-41538500D01*
X149390294Y-41576022D01*
X149397339Y-41579697D01*
X149921023Y-41874629D01*
X149927798Y-41878737D01*
X150431505Y-42206615D01*
X150437992Y-42211139D01*
X150919659Y-42570617D01*
X150925869Y-42575570D01*
X151348595Y-42935441D01*
X151383488Y-42965146D01*
X151389373Y-42970490D01*
X151821109Y-43388603D01*
X151826638Y-43394313D01*
X152230675Y-43839202D01*
X152235828Y-43845254D01*
X152610555Y-44315147D01*
X152615309Y-44321518D01*
X152959134Y-44814417D01*
X152963471Y-44821078D01*
X153275035Y-45335035D01*
X153278935Y-45341961D01*
X153556914Y-45874795D01*
X153560363Y-45881957D01*
X153803636Y-46431514D01*
X153806619Y-46438882D01*
X154014178Y-47002889D01*
X154016683Y-47010432D01*
X154187688Y-47586603D01*
X154189704Y-47594292D01*
X154235546Y-47795137D01*
X154305620Y-48102156D01*
X154323434Y-48180202D01*
X154324954Y-48188005D01*
X154420875Y-48781311D01*
X154421891Y-48789194D01*
X154479600Y-49387411D01*
X154480109Y-49395343D01*
X154499436Y-49998003D01*
X154499500Y-50001978D01*
X154499500Y-50065892D01*
X154516554Y-50129539D01*
X154533608Y-50193187D01*
X154533609Y-50193188D01*
X154599500Y-50307314D01*
X154692686Y-50400500D01*
X154806814Y-50466392D01*
X154934108Y-50500500D01*
X154934110Y-50500500D01*
X155065890Y-50500500D01*
X155065892Y-50500500D01*
X155193186Y-50466392D01*
X155307314Y-50400500D01*
X155352979Y-50354834D01*
X155354821Y-50353031D01*
X156004764Y-49730846D01*
X156008722Y-49727219D01*
X156684123Y-49134909D01*
X156688192Y-49131494D01*
X157388849Y-48569157D01*
X157393062Y-48565925D01*
X158117533Y-48034722D01*
X158121885Y-48031674D01*
X158868856Y-47532564D01*
X158873350Y-47529701D01*
X159641360Y-47063661D01*
X159645992Y-47060987D01*
X160433593Y-46628894D01*
X160438344Y-46626421D01*
X161244003Y-46229114D01*
X161248886Y-46226836D01*
X162071151Y-45865032D01*
X162076102Y-45862981D01*
X162913371Y-45537385D01*
X162918360Y-45535569D01*
X163769007Y-45246813D01*
X163774152Y-45245191D01*
X164636587Y-44993814D01*
X164641771Y-44992425D01*
X165514335Y-44778911D01*
X165519591Y-44777745D01*
X166400624Y-44602496D01*
X166405926Y-44601561D01*
X167293795Y-44464905D01*
X167299122Y-44464204D01*
X168192100Y-44366407D01*
X168197427Y-44365940D01*
X169093870Y-44307184D01*
X169099229Y-44306951D01*
X169997296Y-44287356D01*
X170002704Y-44287356D01*
X170900768Y-44306951D01*
X170906131Y-44307185D01*
X171802568Y-44365940D01*
X171807903Y-44366407D01*
X172700871Y-44464203D01*
X172706210Y-44464906D01*
X173594065Y-44601559D01*
X173599383Y-44602498D01*
X174480395Y-44777743D01*
X174485674Y-44778913D01*
X175358216Y-44992422D01*
X175363424Y-44993817D01*
X175856949Y-45137667D01*
X176225833Y-45245187D01*
X176230992Y-45246814D01*
X176490886Y-45335036D01*
X177081624Y-45535564D01*
X177086642Y-45537390D01*
X177923873Y-45862972D01*
X177928864Y-45865039D01*
X178189675Y-45979798D01*
X178751103Y-46226832D01*
X178756006Y-46229119D01*
X179472841Y-46582623D01*
X179561631Y-46626409D01*
X179566425Y-46628904D01*
X180261860Y-47010433D01*
X180353981Y-47060972D01*
X180358660Y-47063673D01*
X181126628Y-47529688D01*
X181131164Y-47532577D01*
X181878092Y-48031660D01*
X181882487Y-48034737D01*
X182606914Y-48565909D01*
X182611171Y-48569174D01*
X183311784Y-49131476D01*
X183315898Y-49134928D01*
X183761787Y-49525962D01*
X183991261Y-49727206D01*
X183995250Y-49730861D01*
X184644138Y-50352036D01*
X184647963Y-50355861D01*
X185269138Y-51004749D01*
X185272793Y-51008738D01*
X185865058Y-51684086D01*
X185868536Y-51688230D01*
X186430811Y-52388810D01*
X186434104Y-52393103D01*
X186965249Y-53117494D01*
X186968346Y-53121916D01*
X187422889Y-53802187D01*
X187467413Y-53868822D01*
X187470320Y-53873385D01*
X187936322Y-54641333D01*
X187939027Y-54646018D01*
X188371092Y-55433569D01*
X188373590Y-55438368D01*
X188770880Y-56243993D01*
X188773167Y-56248896D01*
X189134957Y-57071127D01*
X189137027Y-57076126D01*
X189152091Y-57114863D01*
X189445119Y-57868382D01*
X189462594Y-57913317D01*
X189464444Y-57918401D01*
X189753185Y-58769007D01*
X189754812Y-58774166D01*
X190006179Y-59636566D01*
X190007579Y-59641792D01*
X190221085Y-60514322D01*
X190222256Y-60519604D01*
X190397500Y-61400611D01*
X190398440Y-61405939D01*
X190535091Y-62293777D01*
X190535797Y-62299140D01*
X190633589Y-63192069D01*
X190634061Y-63197459D01*
X190692813Y-64093847D01*
X190693048Y-64099252D01*
X190712643Y-64997295D01*
X190712643Y-65002705D01*
X190693048Y-65900747D01*
X190692813Y-65906152D01*
X190634061Y-66802540D01*
X190633589Y-66807930D01*
X190535797Y-67700859D01*
X190535091Y-67706222D01*
X190398440Y-68594060D01*
X190397500Y-68599388D01*
X190222256Y-69480395D01*
X190221085Y-69485677D01*
X190007579Y-70358207D01*
X190006179Y-70363433D01*
X189754812Y-71225833D01*
X189753185Y-71230992D01*
X189464444Y-72081598D01*
X189462594Y-72086682D01*
X189137027Y-72923873D01*
X189134957Y-72928872D01*
X188773167Y-73751103D01*
X188770880Y-73756006D01*
X188373590Y-74561631D01*
X188371092Y-74566430D01*
X187939027Y-75353981D01*
X187936322Y-75358666D01*
X187470320Y-76126614D01*
X187467413Y-76131177D01*
X186968352Y-76878074D01*
X186965249Y-76882505D01*
X186434104Y-77606896D01*
X186430811Y-77611189D01*
X185868536Y-78311769D01*
X185865058Y-78315913D01*
X185272793Y-78991261D01*
X185269138Y-78995250D01*
X184647034Y-79645108D01*
X184645142Y-79647041D01*
X145087680Y-119204503D01*
X145026357Y-119237988D01*
X144956665Y-119233004D01*
X144912318Y-119204503D01*
X138609432Y-112901617D01*
X142050000Y-112901617D01*
X142050000Y-113098382D01*
X142080778Y-113292705D01*
X142141581Y-113479835D01*
X142230905Y-113655145D01*
X142256319Y-113690125D01*
X142256320Y-113690125D01*
X142900000Y-113046445D01*
X142900000Y-113052661D01*
X142927259Y-113154394D01*
X142979920Y-113245606D01*
X143054394Y-113320080D01*
X143145606Y-113372741D01*
X143247339Y-113400000D01*
X143253553Y-113400000D01*
X142609873Y-114043677D01*
X142609873Y-114043678D01*
X142644858Y-114069096D01*
X142820164Y-114158418D01*
X143007294Y-114219221D01*
X143201618Y-114250000D01*
X143398382Y-114250000D01*
X143592705Y-114219221D01*
X143779835Y-114158418D01*
X143955143Y-114069095D01*
X143990125Y-114043678D01*
X143990126Y-114043678D01*
X143346448Y-113400000D01*
X143352661Y-113400000D01*
X143454394Y-113372741D01*
X143545606Y-113320080D01*
X143620080Y-113245606D01*
X143672741Y-113154394D01*
X143700000Y-113052661D01*
X143700000Y-113046448D01*
X144343678Y-113690126D01*
X144343678Y-113690125D01*
X144369095Y-113655143D01*
X144458418Y-113479835D01*
X144519221Y-113292705D01*
X144550000Y-113098382D01*
X144550000Y-112901617D01*
X144519221Y-112707294D01*
X144458418Y-112520164D01*
X144369096Y-112344858D01*
X144343678Y-112309873D01*
X144343677Y-112309873D01*
X143700000Y-112953551D01*
X143700000Y-112947339D01*
X143672741Y-112845606D01*
X143620080Y-112754394D01*
X143545606Y-112679920D01*
X143454394Y-112627259D01*
X143352661Y-112600000D01*
X143346447Y-112600000D01*
X143990125Y-111956320D01*
X143990125Y-111956319D01*
X143955145Y-111930905D01*
X143779835Y-111841581D01*
X143592705Y-111780778D01*
X143398382Y-111750000D01*
X143201618Y-111750000D01*
X143007294Y-111780778D01*
X142820161Y-111841582D01*
X142644863Y-111930899D01*
X142644859Y-111930902D01*
X142609873Y-111956320D01*
X142609872Y-111956320D01*
X143253554Y-112600000D01*
X143247339Y-112600000D01*
X143145606Y-112627259D01*
X143054394Y-112679920D01*
X142979920Y-112754394D01*
X142927259Y-112845606D01*
X142900000Y-112947339D01*
X142900000Y-112953552D01*
X142256320Y-112309872D01*
X142256320Y-112309873D01*
X142230902Y-112344859D01*
X142230899Y-112344863D01*
X142141582Y-112520161D01*
X142080778Y-112707294D01*
X142050000Y-112901617D01*
X138609432Y-112901617D01*
X115789668Y-90081853D01*
X121883705Y-90081853D01*
X121883705Y-90286556D01*
X121915727Y-90488739D01*
X121978986Y-90683428D01*
X122071920Y-90865818D01*
X122192233Y-91031418D01*
X122336991Y-91176176D01*
X122491954Y-91288761D01*
X122502595Y-91296492D01*
X122618812Y-91355708D01*
X122684981Y-91389423D01*
X122684983Y-91389423D01*
X122684986Y-91389425D01*
X122789342Y-91423332D01*
X122879670Y-91452682D01*
X122980762Y-91468693D01*
X123081853Y-91484705D01*
X123081854Y-91484705D01*
X123286556Y-91484705D01*
X123286557Y-91484705D01*
X123488739Y-91452682D01*
X123683424Y-91389425D01*
X123865815Y-91296492D01*
X123958795Y-91228937D01*
X124031418Y-91176176D01*
X124031420Y-91176173D01*
X124031424Y-91176171D01*
X124176171Y-91031424D01*
X124176173Y-91031420D01*
X124176176Y-91031418D01*
X124228937Y-90958795D01*
X124296492Y-90865815D01*
X124389425Y-90683424D01*
X124452682Y-90488739D01*
X124484705Y-90286557D01*
X124484705Y-90081853D01*
X124452682Y-89879671D01*
X124448029Y-89865353D01*
X124446033Y-89795514D01*
X124478277Y-89739356D01*
X135185520Y-79032116D01*
X135264577Y-78895184D01*
X135305501Y-78742457D01*
X135305501Y-78584342D01*
X135305501Y-78576747D01*
X135305500Y-78576729D01*
X135305500Y-76624399D01*
X135325185Y-76557360D01*
X135377989Y-76511605D01*
X135429500Y-76500399D01*
X135552871Y-76500399D01*
X135552872Y-76500399D01*
X135612483Y-76493991D01*
X135747331Y-76443696D01*
X135862546Y-76357446D01*
X135948796Y-76242231D01*
X135999091Y-76107383D01*
X136005500Y-76047773D01*
X136005499Y-73952028D01*
X135999091Y-73892417D01*
X135948796Y-73757569D01*
X135948795Y-73757568D01*
X135948793Y-73757564D01*
X135862547Y-73642355D01*
X135862544Y-73642352D01*
X135747335Y-73556106D01*
X135747328Y-73556102D01*
X135612482Y-73505808D01*
X135612483Y-73505808D01*
X135552883Y-73499401D01*
X135552881Y-73499400D01*
X135552873Y-73499400D01*
X135552864Y-73499400D01*
X133857129Y-73499400D01*
X133857123Y-73499401D01*
X133797516Y-73505808D01*
X133662671Y-73556102D01*
X133662664Y-73556106D01*
X133547455Y-73642352D01*
X133547452Y-73642355D01*
X133461206Y-73757564D01*
X133461202Y-73757571D01*
X133410908Y-73892417D01*
X133405157Y-73945917D01*
X133404501Y-73952023D01*
X133404500Y-73952035D01*
X133404500Y-76047770D01*
X133404501Y-76047776D01*
X133410908Y-76107383D01*
X133461202Y-76242228D01*
X133461206Y-76242235D01*
X133547452Y-76357444D01*
X133547455Y-76357447D01*
X133662664Y-76443693D01*
X133662671Y-76443697D01*
X133707618Y-76460461D01*
X133797517Y-76493991D01*
X133857127Y-76500400D01*
X133980500Y-76500399D01*
X134047539Y-76520083D01*
X134093294Y-76572887D01*
X134104500Y-76624399D01*
X134104500Y-78363302D01*
X134084815Y-78430341D01*
X134068181Y-78450983D01*
X123629039Y-88890124D01*
X123567716Y-88923609D01*
X123503046Y-88920376D01*
X123488737Y-88915727D01*
X123324605Y-88889731D01*
X123286557Y-88883705D01*
X123081853Y-88883705D01*
X123057534Y-88887556D01*
X122879670Y-88915727D01*
X122684981Y-88978986D01*
X122502591Y-89071920D01*
X122336991Y-89192233D01*
X122192233Y-89336991D01*
X122071920Y-89502591D01*
X121978986Y-89684981D01*
X121915727Y-89879670D01*
X121883705Y-90081853D01*
X115789668Y-90081853D01*
X108605463Y-82897648D01*
X114699500Y-82897648D01*
X114699500Y-83102351D01*
X114731522Y-83304534D01*
X114794781Y-83499223D01*
X114842558Y-83592989D01*
X114887195Y-83680594D01*
X114887715Y-83681613D01*
X115008028Y-83847213D01*
X115152786Y-83991971D01*
X115307749Y-84104556D01*
X115318390Y-84112287D01*
X115434607Y-84171503D01*
X115500776Y-84205218D01*
X115500778Y-84205218D01*
X115500781Y-84205220D01*
X115605137Y-84239127D01*
X115695465Y-84268477D01*
X115796557Y-84284488D01*
X115897648Y-84300500D01*
X115897649Y-84300500D01*
X116102351Y-84300500D01*
X116102352Y-84300500D01*
X116304534Y-84268477D01*
X116499219Y-84205220D01*
X116681610Y-84112287D01*
X116774590Y-84044732D01*
X116847213Y-83991971D01*
X116847215Y-83991968D01*
X116847219Y-83991966D01*
X116991966Y-83847219D01*
X116991968Y-83847215D01*
X116991971Y-83847213D01*
X117069183Y-83740938D01*
X117112287Y-83681610D01*
X117205220Y-83499219D01*
X117268477Y-83304534D01*
X117300500Y-83102352D01*
X117300500Y-82897648D01*
X117268477Y-82695466D01*
X117205220Y-82500781D01*
X117205218Y-82500778D01*
X117205218Y-82500776D01*
X117128292Y-82349802D01*
X117112287Y-82318390D01*
X117060202Y-82246700D01*
X116991971Y-82152786D01*
X116847213Y-82008028D01*
X116681613Y-81887715D01*
X116681612Y-81887714D01*
X116681610Y-81887713D01*
X116624653Y-81858691D01*
X116499223Y-81794781D01*
X116304534Y-81731522D01*
X116129995Y-81703878D01*
X116102352Y-81699500D01*
X115897648Y-81699500D01*
X115873329Y-81703351D01*
X115695465Y-81731522D01*
X115500776Y-81794781D01*
X115318386Y-81887715D01*
X115152786Y-82008028D01*
X115008028Y-82152786D01*
X114887715Y-82318386D01*
X114794781Y-82500776D01*
X114731522Y-82695465D01*
X114699500Y-82897648D01*
X108605463Y-82897648D01*
X105354857Y-79647042D01*
X105352965Y-79645109D01*
X104730861Y-78995250D01*
X104727206Y-78991261D01*
X104525962Y-78761787D01*
X104134928Y-78315898D01*
X104131476Y-78311784D01*
X103569174Y-77611171D01*
X103565909Y-77606914D01*
X103034737Y-76882487D01*
X103031660Y-76878092D01*
X102532577Y-76131164D01*
X102529680Y-76126615D01*
X102523909Y-76117105D01*
X102487830Y-76057648D01*
X107699500Y-76057648D01*
X107699500Y-76262351D01*
X107731522Y-76464534D01*
X107794781Y-76659223D01*
X107887715Y-76841613D01*
X108008028Y-77007213D01*
X108152786Y-77151971D01*
X108302520Y-77260757D01*
X108318390Y-77272287D01*
X108434607Y-77331503D01*
X108500776Y-77365218D01*
X108500778Y-77365218D01*
X108500781Y-77365220D01*
X108605137Y-77399127D01*
X108695465Y-77428477D01*
X108796557Y-77444488D01*
X108897648Y-77460500D01*
X108897649Y-77460500D01*
X109102351Y-77460500D01*
X109102352Y-77460500D01*
X109304534Y-77428477D01*
X109499219Y-77365220D01*
X109681610Y-77272287D01*
X109775246Y-77204257D01*
X109847213Y-77151971D01*
X109847215Y-77151968D01*
X109847219Y-77151966D01*
X109991966Y-77007219D01*
X109991968Y-77007215D01*
X109991971Y-77007213D01*
X110084164Y-76880318D01*
X110112287Y-76841610D01*
X110205220Y-76659219D01*
X110268477Y-76464534D01*
X110300500Y-76262352D01*
X110300500Y-76057648D01*
X110268477Y-75855466D01*
X110205220Y-75660781D01*
X110205218Y-75660778D01*
X110205218Y-75660776D01*
X110125497Y-75504317D01*
X110112287Y-75478390D01*
X110073425Y-75424900D01*
X109991971Y-75312786D01*
X109847213Y-75168028D01*
X109681613Y-75047715D01*
X109681612Y-75047714D01*
X109681610Y-75047713D01*
X109624653Y-75018691D01*
X109499223Y-74954781D01*
X109304534Y-74891522D01*
X109129995Y-74863878D01*
X109102352Y-74859500D01*
X108897648Y-74859500D01*
X108873329Y-74863351D01*
X108695465Y-74891522D01*
X108500776Y-74954781D01*
X108318386Y-75047715D01*
X108152786Y-75168028D01*
X108008028Y-75312786D01*
X107887715Y-75478386D01*
X107794781Y-75660776D01*
X107731522Y-75855465D01*
X107699500Y-76057648D01*
X102487830Y-76057648D01*
X102063673Y-75358660D01*
X102060972Y-75353981D01*
X102032573Y-75302217D01*
X101628904Y-74566425D01*
X101626409Y-74561631D01*
X101229119Y-73756006D01*
X101226832Y-73751103D01*
X101045937Y-73339987D01*
X100865039Y-72928864D01*
X100862972Y-72923873D01*
X100537390Y-72086642D01*
X100535564Y-72081624D01*
X100246814Y-71230992D01*
X100245187Y-71225833D01*
X99993820Y-70363433D01*
X99992420Y-70358207D01*
X99778914Y-69485677D01*
X99777743Y-69480395D01*
X99602499Y-68599388D01*
X99601559Y-68594060D01*
X99464906Y-67706210D01*
X99464202Y-67700859D01*
X99366407Y-66807903D01*
X99365940Y-66802568D01*
X99307185Y-65906131D01*
X99306951Y-65900747D01*
X99306883Y-65897648D01*
X99287356Y-65002703D01*
X99287356Y-64997295D01*
X99306951Y-64099229D01*
X99307184Y-64093870D01*
X99365940Y-63197427D01*
X99366407Y-63192100D01*
X99464204Y-62299122D01*
X99464908Y-62293777D01*
X99472978Y-62241351D01*
X99601561Y-61405926D01*
X99602499Y-61400611D01*
X99777743Y-60519604D01*
X99778914Y-60514322D01*
X99887532Y-60070435D01*
X99992425Y-59641771D01*
X99993820Y-59636566D01*
X100007418Y-59589916D01*
X100245191Y-58774152D01*
X100246814Y-58769007D01*
X100423049Y-58249835D01*
X100535569Y-57918360D01*
X100537385Y-57913371D01*
X100862981Y-57076102D01*
X100865032Y-57071151D01*
X101226836Y-56248886D01*
X101229119Y-56243993D01*
X101235354Y-56231350D01*
X101626421Y-55438344D01*
X101628894Y-55433593D01*
X101927241Y-54889778D01*
X107334500Y-54889778D01*
X107334500Y-55110221D01*
X107368985Y-55327952D01*
X107437103Y-55537603D01*
X107437104Y-55537606D01*
X107537187Y-55734025D01*
X107666752Y-55912358D01*
X107666756Y-55912363D01*
X107822636Y-56068243D01*
X107822641Y-56068247D01*
X108000976Y-56197814D01*
X108066794Y-56231350D01*
X108117591Y-56279324D01*
X108134500Y-56341835D01*
X108134500Y-64974953D01*
X108114815Y-65041992D01*
X108098181Y-65062634D01*
X108008032Y-65152782D01*
X108008028Y-65152786D01*
X107887715Y-65318386D01*
X107794781Y-65500776D01*
X107731522Y-65695465D01*
X107699500Y-65897648D01*
X107699500Y-66102351D01*
X107731522Y-66304534D01*
X107794781Y-66499223D01*
X107887715Y-66681613D01*
X108008028Y-66847213D01*
X108152786Y-66991971D01*
X108307749Y-67104556D01*
X108318390Y-67112287D01*
X108434607Y-67171503D01*
X108500776Y-67205218D01*
X108500778Y-67205218D01*
X108500781Y-67205220D01*
X108605137Y-67239127D01*
X108695465Y-67268477D01*
X108796557Y-67284488D01*
X108897648Y-67300500D01*
X108897649Y-67300500D01*
X109102351Y-67300500D01*
X109102352Y-67300500D01*
X109304534Y-67268477D01*
X109499219Y-67205220D01*
X109681610Y-67112287D01*
X109774590Y-67044732D01*
X109847213Y-66991971D01*
X109847215Y-66991968D01*
X109847219Y-66991966D01*
X109991966Y-66847219D01*
X109991968Y-66847215D01*
X109991971Y-66847213D01*
X110050093Y-66767213D01*
X110112287Y-66681610D01*
X110205220Y-66499219D01*
X110268477Y-66304534D01*
X110300500Y-66102352D01*
X110300500Y-65897648D01*
X110268477Y-65695466D01*
X110205220Y-65500781D01*
X110205218Y-65500778D01*
X110205218Y-65500776D01*
X110164455Y-65420776D01*
X110112287Y-65318390D01*
X110104556Y-65307749D01*
X109991971Y-65152786D01*
X109847213Y-65008028D01*
X109681613Y-64887715D01*
X109681612Y-64887714D01*
X109681610Y-64887713D01*
X109624653Y-64858691D01*
X109499223Y-64794781D01*
X109460758Y-64782283D01*
X109421180Y-64769423D01*
X109363506Y-64729986D01*
X109336308Y-64665627D01*
X109335500Y-64651493D01*
X109335500Y-56972135D01*
X141209500Y-56972135D01*
X141209500Y-58567870D01*
X141209501Y-58567876D01*
X141215908Y-58627483D01*
X141266202Y-58762328D01*
X141266206Y-58762335D01*
X141352452Y-58877544D01*
X141352455Y-58877547D01*
X141467664Y-58963793D01*
X141467671Y-58963797D01*
X141512618Y-58980561D01*
X141602517Y-59014091D01*
X141662127Y-59020500D01*
X141809788Y-59020499D01*
X141821305Y-59023881D01*
X141833254Y-59022740D01*
X141854206Y-59033541D01*
X141876827Y-59040183D01*
X141886240Y-59050055D01*
X141895357Y-59054755D01*
X141917171Y-59082493D01*
X141929360Y-59103604D01*
X141979479Y-59190414D01*
X141979481Y-59190417D01*
X142098349Y-59309285D01*
X142098355Y-59309290D01*
X142823181Y-60034116D01*
X142856666Y-60095439D01*
X142859500Y-60121797D01*
X142859500Y-94475500D01*
X142839815Y-94542539D01*
X142787011Y-94588294D01*
X142735501Y-94599500D01*
X142512130Y-94599500D01*
X142512123Y-94599501D01*
X142452516Y-94605908D01*
X142317671Y-94656202D01*
X142317664Y-94656206D01*
X142202455Y-94742452D01*
X142202452Y-94742455D01*
X142116206Y-94857664D01*
X142116202Y-94857671D01*
X142065908Y-94992517D01*
X142059501Y-95052116D01*
X142059500Y-95052135D01*
X142059500Y-96947870D01*
X142059501Y-96947876D01*
X142065908Y-97007483D01*
X142116202Y-97142328D01*
X142116206Y-97142335D01*
X142202452Y-97257544D01*
X142202455Y-97257547D01*
X142317664Y-97343793D01*
X142317671Y-97343797D01*
X142452517Y-97394091D01*
X142452516Y-97394091D01*
X142459444Y-97394835D01*
X142512127Y-97400500D01*
X144407872Y-97400499D01*
X144467483Y-97394091D01*
X144602331Y-97343796D01*
X144717546Y-97257546D01*
X144803796Y-97142331D01*
X144831429Y-97068243D01*
X144833601Y-97062420D01*
X144875471Y-97006486D01*
X144940936Y-96982068D01*
X145009209Y-96996919D01*
X145037464Y-97018071D01*
X145087636Y-97068243D01*
X145087641Y-97068247D01*
X145189603Y-97142326D01*
X145265978Y-97197815D01*
X145394375Y-97263237D01*
X145462393Y-97297895D01*
X145462396Y-97297896D01*
X145567221Y-97331955D01*
X145672049Y-97366015D01*
X145889778Y-97400500D01*
X145889779Y-97400500D01*
X146110221Y-97400500D01*
X146110222Y-97400500D01*
X146327951Y-97366015D01*
X146486783Y-97314407D01*
X146556623Y-97312413D01*
X146616456Y-97348493D01*
X146647284Y-97411194D01*
X146649100Y-97432339D01*
X146649100Y-111636067D01*
X146629415Y-111703106D01*
X146576611Y-111748861D01*
X146544499Y-111758540D01*
X146407172Y-111780291D01*
X146219970Y-111841117D01*
X146044594Y-111930476D01*
X145953741Y-111996485D01*
X145885354Y-112046172D01*
X145885352Y-112046174D01*
X145885351Y-112046174D01*
X145746174Y-112185351D01*
X145746174Y-112185352D01*
X145746172Y-112185354D01*
X145696485Y-112253741D01*
X145630476Y-112344594D01*
X145541117Y-112519970D01*
X145480290Y-112707173D01*
X145449500Y-112901577D01*
X145449500Y-113098422D01*
X145480290Y-113292826D01*
X145541117Y-113480029D01*
X145630343Y-113655143D01*
X145630476Y-113655405D01*
X145746172Y-113814646D01*
X145885354Y-113953828D01*
X146044595Y-114069524D01*
X146127455Y-114111743D01*
X146219970Y-114158882D01*
X146219972Y-114158882D01*
X146219975Y-114158884D01*
X146320317Y-114191487D01*
X146407173Y-114219709D01*
X146601578Y-114250500D01*
X146601583Y-114250500D01*
X146798422Y-114250500D01*
X146992826Y-114219709D01*
X146994328Y-114219221D01*
X147180025Y-114158884D01*
X147355405Y-114069524D01*
X147514646Y-113953828D01*
X147653828Y-113814646D01*
X147769524Y-113655405D01*
X147858884Y-113480025D01*
X147919709Y-113292826D01*
X147927188Y-113245606D01*
X147950500Y-113098422D01*
X147950500Y-112901577D01*
X147927188Y-112754394D01*
X147919709Y-112707174D01*
X147919708Y-112707170D01*
X147919708Y-112707169D01*
X147857379Y-112515341D01*
X147858247Y-112515058D01*
X147857913Y-112513379D01*
X147855124Y-112509040D01*
X147850101Y-112474104D01*
X147850101Y-112468021D01*
X147850101Y-112371342D01*
X147850100Y-112371338D01*
X147850100Y-93081848D01*
X162515300Y-93081848D01*
X162515300Y-93286551D01*
X162547322Y-93488734D01*
X162610581Y-93683423D01*
X162703515Y-93865813D01*
X162823828Y-94031413D01*
X162968586Y-94176171D01*
X163123549Y-94288756D01*
X163134190Y-94296487D01*
X163250407Y-94355703D01*
X163316576Y-94389418D01*
X163316578Y-94389418D01*
X163316581Y-94389420D01*
X163420937Y-94423327D01*
X163511265Y-94452677D01*
X163612357Y-94468688D01*
X163713448Y-94484700D01*
X163713449Y-94484700D01*
X163918151Y-94484700D01*
X163918152Y-94484700D01*
X164120334Y-94452677D01*
X164315019Y-94389420D01*
X164497410Y-94296487D01*
X164590390Y-94228932D01*
X164663013Y-94176171D01*
X164663015Y-94176168D01*
X164663019Y-94176166D01*
X164807766Y-94031419D01*
X164807768Y-94031415D01*
X164807771Y-94031413D01*
X164860532Y-93958790D01*
X164928087Y-93865810D01*
X165021020Y-93683419D01*
X165084277Y-93488734D01*
X165116300Y-93286552D01*
X165116300Y-93081848D01*
X165084277Y-92879666D01*
X165021020Y-92684981D01*
X165021018Y-92684978D01*
X165021018Y-92684976D01*
X164987303Y-92618807D01*
X164928087Y-92502590D01*
X164920356Y-92491949D01*
X164807771Y-92336986D01*
X164663013Y-92192228D01*
X164497413Y-92071915D01*
X164497412Y-92071914D01*
X164497410Y-92071913D01*
X164440453Y-92042891D01*
X164315023Y-91978981D01*
X164120334Y-91915722D01*
X163945795Y-91888078D01*
X163918152Y-91883700D01*
X163713448Y-91883700D01*
X163689129Y-91887551D01*
X163511265Y-91915722D01*
X163316576Y-91978981D01*
X163134186Y-92071915D01*
X162968586Y-92192228D01*
X162823828Y-92336986D01*
X162703515Y-92502586D01*
X162610581Y-92684976D01*
X162547322Y-92879665D01*
X162515300Y-93081848D01*
X147850100Y-93081848D01*
X147850100Y-85897643D01*
X169699503Y-85897643D01*
X169699503Y-86102346D01*
X169731525Y-86304529D01*
X169794784Y-86499218D01*
X169887718Y-86681608D01*
X170008031Y-86847208D01*
X170152789Y-86991966D01*
X170307752Y-87104551D01*
X170318393Y-87112282D01*
X170434610Y-87171498D01*
X170500779Y-87205213D01*
X170500781Y-87205213D01*
X170500784Y-87205215D01*
X170605140Y-87239122D01*
X170695468Y-87268472D01*
X170796560Y-87284483D01*
X170897651Y-87300495D01*
X170897652Y-87300495D01*
X171102354Y-87300495D01*
X171102355Y-87300495D01*
X171304537Y-87268472D01*
X171499222Y-87205215D01*
X171681613Y-87112282D01*
X171774593Y-87044727D01*
X171847216Y-86991966D01*
X171847218Y-86991963D01*
X171847222Y-86991961D01*
X171991969Y-86847214D01*
X171991971Y-86847210D01*
X171991974Y-86847208D01*
X172044735Y-86774585D01*
X172112290Y-86681605D01*
X172205223Y-86499214D01*
X172268480Y-86304529D01*
X172300503Y-86102347D01*
X172300503Y-85897643D01*
X172268480Y-85695461D01*
X172263830Y-85681153D01*
X172261834Y-85611313D01*
X172294078Y-85555155D01*
X180039142Y-77810092D01*
X180094724Y-77778001D01*
X180231784Y-77741277D01*
X180368716Y-77662220D01*
X180480520Y-77550416D01*
X180559577Y-77413484D01*
X180594634Y-77282647D01*
X180630998Y-77222989D01*
X180658108Y-77204261D01*
X180681610Y-77192287D01*
X180847219Y-77071966D01*
X180991966Y-76927219D01*
X180991968Y-76927215D01*
X180991971Y-76927213D01*
X181054164Y-76841610D01*
X181112287Y-76761610D01*
X181205220Y-76579219D01*
X181268477Y-76384534D01*
X181300500Y-76182352D01*
X181300500Y-75977648D01*
X181268477Y-75775466D01*
X181205220Y-75580781D01*
X181205218Y-75580778D01*
X181205218Y-75580776D01*
X181153047Y-75478386D01*
X181112287Y-75398390D01*
X181081745Y-75356352D01*
X180991971Y-75232786D01*
X180847213Y-75088028D01*
X180681613Y-74967715D01*
X180681612Y-74967714D01*
X180681610Y-74967713D01*
X180624653Y-74938691D01*
X180499223Y-74874781D01*
X180304534Y-74811522D01*
X180129995Y-74783878D01*
X180102352Y-74779500D01*
X179897648Y-74779500D01*
X179873329Y-74783351D01*
X179695465Y-74811522D01*
X179500776Y-74874781D01*
X179318386Y-74967715D01*
X179152786Y-75088028D01*
X179008028Y-75232786D01*
X178887715Y-75398386D01*
X178794781Y-75580776D01*
X178731522Y-75775465D01*
X178699500Y-75977648D01*
X178699500Y-76182351D01*
X178731522Y-76384534D01*
X178794781Y-76579223D01*
X178887715Y-76761613D01*
X179008028Y-76927213D01*
X179028108Y-76947293D01*
X179061593Y-77008616D01*
X179056609Y-77078308D01*
X179028108Y-77122655D01*
X171444846Y-84705917D01*
X171383523Y-84739402D01*
X171318852Y-84736169D01*
X171312448Y-84734088D01*
X171304537Y-84731518D01*
X171304535Y-84731517D01*
X171304533Y-84731517D01*
X171142901Y-84705917D01*
X171102355Y-84699495D01*
X170897651Y-84699495D01*
X170873332Y-84703346D01*
X170695468Y-84731517D01*
X170500779Y-84794776D01*
X170318389Y-84887710D01*
X170152789Y-85008023D01*
X170008031Y-85152781D01*
X169887718Y-85318381D01*
X169794784Y-85500771D01*
X169731525Y-85695460D01*
X169699503Y-85897643D01*
X147850100Y-85897643D01*
X147850100Y-83895700D01*
X147869785Y-83828661D01*
X147922589Y-83782906D01*
X147974100Y-83771700D01*
X148066844Y-83771700D01*
X148066845Y-83771699D01*
X148221497Y-83740937D01*
X148367179Y-83680594D01*
X148498289Y-83592989D01*
X148609789Y-83481489D01*
X148697394Y-83350379D01*
X148701728Y-83339917D01*
X148757735Y-83204701D01*
X148757737Y-83204697D01*
X148788500Y-83050042D01*
X148788500Y-82892358D01*
X148788500Y-82892355D01*
X148788499Y-82892353D01*
X148757738Y-82737710D01*
X148757737Y-82737703D01*
X148740242Y-82695465D01*
X148697397Y-82592027D01*
X148697390Y-82592014D01*
X148609789Y-82460911D01*
X148609786Y-82460907D01*
X148498292Y-82349413D01*
X148498288Y-82349410D01*
X148367185Y-82261809D01*
X148367172Y-82261802D01*
X148221501Y-82201464D01*
X148221489Y-82201461D01*
X148066845Y-82170700D01*
X148066842Y-82170700D01*
X147909158Y-82170700D01*
X147909155Y-82170700D01*
X147754510Y-82201461D01*
X147754498Y-82201464D01*
X147608827Y-82261802D01*
X147608814Y-82261809D01*
X147477125Y-82349802D01*
X147410447Y-82370680D01*
X147408234Y-82370700D01*
X145724500Y-82370700D01*
X145657461Y-82351015D01*
X145611706Y-82298211D01*
X145600500Y-82246700D01*
X145600500Y-74697582D01*
X153905000Y-74697582D01*
X153905000Y-74749900D01*
X154858590Y-74749900D01*
X154808963Y-74835856D01*
X154780000Y-74943948D01*
X154780000Y-75055852D01*
X154808963Y-75163944D01*
X154858590Y-75249900D01*
X153905000Y-75249900D01*
X153905000Y-75302217D01*
X153937009Y-75504317D01*
X154000244Y-75698931D01*
X154093140Y-75881249D01*
X154213417Y-76046794D01*
X154213417Y-76046795D01*
X154358104Y-76191482D01*
X154523650Y-76311759D01*
X154705968Y-76404654D01*
X154900578Y-76467888D01*
X154955000Y-76476507D01*
X154955000Y-75346309D01*
X155040956Y-75395937D01*
X155149048Y-75424900D01*
X155260952Y-75424900D01*
X155369044Y-75395937D01*
X155455000Y-75346309D01*
X155455000Y-76476506D01*
X155509421Y-76467888D01*
X155704031Y-76404654D01*
X155886349Y-76311759D01*
X156051894Y-76191482D01*
X156051895Y-76191482D01*
X156196582Y-76046795D01*
X156196582Y-76046794D01*
X156316859Y-75881249D01*
X156409755Y-75698931D01*
X156472990Y-75504317D01*
X156505000Y-75302217D01*
X156505000Y-75249900D01*
X155551410Y-75249900D01*
X155601037Y-75163944D01*
X155630000Y-75055852D01*
X155630000Y-74943948D01*
X155601037Y-74835856D01*
X155551410Y-74749900D01*
X156505000Y-74749900D01*
X156505000Y-74697582D01*
X156472990Y-74495482D01*
X156409755Y-74300868D01*
X156316859Y-74118550D01*
X156196582Y-73953005D01*
X156196582Y-73953004D01*
X156051895Y-73808317D01*
X155886349Y-73688040D01*
X155704029Y-73595144D01*
X155509413Y-73531909D01*
X155455000Y-73523290D01*
X155455000Y-74653490D01*
X155369044Y-74603863D01*
X155260952Y-74574900D01*
X155149048Y-74574900D01*
X155040956Y-74603863D01*
X154955000Y-74653490D01*
X154955000Y-73523290D01*
X154900586Y-73531909D01*
X154705970Y-73595144D01*
X154523650Y-73688040D01*
X154358105Y-73808317D01*
X154358104Y-73808317D01*
X154213417Y-73953004D01*
X154213417Y-73953005D01*
X154093140Y-74118550D01*
X154000244Y-74300868D01*
X153937009Y-74495482D01*
X153905000Y-74697582D01*
X145600500Y-74697582D01*
X145600500Y-57671617D01*
X146290000Y-57671617D01*
X146290000Y-57868382D01*
X146320778Y-58062705D01*
X146381581Y-58249835D01*
X146470905Y-58425145D01*
X146496319Y-58460125D01*
X146496320Y-58460125D01*
X147140000Y-57816445D01*
X147140000Y-57822661D01*
X147167259Y-57924394D01*
X147219920Y-58015606D01*
X147294394Y-58090080D01*
X147385606Y-58142741D01*
X147487339Y-58170000D01*
X147493553Y-58170000D01*
X146849873Y-58813677D01*
X146849873Y-58813678D01*
X146884858Y-58839096D01*
X147060164Y-58928418D01*
X147247294Y-58989221D01*
X147441618Y-59020000D01*
X147638382Y-59020000D01*
X147832705Y-58989221D01*
X148019835Y-58928418D01*
X148195143Y-58839095D01*
X148230125Y-58813678D01*
X148230126Y-58813678D01*
X147586448Y-58170000D01*
X147592661Y-58170000D01*
X147694394Y-58142741D01*
X147785606Y-58090080D01*
X147860080Y-58015606D01*
X147912741Y-57924394D01*
X147940000Y-57822661D01*
X147940000Y-57816448D01*
X148583678Y-58460126D01*
X148583678Y-58460125D01*
X148609095Y-58425143D01*
X148698418Y-58249835D01*
X148759221Y-58062705D01*
X148790000Y-57868382D01*
X148790000Y-57671617D01*
X148759221Y-57477294D01*
X148698418Y-57290164D01*
X148609096Y-57114858D01*
X148583678Y-57079873D01*
X148583677Y-57079873D01*
X147940000Y-57723551D01*
X147940000Y-57717339D01*
X147912741Y-57615606D01*
X147860080Y-57524394D01*
X147785606Y-57449920D01*
X147694394Y-57397259D01*
X147592661Y-57370000D01*
X147586447Y-57370000D01*
X148230125Y-56726320D01*
X148230125Y-56726319D01*
X148195145Y-56700905D01*
X148019835Y-56611581D01*
X147832705Y-56550778D01*
X147638382Y-56520000D01*
X147441618Y-56520000D01*
X147247294Y-56550778D01*
X147060161Y-56611582D01*
X146884863Y-56700899D01*
X146884859Y-56700902D01*
X146849873Y-56726320D01*
X146849872Y-56726320D01*
X147493554Y-57370000D01*
X147487339Y-57370000D01*
X147385606Y-57397259D01*
X147294394Y-57449920D01*
X147219920Y-57524394D01*
X147167259Y-57615606D01*
X147140000Y-57717339D01*
X147140000Y-57723552D01*
X146496320Y-57079872D01*
X146496320Y-57079873D01*
X146470902Y-57114859D01*
X146470899Y-57114863D01*
X146381582Y-57290161D01*
X146320778Y-57477294D01*
X146290000Y-57671617D01*
X145600500Y-57671617D01*
X145600500Y-56402597D01*
X145620185Y-56335558D01*
X145651614Y-56302279D01*
X145655406Y-56299524D01*
X145814647Y-56183828D01*
X145953829Y-56044646D01*
X146069525Y-55885405D01*
X146158885Y-55710025D01*
X146219710Y-55522826D01*
X146233847Y-55433569D01*
X146250501Y-55328422D01*
X146250501Y-55131577D01*
X146219710Y-54937173D01*
X146158883Y-54749970D01*
X146105917Y-54646018D01*
X146069525Y-54574595D01*
X145953829Y-54415354D01*
X145814647Y-54276172D01*
X145655406Y-54160476D01*
X145631411Y-54148250D01*
X145480030Y-54071117D01*
X145421610Y-54052135D01*
X177324500Y-54052135D01*
X177324500Y-55947870D01*
X177324501Y-55947876D01*
X177330908Y-56007483D01*
X177381202Y-56142328D01*
X177381206Y-56142335D01*
X177467452Y-56257544D01*
X177467455Y-56257547D01*
X177582664Y-56343793D01*
X177582671Y-56343797D01*
X177717517Y-56394091D01*
X177717516Y-56394091D01*
X177724444Y-56394835D01*
X177777127Y-56400500D01*
X179672872Y-56400499D01*
X179732483Y-56394091D01*
X179867331Y-56343796D01*
X179982546Y-56257546D01*
X180068796Y-56142331D01*
X180096429Y-56068243D01*
X180098601Y-56062420D01*
X180140471Y-56006486D01*
X180205936Y-55982068D01*
X180274209Y-55996919D01*
X180302464Y-56018071D01*
X180352636Y-56068243D01*
X180352641Y-56068247D01*
X180530976Y-56197814D01*
X180596794Y-56231350D01*
X180647591Y-56279324D01*
X180664500Y-56341835D01*
X180664500Y-64354902D01*
X180644815Y-64421941D01*
X180628181Y-64442583D01*
X180444842Y-64625922D01*
X180383519Y-64659407D01*
X180318843Y-64656172D01*
X180304534Y-64651523D01*
X180304345Y-64651493D01*
X180102352Y-64619500D01*
X179897648Y-64619500D01*
X179873329Y-64623351D01*
X179695465Y-64651522D01*
X179500776Y-64714781D01*
X179318386Y-64807715D01*
X179152786Y-64928028D01*
X179008028Y-65072786D01*
X178887715Y-65238386D01*
X178794781Y-65420776D01*
X178731522Y-65615465D01*
X178699500Y-65817648D01*
X178699500Y-66022351D01*
X178731522Y-66224534D01*
X178794781Y-66419223D01*
X178887715Y-66601613D01*
X179008028Y-66767213D01*
X179152786Y-66911971D01*
X179262892Y-66991966D01*
X179318390Y-67032287D01*
X179434607Y-67091503D01*
X179500776Y-67125218D01*
X179500778Y-67125218D01*
X179500781Y-67125220D01*
X179605137Y-67159127D01*
X179695465Y-67188477D01*
X179796557Y-67204488D01*
X179897648Y-67220500D01*
X179897649Y-67220500D01*
X180102351Y-67220500D01*
X180102352Y-67220500D01*
X180304534Y-67188477D01*
X180499219Y-67125220D01*
X180681610Y-67032287D01*
X180774590Y-66964732D01*
X180847213Y-66911971D01*
X180847215Y-66911968D01*
X180847219Y-66911966D01*
X180991966Y-66767219D01*
X180991968Y-66767215D01*
X180991971Y-66767213D01*
X181054164Y-66681610D01*
X181112287Y-66601610D01*
X181205220Y-66419219D01*
X181268477Y-66224534D01*
X181300500Y-66022352D01*
X181300500Y-65817648D01*
X181268477Y-65615466D01*
X181263825Y-65601151D01*
X181261832Y-65531312D01*
X181294075Y-65475158D01*
X181623506Y-65145728D01*
X181623511Y-65145724D01*
X181633714Y-65135520D01*
X181633716Y-65135520D01*
X181745520Y-65023716D01*
X181824041Y-64887713D01*
X181824042Y-64887713D01*
X181824048Y-64887700D01*
X181824577Y-64886785D01*
X181865500Y-64734057D01*
X181865500Y-64575943D01*
X181865500Y-56341835D01*
X181885185Y-56274796D01*
X181933206Y-56231350D01*
X181933547Y-56231175D01*
X181999022Y-56197815D01*
X182177365Y-56068242D01*
X182333242Y-55912365D01*
X182462815Y-55734022D01*
X182562895Y-55537606D01*
X182631015Y-55327951D01*
X182665500Y-55110222D01*
X182665500Y-54889778D01*
X182631015Y-54672049D01*
X182562895Y-54462394D01*
X182562895Y-54462393D01*
X182528237Y-54394375D01*
X182462815Y-54265978D01*
X182404501Y-54185715D01*
X182333247Y-54087641D01*
X182333243Y-54087636D01*
X182177363Y-53931756D01*
X182177358Y-53931752D01*
X181999025Y-53802187D01*
X181999024Y-53802186D01*
X181999022Y-53802185D01*
X181881791Y-53742452D01*
X181802606Y-53702104D01*
X181802603Y-53702103D01*
X181592952Y-53633985D01*
X181459081Y-53612782D01*
X181375222Y-53599500D01*
X181154778Y-53599500D01*
X181082201Y-53610995D01*
X180937047Y-53633985D01*
X180727396Y-53702103D01*
X180727393Y-53702104D01*
X180530974Y-53802187D01*
X180352641Y-53931752D01*
X180352636Y-53931756D01*
X180302463Y-53981929D01*
X180241140Y-54015413D01*
X180171448Y-54010428D01*
X180115515Y-53968557D01*
X180098601Y-53937580D01*
X180068797Y-53857671D01*
X180068793Y-53857664D01*
X179982547Y-53742455D01*
X179982544Y-53742452D01*
X179867335Y-53656206D01*
X179867328Y-53656202D01*
X179732482Y-53605908D01*
X179732483Y-53605908D01*
X179672883Y-53599501D01*
X179672881Y-53599500D01*
X179672873Y-53599500D01*
X179672864Y-53599500D01*
X177777129Y-53599500D01*
X177777123Y-53599501D01*
X177717516Y-53605908D01*
X177582671Y-53656202D01*
X177582664Y-53656206D01*
X177467455Y-53742452D01*
X177467452Y-53742455D01*
X177381206Y-53857664D01*
X177381202Y-53857671D01*
X177330908Y-53992517D01*
X177324501Y-54052116D01*
X177324501Y-54052123D01*
X177324500Y-54052135D01*
X145421610Y-54052135D01*
X145292827Y-54010290D01*
X145098423Y-53979500D01*
X145098418Y-53979500D01*
X144901584Y-53979500D01*
X144901579Y-53979500D01*
X144707174Y-54010290D01*
X144519971Y-54071117D01*
X144344595Y-54160476D01*
X144253742Y-54226485D01*
X144185355Y-54276172D01*
X144185353Y-54276174D01*
X144185352Y-54276174D01*
X144046175Y-54415351D01*
X144046175Y-54415352D01*
X144046173Y-54415354D01*
X144011997Y-54462393D01*
X143930477Y-54574594D01*
X143841118Y-54749970D01*
X143780291Y-54937173D01*
X143749501Y-55131577D01*
X143749501Y-55328422D01*
X143780291Y-55522826D01*
X143841118Y-55710029D01*
X143894239Y-55814284D01*
X143930477Y-55885405D01*
X144046173Y-56044646D01*
X144185355Y-56183828D01*
X144344596Y-56299524D01*
X144344598Y-56299525D01*
X144348386Y-56302277D01*
X144391051Y-56357607D01*
X144399500Y-56402595D01*
X144399500Y-83050256D01*
X144440423Y-83202983D01*
X144440426Y-83202990D01*
X144519475Y-83339909D01*
X144519479Y-83339914D01*
X144519480Y-83339916D01*
X144631284Y-83451720D01*
X144631286Y-83451721D01*
X144631290Y-83451724D01*
X144713555Y-83499219D01*
X144768216Y-83530777D01*
X144920943Y-83571700D01*
X144962243Y-83571700D01*
X146525100Y-83571700D01*
X146592139Y-83591385D01*
X146637894Y-83644189D01*
X146649100Y-83695700D01*
X146649100Y-94567660D01*
X146629415Y-94634699D01*
X146576611Y-94680454D01*
X146507453Y-94690398D01*
X146486783Y-94685591D01*
X146327953Y-94633985D01*
X146327954Y-94633985D01*
X146164654Y-94608121D01*
X146110222Y-94599500D01*
X145889778Y-94599500D01*
X145817201Y-94610995D01*
X145672047Y-94633985D01*
X145462396Y-94702103D01*
X145462393Y-94702104D01*
X145265974Y-94802187D01*
X145087641Y-94931752D01*
X145087636Y-94931756D01*
X145037463Y-94981929D01*
X144976140Y-95015413D01*
X144906448Y-95010428D01*
X144850515Y-94968557D01*
X144833601Y-94937580D01*
X144803797Y-94857671D01*
X144803793Y-94857664D01*
X144717547Y-94742455D01*
X144717544Y-94742452D01*
X144602335Y-94656206D01*
X144602328Y-94656202D01*
X144467482Y-94605908D01*
X144467483Y-94605908D01*
X144407883Y-94599501D01*
X144407881Y-94599500D01*
X144407873Y-94599500D01*
X144407865Y-94599500D01*
X144184500Y-94599500D01*
X144117461Y-94579815D01*
X144071706Y-94527011D01*
X144060500Y-94475500D01*
X144060500Y-59910760D01*
X144060501Y-59910747D01*
X144060501Y-59742644D01*
X144033477Y-59641792D01*
X144019577Y-59589916D01*
X143983478Y-59527390D01*
X143940524Y-59452990D01*
X143940518Y-59452982D01*
X143552948Y-59065412D01*
X143519463Y-59004089D01*
X143524447Y-58934397D01*
X143561867Y-58884409D01*
X143561275Y-58883817D01*
X143565398Y-58879693D01*
X143566318Y-58878465D01*
X143567546Y-58877546D01*
X143653796Y-58762331D01*
X143704091Y-58627483D01*
X143710500Y-58567873D01*
X143710499Y-56972128D01*
X143704091Y-56912517D01*
X143653796Y-56777669D01*
X143653795Y-56777668D01*
X143653793Y-56777664D01*
X143567547Y-56662455D01*
X143567544Y-56662452D01*
X143452335Y-56576206D01*
X143452328Y-56576202D01*
X143317482Y-56525908D01*
X143317483Y-56525908D01*
X143257883Y-56519501D01*
X143257881Y-56519500D01*
X143257873Y-56519500D01*
X143257864Y-56519500D01*
X141662129Y-56519500D01*
X141662123Y-56519501D01*
X141602516Y-56525908D01*
X141467671Y-56576202D01*
X141467664Y-56576206D01*
X141352455Y-56662452D01*
X141352452Y-56662455D01*
X141266206Y-56777664D01*
X141266202Y-56777671D01*
X141215908Y-56912517D01*
X141209501Y-56972116D01*
X141209501Y-56972123D01*
X141209500Y-56972135D01*
X109335500Y-56972135D01*
X109335500Y-56341835D01*
X109355185Y-56274796D01*
X109403206Y-56231350D01*
X109403547Y-56231175D01*
X109469022Y-56197815D01*
X109647365Y-56068242D01*
X109697536Y-56018070D01*
X109758857Y-55984586D01*
X109828548Y-55989570D01*
X109884482Y-56031441D01*
X109901398Y-56062419D01*
X109931202Y-56142328D01*
X109931206Y-56142335D01*
X110017452Y-56257544D01*
X110017455Y-56257547D01*
X110132664Y-56343793D01*
X110132671Y-56343797D01*
X110267517Y-56394091D01*
X110267516Y-56394091D01*
X110274444Y-56394835D01*
X110327127Y-56400500D01*
X112222872Y-56400499D01*
X112282483Y-56394091D01*
X112417331Y-56343796D01*
X112532546Y-56257546D01*
X112618796Y-56142331D01*
X112669091Y-56007483D01*
X112675500Y-55947873D01*
X112675499Y-54052128D01*
X112669091Y-53992517D01*
X112648601Y-53937581D01*
X112618797Y-53857671D01*
X112618793Y-53857664D01*
X112532547Y-53742455D01*
X112532544Y-53742452D01*
X112417335Y-53656206D01*
X112417328Y-53656202D01*
X112282482Y-53605908D01*
X112282483Y-53605908D01*
X112222883Y-53599501D01*
X112222881Y-53599500D01*
X112222873Y-53599500D01*
X112222864Y-53599500D01*
X110327129Y-53599500D01*
X110327123Y-53599501D01*
X110267516Y-53605908D01*
X110132671Y-53656202D01*
X110132664Y-53656206D01*
X110017455Y-53742452D01*
X110017452Y-53742455D01*
X109931206Y-53857664D01*
X109931203Y-53857669D01*
X109901398Y-53937581D01*
X109859526Y-53993514D01*
X109794062Y-54017931D01*
X109725789Y-54003079D01*
X109697535Y-53981928D01*
X109647363Y-53931756D01*
X109647358Y-53931752D01*
X109469025Y-53802187D01*
X109469024Y-53802186D01*
X109469022Y-53802185D01*
X109351791Y-53742452D01*
X109272606Y-53702104D01*
X109272603Y-53702103D01*
X109062952Y-53633985D01*
X108929081Y-53612782D01*
X108845222Y-53599500D01*
X108624778Y-53599500D01*
X108552201Y-53610995D01*
X108407047Y-53633985D01*
X108197396Y-53702103D01*
X108197393Y-53702104D01*
X108000974Y-53802187D01*
X107822641Y-53931752D01*
X107822636Y-53931756D01*
X107666756Y-54087636D01*
X107666752Y-54087641D01*
X107537187Y-54265974D01*
X107437104Y-54462393D01*
X107437103Y-54462396D01*
X107368985Y-54672047D01*
X107334500Y-54889778D01*
X101927241Y-54889778D01*
X102060979Y-54646006D01*
X102063661Y-54641360D01*
X102529701Y-53873350D01*
X102532564Y-53868856D01*
X103031674Y-53121885D01*
X103034722Y-53117533D01*
X103565925Y-52393062D01*
X103569157Y-52388849D01*
X104131494Y-51688192D01*
X104134909Y-51684123D01*
X104727219Y-51008722D01*
X104730846Y-51004764D01*
X105352046Y-50355850D01*
X105355861Y-50352036D01*
X106004764Y-49730846D01*
X106008722Y-49727219D01*
X106684123Y-49134909D01*
X106688192Y-49131494D01*
X107388849Y-48569157D01*
X107393062Y-48565925D01*
X108117533Y-48034722D01*
X108121885Y-48031674D01*
X108868856Y-47532564D01*
X108873350Y-47529700D01*
X109641359Y-47063661D01*
X109645991Y-47060987D01*
X110433593Y-46628894D01*
X110438344Y-46626421D01*
X111244003Y-46229114D01*
X111248886Y-46226836D01*
X112071151Y-45865032D01*
X112076102Y-45862981D01*
X112913371Y-45537385D01*
X112918360Y-45535569D01*
X113769007Y-45246813D01*
X113774152Y-45245191D01*
X114636587Y-44993814D01*
X114641771Y-44992425D01*
X115514335Y-44778911D01*
X115519591Y-44777745D01*
X116400624Y-44602496D01*
X116405926Y-44601561D01*
X117293795Y-44464905D01*
X117299122Y-44464204D01*
X118192100Y-44366407D01*
X118197427Y-44365940D01*
X119093870Y-44307184D01*
X119099229Y-44306951D01*
X119997296Y-44287356D01*
X120002704Y-44287356D01*
X120900768Y-44306951D01*
X120906131Y-44307185D01*
X121802568Y-44365940D01*
X121807903Y-44366407D01*
X122700871Y-44464203D01*
X122706210Y-44464906D01*
X123594065Y-44601559D01*
X123599383Y-44602498D01*
X124480395Y-44777743D01*
X124485674Y-44778913D01*
X125358216Y-44992422D01*
X125363424Y-44993817D01*
X125856949Y-45137667D01*
X126225833Y-45245187D01*
X126230992Y-45246814D01*
X126490886Y-45335036D01*
X127081624Y-45535564D01*
X127086642Y-45537390D01*
X127923873Y-45862972D01*
X127928864Y-45865039D01*
X128189675Y-45979798D01*
X128751103Y-46226832D01*
X128756006Y-46229119D01*
X129472841Y-46582623D01*
X129561631Y-46626409D01*
X129566425Y-46628904D01*
X130261860Y-47010433D01*
X130353981Y-47060972D01*
X130358660Y-47063673D01*
X131126628Y-47529688D01*
X131131164Y-47532577D01*
X131878092Y-48031660D01*
X131882487Y-48034737D01*
X132606914Y-48565909D01*
X132611171Y-48569174D01*
X133311784Y-49131476D01*
X133315898Y-49134928D01*
X133761787Y-49525962D01*
X133991261Y-49727206D01*
X133995250Y-49730861D01*
X134645109Y-50352965D01*
X134647042Y-50354857D01*
X134692686Y-50400501D01*
X134791521Y-50457564D01*
X134806810Y-50466391D01*
X134806814Y-50466393D01*
X134934108Y-50500501D01*
X134934110Y-50500501D01*
X135065890Y-50500501D01*
X135065892Y-50500501D01*
X135193186Y-50466393D01*
X135307314Y-50400501D01*
X135400500Y-50307315D01*
X135466392Y-50193187D01*
X135500500Y-50065893D01*
X135500500Y-50001978D01*
X135500564Y-49998005D01*
X135519890Y-49395345D01*
X135520399Y-49387412D01*
X135578110Y-48789173D01*
X135579121Y-48781335D01*
X135675050Y-48187978D01*
X135676558Y-48180237D01*
X135810298Y-47594278D01*
X135812311Y-47586604D01*
X135812312Y-47586603D01*
X135983318Y-47010424D01*
X135985821Y-47002890D01*
X136193390Y-46438856D01*
X136196352Y-46431541D01*
X136439641Y-45881946D01*
X136443078Y-45874808D01*
X136721075Y-45341941D01*
X136724952Y-45335055D01*
X137011520Y-44862332D01*
X142899500Y-44862332D01*
X142899500Y-45137667D01*
X142899501Y-45137684D01*
X142935438Y-45410655D01*
X142935439Y-45410660D01*
X142935440Y-45410666D01*
X142935441Y-45410668D01*
X143006704Y-45676630D01*
X143112075Y-45931017D01*
X143112080Y-45931028D01*
X143174626Y-46039359D01*
X143249751Y-46169479D01*
X143249753Y-46169482D01*
X143249754Y-46169483D01*
X143417370Y-46387926D01*
X143417376Y-46387933D01*
X143612066Y-46582623D01*
X143612072Y-46582628D01*
X143830521Y-46750249D01*
X143983778Y-46838732D01*
X144068971Y-46887919D01*
X144068976Y-46887921D01*
X144068979Y-46887923D01*
X144323368Y-46993295D01*
X144589334Y-47064560D01*
X144862326Y-47100500D01*
X144862333Y-47100500D01*
X145137667Y-47100500D01*
X145137674Y-47100500D01*
X145410666Y-47064560D01*
X145676632Y-46993295D01*
X145931021Y-46887923D01*
X146169479Y-46750249D01*
X146387928Y-46582628D01*
X146582628Y-46387928D01*
X146750249Y-46169479D01*
X146887923Y-45931021D01*
X146993295Y-45676632D01*
X147064560Y-45410666D01*
X147100500Y-45137674D01*
X147100500Y-44862326D01*
X147064560Y-44589334D01*
X146993295Y-44323368D01*
X146887923Y-44068979D01*
X146887921Y-44068976D01*
X146887919Y-44068971D01*
X146837820Y-43982199D01*
X146750249Y-43830521D01*
X146582628Y-43612072D01*
X146582623Y-43612066D01*
X146387933Y-43417376D01*
X146387926Y-43417370D01*
X146169483Y-43249754D01*
X146169482Y-43249753D01*
X146169479Y-43249751D01*
X146074407Y-43194861D01*
X145931028Y-43112080D01*
X145931017Y-43112075D01*
X145676630Y-43006704D01*
X145541475Y-42970490D01*
X145410666Y-42935440D01*
X145410660Y-42935439D01*
X145410655Y-42935438D01*
X145137684Y-42899501D01*
X145137679Y-42899500D01*
X145137674Y-42899500D01*
X144862326Y-42899500D01*
X144862320Y-42899500D01*
X144862315Y-42899501D01*
X144589344Y-42935438D01*
X144589337Y-42935439D01*
X144589334Y-42935440D01*
X144533125Y-42950500D01*
X144323369Y-43006704D01*
X144068982Y-43112075D01*
X144068971Y-43112080D01*
X143830516Y-43249754D01*
X143612073Y-43417370D01*
X143612066Y-43417376D01*
X143417376Y-43612066D01*
X143417370Y-43612073D01*
X143249754Y-43830516D01*
X143112080Y-44068971D01*
X143112075Y-44068982D01*
X143006704Y-44323369D01*
X142935441Y-44589331D01*
X142935438Y-44589344D01*
X142899501Y-44862315D01*
X142899500Y-44862332D01*
X137011520Y-44862332D01*
X137036539Y-44821061D01*
X137040844Y-44814449D01*
X137384700Y-44321504D01*
X137389432Y-44315162D01*
X137764189Y-43845233D01*
X137769304Y-43839225D01*
X138173370Y-43394303D01*
X138178879Y-43388614D01*
X138610641Y-42970475D01*
X138616492Y-42965162D01*
X139074144Y-42575557D01*
X139080320Y-42570631D01*
X139562000Y-42211144D01*
X139568500Y-42206610D01*
X140072220Y-41878725D01*
X140078977Y-41874630D01*
X140602675Y-41579688D01*
X140609674Y-41576037D01*
X141151188Y-41315257D01*
X141158416Y-41312057D01*
X141715540Y-41086502D01*
X141722964Y-41083770D01*
X142293379Y-40894380D01*
X142300940Y-40892135D01*
X142882330Y-40739676D01*
X142890069Y-40737910D01*
X143479979Y-40623026D01*
X143487810Y-40621760D01*
X144083920Y-40544900D01*
X144091773Y-40544142D01*
X144657285Y-40507836D01*
X144691555Y-40505636D01*
X144699499Y-40505381D01*
X145300500Y-40505381D01*
X145308444Y-40505636D01*
G37*
%TD.AperFunction*%
M02*
