%TF.GenerationSoftware,KiCad,Pcbnew,9.0.0*%
%TF.CreationDate,2025-04-26T22:51:30-04:00*%
%TF.ProjectId,mothers_day_necklace,6d6f7468-6572-4735-9f64-61795f6e6563,rev?*%
%TF.SameCoordinates,Original*%
%TF.FileFunction,Drillmap*%
%TF.FilePolarity,Positive*%
%FSLAX45Y45*%
G04 Gerber Fmt 4.5, Leading zero omitted, Abs format (unit mm)*
G04 Created by KiCad (PCBNEW 9.0.0) date 2025-04-26 22:51:30*
%MOMM*%
%LPD*%
G01*
G04 APERTURE LIST*
%ADD10C,0.050000*%
%ADD11C,0.200000*%
%ADD12C,0.100000*%
G04 APERTURE END LIST*
D10*
X15500000Y-7500000D02*
X14500000Y-10000000D01*
X12500000Y-12000000D01*
X10000000Y-14000000D01*
X7500000Y-12000000D01*
X5500000Y-10000000D01*
X4500000Y-7500000D01*
X6000000Y-5500000D01*
X8000000Y-6000000D01*
X10000000Y-6750000D01*
X12000000Y-6000000D01*
X14000000Y-5500000D01*
X15500000Y-7500000D01*
D11*
D12*
X8198000Y-10322500D02*
X8228000Y-10352500D01*
X8228000Y-10322500D02*
X8198000Y-10352500D01*
X10360630Y-12877170D02*
X10390630Y-12907170D01*
X10390630Y-12877170D02*
X10360630Y-12907170D01*
X11772080Y-9147300D02*
X11802080Y-9177300D01*
X11802080Y-9147300D02*
X11772080Y-9177300D01*
X12367760Y-7678300D02*
X12397760Y-7708300D01*
X12397760Y-7678300D02*
X12367760Y-7708300D01*
X12037500Y-9000000D02*
G75*
G02*
X11962500Y-9000000I-37500J0D01*
G01*
X11962500Y-9000000D02*
G75*
G02*
X12037500Y-9000000I37500J0D01*
G01*
X12164500Y-9000000D02*
G75*
G02*
X12089500Y-9000000I-37500J0D01*
G01*
X12089500Y-9000000D02*
G75*
G02*
X12164500Y-9000000I37500J0D01*
G01*
X12291500Y-9000000D02*
G75*
G02*
X12216500Y-9000000I-37500J0D01*
G01*
X12216500Y-9000000D02*
G75*
G02*
X12291500Y-9000000I37500J0D01*
G01*
X5500000Y-7960000D02*
X5500000Y-8040000D01*
X5460000Y-8000000D02*
X5540000Y-8000000D01*
X6516000Y-7960000D02*
X6516000Y-8040000D01*
X6476000Y-8000000D02*
X6556000Y-8000000D01*
X7484000Y-11460000D02*
X7484000Y-11540000D01*
X7444000Y-11500000D02*
X7524000Y-11500000D01*
X7984000Y-6960000D02*
X7984000Y-7040000D01*
X7944000Y-7000000D02*
X8024000Y-7000000D01*
X8500000Y-11460000D02*
X8500000Y-11540000D01*
X8460000Y-11500000D02*
X8540000Y-11500000D01*
X9000000Y-6960000D02*
X9000000Y-7040000D01*
X8960000Y-7000000D02*
X9040000Y-7000000D01*
X9830000Y-7960000D02*
X9830000Y-8040000D01*
X9790000Y-8000000D02*
X9870000Y-8000000D01*
X10170000Y-7960000D02*
X10170000Y-8040000D01*
X10130000Y-8000000D02*
X10210000Y-8000000D01*
X10984000Y-6960000D02*
X10984000Y-7040000D01*
X10944000Y-7000000D02*
X11024000Y-7000000D01*
X11500000Y-11460000D02*
X11500000Y-11540000D01*
X11460000Y-11500000D02*
X11540000Y-11500000D01*
X12000000Y-6960000D02*
X12000000Y-7040000D01*
X11960000Y-7000000D02*
X12040000Y-7000000D01*
X12516000Y-11460000D02*
X12516000Y-11540000D01*
X12476000Y-11500000D02*
X12556000Y-11500000D01*
X13484000Y-7960000D02*
X13484000Y-8040000D01*
X13444000Y-8000000D02*
X13524000Y-8000000D01*
X14500000Y-7960000D02*
X14500000Y-8040000D01*
X14460000Y-8000000D02*
X14540000Y-8000000D01*
X9000552Y-9530042D02*
X9000552Y-9469938D01*
X8940448Y-9469938D01*
X8940448Y-9530042D01*
X9000552Y-9530042D01*
X11050552Y-9530042D02*
X11050552Y-9469938D01*
X10990448Y-9469938D01*
X10990448Y-9530042D01*
X11050552Y-9530042D01*
X6500000Y-6545000D02*
X6545000Y-6500000D01*
X6500000Y-6455000D01*
X6455000Y-6500000D01*
X6500000Y-6545000D01*
X6500000Y-10045000D02*
X6545000Y-10000000D01*
X6500000Y-9955000D01*
X6455000Y-10000000D01*
X6500000Y-10045000D01*
X6754000Y-6545000D02*
X6799000Y-6500000D01*
X6754000Y-6455000D01*
X6709000Y-6500000D01*
X6754000Y-6545000D01*
X6754000Y-10045000D02*
X6799000Y-10000000D01*
X6754000Y-9955000D01*
X6709000Y-10000000D01*
X6754000Y-10045000D01*
X10000000Y-13045000D02*
X10045000Y-13000000D01*
X10000000Y-12955000D01*
X9955000Y-13000000D01*
X10000000Y-13045000D01*
X10254000Y-13045000D02*
X10299000Y-13000000D01*
X10254000Y-12955000D01*
X10209000Y-13000000D01*
X10254000Y-13045000D01*
X13246000Y-6545000D02*
X13291000Y-6500000D01*
X13246000Y-6455000D01*
X13201000Y-6500000D01*
X13246000Y-6545000D01*
X13500000Y-6545000D02*
X13545000Y-6500000D01*
X13500000Y-6455000D01*
X13455000Y-6500000D01*
X13500000Y-6545000D01*
X13500000Y-10045000D02*
X13545000Y-10000000D01*
X13500000Y-9955000D01*
X13455000Y-10000000D01*
X13500000Y-10045000D01*
X13754000Y-10045000D02*
X13799000Y-10000000D01*
X13754000Y-9955000D01*
X13709000Y-10000000D01*
X13754000Y-10045000D01*
D11*
X4758277Y-14313984D02*
X4758277Y-14113984D01*
X4758277Y-14113984D02*
X4805896Y-14113984D01*
X4805896Y-14113984D02*
X4834467Y-14123508D01*
X4834467Y-14123508D02*
X4853515Y-14142555D01*
X4853515Y-14142555D02*
X4863039Y-14161603D01*
X4863039Y-14161603D02*
X4872563Y-14199698D01*
X4872563Y-14199698D02*
X4872563Y-14228269D01*
X4872563Y-14228269D02*
X4863039Y-14266365D01*
X4863039Y-14266365D02*
X4853515Y-14285412D01*
X4853515Y-14285412D02*
X4834467Y-14304460D01*
X4834467Y-14304460D02*
X4805896Y-14313984D01*
X4805896Y-14313984D02*
X4758277Y-14313984D01*
X4958277Y-14313984D02*
X4958277Y-14180650D01*
X4958277Y-14218746D02*
X4967801Y-14199698D01*
X4967801Y-14199698D02*
X4977324Y-14190174D01*
X4977324Y-14190174D02*
X4996372Y-14180650D01*
X4996372Y-14180650D02*
X5015420Y-14180650D01*
X5082086Y-14313984D02*
X5082086Y-14180650D01*
X5082086Y-14113984D02*
X5072563Y-14123508D01*
X5072563Y-14123508D02*
X5082086Y-14133031D01*
X5082086Y-14133031D02*
X5091610Y-14123508D01*
X5091610Y-14123508D02*
X5082086Y-14113984D01*
X5082086Y-14113984D02*
X5082086Y-14133031D01*
X5205896Y-14313984D02*
X5186848Y-14304460D01*
X5186848Y-14304460D02*
X5177324Y-14285412D01*
X5177324Y-14285412D02*
X5177324Y-14113984D01*
X5310658Y-14313984D02*
X5291610Y-14304460D01*
X5291610Y-14304460D02*
X5282086Y-14285412D01*
X5282086Y-14285412D02*
X5282086Y-14113984D01*
X5539229Y-14313984D02*
X5539229Y-14113984D01*
X5539229Y-14113984D02*
X5605896Y-14256841D01*
X5605896Y-14256841D02*
X5672562Y-14113984D01*
X5672562Y-14113984D02*
X5672562Y-14313984D01*
X5853515Y-14313984D02*
X5853515Y-14209222D01*
X5853515Y-14209222D02*
X5843991Y-14190174D01*
X5843991Y-14190174D02*
X5824943Y-14180650D01*
X5824943Y-14180650D02*
X5786848Y-14180650D01*
X5786848Y-14180650D02*
X5767801Y-14190174D01*
X5853515Y-14304460D02*
X5834467Y-14313984D01*
X5834467Y-14313984D02*
X5786848Y-14313984D01*
X5786848Y-14313984D02*
X5767801Y-14304460D01*
X5767801Y-14304460D02*
X5758277Y-14285412D01*
X5758277Y-14285412D02*
X5758277Y-14266365D01*
X5758277Y-14266365D02*
X5767801Y-14247317D01*
X5767801Y-14247317D02*
X5786848Y-14237793D01*
X5786848Y-14237793D02*
X5834467Y-14237793D01*
X5834467Y-14237793D02*
X5853515Y-14228269D01*
X5948753Y-14180650D02*
X5948753Y-14380650D01*
X5948753Y-14190174D02*
X5967801Y-14180650D01*
X5967801Y-14180650D02*
X6005896Y-14180650D01*
X6005896Y-14180650D02*
X6024943Y-14190174D01*
X6024943Y-14190174D02*
X6034467Y-14199698D01*
X6034467Y-14199698D02*
X6043991Y-14218746D01*
X6043991Y-14218746D02*
X6043991Y-14275888D01*
X6043991Y-14275888D02*
X6034467Y-14294936D01*
X6034467Y-14294936D02*
X6024943Y-14304460D01*
X6024943Y-14304460D02*
X6005896Y-14313984D01*
X6005896Y-14313984D02*
X5967801Y-14313984D01*
X5967801Y-14313984D02*
X5948753Y-14304460D01*
X6129705Y-14294936D02*
X6139229Y-14304460D01*
X6139229Y-14304460D02*
X6129705Y-14313984D01*
X6129705Y-14313984D02*
X6120182Y-14304460D01*
X6120182Y-14304460D02*
X6129705Y-14294936D01*
X6129705Y-14294936D02*
X6129705Y-14313984D01*
X6129705Y-14190174D02*
X6139229Y-14199698D01*
X6139229Y-14199698D02*
X6129705Y-14209222D01*
X6129705Y-14209222D02*
X6120182Y-14199698D01*
X6120182Y-14199698D02*
X6129705Y-14190174D01*
X6129705Y-14190174D02*
X6129705Y-14209222D01*
D12*
X4467500Y-14627500D02*
X4497500Y-14657500D01*
X4497500Y-14627500D02*
X4467500Y-14657500D01*
D11*
X4796372Y-14533984D02*
X4815420Y-14533984D01*
X4815420Y-14533984D02*
X4834467Y-14543508D01*
X4834467Y-14543508D02*
X4843991Y-14553031D01*
X4843991Y-14553031D02*
X4853515Y-14572079D01*
X4853515Y-14572079D02*
X4863039Y-14610174D01*
X4863039Y-14610174D02*
X4863039Y-14657793D01*
X4863039Y-14657793D02*
X4853515Y-14695888D01*
X4853515Y-14695888D02*
X4843991Y-14714936D01*
X4843991Y-14714936D02*
X4834467Y-14724460D01*
X4834467Y-14724460D02*
X4815420Y-14733984D01*
X4815420Y-14733984D02*
X4796372Y-14733984D01*
X4796372Y-14733984D02*
X4777324Y-14724460D01*
X4777324Y-14724460D02*
X4767801Y-14714936D01*
X4767801Y-14714936D02*
X4758277Y-14695888D01*
X4758277Y-14695888D02*
X4748753Y-14657793D01*
X4748753Y-14657793D02*
X4748753Y-14610174D01*
X4748753Y-14610174D02*
X4758277Y-14572079D01*
X4758277Y-14572079D02*
X4767801Y-14553031D01*
X4767801Y-14553031D02*
X4777324Y-14543508D01*
X4777324Y-14543508D02*
X4796372Y-14533984D01*
X4948753Y-14714936D02*
X4958277Y-14724460D01*
X4958277Y-14724460D02*
X4948753Y-14733984D01*
X4948753Y-14733984D02*
X4939229Y-14724460D01*
X4939229Y-14724460D02*
X4948753Y-14714936D01*
X4948753Y-14714936D02*
X4948753Y-14733984D01*
X5024944Y-14533984D02*
X5148753Y-14533984D01*
X5148753Y-14533984D02*
X5082086Y-14610174D01*
X5082086Y-14610174D02*
X5110658Y-14610174D01*
X5110658Y-14610174D02*
X5129705Y-14619698D01*
X5129705Y-14619698D02*
X5139229Y-14629222D01*
X5139229Y-14629222D02*
X5148753Y-14648269D01*
X5148753Y-14648269D02*
X5148753Y-14695888D01*
X5148753Y-14695888D02*
X5139229Y-14714936D01*
X5139229Y-14714936D02*
X5129705Y-14724460D01*
X5129705Y-14724460D02*
X5110658Y-14733984D01*
X5110658Y-14733984D02*
X5053515Y-14733984D01*
X5053515Y-14733984D02*
X5034467Y-14724460D01*
X5034467Y-14724460D02*
X5024944Y-14714936D01*
X5272563Y-14533984D02*
X5291610Y-14533984D01*
X5291610Y-14533984D02*
X5310658Y-14543508D01*
X5310658Y-14543508D02*
X5320182Y-14553031D01*
X5320182Y-14553031D02*
X5329705Y-14572079D01*
X5329705Y-14572079D02*
X5339229Y-14610174D01*
X5339229Y-14610174D02*
X5339229Y-14657793D01*
X5339229Y-14657793D02*
X5329705Y-14695888D01*
X5329705Y-14695888D02*
X5320182Y-14714936D01*
X5320182Y-14714936D02*
X5310658Y-14724460D01*
X5310658Y-14724460D02*
X5291610Y-14733984D01*
X5291610Y-14733984D02*
X5272563Y-14733984D01*
X5272563Y-14733984D02*
X5253515Y-14724460D01*
X5253515Y-14724460D02*
X5243991Y-14714936D01*
X5243991Y-14714936D02*
X5234467Y-14695888D01*
X5234467Y-14695888D02*
X5224944Y-14657793D01*
X5224944Y-14657793D02*
X5224944Y-14610174D01*
X5224944Y-14610174D02*
X5234467Y-14572079D01*
X5234467Y-14572079D02*
X5243991Y-14553031D01*
X5243991Y-14553031D02*
X5253515Y-14543508D01*
X5253515Y-14543508D02*
X5272563Y-14533984D01*
X5463039Y-14533984D02*
X5482086Y-14533984D01*
X5482086Y-14533984D02*
X5501134Y-14543508D01*
X5501134Y-14543508D02*
X5510658Y-14553031D01*
X5510658Y-14553031D02*
X5520182Y-14572079D01*
X5520182Y-14572079D02*
X5529705Y-14610174D01*
X5529705Y-14610174D02*
X5529705Y-14657793D01*
X5529705Y-14657793D02*
X5520182Y-14695888D01*
X5520182Y-14695888D02*
X5510658Y-14714936D01*
X5510658Y-14714936D02*
X5501134Y-14724460D01*
X5501134Y-14724460D02*
X5482086Y-14733984D01*
X5482086Y-14733984D02*
X5463039Y-14733984D01*
X5463039Y-14733984D02*
X5443991Y-14724460D01*
X5443991Y-14724460D02*
X5434467Y-14714936D01*
X5434467Y-14714936D02*
X5424944Y-14695888D01*
X5424944Y-14695888D02*
X5415420Y-14657793D01*
X5415420Y-14657793D02*
X5415420Y-14610174D01*
X5415420Y-14610174D02*
X5424944Y-14572079D01*
X5424944Y-14572079D02*
X5434467Y-14553031D01*
X5434467Y-14553031D02*
X5443991Y-14543508D01*
X5443991Y-14543508D02*
X5463039Y-14533984D01*
X5615420Y-14733984D02*
X5615420Y-14600650D01*
X5615420Y-14619698D02*
X5624943Y-14610174D01*
X5624943Y-14610174D02*
X5643991Y-14600650D01*
X5643991Y-14600650D02*
X5672563Y-14600650D01*
X5672563Y-14600650D02*
X5691610Y-14610174D01*
X5691610Y-14610174D02*
X5701134Y-14629222D01*
X5701134Y-14629222D02*
X5701134Y-14733984D01*
X5701134Y-14629222D02*
X5710658Y-14610174D01*
X5710658Y-14610174D02*
X5729705Y-14600650D01*
X5729705Y-14600650D02*
X5758277Y-14600650D01*
X5758277Y-14600650D02*
X5777324Y-14610174D01*
X5777324Y-14610174D02*
X5786848Y-14629222D01*
X5786848Y-14629222D02*
X5786848Y-14733984D01*
X5882086Y-14733984D02*
X5882086Y-14600650D01*
X5882086Y-14619698D02*
X5891610Y-14610174D01*
X5891610Y-14610174D02*
X5910658Y-14600650D01*
X5910658Y-14600650D02*
X5939229Y-14600650D01*
X5939229Y-14600650D02*
X5958277Y-14610174D01*
X5958277Y-14610174D02*
X5967801Y-14629222D01*
X5967801Y-14629222D02*
X5967801Y-14733984D01*
X5967801Y-14629222D02*
X5977324Y-14610174D01*
X5977324Y-14610174D02*
X5996372Y-14600650D01*
X5996372Y-14600650D02*
X6024943Y-14600650D01*
X6024943Y-14600650D02*
X6043991Y-14610174D01*
X6043991Y-14610174D02*
X6053515Y-14629222D01*
X6053515Y-14629222D02*
X6053515Y-14733984D01*
X6443991Y-14524460D02*
X6272563Y-14781603D01*
X6701134Y-14533984D02*
X6720182Y-14533984D01*
X6720182Y-14533984D02*
X6739229Y-14543508D01*
X6739229Y-14543508D02*
X6748753Y-14553031D01*
X6748753Y-14553031D02*
X6758277Y-14572079D01*
X6758277Y-14572079D02*
X6767801Y-14610174D01*
X6767801Y-14610174D02*
X6767801Y-14657793D01*
X6767801Y-14657793D02*
X6758277Y-14695888D01*
X6758277Y-14695888D02*
X6748753Y-14714936D01*
X6748753Y-14714936D02*
X6739229Y-14724460D01*
X6739229Y-14724460D02*
X6720182Y-14733984D01*
X6720182Y-14733984D02*
X6701134Y-14733984D01*
X6701134Y-14733984D02*
X6682086Y-14724460D01*
X6682086Y-14724460D02*
X6672563Y-14714936D01*
X6672563Y-14714936D02*
X6663039Y-14695888D01*
X6663039Y-14695888D02*
X6653515Y-14657793D01*
X6653515Y-14657793D02*
X6653515Y-14610174D01*
X6653515Y-14610174D02*
X6663039Y-14572079D01*
X6663039Y-14572079D02*
X6672563Y-14553031D01*
X6672563Y-14553031D02*
X6682086Y-14543508D01*
X6682086Y-14543508D02*
X6701134Y-14533984D01*
X6853515Y-14714936D02*
X6863039Y-14724460D01*
X6863039Y-14724460D02*
X6853515Y-14733984D01*
X6853515Y-14733984D02*
X6843991Y-14724460D01*
X6843991Y-14724460D02*
X6853515Y-14714936D01*
X6853515Y-14714936D02*
X6853515Y-14733984D01*
X6986848Y-14533984D02*
X7005896Y-14533984D01*
X7005896Y-14533984D02*
X7024944Y-14543508D01*
X7024944Y-14543508D02*
X7034467Y-14553031D01*
X7034467Y-14553031D02*
X7043991Y-14572079D01*
X7043991Y-14572079D02*
X7053515Y-14610174D01*
X7053515Y-14610174D02*
X7053515Y-14657793D01*
X7053515Y-14657793D02*
X7043991Y-14695888D01*
X7043991Y-14695888D02*
X7034467Y-14714936D01*
X7034467Y-14714936D02*
X7024944Y-14724460D01*
X7024944Y-14724460D02*
X7005896Y-14733984D01*
X7005896Y-14733984D02*
X6986848Y-14733984D01*
X6986848Y-14733984D02*
X6967801Y-14724460D01*
X6967801Y-14724460D02*
X6958277Y-14714936D01*
X6958277Y-14714936D02*
X6948753Y-14695888D01*
X6948753Y-14695888D02*
X6939229Y-14657793D01*
X6939229Y-14657793D02*
X6939229Y-14610174D01*
X6939229Y-14610174D02*
X6948753Y-14572079D01*
X6948753Y-14572079D02*
X6958277Y-14553031D01*
X6958277Y-14553031D02*
X6967801Y-14543508D01*
X6967801Y-14543508D02*
X6986848Y-14533984D01*
X7243991Y-14733984D02*
X7129706Y-14733984D01*
X7186848Y-14733984D02*
X7186848Y-14533984D01*
X7186848Y-14533984D02*
X7167801Y-14562555D01*
X7167801Y-14562555D02*
X7148753Y-14581603D01*
X7148753Y-14581603D02*
X7129706Y-14591127D01*
X7434467Y-14733984D02*
X7320182Y-14733984D01*
X7377325Y-14733984D02*
X7377325Y-14533984D01*
X7377325Y-14533984D02*
X7358277Y-14562555D01*
X7358277Y-14562555D02*
X7339229Y-14581603D01*
X7339229Y-14581603D02*
X7320182Y-14591127D01*
X7548753Y-14619698D02*
X7529706Y-14610174D01*
X7529706Y-14610174D02*
X7520182Y-14600650D01*
X7520182Y-14600650D02*
X7510658Y-14581603D01*
X7510658Y-14581603D02*
X7510658Y-14572079D01*
X7510658Y-14572079D02*
X7520182Y-14553031D01*
X7520182Y-14553031D02*
X7529706Y-14543508D01*
X7529706Y-14543508D02*
X7548753Y-14533984D01*
X7548753Y-14533984D02*
X7586848Y-14533984D01*
X7586848Y-14533984D02*
X7605896Y-14543508D01*
X7605896Y-14543508D02*
X7615420Y-14553031D01*
X7615420Y-14553031D02*
X7624944Y-14572079D01*
X7624944Y-14572079D02*
X7624944Y-14581603D01*
X7624944Y-14581603D02*
X7615420Y-14600650D01*
X7615420Y-14600650D02*
X7605896Y-14610174D01*
X7605896Y-14610174D02*
X7586848Y-14619698D01*
X7586848Y-14619698D02*
X7548753Y-14619698D01*
X7548753Y-14619698D02*
X7529706Y-14629222D01*
X7529706Y-14629222D02*
X7520182Y-14638746D01*
X7520182Y-14638746D02*
X7510658Y-14657793D01*
X7510658Y-14657793D02*
X7510658Y-14695888D01*
X7510658Y-14695888D02*
X7520182Y-14714936D01*
X7520182Y-14714936D02*
X7529706Y-14724460D01*
X7529706Y-14724460D02*
X7548753Y-14733984D01*
X7548753Y-14733984D02*
X7586848Y-14733984D01*
X7586848Y-14733984D02*
X7605896Y-14724460D01*
X7605896Y-14724460D02*
X7615420Y-14714936D01*
X7615420Y-14714936D02*
X7624944Y-14695888D01*
X7624944Y-14695888D02*
X7624944Y-14657793D01*
X7624944Y-14657793D02*
X7615420Y-14638746D01*
X7615420Y-14638746D02*
X7605896Y-14629222D01*
X7605896Y-14629222D02*
X7586848Y-14619698D01*
X7701134Y-14533984D02*
X7701134Y-14572079D01*
X7777325Y-14533984D02*
X7777325Y-14572079D01*
X8072563Y-14810174D02*
X8063039Y-14800650D01*
X8063039Y-14800650D02*
X8043991Y-14772079D01*
X8043991Y-14772079D02*
X8034468Y-14753031D01*
X8034468Y-14753031D02*
X8024944Y-14724460D01*
X8024944Y-14724460D02*
X8015420Y-14676841D01*
X8015420Y-14676841D02*
X8015420Y-14638746D01*
X8015420Y-14638746D02*
X8024944Y-14591127D01*
X8024944Y-14591127D02*
X8034468Y-14562555D01*
X8034468Y-14562555D02*
X8043991Y-14543508D01*
X8043991Y-14543508D02*
X8063039Y-14514936D01*
X8063039Y-14514936D02*
X8072563Y-14505412D01*
X8234468Y-14600650D02*
X8234468Y-14733984D01*
X8186848Y-14524460D02*
X8139229Y-14667317D01*
X8139229Y-14667317D02*
X8263039Y-14667317D01*
X8491611Y-14733984D02*
X8491611Y-14533984D01*
X8577325Y-14733984D02*
X8577325Y-14629222D01*
X8577325Y-14629222D02*
X8567801Y-14610174D01*
X8567801Y-14610174D02*
X8548753Y-14600650D01*
X8548753Y-14600650D02*
X8520182Y-14600650D01*
X8520182Y-14600650D02*
X8501134Y-14610174D01*
X8501134Y-14610174D02*
X8491611Y-14619698D01*
X8701134Y-14733984D02*
X8682087Y-14724460D01*
X8682087Y-14724460D02*
X8672563Y-14714936D01*
X8672563Y-14714936D02*
X8663039Y-14695888D01*
X8663039Y-14695888D02*
X8663039Y-14638746D01*
X8663039Y-14638746D02*
X8672563Y-14619698D01*
X8672563Y-14619698D02*
X8682087Y-14610174D01*
X8682087Y-14610174D02*
X8701134Y-14600650D01*
X8701134Y-14600650D02*
X8729706Y-14600650D01*
X8729706Y-14600650D02*
X8748753Y-14610174D01*
X8748753Y-14610174D02*
X8758277Y-14619698D01*
X8758277Y-14619698D02*
X8767801Y-14638746D01*
X8767801Y-14638746D02*
X8767801Y-14695888D01*
X8767801Y-14695888D02*
X8758277Y-14714936D01*
X8758277Y-14714936D02*
X8748753Y-14724460D01*
X8748753Y-14724460D02*
X8729706Y-14733984D01*
X8729706Y-14733984D02*
X8701134Y-14733984D01*
X8882087Y-14733984D02*
X8863039Y-14724460D01*
X8863039Y-14724460D02*
X8853515Y-14705412D01*
X8853515Y-14705412D02*
X8853515Y-14533984D01*
X9034468Y-14724460D02*
X9015420Y-14733984D01*
X9015420Y-14733984D02*
X8977325Y-14733984D01*
X8977325Y-14733984D02*
X8958277Y-14724460D01*
X8958277Y-14724460D02*
X8948753Y-14705412D01*
X8948753Y-14705412D02*
X8948753Y-14629222D01*
X8948753Y-14629222D02*
X8958277Y-14610174D01*
X8958277Y-14610174D02*
X8977325Y-14600650D01*
X8977325Y-14600650D02*
X9015420Y-14600650D01*
X9015420Y-14600650D02*
X9034468Y-14610174D01*
X9034468Y-14610174D02*
X9043992Y-14629222D01*
X9043992Y-14629222D02*
X9043992Y-14648269D01*
X9043992Y-14648269D02*
X8948753Y-14667317D01*
X9120182Y-14724460D02*
X9139230Y-14733984D01*
X9139230Y-14733984D02*
X9177325Y-14733984D01*
X9177325Y-14733984D02*
X9196373Y-14724460D01*
X9196373Y-14724460D02*
X9205896Y-14705412D01*
X9205896Y-14705412D02*
X9205896Y-14695888D01*
X9205896Y-14695888D02*
X9196373Y-14676841D01*
X9196373Y-14676841D02*
X9177325Y-14667317D01*
X9177325Y-14667317D02*
X9148753Y-14667317D01*
X9148753Y-14667317D02*
X9129706Y-14657793D01*
X9129706Y-14657793D02*
X9120182Y-14638746D01*
X9120182Y-14638746D02*
X9120182Y-14629222D01*
X9120182Y-14629222D02*
X9129706Y-14610174D01*
X9129706Y-14610174D02*
X9148753Y-14600650D01*
X9148753Y-14600650D02*
X9177325Y-14600650D01*
X9177325Y-14600650D02*
X9196373Y-14610174D01*
X9272563Y-14810174D02*
X9282087Y-14800650D01*
X9282087Y-14800650D02*
X9301134Y-14772079D01*
X9301134Y-14772079D02*
X9310658Y-14753031D01*
X9310658Y-14753031D02*
X9320182Y-14724460D01*
X9320182Y-14724460D02*
X9329706Y-14676841D01*
X9329706Y-14676841D02*
X9329706Y-14638746D01*
X9329706Y-14638746D02*
X9320182Y-14591127D01*
X9320182Y-14591127D02*
X9310658Y-14562555D01*
X9310658Y-14562555D02*
X9301134Y-14543508D01*
X9301134Y-14543508D02*
X9282087Y-14514936D01*
X9282087Y-14514936D02*
X9272563Y-14505412D01*
D12*
X4497500Y-14906500D02*
G75*
G02*
X4422500Y-14906500I-37500J0D01*
G01*
X4422500Y-14906500D02*
G75*
G02*
X4497500Y-14906500I37500J0D01*
G01*
D11*
X4796372Y-14797984D02*
X4815420Y-14797984D01*
X4815420Y-14797984D02*
X4834467Y-14807508D01*
X4834467Y-14807508D02*
X4843991Y-14817031D01*
X4843991Y-14817031D02*
X4853515Y-14836079D01*
X4853515Y-14836079D02*
X4863039Y-14874174D01*
X4863039Y-14874174D02*
X4863039Y-14921793D01*
X4863039Y-14921793D02*
X4853515Y-14959888D01*
X4853515Y-14959888D02*
X4843991Y-14978936D01*
X4843991Y-14978936D02*
X4834467Y-14988460D01*
X4834467Y-14988460D02*
X4815420Y-14997984D01*
X4815420Y-14997984D02*
X4796372Y-14997984D01*
X4796372Y-14997984D02*
X4777324Y-14988460D01*
X4777324Y-14988460D02*
X4767801Y-14978936D01*
X4767801Y-14978936D02*
X4758277Y-14959888D01*
X4758277Y-14959888D02*
X4748753Y-14921793D01*
X4748753Y-14921793D02*
X4748753Y-14874174D01*
X4748753Y-14874174D02*
X4758277Y-14836079D01*
X4758277Y-14836079D02*
X4767801Y-14817031D01*
X4767801Y-14817031D02*
X4777324Y-14807508D01*
X4777324Y-14807508D02*
X4796372Y-14797984D01*
X4948753Y-14978936D02*
X4958277Y-14988460D01*
X4958277Y-14988460D02*
X4948753Y-14997984D01*
X4948753Y-14997984D02*
X4939229Y-14988460D01*
X4939229Y-14988460D02*
X4948753Y-14978936D01*
X4948753Y-14978936D02*
X4948753Y-14997984D01*
X5024944Y-14797984D02*
X5158277Y-14797984D01*
X5158277Y-14797984D02*
X5072563Y-14997984D01*
X5329705Y-14797984D02*
X5234467Y-14797984D01*
X5234467Y-14797984D02*
X5224944Y-14893222D01*
X5224944Y-14893222D02*
X5234467Y-14883698D01*
X5234467Y-14883698D02*
X5253515Y-14874174D01*
X5253515Y-14874174D02*
X5301134Y-14874174D01*
X5301134Y-14874174D02*
X5320182Y-14883698D01*
X5320182Y-14883698D02*
X5329705Y-14893222D01*
X5329705Y-14893222D02*
X5339229Y-14912269D01*
X5339229Y-14912269D02*
X5339229Y-14959888D01*
X5339229Y-14959888D02*
X5329705Y-14978936D01*
X5329705Y-14978936D02*
X5320182Y-14988460D01*
X5320182Y-14988460D02*
X5301134Y-14997984D01*
X5301134Y-14997984D02*
X5253515Y-14997984D01*
X5253515Y-14997984D02*
X5234467Y-14988460D01*
X5234467Y-14988460D02*
X5224944Y-14978936D01*
X5463039Y-14797984D02*
X5482086Y-14797984D01*
X5482086Y-14797984D02*
X5501134Y-14807508D01*
X5501134Y-14807508D02*
X5510658Y-14817031D01*
X5510658Y-14817031D02*
X5520182Y-14836079D01*
X5520182Y-14836079D02*
X5529705Y-14874174D01*
X5529705Y-14874174D02*
X5529705Y-14921793D01*
X5529705Y-14921793D02*
X5520182Y-14959888D01*
X5520182Y-14959888D02*
X5510658Y-14978936D01*
X5510658Y-14978936D02*
X5501134Y-14988460D01*
X5501134Y-14988460D02*
X5482086Y-14997984D01*
X5482086Y-14997984D02*
X5463039Y-14997984D01*
X5463039Y-14997984D02*
X5443991Y-14988460D01*
X5443991Y-14988460D02*
X5434467Y-14978936D01*
X5434467Y-14978936D02*
X5424944Y-14959888D01*
X5424944Y-14959888D02*
X5415420Y-14921793D01*
X5415420Y-14921793D02*
X5415420Y-14874174D01*
X5415420Y-14874174D02*
X5424944Y-14836079D01*
X5424944Y-14836079D02*
X5434467Y-14817031D01*
X5434467Y-14817031D02*
X5443991Y-14807508D01*
X5443991Y-14807508D02*
X5463039Y-14797984D01*
X5615420Y-14997984D02*
X5615420Y-14864650D01*
X5615420Y-14883698D02*
X5624943Y-14874174D01*
X5624943Y-14874174D02*
X5643991Y-14864650D01*
X5643991Y-14864650D02*
X5672563Y-14864650D01*
X5672563Y-14864650D02*
X5691610Y-14874174D01*
X5691610Y-14874174D02*
X5701134Y-14893222D01*
X5701134Y-14893222D02*
X5701134Y-14997984D01*
X5701134Y-14893222D02*
X5710658Y-14874174D01*
X5710658Y-14874174D02*
X5729705Y-14864650D01*
X5729705Y-14864650D02*
X5758277Y-14864650D01*
X5758277Y-14864650D02*
X5777324Y-14874174D01*
X5777324Y-14874174D02*
X5786848Y-14893222D01*
X5786848Y-14893222D02*
X5786848Y-14997984D01*
X5882086Y-14997984D02*
X5882086Y-14864650D01*
X5882086Y-14883698D02*
X5891610Y-14874174D01*
X5891610Y-14874174D02*
X5910658Y-14864650D01*
X5910658Y-14864650D02*
X5939229Y-14864650D01*
X5939229Y-14864650D02*
X5958277Y-14874174D01*
X5958277Y-14874174D02*
X5967801Y-14893222D01*
X5967801Y-14893222D02*
X5967801Y-14997984D01*
X5967801Y-14893222D02*
X5977324Y-14874174D01*
X5977324Y-14874174D02*
X5996372Y-14864650D01*
X5996372Y-14864650D02*
X6024943Y-14864650D01*
X6024943Y-14864650D02*
X6043991Y-14874174D01*
X6043991Y-14874174D02*
X6053515Y-14893222D01*
X6053515Y-14893222D02*
X6053515Y-14997984D01*
X6443991Y-14788460D02*
X6272563Y-15045603D01*
X6701134Y-14797984D02*
X6720182Y-14797984D01*
X6720182Y-14797984D02*
X6739229Y-14807508D01*
X6739229Y-14807508D02*
X6748753Y-14817031D01*
X6748753Y-14817031D02*
X6758277Y-14836079D01*
X6758277Y-14836079D02*
X6767801Y-14874174D01*
X6767801Y-14874174D02*
X6767801Y-14921793D01*
X6767801Y-14921793D02*
X6758277Y-14959888D01*
X6758277Y-14959888D02*
X6748753Y-14978936D01*
X6748753Y-14978936D02*
X6739229Y-14988460D01*
X6739229Y-14988460D02*
X6720182Y-14997984D01*
X6720182Y-14997984D02*
X6701134Y-14997984D01*
X6701134Y-14997984D02*
X6682086Y-14988460D01*
X6682086Y-14988460D02*
X6672563Y-14978936D01*
X6672563Y-14978936D02*
X6663039Y-14959888D01*
X6663039Y-14959888D02*
X6653515Y-14921793D01*
X6653515Y-14921793D02*
X6653515Y-14874174D01*
X6653515Y-14874174D02*
X6663039Y-14836079D01*
X6663039Y-14836079D02*
X6672563Y-14817031D01*
X6672563Y-14817031D02*
X6682086Y-14807508D01*
X6682086Y-14807508D02*
X6701134Y-14797984D01*
X6853515Y-14978936D02*
X6863039Y-14988460D01*
X6863039Y-14988460D02*
X6853515Y-14997984D01*
X6853515Y-14997984D02*
X6843991Y-14988460D01*
X6843991Y-14988460D02*
X6853515Y-14978936D01*
X6853515Y-14978936D02*
X6853515Y-14997984D01*
X6986848Y-14797984D02*
X7005896Y-14797984D01*
X7005896Y-14797984D02*
X7024944Y-14807508D01*
X7024944Y-14807508D02*
X7034467Y-14817031D01*
X7034467Y-14817031D02*
X7043991Y-14836079D01*
X7043991Y-14836079D02*
X7053515Y-14874174D01*
X7053515Y-14874174D02*
X7053515Y-14921793D01*
X7053515Y-14921793D02*
X7043991Y-14959888D01*
X7043991Y-14959888D02*
X7034467Y-14978936D01*
X7034467Y-14978936D02*
X7024944Y-14988460D01*
X7024944Y-14988460D02*
X7005896Y-14997984D01*
X7005896Y-14997984D02*
X6986848Y-14997984D01*
X6986848Y-14997984D02*
X6967801Y-14988460D01*
X6967801Y-14988460D02*
X6958277Y-14978936D01*
X6958277Y-14978936D02*
X6948753Y-14959888D01*
X6948753Y-14959888D02*
X6939229Y-14921793D01*
X6939229Y-14921793D02*
X6939229Y-14874174D01*
X6939229Y-14874174D02*
X6948753Y-14836079D01*
X6948753Y-14836079D02*
X6958277Y-14817031D01*
X6958277Y-14817031D02*
X6967801Y-14807508D01*
X6967801Y-14807508D02*
X6986848Y-14797984D01*
X7129706Y-14817031D02*
X7139229Y-14807508D01*
X7139229Y-14807508D02*
X7158277Y-14797984D01*
X7158277Y-14797984D02*
X7205896Y-14797984D01*
X7205896Y-14797984D02*
X7224944Y-14807508D01*
X7224944Y-14807508D02*
X7234467Y-14817031D01*
X7234467Y-14817031D02*
X7243991Y-14836079D01*
X7243991Y-14836079D02*
X7243991Y-14855127D01*
X7243991Y-14855127D02*
X7234467Y-14883698D01*
X7234467Y-14883698D02*
X7120182Y-14997984D01*
X7120182Y-14997984D02*
X7243991Y-14997984D01*
X7339229Y-14997984D02*
X7377325Y-14997984D01*
X7377325Y-14997984D02*
X7396372Y-14988460D01*
X7396372Y-14988460D02*
X7405896Y-14978936D01*
X7405896Y-14978936D02*
X7424944Y-14950365D01*
X7424944Y-14950365D02*
X7434467Y-14912269D01*
X7434467Y-14912269D02*
X7434467Y-14836079D01*
X7434467Y-14836079D02*
X7424944Y-14817031D01*
X7424944Y-14817031D02*
X7415420Y-14807508D01*
X7415420Y-14807508D02*
X7396372Y-14797984D01*
X7396372Y-14797984D02*
X7358277Y-14797984D01*
X7358277Y-14797984D02*
X7339229Y-14807508D01*
X7339229Y-14807508D02*
X7329706Y-14817031D01*
X7329706Y-14817031D02*
X7320182Y-14836079D01*
X7320182Y-14836079D02*
X7320182Y-14883698D01*
X7320182Y-14883698D02*
X7329706Y-14902746D01*
X7329706Y-14902746D02*
X7339229Y-14912269D01*
X7339229Y-14912269D02*
X7358277Y-14921793D01*
X7358277Y-14921793D02*
X7396372Y-14921793D01*
X7396372Y-14921793D02*
X7415420Y-14912269D01*
X7415420Y-14912269D02*
X7424944Y-14902746D01*
X7424944Y-14902746D02*
X7434467Y-14883698D01*
X7615420Y-14797984D02*
X7520182Y-14797984D01*
X7520182Y-14797984D02*
X7510658Y-14893222D01*
X7510658Y-14893222D02*
X7520182Y-14883698D01*
X7520182Y-14883698D02*
X7539229Y-14874174D01*
X7539229Y-14874174D02*
X7586848Y-14874174D01*
X7586848Y-14874174D02*
X7605896Y-14883698D01*
X7605896Y-14883698D02*
X7615420Y-14893222D01*
X7615420Y-14893222D02*
X7624944Y-14912269D01*
X7624944Y-14912269D02*
X7624944Y-14959888D01*
X7624944Y-14959888D02*
X7615420Y-14978936D01*
X7615420Y-14978936D02*
X7605896Y-14988460D01*
X7605896Y-14988460D02*
X7586848Y-14997984D01*
X7586848Y-14997984D02*
X7539229Y-14997984D01*
X7539229Y-14997984D02*
X7520182Y-14988460D01*
X7520182Y-14988460D02*
X7510658Y-14978936D01*
X7701134Y-14797984D02*
X7701134Y-14836079D01*
X7777325Y-14797984D02*
X7777325Y-14836079D01*
X8072563Y-15074174D02*
X8063039Y-15064650D01*
X8063039Y-15064650D02*
X8043991Y-15036079D01*
X8043991Y-15036079D02*
X8034468Y-15017031D01*
X8034468Y-15017031D02*
X8024944Y-14988460D01*
X8024944Y-14988460D02*
X8015420Y-14940841D01*
X8015420Y-14940841D02*
X8015420Y-14902746D01*
X8015420Y-14902746D02*
X8024944Y-14855127D01*
X8024944Y-14855127D02*
X8034468Y-14826555D01*
X8034468Y-14826555D02*
X8043991Y-14807508D01*
X8043991Y-14807508D02*
X8063039Y-14778936D01*
X8063039Y-14778936D02*
X8072563Y-14769412D01*
X8129706Y-14797984D02*
X8253515Y-14797984D01*
X8253515Y-14797984D02*
X8186848Y-14874174D01*
X8186848Y-14874174D02*
X8215420Y-14874174D01*
X8215420Y-14874174D02*
X8234468Y-14883698D01*
X8234468Y-14883698D02*
X8243991Y-14893222D01*
X8243991Y-14893222D02*
X8253515Y-14912269D01*
X8253515Y-14912269D02*
X8253515Y-14959888D01*
X8253515Y-14959888D02*
X8243991Y-14978936D01*
X8243991Y-14978936D02*
X8234468Y-14988460D01*
X8234468Y-14988460D02*
X8215420Y-14997984D01*
X8215420Y-14997984D02*
X8158277Y-14997984D01*
X8158277Y-14997984D02*
X8139229Y-14988460D01*
X8139229Y-14988460D02*
X8129706Y-14978936D01*
X8491611Y-14997984D02*
X8491611Y-14797984D01*
X8577325Y-14997984D02*
X8577325Y-14893222D01*
X8577325Y-14893222D02*
X8567801Y-14874174D01*
X8567801Y-14874174D02*
X8548753Y-14864650D01*
X8548753Y-14864650D02*
X8520182Y-14864650D01*
X8520182Y-14864650D02*
X8501134Y-14874174D01*
X8501134Y-14874174D02*
X8491611Y-14883698D01*
X8701134Y-14997984D02*
X8682087Y-14988460D01*
X8682087Y-14988460D02*
X8672563Y-14978936D01*
X8672563Y-14978936D02*
X8663039Y-14959888D01*
X8663039Y-14959888D02*
X8663039Y-14902746D01*
X8663039Y-14902746D02*
X8672563Y-14883698D01*
X8672563Y-14883698D02*
X8682087Y-14874174D01*
X8682087Y-14874174D02*
X8701134Y-14864650D01*
X8701134Y-14864650D02*
X8729706Y-14864650D01*
X8729706Y-14864650D02*
X8748753Y-14874174D01*
X8748753Y-14874174D02*
X8758277Y-14883698D01*
X8758277Y-14883698D02*
X8767801Y-14902746D01*
X8767801Y-14902746D02*
X8767801Y-14959888D01*
X8767801Y-14959888D02*
X8758277Y-14978936D01*
X8758277Y-14978936D02*
X8748753Y-14988460D01*
X8748753Y-14988460D02*
X8729706Y-14997984D01*
X8729706Y-14997984D02*
X8701134Y-14997984D01*
X8882087Y-14997984D02*
X8863039Y-14988460D01*
X8863039Y-14988460D02*
X8853515Y-14969412D01*
X8853515Y-14969412D02*
X8853515Y-14797984D01*
X9034468Y-14988460D02*
X9015420Y-14997984D01*
X9015420Y-14997984D02*
X8977325Y-14997984D01*
X8977325Y-14997984D02*
X8958277Y-14988460D01*
X8958277Y-14988460D02*
X8948753Y-14969412D01*
X8948753Y-14969412D02*
X8948753Y-14893222D01*
X8948753Y-14893222D02*
X8958277Y-14874174D01*
X8958277Y-14874174D02*
X8977325Y-14864650D01*
X8977325Y-14864650D02*
X9015420Y-14864650D01*
X9015420Y-14864650D02*
X9034468Y-14874174D01*
X9034468Y-14874174D02*
X9043992Y-14893222D01*
X9043992Y-14893222D02*
X9043992Y-14912269D01*
X9043992Y-14912269D02*
X8948753Y-14931317D01*
X9120182Y-14988460D02*
X9139230Y-14997984D01*
X9139230Y-14997984D02*
X9177325Y-14997984D01*
X9177325Y-14997984D02*
X9196373Y-14988460D01*
X9196373Y-14988460D02*
X9205896Y-14969412D01*
X9205896Y-14969412D02*
X9205896Y-14959888D01*
X9205896Y-14959888D02*
X9196373Y-14940841D01*
X9196373Y-14940841D02*
X9177325Y-14931317D01*
X9177325Y-14931317D02*
X9148753Y-14931317D01*
X9148753Y-14931317D02*
X9129706Y-14921793D01*
X9129706Y-14921793D02*
X9120182Y-14902746D01*
X9120182Y-14902746D02*
X9120182Y-14893222D01*
X9120182Y-14893222D02*
X9129706Y-14874174D01*
X9129706Y-14874174D02*
X9148753Y-14864650D01*
X9148753Y-14864650D02*
X9177325Y-14864650D01*
X9177325Y-14864650D02*
X9196373Y-14874174D01*
X9272563Y-15074174D02*
X9282087Y-15064650D01*
X9282087Y-15064650D02*
X9301134Y-15036079D01*
X9301134Y-15036079D02*
X9310658Y-15017031D01*
X9310658Y-15017031D02*
X9320182Y-14988460D01*
X9320182Y-14988460D02*
X9329706Y-14940841D01*
X9329706Y-14940841D02*
X9329706Y-14902746D01*
X9329706Y-14902746D02*
X9320182Y-14855127D01*
X9320182Y-14855127D02*
X9310658Y-14826555D01*
X9310658Y-14826555D02*
X9301134Y-14807508D01*
X9301134Y-14807508D02*
X9282087Y-14778936D01*
X9282087Y-14778936D02*
X9272563Y-14769412D01*
D12*
X4457500Y-15130500D02*
X4457500Y-15210500D01*
X4417500Y-15170500D02*
X4497500Y-15170500D01*
D11*
X4796372Y-15061984D02*
X4815420Y-15061984D01*
X4815420Y-15061984D02*
X4834467Y-15071508D01*
X4834467Y-15071508D02*
X4843991Y-15081031D01*
X4843991Y-15081031D02*
X4853515Y-15100079D01*
X4853515Y-15100079D02*
X4863039Y-15138174D01*
X4863039Y-15138174D02*
X4863039Y-15185793D01*
X4863039Y-15185793D02*
X4853515Y-15223888D01*
X4853515Y-15223888D02*
X4843991Y-15242936D01*
X4843991Y-15242936D02*
X4834467Y-15252460D01*
X4834467Y-15252460D02*
X4815420Y-15261984D01*
X4815420Y-15261984D02*
X4796372Y-15261984D01*
X4796372Y-15261984D02*
X4777324Y-15252460D01*
X4777324Y-15252460D02*
X4767801Y-15242936D01*
X4767801Y-15242936D02*
X4758277Y-15223888D01*
X4758277Y-15223888D02*
X4748753Y-15185793D01*
X4748753Y-15185793D02*
X4748753Y-15138174D01*
X4748753Y-15138174D02*
X4758277Y-15100079D01*
X4758277Y-15100079D02*
X4767801Y-15081031D01*
X4767801Y-15081031D02*
X4777324Y-15071508D01*
X4777324Y-15071508D02*
X4796372Y-15061984D01*
X4948753Y-15242936D02*
X4958277Y-15252460D01*
X4958277Y-15252460D02*
X4948753Y-15261984D01*
X4948753Y-15261984D02*
X4939229Y-15252460D01*
X4939229Y-15252460D02*
X4948753Y-15242936D01*
X4948753Y-15242936D02*
X4948753Y-15261984D01*
X5072563Y-15147698D02*
X5053515Y-15138174D01*
X5053515Y-15138174D02*
X5043991Y-15128650D01*
X5043991Y-15128650D02*
X5034467Y-15109603D01*
X5034467Y-15109603D02*
X5034467Y-15100079D01*
X5034467Y-15100079D02*
X5043991Y-15081031D01*
X5043991Y-15081031D02*
X5053515Y-15071508D01*
X5053515Y-15071508D02*
X5072563Y-15061984D01*
X5072563Y-15061984D02*
X5110658Y-15061984D01*
X5110658Y-15061984D02*
X5129705Y-15071508D01*
X5129705Y-15071508D02*
X5139229Y-15081031D01*
X5139229Y-15081031D02*
X5148753Y-15100079D01*
X5148753Y-15100079D02*
X5148753Y-15109603D01*
X5148753Y-15109603D02*
X5139229Y-15128650D01*
X5139229Y-15128650D02*
X5129705Y-15138174D01*
X5129705Y-15138174D02*
X5110658Y-15147698D01*
X5110658Y-15147698D02*
X5072563Y-15147698D01*
X5072563Y-15147698D02*
X5053515Y-15157222D01*
X5053515Y-15157222D02*
X5043991Y-15166746D01*
X5043991Y-15166746D02*
X5034467Y-15185793D01*
X5034467Y-15185793D02*
X5034467Y-15223888D01*
X5034467Y-15223888D02*
X5043991Y-15242936D01*
X5043991Y-15242936D02*
X5053515Y-15252460D01*
X5053515Y-15252460D02*
X5072563Y-15261984D01*
X5072563Y-15261984D02*
X5110658Y-15261984D01*
X5110658Y-15261984D02*
X5129705Y-15252460D01*
X5129705Y-15252460D02*
X5139229Y-15242936D01*
X5139229Y-15242936D02*
X5148753Y-15223888D01*
X5148753Y-15223888D02*
X5148753Y-15185793D01*
X5148753Y-15185793D02*
X5139229Y-15166746D01*
X5139229Y-15166746D02*
X5129705Y-15157222D01*
X5129705Y-15157222D02*
X5110658Y-15147698D01*
X5272563Y-15061984D02*
X5291610Y-15061984D01*
X5291610Y-15061984D02*
X5310658Y-15071508D01*
X5310658Y-15071508D02*
X5320182Y-15081031D01*
X5320182Y-15081031D02*
X5329705Y-15100079D01*
X5329705Y-15100079D02*
X5339229Y-15138174D01*
X5339229Y-15138174D02*
X5339229Y-15185793D01*
X5339229Y-15185793D02*
X5329705Y-15223888D01*
X5329705Y-15223888D02*
X5320182Y-15242936D01*
X5320182Y-15242936D02*
X5310658Y-15252460D01*
X5310658Y-15252460D02*
X5291610Y-15261984D01*
X5291610Y-15261984D02*
X5272563Y-15261984D01*
X5272563Y-15261984D02*
X5253515Y-15252460D01*
X5253515Y-15252460D02*
X5243991Y-15242936D01*
X5243991Y-15242936D02*
X5234467Y-15223888D01*
X5234467Y-15223888D02*
X5224944Y-15185793D01*
X5224944Y-15185793D02*
X5224944Y-15138174D01*
X5224944Y-15138174D02*
X5234467Y-15100079D01*
X5234467Y-15100079D02*
X5243991Y-15081031D01*
X5243991Y-15081031D02*
X5253515Y-15071508D01*
X5253515Y-15071508D02*
X5272563Y-15061984D01*
X5463039Y-15061984D02*
X5482086Y-15061984D01*
X5482086Y-15061984D02*
X5501134Y-15071508D01*
X5501134Y-15071508D02*
X5510658Y-15081031D01*
X5510658Y-15081031D02*
X5520182Y-15100079D01*
X5520182Y-15100079D02*
X5529705Y-15138174D01*
X5529705Y-15138174D02*
X5529705Y-15185793D01*
X5529705Y-15185793D02*
X5520182Y-15223888D01*
X5520182Y-15223888D02*
X5510658Y-15242936D01*
X5510658Y-15242936D02*
X5501134Y-15252460D01*
X5501134Y-15252460D02*
X5482086Y-15261984D01*
X5482086Y-15261984D02*
X5463039Y-15261984D01*
X5463039Y-15261984D02*
X5443991Y-15252460D01*
X5443991Y-15252460D02*
X5434467Y-15242936D01*
X5434467Y-15242936D02*
X5424944Y-15223888D01*
X5424944Y-15223888D02*
X5415420Y-15185793D01*
X5415420Y-15185793D02*
X5415420Y-15138174D01*
X5415420Y-15138174D02*
X5424944Y-15100079D01*
X5424944Y-15100079D02*
X5434467Y-15081031D01*
X5434467Y-15081031D02*
X5443991Y-15071508D01*
X5443991Y-15071508D02*
X5463039Y-15061984D01*
X5615420Y-15261984D02*
X5615420Y-15128650D01*
X5615420Y-15147698D02*
X5624943Y-15138174D01*
X5624943Y-15138174D02*
X5643991Y-15128650D01*
X5643991Y-15128650D02*
X5672563Y-15128650D01*
X5672563Y-15128650D02*
X5691610Y-15138174D01*
X5691610Y-15138174D02*
X5701134Y-15157222D01*
X5701134Y-15157222D02*
X5701134Y-15261984D01*
X5701134Y-15157222D02*
X5710658Y-15138174D01*
X5710658Y-15138174D02*
X5729705Y-15128650D01*
X5729705Y-15128650D02*
X5758277Y-15128650D01*
X5758277Y-15128650D02*
X5777324Y-15138174D01*
X5777324Y-15138174D02*
X5786848Y-15157222D01*
X5786848Y-15157222D02*
X5786848Y-15261984D01*
X5882086Y-15261984D02*
X5882086Y-15128650D01*
X5882086Y-15147698D02*
X5891610Y-15138174D01*
X5891610Y-15138174D02*
X5910658Y-15128650D01*
X5910658Y-15128650D02*
X5939229Y-15128650D01*
X5939229Y-15128650D02*
X5958277Y-15138174D01*
X5958277Y-15138174D02*
X5967801Y-15157222D01*
X5967801Y-15157222D02*
X5967801Y-15261984D01*
X5967801Y-15157222D02*
X5977324Y-15138174D01*
X5977324Y-15138174D02*
X5996372Y-15128650D01*
X5996372Y-15128650D02*
X6024943Y-15128650D01*
X6024943Y-15128650D02*
X6043991Y-15138174D01*
X6043991Y-15138174D02*
X6053515Y-15157222D01*
X6053515Y-15157222D02*
X6053515Y-15261984D01*
X6443991Y-15052460D02*
X6272563Y-15309603D01*
X6701134Y-15061984D02*
X6720182Y-15061984D01*
X6720182Y-15061984D02*
X6739229Y-15071508D01*
X6739229Y-15071508D02*
X6748753Y-15081031D01*
X6748753Y-15081031D02*
X6758277Y-15100079D01*
X6758277Y-15100079D02*
X6767801Y-15138174D01*
X6767801Y-15138174D02*
X6767801Y-15185793D01*
X6767801Y-15185793D02*
X6758277Y-15223888D01*
X6758277Y-15223888D02*
X6748753Y-15242936D01*
X6748753Y-15242936D02*
X6739229Y-15252460D01*
X6739229Y-15252460D02*
X6720182Y-15261984D01*
X6720182Y-15261984D02*
X6701134Y-15261984D01*
X6701134Y-15261984D02*
X6682086Y-15252460D01*
X6682086Y-15252460D02*
X6672563Y-15242936D01*
X6672563Y-15242936D02*
X6663039Y-15223888D01*
X6663039Y-15223888D02*
X6653515Y-15185793D01*
X6653515Y-15185793D02*
X6653515Y-15138174D01*
X6653515Y-15138174D02*
X6663039Y-15100079D01*
X6663039Y-15100079D02*
X6672563Y-15081031D01*
X6672563Y-15081031D02*
X6682086Y-15071508D01*
X6682086Y-15071508D02*
X6701134Y-15061984D01*
X6853515Y-15242936D02*
X6863039Y-15252460D01*
X6863039Y-15252460D02*
X6853515Y-15261984D01*
X6853515Y-15261984D02*
X6843991Y-15252460D01*
X6843991Y-15252460D02*
X6853515Y-15242936D01*
X6853515Y-15242936D02*
X6853515Y-15261984D01*
X6986848Y-15061984D02*
X7005896Y-15061984D01*
X7005896Y-15061984D02*
X7024944Y-15071508D01*
X7024944Y-15071508D02*
X7034467Y-15081031D01*
X7034467Y-15081031D02*
X7043991Y-15100079D01*
X7043991Y-15100079D02*
X7053515Y-15138174D01*
X7053515Y-15138174D02*
X7053515Y-15185793D01*
X7053515Y-15185793D02*
X7043991Y-15223888D01*
X7043991Y-15223888D02*
X7034467Y-15242936D01*
X7034467Y-15242936D02*
X7024944Y-15252460D01*
X7024944Y-15252460D02*
X7005896Y-15261984D01*
X7005896Y-15261984D02*
X6986848Y-15261984D01*
X6986848Y-15261984D02*
X6967801Y-15252460D01*
X6967801Y-15252460D02*
X6958277Y-15242936D01*
X6958277Y-15242936D02*
X6948753Y-15223888D01*
X6948753Y-15223888D02*
X6939229Y-15185793D01*
X6939229Y-15185793D02*
X6939229Y-15138174D01*
X6939229Y-15138174D02*
X6948753Y-15100079D01*
X6948753Y-15100079D02*
X6958277Y-15081031D01*
X6958277Y-15081031D02*
X6967801Y-15071508D01*
X6967801Y-15071508D02*
X6986848Y-15061984D01*
X7120182Y-15061984D02*
X7243991Y-15061984D01*
X7243991Y-15061984D02*
X7177325Y-15138174D01*
X7177325Y-15138174D02*
X7205896Y-15138174D01*
X7205896Y-15138174D02*
X7224944Y-15147698D01*
X7224944Y-15147698D02*
X7234467Y-15157222D01*
X7234467Y-15157222D02*
X7243991Y-15176269D01*
X7243991Y-15176269D02*
X7243991Y-15223888D01*
X7243991Y-15223888D02*
X7234467Y-15242936D01*
X7234467Y-15242936D02*
X7224944Y-15252460D01*
X7224944Y-15252460D02*
X7205896Y-15261984D01*
X7205896Y-15261984D02*
X7148753Y-15261984D01*
X7148753Y-15261984D02*
X7129706Y-15252460D01*
X7129706Y-15252460D02*
X7120182Y-15242936D01*
X7434467Y-15261984D02*
X7320182Y-15261984D01*
X7377325Y-15261984D02*
X7377325Y-15061984D01*
X7377325Y-15061984D02*
X7358277Y-15090555D01*
X7358277Y-15090555D02*
X7339229Y-15109603D01*
X7339229Y-15109603D02*
X7320182Y-15119127D01*
X7615420Y-15061984D02*
X7520182Y-15061984D01*
X7520182Y-15061984D02*
X7510658Y-15157222D01*
X7510658Y-15157222D02*
X7520182Y-15147698D01*
X7520182Y-15147698D02*
X7539229Y-15138174D01*
X7539229Y-15138174D02*
X7586848Y-15138174D01*
X7586848Y-15138174D02*
X7605896Y-15147698D01*
X7605896Y-15147698D02*
X7615420Y-15157222D01*
X7615420Y-15157222D02*
X7624944Y-15176269D01*
X7624944Y-15176269D02*
X7624944Y-15223888D01*
X7624944Y-15223888D02*
X7615420Y-15242936D01*
X7615420Y-15242936D02*
X7605896Y-15252460D01*
X7605896Y-15252460D02*
X7586848Y-15261984D01*
X7586848Y-15261984D02*
X7539229Y-15261984D01*
X7539229Y-15261984D02*
X7520182Y-15252460D01*
X7520182Y-15252460D02*
X7510658Y-15242936D01*
X7701134Y-15061984D02*
X7701134Y-15100079D01*
X7777325Y-15061984D02*
X7777325Y-15100079D01*
X8072563Y-15338174D02*
X8063039Y-15328650D01*
X8063039Y-15328650D02*
X8043991Y-15300079D01*
X8043991Y-15300079D02*
X8034468Y-15281031D01*
X8034468Y-15281031D02*
X8024944Y-15252460D01*
X8024944Y-15252460D02*
X8015420Y-15204841D01*
X8015420Y-15204841D02*
X8015420Y-15166746D01*
X8015420Y-15166746D02*
X8024944Y-15119127D01*
X8024944Y-15119127D02*
X8034468Y-15090555D01*
X8034468Y-15090555D02*
X8043991Y-15071508D01*
X8043991Y-15071508D02*
X8063039Y-15042936D01*
X8063039Y-15042936D02*
X8072563Y-15033412D01*
X8253515Y-15261984D02*
X8139229Y-15261984D01*
X8196372Y-15261984D02*
X8196372Y-15061984D01*
X8196372Y-15061984D02*
X8177325Y-15090555D01*
X8177325Y-15090555D02*
X8158277Y-15109603D01*
X8158277Y-15109603D02*
X8139229Y-15119127D01*
X8424944Y-15128650D02*
X8424944Y-15261984D01*
X8377325Y-15052460D02*
X8329706Y-15195317D01*
X8329706Y-15195317D02*
X8453515Y-15195317D01*
X8682087Y-15261984D02*
X8682087Y-15061984D01*
X8767801Y-15261984D02*
X8767801Y-15157222D01*
X8767801Y-15157222D02*
X8758277Y-15138174D01*
X8758277Y-15138174D02*
X8739230Y-15128650D01*
X8739230Y-15128650D02*
X8710658Y-15128650D01*
X8710658Y-15128650D02*
X8691611Y-15138174D01*
X8691611Y-15138174D02*
X8682087Y-15147698D01*
X8891611Y-15261984D02*
X8872563Y-15252460D01*
X8872563Y-15252460D02*
X8863039Y-15242936D01*
X8863039Y-15242936D02*
X8853515Y-15223888D01*
X8853515Y-15223888D02*
X8853515Y-15166746D01*
X8853515Y-15166746D02*
X8863039Y-15147698D01*
X8863039Y-15147698D02*
X8872563Y-15138174D01*
X8872563Y-15138174D02*
X8891611Y-15128650D01*
X8891611Y-15128650D02*
X8920182Y-15128650D01*
X8920182Y-15128650D02*
X8939230Y-15138174D01*
X8939230Y-15138174D02*
X8948753Y-15147698D01*
X8948753Y-15147698D02*
X8958277Y-15166746D01*
X8958277Y-15166746D02*
X8958277Y-15223888D01*
X8958277Y-15223888D02*
X8948753Y-15242936D01*
X8948753Y-15242936D02*
X8939230Y-15252460D01*
X8939230Y-15252460D02*
X8920182Y-15261984D01*
X8920182Y-15261984D02*
X8891611Y-15261984D01*
X9072563Y-15261984D02*
X9053515Y-15252460D01*
X9053515Y-15252460D02*
X9043992Y-15233412D01*
X9043992Y-15233412D02*
X9043992Y-15061984D01*
X9224944Y-15252460D02*
X9205896Y-15261984D01*
X9205896Y-15261984D02*
X9167801Y-15261984D01*
X9167801Y-15261984D02*
X9148753Y-15252460D01*
X9148753Y-15252460D02*
X9139230Y-15233412D01*
X9139230Y-15233412D02*
X9139230Y-15157222D01*
X9139230Y-15157222D02*
X9148753Y-15138174D01*
X9148753Y-15138174D02*
X9167801Y-15128650D01*
X9167801Y-15128650D02*
X9205896Y-15128650D01*
X9205896Y-15128650D02*
X9224944Y-15138174D01*
X9224944Y-15138174D02*
X9234468Y-15157222D01*
X9234468Y-15157222D02*
X9234468Y-15176269D01*
X9234468Y-15176269D02*
X9139230Y-15195317D01*
X9310658Y-15252460D02*
X9329706Y-15261984D01*
X9329706Y-15261984D02*
X9367801Y-15261984D01*
X9367801Y-15261984D02*
X9386849Y-15252460D01*
X9386849Y-15252460D02*
X9396373Y-15233412D01*
X9396373Y-15233412D02*
X9396373Y-15223888D01*
X9396373Y-15223888D02*
X9386849Y-15204841D01*
X9386849Y-15204841D02*
X9367801Y-15195317D01*
X9367801Y-15195317D02*
X9339230Y-15195317D01*
X9339230Y-15195317D02*
X9320182Y-15185793D01*
X9320182Y-15185793D02*
X9310658Y-15166746D01*
X9310658Y-15166746D02*
X9310658Y-15157222D01*
X9310658Y-15157222D02*
X9320182Y-15138174D01*
X9320182Y-15138174D02*
X9339230Y-15128650D01*
X9339230Y-15128650D02*
X9367801Y-15128650D01*
X9367801Y-15128650D02*
X9386849Y-15138174D01*
X9463039Y-15338174D02*
X9472563Y-15328650D01*
X9472563Y-15328650D02*
X9491611Y-15300079D01*
X9491611Y-15300079D02*
X9501134Y-15281031D01*
X9501134Y-15281031D02*
X9510658Y-15252460D01*
X9510658Y-15252460D02*
X9520182Y-15204841D01*
X9520182Y-15204841D02*
X9520182Y-15166746D01*
X9520182Y-15166746D02*
X9510658Y-15119127D01*
X9510658Y-15119127D02*
X9501134Y-15090555D01*
X9501134Y-15090555D02*
X9491611Y-15071508D01*
X9491611Y-15071508D02*
X9472563Y-15042936D01*
X9472563Y-15042936D02*
X9463039Y-15033412D01*
D12*
X4485052Y-15464552D02*
X4485052Y-15404448D01*
X4424948Y-15404448D01*
X4424948Y-15464552D01*
X4485052Y-15464552D01*
D11*
X4796372Y-15325984D02*
X4815420Y-15325984D01*
X4815420Y-15325984D02*
X4834467Y-15335508D01*
X4834467Y-15335508D02*
X4843991Y-15345031D01*
X4843991Y-15345031D02*
X4853515Y-15364079D01*
X4853515Y-15364079D02*
X4863039Y-15402174D01*
X4863039Y-15402174D02*
X4863039Y-15449793D01*
X4863039Y-15449793D02*
X4853515Y-15487888D01*
X4853515Y-15487888D02*
X4843991Y-15506936D01*
X4843991Y-15506936D02*
X4834467Y-15516460D01*
X4834467Y-15516460D02*
X4815420Y-15525984D01*
X4815420Y-15525984D02*
X4796372Y-15525984D01*
X4796372Y-15525984D02*
X4777324Y-15516460D01*
X4777324Y-15516460D02*
X4767801Y-15506936D01*
X4767801Y-15506936D02*
X4758277Y-15487888D01*
X4758277Y-15487888D02*
X4748753Y-15449793D01*
X4748753Y-15449793D02*
X4748753Y-15402174D01*
X4748753Y-15402174D02*
X4758277Y-15364079D01*
X4758277Y-15364079D02*
X4767801Y-15345031D01*
X4767801Y-15345031D02*
X4777324Y-15335508D01*
X4777324Y-15335508D02*
X4796372Y-15325984D01*
X4948753Y-15506936D02*
X4958277Y-15516460D01*
X4958277Y-15516460D02*
X4948753Y-15525984D01*
X4948753Y-15525984D02*
X4939229Y-15516460D01*
X4939229Y-15516460D02*
X4948753Y-15506936D01*
X4948753Y-15506936D02*
X4948753Y-15525984D01*
X5072563Y-15411698D02*
X5053515Y-15402174D01*
X5053515Y-15402174D02*
X5043991Y-15392650D01*
X5043991Y-15392650D02*
X5034467Y-15373603D01*
X5034467Y-15373603D02*
X5034467Y-15364079D01*
X5034467Y-15364079D02*
X5043991Y-15345031D01*
X5043991Y-15345031D02*
X5053515Y-15335508D01*
X5053515Y-15335508D02*
X5072563Y-15325984D01*
X5072563Y-15325984D02*
X5110658Y-15325984D01*
X5110658Y-15325984D02*
X5129705Y-15335508D01*
X5129705Y-15335508D02*
X5139229Y-15345031D01*
X5139229Y-15345031D02*
X5148753Y-15364079D01*
X5148753Y-15364079D02*
X5148753Y-15373603D01*
X5148753Y-15373603D02*
X5139229Y-15392650D01*
X5139229Y-15392650D02*
X5129705Y-15402174D01*
X5129705Y-15402174D02*
X5110658Y-15411698D01*
X5110658Y-15411698D02*
X5072563Y-15411698D01*
X5072563Y-15411698D02*
X5053515Y-15421222D01*
X5053515Y-15421222D02*
X5043991Y-15430746D01*
X5043991Y-15430746D02*
X5034467Y-15449793D01*
X5034467Y-15449793D02*
X5034467Y-15487888D01*
X5034467Y-15487888D02*
X5043991Y-15506936D01*
X5043991Y-15506936D02*
X5053515Y-15516460D01*
X5053515Y-15516460D02*
X5072563Y-15525984D01*
X5072563Y-15525984D02*
X5110658Y-15525984D01*
X5110658Y-15525984D02*
X5129705Y-15516460D01*
X5129705Y-15516460D02*
X5139229Y-15506936D01*
X5139229Y-15506936D02*
X5148753Y-15487888D01*
X5148753Y-15487888D02*
X5148753Y-15449793D01*
X5148753Y-15449793D02*
X5139229Y-15430746D01*
X5139229Y-15430746D02*
X5129705Y-15421222D01*
X5129705Y-15421222D02*
X5110658Y-15411698D01*
X5329705Y-15325984D02*
X5234467Y-15325984D01*
X5234467Y-15325984D02*
X5224944Y-15421222D01*
X5224944Y-15421222D02*
X5234467Y-15411698D01*
X5234467Y-15411698D02*
X5253515Y-15402174D01*
X5253515Y-15402174D02*
X5301134Y-15402174D01*
X5301134Y-15402174D02*
X5320182Y-15411698D01*
X5320182Y-15411698D02*
X5329705Y-15421222D01*
X5329705Y-15421222D02*
X5339229Y-15440269D01*
X5339229Y-15440269D02*
X5339229Y-15487888D01*
X5339229Y-15487888D02*
X5329705Y-15506936D01*
X5329705Y-15506936D02*
X5320182Y-15516460D01*
X5320182Y-15516460D02*
X5301134Y-15525984D01*
X5301134Y-15525984D02*
X5253515Y-15525984D01*
X5253515Y-15525984D02*
X5234467Y-15516460D01*
X5234467Y-15516460D02*
X5224944Y-15506936D01*
X5463039Y-15325984D02*
X5482086Y-15325984D01*
X5482086Y-15325984D02*
X5501134Y-15335508D01*
X5501134Y-15335508D02*
X5510658Y-15345031D01*
X5510658Y-15345031D02*
X5520182Y-15364079D01*
X5520182Y-15364079D02*
X5529705Y-15402174D01*
X5529705Y-15402174D02*
X5529705Y-15449793D01*
X5529705Y-15449793D02*
X5520182Y-15487888D01*
X5520182Y-15487888D02*
X5510658Y-15506936D01*
X5510658Y-15506936D02*
X5501134Y-15516460D01*
X5501134Y-15516460D02*
X5482086Y-15525984D01*
X5482086Y-15525984D02*
X5463039Y-15525984D01*
X5463039Y-15525984D02*
X5443991Y-15516460D01*
X5443991Y-15516460D02*
X5434467Y-15506936D01*
X5434467Y-15506936D02*
X5424944Y-15487888D01*
X5424944Y-15487888D02*
X5415420Y-15449793D01*
X5415420Y-15449793D02*
X5415420Y-15402174D01*
X5415420Y-15402174D02*
X5424944Y-15364079D01*
X5424944Y-15364079D02*
X5434467Y-15345031D01*
X5434467Y-15345031D02*
X5443991Y-15335508D01*
X5443991Y-15335508D02*
X5463039Y-15325984D01*
X5615420Y-15525984D02*
X5615420Y-15392650D01*
X5615420Y-15411698D02*
X5624943Y-15402174D01*
X5624943Y-15402174D02*
X5643991Y-15392650D01*
X5643991Y-15392650D02*
X5672563Y-15392650D01*
X5672563Y-15392650D02*
X5691610Y-15402174D01*
X5691610Y-15402174D02*
X5701134Y-15421222D01*
X5701134Y-15421222D02*
X5701134Y-15525984D01*
X5701134Y-15421222D02*
X5710658Y-15402174D01*
X5710658Y-15402174D02*
X5729705Y-15392650D01*
X5729705Y-15392650D02*
X5758277Y-15392650D01*
X5758277Y-15392650D02*
X5777324Y-15402174D01*
X5777324Y-15402174D02*
X5786848Y-15421222D01*
X5786848Y-15421222D02*
X5786848Y-15525984D01*
X5882086Y-15525984D02*
X5882086Y-15392650D01*
X5882086Y-15411698D02*
X5891610Y-15402174D01*
X5891610Y-15402174D02*
X5910658Y-15392650D01*
X5910658Y-15392650D02*
X5939229Y-15392650D01*
X5939229Y-15392650D02*
X5958277Y-15402174D01*
X5958277Y-15402174D02*
X5967801Y-15421222D01*
X5967801Y-15421222D02*
X5967801Y-15525984D01*
X5967801Y-15421222D02*
X5977324Y-15402174D01*
X5977324Y-15402174D02*
X5996372Y-15392650D01*
X5996372Y-15392650D02*
X6024943Y-15392650D01*
X6024943Y-15392650D02*
X6043991Y-15402174D01*
X6043991Y-15402174D02*
X6053515Y-15421222D01*
X6053515Y-15421222D02*
X6053515Y-15525984D01*
X6443991Y-15316460D02*
X6272563Y-15573603D01*
X6701134Y-15325984D02*
X6720182Y-15325984D01*
X6720182Y-15325984D02*
X6739229Y-15335508D01*
X6739229Y-15335508D02*
X6748753Y-15345031D01*
X6748753Y-15345031D02*
X6758277Y-15364079D01*
X6758277Y-15364079D02*
X6767801Y-15402174D01*
X6767801Y-15402174D02*
X6767801Y-15449793D01*
X6767801Y-15449793D02*
X6758277Y-15487888D01*
X6758277Y-15487888D02*
X6748753Y-15506936D01*
X6748753Y-15506936D02*
X6739229Y-15516460D01*
X6739229Y-15516460D02*
X6720182Y-15525984D01*
X6720182Y-15525984D02*
X6701134Y-15525984D01*
X6701134Y-15525984D02*
X6682086Y-15516460D01*
X6682086Y-15516460D02*
X6672563Y-15506936D01*
X6672563Y-15506936D02*
X6663039Y-15487888D01*
X6663039Y-15487888D02*
X6653515Y-15449793D01*
X6653515Y-15449793D02*
X6653515Y-15402174D01*
X6653515Y-15402174D02*
X6663039Y-15364079D01*
X6663039Y-15364079D02*
X6672563Y-15345031D01*
X6672563Y-15345031D02*
X6682086Y-15335508D01*
X6682086Y-15335508D02*
X6701134Y-15325984D01*
X6853515Y-15506936D02*
X6863039Y-15516460D01*
X6863039Y-15516460D02*
X6853515Y-15525984D01*
X6853515Y-15525984D02*
X6843991Y-15516460D01*
X6843991Y-15516460D02*
X6853515Y-15506936D01*
X6853515Y-15506936D02*
X6853515Y-15525984D01*
X6986848Y-15325984D02*
X7005896Y-15325984D01*
X7005896Y-15325984D02*
X7024944Y-15335508D01*
X7024944Y-15335508D02*
X7034467Y-15345031D01*
X7034467Y-15345031D02*
X7043991Y-15364079D01*
X7043991Y-15364079D02*
X7053515Y-15402174D01*
X7053515Y-15402174D02*
X7053515Y-15449793D01*
X7053515Y-15449793D02*
X7043991Y-15487888D01*
X7043991Y-15487888D02*
X7034467Y-15506936D01*
X7034467Y-15506936D02*
X7024944Y-15516460D01*
X7024944Y-15516460D02*
X7005896Y-15525984D01*
X7005896Y-15525984D02*
X6986848Y-15525984D01*
X6986848Y-15525984D02*
X6967801Y-15516460D01*
X6967801Y-15516460D02*
X6958277Y-15506936D01*
X6958277Y-15506936D02*
X6948753Y-15487888D01*
X6948753Y-15487888D02*
X6939229Y-15449793D01*
X6939229Y-15449793D02*
X6939229Y-15402174D01*
X6939229Y-15402174D02*
X6948753Y-15364079D01*
X6948753Y-15364079D02*
X6958277Y-15345031D01*
X6958277Y-15345031D02*
X6967801Y-15335508D01*
X6967801Y-15335508D02*
X6986848Y-15325984D01*
X7120182Y-15325984D02*
X7243991Y-15325984D01*
X7243991Y-15325984D02*
X7177325Y-15402174D01*
X7177325Y-15402174D02*
X7205896Y-15402174D01*
X7205896Y-15402174D02*
X7224944Y-15411698D01*
X7224944Y-15411698D02*
X7234467Y-15421222D01*
X7234467Y-15421222D02*
X7243991Y-15440269D01*
X7243991Y-15440269D02*
X7243991Y-15487888D01*
X7243991Y-15487888D02*
X7234467Y-15506936D01*
X7234467Y-15506936D02*
X7224944Y-15516460D01*
X7224944Y-15516460D02*
X7205896Y-15525984D01*
X7205896Y-15525984D02*
X7148753Y-15525984D01*
X7148753Y-15525984D02*
X7129706Y-15516460D01*
X7129706Y-15516460D02*
X7120182Y-15506936D01*
X7310658Y-15325984D02*
X7434467Y-15325984D01*
X7434467Y-15325984D02*
X7367801Y-15402174D01*
X7367801Y-15402174D02*
X7396372Y-15402174D01*
X7396372Y-15402174D02*
X7415420Y-15411698D01*
X7415420Y-15411698D02*
X7424944Y-15421222D01*
X7424944Y-15421222D02*
X7434467Y-15440269D01*
X7434467Y-15440269D02*
X7434467Y-15487888D01*
X7434467Y-15487888D02*
X7424944Y-15506936D01*
X7424944Y-15506936D02*
X7415420Y-15516460D01*
X7415420Y-15516460D02*
X7396372Y-15525984D01*
X7396372Y-15525984D02*
X7339229Y-15525984D01*
X7339229Y-15525984D02*
X7320182Y-15516460D01*
X7320182Y-15516460D02*
X7310658Y-15506936D01*
X7615420Y-15325984D02*
X7520182Y-15325984D01*
X7520182Y-15325984D02*
X7510658Y-15421222D01*
X7510658Y-15421222D02*
X7520182Y-15411698D01*
X7520182Y-15411698D02*
X7539229Y-15402174D01*
X7539229Y-15402174D02*
X7586848Y-15402174D01*
X7586848Y-15402174D02*
X7605896Y-15411698D01*
X7605896Y-15411698D02*
X7615420Y-15421222D01*
X7615420Y-15421222D02*
X7624944Y-15440269D01*
X7624944Y-15440269D02*
X7624944Y-15487888D01*
X7624944Y-15487888D02*
X7615420Y-15506936D01*
X7615420Y-15506936D02*
X7605896Y-15516460D01*
X7605896Y-15516460D02*
X7586848Y-15525984D01*
X7586848Y-15525984D02*
X7539229Y-15525984D01*
X7539229Y-15525984D02*
X7520182Y-15516460D01*
X7520182Y-15516460D02*
X7510658Y-15506936D01*
X7701134Y-15325984D02*
X7701134Y-15364079D01*
X7777325Y-15325984D02*
X7777325Y-15364079D01*
X8072563Y-15602174D02*
X8063039Y-15592650D01*
X8063039Y-15592650D02*
X8043991Y-15564079D01*
X8043991Y-15564079D02*
X8034468Y-15545031D01*
X8034468Y-15545031D02*
X8024944Y-15516460D01*
X8024944Y-15516460D02*
X8015420Y-15468841D01*
X8015420Y-15468841D02*
X8015420Y-15430746D01*
X8015420Y-15430746D02*
X8024944Y-15383127D01*
X8024944Y-15383127D02*
X8034468Y-15354555D01*
X8034468Y-15354555D02*
X8043991Y-15335508D01*
X8043991Y-15335508D02*
X8063039Y-15306936D01*
X8063039Y-15306936D02*
X8072563Y-15297412D01*
X8139229Y-15345031D02*
X8148753Y-15335508D01*
X8148753Y-15335508D02*
X8167801Y-15325984D01*
X8167801Y-15325984D02*
X8215420Y-15325984D01*
X8215420Y-15325984D02*
X8234468Y-15335508D01*
X8234468Y-15335508D02*
X8243991Y-15345031D01*
X8243991Y-15345031D02*
X8253515Y-15364079D01*
X8253515Y-15364079D02*
X8253515Y-15383127D01*
X8253515Y-15383127D02*
X8243991Y-15411698D01*
X8243991Y-15411698D02*
X8129706Y-15525984D01*
X8129706Y-15525984D02*
X8253515Y-15525984D01*
X8491611Y-15525984D02*
X8491611Y-15325984D01*
X8577325Y-15525984D02*
X8577325Y-15421222D01*
X8577325Y-15421222D02*
X8567801Y-15402174D01*
X8567801Y-15402174D02*
X8548753Y-15392650D01*
X8548753Y-15392650D02*
X8520182Y-15392650D01*
X8520182Y-15392650D02*
X8501134Y-15402174D01*
X8501134Y-15402174D02*
X8491611Y-15411698D01*
X8701134Y-15525984D02*
X8682087Y-15516460D01*
X8682087Y-15516460D02*
X8672563Y-15506936D01*
X8672563Y-15506936D02*
X8663039Y-15487888D01*
X8663039Y-15487888D02*
X8663039Y-15430746D01*
X8663039Y-15430746D02*
X8672563Y-15411698D01*
X8672563Y-15411698D02*
X8682087Y-15402174D01*
X8682087Y-15402174D02*
X8701134Y-15392650D01*
X8701134Y-15392650D02*
X8729706Y-15392650D01*
X8729706Y-15392650D02*
X8748753Y-15402174D01*
X8748753Y-15402174D02*
X8758277Y-15411698D01*
X8758277Y-15411698D02*
X8767801Y-15430746D01*
X8767801Y-15430746D02*
X8767801Y-15487888D01*
X8767801Y-15487888D02*
X8758277Y-15506936D01*
X8758277Y-15506936D02*
X8748753Y-15516460D01*
X8748753Y-15516460D02*
X8729706Y-15525984D01*
X8729706Y-15525984D02*
X8701134Y-15525984D01*
X8882087Y-15525984D02*
X8863039Y-15516460D01*
X8863039Y-15516460D02*
X8853515Y-15497412D01*
X8853515Y-15497412D02*
X8853515Y-15325984D01*
X9034468Y-15516460D02*
X9015420Y-15525984D01*
X9015420Y-15525984D02*
X8977325Y-15525984D01*
X8977325Y-15525984D02*
X8958277Y-15516460D01*
X8958277Y-15516460D02*
X8948753Y-15497412D01*
X8948753Y-15497412D02*
X8948753Y-15421222D01*
X8948753Y-15421222D02*
X8958277Y-15402174D01*
X8958277Y-15402174D02*
X8977325Y-15392650D01*
X8977325Y-15392650D02*
X9015420Y-15392650D01*
X9015420Y-15392650D02*
X9034468Y-15402174D01*
X9034468Y-15402174D02*
X9043992Y-15421222D01*
X9043992Y-15421222D02*
X9043992Y-15440269D01*
X9043992Y-15440269D02*
X8948753Y-15459317D01*
X9120182Y-15516460D02*
X9139230Y-15525984D01*
X9139230Y-15525984D02*
X9177325Y-15525984D01*
X9177325Y-15525984D02*
X9196373Y-15516460D01*
X9196373Y-15516460D02*
X9205896Y-15497412D01*
X9205896Y-15497412D02*
X9205896Y-15487888D01*
X9205896Y-15487888D02*
X9196373Y-15468841D01*
X9196373Y-15468841D02*
X9177325Y-15459317D01*
X9177325Y-15459317D02*
X9148753Y-15459317D01*
X9148753Y-15459317D02*
X9129706Y-15449793D01*
X9129706Y-15449793D02*
X9120182Y-15430746D01*
X9120182Y-15430746D02*
X9120182Y-15421222D01*
X9120182Y-15421222D02*
X9129706Y-15402174D01*
X9129706Y-15402174D02*
X9148753Y-15392650D01*
X9148753Y-15392650D02*
X9177325Y-15392650D01*
X9177325Y-15392650D02*
X9196373Y-15402174D01*
X9272563Y-15602174D02*
X9282087Y-15592650D01*
X9282087Y-15592650D02*
X9301134Y-15564079D01*
X9301134Y-15564079D02*
X9310658Y-15545031D01*
X9310658Y-15545031D02*
X9320182Y-15516460D01*
X9320182Y-15516460D02*
X9329706Y-15468841D01*
X9329706Y-15468841D02*
X9329706Y-15430746D01*
X9329706Y-15430746D02*
X9320182Y-15383127D01*
X9320182Y-15383127D02*
X9310658Y-15354555D01*
X9310658Y-15354555D02*
X9301134Y-15335508D01*
X9301134Y-15335508D02*
X9282087Y-15306936D01*
X9282087Y-15306936D02*
X9272563Y-15297412D01*
D12*
X4452500Y-15743500D02*
X4497500Y-15698500D01*
X4452500Y-15653500D01*
X4407500Y-15698500D01*
X4452500Y-15743500D01*
D11*
X4796372Y-15589984D02*
X4815420Y-15589984D01*
X4815420Y-15589984D02*
X4834467Y-15599508D01*
X4834467Y-15599508D02*
X4843991Y-15609031D01*
X4843991Y-15609031D02*
X4853515Y-15628079D01*
X4853515Y-15628079D02*
X4863039Y-15666174D01*
X4863039Y-15666174D02*
X4863039Y-15713793D01*
X4863039Y-15713793D02*
X4853515Y-15751888D01*
X4853515Y-15751888D02*
X4843991Y-15770936D01*
X4843991Y-15770936D02*
X4834467Y-15780460D01*
X4834467Y-15780460D02*
X4815420Y-15789984D01*
X4815420Y-15789984D02*
X4796372Y-15789984D01*
X4796372Y-15789984D02*
X4777324Y-15780460D01*
X4777324Y-15780460D02*
X4767801Y-15770936D01*
X4767801Y-15770936D02*
X4758277Y-15751888D01*
X4758277Y-15751888D02*
X4748753Y-15713793D01*
X4748753Y-15713793D02*
X4748753Y-15666174D01*
X4748753Y-15666174D02*
X4758277Y-15628079D01*
X4758277Y-15628079D02*
X4767801Y-15609031D01*
X4767801Y-15609031D02*
X4777324Y-15599508D01*
X4777324Y-15599508D02*
X4796372Y-15589984D01*
X4948753Y-15770936D02*
X4958277Y-15780460D01*
X4958277Y-15780460D02*
X4948753Y-15789984D01*
X4948753Y-15789984D02*
X4939229Y-15780460D01*
X4939229Y-15780460D02*
X4948753Y-15770936D01*
X4948753Y-15770936D02*
X4948753Y-15789984D01*
X5053515Y-15789984D02*
X5091610Y-15789984D01*
X5091610Y-15789984D02*
X5110658Y-15780460D01*
X5110658Y-15780460D02*
X5120182Y-15770936D01*
X5120182Y-15770936D02*
X5139229Y-15742365D01*
X5139229Y-15742365D02*
X5148753Y-15704269D01*
X5148753Y-15704269D02*
X5148753Y-15628079D01*
X5148753Y-15628079D02*
X5139229Y-15609031D01*
X5139229Y-15609031D02*
X5129705Y-15599508D01*
X5129705Y-15599508D02*
X5110658Y-15589984D01*
X5110658Y-15589984D02*
X5072563Y-15589984D01*
X5072563Y-15589984D02*
X5053515Y-15599508D01*
X5053515Y-15599508D02*
X5043991Y-15609031D01*
X5043991Y-15609031D02*
X5034467Y-15628079D01*
X5034467Y-15628079D02*
X5034467Y-15675698D01*
X5034467Y-15675698D02*
X5043991Y-15694746D01*
X5043991Y-15694746D02*
X5053515Y-15704269D01*
X5053515Y-15704269D02*
X5072563Y-15713793D01*
X5072563Y-15713793D02*
X5110658Y-15713793D01*
X5110658Y-15713793D02*
X5129705Y-15704269D01*
X5129705Y-15704269D02*
X5139229Y-15694746D01*
X5139229Y-15694746D02*
X5148753Y-15675698D01*
X5272563Y-15589984D02*
X5291610Y-15589984D01*
X5291610Y-15589984D02*
X5310658Y-15599508D01*
X5310658Y-15599508D02*
X5320182Y-15609031D01*
X5320182Y-15609031D02*
X5329705Y-15628079D01*
X5329705Y-15628079D02*
X5339229Y-15666174D01*
X5339229Y-15666174D02*
X5339229Y-15713793D01*
X5339229Y-15713793D02*
X5329705Y-15751888D01*
X5329705Y-15751888D02*
X5320182Y-15770936D01*
X5320182Y-15770936D02*
X5310658Y-15780460D01*
X5310658Y-15780460D02*
X5291610Y-15789984D01*
X5291610Y-15789984D02*
X5272563Y-15789984D01*
X5272563Y-15789984D02*
X5253515Y-15780460D01*
X5253515Y-15780460D02*
X5243991Y-15770936D01*
X5243991Y-15770936D02*
X5234467Y-15751888D01*
X5234467Y-15751888D02*
X5224944Y-15713793D01*
X5224944Y-15713793D02*
X5224944Y-15666174D01*
X5224944Y-15666174D02*
X5234467Y-15628079D01*
X5234467Y-15628079D02*
X5243991Y-15609031D01*
X5243991Y-15609031D02*
X5253515Y-15599508D01*
X5253515Y-15599508D02*
X5272563Y-15589984D01*
X5463039Y-15589984D02*
X5482086Y-15589984D01*
X5482086Y-15589984D02*
X5501134Y-15599508D01*
X5501134Y-15599508D02*
X5510658Y-15609031D01*
X5510658Y-15609031D02*
X5520182Y-15628079D01*
X5520182Y-15628079D02*
X5529705Y-15666174D01*
X5529705Y-15666174D02*
X5529705Y-15713793D01*
X5529705Y-15713793D02*
X5520182Y-15751888D01*
X5520182Y-15751888D02*
X5510658Y-15770936D01*
X5510658Y-15770936D02*
X5501134Y-15780460D01*
X5501134Y-15780460D02*
X5482086Y-15789984D01*
X5482086Y-15789984D02*
X5463039Y-15789984D01*
X5463039Y-15789984D02*
X5443991Y-15780460D01*
X5443991Y-15780460D02*
X5434467Y-15770936D01*
X5434467Y-15770936D02*
X5424944Y-15751888D01*
X5424944Y-15751888D02*
X5415420Y-15713793D01*
X5415420Y-15713793D02*
X5415420Y-15666174D01*
X5415420Y-15666174D02*
X5424944Y-15628079D01*
X5424944Y-15628079D02*
X5434467Y-15609031D01*
X5434467Y-15609031D02*
X5443991Y-15599508D01*
X5443991Y-15599508D02*
X5463039Y-15589984D01*
X5615420Y-15789984D02*
X5615420Y-15656650D01*
X5615420Y-15675698D02*
X5624943Y-15666174D01*
X5624943Y-15666174D02*
X5643991Y-15656650D01*
X5643991Y-15656650D02*
X5672563Y-15656650D01*
X5672563Y-15656650D02*
X5691610Y-15666174D01*
X5691610Y-15666174D02*
X5701134Y-15685222D01*
X5701134Y-15685222D02*
X5701134Y-15789984D01*
X5701134Y-15685222D02*
X5710658Y-15666174D01*
X5710658Y-15666174D02*
X5729705Y-15656650D01*
X5729705Y-15656650D02*
X5758277Y-15656650D01*
X5758277Y-15656650D02*
X5777324Y-15666174D01*
X5777324Y-15666174D02*
X5786848Y-15685222D01*
X5786848Y-15685222D02*
X5786848Y-15789984D01*
X5882086Y-15789984D02*
X5882086Y-15656650D01*
X5882086Y-15675698D02*
X5891610Y-15666174D01*
X5891610Y-15666174D02*
X5910658Y-15656650D01*
X5910658Y-15656650D02*
X5939229Y-15656650D01*
X5939229Y-15656650D02*
X5958277Y-15666174D01*
X5958277Y-15666174D02*
X5967801Y-15685222D01*
X5967801Y-15685222D02*
X5967801Y-15789984D01*
X5967801Y-15685222D02*
X5977324Y-15666174D01*
X5977324Y-15666174D02*
X5996372Y-15656650D01*
X5996372Y-15656650D02*
X6024943Y-15656650D01*
X6024943Y-15656650D02*
X6043991Y-15666174D01*
X6043991Y-15666174D02*
X6053515Y-15685222D01*
X6053515Y-15685222D02*
X6053515Y-15789984D01*
X6443991Y-15580460D02*
X6272563Y-15837603D01*
X6701134Y-15589984D02*
X6720182Y-15589984D01*
X6720182Y-15589984D02*
X6739229Y-15599508D01*
X6739229Y-15599508D02*
X6748753Y-15609031D01*
X6748753Y-15609031D02*
X6758277Y-15628079D01*
X6758277Y-15628079D02*
X6767801Y-15666174D01*
X6767801Y-15666174D02*
X6767801Y-15713793D01*
X6767801Y-15713793D02*
X6758277Y-15751888D01*
X6758277Y-15751888D02*
X6748753Y-15770936D01*
X6748753Y-15770936D02*
X6739229Y-15780460D01*
X6739229Y-15780460D02*
X6720182Y-15789984D01*
X6720182Y-15789984D02*
X6701134Y-15789984D01*
X6701134Y-15789984D02*
X6682086Y-15780460D01*
X6682086Y-15780460D02*
X6672563Y-15770936D01*
X6672563Y-15770936D02*
X6663039Y-15751888D01*
X6663039Y-15751888D02*
X6653515Y-15713793D01*
X6653515Y-15713793D02*
X6653515Y-15666174D01*
X6653515Y-15666174D02*
X6663039Y-15628079D01*
X6663039Y-15628079D02*
X6672563Y-15609031D01*
X6672563Y-15609031D02*
X6682086Y-15599508D01*
X6682086Y-15599508D02*
X6701134Y-15589984D01*
X6853515Y-15770936D02*
X6863039Y-15780460D01*
X6863039Y-15780460D02*
X6853515Y-15789984D01*
X6853515Y-15789984D02*
X6843991Y-15780460D01*
X6843991Y-15780460D02*
X6853515Y-15770936D01*
X6853515Y-15770936D02*
X6853515Y-15789984D01*
X6986848Y-15589984D02*
X7005896Y-15589984D01*
X7005896Y-15589984D02*
X7024944Y-15599508D01*
X7024944Y-15599508D02*
X7034467Y-15609031D01*
X7034467Y-15609031D02*
X7043991Y-15628079D01*
X7043991Y-15628079D02*
X7053515Y-15666174D01*
X7053515Y-15666174D02*
X7053515Y-15713793D01*
X7053515Y-15713793D02*
X7043991Y-15751888D01*
X7043991Y-15751888D02*
X7034467Y-15770936D01*
X7034467Y-15770936D02*
X7024944Y-15780460D01*
X7024944Y-15780460D02*
X7005896Y-15789984D01*
X7005896Y-15789984D02*
X6986848Y-15789984D01*
X6986848Y-15789984D02*
X6967801Y-15780460D01*
X6967801Y-15780460D02*
X6958277Y-15770936D01*
X6958277Y-15770936D02*
X6948753Y-15751888D01*
X6948753Y-15751888D02*
X6939229Y-15713793D01*
X6939229Y-15713793D02*
X6939229Y-15666174D01*
X6939229Y-15666174D02*
X6948753Y-15628079D01*
X6948753Y-15628079D02*
X6958277Y-15609031D01*
X6958277Y-15609031D02*
X6967801Y-15599508D01*
X6967801Y-15599508D02*
X6986848Y-15589984D01*
X7120182Y-15589984D02*
X7243991Y-15589984D01*
X7243991Y-15589984D02*
X7177325Y-15666174D01*
X7177325Y-15666174D02*
X7205896Y-15666174D01*
X7205896Y-15666174D02*
X7224944Y-15675698D01*
X7224944Y-15675698D02*
X7234467Y-15685222D01*
X7234467Y-15685222D02*
X7243991Y-15704269D01*
X7243991Y-15704269D02*
X7243991Y-15751888D01*
X7243991Y-15751888D02*
X7234467Y-15770936D01*
X7234467Y-15770936D02*
X7224944Y-15780460D01*
X7224944Y-15780460D02*
X7205896Y-15789984D01*
X7205896Y-15789984D02*
X7148753Y-15789984D01*
X7148753Y-15789984D02*
X7129706Y-15780460D01*
X7129706Y-15780460D02*
X7120182Y-15770936D01*
X7424944Y-15589984D02*
X7329706Y-15589984D01*
X7329706Y-15589984D02*
X7320182Y-15685222D01*
X7320182Y-15685222D02*
X7329706Y-15675698D01*
X7329706Y-15675698D02*
X7348753Y-15666174D01*
X7348753Y-15666174D02*
X7396372Y-15666174D01*
X7396372Y-15666174D02*
X7415420Y-15675698D01*
X7415420Y-15675698D02*
X7424944Y-15685222D01*
X7424944Y-15685222D02*
X7434467Y-15704269D01*
X7434467Y-15704269D02*
X7434467Y-15751888D01*
X7434467Y-15751888D02*
X7424944Y-15770936D01*
X7424944Y-15770936D02*
X7415420Y-15780460D01*
X7415420Y-15780460D02*
X7396372Y-15789984D01*
X7396372Y-15789984D02*
X7348753Y-15789984D01*
X7348753Y-15789984D02*
X7329706Y-15780460D01*
X7329706Y-15780460D02*
X7320182Y-15770936D01*
X7605896Y-15656650D02*
X7605896Y-15789984D01*
X7558277Y-15580460D02*
X7510658Y-15723317D01*
X7510658Y-15723317D02*
X7634467Y-15723317D01*
X7701134Y-15589984D02*
X7701134Y-15628079D01*
X7777325Y-15589984D02*
X7777325Y-15628079D01*
X8072563Y-15866174D02*
X8063039Y-15856650D01*
X8063039Y-15856650D02*
X8043991Y-15828079D01*
X8043991Y-15828079D02*
X8034468Y-15809031D01*
X8034468Y-15809031D02*
X8024944Y-15780460D01*
X8024944Y-15780460D02*
X8015420Y-15732841D01*
X8015420Y-15732841D02*
X8015420Y-15694746D01*
X8015420Y-15694746D02*
X8024944Y-15647127D01*
X8024944Y-15647127D02*
X8034468Y-15618555D01*
X8034468Y-15618555D02*
X8043991Y-15599508D01*
X8043991Y-15599508D02*
X8063039Y-15570936D01*
X8063039Y-15570936D02*
X8072563Y-15561412D01*
X8253515Y-15789984D02*
X8139229Y-15789984D01*
X8196372Y-15789984D02*
X8196372Y-15589984D01*
X8196372Y-15589984D02*
X8177325Y-15618555D01*
X8177325Y-15618555D02*
X8158277Y-15637603D01*
X8158277Y-15637603D02*
X8139229Y-15647127D01*
X8377325Y-15589984D02*
X8396372Y-15589984D01*
X8396372Y-15589984D02*
X8415420Y-15599508D01*
X8415420Y-15599508D02*
X8424944Y-15609031D01*
X8424944Y-15609031D02*
X8434468Y-15628079D01*
X8434468Y-15628079D02*
X8443991Y-15666174D01*
X8443991Y-15666174D02*
X8443991Y-15713793D01*
X8443991Y-15713793D02*
X8434468Y-15751888D01*
X8434468Y-15751888D02*
X8424944Y-15770936D01*
X8424944Y-15770936D02*
X8415420Y-15780460D01*
X8415420Y-15780460D02*
X8396372Y-15789984D01*
X8396372Y-15789984D02*
X8377325Y-15789984D01*
X8377325Y-15789984D02*
X8358277Y-15780460D01*
X8358277Y-15780460D02*
X8348753Y-15770936D01*
X8348753Y-15770936D02*
X8339229Y-15751888D01*
X8339229Y-15751888D02*
X8329706Y-15713793D01*
X8329706Y-15713793D02*
X8329706Y-15666174D01*
X8329706Y-15666174D02*
X8339229Y-15628079D01*
X8339229Y-15628079D02*
X8348753Y-15609031D01*
X8348753Y-15609031D02*
X8358277Y-15599508D01*
X8358277Y-15599508D02*
X8377325Y-15589984D01*
X8682087Y-15789984D02*
X8682087Y-15589984D01*
X8767801Y-15789984D02*
X8767801Y-15685222D01*
X8767801Y-15685222D02*
X8758277Y-15666174D01*
X8758277Y-15666174D02*
X8739230Y-15656650D01*
X8739230Y-15656650D02*
X8710658Y-15656650D01*
X8710658Y-15656650D02*
X8691611Y-15666174D01*
X8691611Y-15666174D02*
X8682087Y-15675698D01*
X8891611Y-15789984D02*
X8872563Y-15780460D01*
X8872563Y-15780460D02*
X8863039Y-15770936D01*
X8863039Y-15770936D02*
X8853515Y-15751888D01*
X8853515Y-15751888D02*
X8853515Y-15694746D01*
X8853515Y-15694746D02*
X8863039Y-15675698D01*
X8863039Y-15675698D02*
X8872563Y-15666174D01*
X8872563Y-15666174D02*
X8891611Y-15656650D01*
X8891611Y-15656650D02*
X8920182Y-15656650D01*
X8920182Y-15656650D02*
X8939230Y-15666174D01*
X8939230Y-15666174D02*
X8948753Y-15675698D01*
X8948753Y-15675698D02*
X8958277Y-15694746D01*
X8958277Y-15694746D02*
X8958277Y-15751888D01*
X8958277Y-15751888D02*
X8948753Y-15770936D01*
X8948753Y-15770936D02*
X8939230Y-15780460D01*
X8939230Y-15780460D02*
X8920182Y-15789984D01*
X8920182Y-15789984D02*
X8891611Y-15789984D01*
X9072563Y-15789984D02*
X9053515Y-15780460D01*
X9053515Y-15780460D02*
X9043992Y-15761412D01*
X9043992Y-15761412D02*
X9043992Y-15589984D01*
X9224944Y-15780460D02*
X9205896Y-15789984D01*
X9205896Y-15789984D02*
X9167801Y-15789984D01*
X9167801Y-15789984D02*
X9148753Y-15780460D01*
X9148753Y-15780460D02*
X9139230Y-15761412D01*
X9139230Y-15761412D02*
X9139230Y-15685222D01*
X9139230Y-15685222D02*
X9148753Y-15666174D01*
X9148753Y-15666174D02*
X9167801Y-15656650D01*
X9167801Y-15656650D02*
X9205896Y-15656650D01*
X9205896Y-15656650D02*
X9224944Y-15666174D01*
X9224944Y-15666174D02*
X9234468Y-15685222D01*
X9234468Y-15685222D02*
X9234468Y-15704269D01*
X9234468Y-15704269D02*
X9139230Y-15723317D01*
X9310658Y-15780460D02*
X9329706Y-15789984D01*
X9329706Y-15789984D02*
X9367801Y-15789984D01*
X9367801Y-15789984D02*
X9386849Y-15780460D01*
X9386849Y-15780460D02*
X9396373Y-15761412D01*
X9396373Y-15761412D02*
X9396373Y-15751888D01*
X9396373Y-15751888D02*
X9386849Y-15732841D01*
X9386849Y-15732841D02*
X9367801Y-15723317D01*
X9367801Y-15723317D02*
X9339230Y-15723317D01*
X9339230Y-15723317D02*
X9320182Y-15713793D01*
X9320182Y-15713793D02*
X9310658Y-15694746D01*
X9310658Y-15694746D02*
X9310658Y-15685222D01*
X9310658Y-15685222D02*
X9320182Y-15666174D01*
X9320182Y-15666174D02*
X9339230Y-15656650D01*
X9339230Y-15656650D02*
X9367801Y-15656650D01*
X9367801Y-15656650D02*
X9386849Y-15666174D01*
X9463039Y-15866174D02*
X9472563Y-15856650D01*
X9472563Y-15856650D02*
X9491611Y-15828079D01*
X9491611Y-15828079D02*
X9501134Y-15809031D01*
X9501134Y-15809031D02*
X9510658Y-15780460D01*
X9510658Y-15780460D02*
X9520182Y-15732841D01*
X9520182Y-15732841D02*
X9520182Y-15694746D01*
X9520182Y-15694746D02*
X9510658Y-15647127D01*
X9510658Y-15647127D02*
X9501134Y-15618555D01*
X9501134Y-15618555D02*
X9491611Y-15599508D01*
X9491611Y-15599508D02*
X9472563Y-15570936D01*
X9472563Y-15570936D02*
X9463039Y-15561412D01*
M02*
