M48
; DRILL file {KiCad 9.0.0} date 2025-04-26T22:51:30-0400
; FORMAT={-:-/ absolute / metric / decimal}
; #@! TF.CreationDate,2025-04-26T22:51:30-04:00
; #@! TF.GenerationSoftware,Kicad,Pcbnew,9.0.0
; #@! TF.FileFunction,Plated,1,2,PTH
FMAT,2
METRIC
; #@! TA.AperFunction,Plated,PTH,ViaDrill
T1C0.300
; #@! TA.AperFunction,Plated,PTH,ComponentDrill
T2C0.750
; #@! TA.AperFunction,Plated,PTH,ComponentDrill
T3C0.800
; #@! TA.AperFunction,Plated,PTH,ComponentDrill
T4C0.850
; #@! TA.AperFunction,Plated,PTH,ComponentDrill
T5C0.900
%
G90
G05
T1
X82.13Y-103.375
X103.756Y-128.922
X117.871Y-91.623
X123.828Y-76.933
T2
X120.0Y-90.0
X121.27Y-90.0
X122.54Y-90.0
T3
X55.0Y-80.0
X65.16Y-80.0
X74.84Y-115.0
X79.84Y-70.0
X85.0Y-115.0
X90.0Y-70.0
X98.3Y-80.0
X101.7Y-80.0
X109.84Y-70.0
X115.0Y-115.0
X120.0Y-70.0
X125.16Y-115.0
X134.84Y-80.0
X145.0Y-80.0
T4
X89.705Y-95.0
X110.205Y-95.0
T5
X65.0Y-65.0
X65.0Y-100.0
X67.54Y-65.0
X67.54Y-100.0
X100.0Y-130.0
X102.54Y-130.0
X132.46Y-65.0
X135.0Y-65.0
X135.0Y-100.0
X137.54Y-100.0
M30
