%TF.GenerationSoftware,KiCad,Pcbnew,9.0.0*%
%TF.CreationDate,2025-04-26T22:51:30-04:00*%
%TF.ProjectId,mothers_day_necklace,6d6f7468-6572-4735-9f64-61795f6e6563,rev?*%
%TF.SameCoordinates,Original*%
%TF.FileFunction,Drillmap*%
%TF.FilePolarity,Positive*%
%FSLAX45Y45*%
G04 Gerber Fmt 4.5, Leading zero omitted, Abs format (unit mm)*
G04 Created by KiCad (PCBNEW 9.0.0) date 2025-04-26 22:51:30*
%MOMM*%
%LPD*%
G01*
G04 APERTURE LIST*
%ADD10C,0.050000*%
%ADD11C,0.200000*%
%ADD12C,0.210000*%
G04 APERTURE END LIST*
D10*
X15500000Y-7500000D02*
X14500000Y-10000000D01*
X12500000Y-12000000D01*
X10000000Y-14000000D01*
X7500000Y-12000000D01*
X5500000Y-10000000D01*
X4500000Y-7500000D01*
X6000000Y-5500000D01*
X8000000Y-6000000D01*
X10000000Y-6750000D01*
X12000000Y-6000000D01*
X14000000Y-5500000D01*
X15500000Y-7500000D01*
D11*
D12*
X9895000Y-7095000D02*
X10105000Y-7305000D01*
X10105000Y-7095000D02*
X9895000Y-7305000D01*
D11*
X4758277Y-14313984D02*
X4758277Y-14113984D01*
X4758277Y-14113984D02*
X4805896Y-14113984D01*
X4805896Y-14113984D02*
X4834467Y-14123508D01*
X4834467Y-14123508D02*
X4853515Y-14142555D01*
X4853515Y-14142555D02*
X4863039Y-14161603D01*
X4863039Y-14161603D02*
X4872563Y-14199698D01*
X4872563Y-14199698D02*
X4872563Y-14228269D01*
X4872563Y-14228269D02*
X4863039Y-14266365D01*
X4863039Y-14266365D02*
X4853515Y-14285412D01*
X4853515Y-14285412D02*
X4834467Y-14304460D01*
X4834467Y-14304460D02*
X4805896Y-14313984D01*
X4805896Y-14313984D02*
X4758277Y-14313984D01*
X4958277Y-14313984D02*
X4958277Y-14180650D01*
X4958277Y-14218746D02*
X4967801Y-14199698D01*
X4967801Y-14199698D02*
X4977324Y-14190174D01*
X4977324Y-14190174D02*
X4996372Y-14180650D01*
X4996372Y-14180650D02*
X5015420Y-14180650D01*
X5082086Y-14313984D02*
X5082086Y-14180650D01*
X5082086Y-14113984D02*
X5072563Y-14123508D01*
X5072563Y-14123508D02*
X5082086Y-14133031D01*
X5082086Y-14133031D02*
X5091610Y-14123508D01*
X5091610Y-14123508D02*
X5082086Y-14113984D01*
X5082086Y-14113984D02*
X5082086Y-14133031D01*
X5205896Y-14313984D02*
X5186848Y-14304460D01*
X5186848Y-14304460D02*
X5177324Y-14285412D01*
X5177324Y-14285412D02*
X5177324Y-14113984D01*
X5310658Y-14313984D02*
X5291610Y-14304460D01*
X5291610Y-14304460D02*
X5282086Y-14285412D01*
X5282086Y-14285412D02*
X5282086Y-14113984D01*
X5539229Y-14313984D02*
X5539229Y-14113984D01*
X5539229Y-14113984D02*
X5605896Y-14256841D01*
X5605896Y-14256841D02*
X5672562Y-14113984D01*
X5672562Y-14113984D02*
X5672562Y-14313984D01*
X5853515Y-14313984D02*
X5853515Y-14209222D01*
X5853515Y-14209222D02*
X5843991Y-14190174D01*
X5843991Y-14190174D02*
X5824943Y-14180650D01*
X5824943Y-14180650D02*
X5786848Y-14180650D01*
X5786848Y-14180650D02*
X5767801Y-14190174D01*
X5853515Y-14304460D02*
X5834467Y-14313984D01*
X5834467Y-14313984D02*
X5786848Y-14313984D01*
X5786848Y-14313984D02*
X5767801Y-14304460D01*
X5767801Y-14304460D02*
X5758277Y-14285412D01*
X5758277Y-14285412D02*
X5758277Y-14266365D01*
X5758277Y-14266365D02*
X5767801Y-14247317D01*
X5767801Y-14247317D02*
X5786848Y-14237793D01*
X5786848Y-14237793D02*
X5834467Y-14237793D01*
X5834467Y-14237793D02*
X5853515Y-14228269D01*
X5948753Y-14180650D02*
X5948753Y-14380650D01*
X5948753Y-14190174D02*
X5967801Y-14180650D01*
X5967801Y-14180650D02*
X6005896Y-14180650D01*
X6005896Y-14180650D02*
X6024943Y-14190174D01*
X6024943Y-14190174D02*
X6034467Y-14199698D01*
X6034467Y-14199698D02*
X6043991Y-14218746D01*
X6043991Y-14218746D02*
X6043991Y-14275888D01*
X6043991Y-14275888D02*
X6034467Y-14294936D01*
X6034467Y-14294936D02*
X6024943Y-14304460D01*
X6024943Y-14304460D02*
X6005896Y-14313984D01*
X6005896Y-14313984D02*
X5967801Y-14313984D01*
X5967801Y-14313984D02*
X5948753Y-14304460D01*
X6129705Y-14294936D02*
X6139229Y-14304460D01*
X6139229Y-14304460D02*
X6129705Y-14313984D01*
X6129705Y-14313984D02*
X6120182Y-14304460D01*
X6120182Y-14304460D02*
X6129705Y-14294936D01*
X6129705Y-14294936D02*
X6129705Y-14313984D01*
X6129705Y-14190174D02*
X6139229Y-14199698D01*
X6139229Y-14199698D02*
X6129705Y-14209222D01*
X6129705Y-14209222D02*
X6120182Y-14199698D01*
X6120182Y-14199698D02*
X6129705Y-14190174D01*
X6129705Y-14190174D02*
X6129705Y-14209222D01*
X4297500Y-14542500D02*
X4497500Y-14742500D01*
X4497500Y-14542500D02*
X4297500Y-14742500D01*
X4748753Y-14553031D02*
X4758277Y-14543508D01*
X4758277Y-14543508D02*
X4777324Y-14533984D01*
X4777324Y-14533984D02*
X4824944Y-14533984D01*
X4824944Y-14533984D02*
X4843991Y-14543508D01*
X4843991Y-14543508D02*
X4853515Y-14553031D01*
X4853515Y-14553031D02*
X4863039Y-14572079D01*
X4863039Y-14572079D02*
X4863039Y-14591127D01*
X4863039Y-14591127D02*
X4853515Y-14619698D01*
X4853515Y-14619698D02*
X4739229Y-14733984D01*
X4739229Y-14733984D02*
X4863039Y-14733984D01*
X4948753Y-14714936D02*
X4958277Y-14724460D01*
X4958277Y-14724460D02*
X4948753Y-14733984D01*
X4948753Y-14733984D02*
X4939229Y-14724460D01*
X4939229Y-14724460D02*
X4948753Y-14714936D01*
X4948753Y-14714936D02*
X4948753Y-14733984D01*
X5148753Y-14733984D02*
X5034467Y-14733984D01*
X5091610Y-14733984D02*
X5091610Y-14533984D01*
X5091610Y-14533984D02*
X5072563Y-14562555D01*
X5072563Y-14562555D02*
X5053515Y-14581603D01*
X5053515Y-14581603D02*
X5034467Y-14591127D01*
X5272563Y-14533984D02*
X5291610Y-14533984D01*
X5291610Y-14533984D02*
X5310658Y-14543508D01*
X5310658Y-14543508D02*
X5320182Y-14553031D01*
X5320182Y-14553031D02*
X5329705Y-14572079D01*
X5329705Y-14572079D02*
X5339229Y-14610174D01*
X5339229Y-14610174D02*
X5339229Y-14657793D01*
X5339229Y-14657793D02*
X5329705Y-14695888D01*
X5329705Y-14695888D02*
X5320182Y-14714936D01*
X5320182Y-14714936D02*
X5310658Y-14724460D01*
X5310658Y-14724460D02*
X5291610Y-14733984D01*
X5291610Y-14733984D02*
X5272563Y-14733984D01*
X5272563Y-14733984D02*
X5253515Y-14724460D01*
X5253515Y-14724460D02*
X5243991Y-14714936D01*
X5243991Y-14714936D02*
X5234467Y-14695888D01*
X5234467Y-14695888D02*
X5224944Y-14657793D01*
X5224944Y-14657793D02*
X5224944Y-14610174D01*
X5224944Y-14610174D02*
X5234467Y-14572079D01*
X5234467Y-14572079D02*
X5243991Y-14553031D01*
X5243991Y-14553031D02*
X5253515Y-14543508D01*
X5253515Y-14543508D02*
X5272563Y-14533984D01*
X5463039Y-14533984D02*
X5482086Y-14533984D01*
X5482086Y-14533984D02*
X5501134Y-14543508D01*
X5501134Y-14543508D02*
X5510658Y-14553031D01*
X5510658Y-14553031D02*
X5520182Y-14572079D01*
X5520182Y-14572079D02*
X5529705Y-14610174D01*
X5529705Y-14610174D02*
X5529705Y-14657793D01*
X5529705Y-14657793D02*
X5520182Y-14695888D01*
X5520182Y-14695888D02*
X5510658Y-14714936D01*
X5510658Y-14714936D02*
X5501134Y-14724460D01*
X5501134Y-14724460D02*
X5482086Y-14733984D01*
X5482086Y-14733984D02*
X5463039Y-14733984D01*
X5463039Y-14733984D02*
X5443991Y-14724460D01*
X5443991Y-14724460D02*
X5434467Y-14714936D01*
X5434467Y-14714936D02*
X5424944Y-14695888D01*
X5424944Y-14695888D02*
X5415420Y-14657793D01*
X5415420Y-14657793D02*
X5415420Y-14610174D01*
X5415420Y-14610174D02*
X5424944Y-14572079D01*
X5424944Y-14572079D02*
X5434467Y-14553031D01*
X5434467Y-14553031D02*
X5443991Y-14543508D01*
X5443991Y-14543508D02*
X5463039Y-14533984D01*
X5615420Y-14733984D02*
X5615420Y-14600650D01*
X5615420Y-14619698D02*
X5624943Y-14610174D01*
X5624943Y-14610174D02*
X5643991Y-14600650D01*
X5643991Y-14600650D02*
X5672563Y-14600650D01*
X5672563Y-14600650D02*
X5691610Y-14610174D01*
X5691610Y-14610174D02*
X5701134Y-14629222D01*
X5701134Y-14629222D02*
X5701134Y-14733984D01*
X5701134Y-14629222D02*
X5710658Y-14610174D01*
X5710658Y-14610174D02*
X5729705Y-14600650D01*
X5729705Y-14600650D02*
X5758277Y-14600650D01*
X5758277Y-14600650D02*
X5777324Y-14610174D01*
X5777324Y-14610174D02*
X5786848Y-14629222D01*
X5786848Y-14629222D02*
X5786848Y-14733984D01*
X5882086Y-14733984D02*
X5882086Y-14600650D01*
X5882086Y-14619698D02*
X5891610Y-14610174D01*
X5891610Y-14610174D02*
X5910658Y-14600650D01*
X5910658Y-14600650D02*
X5939229Y-14600650D01*
X5939229Y-14600650D02*
X5958277Y-14610174D01*
X5958277Y-14610174D02*
X5967801Y-14629222D01*
X5967801Y-14629222D02*
X5967801Y-14733984D01*
X5967801Y-14629222D02*
X5977324Y-14610174D01*
X5977324Y-14610174D02*
X5996372Y-14600650D01*
X5996372Y-14600650D02*
X6024943Y-14600650D01*
X6024943Y-14600650D02*
X6043991Y-14610174D01*
X6043991Y-14610174D02*
X6053515Y-14629222D01*
X6053515Y-14629222D02*
X6053515Y-14733984D01*
X6443991Y-14524460D02*
X6272563Y-14781603D01*
X6701134Y-14533984D02*
X6720182Y-14533984D01*
X6720182Y-14533984D02*
X6739229Y-14543508D01*
X6739229Y-14543508D02*
X6748753Y-14553031D01*
X6748753Y-14553031D02*
X6758277Y-14572079D01*
X6758277Y-14572079D02*
X6767801Y-14610174D01*
X6767801Y-14610174D02*
X6767801Y-14657793D01*
X6767801Y-14657793D02*
X6758277Y-14695888D01*
X6758277Y-14695888D02*
X6748753Y-14714936D01*
X6748753Y-14714936D02*
X6739229Y-14724460D01*
X6739229Y-14724460D02*
X6720182Y-14733984D01*
X6720182Y-14733984D02*
X6701134Y-14733984D01*
X6701134Y-14733984D02*
X6682086Y-14724460D01*
X6682086Y-14724460D02*
X6672563Y-14714936D01*
X6672563Y-14714936D02*
X6663039Y-14695888D01*
X6663039Y-14695888D02*
X6653515Y-14657793D01*
X6653515Y-14657793D02*
X6653515Y-14610174D01*
X6653515Y-14610174D02*
X6663039Y-14572079D01*
X6663039Y-14572079D02*
X6672563Y-14553031D01*
X6672563Y-14553031D02*
X6682086Y-14543508D01*
X6682086Y-14543508D02*
X6701134Y-14533984D01*
X6853515Y-14714936D02*
X6863039Y-14724460D01*
X6863039Y-14724460D02*
X6853515Y-14733984D01*
X6853515Y-14733984D02*
X6843991Y-14724460D01*
X6843991Y-14724460D02*
X6853515Y-14714936D01*
X6853515Y-14714936D02*
X6853515Y-14733984D01*
X6986848Y-14533984D02*
X7005896Y-14533984D01*
X7005896Y-14533984D02*
X7024944Y-14543508D01*
X7024944Y-14543508D02*
X7034467Y-14553031D01*
X7034467Y-14553031D02*
X7043991Y-14572079D01*
X7043991Y-14572079D02*
X7053515Y-14610174D01*
X7053515Y-14610174D02*
X7053515Y-14657793D01*
X7053515Y-14657793D02*
X7043991Y-14695888D01*
X7043991Y-14695888D02*
X7034467Y-14714936D01*
X7034467Y-14714936D02*
X7024944Y-14724460D01*
X7024944Y-14724460D02*
X7005896Y-14733984D01*
X7005896Y-14733984D02*
X6986848Y-14733984D01*
X6986848Y-14733984D02*
X6967801Y-14724460D01*
X6967801Y-14724460D02*
X6958277Y-14714936D01*
X6958277Y-14714936D02*
X6948753Y-14695888D01*
X6948753Y-14695888D02*
X6939229Y-14657793D01*
X6939229Y-14657793D02*
X6939229Y-14610174D01*
X6939229Y-14610174D02*
X6948753Y-14572079D01*
X6948753Y-14572079D02*
X6958277Y-14553031D01*
X6958277Y-14553031D02*
X6967801Y-14543508D01*
X6967801Y-14543508D02*
X6986848Y-14533984D01*
X7167801Y-14619698D02*
X7148753Y-14610174D01*
X7148753Y-14610174D02*
X7139229Y-14600650D01*
X7139229Y-14600650D02*
X7129706Y-14581603D01*
X7129706Y-14581603D02*
X7129706Y-14572079D01*
X7129706Y-14572079D02*
X7139229Y-14553031D01*
X7139229Y-14553031D02*
X7148753Y-14543508D01*
X7148753Y-14543508D02*
X7167801Y-14533984D01*
X7167801Y-14533984D02*
X7205896Y-14533984D01*
X7205896Y-14533984D02*
X7224944Y-14543508D01*
X7224944Y-14543508D02*
X7234467Y-14553031D01*
X7234467Y-14553031D02*
X7243991Y-14572079D01*
X7243991Y-14572079D02*
X7243991Y-14581603D01*
X7243991Y-14581603D02*
X7234467Y-14600650D01*
X7234467Y-14600650D02*
X7224944Y-14610174D01*
X7224944Y-14610174D02*
X7205896Y-14619698D01*
X7205896Y-14619698D02*
X7167801Y-14619698D01*
X7167801Y-14619698D02*
X7148753Y-14629222D01*
X7148753Y-14629222D02*
X7139229Y-14638746D01*
X7139229Y-14638746D02*
X7129706Y-14657793D01*
X7129706Y-14657793D02*
X7129706Y-14695888D01*
X7129706Y-14695888D02*
X7139229Y-14714936D01*
X7139229Y-14714936D02*
X7148753Y-14724460D01*
X7148753Y-14724460D02*
X7167801Y-14733984D01*
X7167801Y-14733984D02*
X7205896Y-14733984D01*
X7205896Y-14733984D02*
X7224944Y-14724460D01*
X7224944Y-14724460D02*
X7234467Y-14714936D01*
X7234467Y-14714936D02*
X7243991Y-14695888D01*
X7243991Y-14695888D02*
X7243991Y-14657793D01*
X7243991Y-14657793D02*
X7234467Y-14638746D01*
X7234467Y-14638746D02*
X7224944Y-14629222D01*
X7224944Y-14629222D02*
X7205896Y-14619698D01*
X7320182Y-14553031D02*
X7329706Y-14543508D01*
X7329706Y-14543508D02*
X7348753Y-14533984D01*
X7348753Y-14533984D02*
X7396372Y-14533984D01*
X7396372Y-14533984D02*
X7415420Y-14543508D01*
X7415420Y-14543508D02*
X7424944Y-14553031D01*
X7424944Y-14553031D02*
X7434467Y-14572079D01*
X7434467Y-14572079D02*
X7434467Y-14591127D01*
X7434467Y-14591127D02*
X7424944Y-14619698D01*
X7424944Y-14619698D02*
X7310658Y-14733984D01*
X7310658Y-14733984D02*
X7434467Y-14733984D01*
X7501134Y-14533984D02*
X7634467Y-14533984D01*
X7634467Y-14533984D02*
X7548753Y-14733984D01*
X7701134Y-14533984D02*
X7701134Y-14572079D01*
X7777325Y-14533984D02*
X7777325Y-14572079D01*
X8072563Y-14810174D02*
X8063039Y-14800650D01*
X8063039Y-14800650D02*
X8043991Y-14772079D01*
X8043991Y-14772079D02*
X8034468Y-14753031D01*
X8034468Y-14753031D02*
X8024944Y-14724460D01*
X8024944Y-14724460D02*
X8015420Y-14676841D01*
X8015420Y-14676841D02*
X8015420Y-14638746D01*
X8015420Y-14638746D02*
X8024944Y-14591127D01*
X8024944Y-14591127D02*
X8034468Y-14562555D01*
X8034468Y-14562555D02*
X8043991Y-14543508D01*
X8043991Y-14543508D02*
X8063039Y-14514936D01*
X8063039Y-14514936D02*
X8072563Y-14505412D01*
X8253515Y-14733984D02*
X8139229Y-14733984D01*
X8196372Y-14733984D02*
X8196372Y-14533984D01*
X8196372Y-14533984D02*
X8177325Y-14562555D01*
X8177325Y-14562555D02*
X8158277Y-14581603D01*
X8158277Y-14581603D02*
X8139229Y-14591127D01*
X8491611Y-14733984D02*
X8491611Y-14533984D01*
X8577325Y-14733984D02*
X8577325Y-14629222D01*
X8577325Y-14629222D02*
X8567801Y-14610174D01*
X8567801Y-14610174D02*
X8548753Y-14600650D01*
X8548753Y-14600650D02*
X8520182Y-14600650D01*
X8520182Y-14600650D02*
X8501134Y-14610174D01*
X8501134Y-14610174D02*
X8491611Y-14619698D01*
X8701134Y-14733984D02*
X8682087Y-14724460D01*
X8682087Y-14724460D02*
X8672563Y-14714936D01*
X8672563Y-14714936D02*
X8663039Y-14695888D01*
X8663039Y-14695888D02*
X8663039Y-14638746D01*
X8663039Y-14638746D02*
X8672563Y-14619698D01*
X8672563Y-14619698D02*
X8682087Y-14610174D01*
X8682087Y-14610174D02*
X8701134Y-14600650D01*
X8701134Y-14600650D02*
X8729706Y-14600650D01*
X8729706Y-14600650D02*
X8748753Y-14610174D01*
X8748753Y-14610174D02*
X8758277Y-14619698D01*
X8758277Y-14619698D02*
X8767801Y-14638746D01*
X8767801Y-14638746D02*
X8767801Y-14695888D01*
X8767801Y-14695888D02*
X8758277Y-14714936D01*
X8758277Y-14714936D02*
X8748753Y-14724460D01*
X8748753Y-14724460D02*
X8729706Y-14733984D01*
X8729706Y-14733984D02*
X8701134Y-14733984D01*
X8882087Y-14733984D02*
X8863039Y-14724460D01*
X8863039Y-14724460D02*
X8853515Y-14705412D01*
X8853515Y-14705412D02*
X8853515Y-14533984D01*
X9034468Y-14724460D02*
X9015420Y-14733984D01*
X9015420Y-14733984D02*
X8977325Y-14733984D01*
X8977325Y-14733984D02*
X8958277Y-14724460D01*
X8958277Y-14724460D02*
X8948753Y-14705412D01*
X8948753Y-14705412D02*
X8948753Y-14629222D01*
X8948753Y-14629222D02*
X8958277Y-14610174D01*
X8958277Y-14610174D02*
X8977325Y-14600650D01*
X8977325Y-14600650D02*
X9015420Y-14600650D01*
X9015420Y-14600650D02*
X9034468Y-14610174D01*
X9034468Y-14610174D02*
X9043992Y-14629222D01*
X9043992Y-14629222D02*
X9043992Y-14648269D01*
X9043992Y-14648269D02*
X8948753Y-14667317D01*
X9110658Y-14810174D02*
X9120182Y-14800650D01*
X9120182Y-14800650D02*
X9139230Y-14772079D01*
X9139230Y-14772079D02*
X9148753Y-14753031D01*
X9148753Y-14753031D02*
X9158277Y-14724460D01*
X9158277Y-14724460D02*
X9167801Y-14676841D01*
X9167801Y-14676841D02*
X9167801Y-14638746D01*
X9167801Y-14638746D02*
X9158277Y-14591127D01*
X9158277Y-14591127D02*
X9148753Y-14562555D01*
X9148753Y-14562555D02*
X9139230Y-14543508D01*
X9139230Y-14543508D02*
X9120182Y-14514936D01*
X9120182Y-14514936D02*
X9110658Y-14505412D01*
X9472563Y-14810174D02*
X9463039Y-14800650D01*
X9463039Y-14800650D02*
X9443992Y-14772079D01*
X9443992Y-14772079D02*
X9434468Y-14753031D01*
X9434468Y-14753031D02*
X9424944Y-14724460D01*
X9424944Y-14724460D02*
X9415420Y-14676841D01*
X9415420Y-14676841D02*
X9415420Y-14638746D01*
X9415420Y-14638746D02*
X9424944Y-14591127D01*
X9424944Y-14591127D02*
X9434468Y-14562555D01*
X9434468Y-14562555D02*
X9443992Y-14543508D01*
X9443992Y-14543508D02*
X9463039Y-14514936D01*
X9463039Y-14514936D02*
X9472563Y-14505412D01*
X9548753Y-14600650D02*
X9548753Y-14733984D01*
X9548753Y-14619698D02*
X9558277Y-14610174D01*
X9558277Y-14610174D02*
X9577325Y-14600650D01*
X9577325Y-14600650D02*
X9605896Y-14600650D01*
X9605896Y-14600650D02*
X9624944Y-14610174D01*
X9624944Y-14610174D02*
X9634468Y-14629222D01*
X9634468Y-14629222D02*
X9634468Y-14733984D01*
X9758277Y-14733984D02*
X9739230Y-14724460D01*
X9739230Y-14724460D02*
X9729706Y-14714936D01*
X9729706Y-14714936D02*
X9720182Y-14695888D01*
X9720182Y-14695888D02*
X9720182Y-14638746D01*
X9720182Y-14638746D02*
X9729706Y-14619698D01*
X9729706Y-14619698D02*
X9739230Y-14610174D01*
X9739230Y-14610174D02*
X9758277Y-14600650D01*
X9758277Y-14600650D02*
X9786849Y-14600650D01*
X9786849Y-14600650D02*
X9805896Y-14610174D01*
X9805896Y-14610174D02*
X9815420Y-14619698D01*
X9815420Y-14619698D02*
X9824944Y-14638746D01*
X9824944Y-14638746D02*
X9824944Y-14695888D01*
X9824944Y-14695888D02*
X9815420Y-14714936D01*
X9815420Y-14714936D02*
X9805896Y-14724460D01*
X9805896Y-14724460D02*
X9786849Y-14733984D01*
X9786849Y-14733984D02*
X9758277Y-14733984D01*
X9882087Y-14600650D02*
X9958277Y-14600650D01*
X9910658Y-14533984D02*
X9910658Y-14705412D01*
X9910658Y-14705412D02*
X9920182Y-14724460D01*
X9920182Y-14724460D02*
X9939230Y-14733984D01*
X9939230Y-14733984D02*
X9958277Y-14733984D01*
X10177325Y-14600650D02*
X10177325Y-14800650D01*
X10177325Y-14610174D02*
X10196373Y-14600650D01*
X10196373Y-14600650D02*
X10234468Y-14600650D01*
X10234468Y-14600650D02*
X10253515Y-14610174D01*
X10253515Y-14610174D02*
X10263039Y-14619698D01*
X10263039Y-14619698D02*
X10272563Y-14638746D01*
X10272563Y-14638746D02*
X10272563Y-14695888D01*
X10272563Y-14695888D02*
X10263039Y-14714936D01*
X10263039Y-14714936D02*
X10253515Y-14724460D01*
X10253515Y-14724460D02*
X10234468Y-14733984D01*
X10234468Y-14733984D02*
X10196373Y-14733984D01*
X10196373Y-14733984D02*
X10177325Y-14724460D01*
X10386849Y-14733984D02*
X10367801Y-14724460D01*
X10367801Y-14724460D02*
X10358277Y-14705412D01*
X10358277Y-14705412D02*
X10358277Y-14533984D01*
X10548754Y-14733984D02*
X10548754Y-14629222D01*
X10548754Y-14629222D02*
X10539230Y-14610174D01*
X10539230Y-14610174D02*
X10520182Y-14600650D01*
X10520182Y-14600650D02*
X10482087Y-14600650D01*
X10482087Y-14600650D02*
X10463039Y-14610174D01*
X10548754Y-14724460D02*
X10529706Y-14733984D01*
X10529706Y-14733984D02*
X10482087Y-14733984D01*
X10482087Y-14733984D02*
X10463039Y-14724460D01*
X10463039Y-14724460D02*
X10453515Y-14705412D01*
X10453515Y-14705412D02*
X10453515Y-14686365D01*
X10453515Y-14686365D02*
X10463039Y-14667317D01*
X10463039Y-14667317D02*
X10482087Y-14657793D01*
X10482087Y-14657793D02*
X10529706Y-14657793D01*
X10529706Y-14657793D02*
X10548754Y-14648269D01*
X10615420Y-14600650D02*
X10691611Y-14600650D01*
X10643992Y-14533984D02*
X10643992Y-14705412D01*
X10643992Y-14705412D02*
X10653515Y-14724460D01*
X10653515Y-14724460D02*
X10672563Y-14733984D01*
X10672563Y-14733984D02*
X10691611Y-14733984D01*
X10834468Y-14724460D02*
X10815420Y-14733984D01*
X10815420Y-14733984D02*
X10777325Y-14733984D01*
X10777325Y-14733984D02*
X10758277Y-14724460D01*
X10758277Y-14724460D02*
X10748754Y-14705412D01*
X10748754Y-14705412D02*
X10748754Y-14629222D01*
X10748754Y-14629222D02*
X10758277Y-14610174D01*
X10758277Y-14610174D02*
X10777325Y-14600650D01*
X10777325Y-14600650D02*
X10815420Y-14600650D01*
X10815420Y-14600650D02*
X10834468Y-14610174D01*
X10834468Y-14610174D02*
X10843992Y-14629222D01*
X10843992Y-14629222D02*
X10843992Y-14648269D01*
X10843992Y-14648269D02*
X10748754Y-14667317D01*
X11015420Y-14733984D02*
X11015420Y-14533984D01*
X11015420Y-14724460D02*
X10996373Y-14733984D01*
X10996373Y-14733984D02*
X10958277Y-14733984D01*
X10958277Y-14733984D02*
X10939230Y-14724460D01*
X10939230Y-14724460D02*
X10929706Y-14714936D01*
X10929706Y-14714936D02*
X10920182Y-14695888D01*
X10920182Y-14695888D02*
X10920182Y-14638746D01*
X10920182Y-14638746D02*
X10929706Y-14619698D01*
X10929706Y-14619698D02*
X10939230Y-14610174D01*
X10939230Y-14610174D02*
X10958277Y-14600650D01*
X10958277Y-14600650D02*
X10996373Y-14600650D01*
X10996373Y-14600650D02*
X11015420Y-14610174D01*
X11091611Y-14810174D02*
X11101135Y-14800650D01*
X11101135Y-14800650D02*
X11120182Y-14772079D01*
X11120182Y-14772079D02*
X11129706Y-14753031D01*
X11129706Y-14753031D02*
X11139230Y-14724460D01*
X11139230Y-14724460D02*
X11148754Y-14676841D01*
X11148754Y-14676841D02*
X11148754Y-14638746D01*
X11148754Y-14638746D02*
X11139230Y-14591127D01*
X11139230Y-14591127D02*
X11129706Y-14562555D01*
X11129706Y-14562555D02*
X11120182Y-14543508D01*
X11120182Y-14543508D02*
X11101135Y-14514936D01*
X11101135Y-14514936D02*
X11091611Y-14505412D01*
M02*
