G04 #@! TF.GenerationSoftware,KiCad,Pcbnew,9.0.0*
G04 #@! TF.CreationDate,2025-04-26T20:35:03-04:00*
G04 #@! TF.ProjectId,mothers_day_necklace,6d6f7468-6572-4735-9f64-61795f6e6563,rev?*
G04 #@! TF.SameCoordinates,Original*
G04 #@! TF.FileFunction,Copper,L1,Top*
G04 #@! TF.FilePolarity,Positive*
%FSLAX46Y46*%
G04 Gerber Fmt 4.6, Leading zero omitted, Abs format (unit mm)*
G04 Created by KiCad (PCBNEW 9.0.0) date 2025-04-26 20:35:03*
%MOMM*%
%LPD*%
G01*
G04 APERTURE LIST*
G04 #@! TA.AperFunction,ComponentPad*
%ADD10C,1.500000*%
G04 #@! TD*
G04 #@! TA.AperFunction,ComponentPad*
%ADD11O,1.050000X1.500000*%
G04 #@! TD*
G04 #@! TA.AperFunction,ComponentPad*
%ADD12R,1.050000X1.500000*%
G04 #@! TD*
G04 #@! TA.AperFunction,ComponentPad*
%ADD13C,1.600000*%
G04 #@! TD*
G04 #@! TA.AperFunction,ComponentPad*
%ADD14O,1.600000X1.600000*%
G04 #@! TD*
G04 #@! TA.AperFunction,ComponentPad*
%ADD15R,1.800000X1.800000*%
G04 #@! TD*
G04 #@! TA.AperFunction,ComponentPad*
%ADD16C,1.800000*%
G04 #@! TD*
G04 #@! TA.AperFunction,ComponentPad*
%ADD17R,1.600000X2.000000*%
G04 #@! TD*
G04 #@! TA.AperFunction,ComponentPad*
%ADD18O,1.600000X2.000000*%
G04 #@! TD*
G04 #@! TA.AperFunction,ViaPad*
%ADD19C,0.600000*%
G04 #@! TD*
G04 #@! TA.AperFunction,Conductor*
%ADD20C,0.200000*%
G04 #@! TD*
G04 APERTURE END LIST*
D10*
X98300000Y-80000000D03*
X101700000Y-80000000D03*
D11*
X122540000Y-90000000D03*
X121270000Y-90000000D03*
D12*
X120000000Y-90000000D03*
D13*
X79840000Y-70000000D03*
D14*
X90000000Y-70000000D03*
D13*
X55000000Y-80000000D03*
D14*
X65160000Y-80000000D03*
D13*
X74840000Y-115000000D03*
D14*
X85000000Y-115000000D03*
D13*
X115000000Y-115000000D03*
D14*
X125160000Y-115000000D03*
D13*
X134840000Y-80000000D03*
D14*
X145000000Y-80000000D03*
D13*
X109840000Y-70000000D03*
D14*
X120000000Y-70000000D03*
D15*
X65000000Y-65000000D03*
D16*
X67540000Y-65000000D03*
D15*
X65000000Y-100000000D03*
D16*
X67540000Y-100000000D03*
D15*
X100000000Y-130000000D03*
D16*
X102540000Y-130000000D03*
D15*
X135000000Y-100000000D03*
D16*
X137540000Y-100000000D03*
D15*
X132460000Y-65000000D03*
D16*
X135000000Y-65000000D03*
D17*
X89705000Y-94999900D03*
D18*
X110205000Y-94999900D03*
D19*
X103756300Y-128921700D03*
X82130000Y-103375000D03*
X117870800Y-91623000D03*
X123827600Y-76933000D03*
D20*
X103618300Y-128921700D02*
X103756300Y-128921700D01*
X102540000Y-130000000D02*
X103618300Y-128921700D01*
X78755000Y-100000000D02*
X82130000Y-103375000D01*
X67540000Y-100000000D02*
X78755000Y-100000000D01*
X88300000Y-70000000D02*
X79840000Y-70000000D01*
X98300000Y-80000000D02*
X88300000Y-70000000D01*
X119173300Y-90320500D02*
X117870800Y-91623000D01*
X119173300Y-90000000D02*
X119173300Y-90320500D01*
X120000000Y-90000000D02*
X119173300Y-90000000D01*
X112143800Y-67696200D02*
X109840000Y-70000000D01*
X132303800Y-67696200D02*
X112143800Y-67696200D01*
X135000000Y-65000000D02*
X132303800Y-67696200D01*
X81261600Y-94999900D02*
X89705000Y-94999900D01*
X66261700Y-80000000D02*
X81261600Y-94999900D01*
X65160000Y-80000000D02*
X66261700Y-80000000D01*
X122941000Y-116117300D02*
X124058300Y-115000000D01*
X87219000Y-116117300D02*
X122941000Y-116117300D01*
X86101700Y-115000000D02*
X87219000Y-116117300D01*
X85000000Y-115000000D02*
X86101700Y-115000000D01*
X125160000Y-115000000D02*
X124058300Y-115000000D01*
X140831300Y-76933000D02*
X143898300Y-80000000D01*
X123827600Y-76933000D02*
X140831300Y-76933000D01*
X145000000Y-80000000D02*
X143898300Y-80000000D01*
G04 #@! TA.AperFunction,Conductor*
G36*
X122239925Y-89769745D02*
G01*
X122190556Y-89855255D01*
X122165000Y-89950630D01*
X122165000Y-90049370D01*
X122190556Y-90144745D01*
X122239925Y-90230255D01*
X122259670Y-90250000D01*
X121550330Y-90250000D01*
X121570075Y-90230255D01*
X121619444Y-90144745D01*
X121645000Y-90049370D01*
X121645000Y-89950630D01*
X121619444Y-89855255D01*
X121570075Y-89769745D01*
X121550330Y-89750000D01*
X122259670Y-89750000D01*
X122239925Y-89769745D01*
G37*
G04 #@! TD.AperFunction*
G04 #@! TA.AperFunction,Conductor*
G36*
X60280849Y-55586115D02*
G01*
X79844101Y-60476928D01*
X79857558Y-60481118D01*
X89283378Y-64015801D01*
X99804415Y-67961190D01*
X99808357Y-67962668D01*
X99852878Y-67982905D01*
X99869850Y-67985728D01*
X99881141Y-67989962D01*
X99881142Y-67989963D01*
X99881145Y-67989964D01*
X99883718Y-67990928D01*
X99885959Y-67991769D01*
X99930448Y-67996095D01*
X99938761Y-67997190D01*
X99982875Y-68004529D01*
X99996515Y-68003201D01*
X100000004Y-68002862D01*
X100017124Y-68004528D01*
X100065354Y-67996504D01*
X100069515Y-67996100D01*
X100069531Y-67996098D01*
X100114041Y-67991769D01*
X100124780Y-67987741D01*
X100130151Y-67985726D01*
X100147122Y-67982905D01*
X100191640Y-67962669D01*
X120142447Y-60481115D01*
X120155894Y-60476928D01*
X139719119Y-55586123D01*
X139788929Y-55588961D01*
X139846124Y-55629091D01*
X139848391Y-55632021D01*
X154389020Y-75019528D01*
X154413496Y-75084970D01*
X154404951Y-75139980D01*
X144582902Y-99695104D01*
X144555452Y-99736733D01*
X124670552Y-119621632D01*
X124660333Y-119630779D01*
X100077461Y-139297077D01*
X100012815Y-139323585D01*
X99944100Y-139310935D01*
X99922537Y-139297077D01*
X90051191Y-131400000D01*
X87116385Y-129052155D01*
X98600000Y-129052155D01*
X98600000Y-129750000D01*
X99624722Y-129750000D01*
X99580667Y-129826306D01*
X99550000Y-129940756D01*
X99550000Y-130059244D01*
X99580667Y-130173694D01*
X99624722Y-130250000D01*
X98600000Y-130250000D01*
X98600000Y-130947844D01*
X98606401Y-131007372D01*
X98606403Y-131007379D01*
X98656645Y-131142086D01*
X98656649Y-131142093D01*
X98742809Y-131257187D01*
X98742812Y-131257190D01*
X98857906Y-131343350D01*
X98857913Y-131343354D01*
X98992620Y-131393596D01*
X98992627Y-131393598D01*
X99052155Y-131399999D01*
X99052172Y-131400000D01*
X99750000Y-131400000D01*
X99750000Y-130375277D01*
X99826306Y-130419333D01*
X99940756Y-130450000D01*
X100059244Y-130450000D01*
X100173694Y-130419333D01*
X100250000Y-130375277D01*
X100250000Y-131400000D01*
X100947828Y-131400000D01*
X100947844Y-131399999D01*
X101007372Y-131393598D01*
X101007379Y-131393596D01*
X101142086Y-131343354D01*
X101142093Y-131343350D01*
X101257187Y-131257190D01*
X101257190Y-131257187D01*
X101343350Y-131142093D01*
X101343354Y-131142086D01*
X101373213Y-131062031D01*
X101415084Y-131006097D01*
X101480548Y-130981680D01*
X101548821Y-130996531D01*
X101577076Y-131017683D01*
X101627636Y-131068243D01*
X101627641Y-131068247D01*
X101783192Y-131181260D01*
X101805978Y-131197815D01*
X101922501Y-131257187D01*
X102002393Y-131297895D01*
X102002396Y-131297896D01*
X102107221Y-131331955D01*
X102212049Y-131366015D01*
X102429778Y-131400500D01*
X102429779Y-131400500D01*
X102650221Y-131400500D01*
X102650222Y-131400500D01*
X102867951Y-131366015D01*
X103077606Y-131297895D01*
X103274022Y-131197815D01*
X103452365Y-131068242D01*
X103608242Y-130912365D01*
X103737815Y-130734022D01*
X103837895Y-130537606D01*
X103906015Y-130327951D01*
X103940500Y-130110222D01*
X103940500Y-129889778D01*
X103929346Y-129819358D01*
X103938300Y-129750068D01*
X103983296Y-129696615D01*
X104004354Y-129685406D01*
X104135479Y-129631094D01*
X104266589Y-129543489D01*
X104378089Y-129431989D01*
X104465694Y-129300879D01*
X104526037Y-129155197D01*
X104556800Y-129000542D01*
X104556800Y-128842858D01*
X104556800Y-128842855D01*
X104556799Y-128842853D01*
X104548710Y-128802187D01*
X104526037Y-128688203D01*
X104512967Y-128656649D01*
X104465697Y-128542527D01*
X104465690Y-128542514D01*
X104378089Y-128411411D01*
X104378086Y-128411407D01*
X104266592Y-128299913D01*
X104266588Y-128299910D01*
X104135485Y-128212309D01*
X104135472Y-128212302D01*
X103989801Y-128151964D01*
X103989789Y-128151961D01*
X103835145Y-128121200D01*
X103835142Y-128121200D01*
X103677458Y-128121200D01*
X103677455Y-128121200D01*
X103522810Y-128151961D01*
X103522798Y-128151964D01*
X103377127Y-128212302D01*
X103377114Y-128212309D01*
X103246011Y-128299910D01*
X103246007Y-128299913D01*
X103134513Y-128411407D01*
X103134510Y-128411411D01*
X103046909Y-128542514D01*
X103046903Y-128542526D01*
X103036150Y-128568486D01*
X102992308Y-128622888D01*
X102926014Y-128644952D01*
X102883276Y-128638963D01*
X102867954Y-128633985D01*
X102704654Y-128608121D01*
X102650222Y-128599500D01*
X102429778Y-128599500D01*
X102357201Y-128610995D01*
X102212047Y-128633985D01*
X102002396Y-128702103D01*
X102002393Y-128702104D01*
X101805974Y-128802187D01*
X101627641Y-128931752D01*
X101627636Y-128931756D01*
X101577075Y-128982317D01*
X101515752Y-129015801D01*
X101446060Y-129010816D01*
X101390127Y-128968945D01*
X101373213Y-128937968D01*
X101343354Y-128857913D01*
X101343350Y-128857906D01*
X101257190Y-128742812D01*
X101257187Y-128742809D01*
X101142093Y-128656649D01*
X101142086Y-128656645D01*
X101007379Y-128606403D01*
X101007372Y-128606401D01*
X100947844Y-128600000D01*
X100250000Y-128600000D01*
X100250000Y-129624722D01*
X100173694Y-129580667D01*
X100059244Y-129550000D01*
X99940756Y-129550000D01*
X99826306Y-129580667D01*
X99750000Y-129624722D01*
X99750000Y-128600000D01*
X99052155Y-128600000D01*
X98992627Y-128606401D01*
X98992620Y-128606403D01*
X98857913Y-128656645D01*
X98857906Y-128656649D01*
X98742812Y-128742809D01*
X98742809Y-128742812D01*
X98656649Y-128857906D01*
X98656645Y-128857913D01*
X98606403Y-128992620D01*
X98606401Y-128992627D01*
X98600000Y-129052155D01*
X87116385Y-129052155D01*
X75339661Y-119630776D01*
X75329443Y-119621630D01*
X70688270Y-114980457D01*
X70605461Y-114897648D01*
X73539500Y-114897648D01*
X73539500Y-115102351D01*
X73571522Y-115304534D01*
X73634781Y-115499223D01*
X73727715Y-115681613D01*
X73848028Y-115847213D01*
X73992786Y-115991971D01*
X74147749Y-116104556D01*
X74158390Y-116112287D01*
X74274607Y-116171503D01*
X74340776Y-116205218D01*
X74340778Y-116205218D01*
X74340781Y-116205220D01*
X74445137Y-116239127D01*
X74535465Y-116268477D01*
X74636557Y-116284488D01*
X74737648Y-116300500D01*
X74737649Y-116300500D01*
X74942351Y-116300500D01*
X74942352Y-116300500D01*
X75144534Y-116268477D01*
X75339219Y-116205220D01*
X75521610Y-116112287D01*
X75614590Y-116044732D01*
X75687213Y-115991971D01*
X75687215Y-115991968D01*
X75687219Y-115991966D01*
X75831966Y-115847219D01*
X75831968Y-115847215D01*
X75831971Y-115847213D01*
X75884732Y-115774590D01*
X75952287Y-115681610D01*
X76045220Y-115499219D01*
X76108477Y-115304534D01*
X76140500Y-115102352D01*
X76140500Y-114897648D01*
X83699500Y-114897648D01*
X83699500Y-115102351D01*
X83731522Y-115304534D01*
X83794781Y-115499223D01*
X83887715Y-115681613D01*
X84008028Y-115847213D01*
X84152786Y-115991971D01*
X84307749Y-116104556D01*
X84318390Y-116112287D01*
X84434607Y-116171503D01*
X84500776Y-116205218D01*
X84500778Y-116205218D01*
X84500781Y-116205220D01*
X84605137Y-116239127D01*
X84695465Y-116268477D01*
X84796557Y-116284488D01*
X84897648Y-116300500D01*
X84897649Y-116300500D01*
X85102351Y-116300500D01*
X85102352Y-116300500D01*
X85304534Y-116268477D01*
X85499219Y-116205220D01*
X85681610Y-116112287D01*
X85774590Y-116044732D01*
X85847213Y-115991971D01*
X85847215Y-115991968D01*
X85847219Y-115991966D01*
X85958144Y-115881041D01*
X86019467Y-115847556D01*
X86089159Y-115852540D01*
X86133506Y-115881041D01*
X86734139Y-116481674D01*
X86734149Y-116481685D01*
X86738479Y-116486015D01*
X86738480Y-116486016D01*
X86850284Y-116597820D01*
X86937095Y-116647939D01*
X86937097Y-116647941D01*
X86975151Y-116669911D01*
X86987215Y-116676877D01*
X87139943Y-116717801D01*
X87139946Y-116717801D01*
X87305653Y-116717801D01*
X87305669Y-116717800D01*
X122854331Y-116717800D01*
X122854347Y-116717801D01*
X122861943Y-116717801D01*
X123020054Y-116717801D01*
X123020057Y-116717801D01*
X123172785Y-116676877D01*
X123222904Y-116647939D01*
X123309716Y-116597820D01*
X123421520Y-116486016D01*
X123421520Y-116486014D01*
X123431728Y-116475807D01*
X123431730Y-116475804D01*
X124026495Y-115881038D01*
X124087816Y-115847555D01*
X124157508Y-115852539D01*
X124201855Y-115881040D01*
X124312786Y-115991971D01*
X124467749Y-116104556D01*
X124478390Y-116112287D01*
X124594607Y-116171503D01*
X124660776Y-116205218D01*
X124660778Y-116205218D01*
X124660781Y-116205220D01*
X124765137Y-116239127D01*
X124855465Y-116268477D01*
X124956557Y-116284488D01*
X125057648Y-116300500D01*
X125057649Y-116300500D01*
X125262351Y-116300500D01*
X125262352Y-116300500D01*
X125464534Y-116268477D01*
X125659219Y-116205220D01*
X125841610Y-116112287D01*
X125934590Y-116044732D01*
X126007213Y-115991971D01*
X126007215Y-115991968D01*
X126007219Y-115991966D01*
X126151966Y-115847219D01*
X126151968Y-115847215D01*
X126151971Y-115847213D01*
X126204732Y-115774590D01*
X126272287Y-115681610D01*
X126365220Y-115499219D01*
X126428477Y-115304534D01*
X126460500Y-115102352D01*
X126460500Y-114897648D01*
X126428477Y-114695466D01*
X126365220Y-114500781D01*
X126365218Y-114500778D01*
X126365218Y-114500776D01*
X126331503Y-114434607D01*
X126272287Y-114318390D01*
X126264556Y-114307749D01*
X126151971Y-114152786D01*
X126007213Y-114008028D01*
X125841613Y-113887715D01*
X125841612Y-113887714D01*
X125841610Y-113887713D01*
X125784653Y-113858691D01*
X125659223Y-113794781D01*
X125464534Y-113731522D01*
X125289995Y-113703878D01*
X125262352Y-113699500D01*
X125057648Y-113699500D01*
X125033329Y-113703351D01*
X124855465Y-113731522D01*
X124660776Y-113794781D01*
X124478386Y-113887715D01*
X124312786Y-114008028D01*
X124168028Y-114152786D01*
X124047712Y-114318389D01*
X124047710Y-114318392D01*
X124035739Y-114341887D01*
X124016041Y-114362742D01*
X123998624Y-114385556D01*
X123991070Y-114389181D01*
X123987764Y-114392682D01*
X123967489Y-114402176D01*
X123962477Y-114403991D01*
X123826515Y-114440423D01*
X123776395Y-114469360D01*
X123766923Y-114474828D01*
X123766919Y-114474830D01*
X123689585Y-114519479D01*
X123689582Y-114519481D01*
X123577778Y-114631286D01*
X122728584Y-115480481D01*
X122667261Y-115513966D01*
X122640903Y-115516800D01*
X116370179Y-115516800D01*
X116303140Y-115497115D01*
X116257385Y-115444311D01*
X116247441Y-115375153D01*
X116252248Y-115354481D01*
X116268477Y-115304534D01*
X116300500Y-115102351D01*
X116300500Y-114897648D01*
X116268477Y-114695465D01*
X116211296Y-114519481D01*
X116205220Y-114500781D01*
X116205218Y-114500778D01*
X116205218Y-114500776D01*
X116171503Y-114434607D01*
X116112287Y-114318390D01*
X116104556Y-114307749D01*
X115991971Y-114152786D01*
X115847213Y-114008028D01*
X115681613Y-113887715D01*
X115681612Y-113887714D01*
X115681610Y-113887713D01*
X115624653Y-113858691D01*
X115499223Y-113794781D01*
X115304534Y-113731522D01*
X115129995Y-113703878D01*
X115102352Y-113699500D01*
X114897648Y-113699500D01*
X114873329Y-113703351D01*
X114695465Y-113731522D01*
X114500776Y-113794781D01*
X114318386Y-113887715D01*
X114152786Y-114008028D01*
X114008028Y-114152786D01*
X113887715Y-114318386D01*
X113794781Y-114500776D01*
X113731522Y-114695465D01*
X113699500Y-114897648D01*
X113699500Y-115102351D01*
X113731522Y-115304534D01*
X113747752Y-115354481D01*
X113749748Y-115424322D01*
X113713668Y-115484155D01*
X113650967Y-115514984D01*
X113629821Y-115516800D01*
X87519097Y-115516800D01*
X87452058Y-115497115D01*
X87431416Y-115480481D01*
X86589290Y-114638355D01*
X86589288Y-114638352D01*
X86470417Y-114519481D01*
X86470416Y-114519480D01*
X86383604Y-114469360D01*
X86333485Y-114440423D01*
X86197508Y-114403987D01*
X86192510Y-114402177D01*
X86168454Y-114384521D01*
X86142989Y-114368999D01*
X86138550Y-114362573D01*
X86136183Y-114360836D01*
X86134724Y-114357034D01*
X86124258Y-114341884D01*
X86112286Y-114318388D01*
X85991971Y-114152786D01*
X85847213Y-114008028D01*
X85681613Y-113887715D01*
X85681612Y-113887714D01*
X85681610Y-113887713D01*
X85624653Y-113858691D01*
X85499223Y-113794781D01*
X85304534Y-113731522D01*
X85129995Y-113703878D01*
X85102352Y-113699500D01*
X84897648Y-113699500D01*
X84873329Y-113703351D01*
X84695465Y-113731522D01*
X84500776Y-113794781D01*
X84318386Y-113887715D01*
X84152786Y-114008028D01*
X84008028Y-114152786D01*
X83887715Y-114318386D01*
X83794781Y-114500776D01*
X83731522Y-114695465D01*
X83699500Y-114897648D01*
X76140500Y-114897648D01*
X76108477Y-114695466D01*
X76045220Y-114500781D01*
X76045218Y-114500778D01*
X76045218Y-114500776D01*
X76011503Y-114434607D01*
X75952287Y-114318390D01*
X75944556Y-114307749D01*
X75831971Y-114152786D01*
X75687213Y-114008028D01*
X75521613Y-113887715D01*
X75521612Y-113887714D01*
X75521610Y-113887713D01*
X75464653Y-113858691D01*
X75339223Y-113794781D01*
X75144534Y-113731522D01*
X74969995Y-113703878D01*
X74942352Y-113699500D01*
X74737648Y-113699500D01*
X74713329Y-113703351D01*
X74535465Y-113731522D01*
X74340776Y-113794781D01*
X74158386Y-113887715D01*
X73992786Y-114008028D01*
X73848028Y-114152786D01*
X73727715Y-114318386D01*
X73634781Y-114500776D01*
X73571522Y-114695465D01*
X73539500Y-114897648D01*
X70605461Y-114897648D01*
X55994133Y-100286319D01*
X55444545Y-99736731D01*
X55417096Y-99695104D01*
X55159916Y-99052155D01*
X63600000Y-99052155D01*
X63600000Y-99750000D01*
X64624722Y-99750000D01*
X64580667Y-99826306D01*
X64550000Y-99940756D01*
X64550000Y-100059244D01*
X64580667Y-100173694D01*
X64624722Y-100250000D01*
X63600000Y-100250000D01*
X63600000Y-100947844D01*
X63606401Y-101007372D01*
X63606403Y-101007379D01*
X63656645Y-101142086D01*
X63656649Y-101142093D01*
X63742809Y-101257187D01*
X63742812Y-101257190D01*
X63857906Y-101343350D01*
X63857913Y-101343354D01*
X63992620Y-101393596D01*
X63992627Y-101393598D01*
X64052155Y-101399999D01*
X64052172Y-101400000D01*
X64750000Y-101400000D01*
X64750000Y-100375277D01*
X64826306Y-100419333D01*
X64940756Y-100450000D01*
X65059244Y-100450000D01*
X65173694Y-100419333D01*
X65250000Y-100375277D01*
X65250000Y-101400000D01*
X65947828Y-101400000D01*
X65947844Y-101399999D01*
X66007372Y-101393598D01*
X66007379Y-101393596D01*
X66142086Y-101343354D01*
X66142093Y-101343350D01*
X66257187Y-101257190D01*
X66257190Y-101257187D01*
X66343350Y-101142093D01*
X66343354Y-101142086D01*
X66373213Y-101062031D01*
X66415084Y-101006097D01*
X66480548Y-100981680D01*
X66548821Y-100996531D01*
X66577076Y-101017683D01*
X66627636Y-101068243D01*
X66627641Y-101068247D01*
X66783192Y-101181260D01*
X66805978Y-101197815D01*
X66922501Y-101257187D01*
X67002393Y-101297895D01*
X67002396Y-101297896D01*
X67107221Y-101331955D01*
X67212049Y-101366015D01*
X67429778Y-101400500D01*
X67429779Y-101400500D01*
X67650221Y-101400500D01*
X67650222Y-101400500D01*
X67867951Y-101366015D01*
X68077606Y-101297895D01*
X68274022Y-101197815D01*
X68452365Y-101068242D01*
X68608242Y-100912365D01*
X68737815Y-100734022D01*
X68771352Y-100668204D01*
X68819326Y-100617409D01*
X68881836Y-100600500D01*
X78454903Y-100600500D01*
X78521942Y-100620185D01*
X78542584Y-100636819D01*
X81295425Y-103389660D01*
X81328910Y-103450983D01*
X81329361Y-103453149D01*
X81360261Y-103608491D01*
X81360264Y-103608501D01*
X81420602Y-103754172D01*
X81420609Y-103754185D01*
X81508210Y-103885288D01*
X81508213Y-103885292D01*
X81619707Y-103996786D01*
X81619711Y-103996789D01*
X81750814Y-104084390D01*
X81750827Y-104084397D01*
X81896498Y-104144735D01*
X81896503Y-104144737D01*
X82051153Y-104175499D01*
X82051156Y-104175500D01*
X82051158Y-104175500D01*
X82208844Y-104175500D01*
X82208845Y-104175499D01*
X82363497Y-104144737D01*
X82509179Y-104084394D01*
X82640289Y-103996789D01*
X82751789Y-103885289D01*
X82839394Y-103754179D01*
X82899737Y-103608497D01*
X82930500Y-103453842D01*
X82930500Y-103296158D01*
X82930500Y-103296155D01*
X82930499Y-103296153D01*
X82899738Y-103141510D01*
X82899737Y-103141503D01*
X82899735Y-103141498D01*
X82839397Y-102995827D01*
X82839390Y-102995814D01*
X82751789Y-102864711D01*
X82751786Y-102864707D01*
X82640292Y-102753213D01*
X82640288Y-102753210D01*
X82509185Y-102665609D01*
X82509172Y-102665602D01*
X82363501Y-102605264D01*
X82363491Y-102605261D01*
X82208151Y-102574362D01*
X82146241Y-102541977D01*
X82144662Y-102540426D01*
X82033204Y-102428968D01*
X79242589Y-99638354D01*
X79242588Y-99638352D01*
X79123717Y-99519481D01*
X79123716Y-99519480D01*
X79024839Y-99462394D01*
X79024838Y-99462393D01*
X78986783Y-99440422D01*
X78930881Y-99425443D01*
X78834057Y-99399499D01*
X78675943Y-99399499D01*
X78668347Y-99399499D01*
X78668331Y-99399500D01*
X68881836Y-99399500D01*
X68814797Y-99379815D01*
X68771352Y-99331796D01*
X68755209Y-99300116D01*
X68737815Y-99265978D01*
X68613522Y-99094902D01*
X68608243Y-99087636D01*
X68572762Y-99052155D01*
X133600000Y-99052155D01*
X133600000Y-99750000D01*
X134624722Y-99750000D01*
X134580667Y-99826306D01*
X134550000Y-99940756D01*
X134550000Y-100059244D01*
X134580667Y-100173694D01*
X134624722Y-100250000D01*
X133600000Y-100250000D01*
X133600000Y-100947844D01*
X133606401Y-101007372D01*
X133606403Y-101007379D01*
X133656645Y-101142086D01*
X133656649Y-101142093D01*
X133742809Y-101257187D01*
X133742812Y-101257190D01*
X133857906Y-101343350D01*
X133857913Y-101343354D01*
X133992620Y-101393596D01*
X133992627Y-101393598D01*
X134052155Y-101399999D01*
X134052172Y-101400000D01*
X134750000Y-101400000D01*
X134750000Y-100375277D01*
X134826306Y-100419333D01*
X134940756Y-100450000D01*
X135059244Y-100450000D01*
X135173694Y-100419333D01*
X135250000Y-100375277D01*
X135250000Y-101400000D01*
X135947828Y-101400000D01*
X135947844Y-101399999D01*
X136007372Y-101393598D01*
X136007379Y-101393596D01*
X136142086Y-101343354D01*
X136142093Y-101343350D01*
X136257187Y-101257190D01*
X136257190Y-101257187D01*
X136343350Y-101142093D01*
X136343354Y-101142086D01*
X136373213Y-101062031D01*
X136415084Y-101006097D01*
X136480548Y-100981680D01*
X136548821Y-100996531D01*
X136577076Y-101017683D01*
X136627636Y-101068243D01*
X136627641Y-101068247D01*
X136783192Y-101181260D01*
X136805978Y-101197815D01*
X136922501Y-101257187D01*
X137002393Y-101297895D01*
X137002396Y-101297896D01*
X137107221Y-101331955D01*
X137212049Y-101366015D01*
X137429778Y-101400500D01*
X137429779Y-101400500D01*
X137650221Y-101400500D01*
X137650222Y-101400500D01*
X137867951Y-101366015D01*
X138077606Y-101297895D01*
X138274022Y-101197815D01*
X138452365Y-101068242D01*
X138608242Y-100912365D01*
X138737815Y-100734022D01*
X138837895Y-100537606D01*
X138906015Y-100327951D01*
X138940500Y-100110222D01*
X138940500Y-99889778D01*
X138906015Y-99672049D01*
X138876324Y-99580667D01*
X138837896Y-99462395D01*
X138837895Y-99462393D01*
X138771351Y-99331796D01*
X138737815Y-99265978D01*
X138633017Y-99121735D01*
X138608247Y-99087641D01*
X138608243Y-99087636D01*
X138452363Y-98931756D01*
X138452358Y-98931752D01*
X138274025Y-98802187D01*
X138274024Y-98802186D01*
X138274022Y-98802185D01*
X138211096Y-98770122D01*
X138077606Y-98702104D01*
X138077603Y-98702103D01*
X137867952Y-98633985D01*
X137759086Y-98616742D01*
X137650222Y-98599500D01*
X137429778Y-98599500D01*
X137357201Y-98610995D01*
X137212047Y-98633985D01*
X137002396Y-98702103D01*
X137002393Y-98702104D01*
X136805974Y-98802187D01*
X136627641Y-98931752D01*
X136627636Y-98931756D01*
X136577075Y-98982317D01*
X136515752Y-99015801D01*
X136446060Y-99010816D01*
X136390127Y-98968945D01*
X136373213Y-98937968D01*
X136343354Y-98857913D01*
X136343350Y-98857906D01*
X136257190Y-98742812D01*
X136257187Y-98742809D01*
X136142093Y-98656649D01*
X136142086Y-98656645D01*
X136007379Y-98606403D01*
X136007372Y-98606401D01*
X135947844Y-98600000D01*
X135250000Y-98600000D01*
X135250000Y-99624722D01*
X135173694Y-99580667D01*
X135059244Y-99550000D01*
X134940756Y-99550000D01*
X134826306Y-99580667D01*
X134750000Y-99624722D01*
X134750000Y-98600000D01*
X134052155Y-98600000D01*
X133992627Y-98606401D01*
X133992620Y-98606403D01*
X133857913Y-98656645D01*
X133857906Y-98656649D01*
X133742812Y-98742809D01*
X133742809Y-98742812D01*
X133656649Y-98857906D01*
X133656645Y-98857913D01*
X133606403Y-98992620D01*
X133606401Y-98992627D01*
X133600000Y-99052155D01*
X68572762Y-99052155D01*
X68452363Y-98931756D01*
X68452358Y-98931752D01*
X68274025Y-98802187D01*
X68274024Y-98802186D01*
X68274022Y-98802185D01*
X68211096Y-98770122D01*
X68077606Y-98702104D01*
X68077603Y-98702103D01*
X67867952Y-98633985D01*
X67759086Y-98616742D01*
X67650222Y-98599500D01*
X67429778Y-98599500D01*
X67357201Y-98610995D01*
X67212047Y-98633985D01*
X67002396Y-98702103D01*
X67002393Y-98702104D01*
X66805974Y-98802187D01*
X66627641Y-98931752D01*
X66627636Y-98931756D01*
X66577075Y-98982317D01*
X66515752Y-99015801D01*
X66446060Y-99010816D01*
X66390127Y-98968945D01*
X66373213Y-98937968D01*
X66343354Y-98857913D01*
X66343350Y-98857906D01*
X66257190Y-98742812D01*
X66257187Y-98742809D01*
X66142093Y-98656649D01*
X66142086Y-98656645D01*
X66007379Y-98606403D01*
X66007372Y-98606401D01*
X65947844Y-98600000D01*
X65250000Y-98600000D01*
X65250000Y-99624722D01*
X65173694Y-99580667D01*
X65059244Y-99550000D01*
X64940756Y-99550000D01*
X64826306Y-99580667D01*
X64750000Y-99624722D01*
X64750000Y-98600000D01*
X64052155Y-98600000D01*
X63992627Y-98606401D01*
X63992620Y-98606403D01*
X63857913Y-98656645D01*
X63857906Y-98656649D01*
X63742812Y-98742809D01*
X63742809Y-98742812D01*
X63656649Y-98857906D01*
X63656645Y-98857913D01*
X63606403Y-98992620D01*
X63606401Y-98992627D01*
X63600000Y-99052155D01*
X55159916Y-99052155D01*
X47498114Y-79897648D01*
X53699500Y-79897648D01*
X53699500Y-80102351D01*
X53731522Y-80304534D01*
X53794781Y-80499223D01*
X53845021Y-80597822D01*
X53874228Y-80655145D01*
X53887715Y-80681613D01*
X54008028Y-80847213D01*
X54152786Y-80991971D01*
X54259531Y-81069524D01*
X54318390Y-81112287D01*
X54408927Y-81158418D01*
X54500776Y-81205218D01*
X54500778Y-81205218D01*
X54500781Y-81205220D01*
X54543872Y-81219221D01*
X54695465Y-81268477D01*
X54796557Y-81284488D01*
X54897648Y-81300500D01*
X54897649Y-81300500D01*
X55102351Y-81300500D01*
X55102352Y-81300500D01*
X55304534Y-81268477D01*
X55499219Y-81205220D01*
X55681610Y-81112287D01*
X55776044Y-81043677D01*
X55847213Y-80991971D01*
X55847215Y-80991968D01*
X55847219Y-80991966D01*
X55991966Y-80847219D01*
X55991968Y-80847215D01*
X55991971Y-80847213D01*
X56044732Y-80774590D01*
X56112287Y-80681610D01*
X56205220Y-80499219D01*
X56268477Y-80304534D01*
X56300500Y-80102352D01*
X56300500Y-79897648D01*
X63859500Y-79897648D01*
X63859500Y-80102351D01*
X63891522Y-80304534D01*
X63954781Y-80499223D01*
X64005021Y-80597822D01*
X64034228Y-80655145D01*
X64047715Y-80681613D01*
X64168028Y-80847213D01*
X64312786Y-80991971D01*
X64419531Y-81069524D01*
X64478390Y-81112287D01*
X64568927Y-81158418D01*
X64660776Y-81205218D01*
X64660778Y-81205218D01*
X64660781Y-81205220D01*
X64703872Y-81219221D01*
X64855465Y-81268477D01*
X64956557Y-81284488D01*
X65057648Y-81300500D01*
X65057649Y-81300500D01*
X65262351Y-81300500D01*
X65262352Y-81300500D01*
X65464534Y-81268477D01*
X65659219Y-81205220D01*
X65841610Y-81112287D01*
X65936044Y-81043677D01*
X66007213Y-80991971D01*
X66007215Y-80991968D01*
X66007219Y-80991966D01*
X66118144Y-80881041D01*
X66179467Y-80847556D01*
X66249159Y-80852540D01*
X66293506Y-80881041D01*
X80776739Y-95364274D01*
X80776749Y-95364285D01*
X80781079Y-95368615D01*
X80781080Y-95368616D01*
X80892884Y-95480420D01*
X80934479Y-95504434D01*
X80979695Y-95530539D01*
X80979697Y-95530541D01*
X81017751Y-95552511D01*
X81029815Y-95559477D01*
X81182543Y-95600401D01*
X81182546Y-95600401D01*
X81348253Y-95600401D01*
X81348269Y-95600400D01*
X88280501Y-95600400D01*
X88347540Y-95620085D01*
X88393295Y-95672889D01*
X88404501Y-95724400D01*
X88404501Y-96047776D01*
X88410908Y-96107383D01*
X88461202Y-96242228D01*
X88461206Y-96242235D01*
X88547452Y-96357444D01*
X88547455Y-96357447D01*
X88662664Y-96443693D01*
X88662671Y-96443697D01*
X88797517Y-96493991D01*
X88797516Y-96493991D01*
X88804444Y-96494735D01*
X88857127Y-96500400D01*
X90552872Y-96500399D01*
X90612483Y-96493991D01*
X90747331Y-96443696D01*
X90862546Y-96357446D01*
X90948796Y-96242231D01*
X90999091Y-96107383D01*
X91005500Y-96047773D01*
X91005499Y-94697548D01*
X108904500Y-94697548D01*
X108904500Y-95302251D01*
X108936522Y-95504434D01*
X108999781Y-95699123D01*
X109092715Y-95881513D01*
X109213028Y-96047113D01*
X109357786Y-96191871D01*
X109512749Y-96304456D01*
X109523390Y-96312187D01*
X109612212Y-96357444D01*
X109705776Y-96405118D01*
X109705778Y-96405118D01*
X109705781Y-96405120D01*
X109810137Y-96439027D01*
X109900465Y-96468377D01*
X110001557Y-96484388D01*
X110102648Y-96500400D01*
X110102649Y-96500400D01*
X110307351Y-96500400D01*
X110307352Y-96500400D01*
X110509534Y-96468377D01*
X110704219Y-96405120D01*
X110886610Y-96312187D01*
X110982901Y-96242228D01*
X111052213Y-96191871D01*
X111052215Y-96191868D01*
X111052219Y-96191866D01*
X111196966Y-96047119D01*
X111196968Y-96047115D01*
X111196971Y-96047113D01*
X111249732Y-95974490D01*
X111317287Y-95881510D01*
X111410220Y-95699119D01*
X111473477Y-95504434D01*
X111505500Y-95302252D01*
X111505500Y-94697548D01*
X111473477Y-94495366D01*
X111410220Y-94300681D01*
X111410218Y-94300678D01*
X111410218Y-94300676D01*
X111376503Y-94234507D01*
X111317287Y-94118290D01*
X111309556Y-94107649D01*
X111196971Y-93952686D01*
X111052213Y-93807928D01*
X110886613Y-93687615D01*
X110886612Y-93687614D01*
X110886610Y-93687613D01*
X110829653Y-93658591D01*
X110704223Y-93594681D01*
X110509534Y-93531422D01*
X110334995Y-93503778D01*
X110307352Y-93499400D01*
X110102648Y-93499400D01*
X110078329Y-93503251D01*
X109900465Y-93531422D01*
X109705776Y-93594681D01*
X109523386Y-93687615D01*
X109357786Y-93807928D01*
X109213028Y-93952686D01*
X109092715Y-94118286D01*
X108999781Y-94300676D01*
X108936522Y-94495365D01*
X108904500Y-94697548D01*
X91005499Y-94697548D01*
X91005499Y-93952028D01*
X90999091Y-93892417D01*
X90948796Y-93757569D01*
X90948795Y-93757568D01*
X90948793Y-93757564D01*
X90862547Y-93642355D01*
X90862544Y-93642352D01*
X90747335Y-93556106D01*
X90747328Y-93556102D01*
X90612482Y-93505808D01*
X90612483Y-93505808D01*
X90552883Y-93499401D01*
X90552881Y-93499400D01*
X90552873Y-93499400D01*
X90552864Y-93499400D01*
X88857129Y-93499400D01*
X88857123Y-93499401D01*
X88797516Y-93505808D01*
X88662671Y-93556102D01*
X88662664Y-93556106D01*
X88547455Y-93642352D01*
X88547452Y-93642355D01*
X88461206Y-93757564D01*
X88461202Y-93757571D01*
X88410908Y-93892417D01*
X88404501Y-93952016D01*
X88404501Y-93952023D01*
X88404500Y-93952035D01*
X88404500Y-94275400D01*
X88384815Y-94342439D01*
X88332011Y-94388194D01*
X88280500Y-94399400D01*
X81561697Y-94399400D01*
X81494658Y-94379715D01*
X81474016Y-94363081D01*
X78655088Y-91544153D01*
X117070300Y-91544153D01*
X117070300Y-91701846D01*
X117101061Y-91856489D01*
X117101064Y-91856501D01*
X117161402Y-92002172D01*
X117161409Y-92002185D01*
X117249010Y-92133288D01*
X117249013Y-92133292D01*
X117360507Y-92244786D01*
X117360511Y-92244789D01*
X117491614Y-92332390D01*
X117491627Y-92332397D01*
X117637298Y-92392735D01*
X117637303Y-92392737D01*
X117791953Y-92423499D01*
X117791956Y-92423500D01*
X117791958Y-92423500D01*
X117949644Y-92423500D01*
X117949645Y-92423499D01*
X118104297Y-92392737D01*
X118249979Y-92332394D01*
X118381089Y-92244789D01*
X118492589Y-92133289D01*
X118580194Y-92002179D01*
X118640537Y-91856497D01*
X118659913Y-91759085D01*
X118671438Y-91701150D01*
X118703823Y-91639239D01*
X118705322Y-91637712D01*
X119115553Y-91227480D01*
X119176876Y-91193996D01*
X119246567Y-91198980D01*
X119367517Y-91244091D01*
X119367516Y-91244091D01*
X119374444Y-91244835D01*
X119427127Y-91250500D01*
X120572872Y-91250499D01*
X120632483Y-91244091D01*
X120767331Y-91193796D01*
X120768893Y-91192626D01*
X120770722Y-91191944D01*
X120775118Y-91189544D01*
X120775462Y-91190175D01*
X120834354Y-91168204D01*
X120890664Y-91177326D01*
X120971017Y-91210609D01*
X120971025Y-91210611D01*
X121020000Y-91220353D01*
X121020000Y-90855671D01*
X121020711Y-90842415D01*
X121025499Y-90797881D01*
X121025500Y-90797873D01*
X121025499Y-90285829D01*
X121039745Y-90300075D01*
X121125255Y-90349444D01*
X121220630Y-90375000D01*
X121319370Y-90375000D01*
X121414745Y-90349444D01*
X121500255Y-90300075D01*
X121520000Y-90280330D01*
X121520000Y-91220352D01*
X121568974Y-91210612D01*
X121568983Y-91210609D01*
X121755513Y-91133347D01*
X121755525Y-91133340D01*
X121836109Y-91079496D01*
X121902786Y-91058618D01*
X121970166Y-91077102D01*
X121973891Y-91079496D01*
X122054474Y-91133340D01*
X122054486Y-91133347D01*
X122241016Y-91210609D01*
X122241025Y-91210612D01*
X122290000Y-91220353D01*
X122290000Y-90280330D01*
X122309745Y-90300075D01*
X122395255Y-90349444D01*
X122490630Y-90375000D01*
X122589370Y-90375000D01*
X122684745Y-90349444D01*
X122770255Y-90300075D01*
X122790000Y-90280330D01*
X122790000Y-91220352D01*
X122838974Y-91210612D01*
X122838983Y-91210609D01*
X123025513Y-91133347D01*
X123025526Y-91133340D01*
X123193399Y-91021170D01*
X123193403Y-91021167D01*
X123336167Y-90878403D01*
X123336170Y-90878399D01*
X123448340Y-90710526D01*
X123448347Y-90710513D01*
X123525609Y-90523983D01*
X123525612Y-90523974D01*
X123564999Y-90325958D01*
X123565000Y-90325955D01*
X123565000Y-90250000D01*
X122820330Y-90250000D01*
X122840075Y-90230255D01*
X122889444Y-90144745D01*
X122915000Y-90049370D01*
X122915000Y-89950630D01*
X122889444Y-89855255D01*
X122840075Y-89769745D01*
X122820330Y-89750000D01*
X123565000Y-89750000D01*
X123565000Y-89674045D01*
X123564999Y-89674041D01*
X123525612Y-89476025D01*
X123525609Y-89476016D01*
X123448347Y-89289486D01*
X123448340Y-89289473D01*
X123336170Y-89121600D01*
X123336167Y-89121596D01*
X123193403Y-88978832D01*
X123193399Y-88978829D01*
X123025526Y-88866659D01*
X123025513Y-88866652D01*
X122838984Y-88789390D01*
X122838977Y-88789388D01*
X122790000Y-88779645D01*
X122790000Y-89719670D01*
X122770255Y-89699925D01*
X122684745Y-89650556D01*
X122589370Y-89625000D01*
X122490630Y-89625000D01*
X122395255Y-89650556D01*
X122309745Y-89699925D01*
X122290000Y-89719670D01*
X122290000Y-88779646D01*
X122289999Y-88779645D01*
X122241022Y-88789388D01*
X122241015Y-88789390D01*
X122054483Y-88866654D01*
X121973890Y-88920504D01*
X121907212Y-88941381D01*
X121839832Y-88922896D01*
X121836110Y-88920504D01*
X121755516Y-88866654D01*
X121568984Y-88789390D01*
X121568977Y-88789388D01*
X121520000Y-88779645D01*
X121520000Y-89719670D01*
X121500255Y-89699925D01*
X121414745Y-89650556D01*
X121319370Y-89625000D01*
X121220630Y-89625000D01*
X121125255Y-89650556D01*
X121039745Y-89699925D01*
X121025499Y-89714170D01*
X121025499Y-89202128D01*
X121020710Y-89157577D01*
X121020000Y-89144324D01*
X121020000Y-88779646D01*
X121019999Y-88779645D01*
X120971022Y-88789388D01*
X120971015Y-88789390D01*
X120890663Y-88822673D01*
X120821193Y-88830142D01*
X120775277Y-88810154D01*
X120775114Y-88810454D01*
X120771766Y-88808626D01*
X120768899Y-88807377D01*
X120767331Y-88806204D01*
X120767330Y-88806203D01*
X120767328Y-88806202D01*
X120632482Y-88755908D01*
X120632483Y-88755908D01*
X120572883Y-88749501D01*
X120572881Y-88749500D01*
X120572873Y-88749500D01*
X120572864Y-88749500D01*
X119427129Y-88749500D01*
X119427123Y-88749501D01*
X119367516Y-88755908D01*
X119232671Y-88806202D01*
X119232664Y-88806206D01*
X119117455Y-88892452D01*
X119117452Y-88892455D01*
X119031206Y-89007664D01*
X119031202Y-89007671D01*
X118980908Y-89142517D01*
X118974501Y-89202116D01*
X118974501Y-89202123D01*
X118974500Y-89202135D01*
X118974500Y-89349787D01*
X118954815Y-89416826D01*
X118912500Y-89457174D01*
X118804587Y-89519477D01*
X118804582Y-89519481D01*
X118692781Y-89631282D01*
X118692775Y-89631290D01*
X118613726Y-89768209D01*
X118613723Y-89768216D01*
X118572800Y-89920943D01*
X118572800Y-90020403D01*
X118553115Y-90087442D01*
X118536481Y-90108084D01*
X117856139Y-90788425D01*
X117794816Y-90821910D01*
X117792650Y-90822361D01*
X117637308Y-90853261D01*
X117637298Y-90853264D01*
X117491627Y-90913602D01*
X117491614Y-90913609D01*
X117360511Y-91001210D01*
X117360507Y-91001213D01*
X117249013Y-91112707D01*
X117249010Y-91112711D01*
X117161409Y-91243814D01*
X117161402Y-91243827D01*
X117101064Y-91389498D01*
X117101061Y-91389510D01*
X117070300Y-91544153D01*
X78655088Y-91544153D01*
X66749290Y-79638355D01*
X66749288Y-79638352D01*
X66630417Y-79519481D01*
X66630416Y-79519480D01*
X66543604Y-79469360D01*
X66493485Y-79440423D01*
X66357508Y-79403987D01*
X66352510Y-79402177D01*
X66328454Y-79384521D01*
X66302989Y-79368999D01*
X66298550Y-79362573D01*
X66296183Y-79360836D01*
X66294724Y-79357034D01*
X66284258Y-79341884D01*
X66272286Y-79318388D01*
X66151971Y-79152786D01*
X66007213Y-79008028D01*
X65841613Y-78887715D01*
X65841612Y-78887714D01*
X65841610Y-78887713D01*
X65784653Y-78858691D01*
X65659223Y-78794781D01*
X65464534Y-78731522D01*
X65289995Y-78703878D01*
X65262352Y-78699500D01*
X65057648Y-78699500D01*
X65033329Y-78703351D01*
X64855465Y-78731522D01*
X64660776Y-78794781D01*
X64478386Y-78887715D01*
X64312786Y-79008028D01*
X64168028Y-79152786D01*
X64047715Y-79318386D01*
X63954781Y-79500776D01*
X63891522Y-79695465D01*
X63859500Y-79897648D01*
X56300500Y-79897648D01*
X56292257Y-79845606D01*
X56268477Y-79695465D01*
X56211517Y-79520161D01*
X56205220Y-79500781D01*
X56205218Y-79500778D01*
X56205218Y-79500776D01*
X56171503Y-79434607D01*
X56112287Y-79318390D01*
X56104556Y-79307749D01*
X55991971Y-79152786D01*
X55847213Y-79008028D01*
X55681613Y-78887715D01*
X55681612Y-78887714D01*
X55681610Y-78887713D01*
X55624653Y-78858691D01*
X55499223Y-78794781D01*
X55304534Y-78731522D01*
X55129995Y-78703878D01*
X55102352Y-78699500D01*
X54897648Y-78699500D01*
X54873329Y-78703351D01*
X54695465Y-78731522D01*
X54500776Y-78794781D01*
X54318386Y-78887715D01*
X54152786Y-79008028D01*
X54008028Y-79152786D01*
X53887715Y-79318386D01*
X53794781Y-79500776D01*
X53731522Y-79695465D01*
X53699500Y-79897648D01*
X47498114Y-79897648D01*
X46516372Y-77443292D01*
X45595047Y-75139980D01*
X45588426Y-75070425D01*
X45610978Y-75019528D01*
X45630241Y-74993845D01*
X49452389Y-69897648D01*
X78539500Y-69897648D01*
X78539500Y-70102351D01*
X78571522Y-70304534D01*
X78634781Y-70499223D01*
X78727715Y-70681613D01*
X78848028Y-70847213D01*
X78992786Y-70991971D01*
X79147749Y-71104556D01*
X79158390Y-71112287D01*
X79237864Y-71152781D01*
X79340776Y-71205218D01*
X79340778Y-71205218D01*
X79340781Y-71205220D01*
X79445137Y-71239127D01*
X79535465Y-71268477D01*
X79636557Y-71284488D01*
X79737648Y-71300500D01*
X79737649Y-71300500D01*
X79942351Y-71300500D01*
X79942352Y-71300500D01*
X80144534Y-71268477D01*
X80339219Y-71205220D01*
X80521610Y-71112287D01*
X80614590Y-71044732D01*
X80687213Y-70991971D01*
X80687215Y-70991968D01*
X80687219Y-70991966D01*
X80831966Y-70847219D01*
X80831968Y-70847215D01*
X80831971Y-70847213D01*
X80952284Y-70681614D01*
X80952285Y-70681613D01*
X80952287Y-70681610D01*
X80959117Y-70668204D01*
X81007091Y-70617409D01*
X81069602Y-70600500D01*
X87999903Y-70600500D01*
X88066942Y-70620185D01*
X88087584Y-70636819D01*
X97046231Y-79595466D01*
X97079716Y-79656789D01*
X97081023Y-79702544D01*
X97049500Y-79901576D01*
X97049500Y-80098422D01*
X97080290Y-80292826D01*
X97141117Y-80480029D01*
X97221315Y-80637426D01*
X97230476Y-80655405D01*
X97346172Y-80814646D01*
X97485354Y-80953828D01*
X97644595Y-81069524D01*
X97727455Y-81111743D01*
X97819970Y-81158882D01*
X97819972Y-81158882D01*
X97819975Y-81158884D01*
X97920317Y-81191487D01*
X98007173Y-81219709D01*
X98201578Y-81250500D01*
X98201583Y-81250500D01*
X98398422Y-81250500D01*
X98592826Y-81219709D01*
X98637424Y-81205218D01*
X98780025Y-81158884D01*
X98955405Y-81069524D01*
X99114646Y-80953828D01*
X99253828Y-80814646D01*
X99369524Y-80655405D01*
X99458884Y-80480025D01*
X99519709Y-80292826D01*
X99527188Y-80245606D01*
X99550500Y-80098422D01*
X99550500Y-79901617D01*
X100450000Y-79901617D01*
X100450000Y-80098382D01*
X100480778Y-80292705D01*
X100541581Y-80479835D01*
X100630905Y-80655145D01*
X100656319Y-80690125D01*
X100656320Y-80690125D01*
X101300000Y-80046445D01*
X101300000Y-80052661D01*
X101327259Y-80154394D01*
X101379920Y-80245606D01*
X101454394Y-80320080D01*
X101545606Y-80372741D01*
X101647339Y-80400000D01*
X101653553Y-80400000D01*
X101009873Y-81043677D01*
X101009873Y-81043678D01*
X101044858Y-81069096D01*
X101220164Y-81158418D01*
X101407294Y-81219221D01*
X101601618Y-81250000D01*
X101798382Y-81250000D01*
X101992705Y-81219221D01*
X102179835Y-81158418D01*
X102355143Y-81069095D01*
X102390125Y-81043678D01*
X102390126Y-81043678D01*
X101746448Y-80400000D01*
X101752661Y-80400000D01*
X101854394Y-80372741D01*
X101945606Y-80320080D01*
X102020080Y-80245606D01*
X102072741Y-80154394D01*
X102100000Y-80052661D01*
X102100000Y-80046448D01*
X102743678Y-80690126D01*
X102743678Y-80690125D01*
X102769095Y-80655143D01*
X102858418Y-80479835D01*
X102919221Y-80292705D01*
X102950000Y-80098382D01*
X102950000Y-79901625D01*
X102949998Y-79901609D01*
X102949371Y-79897648D01*
X133539500Y-79897648D01*
X133539500Y-80102351D01*
X133571522Y-80304534D01*
X133634781Y-80499223D01*
X133685021Y-80597822D01*
X133714228Y-80655145D01*
X133727715Y-80681613D01*
X133848028Y-80847213D01*
X133992786Y-80991971D01*
X134099531Y-81069524D01*
X134158390Y-81112287D01*
X134248927Y-81158418D01*
X134340776Y-81205218D01*
X134340778Y-81205218D01*
X134340781Y-81205220D01*
X134383872Y-81219221D01*
X134535465Y-81268477D01*
X134636557Y-81284488D01*
X134737648Y-81300500D01*
X134737649Y-81300500D01*
X134942351Y-81300500D01*
X134942352Y-81300500D01*
X135144534Y-81268477D01*
X135339219Y-81205220D01*
X135521610Y-81112287D01*
X135616044Y-81043677D01*
X135687213Y-80991971D01*
X135687215Y-80991968D01*
X135687219Y-80991966D01*
X135831966Y-80847219D01*
X135831968Y-80847215D01*
X135831971Y-80847213D01*
X135884732Y-80774590D01*
X135952287Y-80681610D01*
X136045220Y-80499219D01*
X136108477Y-80304534D01*
X136140500Y-80102352D01*
X136140500Y-79897648D01*
X136132257Y-79845606D01*
X136108477Y-79695465D01*
X136051517Y-79520161D01*
X136045220Y-79500781D01*
X136045218Y-79500778D01*
X136045218Y-79500776D01*
X136011503Y-79434607D01*
X135952287Y-79318390D01*
X135944556Y-79307749D01*
X135831971Y-79152786D01*
X135687213Y-79008028D01*
X135521613Y-78887715D01*
X135521612Y-78887714D01*
X135521610Y-78887713D01*
X135464653Y-78858691D01*
X135339223Y-78794781D01*
X135144534Y-78731522D01*
X134969995Y-78703878D01*
X134942352Y-78699500D01*
X134737648Y-78699500D01*
X134713329Y-78703351D01*
X134535465Y-78731522D01*
X134340776Y-78794781D01*
X134158386Y-78887715D01*
X133992786Y-79008028D01*
X133848028Y-79152786D01*
X133727715Y-79318386D01*
X133634781Y-79500776D01*
X133571522Y-79695465D01*
X133539500Y-79897648D01*
X102949371Y-79897648D01*
X102919221Y-79707294D01*
X102858418Y-79520164D01*
X102769096Y-79344858D01*
X102743678Y-79309873D01*
X102743677Y-79309873D01*
X102100000Y-79953551D01*
X102100000Y-79947339D01*
X102072741Y-79845606D01*
X102020080Y-79754394D01*
X101945606Y-79679920D01*
X101854394Y-79627259D01*
X101752661Y-79600000D01*
X101746447Y-79600000D01*
X102390125Y-78956320D01*
X102390125Y-78956319D01*
X102355145Y-78930905D01*
X102179835Y-78841581D01*
X101992705Y-78780778D01*
X101798382Y-78750000D01*
X101601618Y-78750000D01*
X101407294Y-78780778D01*
X101220161Y-78841582D01*
X101044863Y-78930899D01*
X101044859Y-78930902D01*
X101009873Y-78956320D01*
X101009872Y-78956320D01*
X101653554Y-79600000D01*
X101647339Y-79600000D01*
X101545606Y-79627259D01*
X101454394Y-79679920D01*
X101379920Y-79754394D01*
X101327259Y-79845606D01*
X101300000Y-79947339D01*
X101300000Y-79953552D01*
X100656320Y-79309872D01*
X100656320Y-79309873D01*
X100630902Y-79344859D01*
X100630899Y-79344863D01*
X100541582Y-79520161D01*
X100480778Y-79707294D01*
X100450000Y-79901617D01*
X99550500Y-79901617D01*
X99550500Y-79901577D01*
X99519709Y-79707173D01*
X99458882Y-79519970D01*
X99375862Y-79357034D01*
X99369524Y-79344595D01*
X99253828Y-79185354D01*
X99114646Y-79046172D01*
X98955405Y-78930476D01*
X98780029Y-78841117D01*
X98592826Y-78780290D01*
X98398422Y-78749500D01*
X98398417Y-78749500D01*
X98201583Y-78749500D01*
X98201577Y-78749500D01*
X98002544Y-78781023D01*
X97933251Y-78772068D01*
X97895466Y-78746231D01*
X96003388Y-76854153D01*
X123027100Y-76854153D01*
X123027100Y-77011846D01*
X123057861Y-77166489D01*
X123057864Y-77166501D01*
X123118202Y-77312172D01*
X123118209Y-77312185D01*
X123205810Y-77443288D01*
X123205813Y-77443292D01*
X123317307Y-77554786D01*
X123317311Y-77554789D01*
X123448414Y-77642390D01*
X123448427Y-77642397D01*
X123594098Y-77702735D01*
X123594103Y-77702737D01*
X123748753Y-77733499D01*
X123748756Y-77733500D01*
X123748758Y-77733500D01*
X123906444Y-77733500D01*
X123906445Y-77733499D01*
X124061097Y-77702737D01*
X124206779Y-77642394D01*
X124206785Y-77642390D01*
X124338475Y-77554398D01*
X124405153Y-77533520D01*
X124407366Y-77533500D01*
X140531203Y-77533500D01*
X140598242Y-77553185D01*
X140618884Y-77569819D01*
X143413439Y-80364374D01*
X143413449Y-80364385D01*
X143417779Y-80368715D01*
X143417780Y-80368716D01*
X143529584Y-80480520D01*
X143616395Y-80530639D01*
X143666515Y-80559577D01*
X143802494Y-80596013D01*
X143807488Y-80597822D01*
X143831536Y-80615471D01*
X143857010Y-80630999D01*
X143861450Y-80637426D01*
X143863816Y-80639163D01*
X143865274Y-80642962D01*
X143875740Y-80658113D01*
X143887713Y-80681611D01*
X144008028Y-80847213D01*
X144152786Y-80991971D01*
X144259531Y-81069524D01*
X144318390Y-81112287D01*
X144408927Y-81158418D01*
X144500776Y-81205218D01*
X144500778Y-81205218D01*
X144500781Y-81205220D01*
X144543872Y-81219221D01*
X144695465Y-81268477D01*
X144796557Y-81284488D01*
X144897648Y-81300500D01*
X144897649Y-81300500D01*
X145102351Y-81300500D01*
X145102352Y-81300500D01*
X145304534Y-81268477D01*
X145499219Y-81205220D01*
X145681610Y-81112287D01*
X145776044Y-81043677D01*
X145847213Y-80991971D01*
X145847215Y-80991968D01*
X145847219Y-80991966D01*
X145991966Y-80847219D01*
X145991968Y-80847215D01*
X145991971Y-80847213D01*
X146044732Y-80774590D01*
X146112287Y-80681610D01*
X146205220Y-80499219D01*
X146268477Y-80304534D01*
X146300500Y-80102352D01*
X146300500Y-79897648D01*
X146292257Y-79845606D01*
X146268477Y-79695465D01*
X146211517Y-79520161D01*
X146205220Y-79500781D01*
X146205218Y-79500778D01*
X146205218Y-79500776D01*
X146171503Y-79434607D01*
X146112287Y-79318390D01*
X146104556Y-79307749D01*
X145991971Y-79152786D01*
X145847213Y-79008028D01*
X145681613Y-78887715D01*
X145681612Y-78887714D01*
X145681610Y-78887713D01*
X145624653Y-78858691D01*
X145499223Y-78794781D01*
X145304534Y-78731522D01*
X145129995Y-78703878D01*
X145102352Y-78699500D01*
X144897648Y-78699500D01*
X144873329Y-78703351D01*
X144695465Y-78731522D01*
X144500776Y-78794781D01*
X144318386Y-78887715D01*
X144152786Y-79008028D01*
X144152782Y-79008032D01*
X144041856Y-79118959D01*
X143980533Y-79152444D01*
X143910841Y-79147460D01*
X143866494Y-79118959D01*
X141318890Y-76571355D01*
X141318888Y-76571352D01*
X141200017Y-76452481D01*
X141200016Y-76452480D01*
X141113204Y-76402360D01*
X141113204Y-76402359D01*
X141113200Y-76402358D01*
X141063085Y-76373423D01*
X140910357Y-76332499D01*
X140752243Y-76332499D01*
X140744647Y-76332499D01*
X140744631Y-76332500D01*
X124407366Y-76332500D01*
X124340327Y-76312815D01*
X124338475Y-76311602D01*
X124206785Y-76223609D01*
X124206772Y-76223602D01*
X124061101Y-76163264D01*
X124061089Y-76163261D01*
X123906445Y-76132500D01*
X123906442Y-76132500D01*
X123748758Y-76132500D01*
X123748755Y-76132500D01*
X123594110Y-76163261D01*
X123594098Y-76163264D01*
X123448427Y-76223602D01*
X123448414Y-76223609D01*
X123317311Y-76311210D01*
X123317307Y-76311213D01*
X123205813Y-76422707D01*
X123205810Y-76422711D01*
X123118209Y-76553814D01*
X123118202Y-76553827D01*
X123057864Y-76699498D01*
X123057861Y-76699510D01*
X123027100Y-76854153D01*
X96003388Y-76854153D01*
X91046883Y-71897648D01*
X98699500Y-71897648D01*
X98699500Y-72102351D01*
X98731522Y-72304534D01*
X98794781Y-72499223D01*
X98887715Y-72681613D01*
X99008028Y-72847213D01*
X99152786Y-72991971D01*
X99307749Y-73104556D01*
X99318390Y-73112287D01*
X99434607Y-73171503D01*
X99500776Y-73205218D01*
X99500778Y-73205218D01*
X99500781Y-73205220D01*
X99605137Y-73239127D01*
X99695465Y-73268477D01*
X99796557Y-73284488D01*
X99897648Y-73300500D01*
X99897649Y-73300500D01*
X100102351Y-73300500D01*
X100102352Y-73300500D01*
X100304534Y-73268477D01*
X100499219Y-73205220D01*
X100681610Y-73112287D01*
X100774590Y-73044732D01*
X100847213Y-72991971D01*
X100847215Y-72991968D01*
X100847219Y-72991966D01*
X100991966Y-72847219D01*
X100991968Y-72847215D01*
X100991971Y-72847213D01*
X101044732Y-72774590D01*
X101112287Y-72681610D01*
X101205220Y-72499219D01*
X101268477Y-72304534D01*
X101300500Y-72102352D01*
X101300500Y-71897648D01*
X101268477Y-71695466D01*
X101205220Y-71500781D01*
X101205218Y-71500778D01*
X101205218Y-71500776D01*
X101141012Y-71374766D01*
X101112287Y-71318390D01*
X101099289Y-71300500D01*
X100991971Y-71152786D01*
X100847213Y-71008028D01*
X100681613Y-70887715D01*
X100681612Y-70887714D01*
X100681610Y-70887713D01*
X100624653Y-70858691D01*
X100499223Y-70794781D01*
X100304534Y-70731522D01*
X100129995Y-70703878D01*
X100102352Y-70699500D01*
X99897648Y-70699500D01*
X99873329Y-70703351D01*
X99695465Y-70731522D01*
X99500776Y-70794781D01*
X99318386Y-70887715D01*
X99152786Y-71008028D01*
X99008028Y-71152786D01*
X98887715Y-71318386D01*
X98794781Y-71500776D01*
X98731522Y-71695465D01*
X98699500Y-71897648D01*
X91046883Y-71897648D01*
X90524001Y-71374766D01*
X90490516Y-71313443D01*
X90495500Y-71243751D01*
X90537372Y-71187818D01*
X90555384Y-71176602D01*
X90681610Y-71112287D01*
X90731144Y-71076298D01*
X90847213Y-70991971D01*
X90847215Y-70991968D01*
X90847219Y-70991966D01*
X90991966Y-70847219D01*
X90991968Y-70847215D01*
X90991971Y-70847213D01*
X91099289Y-70699500D01*
X91112287Y-70681610D01*
X91205220Y-70499219D01*
X91268477Y-70304534D01*
X91300500Y-70102352D01*
X91300500Y-69897648D01*
X108539500Y-69897648D01*
X108539500Y-70102351D01*
X108571522Y-70304534D01*
X108634781Y-70499223D01*
X108727715Y-70681613D01*
X108848028Y-70847213D01*
X108992786Y-70991971D01*
X109147749Y-71104556D01*
X109158390Y-71112287D01*
X109237864Y-71152781D01*
X109340776Y-71205218D01*
X109340778Y-71205218D01*
X109340781Y-71205220D01*
X109445137Y-71239127D01*
X109535465Y-71268477D01*
X109636557Y-71284488D01*
X109737648Y-71300500D01*
X109737649Y-71300500D01*
X109942351Y-71300500D01*
X109942352Y-71300500D01*
X110144534Y-71268477D01*
X110339219Y-71205220D01*
X110521610Y-71112287D01*
X110614590Y-71044732D01*
X110687213Y-70991971D01*
X110687215Y-70991968D01*
X110687219Y-70991966D01*
X110831966Y-70847219D01*
X110831968Y-70847215D01*
X110831971Y-70847213D01*
X110939289Y-70699500D01*
X110952287Y-70681610D01*
X111045220Y-70499219D01*
X111108477Y-70304534D01*
X111140500Y-70102352D01*
X111140500Y-69897648D01*
X118699500Y-69897648D01*
X118699500Y-70102351D01*
X118731522Y-70304534D01*
X118794781Y-70499223D01*
X118887715Y-70681613D01*
X119008028Y-70847213D01*
X119152786Y-70991971D01*
X119307749Y-71104556D01*
X119318390Y-71112287D01*
X119397864Y-71152781D01*
X119500776Y-71205218D01*
X119500778Y-71205218D01*
X119500781Y-71205220D01*
X119605137Y-71239127D01*
X119695465Y-71268477D01*
X119796557Y-71284488D01*
X119897648Y-71300500D01*
X119897649Y-71300500D01*
X120102351Y-71300500D01*
X120102352Y-71300500D01*
X120304534Y-71268477D01*
X120499219Y-71205220D01*
X120681610Y-71112287D01*
X120774590Y-71044732D01*
X120847213Y-70991971D01*
X120847215Y-70991968D01*
X120847219Y-70991966D01*
X120991966Y-70847219D01*
X120991968Y-70847215D01*
X120991971Y-70847213D01*
X121099289Y-70699500D01*
X121112287Y-70681610D01*
X121205220Y-70499219D01*
X121268477Y-70304534D01*
X121300500Y-70102352D01*
X121300500Y-69897648D01*
X121268477Y-69695466D01*
X121205220Y-69500781D01*
X121205218Y-69500778D01*
X121205218Y-69500776D01*
X121171503Y-69434607D01*
X121112287Y-69318390D01*
X121104556Y-69307749D01*
X120991971Y-69152786D01*
X120847213Y-69008028D01*
X120681613Y-68887715D01*
X120681612Y-68887714D01*
X120681610Y-68887713D01*
X120624653Y-68858691D01*
X120499223Y-68794781D01*
X120304534Y-68731522D01*
X120129995Y-68703878D01*
X120102352Y-68699500D01*
X119897648Y-68699500D01*
X119873329Y-68703351D01*
X119695465Y-68731522D01*
X119500776Y-68794781D01*
X119318386Y-68887715D01*
X119152786Y-69008028D01*
X119008028Y-69152786D01*
X118887715Y-69318386D01*
X118794781Y-69500776D01*
X118731522Y-69695465D01*
X118699500Y-69897648D01*
X111140500Y-69897648D01*
X111108477Y-69695466D01*
X111103825Y-69681151D01*
X111101832Y-69611312D01*
X111134075Y-69555158D01*
X112356216Y-68333019D01*
X112417539Y-68299534D01*
X112443897Y-68296700D01*
X132217131Y-68296700D01*
X132217147Y-68296701D01*
X132224743Y-68296701D01*
X132382854Y-68296701D01*
X132382857Y-68296701D01*
X132535585Y-68255777D01*
X132585704Y-68226839D01*
X132672516Y-68176720D01*
X132784320Y-68064916D01*
X132784320Y-68064914D01*
X132794528Y-68054707D01*
X132794530Y-68054704D01*
X134475797Y-66373436D01*
X134537118Y-66339953D01*
X134601794Y-66343188D01*
X134672049Y-66366015D01*
X134889778Y-66400500D01*
X134889779Y-66400500D01*
X135110221Y-66400500D01*
X135110222Y-66400500D01*
X135327951Y-66366015D01*
X135537606Y-66297895D01*
X135734022Y-66197815D01*
X135912365Y-66068242D01*
X136068242Y-65912365D01*
X136197815Y-65734022D01*
X136297895Y-65537606D01*
X136366015Y-65327951D01*
X136400500Y-65110222D01*
X136400500Y-64889778D01*
X136366015Y-64672049D01*
X136331955Y-64567221D01*
X136297896Y-64462396D01*
X136297895Y-64462393D01*
X136263237Y-64394375D01*
X136197815Y-64265978D01*
X136181260Y-64243192D01*
X136068247Y-64087641D01*
X136068243Y-64087636D01*
X135912363Y-63931756D01*
X135912358Y-63931752D01*
X135734025Y-63802187D01*
X135734024Y-63802186D01*
X135734022Y-63802185D01*
X135671096Y-63770122D01*
X135537606Y-63702104D01*
X135537603Y-63702103D01*
X135327952Y-63633985D01*
X135219086Y-63616742D01*
X135110222Y-63599500D01*
X134889778Y-63599500D01*
X134817201Y-63610995D01*
X134672047Y-63633985D01*
X134462396Y-63702103D01*
X134462393Y-63702104D01*
X134265974Y-63802187D01*
X134087641Y-63931752D01*
X134087636Y-63931756D01*
X134037075Y-63982317D01*
X133975752Y-64015801D01*
X133906060Y-64010816D01*
X133850127Y-63968945D01*
X133833213Y-63937968D01*
X133803354Y-63857913D01*
X133803350Y-63857906D01*
X133717190Y-63742812D01*
X133717187Y-63742809D01*
X133602093Y-63656649D01*
X133602086Y-63656645D01*
X133467379Y-63606403D01*
X133467372Y-63606401D01*
X133407844Y-63600000D01*
X132710000Y-63600000D01*
X132710000Y-64624722D01*
X132633694Y-64580667D01*
X132519244Y-64550000D01*
X132400756Y-64550000D01*
X132286306Y-64580667D01*
X132210000Y-64624722D01*
X132210000Y-63600000D01*
X131512155Y-63600000D01*
X131452627Y-63606401D01*
X131452620Y-63606403D01*
X131317913Y-63656645D01*
X131317906Y-63656649D01*
X131202812Y-63742809D01*
X131202809Y-63742812D01*
X131116649Y-63857906D01*
X131116645Y-63857913D01*
X131066403Y-63992620D01*
X131066401Y-63992627D01*
X131060000Y-64052155D01*
X131060000Y-64750000D01*
X132084722Y-64750000D01*
X132040667Y-64826306D01*
X132010000Y-64940756D01*
X132010000Y-65059244D01*
X132040667Y-65173694D01*
X132084722Y-65250000D01*
X131060000Y-65250000D01*
X131060000Y-65947844D01*
X131066401Y-66007372D01*
X131066403Y-66007379D01*
X131116645Y-66142086D01*
X131116649Y-66142093D01*
X131202809Y-66257187D01*
X131202812Y-66257190D01*
X131317906Y-66343350D01*
X131317913Y-66343354D01*
X131452620Y-66393596D01*
X131452627Y-66393598D01*
X131512155Y-66399999D01*
X131512172Y-66400000D01*
X132210000Y-66400000D01*
X132210000Y-65375277D01*
X132286306Y-65419333D01*
X132400756Y-65450000D01*
X132519244Y-65450000D01*
X132633694Y-65419333D01*
X132710000Y-65375277D01*
X132710000Y-66389403D01*
X132690315Y-66456442D01*
X132673681Y-66477084D01*
X132091384Y-67059381D01*
X132030061Y-67092866D01*
X132003703Y-67095700D01*
X112222857Y-67095700D01*
X112064742Y-67095700D01*
X111912015Y-67136623D01*
X111912014Y-67136623D01*
X111912012Y-67136624D01*
X111912009Y-67136625D01*
X111861896Y-67165559D01*
X111861895Y-67165560D01*
X111818489Y-67190620D01*
X111775085Y-67215679D01*
X111775082Y-67215681D01*
X111663278Y-67327486D01*
X110284842Y-68705921D01*
X110223519Y-68739406D01*
X110158848Y-68736173D01*
X110144534Y-68731522D01*
X109969995Y-68703878D01*
X109942352Y-68699500D01*
X109737648Y-68699500D01*
X109713329Y-68703351D01*
X109535465Y-68731522D01*
X109340776Y-68794781D01*
X109158386Y-68887715D01*
X108992786Y-69008028D01*
X108848028Y-69152786D01*
X108727715Y-69318386D01*
X108634781Y-69500776D01*
X108571522Y-69695465D01*
X108539500Y-69897648D01*
X91300500Y-69897648D01*
X91268477Y-69695466D01*
X91205220Y-69500781D01*
X91205218Y-69500778D01*
X91205218Y-69500776D01*
X91171503Y-69434607D01*
X91112287Y-69318390D01*
X91104556Y-69307749D01*
X90991971Y-69152786D01*
X90847213Y-69008028D01*
X90681613Y-68887715D01*
X90681612Y-68887714D01*
X90681610Y-68887713D01*
X90624653Y-68858691D01*
X90499223Y-68794781D01*
X90304534Y-68731522D01*
X90129995Y-68703878D01*
X90102352Y-68699500D01*
X89897648Y-68699500D01*
X89873329Y-68703351D01*
X89695465Y-68731522D01*
X89500776Y-68794781D01*
X89318386Y-68887715D01*
X89152786Y-69008028D01*
X89008028Y-69152786D01*
X88887712Y-69318389D01*
X88887711Y-69318391D01*
X88818084Y-69455041D01*
X88809641Y-69463979D01*
X88805072Y-69475395D01*
X88786102Y-69488904D01*
X88770110Y-69505837D01*
X88758174Y-69508792D01*
X88748159Y-69515925D01*
X88724896Y-69517033D01*
X88702289Y-69522632D01*
X88688940Y-69518747D01*
X88678369Y-69519251D01*
X88645608Y-69506136D01*
X88645603Y-69506135D01*
X88592357Y-69475395D01*
X88581904Y-69469360D01*
X88581902Y-69469358D01*
X88581901Y-69469358D01*
X88531785Y-69440423D01*
X88379057Y-69399499D01*
X88220943Y-69399499D01*
X88213347Y-69399499D01*
X88213331Y-69399500D01*
X81069602Y-69399500D01*
X81002563Y-69379815D01*
X80959117Y-69331795D01*
X80952287Y-69318390D01*
X80952285Y-69318387D01*
X80952284Y-69318385D01*
X80831971Y-69152786D01*
X80687213Y-69008028D01*
X80521613Y-68887715D01*
X80521612Y-68887714D01*
X80521610Y-68887713D01*
X80464653Y-68858691D01*
X80339223Y-68794781D01*
X80144534Y-68731522D01*
X79969995Y-68703878D01*
X79942352Y-68699500D01*
X79737648Y-68699500D01*
X79713329Y-68703351D01*
X79535465Y-68731522D01*
X79340776Y-68794781D01*
X79158386Y-68887715D01*
X78992786Y-69008028D01*
X78848028Y-69152786D01*
X78727715Y-69318386D01*
X78634781Y-69500776D01*
X78571522Y-69695465D01*
X78539500Y-69897648D01*
X49452389Y-69897648D01*
X53836508Y-64052155D01*
X63600000Y-64052155D01*
X63600000Y-64750000D01*
X64624722Y-64750000D01*
X64580667Y-64826306D01*
X64550000Y-64940756D01*
X64550000Y-65059244D01*
X64580667Y-65173694D01*
X64624722Y-65250000D01*
X63600000Y-65250000D01*
X63600000Y-65947844D01*
X63606401Y-66007372D01*
X63606403Y-66007379D01*
X63656645Y-66142086D01*
X63656649Y-66142093D01*
X63742809Y-66257187D01*
X63742812Y-66257190D01*
X63857906Y-66343350D01*
X63857913Y-66343354D01*
X63992620Y-66393596D01*
X63992627Y-66393598D01*
X64052155Y-66399999D01*
X64052172Y-66400000D01*
X64750000Y-66400000D01*
X64750000Y-65375277D01*
X64826306Y-65419333D01*
X64940756Y-65450000D01*
X65059244Y-65450000D01*
X65173694Y-65419333D01*
X65250000Y-65375277D01*
X65250000Y-66400000D01*
X65947828Y-66400000D01*
X65947844Y-66399999D01*
X66007372Y-66393598D01*
X66007379Y-66393596D01*
X66142086Y-66343354D01*
X66142093Y-66343350D01*
X66257187Y-66257190D01*
X66257190Y-66257187D01*
X66343350Y-66142093D01*
X66343354Y-66142086D01*
X66373213Y-66062031D01*
X66415084Y-66006097D01*
X66480548Y-65981680D01*
X66548821Y-65996531D01*
X66577076Y-66017683D01*
X66627636Y-66068243D01*
X66627641Y-66068247D01*
X66783192Y-66181260D01*
X66805978Y-66197815D01*
X66922501Y-66257187D01*
X67002393Y-66297895D01*
X67002396Y-66297896D01*
X67069525Y-66319707D01*
X67212049Y-66366015D01*
X67429778Y-66400500D01*
X67429779Y-66400500D01*
X67650221Y-66400500D01*
X67650222Y-66400500D01*
X67867951Y-66366015D01*
X68077606Y-66297895D01*
X68274022Y-66197815D01*
X68452365Y-66068242D01*
X68608242Y-65912365D01*
X68737815Y-65734022D01*
X68837895Y-65537606D01*
X68906015Y-65327951D01*
X68940500Y-65110222D01*
X68940500Y-64889778D01*
X68906015Y-64672049D01*
X68871955Y-64567221D01*
X68837896Y-64462396D01*
X68837895Y-64462393D01*
X68803237Y-64394375D01*
X68737815Y-64265978D01*
X68721260Y-64243192D01*
X68608247Y-64087641D01*
X68608243Y-64087636D01*
X68452363Y-63931756D01*
X68452358Y-63931752D01*
X68274025Y-63802187D01*
X68274024Y-63802186D01*
X68274022Y-63802185D01*
X68211096Y-63770122D01*
X68077606Y-63702104D01*
X68077603Y-63702103D01*
X67867952Y-63633985D01*
X67759086Y-63616742D01*
X67650222Y-63599500D01*
X67429778Y-63599500D01*
X67357201Y-63610995D01*
X67212047Y-63633985D01*
X67002396Y-63702103D01*
X67002393Y-63702104D01*
X66805974Y-63802187D01*
X66627641Y-63931752D01*
X66627636Y-63931756D01*
X66577075Y-63982317D01*
X66515752Y-64015801D01*
X66446060Y-64010816D01*
X66390127Y-63968945D01*
X66373213Y-63937968D01*
X66343354Y-63857913D01*
X66343350Y-63857906D01*
X66257190Y-63742812D01*
X66257187Y-63742809D01*
X66142093Y-63656649D01*
X66142086Y-63656645D01*
X66007379Y-63606403D01*
X66007372Y-63606401D01*
X65947844Y-63600000D01*
X65250000Y-63600000D01*
X65250000Y-64624722D01*
X65173694Y-64580667D01*
X65059244Y-64550000D01*
X64940756Y-64550000D01*
X64826306Y-64580667D01*
X64750000Y-64624722D01*
X64750000Y-63600000D01*
X64052155Y-63600000D01*
X63992627Y-63606401D01*
X63992620Y-63606403D01*
X63857913Y-63656645D01*
X63857906Y-63656649D01*
X63742812Y-63742809D01*
X63742809Y-63742812D01*
X63656649Y-63857906D01*
X63656645Y-63857913D01*
X63606403Y-63992620D01*
X63606401Y-63992627D01*
X63600000Y-64052155D01*
X53836508Y-64052155D01*
X60151608Y-55632020D01*
X60207578Y-55590200D01*
X60277274Y-55585279D01*
X60280849Y-55586115D01*
G37*
G04 #@! TD.AperFunction*
M02*
