G04 #@! TF.GenerationSoftware,KiCad,Pcbnew,9.0.0*
G04 #@! TF.CreationDate,2025-04-26T20:35:03-04:00*
G04 #@! TF.ProjectId,mothers_day_necklace,6d6f7468-6572-4735-9f64-61795f6e6563,rev?*
G04 #@! TF.SameCoordinates,Original*
G04 #@! TF.FileFunction,Copper,L2,Bot*
G04 #@! TF.FilePolarity,Positive*
%FSLAX46Y46*%
G04 Gerber Fmt 4.6, Leading zero omitted, Abs format (unit mm)*
G04 Created by KiCad (PCBNEW 9.0.0) date 2025-04-26 20:35:03*
%MOMM*%
%LPD*%
G01*
G04 APERTURE LIST*
G04 #@! TA.AperFunction,ComponentPad*
%ADD10C,1.500000*%
G04 #@! TD*
G04 #@! TA.AperFunction,ComponentPad*
%ADD11O,1.050000X1.500000*%
G04 #@! TD*
G04 #@! TA.AperFunction,ComponentPad*
%ADD12R,1.050000X1.500000*%
G04 #@! TD*
G04 #@! TA.AperFunction,ComponentPad*
%ADD13C,1.600000*%
G04 #@! TD*
G04 #@! TA.AperFunction,ComponentPad*
%ADD14O,1.600000X1.600000*%
G04 #@! TD*
G04 #@! TA.AperFunction,ComponentPad*
%ADD15R,1.800000X1.800000*%
G04 #@! TD*
G04 #@! TA.AperFunction,ComponentPad*
%ADD16C,1.800000*%
G04 #@! TD*
G04 #@! TA.AperFunction,ComponentPad*
%ADD17R,1.600000X2.000000*%
G04 #@! TD*
G04 #@! TA.AperFunction,ComponentPad*
%ADD18O,1.600000X2.000000*%
G04 #@! TD*
G04 #@! TA.AperFunction,ViaPad*
%ADD19C,0.600000*%
G04 #@! TD*
G04 #@! TA.AperFunction,Conductor*
%ADD20C,0.200000*%
G04 #@! TD*
G04 APERTURE END LIST*
D10*
X98300000Y-80000000D03*
X101700000Y-80000000D03*
D11*
X122540000Y-90000000D03*
X121270000Y-90000000D03*
D12*
X120000000Y-90000000D03*
D13*
X79840000Y-70000000D03*
D14*
X90000000Y-70000000D03*
D13*
X55000000Y-80000000D03*
D14*
X65160000Y-80000000D03*
D13*
X74840000Y-115000000D03*
D14*
X85000000Y-115000000D03*
D13*
X115000000Y-115000000D03*
D14*
X125160000Y-115000000D03*
D13*
X134840000Y-80000000D03*
D14*
X145000000Y-80000000D03*
D13*
X109840000Y-70000000D03*
D14*
X120000000Y-70000000D03*
D15*
X65000000Y-65000000D03*
D16*
X67540000Y-65000000D03*
D15*
X65000000Y-100000000D03*
D16*
X67540000Y-100000000D03*
D15*
X100000000Y-130000000D03*
D16*
X102540000Y-130000000D03*
D15*
X135000000Y-100000000D03*
D16*
X137540000Y-100000000D03*
D15*
X132460000Y-65000000D03*
D16*
X135000000Y-65000000D03*
D17*
X89705000Y-94999900D03*
D18*
X110205000Y-94999900D03*
D19*
X103756300Y-128921700D03*
X82130000Y-103375000D03*
X117870800Y-91623000D03*
X123827600Y-76933000D03*
D20*
X137540000Y-82700000D02*
X137540000Y-100000000D01*
X134840000Y-80000000D02*
X137540000Y-82700000D01*
X103756300Y-126243700D02*
X115000000Y-115000000D01*
X103756300Y-128921700D02*
X103756300Y-126243700D01*
X74840000Y-110665000D02*
X74840000Y-115000000D01*
X82130000Y-103375000D02*
X74840000Y-110665000D01*
X67540000Y-67460000D02*
X67540000Y-65000000D01*
X55000000Y-80000000D02*
X67540000Y-67460000D01*
X109923000Y-91623000D02*
X98300000Y-80000000D01*
X117870800Y-91623000D02*
X109923000Y-91623000D01*
X90000000Y-75896600D02*
X90000000Y-70000000D01*
X109103300Y-94999900D02*
X90000000Y-75896600D01*
X110205000Y-94999900D02*
X109103300Y-94999900D01*
X88603300Y-110295000D02*
X85000000Y-113898300D01*
X88603300Y-94999900D02*
X88603300Y-110295000D01*
X89705000Y-94999900D02*
X88603300Y-94999900D01*
X85000000Y-115000000D02*
X85000000Y-113898300D01*
X120000000Y-70000000D02*
X120000000Y-71101700D01*
X125160000Y-115000000D02*
X125160000Y-81871200D01*
X125160000Y-81871200D02*
X125160000Y-81829900D01*
X125160000Y-81829900D02*
X125160000Y-80538800D01*
X125160000Y-76933000D02*
X123827600Y-76933000D01*
X125160000Y-80538800D02*
X125160000Y-76933000D01*
X123827600Y-74929300D02*
X120000000Y-71101700D01*
X123827600Y-76933000D02*
X123827600Y-74929300D01*
G04 #@! TA.AperFunction,Conductor*
G36*
X122239925Y-89769745D02*
G01*
X122190556Y-89855255D01*
X122165000Y-89950630D01*
X122165000Y-90049370D01*
X122190556Y-90144745D01*
X122239925Y-90230255D01*
X122259670Y-90250000D01*
X121550330Y-90250000D01*
X121570075Y-90230255D01*
X121619444Y-90144745D01*
X121645000Y-90049370D01*
X121645000Y-89950630D01*
X121619444Y-89855255D01*
X121570075Y-89769745D01*
X121550330Y-89750000D01*
X122259670Y-89750000D01*
X122239925Y-89769745D01*
G37*
G04 #@! TD.AperFunction*
G04 #@! TA.AperFunction,Conductor*
G36*
X60280849Y-55586115D02*
G01*
X79844101Y-60476928D01*
X79857558Y-60481118D01*
X89283378Y-64015801D01*
X99804415Y-67961190D01*
X99808357Y-67962668D01*
X99852878Y-67982905D01*
X99869850Y-67985728D01*
X99881141Y-67989962D01*
X99881142Y-67989963D01*
X99881145Y-67989964D01*
X99883718Y-67990928D01*
X99885959Y-67991769D01*
X99930448Y-67996095D01*
X99938761Y-67997190D01*
X99982875Y-68004529D01*
X99996515Y-68003201D01*
X100000004Y-68002862D01*
X100017124Y-68004528D01*
X100065354Y-67996504D01*
X100069515Y-67996100D01*
X100069531Y-67996098D01*
X100114041Y-67991769D01*
X100124780Y-67987741D01*
X100130151Y-67985726D01*
X100147122Y-67982905D01*
X100191640Y-67962669D01*
X110619675Y-64052155D01*
X131060000Y-64052155D01*
X131060000Y-64750000D01*
X132084722Y-64750000D01*
X132040667Y-64826306D01*
X132010000Y-64940756D01*
X132010000Y-65059244D01*
X132040667Y-65173694D01*
X132084722Y-65250000D01*
X131060000Y-65250000D01*
X131060000Y-65947844D01*
X131066401Y-66007372D01*
X131066403Y-66007379D01*
X131116645Y-66142086D01*
X131116649Y-66142093D01*
X131202809Y-66257187D01*
X131202812Y-66257190D01*
X131317906Y-66343350D01*
X131317913Y-66343354D01*
X131452620Y-66393596D01*
X131452627Y-66393598D01*
X131512155Y-66399999D01*
X131512172Y-66400000D01*
X132210000Y-66400000D01*
X132210000Y-65375277D01*
X132286306Y-65419333D01*
X132400756Y-65450000D01*
X132519244Y-65450000D01*
X132633694Y-65419333D01*
X132710000Y-65375277D01*
X132710000Y-66400000D01*
X133407828Y-66400000D01*
X133407844Y-66399999D01*
X133467372Y-66393598D01*
X133467379Y-66393596D01*
X133602086Y-66343354D01*
X133602093Y-66343350D01*
X133717187Y-66257190D01*
X133717190Y-66257187D01*
X133803350Y-66142093D01*
X133803354Y-66142086D01*
X133833213Y-66062031D01*
X133875084Y-66006097D01*
X133940548Y-65981680D01*
X134008821Y-65996531D01*
X134037076Y-66017683D01*
X134087636Y-66068243D01*
X134087641Y-66068247D01*
X134243192Y-66181260D01*
X134265978Y-66197815D01*
X134382501Y-66257187D01*
X134462393Y-66297895D01*
X134462396Y-66297896D01*
X134567221Y-66331955D01*
X134672049Y-66366015D01*
X134889778Y-66400500D01*
X134889779Y-66400500D01*
X135110221Y-66400500D01*
X135110222Y-66400500D01*
X135327951Y-66366015D01*
X135537606Y-66297895D01*
X135734022Y-66197815D01*
X135912365Y-66068242D01*
X136068242Y-65912365D01*
X136197815Y-65734022D01*
X136297895Y-65537606D01*
X136366015Y-65327951D01*
X136400500Y-65110222D01*
X136400500Y-64889778D01*
X136366015Y-64672049D01*
X136331955Y-64567221D01*
X136297896Y-64462396D01*
X136297895Y-64462393D01*
X136263237Y-64394375D01*
X136197815Y-64265978D01*
X136181260Y-64243192D01*
X136068247Y-64087641D01*
X136068243Y-64087636D01*
X135912363Y-63931756D01*
X135912358Y-63931752D01*
X135734025Y-63802187D01*
X135734024Y-63802186D01*
X135734022Y-63802185D01*
X135671096Y-63770122D01*
X135537606Y-63702104D01*
X135537603Y-63702103D01*
X135327952Y-63633985D01*
X135219086Y-63616742D01*
X135110222Y-63599500D01*
X134889778Y-63599500D01*
X134817201Y-63610995D01*
X134672047Y-63633985D01*
X134462396Y-63702103D01*
X134462393Y-63702104D01*
X134265974Y-63802187D01*
X134087641Y-63931752D01*
X134087636Y-63931756D01*
X134037075Y-63982317D01*
X133975752Y-64015801D01*
X133906060Y-64010816D01*
X133850127Y-63968945D01*
X133833213Y-63937968D01*
X133803354Y-63857913D01*
X133803350Y-63857906D01*
X133717190Y-63742812D01*
X133717187Y-63742809D01*
X133602093Y-63656649D01*
X133602086Y-63656645D01*
X133467379Y-63606403D01*
X133467372Y-63606401D01*
X133407844Y-63600000D01*
X132710000Y-63600000D01*
X132710000Y-64624722D01*
X132633694Y-64580667D01*
X132519244Y-64550000D01*
X132400756Y-64550000D01*
X132286306Y-64580667D01*
X132210000Y-64624722D01*
X132210000Y-63600000D01*
X131512155Y-63600000D01*
X131452627Y-63606401D01*
X131452620Y-63606403D01*
X131317913Y-63656645D01*
X131317906Y-63656649D01*
X131202812Y-63742809D01*
X131202809Y-63742812D01*
X131116649Y-63857906D01*
X131116645Y-63857913D01*
X131066403Y-63992620D01*
X131066401Y-63992627D01*
X131060000Y-64052155D01*
X110619675Y-64052155D01*
X120142447Y-60481115D01*
X120155894Y-60476928D01*
X139719119Y-55586123D01*
X139788929Y-55588961D01*
X139846124Y-55629091D01*
X139848391Y-55632021D01*
X154389020Y-75019528D01*
X154413496Y-75084970D01*
X154404951Y-75139980D01*
X144582902Y-99695104D01*
X144555452Y-99736733D01*
X124670552Y-119621632D01*
X124660333Y-119630779D01*
X100077461Y-139297077D01*
X100012815Y-139323585D01*
X99944100Y-139310935D01*
X99922537Y-139297077D01*
X90051191Y-131400000D01*
X87116385Y-129052155D01*
X98600000Y-129052155D01*
X98600000Y-129750000D01*
X99624722Y-129750000D01*
X99580667Y-129826306D01*
X99550000Y-129940756D01*
X99550000Y-130059244D01*
X99580667Y-130173694D01*
X99624722Y-130250000D01*
X98600000Y-130250000D01*
X98600000Y-130947844D01*
X98606401Y-131007372D01*
X98606403Y-131007379D01*
X98656645Y-131142086D01*
X98656649Y-131142093D01*
X98742809Y-131257187D01*
X98742812Y-131257190D01*
X98857906Y-131343350D01*
X98857913Y-131343354D01*
X98992620Y-131393596D01*
X98992627Y-131393598D01*
X99052155Y-131399999D01*
X99052172Y-131400000D01*
X99750000Y-131400000D01*
X99750000Y-130375277D01*
X99826306Y-130419333D01*
X99940756Y-130450000D01*
X100059244Y-130450000D01*
X100173694Y-130419333D01*
X100250000Y-130375277D01*
X100250000Y-131400000D01*
X100947828Y-131400000D01*
X100947844Y-131399999D01*
X101007372Y-131393598D01*
X101007379Y-131393596D01*
X101142086Y-131343354D01*
X101142093Y-131343350D01*
X101257187Y-131257190D01*
X101257190Y-131257187D01*
X101343350Y-131142093D01*
X101343354Y-131142086D01*
X101373213Y-131062031D01*
X101415084Y-131006097D01*
X101480548Y-130981680D01*
X101548821Y-130996531D01*
X101577076Y-131017683D01*
X101627636Y-131068243D01*
X101627641Y-131068247D01*
X101783192Y-131181260D01*
X101805978Y-131197815D01*
X101922501Y-131257187D01*
X102002393Y-131297895D01*
X102002396Y-131297896D01*
X102107221Y-131331955D01*
X102212049Y-131366015D01*
X102429778Y-131400500D01*
X102429779Y-131400500D01*
X102650221Y-131400500D01*
X102650222Y-131400500D01*
X102867951Y-131366015D01*
X103077606Y-131297895D01*
X103274022Y-131197815D01*
X103452365Y-131068242D01*
X103608242Y-130912365D01*
X103737815Y-130734022D01*
X103837895Y-130537606D01*
X103906015Y-130327951D01*
X103940500Y-130110222D01*
X103940500Y-129889778D01*
X103929346Y-129819358D01*
X103938300Y-129750068D01*
X103983296Y-129696615D01*
X104004354Y-129685406D01*
X104135479Y-129631094D01*
X104266589Y-129543489D01*
X104378089Y-129431989D01*
X104465694Y-129300879D01*
X104526037Y-129155197D01*
X104556800Y-129000542D01*
X104556800Y-128842858D01*
X104556800Y-128842855D01*
X104556799Y-128842853D01*
X104548710Y-128802187D01*
X104526037Y-128688203D01*
X104512967Y-128656649D01*
X104465697Y-128542527D01*
X104465690Y-128542514D01*
X104377698Y-128410825D01*
X104356820Y-128344147D01*
X104356800Y-128341934D01*
X104356800Y-126543796D01*
X104376485Y-126476757D01*
X104393114Y-126456120D01*
X114555158Y-116294075D01*
X114616479Y-116260592D01*
X114681151Y-116263825D01*
X114695466Y-116268477D01*
X114897648Y-116300500D01*
X114897649Y-116300500D01*
X115102351Y-116300500D01*
X115102352Y-116300500D01*
X115304534Y-116268477D01*
X115499219Y-116205220D01*
X115681610Y-116112287D01*
X115774590Y-116044732D01*
X115847213Y-115991971D01*
X115847215Y-115991968D01*
X115847219Y-115991966D01*
X115991966Y-115847219D01*
X115991968Y-115847215D01*
X115991971Y-115847213D01*
X116044732Y-115774590D01*
X116112287Y-115681610D01*
X116205220Y-115499219D01*
X116268477Y-115304534D01*
X116300500Y-115102352D01*
X116300500Y-114897648D01*
X116268477Y-114695466D01*
X116205220Y-114500781D01*
X116205218Y-114500778D01*
X116205218Y-114500776D01*
X116171503Y-114434607D01*
X116112287Y-114318390D01*
X116104556Y-114307749D01*
X115991971Y-114152786D01*
X115847213Y-114008028D01*
X115681613Y-113887715D01*
X115681612Y-113887714D01*
X115681610Y-113887713D01*
X115621354Y-113857011D01*
X115499223Y-113794781D01*
X115304534Y-113731522D01*
X115129995Y-113703878D01*
X115102352Y-113699500D01*
X114897648Y-113699500D01*
X114873329Y-113703351D01*
X114695465Y-113731522D01*
X114500776Y-113794781D01*
X114318386Y-113887715D01*
X114152786Y-114008028D01*
X114008028Y-114152786D01*
X113887715Y-114318386D01*
X113794781Y-114500776D01*
X113731522Y-114695465D01*
X113699500Y-114897648D01*
X113699500Y-115102351D01*
X113731522Y-115304534D01*
X113736173Y-115318848D01*
X113738165Y-115388690D01*
X113705921Y-115444842D01*
X103387586Y-125763178D01*
X103275781Y-125874982D01*
X103275779Y-125874985D01*
X103225661Y-125961794D01*
X103225659Y-125961796D01*
X103196725Y-126011909D01*
X103196724Y-126011910D01*
X103196723Y-126011915D01*
X103155799Y-126164643D01*
X103155799Y-126164645D01*
X103155799Y-126332746D01*
X103155800Y-126332759D01*
X103155800Y-128341934D01*
X103151123Y-128358457D01*
X103151438Y-128374535D01*
X103138597Y-128402715D01*
X103137407Y-128406921D01*
X103134856Y-128411065D01*
X103134511Y-128411411D01*
X103046906Y-128542521D01*
X103032373Y-128577606D01*
X103027197Y-128586018D01*
X103008281Y-128603067D01*
X102992308Y-128622888D01*
X102982767Y-128626063D01*
X102975298Y-128632796D01*
X102950170Y-128636912D01*
X102926014Y-128644952D01*
X102912581Y-128643069D01*
X102906347Y-128644091D01*
X102899882Y-128641290D01*
X102883276Y-128638963D01*
X102867954Y-128633985D01*
X102704654Y-128608121D01*
X102650222Y-128599500D01*
X102429778Y-128599500D01*
X102357201Y-128610995D01*
X102212047Y-128633985D01*
X102002396Y-128702103D01*
X102002393Y-128702104D01*
X101805974Y-128802187D01*
X101627641Y-128931752D01*
X101627636Y-128931756D01*
X101577075Y-128982317D01*
X101515752Y-129015801D01*
X101446060Y-129010816D01*
X101390127Y-128968945D01*
X101373213Y-128937968D01*
X101343354Y-128857913D01*
X101343350Y-128857906D01*
X101257190Y-128742812D01*
X101257187Y-128742809D01*
X101142093Y-128656649D01*
X101142086Y-128656645D01*
X101007379Y-128606403D01*
X101007372Y-128606401D01*
X100947844Y-128600000D01*
X100250000Y-128600000D01*
X100250000Y-129624722D01*
X100173694Y-129580667D01*
X100059244Y-129550000D01*
X99940756Y-129550000D01*
X99826306Y-129580667D01*
X99750000Y-129624722D01*
X99750000Y-128600000D01*
X99052155Y-128600000D01*
X98992627Y-128606401D01*
X98992620Y-128606403D01*
X98857913Y-128656645D01*
X98857906Y-128656649D01*
X98742812Y-128742809D01*
X98742809Y-128742812D01*
X98656649Y-128857906D01*
X98656645Y-128857913D01*
X98606403Y-128992620D01*
X98606401Y-128992627D01*
X98600000Y-129052155D01*
X87116385Y-129052155D01*
X75339661Y-119630776D01*
X75329443Y-119621630D01*
X70688270Y-114980457D01*
X70605461Y-114897648D01*
X73539500Y-114897648D01*
X73539500Y-115102351D01*
X73571522Y-115304534D01*
X73634781Y-115499223D01*
X73727715Y-115681613D01*
X73848028Y-115847213D01*
X73992786Y-115991971D01*
X74147749Y-116104556D01*
X74158390Y-116112287D01*
X74274607Y-116171503D01*
X74340776Y-116205218D01*
X74340778Y-116205218D01*
X74340781Y-116205220D01*
X74445137Y-116239127D01*
X74535465Y-116268477D01*
X74636557Y-116284488D01*
X74737648Y-116300500D01*
X74737649Y-116300500D01*
X74942351Y-116300500D01*
X74942352Y-116300500D01*
X75144534Y-116268477D01*
X75339219Y-116205220D01*
X75521610Y-116112287D01*
X75614590Y-116044732D01*
X75687213Y-115991971D01*
X75687215Y-115991968D01*
X75687219Y-115991966D01*
X75831966Y-115847219D01*
X75831968Y-115847215D01*
X75831971Y-115847213D01*
X75884732Y-115774590D01*
X75952287Y-115681610D01*
X76045220Y-115499219D01*
X76108477Y-115304534D01*
X76140500Y-115102352D01*
X76140500Y-114897648D01*
X83699500Y-114897648D01*
X83699500Y-115102351D01*
X83731522Y-115304534D01*
X83794781Y-115499223D01*
X83887715Y-115681613D01*
X84008028Y-115847213D01*
X84152786Y-115991971D01*
X84307749Y-116104556D01*
X84318390Y-116112287D01*
X84434607Y-116171503D01*
X84500776Y-116205218D01*
X84500778Y-116205218D01*
X84500781Y-116205220D01*
X84605137Y-116239127D01*
X84695465Y-116268477D01*
X84796557Y-116284488D01*
X84897648Y-116300500D01*
X84897649Y-116300500D01*
X85102351Y-116300500D01*
X85102352Y-116300500D01*
X85304534Y-116268477D01*
X85499219Y-116205220D01*
X85681610Y-116112287D01*
X85774590Y-116044732D01*
X85847213Y-115991971D01*
X85847215Y-115991968D01*
X85847219Y-115991966D01*
X85991966Y-115847219D01*
X85991968Y-115847215D01*
X85991971Y-115847213D01*
X86044732Y-115774590D01*
X86112287Y-115681610D01*
X86205220Y-115499219D01*
X86268477Y-115304534D01*
X86300500Y-115102352D01*
X86300500Y-114897648D01*
X86268477Y-114695466D01*
X86205220Y-114500781D01*
X86205218Y-114500778D01*
X86205218Y-114500776D01*
X86171503Y-114434607D01*
X86112287Y-114318390D01*
X86104556Y-114307749D01*
X85991971Y-114152786D01*
X85881040Y-114041855D01*
X85847555Y-113980532D01*
X85852539Y-113910840D01*
X85881038Y-113866495D01*
X89083820Y-110663716D01*
X89162877Y-110526784D01*
X89203801Y-110374057D01*
X89203801Y-110215942D01*
X89203801Y-110208347D01*
X89203800Y-110208329D01*
X89203800Y-96624399D01*
X89223485Y-96557360D01*
X89276289Y-96511605D01*
X89327800Y-96500399D01*
X90552871Y-96500399D01*
X90552872Y-96500399D01*
X90612483Y-96493991D01*
X90747331Y-96443696D01*
X90862546Y-96357446D01*
X90948796Y-96242231D01*
X90999091Y-96107383D01*
X91005500Y-96047773D01*
X91005499Y-93952028D01*
X90999091Y-93892417D01*
X90948796Y-93757569D01*
X90948795Y-93757568D01*
X90948793Y-93757564D01*
X90862547Y-93642355D01*
X90862544Y-93642352D01*
X90747335Y-93556106D01*
X90747328Y-93556102D01*
X90612482Y-93505808D01*
X90612483Y-93505808D01*
X90552883Y-93499401D01*
X90552881Y-93499400D01*
X90552873Y-93499400D01*
X90552864Y-93499400D01*
X88857129Y-93499400D01*
X88857123Y-93499401D01*
X88797516Y-93505808D01*
X88662671Y-93556102D01*
X88662664Y-93556106D01*
X88547455Y-93642352D01*
X88547452Y-93642355D01*
X88461206Y-93757564D01*
X88461202Y-93757571D01*
X88410908Y-93892417D01*
X88404501Y-93952016D01*
X88404501Y-93952023D01*
X88404500Y-93952035D01*
X88404500Y-94349687D01*
X88384815Y-94416726D01*
X88342500Y-94457074D01*
X88234587Y-94519377D01*
X88234582Y-94519381D01*
X88122781Y-94631182D01*
X88122775Y-94631190D01*
X88043726Y-94768109D01*
X88043723Y-94768116D01*
X88002800Y-94920843D01*
X88002800Y-109994902D01*
X87983115Y-110061941D01*
X87966481Y-110082583D01*
X84519481Y-113529582D01*
X84519479Y-113529585D01*
X84474830Y-113606919D01*
X84474828Y-113606923D01*
X84469360Y-113616395D01*
X84440423Y-113666515D01*
X84403991Y-113802477D01*
X84402176Y-113807489D01*
X84384525Y-113831538D01*
X84368999Y-113857011D01*
X84362572Y-113861450D01*
X84360836Y-113863816D01*
X84357036Y-113865274D01*
X84341887Y-113875739D01*
X84318392Y-113887710D01*
X84318389Y-113887712D01*
X84152786Y-114008028D01*
X84008028Y-114152786D01*
X83887715Y-114318386D01*
X83794781Y-114500776D01*
X83731522Y-114695465D01*
X83699500Y-114897648D01*
X76140500Y-114897648D01*
X76108477Y-114695466D01*
X76045220Y-114500781D01*
X76045218Y-114500778D01*
X76045218Y-114500776D01*
X76011503Y-114434607D01*
X75952287Y-114318390D01*
X75944556Y-114307749D01*
X75831971Y-114152786D01*
X75687213Y-114008028D01*
X75521610Y-113887712D01*
X75508200Y-113880879D01*
X75457406Y-113832903D01*
X75440500Y-113770397D01*
X75440500Y-110965097D01*
X75460185Y-110898058D01*
X75476819Y-110877416D01*
X76359333Y-109994902D01*
X82144662Y-104209572D01*
X82205983Y-104176089D01*
X82208150Y-104175638D01*
X82266085Y-104164113D01*
X82363497Y-104144737D01*
X82509179Y-104084394D01*
X82640289Y-103996789D01*
X82751789Y-103885289D01*
X82839394Y-103754179D01*
X82899737Y-103608497D01*
X82930500Y-103453842D01*
X82930500Y-103296158D01*
X82930500Y-103296155D01*
X82930499Y-103296153D01*
X82899738Y-103141510D01*
X82899738Y-103141508D01*
X82899737Y-103141503D01*
X82899735Y-103141498D01*
X82839397Y-102995827D01*
X82839390Y-102995814D01*
X82751789Y-102864711D01*
X82751786Y-102864707D01*
X82640292Y-102753213D01*
X82640288Y-102753210D01*
X82509185Y-102665609D01*
X82509172Y-102665602D01*
X82363501Y-102605264D01*
X82363489Y-102605261D01*
X82208845Y-102574500D01*
X82208842Y-102574500D01*
X82051158Y-102574500D01*
X82051155Y-102574500D01*
X81896510Y-102605261D01*
X81896498Y-102605264D01*
X81750827Y-102665602D01*
X81750814Y-102665609D01*
X81619711Y-102753210D01*
X81619707Y-102753213D01*
X81508213Y-102864707D01*
X81508210Y-102864711D01*
X81420609Y-102995814D01*
X81420602Y-102995827D01*
X81360264Y-103141498D01*
X81360261Y-103141508D01*
X81329361Y-103296850D01*
X81296976Y-103358761D01*
X81295425Y-103360339D01*
X74359481Y-110296282D01*
X74359480Y-110296284D01*
X74314578Y-110374057D01*
X74280423Y-110433215D01*
X74239499Y-110585943D01*
X74239499Y-110585945D01*
X74239499Y-110754046D01*
X74239500Y-110754059D01*
X74239500Y-113770397D01*
X74219815Y-113837436D01*
X74171800Y-113880879D01*
X74158389Y-113887712D01*
X73992786Y-114008028D01*
X73848028Y-114152786D01*
X73727715Y-114318386D01*
X73634781Y-114500776D01*
X73571522Y-114695465D01*
X73539500Y-114897648D01*
X70605461Y-114897648D01*
X55994133Y-100286319D01*
X55444545Y-99736731D01*
X55417096Y-99695104D01*
X55159916Y-99052155D01*
X63600000Y-99052155D01*
X63600000Y-99750000D01*
X64624722Y-99750000D01*
X64580667Y-99826306D01*
X64550000Y-99940756D01*
X64550000Y-100059244D01*
X64580667Y-100173694D01*
X64624722Y-100250000D01*
X63600000Y-100250000D01*
X63600000Y-100947844D01*
X63606401Y-101007372D01*
X63606403Y-101007379D01*
X63656645Y-101142086D01*
X63656649Y-101142093D01*
X63742809Y-101257187D01*
X63742812Y-101257190D01*
X63857906Y-101343350D01*
X63857913Y-101343354D01*
X63992620Y-101393596D01*
X63992627Y-101393598D01*
X64052155Y-101399999D01*
X64052172Y-101400000D01*
X64750000Y-101400000D01*
X64750000Y-100375277D01*
X64826306Y-100419333D01*
X64940756Y-100450000D01*
X65059244Y-100450000D01*
X65173694Y-100419333D01*
X65250000Y-100375277D01*
X65250000Y-101400000D01*
X65947828Y-101400000D01*
X65947844Y-101399999D01*
X66007372Y-101393598D01*
X66007379Y-101393596D01*
X66142086Y-101343354D01*
X66142093Y-101343350D01*
X66257187Y-101257190D01*
X66257190Y-101257187D01*
X66343350Y-101142093D01*
X66343354Y-101142086D01*
X66373213Y-101062031D01*
X66415084Y-101006097D01*
X66480548Y-100981680D01*
X66548821Y-100996531D01*
X66577076Y-101017683D01*
X66627636Y-101068243D01*
X66627641Y-101068247D01*
X66783192Y-101181260D01*
X66805978Y-101197815D01*
X66922501Y-101257187D01*
X67002393Y-101297895D01*
X67002396Y-101297896D01*
X67107221Y-101331955D01*
X67212049Y-101366015D01*
X67429778Y-101400500D01*
X67429779Y-101400500D01*
X67650221Y-101400500D01*
X67650222Y-101400500D01*
X67867951Y-101366015D01*
X68077606Y-101297895D01*
X68274022Y-101197815D01*
X68452365Y-101068242D01*
X68608242Y-100912365D01*
X68737815Y-100734022D01*
X68837895Y-100537606D01*
X68906015Y-100327951D01*
X68940500Y-100110222D01*
X68940500Y-99889778D01*
X68906015Y-99672049D01*
X68871955Y-99567221D01*
X68837896Y-99462396D01*
X68837895Y-99462393D01*
X68803237Y-99394375D01*
X68737815Y-99265978D01*
X68721260Y-99243192D01*
X68608247Y-99087641D01*
X68608243Y-99087636D01*
X68452363Y-98931756D01*
X68452358Y-98931752D01*
X68274025Y-98802187D01*
X68274024Y-98802186D01*
X68274022Y-98802185D01*
X68208203Y-98768648D01*
X68077606Y-98702104D01*
X68077603Y-98702103D01*
X67867952Y-98633985D01*
X67759086Y-98616742D01*
X67650222Y-98599500D01*
X67429778Y-98599500D01*
X67357201Y-98610995D01*
X67212047Y-98633985D01*
X67002396Y-98702103D01*
X67002393Y-98702104D01*
X66805974Y-98802187D01*
X66627641Y-98931752D01*
X66627636Y-98931756D01*
X66577075Y-98982317D01*
X66515752Y-99015801D01*
X66446060Y-99010816D01*
X66390127Y-98968945D01*
X66373213Y-98937968D01*
X66343354Y-98857913D01*
X66343350Y-98857906D01*
X66257190Y-98742812D01*
X66257187Y-98742809D01*
X66142093Y-98656649D01*
X66142086Y-98656645D01*
X66007379Y-98606403D01*
X66007372Y-98606401D01*
X65947844Y-98600000D01*
X65250000Y-98600000D01*
X65250000Y-99624722D01*
X65173694Y-99580667D01*
X65059244Y-99550000D01*
X64940756Y-99550000D01*
X64826306Y-99580667D01*
X64750000Y-99624722D01*
X64750000Y-98600000D01*
X64052155Y-98600000D01*
X63992627Y-98606401D01*
X63992620Y-98606403D01*
X63857913Y-98656645D01*
X63857906Y-98656649D01*
X63742812Y-98742809D01*
X63742809Y-98742812D01*
X63656649Y-98857906D01*
X63656645Y-98857913D01*
X63606403Y-98992620D01*
X63606401Y-98992627D01*
X63600000Y-99052155D01*
X55159916Y-99052155D01*
X47498114Y-79897648D01*
X53699500Y-79897648D01*
X53699500Y-80102351D01*
X53731522Y-80304534D01*
X53794781Y-80499223D01*
X53858691Y-80624653D01*
X53874228Y-80655145D01*
X53887715Y-80681613D01*
X54008028Y-80847213D01*
X54152786Y-80991971D01*
X54259531Y-81069524D01*
X54318390Y-81112287D01*
X54408927Y-81158418D01*
X54500776Y-81205218D01*
X54500778Y-81205218D01*
X54500781Y-81205220D01*
X54605137Y-81239127D01*
X54695465Y-81268477D01*
X54796557Y-81284488D01*
X54897648Y-81300500D01*
X54897649Y-81300500D01*
X55102351Y-81300500D01*
X55102352Y-81300500D01*
X55304534Y-81268477D01*
X55499219Y-81205220D01*
X55681610Y-81112287D01*
X55776044Y-81043677D01*
X55847213Y-80991971D01*
X55847215Y-80991968D01*
X55847219Y-80991966D01*
X55991966Y-80847219D01*
X55991968Y-80847215D01*
X55991971Y-80847213D01*
X56044732Y-80774590D01*
X56112287Y-80681610D01*
X56205220Y-80499219D01*
X56268477Y-80304534D01*
X56300500Y-80102352D01*
X56300500Y-79897648D01*
X63859500Y-79897648D01*
X63859500Y-80102351D01*
X63891522Y-80304534D01*
X63954781Y-80499223D01*
X64018691Y-80624653D01*
X64034228Y-80655145D01*
X64047715Y-80681613D01*
X64168028Y-80847213D01*
X64312786Y-80991971D01*
X64419531Y-81069524D01*
X64478390Y-81112287D01*
X64568927Y-81158418D01*
X64660776Y-81205218D01*
X64660778Y-81205218D01*
X64660781Y-81205220D01*
X64765137Y-81239127D01*
X64855465Y-81268477D01*
X64956557Y-81284488D01*
X65057648Y-81300500D01*
X65057649Y-81300500D01*
X65262351Y-81300500D01*
X65262352Y-81300500D01*
X65464534Y-81268477D01*
X65659219Y-81205220D01*
X65841610Y-81112287D01*
X65936044Y-81043677D01*
X66007213Y-80991971D01*
X66007215Y-80991968D01*
X66007219Y-80991966D01*
X66151966Y-80847219D01*
X66151968Y-80847215D01*
X66151971Y-80847213D01*
X66204732Y-80774590D01*
X66272287Y-80681610D01*
X66365220Y-80499219D01*
X66428477Y-80304534D01*
X66460500Y-80102352D01*
X66460500Y-79897648D01*
X66452257Y-79845606D01*
X66428477Y-79695465D01*
X66397458Y-79600000D01*
X66365220Y-79500781D01*
X66365218Y-79500778D01*
X66365218Y-79500776D01*
X66331503Y-79434607D01*
X66272287Y-79318390D01*
X66264556Y-79307749D01*
X66151971Y-79152786D01*
X66007213Y-79008028D01*
X65841613Y-78887715D01*
X65841612Y-78887714D01*
X65841610Y-78887713D01*
X65784653Y-78858691D01*
X65659223Y-78794781D01*
X65464534Y-78731522D01*
X65289995Y-78703878D01*
X65262352Y-78699500D01*
X65057648Y-78699500D01*
X65033329Y-78703351D01*
X64855465Y-78731522D01*
X64660776Y-78794781D01*
X64478386Y-78887715D01*
X64312786Y-79008028D01*
X64168028Y-79152786D01*
X64047715Y-79318386D01*
X63954781Y-79500776D01*
X63891522Y-79695465D01*
X63859500Y-79897648D01*
X56300500Y-79897648D01*
X56268477Y-79695466D01*
X56263825Y-79681151D01*
X56261832Y-79611312D01*
X56294075Y-79555158D01*
X65951586Y-69897648D01*
X78539500Y-69897648D01*
X78539500Y-70102351D01*
X78571522Y-70304534D01*
X78634781Y-70499223D01*
X78727715Y-70681613D01*
X78848028Y-70847213D01*
X78992786Y-70991971D01*
X79103191Y-71072183D01*
X79158390Y-71112287D01*
X79257060Y-71162562D01*
X79340776Y-71205218D01*
X79340778Y-71205218D01*
X79340781Y-71205220D01*
X79415818Y-71229601D01*
X79535465Y-71268477D01*
X79636557Y-71284488D01*
X79737648Y-71300500D01*
X79737649Y-71300500D01*
X79942351Y-71300500D01*
X79942352Y-71300500D01*
X80144534Y-71268477D01*
X80339219Y-71205220D01*
X80521610Y-71112287D01*
X80624830Y-71037294D01*
X80687213Y-70991971D01*
X80687215Y-70991968D01*
X80687219Y-70991966D01*
X80831966Y-70847219D01*
X80831968Y-70847215D01*
X80831971Y-70847213D01*
X80939289Y-70699500D01*
X80952287Y-70681610D01*
X81045220Y-70499219D01*
X81108477Y-70304534D01*
X81140500Y-70102352D01*
X81140500Y-69897648D01*
X88699500Y-69897648D01*
X88699500Y-70102351D01*
X88731522Y-70304534D01*
X88794781Y-70499223D01*
X88887715Y-70681613D01*
X89008028Y-70847213D01*
X89008034Y-70847219D01*
X89152781Y-70991966D01*
X89318390Y-71112287D01*
X89331793Y-71119116D01*
X89382589Y-71167088D01*
X89399500Y-71229601D01*
X89399500Y-75809930D01*
X89399499Y-75809948D01*
X89399499Y-75975654D01*
X89399498Y-75975654D01*
X89440423Y-76128384D01*
X89440424Y-76128387D01*
X89442800Y-76132502D01*
X89442801Y-76132504D01*
X89519477Y-76265312D01*
X89519481Y-76265317D01*
X89638349Y-76384185D01*
X89638355Y-76384190D01*
X108618439Y-95364274D01*
X108618449Y-95364285D01*
X108622779Y-95368615D01*
X108622780Y-95368616D01*
X108734584Y-95480420D01*
X108821395Y-95530539D01*
X108871515Y-95559477D01*
X108907240Y-95569049D01*
X108916623Y-95573327D01*
X108935557Y-95589712D01*
X108956939Y-95602744D01*
X108963320Y-95613735D01*
X108969457Y-95619046D01*
X108972597Y-95629715D01*
X108983117Y-95647835D01*
X108999782Y-95699124D01*
X109092715Y-95881513D01*
X109213028Y-96047113D01*
X109357786Y-96191871D01*
X109512749Y-96304456D01*
X109523390Y-96312187D01*
X109612212Y-96357444D01*
X109705776Y-96405118D01*
X109705778Y-96405118D01*
X109705781Y-96405120D01*
X109810137Y-96439027D01*
X109900465Y-96468377D01*
X110001557Y-96484388D01*
X110102648Y-96500400D01*
X110102649Y-96500400D01*
X110307351Y-96500400D01*
X110307352Y-96500400D01*
X110509534Y-96468377D01*
X110704219Y-96405120D01*
X110886610Y-96312187D01*
X110982901Y-96242228D01*
X111052213Y-96191871D01*
X111052215Y-96191868D01*
X111052219Y-96191866D01*
X111196966Y-96047119D01*
X111196968Y-96047115D01*
X111196971Y-96047113D01*
X111249732Y-95974490D01*
X111317287Y-95881510D01*
X111410220Y-95699119D01*
X111473477Y-95504434D01*
X111505500Y-95302252D01*
X111505500Y-94697548D01*
X111494989Y-94631184D01*
X111473477Y-94495365D01*
X111410218Y-94300676D01*
X111376503Y-94234507D01*
X111317287Y-94118290D01*
X111252771Y-94029490D01*
X111196971Y-93952686D01*
X111052213Y-93807928D01*
X110886613Y-93687615D01*
X110886612Y-93687614D01*
X110886610Y-93687613D01*
X110829653Y-93658591D01*
X110704223Y-93594681D01*
X110509534Y-93531422D01*
X110334995Y-93503778D01*
X110307352Y-93499400D01*
X110102648Y-93499400D01*
X110078329Y-93503251D01*
X109900465Y-93531422D01*
X109705776Y-93594681D01*
X109523386Y-93687615D01*
X109357786Y-93807928D01*
X109213032Y-93952682D01*
X109213028Y-93952687D01*
X109168881Y-94013451D01*
X109113551Y-94056117D01*
X109043938Y-94062096D01*
X108982143Y-94029490D01*
X108980882Y-94028247D01*
X94854212Y-79901577D01*
X97049500Y-79901577D01*
X97049500Y-80098422D01*
X97080290Y-80292826D01*
X97141117Y-80480029D01*
X97230343Y-80655143D01*
X97230476Y-80655405D01*
X97346172Y-80814646D01*
X97485354Y-80953828D01*
X97644595Y-81069524D01*
X97727455Y-81111743D01*
X97819970Y-81158882D01*
X97819972Y-81158882D01*
X97819975Y-81158884D01*
X97920317Y-81191487D01*
X98007173Y-81219709D01*
X98201578Y-81250500D01*
X98201583Y-81250500D01*
X98398422Y-81250500D01*
X98597454Y-81218976D01*
X98666747Y-81227930D01*
X98704533Y-81253768D01*
X109438139Y-91987374D01*
X109438149Y-91987385D01*
X109442479Y-91991715D01*
X109442480Y-91991716D01*
X109554284Y-92103520D01*
X109605845Y-92133288D01*
X109641095Y-92153639D01*
X109641097Y-92153641D01*
X109691213Y-92182576D01*
X109691215Y-92182577D01*
X109843942Y-92223500D01*
X109843943Y-92223500D01*
X117291034Y-92223500D01*
X117358073Y-92243185D01*
X117359925Y-92244398D01*
X117491614Y-92332390D01*
X117491627Y-92332397D01*
X117637298Y-92392735D01*
X117637303Y-92392737D01*
X117791953Y-92423499D01*
X117791956Y-92423500D01*
X117791958Y-92423500D01*
X117949644Y-92423500D01*
X117949645Y-92423499D01*
X118104297Y-92392737D01*
X118249979Y-92332394D01*
X118381089Y-92244789D01*
X118492589Y-92133289D01*
X118580194Y-92002179D01*
X118640537Y-91856497D01*
X118671300Y-91701842D01*
X118671300Y-91544158D01*
X118671300Y-91544155D01*
X118671299Y-91544153D01*
X118640538Y-91389510D01*
X118640537Y-91389503D01*
X118582961Y-91250500D01*
X118580197Y-91243827D01*
X118580190Y-91243814D01*
X118492589Y-91112711D01*
X118492586Y-91112707D01*
X118381092Y-91001213D01*
X118381088Y-91001210D01*
X118249985Y-90913609D01*
X118249972Y-90913602D01*
X118104301Y-90853264D01*
X118104289Y-90853261D01*
X117949645Y-90822500D01*
X117949642Y-90822500D01*
X117791958Y-90822500D01*
X117791955Y-90822500D01*
X117637310Y-90853261D01*
X117637298Y-90853264D01*
X117491627Y-90913602D01*
X117491614Y-90913609D01*
X117359925Y-91001602D01*
X117293247Y-91022480D01*
X117291034Y-91022500D01*
X110223097Y-91022500D01*
X110156058Y-91002815D01*
X110135416Y-90986181D01*
X108351370Y-89202135D01*
X118974500Y-89202135D01*
X118974500Y-90797870D01*
X118974501Y-90797876D01*
X118980908Y-90857483D01*
X119031202Y-90992328D01*
X119031206Y-90992335D01*
X119117452Y-91107544D01*
X119117455Y-91107547D01*
X119232664Y-91193793D01*
X119232671Y-91193797D01*
X119367517Y-91244091D01*
X119367516Y-91244091D01*
X119374444Y-91244835D01*
X119427127Y-91250500D01*
X120572872Y-91250499D01*
X120632483Y-91244091D01*
X120767331Y-91193796D01*
X120768893Y-91192626D01*
X120770722Y-91191944D01*
X120775118Y-91189544D01*
X120775462Y-91190175D01*
X120834354Y-91168204D01*
X120890664Y-91177326D01*
X120971017Y-91210609D01*
X120971025Y-91210611D01*
X121020000Y-91220353D01*
X121020000Y-90855671D01*
X121020711Y-90842415D01*
X121025499Y-90797881D01*
X121025500Y-90797873D01*
X121025499Y-90285829D01*
X121039745Y-90300075D01*
X121125255Y-90349444D01*
X121220630Y-90375000D01*
X121319370Y-90375000D01*
X121414745Y-90349444D01*
X121500255Y-90300075D01*
X121520000Y-90280330D01*
X121520000Y-91220352D01*
X121568974Y-91210612D01*
X121568983Y-91210609D01*
X121755513Y-91133347D01*
X121755525Y-91133340D01*
X121836109Y-91079496D01*
X121902786Y-91058618D01*
X121970166Y-91077102D01*
X121973891Y-91079496D01*
X122054474Y-91133340D01*
X122054486Y-91133347D01*
X122241016Y-91210609D01*
X122241025Y-91210612D01*
X122290000Y-91220353D01*
X122290000Y-90280330D01*
X122309745Y-90300075D01*
X122395255Y-90349444D01*
X122490630Y-90375000D01*
X122589370Y-90375000D01*
X122684745Y-90349444D01*
X122770255Y-90300075D01*
X122790000Y-90280330D01*
X122790000Y-91220352D01*
X122838974Y-91210612D01*
X122838983Y-91210609D01*
X123025513Y-91133347D01*
X123025526Y-91133340D01*
X123193399Y-91021170D01*
X123193403Y-91021167D01*
X123336167Y-90878403D01*
X123336170Y-90878399D01*
X123448340Y-90710526D01*
X123448347Y-90710513D01*
X123525609Y-90523983D01*
X123525612Y-90523974D01*
X123564999Y-90325958D01*
X123565000Y-90325955D01*
X123565000Y-90250000D01*
X122820330Y-90250000D01*
X122840075Y-90230255D01*
X122889444Y-90144745D01*
X122915000Y-90049370D01*
X122915000Y-89950630D01*
X122889444Y-89855255D01*
X122840075Y-89769745D01*
X122820330Y-89750000D01*
X123565000Y-89750000D01*
X123565000Y-89674045D01*
X123564999Y-89674041D01*
X123525612Y-89476025D01*
X123525609Y-89476016D01*
X123448347Y-89289486D01*
X123448340Y-89289473D01*
X123336170Y-89121600D01*
X123336167Y-89121596D01*
X123193403Y-88978832D01*
X123193399Y-88978829D01*
X123025526Y-88866659D01*
X123025513Y-88866652D01*
X122838984Y-88789390D01*
X122838977Y-88789388D01*
X122790000Y-88779645D01*
X122790000Y-89719670D01*
X122770255Y-89699925D01*
X122684745Y-89650556D01*
X122589370Y-89625000D01*
X122490630Y-89625000D01*
X122395255Y-89650556D01*
X122309745Y-89699925D01*
X122290000Y-89719670D01*
X122290000Y-88779646D01*
X122289999Y-88779645D01*
X122241022Y-88789388D01*
X122241015Y-88789390D01*
X122054483Y-88866654D01*
X121973890Y-88920504D01*
X121907212Y-88941381D01*
X121839832Y-88922896D01*
X121836110Y-88920504D01*
X121755516Y-88866654D01*
X121568984Y-88789390D01*
X121568977Y-88789388D01*
X121520000Y-88779645D01*
X121520000Y-89719670D01*
X121500255Y-89699925D01*
X121414745Y-89650556D01*
X121319370Y-89625000D01*
X121220630Y-89625000D01*
X121125255Y-89650556D01*
X121039745Y-89699925D01*
X121025499Y-89714170D01*
X121025499Y-89202128D01*
X121020710Y-89157577D01*
X121020000Y-89144324D01*
X121020000Y-88779646D01*
X121019999Y-88779645D01*
X120971022Y-88789388D01*
X120971015Y-88789390D01*
X120890663Y-88822673D01*
X120821193Y-88830142D01*
X120775277Y-88810154D01*
X120775114Y-88810454D01*
X120771766Y-88808626D01*
X120768899Y-88807377D01*
X120767331Y-88806204D01*
X120767330Y-88806203D01*
X120767328Y-88806202D01*
X120632482Y-88755908D01*
X120632483Y-88755908D01*
X120572883Y-88749501D01*
X120572881Y-88749500D01*
X120572873Y-88749500D01*
X120572864Y-88749500D01*
X119427129Y-88749500D01*
X119427123Y-88749501D01*
X119367516Y-88755908D01*
X119232671Y-88806202D01*
X119232664Y-88806206D01*
X119117455Y-88892452D01*
X119117452Y-88892455D01*
X119031206Y-89007664D01*
X119031202Y-89007671D01*
X118980908Y-89142517D01*
X118974501Y-89202116D01*
X118974501Y-89202123D01*
X118974500Y-89202135D01*
X108351370Y-89202135D01*
X99553768Y-80404533D01*
X99520283Y-80343210D01*
X99518976Y-80297454D01*
X99550500Y-80098422D01*
X99550500Y-79901617D01*
X100450000Y-79901617D01*
X100450000Y-80098382D01*
X100480778Y-80292705D01*
X100541581Y-80479835D01*
X100630905Y-80655145D01*
X100656319Y-80690125D01*
X100656320Y-80690125D01*
X101300000Y-80046445D01*
X101300000Y-80052661D01*
X101327259Y-80154394D01*
X101379920Y-80245606D01*
X101454394Y-80320080D01*
X101545606Y-80372741D01*
X101647339Y-80400000D01*
X101653553Y-80400000D01*
X101009873Y-81043677D01*
X101009873Y-81043678D01*
X101044858Y-81069096D01*
X101220164Y-81158418D01*
X101407294Y-81219221D01*
X101601618Y-81250000D01*
X101798382Y-81250000D01*
X101992705Y-81219221D01*
X102179835Y-81158418D01*
X102355143Y-81069095D01*
X102390125Y-81043678D01*
X102390126Y-81043678D01*
X101746448Y-80400000D01*
X101752661Y-80400000D01*
X101854394Y-80372741D01*
X101945606Y-80320080D01*
X102020080Y-80245606D01*
X102072741Y-80154394D01*
X102100000Y-80052661D01*
X102100000Y-80046448D01*
X102743678Y-80690126D01*
X102743678Y-80690125D01*
X102769095Y-80655143D01*
X102858418Y-80479835D01*
X102919221Y-80292705D01*
X102950000Y-80098382D01*
X102950000Y-79901617D01*
X102919221Y-79707294D01*
X102858418Y-79520164D01*
X102769096Y-79344858D01*
X102743678Y-79309873D01*
X102743677Y-79309873D01*
X102100000Y-79953551D01*
X102100000Y-79947339D01*
X102072741Y-79845606D01*
X102020080Y-79754394D01*
X101945606Y-79679920D01*
X101854394Y-79627259D01*
X101752661Y-79600000D01*
X101746447Y-79600000D01*
X102390125Y-78956320D01*
X102390125Y-78956319D01*
X102355145Y-78930905D01*
X102179835Y-78841581D01*
X101992705Y-78780778D01*
X101798382Y-78750000D01*
X101601618Y-78750000D01*
X101407294Y-78780778D01*
X101220161Y-78841582D01*
X101044863Y-78930899D01*
X101044859Y-78930902D01*
X101009873Y-78956320D01*
X101009872Y-78956320D01*
X101653554Y-79600000D01*
X101647339Y-79600000D01*
X101545606Y-79627259D01*
X101454394Y-79679920D01*
X101379920Y-79754394D01*
X101327259Y-79845606D01*
X101300000Y-79947339D01*
X101300000Y-79953552D01*
X100656320Y-79309872D01*
X100656320Y-79309873D01*
X100630902Y-79344859D01*
X100630899Y-79344863D01*
X100541582Y-79520161D01*
X100480778Y-79707294D01*
X100450000Y-79901617D01*
X99550500Y-79901617D01*
X99550500Y-79901577D01*
X99519709Y-79707173D01*
X99458882Y-79519970D01*
X99411743Y-79427455D01*
X99369524Y-79344595D01*
X99253828Y-79185354D01*
X99114646Y-79046172D01*
X98955405Y-78930476D01*
X98780029Y-78841117D01*
X98592826Y-78780290D01*
X98398422Y-78749500D01*
X98398417Y-78749500D01*
X98201583Y-78749500D01*
X98201578Y-78749500D01*
X98007173Y-78780290D01*
X97819970Y-78841117D01*
X97644594Y-78930476D01*
X97553741Y-78996485D01*
X97485354Y-79046172D01*
X97485352Y-79046174D01*
X97485351Y-79046174D01*
X97346174Y-79185351D01*
X97346174Y-79185352D01*
X97346172Y-79185354D01*
X97296485Y-79253741D01*
X97230476Y-79344594D01*
X97141117Y-79519970D01*
X97080290Y-79707173D01*
X97049500Y-79901577D01*
X94854212Y-79901577D01*
X90636819Y-75684184D01*
X90603334Y-75622861D01*
X90600500Y-75596503D01*
X90600500Y-71897648D01*
X98699500Y-71897648D01*
X98699500Y-72102351D01*
X98731522Y-72304534D01*
X98794781Y-72499223D01*
X98887715Y-72681613D01*
X99008028Y-72847213D01*
X99152786Y-72991971D01*
X99307749Y-73104556D01*
X99318390Y-73112287D01*
X99434607Y-73171503D01*
X99500776Y-73205218D01*
X99500778Y-73205218D01*
X99500781Y-73205220D01*
X99605137Y-73239127D01*
X99695465Y-73268477D01*
X99796557Y-73284488D01*
X99897648Y-73300500D01*
X99897649Y-73300500D01*
X100102351Y-73300500D01*
X100102352Y-73300500D01*
X100304534Y-73268477D01*
X100499219Y-73205220D01*
X100681610Y-73112287D01*
X100774590Y-73044732D01*
X100847213Y-72991971D01*
X100847215Y-72991968D01*
X100847219Y-72991966D01*
X100991966Y-72847219D01*
X100991968Y-72847215D01*
X100991971Y-72847213D01*
X101044732Y-72774590D01*
X101112287Y-72681610D01*
X101205220Y-72499219D01*
X101268477Y-72304534D01*
X101300500Y-72102352D01*
X101300500Y-71897648D01*
X101268477Y-71695466D01*
X101205220Y-71500781D01*
X101205218Y-71500778D01*
X101205218Y-71500776D01*
X101171503Y-71434607D01*
X101112287Y-71318390D01*
X101099289Y-71300500D01*
X100991971Y-71152786D01*
X100847213Y-71008028D01*
X100681613Y-70887715D01*
X100681612Y-70887714D01*
X100681610Y-70887713D01*
X100624653Y-70858691D01*
X100499223Y-70794781D01*
X100304534Y-70731522D01*
X100129995Y-70703878D01*
X100102352Y-70699500D01*
X99897648Y-70699500D01*
X99873329Y-70703351D01*
X99695465Y-70731522D01*
X99500776Y-70794781D01*
X99318386Y-70887715D01*
X99152786Y-71008028D01*
X99008028Y-71152786D01*
X98887715Y-71318386D01*
X98794781Y-71500776D01*
X98731522Y-71695465D01*
X98699500Y-71897648D01*
X90600500Y-71897648D01*
X90600500Y-71229601D01*
X90620185Y-71162562D01*
X90668206Y-71119116D01*
X90681610Y-71112287D01*
X90847219Y-70991966D01*
X90991966Y-70847219D01*
X90991968Y-70847215D01*
X90991971Y-70847213D01*
X91099289Y-70699500D01*
X91112287Y-70681610D01*
X91205220Y-70499219D01*
X91268477Y-70304534D01*
X91300500Y-70102352D01*
X91300500Y-69897648D01*
X108539500Y-69897648D01*
X108539500Y-70102351D01*
X108571522Y-70304534D01*
X108634781Y-70499223D01*
X108727715Y-70681613D01*
X108848028Y-70847213D01*
X108992786Y-70991971D01*
X109103191Y-71072183D01*
X109158390Y-71112287D01*
X109257060Y-71162562D01*
X109340776Y-71205218D01*
X109340778Y-71205218D01*
X109340781Y-71205220D01*
X109415818Y-71229601D01*
X109535465Y-71268477D01*
X109636557Y-71284488D01*
X109737648Y-71300500D01*
X109737649Y-71300500D01*
X109942351Y-71300500D01*
X109942352Y-71300500D01*
X110144534Y-71268477D01*
X110339219Y-71205220D01*
X110521610Y-71112287D01*
X110624830Y-71037294D01*
X110687213Y-70991971D01*
X110687215Y-70991968D01*
X110687219Y-70991966D01*
X110831966Y-70847219D01*
X110831968Y-70847215D01*
X110831971Y-70847213D01*
X110939289Y-70699500D01*
X110952287Y-70681610D01*
X111045220Y-70499219D01*
X111108477Y-70304534D01*
X111140500Y-70102352D01*
X111140500Y-69897648D01*
X118699500Y-69897648D01*
X118699500Y-70102351D01*
X118731522Y-70304534D01*
X118794781Y-70499223D01*
X118887715Y-70681613D01*
X119008028Y-70847213D01*
X119152786Y-70991971D01*
X119318388Y-71112286D01*
X119341884Y-71124258D01*
X119362744Y-71143959D01*
X119385556Y-71161375D01*
X119389179Y-71168925D01*
X119392681Y-71172232D01*
X119402177Y-71192510D01*
X119403987Y-71197508D01*
X119440423Y-71333485D01*
X119469360Y-71383604D01*
X119474832Y-71393083D01*
X119474833Y-71393084D01*
X119519479Y-71470414D01*
X119519481Y-71470417D01*
X119638349Y-71589285D01*
X119638355Y-71589290D01*
X123190781Y-75141716D01*
X123224266Y-75203039D01*
X123227100Y-75229397D01*
X123227100Y-76353234D01*
X123207415Y-76420273D01*
X123206202Y-76422125D01*
X123118209Y-76553814D01*
X123118202Y-76553827D01*
X123057864Y-76699498D01*
X123057861Y-76699510D01*
X123027100Y-76854153D01*
X123027100Y-77011846D01*
X123057861Y-77166489D01*
X123057864Y-77166501D01*
X123118202Y-77312172D01*
X123118209Y-77312185D01*
X123205810Y-77443288D01*
X123205813Y-77443292D01*
X123317307Y-77554786D01*
X123317311Y-77554789D01*
X123448414Y-77642390D01*
X123448427Y-77642397D01*
X123594098Y-77702735D01*
X123594103Y-77702737D01*
X123748753Y-77733499D01*
X123748756Y-77733500D01*
X123748758Y-77733500D01*
X123906444Y-77733500D01*
X123906445Y-77733499D01*
X124061097Y-77702737D01*
X124206779Y-77642394D01*
X124261263Y-77605989D01*
X124338475Y-77554398D01*
X124356521Y-77548747D01*
X124372431Y-77538523D01*
X124403392Y-77534071D01*
X124405153Y-77533520D01*
X124407366Y-77533500D01*
X124435500Y-77533500D01*
X124502539Y-77553185D01*
X124548294Y-77605989D01*
X124559500Y-77657500D01*
X124559500Y-113770397D01*
X124539815Y-113837436D01*
X124491800Y-113880879D01*
X124478389Y-113887712D01*
X124312786Y-114008028D01*
X124168028Y-114152786D01*
X124047715Y-114318386D01*
X123954781Y-114500776D01*
X123891522Y-114695465D01*
X123859500Y-114897648D01*
X123859500Y-115102351D01*
X123891522Y-115304534D01*
X123954781Y-115499223D01*
X124047715Y-115681613D01*
X124168028Y-115847213D01*
X124312786Y-115991971D01*
X124467749Y-116104556D01*
X124478390Y-116112287D01*
X124594607Y-116171503D01*
X124660776Y-116205218D01*
X124660778Y-116205218D01*
X124660781Y-116205220D01*
X124765137Y-116239127D01*
X124855465Y-116268477D01*
X124956557Y-116284488D01*
X125057648Y-116300500D01*
X125057649Y-116300500D01*
X125262351Y-116300500D01*
X125262352Y-116300500D01*
X125464534Y-116268477D01*
X125659219Y-116205220D01*
X125841610Y-116112287D01*
X125934590Y-116044732D01*
X126007213Y-115991971D01*
X126007215Y-115991968D01*
X126007219Y-115991966D01*
X126151966Y-115847219D01*
X126151968Y-115847215D01*
X126151971Y-115847213D01*
X126204732Y-115774590D01*
X126272287Y-115681610D01*
X126365220Y-115499219D01*
X126428477Y-115304534D01*
X126460500Y-115102352D01*
X126460500Y-114897648D01*
X126428477Y-114695466D01*
X126365220Y-114500781D01*
X126365218Y-114500778D01*
X126365218Y-114500776D01*
X126331503Y-114434607D01*
X126272287Y-114318390D01*
X126264556Y-114307749D01*
X126151971Y-114152786D01*
X126007213Y-114008028D01*
X125841610Y-113887712D01*
X125828200Y-113880879D01*
X125777406Y-113832903D01*
X125760500Y-113770397D01*
X125760500Y-79897648D01*
X133539500Y-79897648D01*
X133539500Y-80102351D01*
X133571522Y-80304534D01*
X133634781Y-80499223D01*
X133698691Y-80624653D01*
X133714228Y-80655145D01*
X133727715Y-80681613D01*
X133848028Y-80847213D01*
X133992786Y-80991971D01*
X134099531Y-81069524D01*
X134158390Y-81112287D01*
X134248927Y-81158418D01*
X134340776Y-81205218D01*
X134340778Y-81205218D01*
X134340781Y-81205220D01*
X134445137Y-81239127D01*
X134535465Y-81268477D01*
X134636557Y-81284488D01*
X134737648Y-81300500D01*
X134737649Y-81300500D01*
X134942351Y-81300500D01*
X134942352Y-81300500D01*
X135144534Y-81268477D01*
X135158842Y-81263827D01*
X135228682Y-81261831D01*
X135284842Y-81294077D01*
X136903181Y-82912416D01*
X136936666Y-82973739D01*
X136939500Y-83000097D01*
X136939500Y-98658164D01*
X136919815Y-98725203D01*
X136871796Y-98768648D01*
X136805976Y-98802185D01*
X136627641Y-98931752D01*
X136627636Y-98931756D01*
X136577075Y-98982317D01*
X136515752Y-99015801D01*
X136446060Y-99010816D01*
X136390127Y-98968945D01*
X136373213Y-98937968D01*
X136343354Y-98857913D01*
X136343350Y-98857906D01*
X136257190Y-98742812D01*
X136257187Y-98742809D01*
X136142093Y-98656649D01*
X136142086Y-98656645D01*
X136007379Y-98606403D01*
X136007372Y-98606401D01*
X135947844Y-98600000D01*
X135250000Y-98600000D01*
X135250000Y-99624722D01*
X135173694Y-99580667D01*
X135059244Y-99550000D01*
X134940756Y-99550000D01*
X134826306Y-99580667D01*
X134750000Y-99624722D01*
X134750000Y-98600000D01*
X134052155Y-98600000D01*
X133992627Y-98606401D01*
X133992620Y-98606403D01*
X133857913Y-98656645D01*
X133857906Y-98656649D01*
X133742812Y-98742809D01*
X133742809Y-98742812D01*
X133656649Y-98857906D01*
X133656645Y-98857913D01*
X133606403Y-98992620D01*
X133606401Y-98992627D01*
X133600000Y-99052155D01*
X133600000Y-99750000D01*
X134624722Y-99750000D01*
X134580667Y-99826306D01*
X134550000Y-99940756D01*
X134550000Y-100059244D01*
X134580667Y-100173694D01*
X134624722Y-100250000D01*
X133600000Y-100250000D01*
X133600000Y-100947844D01*
X133606401Y-101007372D01*
X133606403Y-101007379D01*
X133656645Y-101142086D01*
X133656649Y-101142093D01*
X133742809Y-101257187D01*
X133742812Y-101257190D01*
X133857906Y-101343350D01*
X133857913Y-101343354D01*
X133992620Y-101393596D01*
X133992627Y-101393598D01*
X134052155Y-101399999D01*
X134052172Y-101400000D01*
X134750000Y-101400000D01*
X134750000Y-100375277D01*
X134826306Y-100419333D01*
X134940756Y-100450000D01*
X135059244Y-100450000D01*
X135173694Y-100419333D01*
X135250000Y-100375277D01*
X135250000Y-101400000D01*
X135947828Y-101400000D01*
X135947844Y-101399999D01*
X136007372Y-101393598D01*
X136007379Y-101393596D01*
X136142086Y-101343354D01*
X136142093Y-101343350D01*
X136257187Y-101257190D01*
X136257190Y-101257187D01*
X136343350Y-101142093D01*
X136343354Y-101142086D01*
X136373213Y-101062031D01*
X136415084Y-101006097D01*
X136480548Y-100981680D01*
X136548821Y-100996531D01*
X136577076Y-101017683D01*
X136627636Y-101068243D01*
X136627641Y-101068247D01*
X136783192Y-101181260D01*
X136805978Y-101197815D01*
X136922501Y-101257187D01*
X137002393Y-101297895D01*
X137002396Y-101297896D01*
X137107221Y-101331955D01*
X137212049Y-101366015D01*
X137429778Y-101400500D01*
X137429779Y-101400500D01*
X137650221Y-101400500D01*
X137650222Y-101400500D01*
X137867951Y-101366015D01*
X138077606Y-101297895D01*
X138274022Y-101197815D01*
X138452365Y-101068242D01*
X138608242Y-100912365D01*
X138737815Y-100734022D01*
X138837895Y-100537606D01*
X138906015Y-100327951D01*
X138940500Y-100110222D01*
X138940500Y-99889778D01*
X138906015Y-99672049D01*
X138871955Y-99567221D01*
X138837896Y-99462396D01*
X138837895Y-99462393D01*
X138803237Y-99394375D01*
X138737815Y-99265978D01*
X138721260Y-99243192D01*
X138608247Y-99087641D01*
X138608243Y-99087636D01*
X138452363Y-98931756D01*
X138452358Y-98931752D01*
X138274023Y-98802185D01*
X138208204Y-98768648D01*
X138157409Y-98720674D01*
X138140500Y-98658164D01*
X138140500Y-82789060D01*
X138140501Y-82789047D01*
X138140501Y-82620944D01*
X138099576Y-82468214D01*
X138099573Y-82468209D01*
X138020524Y-82331290D01*
X138020518Y-82331282D01*
X136134077Y-80444842D01*
X136100592Y-80383519D01*
X136103828Y-80318841D01*
X136108477Y-80304534D01*
X136140500Y-80102352D01*
X136140500Y-79897648D01*
X143699500Y-79897648D01*
X143699500Y-80102351D01*
X143731522Y-80304534D01*
X143794781Y-80499223D01*
X143858691Y-80624653D01*
X143874228Y-80655145D01*
X143887715Y-80681613D01*
X144008028Y-80847213D01*
X144152786Y-80991971D01*
X144259531Y-81069524D01*
X144318390Y-81112287D01*
X144408927Y-81158418D01*
X144500776Y-81205218D01*
X144500778Y-81205218D01*
X144500781Y-81205220D01*
X144605137Y-81239127D01*
X144695465Y-81268477D01*
X144796557Y-81284488D01*
X144897648Y-81300500D01*
X144897649Y-81300500D01*
X145102351Y-81300500D01*
X145102352Y-81300500D01*
X145304534Y-81268477D01*
X145499219Y-81205220D01*
X145681610Y-81112287D01*
X145776044Y-81043677D01*
X145847213Y-80991971D01*
X145847215Y-80991968D01*
X145847219Y-80991966D01*
X145991966Y-80847219D01*
X145991968Y-80847215D01*
X145991971Y-80847213D01*
X146044732Y-80774590D01*
X146112287Y-80681610D01*
X146205220Y-80499219D01*
X146268477Y-80304534D01*
X146300500Y-80102352D01*
X146300500Y-79897648D01*
X146292257Y-79845606D01*
X146268477Y-79695465D01*
X146237458Y-79600000D01*
X146205220Y-79500781D01*
X146205218Y-79500778D01*
X146205218Y-79500776D01*
X146171503Y-79434607D01*
X146112287Y-79318390D01*
X146104556Y-79307749D01*
X145991971Y-79152786D01*
X145847213Y-79008028D01*
X145681613Y-78887715D01*
X145681612Y-78887714D01*
X145681610Y-78887713D01*
X145624653Y-78858691D01*
X145499223Y-78794781D01*
X145304534Y-78731522D01*
X145129995Y-78703878D01*
X145102352Y-78699500D01*
X144897648Y-78699500D01*
X144873329Y-78703351D01*
X144695465Y-78731522D01*
X144500776Y-78794781D01*
X144318386Y-78887715D01*
X144152786Y-79008028D01*
X144008028Y-79152786D01*
X143887715Y-79318386D01*
X143794781Y-79500776D01*
X143731522Y-79695465D01*
X143699500Y-79897648D01*
X136140500Y-79897648D01*
X136132257Y-79845606D01*
X136108477Y-79695465D01*
X136077458Y-79600000D01*
X136045220Y-79500781D01*
X136045218Y-79500778D01*
X136045218Y-79500776D01*
X136011503Y-79434607D01*
X135952287Y-79318390D01*
X135944556Y-79307749D01*
X135831971Y-79152786D01*
X135687213Y-79008028D01*
X135521613Y-78887715D01*
X135521612Y-78887714D01*
X135521610Y-78887713D01*
X135464653Y-78858691D01*
X135339223Y-78794781D01*
X135144534Y-78731522D01*
X134969995Y-78703878D01*
X134942352Y-78699500D01*
X134737648Y-78699500D01*
X134713329Y-78703351D01*
X134535465Y-78731522D01*
X134340776Y-78794781D01*
X134158386Y-78887715D01*
X133992786Y-79008028D01*
X133848028Y-79152786D01*
X133727715Y-79318386D01*
X133634781Y-79500776D01*
X133571522Y-79695465D01*
X133539500Y-79897648D01*
X125760500Y-79897648D01*
X125760500Y-76853945D01*
X125760500Y-76853943D01*
X125719577Y-76701216D01*
X125718585Y-76699498D01*
X125640524Y-76564290D01*
X125640518Y-76564282D01*
X125528717Y-76452481D01*
X125528709Y-76452475D01*
X125391790Y-76373426D01*
X125391786Y-76373424D01*
X125391784Y-76373423D01*
X125239057Y-76332500D01*
X125239056Y-76332500D01*
X124552100Y-76332500D01*
X124485061Y-76312815D01*
X124439306Y-76260011D01*
X124428100Y-76208500D01*
X124428100Y-75018359D01*
X124428101Y-75018346D01*
X124428101Y-74850245D01*
X124428101Y-74850243D01*
X124387177Y-74697515D01*
X124372827Y-74672662D01*
X124353227Y-74638712D01*
X124353227Y-74638711D01*
X124308124Y-74560590D01*
X124308121Y-74560586D01*
X124308120Y-74560584D01*
X124196316Y-74448780D01*
X124196315Y-74448779D01*
X124191985Y-74444449D01*
X124191974Y-74444439D01*
X120881041Y-71133506D01*
X120847556Y-71072183D01*
X120852540Y-71002491D01*
X120881041Y-70958144D01*
X120991966Y-70847219D01*
X120991968Y-70847215D01*
X120991971Y-70847213D01*
X121099289Y-70699500D01*
X121112287Y-70681610D01*
X121205220Y-70499219D01*
X121268477Y-70304534D01*
X121300500Y-70102352D01*
X121300500Y-69897648D01*
X121268477Y-69695466D01*
X121205220Y-69500781D01*
X121205218Y-69500778D01*
X121205218Y-69500776D01*
X121171503Y-69434607D01*
X121112287Y-69318390D01*
X121104556Y-69307749D01*
X120991971Y-69152786D01*
X120847213Y-69008028D01*
X120681613Y-68887715D01*
X120681612Y-68887714D01*
X120681610Y-68887713D01*
X120624653Y-68858691D01*
X120499223Y-68794781D01*
X120304534Y-68731522D01*
X120129995Y-68703878D01*
X120102352Y-68699500D01*
X119897648Y-68699500D01*
X119873329Y-68703351D01*
X119695465Y-68731522D01*
X119500776Y-68794781D01*
X119318386Y-68887715D01*
X119152786Y-69008028D01*
X119008028Y-69152786D01*
X118887715Y-69318386D01*
X118794781Y-69500776D01*
X118731522Y-69695465D01*
X118699500Y-69897648D01*
X111140500Y-69897648D01*
X111108477Y-69695466D01*
X111045220Y-69500781D01*
X111045218Y-69500778D01*
X111045218Y-69500776D01*
X111011503Y-69434607D01*
X110952287Y-69318390D01*
X110944556Y-69307749D01*
X110831971Y-69152786D01*
X110687213Y-69008028D01*
X110521613Y-68887715D01*
X110521612Y-68887714D01*
X110521610Y-68887713D01*
X110464653Y-68858691D01*
X110339223Y-68794781D01*
X110144534Y-68731522D01*
X109969995Y-68703878D01*
X109942352Y-68699500D01*
X109737648Y-68699500D01*
X109713329Y-68703351D01*
X109535465Y-68731522D01*
X109340776Y-68794781D01*
X109158386Y-68887715D01*
X108992786Y-69008028D01*
X108848028Y-69152786D01*
X108727715Y-69318386D01*
X108634781Y-69500776D01*
X108571522Y-69695465D01*
X108539500Y-69897648D01*
X91300500Y-69897648D01*
X91268477Y-69695466D01*
X91205220Y-69500781D01*
X91205218Y-69500778D01*
X91205218Y-69500776D01*
X91171503Y-69434607D01*
X91112287Y-69318390D01*
X91104556Y-69307749D01*
X90991971Y-69152786D01*
X90847213Y-69008028D01*
X90681613Y-68887715D01*
X90681612Y-68887714D01*
X90681610Y-68887713D01*
X90624653Y-68858691D01*
X90499223Y-68794781D01*
X90304534Y-68731522D01*
X90129995Y-68703878D01*
X90102352Y-68699500D01*
X89897648Y-68699500D01*
X89873329Y-68703351D01*
X89695465Y-68731522D01*
X89500776Y-68794781D01*
X89318386Y-68887715D01*
X89152786Y-69008028D01*
X89008028Y-69152786D01*
X88887715Y-69318386D01*
X88794781Y-69500776D01*
X88731522Y-69695465D01*
X88699500Y-69897648D01*
X81140500Y-69897648D01*
X81108477Y-69695466D01*
X81045220Y-69500781D01*
X81045218Y-69500778D01*
X81045218Y-69500776D01*
X81011503Y-69434607D01*
X80952287Y-69318390D01*
X80944556Y-69307749D01*
X80831971Y-69152786D01*
X80687213Y-69008028D01*
X80521613Y-68887715D01*
X80521612Y-68887714D01*
X80521610Y-68887713D01*
X80464653Y-68858691D01*
X80339223Y-68794781D01*
X80144534Y-68731522D01*
X79969995Y-68703878D01*
X79942352Y-68699500D01*
X79737648Y-68699500D01*
X79713329Y-68703351D01*
X79535465Y-68731522D01*
X79340776Y-68794781D01*
X79158386Y-68887715D01*
X78992786Y-69008028D01*
X78848028Y-69152786D01*
X78727715Y-69318386D01*
X78634781Y-69500776D01*
X78571522Y-69695465D01*
X78539500Y-69897648D01*
X65951586Y-69897648D01*
X67898506Y-67950728D01*
X67898511Y-67950724D01*
X67908714Y-67940520D01*
X67908716Y-67940520D01*
X68020520Y-67828716D01*
X68038908Y-67796865D01*
X68073221Y-67737435D01*
X68073221Y-67737434D01*
X68099577Y-67691785D01*
X68140500Y-67539057D01*
X68140500Y-67380943D01*
X68140500Y-66341835D01*
X68160185Y-66274796D01*
X68208206Y-66231350D01*
X68208547Y-66231175D01*
X68274022Y-66197815D01*
X68452365Y-66068242D01*
X68608242Y-65912365D01*
X68737815Y-65734022D01*
X68837895Y-65537606D01*
X68906015Y-65327951D01*
X68940500Y-65110222D01*
X68940500Y-64889778D01*
X68906015Y-64672049D01*
X68871955Y-64567221D01*
X68837896Y-64462396D01*
X68837895Y-64462393D01*
X68803237Y-64394375D01*
X68737815Y-64265978D01*
X68721260Y-64243192D01*
X68608247Y-64087641D01*
X68608243Y-64087636D01*
X68452363Y-63931756D01*
X68452358Y-63931752D01*
X68274025Y-63802187D01*
X68274024Y-63802186D01*
X68274022Y-63802185D01*
X68211096Y-63770122D01*
X68077606Y-63702104D01*
X68077603Y-63702103D01*
X67867952Y-63633985D01*
X67759086Y-63616742D01*
X67650222Y-63599500D01*
X67429778Y-63599500D01*
X67357201Y-63610995D01*
X67212047Y-63633985D01*
X67002396Y-63702103D01*
X67002393Y-63702104D01*
X66805974Y-63802187D01*
X66627641Y-63931752D01*
X66627636Y-63931756D01*
X66577075Y-63982317D01*
X66515752Y-64015801D01*
X66446060Y-64010816D01*
X66390127Y-63968945D01*
X66373213Y-63937968D01*
X66343354Y-63857913D01*
X66343350Y-63857906D01*
X66257190Y-63742812D01*
X66257187Y-63742809D01*
X66142093Y-63656649D01*
X66142086Y-63656645D01*
X66007379Y-63606403D01*
X66007372Y-63606401D01*
X65947844Y-63600000D01*
X65250000Y-63600000D01*
X65250000Y-64624722D01*
X65173694Y-64580667D01*
X65059244Y-64550000D01*
X64940756Y-64550000D01*
X64826306Y-64580667D01*
X64750000Y-64624722D01*
X64750000Y-63600000D01*
X64052155Y-63600000D01*
X63992627Y-63606401D01*
X63992620Y-63606403D01*
X63857913Y-63656645D01*
X63857906Y-63656649D01*
X63742812Y-63742809D01*
X63742809Y-63742812D01*
X63656649Y-63857906D01*
X63656645Y-63857913D01*
X63606403Y-63992620D01*
X63606401Y-63992627D01*
X63600000Y-64052155D01*
X63600000Y-64750000D01*
X64624722Y-64750000D01*
X64580667Y-64826306D01*
X64550000Y-64940756D01*
X64550000Y-65059244D01*
X64580667Y-65173694D01*
X64624722Y-65250000D01*
X63600000Y-65250000D01*
X63600000Y-65947844D01*
X63606401Y-66007372D01*
X63606403Y-66007379D01*
X63656645Y-66142086D01*
X63656649Y-66142093D01*
X63742809Y-66257187D01*
X63742812Y-66257190D01*
X63857906Y-66343350D01*
X63857913Y-66343354D01*
X63992620Y-66393596D01*
X63992627Y-66393598D01*
X64052155Y-66399999D01*
X64052172Y-66400000D01*
X64750000Y-66400000D01*
X64750000Y-65375277D01*
X64826306Y-65419333D01*
X64940756Y-65450000D01*
X65059244Y-65450000D01*
X65173694Y-65419333D01*
X65250000Y-65375277D01*
X65250000Y-66400000D01*
X65947828Y-66400000D01*
X65947844Y-66399999D01*
X66007372Y-66393598D01*
X66007379Y-66393596D01*
X66142086Y-66343354D01*
X66142093Y-66343350D01*
X66257187Y-66257190D01*
X66257190Y-66257187D01*
X66343350Y-66142093D01*
X66343354Y-66142086D01*
X66373213Y-66062031D01*
X66415084Y-66006097D01*
X66480548Y-65981680D01*
X66548821Y-65996531D01*
X66577076Y-66017683D01*
X66627636Y-66068243D01*
X66627641Y-66068247D01*
X66805976Y-66197814D01*
X66871794Y-66231350D01*
X66922591Y-66279324D01*
X66939500Y-66341835D01*
X66939500Y-67159902D01*
X66919815Y-67226941D01*
X66903181Y-67247583D01*
X55444842Y-78705921D01*
X55383519Y-78739406D01*
X55318848Y-78736173D01*
X55304534Y-78731522D01*
X55129995Y-78703878D01*
X55102352Y-78699500D01*
X54897648Y-78699500D01*
X54873329Y-78703351D01*
X54695465Y-78731522D01*
X54500776Y-78794781D01*
X54318386Y-78887715D01*
X54152786Y-79008028D01*
X54008028Y-79152786D01*
X53887715Y-79318386D01*
X53794781Y-79500776D01*
X53731522Y-79695465D01*
X53699500Y-79897648D01*
X47498114Y-79897648D01*
X46516372Y-77443292D01*
X45595047Y-75139980D01*
X45588426Y-75070425D01*
X45610978Y-75019528D01*
X45611865Y-75018346D01*
X60151608Y-55632020D01*
X60207578Y-55590200D01*
X60277274Y-55585279D01*
X60280849Y-55586115D01*
G37*
G04 #@! TD.AperFunction*
M02*
