G04 #@! TF.GenerationSoftware,KiCad,Pcbnew,9.0.0*
G04 #@! TF.CreationDate,2025-04-26T20:35:03-04:00*
G04 #@! TF.ProjectId,mothers_day_necklace,6d6f7468-6572-4735-9f64-61795f6e6563,rev?*
G04 #@! TF.SameCoordinates,Original*
G04 #@! TF.FileFunction,Legend,Top*
G04 #@! TF.FilePolarity,Positive*
%FSLAX46Y46*%
G04 Gerber Fmt 4.6, Leading zero omitted, Abs format (unit mm)*
G04 Created by KiCad (PCBNEW 9.0.0) date 2025-04-26 20:35:03*
%MOMM*%
%LPD*%
G01*
G04 APERTURE LIST*
%ADD10C,0.100000*%
%ADD11C,0.200000*%
%ADD12C,0.150000*%
%ADD13C,0.120000*%
%ADD14C,2.100000*%
%ADD15C,1.500000*%
%ADD16O,1.050000X1.500000*%
%ADD17R,1.050000X1.500000*%
%ADD18C,1.600000*%
%ADD19O,1.600000X1.600000*%
%ADD20R,1.800000X1.800000*%
%ADD21C,1.800000*%
%ADD22R,1.600000X2.000000*%
%ADD23O,1.600000X2.000000*%
G04 APERTURE END LIST*
D10*
X77922931Y-77566480D02*
X77922931Y-76066480D01*
X77922931Y-76780766D02*
X78780074Y-76780766D01*
X78780074Y-77566480D02*
X78780074Y-76066480D01*
X80137218Y-77566480D02*
X80137218Y-76780766D01*
X80137218Y-76780766D02*
X80065789Y-76637909D01*
X80065789Y-76637909D02*
X79922932Y-76566480D01*
X79922932Y-76566480D02*
X79637218Y-76566480D01*
X79637218Y-76566480D02*
X79494360Y-76637909D01*
X80137218Y-77495052D02*
X79994360Y-77566480D01*
X79994360Y-77566480D02*
X79637218Y-77566480D01*
X79637218Y-77566480D02*
X79494360Y-77495052D01*
X79494360Y-77495052D02*
X79422932Y-77352194D01*
X79422932Y-77352194D02*
X79422932Y-77209337D01*
X79422932Y-77209337D02*
X79494360Y-77066480D01*
X79494360Y-77066480D02*
X79637218Y-76995052D01*
X79637218Y-76995052D02*
X79994360Y-76995052D01*
X79994360Y-76995052D02*
X80137218Y-76923623D01*
X80851503Y-76566480D02*
X80851503Y-78066480D01*
X80851503Y-76637909D02*
X80994361Y-76566480D01*
X80994361Y-76566480D02*
X81280075Y-76566480D01*
X81280075Y-76566480D02*
X81422932Y-76637909D01*
X81422932Y-76637909D02*
X81494361Y-76709337D01*
X81494361Y-76709337D02*
X81565789Y-76852194D01*
X81565789Y-76852194D02*
X81565789Y-77280766D01*
X81565789Y-77280766D02*
X81494361Y-77423623D01*
X81494361Y-77423623D02*
X81422932Y-77495052D01*
X81422932Y-77495052D02*
X81280075Y-77566480D01*
X81280075Y-77566480D02*
X80994361Y-77566480D01*
X80994361Y-77566480D02*
X80851503Y-77495052D01*
X82208646Y-76566480D02*
X82208646Y-78066480D01*
X82208646Y-76637909D02*
X82351504Y-76566480D01*
X82351504Y-76566480D02*
X82637218Y-76566480D01*
X82637218Y-76566480D02*
X82780075Y-76637909D01*
X82780075Y-76637909D02*
X82851504Y-76709337D01*
X82851504Y-76709337D02*
X82922932Y-76852194D01*
X82922932Y-76852194D02*
X82922932Y-77280766D01*
X82922932Y-77280766D02*
X82851504Y-77423623D01*
X82851504Y-77423623D02*
X82780075Y-77495052D01*
X82780075Y-77495052D02*
X82637218Y-77566480D01*
X82637218Y-77566480D02*
X82351504Y-77566480D01*
X82351504Y-77566480D02*
X82208646Y-77495052D01*
X83422932Y-76566480D02*
X83780075Y-77566480D01*
X84137218Y-76566480D02*
X83780075Y-77566480D01*
X83780075Y-77566480D02*
X83637218Y-77923623D01*
X83637218Y-77923623D02*
X83565789Y-77995052D01*
X83565789Y-77995052D02*
X83422932Y-78066480D01*
X77922931Y-79981396D02*
X77922931Y-78481396D01*
X77922931Y-78481396D02*
X78422931Y-79552825D01*
X78422931Y-79552825D02*
X78922931Y-78481396D01*
X78922931Y-78481396D02*
X78922931Y-79981396D01*
X79851503Y-79981396D02*
X79708646Y-79909968D01*
X79708646Y-79909968D02*
X79637217Y-79838539D01*
X79637217Y-79838539D02*
X79565789Y-79695682D01*
X79565789Y-79695682D02*
X79565789Y-79267110D01*
X79565789Y-79267110D02*
X79637217Y-79124253D01*
X79637217Y-79124253D02*
X79708646Y-79052825D01*
X79708646Y-79052825D02*
X79851503Y-78981396D01*
X79851503Y-78981396D02*
X80065789Y-78981396D01*
X80065789Y-78981396D02*
X80208646Y-79052825D01*
X80208646Y-79052825D02*
X80280075Y-79124253D01*
X80280075Y-79124253D02*
X80351503Y-79267110D01*
X80351503Y-79267110D02*
X80351503Y-79695682D01*
X80351503Y-79695682D02*
X80280075Y-79838539D01*
X80280075Y-79838539D02*
X80208646Y-79909968D01*
X80208646Y-79909968D02*
X80065789Y-79981396D01*
X80065789Y-79981396D02*
X79851503Y-79981396D01*
X80780075Y-78981396D02*
X81351503Y-78981396D01*
X80994360Y-78481396D02*
X80994360Y-79767110D01*
X80994360Y-79767110D02*
X81065789Y-79909968D01*
X81065789Y-79909968D02*
X81208646Y-79981396D01*
X81208646Y-79981396D02*
X81351503Y-79981396D01*
X81851503Y-79981396D02*
X81851503Y-78481396D01*
X82494361Y-79981396D02*
X82494361Y-79195682D01*
X82494361Y-79195682D02*
X82422932Y-79052825D01*
X82422932Y-79052825D02*
X82280075Y-78981396D01*
X82280075Y-78981396D02*
X82065789Y-78981396D01*
X82065789Y-78981396D02*
X81922932Y-79052825D01*
X81922932Y-79052825D02*
X81851503Y-79124253D01*
X83780075Y-79909968D02*
X83637218Y-79981396D01*
X83637218Y-79981396D02*
X83351504Y-79981396D01*
X83351504Y-79981396D02*
X83208646Y-79909968D01*
X83208646Y-79909968D02*
X83137218Y-79767110D01*
X83137218Y-79767110D02*
X83137218Y-79195682D01*
X83137218Y-79195682D02*
X83208646Y-79052825D01*
X83208646Y-79052825D02*
X83351504Y-78981396D01*
X83351504Y-78981396D02*
X83637218Y-78981396D01*
X83637218Y-78981396D02*
X83780075Y-79052825D01*
X83780075Y-79052825D02*
X83851504Y-79195682D01*
X83851504Y-79195682D02*
X83851504Y-79338539D01*
X83851504Y-79338539D02*
X83137218Y-79481396D01*
X84494360Y-79981396D02*
X84494360Y-78981396D01*
X84494360Y-79267110D02*
X84565789Y-79124253D01*
X84565789Y-79124253D02*
X84637218Y-79052825D01*
X84637218Y-79052825D02*
X84780075Y-78981396D01*
X84780075Y-78981396D02*
X84922932Y-78981396D01*
X85494360Y-78481396D02*
X85351503Y-78767110D01*
X86065789Y-79909968D02*
X86208646Y-79981396D01*
X86208646Y-79981396D02*
X86494360Y-79981396D01*
X86494360Y-79981396D02*
X86637217Y-79909968D01*
X86637217Y-79909968D02*
X86708646Y-79767110D01*
X86708646Y-79767110D02*
X86708646Y-79695682D01*
X86708646Y-79695682D02*
X86637217Y-79552825D01*
X86637217Y-79552825D02*
X86494360Y-79481396D01*
X86494360Y-79481396D02*
X86280075Y-79481396D01*
X86280075Y-79481396D02*
X86137217Y-79409968D01*
X86137217Y-79409968D02*
X86065789Y-79267110D01*
X86065789Y-79267110D02*
X86065789Y-79195682D01*
X86065789Y-79195682D02*
X86137217Y-79052825D01*
X86137217Y-79052825D02*
X86280075Y-78981396D01*
X86280075Y-78981396D02*
X86494360Y-78981396D01*
X86494360Y-78981396D02*
X86637217Y-79052825D01*
X77922931Y-82396312D02*
X77922931Y-80896312D01*
X77922931Y-80896312D02*
X78280074Y-80896312D01*
X78280074Y-80896312D02*
X78494360Y-80967741D01*
X78494360Y-80967741D02*
X78637217Y-81110598D01*
X78637217Y-81110598D02*
X78708646Y-81253455D01*
X78708646Y-81253455D02*
X78780074Y-81539169D01*
X78780074Y-81539169D02*
X78780074Y-81753455D01*
X78780074Y-81753455D02*
X78708646Y-82039169D01*
X78708646Y-82039169D02*
X78637217Y-82182026D01*
X78637217Y-82182026D02*
X78494360Y-82324884D01*
X78494360Y-82324884D02*
X78280074Y-82396312D01*
X78280074Y-82396312D02*
X77922931Y-82396312D01*
X80065789Y-82396312D02*
X80065789Y-81610598D01*
X80065789Y-81610598D02*
X79994360Y-81467741D01*
X79994360Y-81467741D02*
X79851503Y-81396312D01*
X79851503Y-81396312D02*
X79565789Y-81396312D01*
X79565789Y-81396312D02*
X79422931Y-81467741D01*
X80065789Y-82324884D02*
X79922931Y-82396312D01*
X79922931Y-82396312D02*
X79565789Y-82396312D01*
X79565789Y-82396312D02*
X79422931Y-82324884D01*
X79422931Y-82324884D02*
X79351503Y-82182026D01*
X79351503Y-82182026D02*
X79351503Y-82039169D01*
X79351503Y-82039169D02*
X79422931Y-81896312D01*
X79422931Y-81896312D02*
X79565789Y-81824884D01*
X79565789Y-81824884D02*
X79922931Y-81824884D01*
X79922931Y-81824884D02*
X80065789Y-81753455D01*
X80637217Y-81396312D02*
X80994360Y-82396312D01*
X81351503Y-81396312D02*
X80994360Y-82396312D01*
X80994360Y-82396312D02*
X80851503Y-82753455D01*
X80851503Y-82753455D02*
X80780074Y-82824884D01*
X80780074Y-82824884D02*
X80637217Y-82896312D01*
X77922931Y-84668371D02*
X77994360Y-84739800D01*
X77994360Y-84739800D02*
X77922931Y-84811228D01*
X77922931Y-84811228D02*
X77851503Y-84739800D01*
X77851503Y-84739800D02*
X77922931Y-84668371D01*
X77922931Y-84668371D02*
X77922931Y-84811228D01*
X77922931Y-83882657D02*
X77994360Y-83954085D01*
X77994360Y-83954085D02*
X77922931Y-84025514D01*
X77922931Y-84025514D02*
X77851503Y-83954085D01*
X77851503Y-83954085D02*
X77922931Y-83882657D01*
X77922931Y-83882657D02*
X77922931Y-84025514D01*
X78494360Y-85382657D02*
X78565789Y-85311228D01*
X78565789Y-85311228D02*
X78708646Y-85096942D01*
X78708646Y-85096942D02*
X78780075Y-84954085D01*
X78780075Y-84954085D02*
X78851503Y-84739800D01*
X78851503Y-84739800D02*
X78922932Y-84382657D01*
X78922932Y-84382657D02*
X78922932Y-84096942D01*
X78922932Y-84096942D02*
X78851503Y-83739800D01*
X78851503Y-83739800D02*
X78780075Y-83525514D01*
X78780075Y-83525514D02*
X78708646Y-83382657D01*
X78708646Y-83382657D02*
X78565789Y-83168371D01*
X78565789Y-83168371D02*
X78494360Y-83096942D01*
X87994360Y-91372419D02*
X88184836Y-91372419D01*
X88184836Y-91372419D02*
X88280074Y-91420038D01*
X88280074Y-91420038D02*
X88375312Y-91515276D01*
X88375312Y-91515276D02*
X88422931Y-91705752D01*
X88422931Y-91705752D02*
X88422931Y-92039085D01*
X88422931Y-92039085D02*
X88375312Y-92229561D01*
X88375312Y-92229561D02*
X88280074Y-92324800D01*
X88280074Y-92324800D02*
X88184836Y-92372419D01*
X88184836Y-92372419D02*
X87994360Y-92372419D01*
X87994360Y-92372419D02*
X87899122Y-92324800D01*
X87899122Y-92324800D02*
X87803884Y-92229561D01*
X87803884Y-92229561D02*
X87756265Y-92039085D01*
X87756265Y-92039085D02*
X87756265Y-91705752D01*
X87756265Y-91705752D02*
X87803884Y-91515276D01*
X87803884Y-91515276D02*
X87899122Y-91420038D01*
X87899122Y-91420038D02*
X87994360Y-91372419D01*
X88851503Y-92372419D02*
X88851503Y-91372419D01*
X88851503Y-91372419D02*
X89422931Y-92372419D01*
X89422931Y-92372419D02*
X89422931Y-91372419D01*
X112994360Y-95222319D02*
X113184836Y-95222319D01*
X113184836Y-95222319D02*
X113280074Y-95269938D01*
X113280074Y-95269938D02*
X113375312Y-95365176D01*
X113375312Y-95365176D02*
X113422931Y-95555652D01*
X113422931Y-95555652D02*
X113422931Y-95888985D01*
X113422931Y-95888985D02*
X113375312Y-96079461D01*
X113375312Y-96079461D02*
X113280074Y-96174700D01*
X113280074Y-96174700D02*
X113184836Y-96222319D01*
X113184836Y-96222319D02*
X112994360Y-96222319D01*
X112994360Y-96222319D02*
X112899122Y-96174700D01*
X112899122Y-96174700D02*
X112803884Y-96079461D01*
X112803884Y-96079461D02*
X112756265Y-95888985D01*
X112756265Y-95888985D02*
X112756265Y-95555652D01*
X112756265Y-95555652D02*
X112803884Y-95365176D01*
X112803884Y-95365176D02*
X112899122Y-95269938D01*
X112899122Y-95269938D02*
X112994360Y-95222319D01*
X114184836Y-95698509D02*
X113851503Y-95698509D01*
X113851503Y-96222319D02*
X113851503Y-95222319D01*
X113851503Y-95222319D02*
X114327693Y-95222319D01*
X115041979Y-95698509D02*
X114708646Y-95698509D01*
X114708646Y-96222319D02*
X114708646Y-95222319D01*
X114708646Y-95222319D02*
X115184836Y-95222319D01*
D11*
X105650625Y-79414417D02*
X105555387Y-79509656D01*
X105555387Y-79509656D02*
X105269673Y-79604894D01*
X105269673Y-79604894D02*
X105079197Y-79604894D01*
X105079197Y-79604894D02*
X104793482Y-79509656D01*
X104793482Y-79509656D02*
X104603006Y-79319179D01*
X104603006Y-79319179D02*
X104507768Y-79128703D01*
X104507768Y-79128703D02*
X104412530Y-78747751D01*
X104412530Y-78747751D02*
X104412530Y-78462036D01*
X104412530Y-78462036D02*
X104507768Y-78081084D01*
X104507768Y-78081084D02*
X104603006Y-77890608D01*
X104603006Y-77890608D02*
X104793482Y-77700132D01*
X104793482Y-77700132D02*
X105079197Y-77604894D01*
X105079197Y-77604894D02*
X105269673Y-77604894D01*
X105269673Y-77604894D02*
X105555387Y-77700132D01*
X105555387Y-77700132D02*
X105650625Y-77795370D01*
X106793482Y-79604894D02*
X106603006Y-79509656D01*
X106603006Y-79509656D02*
X106507768Y-79414417D01*
X106507768Y-79414417D02*
X106412530Y-79223941D01*
X106412530Y-79223941D02*
X106412530Y-78652513D01*
X106412530Y-78652513D02*
X106507768Y-78462036D01*
X106507768Y-78462036D02*
X106603006Y-78366798D01*
X106603006Y-78366798D02*
X106793482Y-78271560D01*
X106793482Y-78271560D02*
X107079197Y-78271560D01*
X107079197Y-78271560D02*
X107269673Y-78366798D01*
X107269673Y-78366798D02*
X107364911Y-78462036D01*
X107364911Y-78462036D02*
X107460149Y-78652513D01*
X107460149Y-78652513D02*
X107460149Y-79223941D01*
X107460149Y-79223941D02*
X107364911Y-79414417D01*
X107364911Y-79414417D02*
X107269673Y-79509656D01*
X107269673Y-79509656D02*
X107079197Y-79604894D01*
X107079197Y-79604894D02*
X106793482Y-79604894D01*
X108126816Y-78271560D02*
X108603006Y-79604894D01*
X108603006Y-79604894D02*
X109079197Y-78271560D01*
X110603007Y-79509656D02*
X110412531Y-79604894D01*
X110412531Y-79604894D02*
X110031578Y-79604894D01*
X110031578Y-79604894D02*
X109841102Y-79509656D01*
X109841102Y-79509656D02*
X109745864Y-79319179D01*
X109745864Y-79319179D02*
X109745864Y-78557275D01*
X109745864Y-78557275D02*
X109841102Y-78366798D01*
X109841102Y-78366798D02*
X110031578Y-78271560D01*
X110031578Y-78271560D02*
X110412531Y-78271560D01*
X110412531Y-78271560D02*
X110603007Y-78366798D01*
X110603007Y-78366798D02*
X110698245Y-78557275D01*
X110698245Y-78557275D02*
X110698245Y-78747751D01*
X110698245Y-78747751D02*
X109745864Y-78938227D01*
X111555388Y-79604894D02*
X111555388Y-78271560D01*
X111555388Y-78652513D02*
X111650626Y-78462036D01*
X111650626Y-78462036D02*
X111745864Y-78366798D01*
X111745864Y-78366798D02*
X111936340Y-78271560D01*
X111936340Y-78271560D02*
X112126817Y-78271560D01*
X114031579Y-78271560D02*
X114793483Y-78271560D01*
X114317293Y-77604894D02*
X114317293Y-79319179D01*
X114317293Y-79319179D02*
X114412531Y-79509656D01*
X114412531Y-79509656D02*
X114603007Y-79604894D01*
X114603007Y-79604894D02*
X114793483Y-79604894D01*
X115745864Y-79604894D02*
X115555388Y-79509656D01*
X115555388Y-79509656D02*
X115460150Y-79414417D01*
X115460150Y-79414417D02*
X115364912Y-79223941D01*
X115364912Y-79223941D02*
X115364912Y-78652513D01*
X115364912Y-78652513D02*
X115460150Y-78462036D01*
X115460150Y-78462036D02*
X115555388Y-78366798D01*
X115555388Y-78366798D02*
X115745864Y-78271560D01*
X115745864Y-78271560D02*
X116031579Y-78271560D01*
X116031579Y-78271560D02*
X116222055Y-78366798D01*
X116222055Y-78366798D02*
X116317293Y-78462036D01*
X116317293Y-78462036D02*
X116412531Y-78652513D01*
X116412531Y-78652513D02*
X116412531Y-79223941D01*
X116412531Y-79223941D02*
X116317293Y-79414417D01*
X116317293Y-79414417D02*
X116222055Y-79509656D01*
X116222055Y-79509656D02*
X116031579Y-79604894D01*
X116031579Y-79604894D02*
X115745864Y-79604894D01*
X104793482Y-82824782D02*
X104603006Y-82729544D01*
X104603006Y-82729544D02*
X104507768Y-82539067D01*
X104507768Y-82539067D02*
X104507768Y-80824782D01*
X105555387Y-82824782D02*
X105555387Y-81491448D01*
X105555387Y-80824782D02*
X105460149Y-80920020D01*
X105460149Y-80920020D02*
X105555387Y-81015258D01*
X105555387Y-81015258D02*
X105650625Y-80920020D01*
X105650625Y-80920020D02*
X105555387Y-80824782D01*
X105555387Y-80824782D02*
X105555387Y-81015258D01*
X107364911Y-81491448D02*
X107364911Y-83110496D01*
X107364911Y-83110496D02*
X107269673Y-83300972D01*
X107269673Y-83300972D02*
X107174435Y-83396210D01*
X107174435Y-83396210D02*
X106983958Y-83491448D01*
X106983958Y-83491448D02*
X106698244Y-83491448D01*
X106698244Y-83491448D02*
X106507768Y-83396210D01*
X107364911Y-82729544D02*
X107174435Y-82824782D01*
X107174435Y-82824782D02*
X106793482Y-82824782D01*
X106793482Y-82824782D02*
X106603006Y-82729544D01*
X106603006Y-82729544D02*
X106507768Y-82634305D01*
X106507768Y-82634305D02*
X106412530Y-82443829D01*
X106412530Y-82443829D02*
X106412530Y-81872401D01*
X106412530Y-81872401D02*
X106507768Y-81681924D01*
X106507768Y-81681924D02*
X106603006Y-81586686D01*
X106603006Y-81586686D02*
X106793482Y-81491448D01*
X106793482Y-81491448D02*
X107174435Y-81491448D01*
X107174435Y-81491448D02*
X107364911Y-81586686D01*
X108317292Y-82824782D02*
X108317292Y-80824782D01*
X109174435Y-82824782D02*
X109174435Y-81777163D01*
X109174435Y-81777163D02*
X109079197Y-81586686D01*
X109079197Y-81586686D02*
X108888721Y-81491448D01*
X108888721Y-81491448D02*
X108603006Y-81491448D01*
X108603006Y-81491448D02*
X108412530Y-81586686D01*
X108412530Y-81586686D02*
X108317292Y-81681924D01*
X109841102Y-81491448D02*
X110603006Y-81491448D01*
X110126816Y-80824782D02*
X110126816Y-82539067D01*
X110126816Y-82539067D02*
X110222054Y-82729544D01*
X110222054Y-82729544D02*
X110412530Y-82824782D01*
X110412530Y-82824782D02*
X110603006Y-82824782D01*
X112793483Y-82824782D02*
X112793483Y-81491448D01*
X112793483Y-81681924D02*
X112888721Y-81586686D01*
X112888721Y-81586686D02*
X113079197Y-81491448D01*
X113079197Y-81491448D02*
X113364912Y-81491448D01*
X113364912Y-81491448D02*
X113555388Y-81586686D01*
X113555388Y-81586686D02*
X113650626Y-81777163D01*
X113650626Y-81777163D02*
X113650626Y-82824782D01*
X113650626Y-81777163D02*
X113745864Y-81586686D01*
X113745864Y-81586686D02*
X113936340Y-81491448D01*
X113936340Y-81491448D02*
X114222054Y-81491448D01*
X114222054Y-81491448D02*
X114412531Y-81586686D01*
X114412531Y-81586686D02*
X114507769Y-81777163D01*
X114507769Y-81777163D02*
X114507769Y-82824782D01*
X116222055Y-82729544D02*
X116031579Y-82824782D01*
X116031579Y-82824782D02*
X115650626Y-82824782D01*
X115650626Y-82824782D02*
X115460150Y-82729544D01*
X115460150Y-82729544D02*
X115364912Y-82539067D01*
X115364912Y-82539067D02*
X115364912Y-81777163D01*
X115364912Y-81777163D02*
X115460150Y-81586686D01*
X115460150Y-81586686D02*
X115650626Y-81491448D01*
X115650626Y-81491448D02*
X116031579Y-81491448D01*
X116031579Y-81491448D02*
X116222055Y-81586686D01*
X116222055Y-81586686D02*
X116317293Y-81777163D01*
X116317293Y-81777163D02*
X116317293Y-81967639D01*
X116317293Y-81967639D02*
X115364912Y-82158115D01*
X119555389Y-81491448D02*
X119555389Y-82824782D01*
X118698246Y-81491448D02*
X118698246Y-82539067D01*
X118698246Y-82539067D02*
X118793484Y-82729544D01*
X118793484Y-82729544D02*
X118983960Y-82824782D01*
X118983960Y-82824782D02*
X119269675Y-82824782D01*
X119269675Y-82824782D02*
X119460151Y-82729544D01*
X119460151Y-82729544D02*
X119555389Y-82634305D01*
X120507770Y-81491448D02*
X120507770Y-83491448D01*
X120507770Y-81586686D02*
X120698246Y-81491448D01*
X120698246Y-81491448D02*
X121079199Y-81491448D01*
X121079199Y-81491448D02*
X121269675Y-81586686D01*
X121269675Y-81586686D02*
X121364913Y-81681924D01*
X121364913Y-81681924D02*
X121460151Y-81872401D01*
X121460151Y-81872401D02*
X121460151Y-82443829D01*
X121460151Y-82443829D02*
X121364913Y-82634305D01*
X121364913Y-82634305D02*
X121269675Y-82729544D01*
X121269675Y-82729544D02*
X121079199Y-82824782D01*
X121079199Y-82824782D02*
X120698246Y-82824782D01*
X120698246Y-82824782D02*
X120507770Y-82729544D01*
X122317294Y-82634305D02*
X122412532Y-82729544D01*
X122412532Y-82729544D02*
X122317294Y-82824782D01*
X122317294Y-82824782D02*
X122222056Y-82729544D01*
X122222056Y-82729544D02*
X122317294Y-82634305D01*
X122317294Y-82634305D02*
X122317294Y-82824782D01*
X122317294Y-82062877D02*
X122222056Y-80920020D01*
X122222056Y-80920020D02*
X122317294Y-80824782D01*
X122317294Y-80824782D02*
X122412532Y-80920020D01*
X122412532Y-80920020D02*
X122317294Y-82062877D01*
X122317294Y-82062877D02*
X122317294Y-80824782D01*
D12*
X99238095Y-69254819D02*
X99238095Y-68254819D01*
X99238095Y-68731009D02*
X99809523Y-68731009D01*
X99809523Y-69254819D02*
X99809523Y-68254819D01*
X100809523Y-69254819D02*
X100238095Y-69254819D01*
X100523809Y-69254819D02*
X100523809Y-68254819D01*
X100523809Y-68254819D02*
X100428571Y-68397676D01*
X100428571Y-68397676D02*
X100333333Y-68492914D01*
X100333333Y-68492914D02*
X100238095Y-68540533D01*
X99833333Y-77554819D02*
X99500000Y-77078628D01*
X99261905Y-77554819D02*
X99261905Y-76554819D01*
X99261905Y-76554819D02*
X99642857Y-76554819D01*
X99642857Y-76554819D02*
X99738095Y-76602438D01*
X99738095Y-76602438D02*
X99785714Y-76650057D01*
X99785714Y-76650057D02*
X99833333Y-76745295D01*
X99833333Y-76745295D02*
X99833333Y-76888152D01*
X99833333Y-76888152D02*
X99785714Y-76983390D01*
X99785714Y-76983390D02*
X99738095Y-77031009D01*
X99738095Y-77031009D02*
X99642857Y-77078628D01*
X99642857Y-77078628D02*
X99261905Y-77078628D01*
X100166667Y-76554819D02*
X100833333Y-76554819D01*
X100833333Y-76554819D02*
X100404762Y-77554819D01*
X121094761Y-86990057D02*
X120999523Y-86942438D01*
X120999523Y-86942438D02*
X120904285Y-86847200D01*
X120904285Y-86847200D02*
X120761428Y-86704342D01*
X120761428Y-86704342D02*
X120666190Y-86656723D01*
X120666190Y-86656723D02*
X120570952Y-86656723D01*
X120618571Y-86894819D02*
X120523333Y-86847200D01*
X120523333Y-86847200D02*
X120428095Y-86751961D01*
X120428095Y-86751961D02*
X120380476Y-86561485D01*
X120380476Y-86561485D02*
X120380476Y-86228152D01*
X120380476Y-86228152D02*
X120428095Y-86037676D01*
X120428095Y-86037676D02*
X120523333Y-85942438D01*
X120523333Y-85942438D02*
X120618571Y-85894819D01*
X120618571Y-85894819D02*
X120809047Y-85894819D01*
X120809047Y-85894819D02*
X120904285Y-85942438D01*
X120904285Y-85942438D02*
X120999523Y-86037676D01*
X120999523Y-86037676D02*
X121047142Y-86228152D01*
X121047142Y-86228152D02*
X121047142Y-86561485D01*
X121047142Y-86561485D02*
X120999523Y-86751961D01*
X120999523Y-86751961D02*
X120904285Y-86847200D01*
X120904285Y-86847200D02*
X120809047Y-86894819D01*
X120809047Y-86894819D02*
X120618571Y-86894819D01*
X121999523Y-86894819D02*
X121428095Y-86894819D01*
X121713809Y-86894819D02*
X121713809Y-85894819D01*
X121713809Y-85894819D02*
X121618571Y-86037676D01*
X121618571Y-86037676D02*
X121523333Y-86132914D01*
X121523333Y-86132914D02*
X121428095Y-86180533D01*
X84753333Y-68084819D02*
X84420000Y-67608628D01*
X84181905Y-68084819D02*
X84181905Y-67084819D01*
X84181905Y-67084819D02*
X84562857Y-67084819D01*
X84562857Y-67084819D02*
X84658095Y-67132438D01*
X84658095Y-67132438D02*
X84705714Y-67180057D01*
X84705714Y-67180057D02*
X84753333Y-67275295D01*
X84753333Y-67275295D02*
X84753333Y-67418152D01*
X84753333Y-67418152D02*
X84705714Y-67513390D01*
X84705714Y-67513390D02*
X84658095Y-67561009D01*
X84658095Y-67561009D02*
X84562857Y-67608628D01*
X84562857Y-67608628D02*
X84181905Y-67608628D01*
X85610476Y-67084819D02*
X85420000Y-67084819D01*
X85420000Y-67084819D02*
X85324762Y-67132438D01*
X85324762Y-67132438D02*
X85277143Y-67180057D01*
X85277143Y-67180057D02*
X85181905Y-67322914D01*
X85181905Y-67322914D02*
X85134286Y-67513390D01*
X85134286Y-67513390D02*
X85134286Y-67894342D01*
X85134286Y-67894342D02*
X85181905Y-67989580D01*
X85181905Y-67989580D02*
X85229524Y-68037200D01*
X85229524Y-68037200D02*
X85324762Y-68084819D01*
X85324762Y-68084819D02*
X85515238Y-68084819D01*
X85515238Y-68084819D02*
X85610476Y-68037200D01*
X85610476Y-68037200D02*
X85658095Y-67989580D01*
X85658095Y-67989580D02*
X85705714Y-67894342D01*
X85705714Y-67894342D02*
X85705714Y-67656247D01*
X85705714Y-67656247D02*
X85658095Y-67561009D01*
X85658095Y-67561009D02*
X85610476Y-67513390D01*
X85610476Y-67513390D02*
X85515238Y-67465771D01*
X85515238Y-67465771D02*
X85324762Y-67465771D01*
X85324762Y-67465771D02*
X85229524Y-67513390D01*
X85229524Y-67513390D02*
X85181905Y-67561009D01*
X85181905Y-67561009D02*
X85134286Y-67656247D01*
X59913333Y-78084819D02*
X59580000Y-77608628D01*
X59341905Y-78084819D02*
X59341905Y-77084819D01*
X59341905Y-77084819D02*
X59722857Y-77084819D01*
X59722857Y-77084819D02*
X59818095Y-77132438D01*
X59818095Y-77132438D02*
X59865714Y-77180057D01*
X59865714Y-77180057D02*
X59913333Y-77275295D01*
X59913333Y-77275295D02*
X59913333Y-77418152D01*
X59913333Y-77418152D02*
X59865714Y-77513390D01*
X59865714Y-77513390D02*
X59818095Y-77561009D01*
X59818095Y-77561009D02*
X59722857Y-77608628D01*
X59722857Y-77608628D02*
X59341905Y-77608628D01*
X60818095Y-77084819D02*
X60341905Y-77084819D01*
X60341905Y-77084819D02*
X60294286Y-77561009D01*
X60294286Y-77561009D02*
X60341905Y-77513390D01*
X60341905Y-77513390D02*
X60437143Y-77465771D01*
X60437143Y-77465771D02*
X60675238Y-77465771D01*
X60675238Y-77465771D02*
X60770476Y-77513390D01*
X60770476Y-77513390D02*
X60818095Y-77561009D01*
X60818095Y-77561009D02*
X60865714Y-77656247D01*
X60865714Y-77656247D02*
X60865714Y-77894342D01*
X60865714Y-77894342D02*
X60818095Y-77989580D01*
X60818095Y-77989580D02*
X60770476Y-78037200D01*
X60770476Y-78037200D02*
X60675238Y-78084819D01*
X60675238Y-78084819D02*
X60437143Y-78084819D01*
X60437143Y-78084819D02*
X60341905Y-78037200D01*
X60341905Y-78037200D02*
X60294286Y-77989580D01*
X79753333Y-113084819D02*
X79420000Y-112608628D01*
X79181905Y-113084819D02*
X79181905Y-112084819D01*
X79181905Y-112084819D02*
X79562857Y-112084819D01*
X79562857Y-112084819D02*
X79658095Y-112132438D01*
X79658095Y-112132438D02*
X79705714Y-112180057D01*
X79705714Y-112180057D02*
X79753333Y-112275295D01*
X79753333Y-112275295D02*
X79753333Y-112418152D01*
X79753333Y-112418152D02*
X79705714Y-112513390D01*
X79705714Y-112513390D02*
X79658095Y-112561009D01*
X79658095Y-112561009D02*
X79562857Y-112608628D01*
X79562857Y-112608628D02*
X79181905Y-112608628D01*
X80610476Y-112418152D02*
X80610476Y-113084819D01*
X80372381Y-112037200D02*
X80134286Y-112751485D01*
X80134286Y-112751485D02*
X80753333Y-112751485D01*
X119913333Y-113084819D02*
X119580000Y-112608628D01*
X119341905Y-113084819D02*
X119341905Y-112084819D01*
X119341905Y-112084819D02*
X119722857Y-112084819D01*
X119722857Y-112084819D02*
X119818095Y-112132438D01*
X119818095Y-112132438D02*
X119865714Y-112180057D01*
X119865714Y-112180057D02*
X119913333Y-112275295D01*
X119913333Y-112275295D02*
X119913333Y-112418152D01*
X119913333Y-112418152D02*
X119865714Y-112513390D01*
X119865714Y-112513390D02*
X119818095Y-112561009D01*
X119818095Y-112561009D02*
X119722857Y-112608628D01*
X119722857Y-112608628D02*
X119341905Y-112608628D01*
X120246667Y-112084819D02*
X120865714Y-112084819D01*
X120865714Y-112084819D02*
X120532381Y-112465771D01*
X120532381Y-112465771D02*
X120675238Y-112465771D01*
X120675238Y-112465771D02*
X120770476Y-112513390D01*
X120770476Y-112513390D02*
X120818095Y-112561009D01*
X120818095Y-112561009D02*
X120865714Y-112656247D01*
X120865714Y-112656247D02*
X120865714Y-112894342D01*
X120865714Y-112894342D02*
X120818095Y-112989580D01*
X120818095Y-112989580D02*
X120770476Y-113037200D01*
X120770476Y-113037200D02*
X120675238Y-113084819D01*
X120675238Y-113084819D02*
X120389524Y-113084819D01*
X120389524Y-113084819D02*
X120294286Y-113037200D01*
X120294286Y-113037200D02*
X120246667Y-112989580D01*
X139753333Y-78084819D02*
X139420000Y-77608628D01*
X139181905Y-78084819D02*
X139181905Y-77084819D01*
X139181905Y-77084819D02*
X139562857Y-77084819D01*
X139562857Y-77084819D02*
X139658095Y-77132438D01*
X139658095Y-77132438D02*
X139705714Y-77180057D01*
X139705714Y-77180057D02*
X139753333Y-77275295D01*
X139753333Y-77275295D02*
X139753333Y-77418152D01*
X139753333Y-77418152D02*
X139705714Y-77513390D01*
X139705714Y-77513390D02*
X139658095Y-77561009D01*
X139658095Y-77561009D02*
X139562857Y-77608628D01*
X139562857Y-77608628D02*
X139181905Y-77608628D01*
X140134286Y-77180057D02*
X140181905Y-77132438D01*
X140181905Y-77132438D02*
X140277143Y-77084819D01*
X140277143Y-77084819D02*
X140515238Y-77084819D01*
X140515238Y-77084819D02*
X140610476Y-77132438D01*
X140610476Y-77132438D02*
X140658095Y-77180057D01*
X140658095Y-77180057D02*
X140705714Y-77275295D01*
X140705714Y-77275295D02*
X140705714Y-77370533D01*
X140705714Y-77370533D02*
X140658095Y-77513390D01*
X140658095Y-77513390D02*
X140086667Y-78084819D01*
X140086667Y-78084819D02*
X140705714Y-78084819D01*
X114753333Y-68084819D02*
X114420000Y-67608628D01*
X114181905Y-68084819D02*
X114181905Y-67084819D01*
X114181905Y-67084819D02*
X114562857Y-67084819D01*
X114562857Y-67084819D02*
X114658095Y-67132438D01*
X114658095Y-67132438D02*
X114705714Y-67180057D01*
X114705714Y-67180057D02*
X114753333Y-67275295D01*
X114753333Y-67275295D02*
X114753333Y-67418152D01*
X114753333Y-67418152D02*
X114705714Y-67513390D01*
X114705714Y-67513390D02*
X114658095Y-67561009D01*
X114658095Y-67561009D02*
X114562857Y-67608628D01*
X114562857Y-67608628D02*
X114181905Y-67608628D01*
X115705714Y-68084819D02*
X115134286Y-68084819D01*
X115420000Y-68084819D02*
X115420000Y-67084819D01*
X115420000Y-67084819D02*
X115324762Y-67227676D01*
X115324762Y-67227676D02*
X115229524Y-67322914D01*
X115229524Y-67322914D02*
X115134286Y-67370533D01*
X65531905Y-61494819D02*
X65531905Y-60494819D01*
X65531905Y-60494819D02*
X65770000Y-60494819D01*
X65770000Y-60494819D02*
X65912857Y-60542438D01*
X65912857Y-60542438D02*
X66008095Y-60637676D01*
X66008095Y-60637676D02*
X66055714Y-60732914D01*
X66055714Y-60732914D02*
X66103333Y-60923390D01*
X66103333Y-60923390D02*
X66103333Y-61066247D01*
X66103333Y-61066247D02*
X66055714Y-61256723D01*
X66055714Y-61256723D02*
X66008095Y-61351961D01*
X66008095Y-61351961D02*
X65912857Y-61447200D01*
X65912857Y-61447200D02*
X65770000Y-61494819D01*
X65770000Y-61494819D02*
X65531905Y-61494819D01*
X67008095Y-60494819D02*
X66531905Y-60494819D01*
X66531905Y-60494819D02*
X66484286Y-60971009D01*
X66484286Y-60971009D02*
X66531905Y-60923390D01*
X66531905Y-60923390D02*
X66627143Y-60875771D01*
X66627143Y-60875771D02*
X66865238Y-60875771D01*
X66865238Y-60875771D02*
X66960476Y-60923390D01*
X66960476Y-60923390D02*
X67008095Y-60971009D01*
X67008095Y-60971009D02*
X67055714Y-61066247D01*
X67055714Y-61066247D02*
X67055714Y-61304342D01*
X67055714Y-61304342D02*
X67008095Y-61399580D01*
X67008095Y-61399580D02*
X66960476Y-61447200D01*
X66960476Y-61447200D02*
X66865238Y-61494819D01*
X66865238Y-61494819D02*
X66627143Y-61494819D01*
X66627143Y-61494819D02*
X66531905Y-61447200D01*
X66531905Y-61447200D02*
X66484286Y-61399580D01*
X65531905Y-96494819D02*
X65531905Y-95494819D01*
X65531905Y-95494819D02*
X65770000Y-95494819D01*
X65770000Y-95494819D02*
X65912857Y-95542438D01*
X65912857Y-95542438D02*
X66008095Y-95637676D01*
X66008095Y-95637676D02*
X66055714Y-95732914D01*
X66055714Y-95732914D02*
X66103333Y-95923390D01*
X66103333Y-95923390D02*
X66103333Y-96066247D01*
X66103333Y-96066247D02*
X66055714Y-96256723D01*
X66055714Y-96256723D02*
X66008095Y-96351961D01*
X66008095Y-96351961D02*
X65912857Y-96447200D01*
X65912857Y-96447200D02*
X65770000Y-96494819D01*
X65770000Y-96494819D02*
X65531905Y-96494819D01*
X66960476Y-95828152D02*
X66960476Y-96494819D01*
X66722381Y-95447200D02*
X66484286Y-96161485D01*
X66484286Y-96161485D02*
X67103333Y-96161485D01*
X100531905Y-126494819D02*
X100531905Y-125494819D01*
X100531905Y-125494819D02*
X100770000Y-125494819D01*
X100770000Y-125494819D02*
X100912857Y-125542438D01*
X100912857Y-125542438D02*
X101008095Y-125637676D01*
X101008095Y-125637676D02*
X101055714Y-125732914D01*
X101055714Y-125732914D02*
X101103333Y-125923390D01*
X101103333Y-125923390D02*
X101103333Y-126066247D01*
X101103333Y-126066247D02*
X101055714Y-126256723D01*
X101055714Y-126256723D02*
X101008095Y-126351961D01*
X101008095Y-126351961D02*
X100912857Y-126447200D01*
X100912857Y-126447200D02*
X100770000Y-126494819D01*
X100770000Y-126494819D02*
X100531905Y-126494819D01*
X101436667Y-125494819D02*
X102055714Y-125494819D01*
X102055714Y-125494819D02*
X101722381Y-125875771D01*
X101722381Y-125875771D02*
X101865238Y-125875771D01*
X101865238Y-125875771D02*
X101960476Y-125923390D01*
X101960476Y-125923390D02*
X102008095Y-125971009D01*
X102008095Y-125971009D02*
X102055714Y-126066247D01*
X102055714Y-126066247D02*
X102055714Y-126304342D01*
X102055714Y-126304342D02*
X102008095Y-126399580D01*
X102008095Y-126399580D02*
X101960476Y-126447200D01*
X101960476Y-126447200D02*
X101865238Y-126494819D01*
X101865238Y-126494819D02*
X101579524Y-126494819D01*
X101579524Y-126494819D02*
X101484286Y-126447200D01*
X101484286Y-126447200D02*
X101436667Y-126399580D01*
X135531905Y-96494819D02*
X135531905Y-95494819D01*
X135531905Y-95494819D02*
X135770000Y-95494819D01*
X135770000Y-95494819D02*
X135912857Y-95542438D01*
X135912857Y-95542438D02*
X136008095Y-95637676D01*
X136008095Y-95637676D02*
X136055714Y-95732914D01*
X136055714Y-95732914D02*
X136103333Y-95923390D01*
X136103333Y-95923390D02*
X136103333Y-96066247D01*
X136103333Y-96066247D02*
X136055714Y-96256723D01*
X136055714Y-96256723D02*
X136008095Y-96351961D01*
X136008095Y-96351961D02*
X135912857Y-96447200D01*
X135912857Y-96447200D02*
X135770000Y-96494819D01*
X135770000Y-96494819D02*
X135531905Y-96494819D01*
X136484286Y-95590057D02*
X136531905Y-95542438D01*
X136531905Y-95542438D02*
X136627143Y-95494819D01*
X136627143Y-95494819D02*
X136865238Y-95494819D01*
X136865238Y-95494819D02*
X136960476Y-95542438D01*
X136960476Y-95542438D02*
X137008095Y-95590057D01*
X137008095Y-95590057D02*
X137055714Y-95685295D01*
X137055714Y-95685295D02*
X137055714Y-95780533D01*
X137055714Y-95780533D02*
X137008095Y-95923390D01*
X137008095Y-95923390D02*
X136436667Y-96494819D01*
X136436667Y-96494819D02*
X137055714Y-96494819D01*
X132991905Y-61494819D02*
X132991905Y-60494819D01*
X132991905Y-60494819D02*
X133230000Y-60494819D01*
X133230000Y-60494819D02*
X133372857Y-60542438D01*
X133372857Y-60542438D02*
X133468095Y-60637676D01*
X133468095Y-60637676D02*
X133515714Y-60732914D01*
X133515714Y-60732914D02*
X133563333Y-60923390D01*
X133563333Y-60923390D02*
X133563333Y-61066247D01*
X133563333Y-61066247D02*
X133515714Y-61256723D01*
X133515714Y-61256723D02*
X133468095Y-61351961D01*
X133468095Y-61351961D02*
X133372857Y-61447200D01*
X133372857Y-61447200D02*
X133230000Y-61494819D01*
X133230000Y-61494819D02*
X132991905Y-61494819D01*
X134515714Y-61494819D02*
X133944286Y-61494819D01*
X134230000Y-61494819D02*
X134230000Y-60494819D01*
X134230000Y-60494819D02*
X134134762Y-60637676D01*
X134134762Y-60637676D02*
X134039524Y-60732914D01*
X134039524Y-60732914D02*
X133944286Y-60780533D01*
X99919285Y-83930909D02*
X100062142Y-83978528D01*
X100062142Y-83978528D02*
X100109761Y-84026147D01*
X100109761Y-84026147D02*
X100157380Y-84121385D01*
X100157380Y-84121385D02*
X100157380Y-84264242D01*
X100157380Y-84264242D02*
X100109761Y-84359480D01*
X100109761Y-84359480D02*
X100062142Y-84407100D01*
X100062142Y-84407100D02*
X99966904Y-84454719D01*
X99966904Y-84454719D02*
X99585952Y-84454719D01*
X99585952Y-84454719D02*
X99585952Y-83454719D01*
X99585952Y-83454719D02*
X99919285Y-83454719D01*
X99919285Y-83454719D02*
X100014523Y-83502338D01*
X100014523Y-83502338D02*
X100062142Y-83549957D01*
X100062142Y-83549957D02*
X100109761Y-83645195D01*
X100109761Y-83645195D02*
X100109761Y-83740433D01*
X100109761Y-83740433D02*
X100062142Y-83835671D01*
X100062142Y-83835671D02*
X100014523Y-83883290D01*
X100014523Y-83883290D02*
X99919285Y-83930909D01*
X99919285Y-83930909D02*
X99585952Y-83930909D01*
X100443095Y-83454719D02*
X101014523Y-83454719D01*
X100728809Y-84454719D02*
X100728809Y-83454719D01*
X101871666Y-84454719D02*
X101300238Y-84454719D01*
X101585952Y-84454719D02*
X101585952Y-83454719D01*
X101585952Y-83454719D02*
X101490714Y-83597576D01*
X101490714Y-83597576D02*
X101395476Y-83692814D01*
X101395476Y-83692814D02*
X101300238Y-83740433D01*
X91165571Y-94987600D02*
X92308429Y-94987600D01*
X91737000Y-95559028D02*
X91737000Y-94416171D01*
D13*
X98450000Y-77850000D02*
X101500000Y-77850000D01*
X98450000Y-82150000D02*
X101500000Y-82150000D01*
X98450000Y-82150000D02*
G75*
G02*
X98471766Y-77834475I1550000J2150000D01*
G01*
X101500000Y-77850000D02*
G75*
G02*
X101544513Y-82118249I-1500000J-2150000D01*
G01*
X119250000Y-91700000D02*
G75*
G02*
X123138611Y-91690122I1940000J1700000D01*
G01*
X119250000Y-91700000D02*
X123100000Y-91700000D01*
X80880000Y-70000000D02*
X81650000Y-70000000D01*
X81650000Y-68630000D02*
X81650000Y-71370000D01*
X81650000Y-71370000D02*
X88190000Y-71370000D01*
X88190000Y-68630000D02*
X81650000Y-68630000D01*
X88190000Y-71370000D02*
X88190000Y-68630000D01*
X88960000Y-70000000D02*
X88190000Y-70000000D01*
X56040000Y-80000000D02*
X56810000Y-80000000D01*
X56810000Y-78630000D02*
X56810000Y-81370000D01*
X56810000Y-81370000D02*
X63350000Y-81370000D01*
X63350000Y-78630000D02*
X56810000Y-78630000D01*
X63350000Y-81370000D02*
X63350000Y-78630000D01*
X64120000Y-80000000D02*
X63350000Y-80000000D01*
X75880000Y-115000000D02*
X76650000Y-115000000D01*
X76650000Y-113630000D02*
X76650000Y-116370000D01*
X76650000Y-116370000D02*
X83190000Y-116370000D01*
X83190000Y-113630000D02*
X76650000Y-113630000D01*
X83190000Y-116370000D02*
X83190000Y-113630000D01*
X83960000Y-115000000D02*
X83190000Y-115000000D01*
X116040000Y-115000000D02*
X116810000Y-115000000D01*
X116810000Y-113630000D02*
X116810000Y-116370000D01*
X116810000Y-116370000D02*
X123350000Y-116370000D01*
X123350000Y-113630000D02*
X116810000Y-113630000D01*
X123350000Y-116370000D02*
X123350000Y-113630000D01*
X124120000Y-115000000D02*
X123350000Y-115000000D01*
X135880000Y-80000000D02*
X136650000Y-80000000D01*
X136650000Y-78630000D02*
X136650000Y-81370000D01*
X136650000Y-81370000D02*
X143190000Y-81370000D01*
X143190000Y-78630000D02*
X136650000Y-78630000D01*
X143190000Y-81370000D02*
X143190000Y-78630000D01*
X143960000Y-80000000D02*
X143190000Y-80000000D01*
X110880000Y-70000000D02*
X111650000Y-70000000D01*
X111650000Y-68630000D02*
X111650000Y-71370000D01*
X111650000Y-71370000D02*
X118190000Y-71370000D01*
X118190000Y-68630000D02*
X111650000Y-68630000D01*
X118190000Y-71370000D02*
X118190000Y-68630000D01*
X118960000Y-70000000D02*
X118190000Y-70000000D01*
X63710000Y-63455000D02*
X63710000Y-66545000D01*
X63710000Y-63455170D02*
G75*
G02*
X69260000Y-64999952I2560000J-1544830D01*
G01*
X69260000Y-65000048D02*
G75*
G02*
X63710000Y-66544830I-2990000J48D01*
G01*
X68770000Y-65000000D02*
G75*
G02*
X63770000Y-65000000I-2500000J0D01*
G01*
X63770000Y-65000000D02*
G75*
G02*
X68770000Y-65000000I2500000J0D01*
G01*
X63710000Y-98455000D02*
X63710000Y-101545000D01*
X63710000Y-98455170D02*
G75*
G02*
X69260000Y-99999952I2560000J-1544830D01*
G01*
X69260000Y-100000048D02*
G75*
G02*
X63710000Y-101544830I-2990000J48D01*
G01*
X68770000Y-100000000D02*
G75*
G02*
X63770000Y-100000000I-2500000J0D01*
G01*
X63770000Y-100000000D02*
G75*
G02*
X68770000Y-100000000I2500000J0D01*
G01*
X98710000Y-128455000D02*
X98710000Y-131545000D01*
X98710000Y-128455170D02*
G75*
G02*
X104260000Y-129999952I2560000J-1544830D01*
G01*
X104260000Y-130000048D02*
G75*
G02*
X98710000Y-131544830I-2990000J48D01*
G01*
X103770000Y-130000000D02*
G75*
G02*
X98770000Y-130000000I-2500000J0D01*
G01*
X98770000Y-130000000D02*
G75*
G02*
X103770000Y-130000000I2500000J0D01*
G01*
X133710000Y-98455000D02*
X133710000Y-101545000D01*
X133710000Y-98455170D02*
G75*
G02*
X139260000Y-99999952I2560000J-1544830D01*
G01*
X139260000Y-100000048D02*
G75*
G02*
X133710000Y-101544830I-2990000J48D01*
G01*
X138770000Y-100000000D02*
G75*
G02*
X133770000Y-100000000I-2500000J0D01*
G01*
X133770000Y-100000000D02*
G75*
G02*
X138770000Y-100000000I2500000J0D01*
G01*
X131170000Y-63455000D02*
X131170000Y-66545000D01*
X131170000Y-63455170D02*
G75*
G02*
X136720000Y-64999952I2560000J-1544830D01*
G01*
X136720000Y-65000048D02*
G75*
G02*
X131170000Y-66544830I-2990000J48D01*
G01*
X136230000Y-65000000D02*
G75*
G02*
X131230000Y-65000000I-2500000J0D01*
G01*
X131230000Y-65000000D02*
G75*
G02*
X136230000Y-65000000I2500000J0D01*
G01*
X89555000Y-92849900D02*
X89555000Y-93349900D01*
X89555000Y-92849900D02*
X90705000Y-92849900D01*
X89555000Y-97149900D02*
X89555000Y-96649900D01*
X89555000Y-97149900D02*
X90705000Y-97149900D01*
X90705000Y-92849900D02*
X90705000Y-93349900D01*
X90705000Y-97149900D02*
X90705000Y-96649900D01*
X90295000Y-92849900D02*
G75*
G02*
X110255000Y-93649900I9909758J-2152544D01*
G01*
X110255000Y-96349900D02*
G75*
G02*
X90295000Y-97149900I-10050242J1352544D01*
G01*
%LPC*%
D14*
X100000000Y-72000000D03*
D15*
X98300000Y-80000000D03*
X101700000Y-80000000D03*
D16*
X122540000Y-90000000D03*
X121270000Y-90000000D03*
D17*
X120000000Y-90000000D03*
D18*
X79840000Y-70000000D03*
D19*
X90000000Y-70000000D03*
D18*
X55000000Y-80000000D03*
D19*
X65160000Y-80000000D03*
D18*
X74840000Y-115000000D03*
D19*
X85000000Y-115000000D03*
D18*
X115000000Y-115000000D03*
D19*
X125160000Y-115000000D03*
D18*
X134840000Y-80000000D03*
D19*
X145000000Y-80000000D03*
D18*
X109840000Y-70000000D03*
D19*
X120000000Y-70000000D03*
D20*
X65000000Y-65000000D03*
D21*
X67540000Y-65000000D03*
D20*
X65000000Y-100000000D03*
D21*
X67540000Y-100000000D03*
D20*
X100000000Y-130000000D03*
D21*
X102540000Y-130000000D03*
D20*
X135000000Y-100000000D03*
D21*
X137540000Y-100000000D03*
D20*
X132460000Y-65000000D03*
D21*
X135000000Y-65000000D03*
D22*
X89705000Y-94999900D03*
D23*
X110205000Y-94999900D03*
%LPD*%
M02*
