%TF.GenerationSoftware,KiCad,Pcbnew,9.0.2*%
%TF.CreationDate,2025-07-23T12:53:51-04:00*%
%TF.ProjectId,mothers_day_necklace - 8cm with 6 points soldering,6d6f7468-6572-4735-9f64-61795f6e6563,A*%
%TF.SameCoordinates,Original*%
%TF.FileFunction,Copper,L2,Bot*%
%TF.FilePolarity,Positive*%
%FSLAX46Y46*%
G04 Gerber Fmt 4.6, Leading zero omitted, Abs format (unit mm)*
G04 Created by KiCad (PCBNEW 9.0.2) date 2025-07-23 12:53:51*
%MOMM*%
%LPD*%
G01*
G04 APERTURE LIST*
%TA.AperFunction,ComponentPad*%
%ADD10R,2.400000X2.400000*%
%TD*%
%TA.AperFunction,ComponentPad*%
%ADD11C,2.400000*%
%TD*%
%TA.AperFunction,ComponentPad*%
%ADD12C,1.397000*%
%TD*%
%TA.AperFunction,ComponentPad*%
%ADD13C,2.300000*%
%TD*%
%TA.AperFunction,ComponentPad*%
%ADD14C,1.600000*%
%TD*%
%TA.AperFunction,Conductor*%
%ADD15C,0.200000*%
%TD*%
G04 APERTURE END LIST*
D10*
X158910000Y-80000000D03*
D11*
X163230000Y-79960000D03*
D10*
X101090000Y-80000000D03*
D11*
X96770000Y-80040000D03*
D12*
X126190000Y-132960000D03*
X133810000Y-132960000D03*
X126190000Y-138040000D03*
X133810000Y-138040000D03*
D13*
X119600000Y-91000000D03*
X119600000Y-94100000D03*
X140400000Y-94100000D03*
X140400000Y-91000000D03*
D14*
X160920000Y-96000000D03*
X171080000Y-96000000D03*
X124920000Y-110500000D03*
X135080000Y-110500000D03*
X88920000Y-96000000D03*
X99080000Y-96000000D03*
D10*
X127910000Y-122000000D03*
D11*
X132230000Y-121960000D03*
D15*
X96770000Y-80040000D02*
X88920000Y-87890000D01*
X88920000Y-87890000D02*
X88920000Y-96000000D01*
X135080000Y-128761400D02*
X131000000Y-132841400D01*
X131000000Y-135230000D02*
X133810000Y-138040000D01*
X131000000Y-132841400D02*
X131000000Y-135230000D01*
X135080000Y-110500000D02*
X135080000Y-128761400D01*
X163230000Y-79960000D02*
X163230000Y-93690000D01*
X163230000Y-93690000D02*
X160920000Y-96000000D01*
X132230000Y-117810000D02*
X124920000Y-110500000D01*
X132230000Y-121960000D02*
X132230000Y-117810000D01*
X126190000Y-132960000D02*
X119600000Y-126370000D01*
X140400000Y-126370000D02*
X140400000Y-94100000D01*
X133810000Y-132960000D02*
X140400000Y-126370000D01*
X140400000Y-91000000D02*
X140400000Y-94100000D01*
X119600000Y-94100000D02*
X119600000Y-91000000D01*
X119600000Y-126370000D02*
X119600000Y-94100000D01*
%TA.AperFunction,Conductor*%
G36*
X130611434Y-65219695D02*
G01*
X130619174Y-65220181D01*
X131224337Y-65277386D01*
X131232058Y-65278362D01*
X131832402Y-65373447D01*
X131840016Y-65374899D01*
X132433255Y-65507503D01*
X132440778Y-65509436D01*
X133024463Y-65679012D01*
X133031871Y-65681419D01*
X133603764Y-65887313D01*
X133610998Y-65890176D01*
X133885470Y-66008951D01*
X134168846Y-66131579D01*
X134175895Y-66134896D01*
X134717476Y-66410845D01*
X134724302Y-66414598D01*
X135247481Y-66724005D01*
X135254057Y-66728178D01*
X135726422Y-67049197D01*
X135756773Y-67069823D01*
X135763075Y-67074402D01*
X136243353Y-67446944D01*
X136249356Y-67451909D01*
X136705303Y-67853881D01*
X136710981Y-67859214D01*
X137140763Y-68288996D01*
X137146096Y-68294674D01*
X137548075Y-68750630D01*
X137553036Y-68756627D01*
X137925587Y-69236917D01*
X137930143Y-69243188D01*
X138118464Y-69520294D01*
X138271799Y-69745919D01*
X138275973Y-69752496D01*
X138585380Y-70275675D01*
X138589133Y-70282501D01*
X138865082Y-70824081D01*
X138868399Y-70831130D01*
X139109798Y-71388970D01*
X139112665Y-71396212D01*
X139318559Y-71968104D01*
X139320966Y-71975513D01*
X139490539Y-72559188D01*
X139492477Y-72566733D01*
X139625076Y-73159942D01*
X139626535Y-73167594D01*
X139721616Y-73767916D01*
X139722593Y-73775644D01*
X139779796Y-74380783D01*
X139780285Y-74388558D01*
X139799439Y-74998036D01*
X139799500Y-75001931D01*
X139799500Y-75039861D01*
X139830024Y-75113552D01*
X139886426Y-75169954D01*
X139960118Y-75200478D01*
X139960120Y-75200478D01*
X140039880Y-75200478D01*
X140039882Y-75200478D01*
X140113574Y-75169954D01*
X140140863Y-75142664D01*
X140142677Y-75140888D01*
X140792867Y-74518094D01*
X140796750Y-74514532D01*
X141472086Y-73921206D01*
X141476093Y-73917835D01*
X142176356Y-73354093D01*
X142180539Y-73350872D01*
X142904366Y-72817807D01*
X142908656Y-72814787D01*
X143654794Y-72313326D01*
X143659226Y-72310485D01*
X144426203Y-71841615D01*
X144430738Y-71838974D01*
X145217242Y-71403500D01*
X145221868Y-71401068D01*
X146026317Y-70999864D01*
X146031108Y-70997602D01*
X146852069Y-70631381D01*
X146856900Y-70629349D01*
X147692866Y-70298783D01*
X147697848Y-70296935D01*
X148547233Y-70002650D01*
X148552278Y-70001023D01*
X149413546Y-69743550D01*
X149418629Y-69742149D01*
X150290183Y-69521967D01*
X150295359Y-69520777D01*
X151175569Y-69338297D01*
X151180728Y-69337343D01*
X152067998Y-69192896D01*
X152073256Y-69192155D01*
X152965887Y-69086018D01*
X152971157Y-69085506D01*
X153867550Y-69017869D01*
X153872854Y-69017584D01*
X154771276Y-68988576D01*
X154776559Y-68988519D01*
X155675440Y-68998190D01*
X155680751Y-68998361D01*
X156578366Y-69046695D01*
X156583680Y-69047096D01*
X157478382Y-69134002D01*
X157483606Y-69134623D01*
X158373747Y-69259942D01*
X158379010Y-69260798D01*
X159262940Y-69424296D01*
X159268101Y-69425366D01*
X160144193Y-69626745D01*
X160149329Y-69628043D01*
X161015951Y-69866929D01*
X161021027Y-69868447D01*
X161876534Y-70144384D01*
X161881544Y-70146120D01*
X162724388Y-70458609D01*
X162729330Y-70460563D01*
X163557947Y-70809021D01*
X163562813Y-70811192D01*
X163697580Y-70874821D01*
X164375638Y-71194961D01*
X164380413Y-71197342D01*
X165176015Y-71615746D01*
X165180666Y-71618321D01*
X165794250Y-71975514D01*
X165957523Y-72070562D01*
X165962075Y-72073345D01*
X166718746Y-72558582D01*
X166723136Y-72561532D01*
X167458278Y-73078908D01*
X167462541Y-73082047D01*
X167920249Y-73434565D01*
X168174706Y-73630543D01*
X168178858Y-73633886D01*
X168347391Y-73775645D01*
X168866751Y-74212499D01*
X168870760Y-74216021D01*
X169533131Y-74823701D01*
X169536984Y-74827392D01*
X170172585Y-75462993D01*
X170176276Y-75466846D01*
X170783956Y-76129217D01*
X170787478Y-76133226D01*
X171366088Y-76821115D01*
X171369434Y-76825271D01*
X171917917Y-77537419D01*
X171921082Y-77541716D01*
X172438432Y-78276822D01*
X172441402Y-78281242D01*
X172589121Y-78511593D01*
X172926632Y-79037902D01*
X172929415Y-79042454D01*
X173381646Y-79819293D01*
X173384231Y-79823962D01*
X173802635Y-80619564D01*
X173805016Y-80624339D01*
X174188782Y-81437157D01*
X174190956Y-81442030D01*
X174539410Y-82270637D01*
X174541372Y-82275599D01*
X174853851Y-83118417D01*
X174855598Y-83123459D01*
X175131524Y-83978932D01*
X175133053Y-83984044D01*
X175371929Y-84850629D01*
X175373236Y-84855803D01*
X175574604Y-85731844D01*
X175575687Y-85737069D01*
X175739178Y-86620964D01*
X175740035Y-86626230D01*
X175865349Y-87516333D01*
X175865979Y-87521632D01*
X175952880Y-88416294D01*
X175953282Y-88421615D01*
X176001615Y-89319215D01*
X176001787Y-89324548D01*
X176011458Y-90223392D01*
X176011400Y-90228728D01*
X175982393Y-91127111D01*
X175982107Y-91132439D01*
X175914472Y-92028799D01*
X175913956Y-92034110D01*
X175807823Y-92926708D01*
X175807079Y-92931992D01*
X175662642Y-93819205D01*
X175661671Y-93824452D01*
X175479202Y-94704606D01*
X175478007Y-94709806D01*
X175257836Y-95581317D01*
X175256418Y-95586461D01*
X174998959Y-96447682D01*
X174997321Y-96452761D01*
X174703045Y-97302118D01*
X174701190Y-97307121D01*
X174370646Y-98143033D01*
X174368577Y-98147952D01*
X174002382Y-98968852D01*
X174000104Y-98973677D01*
X173598929Y-99778070D01*
X173596446Y-99782793D01*
X173161030Y-100569191D01*
X173158345Y-100573802D01*
X172689511Y-101340720D01*
X172686631Y-101345212D01*
X172185207Y-102091295D01*
X172182135Y-102095659D01*
X171649130Y-102819405D01*
X171645875Y-102823632D01*
X171082173Y-103523846D01*
X171078738Y-103527929D01*
X170485456Y-104203215D01*
X170481848Y-104207147D01*
X169859179Y-104857205D01*
X169857313Y-104859112D01*
X130868124Y-143848324D01*
X130860247Y-143855550D01*
X130749796Y-143948425D01*
X130738063Y-143957163D01*
X130575371Y-144064014D01*
X130561138Y-144072072D01*
X130389437Y-144154828D01*
X130372512Y-144161503D01*
X130206068Y-144213404D01*
X130186548Y-144217800D01*
X130028872Y-144240137D01*
X130007424Y-144241297D01*
X129856600Y-144236362D01*
X129834521Y-144233643D01*
X129685721Y-144201561D01*
X129664630Y-144195001D01*
X129505990Y-144129655D01*
X129491792Y-144122716D01*
X129419231Y-144081328D01*
X129410689Y-144075982D01*
X129329237Y-144020276D01*
X129321512Y-144014541D01*
X129237885Y-143947266D01*
X129231024Y-143941320D01*
X129140881Y-143857226D01*
X129137786Y-143854236D01*
X129131874Y-143848324D01*
X123229184Y-137945631D01*
X124991000Y-137945631D01*
X124991000Y-138134368D01*
X125020522Y-138320763D01*
X125020523Y-138320767D01*
X125078843Y-138500256D01*
X125164523Y-138668413D01*
X125275454Y-138821096D01*
X125408904Y-138954546D01*
X125561587Y-139065477D01*
X125729744Y-139151157D01*
X125909233Y-139209477D01*
X125979134Y-139220548D01*
X126095632Y-139239000D01*
X126095637Y-139239000D01*
X126284368Y-139239000D01*
X126387920Y-139222598D01*
X126470767Y-139209477D01*
X126650256Y-139151157D01*
X126818413Y-139065477D01*
X126971096Y-138954546D01*
X127104546Y-138821096D01*
X127215477Y-138668413D01*
X127301157Y-138500256D01*
X127359477Y-138320767D01*
X127372598Y-138237920D01*
X127389000Y-138134368D01*
X127389000Y-137945631D01*
X127359477Y-137759236D01*
X127359477Y-137759233D01*
X127301157Y-137579744D01*
X127215477Y-137411587D01*
X127104546Y-137258904D01*
X126971096Y-137125454D01*
X126818413Y-137014523D01*
X126650256Y-136928843D01*
X126470767Y-136870523D01*
X126470765Y-136870522D01*
X126470763Y-136870522D01*
X126284368Y-136841000D01*
X126284363Y-136841000D01*
X126095637Y-136841000D01*
X126095632Y-136841000D01*
X125909236Y-136870522D01*
X125729741Y-136928844D01*
X125561586Y-137014523D01*
X125474475Y-137077813D01*
X125408904Y-137125454D01*
X125408902Y-137125456D01*
X125408901Y-137125456D01*
X125275456Y-137258901D01*
X125275456Y-137258902D01*
X125275454Y-137258904D01*
X125227813Y-137324475D01*
X125164523Y-137411586D01*
X125078844Y-137579741D01*
X125020522Y-137759236D01*
X124991000Y-137945631D01*
X123229184Y-137945631D01*
X120592609Y-135309054D01*
X130399498Y-135309054D01*
X130440423Y-135461785D01*
X130469358Y-135511900D01*
X130469359Y-135511904D01*
X130469360Y-135511904D01*
X130519479Y-135598714D01*
X130519481Y-135598717D01*
X130638349Y-135717585D01*
X130638355Y-135717590D01*
X132601244Y-137680479D01*
X132634729Y-137741802D01*
X132636036Y-137787558D01*
X132611000Y-137945631D01*
X132611000Y-138134368D01*
X132640522Y-138320763D01*
X132640523Y-138320767D01*
X132698843Y-138500256D01*
X132784523Y-138668413D01*
X132895454Y-138821096D01*
X133028904Y-138954546D01*
X133181587Y-139065477D01*
X133349744Y-139151157D01*
X133529233Y-139209477D01*
X133599134Y-139220548D01*
X133715632Y-139239000D01*
X133715637Y-139239000D01*
X133904368Y-139239000D01*
X134007920Y-139222598D01*
X134090767Y-139209477D01*
X134270256Y-139151157D01*
X134438413Y-139065477D01*
X134591096Y-138954546D01*
X134724546Y-138821096D01*
X134835477Y-138668413D01*
X134921157Y-138500256D01*
X134979477Y-138320767D01*
X134992598Y-138237920D01*
X135009000Y-138134368D01*
X135009000Y-137945631D01*
X134979477Y-137759236D01*
X134979477Y-137759233D01*
X134921157Y-137579744D01*
X134835477Y-137411587D01*
X134724546Y-137258904D01*
X134591096Y-137125454D01*
X134438413Y-137014523D01*
X134270256Y-136928843D01*
X134090767Y-136870523D01*
X134090765Y-136870522D01*
X134090763Y-136870522D01*
X133904368Y-136841000D01*
X133904363Y-136841000D01*
X133715637Y-136841000D01*
X133715632Y-136841000D01*
X133557558Y-136866036D01*
X133488264Y-136857081D01*
X133450479Y-136831244D01*
X131636819Y-135017584D01*
X131603334Y-134956261D01*
X131600500Y-134929903D01*
X131600500Y-133141496D01*
X131620185Y-133074457D01*
X131636814Y-133053820D01*
X131825003Y-132865631D01*
X132611000Y-132865631D01*
X132611000Y-133054368D01*
X132624800Y-133141496D01*
X132640523Y-133240767D01*
X132698843Y-133420256D01*
X132784523Y-133588413D01*
X132895454Y-133741096D01*
X133028904Y-133874546D01*
X133181587Y-133985477D01*
X133349744Y-134071157D01*
X133529233Y-134129477D01*
X133599134Y-134140548D01*
X133715632Y-134159000D01*
X133715637Y-134159000D01*
X133904368Y-134159000D01*
X134007920Y-134142598D01*
X134090767Y-134129477D01*
X134270256Y-134071157D01*
X134438413Y-133985477D01*
X134591096Y-133874546D01*
X134724546Y-133741096D01*
X134835477Y-133588413D01*
X134921157Y-133420256D01*
X134979477Y-133240767D01*
X134995200Y-133141496D01*
X135009000Y-133054368D01*
X135009000Y-132865631D01*
X134983963Y-132707557D01*
X134992917Y-132638264D01*
X135018752Y-132600481D01*
X140758506Y-126860728D01*
X140758511Y-126860724D01*
X140768714Y-126850520D01*
X140768716Y-126850520D01*
X140880520Y-126738716D01*
X140959577Y-126601784D01*
X141000500Y-126449057D01*
X141000500Y-95897648D01*
X159619500Y-95897648D01*
X159619500Y-96102351D01*
X159651522Y-96304534D01*
X159714781Y-96499223D01*
X159807715Y-96681613D01*
X159928028Y-96847213D01*
X160072786Y-96991971D01*
X160227749Y-97104556D01*
X160238390Y-97112287D01*
X160354607Y-97171503D01*
X160420776Y-97205218D01*
X160420778Y-97205218D01*
X160420781Y-97205220D01*
X160525137Y-97239127D01*
X160615465Y-97268477D01*
X160716557Y-97284488D01*
X160817648Y-97300500D01*
X160817649Y-97300500D01*
X161022351Y-97300500D01*
X161022352Y-97300500D01*
X161224534Y-97268477D01*
X161419219Y-97205220D01*
X161601610Y-97112287D01*
X161694590Y-97044732D01*
X161767213Y-96991971D01*
X161767215Y-96991968D01*
X161767219Y-96991966D01*
X161911966Y-96847219D01*
X161911968Y-96847215D01*
X161911971Y-96847213D01*
X161964732Y-96774590D01*
X162032287Y-96681610D01*
X162125220Y-96499219D01*
X162188477Y-96304534D01*
X162220500Y-96102352D01*
X162220500Y-95897648D01*
X169779500Y-95897648D01*
X169779500Y-96102351D01*
X169811522Y-96304534D01*
X169874781Y-96499223D01*
X169967715Y-96681613D01*
X170088028Y-96847213D01*
X170232786Y-96991971D01*
X170387749Y-97104556D01*
X170398390Y-97112287D01*
X170514607Y-97171503D01*
X170580776Y-97205218D01*
X170580778Y-97205218D01*
X170580781Y-97205220D01*
X170685137Y-97239127D01*
X170775465Y-97268477D01*
X170876557Y-97284488D01*
X170977648Y-97300500D01*
X170977649Y-97300500D01*
X171182351Y-97300500D01*
X171182352Y-97300500D01*
X171384534Y-97268477D01*
X171579219Y-97205220D01*
X171761610Y-97112287D01*
X171854590Y-97044732D01*
X171927213Y-96991971D01*
X171927215Y-96991968D01*
X171927219Y-96991966D01*
X172071966Y-96847219D01*
X172071968Y-96847215D01*
X172071971Y-96847213D01*
X172124732Y-96774590D01*
X172192287Y-96681610D01*
X172285220Y-96499219D01*
X172348477Y-96304534D01*
X172380500Y-96102352D01*
X172380500Y-95897648D01*
X172348477Y-95695466D01*
X172285220Y-95500781D01*
X172285218Y-95500778D01*
X172285218Y-95500776D01*
X172232329Y-95396977D01*
X172192287Y-95318390D01*
X172184556Y-95307749D01*
X172071971Y-95152786D01*
X171927213Y-95008028D01*
X171761613Y-94887715D01*
X171761612Y-94887714D01*
X171761610Y-94887713D01*
X171704653Y-94858691D01*
X171579223Y-94794781D01*
X171384534Y-94731522D01*
X171209995Y-94703878D01*
X171182352Y-94699500D01*
X170977648Y-94699500D01*
X170953329Y-94703351D01*
X170775465Y-94731522D01*
X170580776Y-94794781D01*
X170398386Y-94887715D01*
X170232786Y-95008028D01*
X170088028Y-95152786D01*
X169967715Y-95318386D01*
X169874781Y-95500776D01*
X169811522Y-95695465D01*
X169779500Y-95897648D01*
X162220500Y-95897648D01*
X162188477Y-95695466D01*
X162183825Y-95681151D01*
X162181832Y-95611312D01*
X162214075Y-95555158D01*
X163588506Y-94180728D01*
X163588511Y-94180724D01*
X163598714Y-94170520D01*
X163598716Y-94170520D01*
X163710520Y-94058716D01*
X163789577Y-93921784D01*
X163830500Y-93769057D01*
X163830500Y-81634727D01*
X163850185Y-81567688D01*
X163902989Y-81521933D01*
X163907048Y-81520166D01*
X163983717Y-81488409D01*
X163983718Y-81488407D01*
X163983726Y-81488405D01*
X164176774Y-81376948D01*
X164353624Y-81241247D01*
X164511247Y-81083624D01*
X164646948Y-80906774D01*
X164758405Y-80713726D01*
X164843710Y-80507781D01*
X164901404Y-80292463D01*
X164930500Y-80071457D01*
X164930500Y-79848543D01*
X164901404Y-79627537D01*
X164843710Y-79412219D01*
X164758405Y-79206274D01*
X164646948Y-79013226D01*
X164511247Y-78836376D01*
X164511242Y-78836370D01*
X164353629Y-78678757D01*
X164353622Y-78678751D01*
X164176782Y-78543058D01*
X164176780Y-78543057D01*
X164176774Y-78543052D01*
X163983726Y-78431595D01*
X163983722Y-78431593D01*
X163777790Y-78346293D01*
X163777783Y-78346291D01*
X163777781Y-78346290D01*
X163562463Y-78288596D01*
X163562457Y-78288595D01*
X163562452Y-78288594D01*
X163341466Y-78259501D01*
X163341463Y-78259500D01*
X163341457Y-78259500D01*
X163118543Y-78259500D01*
X163118537Y-78259500D01*
X163118533Y-78259501D01*
X162897547Y-78288594D01*
X162897540Y-78288595D01*
X162897537Y-78288596D01*
X162707560Y-78339500D01*
X162682219Y-78346290D01*
X162682209Y-78346293D01*
X162476277Y-78431593D01*
X162476273Y-78431595D01*
X162283226Y-78543052D01*
X162283217Y-78543058D01*
X162106377Y-78678751D01*
X162106370Y-78678757D01*
X161948757Y-78836370D01*
X161948751Y-78836377D01*
X161813058Y-79013217D01*
X161813052Y-79013226D01*
X161701595Y-79206273D01*
X161701593Y-79206277D01*
X161616293Y-79412209D01*
X161616290Y-79412219D01*
X161558597Y-79627534D01*
X161558594Y-79627547D01*
X161529501Y-79848533D01*
X161529500Y-79848549D01*
X161529500Y-80071450D01*
X161529501Y-80071466D01*
X161558594Y-80292452D01*
X161558595Y-80292457D01*
X161558596Y-80292463D01*
X161608878Y-80480119D01*
X161616290Y-80507780D01*
X161616293Y-80507790D01*
X161681188Y-80664459D01*
X161701595Y-80713726D01*
X161813052Y-80906774D01*
X161813057Y-80906780D01*
X161813058Y-80906782D01*
X161948751Y-81083622D01*
X161948757Y-81083629D01*
X162106370Y-81241242D01*
X162106376Y-81241247D01*
X162283226Y-81376948D01*
X162476274Y-81488405D01*
X162476277Y-81488406D01*
X162476282Y-81488409D01*
X162552952Y-81520166D01*
X162607356Y-81564006D01*
X162629421Y-81630300D01*
X162629500Y-81634727D01*
X162629500Y-93389902D01*
X162609815Y-93456941D01*
X162593181Y-93477583D01*
X161364842Y-94705921D01*
X161303519Y-94739406D01*
X161238848Y-94736173D01*
X161224534Y-94731522D01*
X161049995Y-94703878D01*
X161022352Y-94699500D01*
X160817648Y-94699500D01*
X160793329Y-94703351D01*
X160615465Y-94731522D01*
X160420776Y-94794781D01*
X160238386Y-94887715D01*
X160072786Y-95008028D01*
X159928028Y-95152786D01*
X159807715Y-95318386D01*
X159714781Y-95500776D01*
X159651522Y-95695465D01*
X159619500Y-95897648D01*
X141000500Y-95897648D01*
X141000500Y-95722417D01*
X141020185Y-95655378D01*
X141068203Y-95611933D01*
X141265051Y-95511634D01*
X141475229Y-95358931D01*
X141658931Y-95175229D01*
X141811634Y-94965051D01*
X141929579Y-94733572D01*
X142009860Y-94486493D01*
X142032539Y-94343298D01*
X142050500Y-94229902D01*
X142050500Y-93970097D01*
X142027016Y-93821829D01*
X142009860Y-93713507D01*
X141929579Y-93466428D01*
X141929577Y-93466425D01*
X141929577Y-93466423D01*
X141886787Y-93382445D01*
X141811634Y-93234949D01*
X141658931Y-93024771D01*
X141475229Y-92841069D01*
X141265051Y-92688366D01*
X141210330Y-92660484D01*
X141159535Y-92612511D01*
X141142740Y-92544690D01*
X141165277Y-92478555D01*
X141210329Y-92439515D01*
X141265051Y-92411634D01*
X141475229Y-92258931D01*
X141658931Y-92075229D01*
X141811634Y-91865051D01*
X141929579Y-91633572D01*
X142009860Y-91386493D01*
X142032539Y-91243298D01*
X142050500Y-91129902D01*
X142050500Y-90870097D01*
X142028947Y-90734021D01*
X142009860Y-90613507D01*
X141929579Y-90366428D01*
X141929577Y-90366425D01*
X141929577Y-90366423D01*
X141856698Y-90223392D01*
X141811634Y-90134949D01*
X141658931Y-89924771D01*
X141475229Y-89741069D01*
X141265051Y-89588366D01*
X141192764Y-89551534D01*
X141033576Y-89470422D01*
X140786493Y-89390140D01*
X140529902Y-89349500D01*
X140529897Y-89349500D01*
X140270103Y-89349500D01*
X140270098Y-89349500D01*
X140013506Y-89390140D01*
X139766423Y-89470422D01*
X139534945Y-89588368D01*
X139324774Y-89741066D01*
X139324768Y-89741071D01*
X139141071Y-89924768D01*
X139141066Y-89924774D01*
X138988368Y-90134945D01*
X138870422Y-90366423D01*
X138790140Y-90613506D01*
X138749500Y-90870097D01*
X138749500Y-91129902D01*
X138790140Y-91386493D01*
X138870422Y-91633576D01*
X138988368Y-91865054D01*
X139111194Y-92034110D01*
X139141069Y-92075229D01*
X139324771Y-92258931D01*
X139324774Y-92258933D01*
X139534949Y-92411634D01*
X139534950Y-92411635D01*
X139589668Y-92439516D01*
X139640464Y-92487490D01*
X139657259Y-92555311D01*
X139634721Y-92621446D01*
X139589668Y-92660484D01*
X139534950Y-92688364D01*
X139534949Y-92688365D01*
X139324774Y-92841066D01*
X139324768Y-92841071D01*
X139141071Y-93024768D01*
X139141066Y-93024774D01*
X138988368Y-93234945D01*
X138870422Y-93466423D01*
X138790140Y-93713506D01*
X138749500Y-93970097D01*
X138749500Y-94229902D01*
X138790140Y-94486493D01*
X138870422Y-94733576D01*
X138988368Y-94965054D01*
X139124763Y-95152786D01*
X139141069Y-95175229D01*
X139324771Y-95358931D01*
X139534949Y-95511634D01*
X139731796Y-95611933D01*
X139782591Y-95659907D01*
X139799500Y-95722417D01*
X139799500Y-126069902D01*
X139779815Y-126136941D01*
X139763181Y-126157583D01*
X134169519Y-131751244D01*
X134108196Y-131784729D01*
X134062440Y-131786036D01*
X133904368Y-131761000D01*
X133904363Y-131761000D01*
X133715637Y-131761000D01*
X133715632Y-131761000D01*
X133529236Y-131790522D01*
X133349741Y-131848844D01*
X133181586Y-131934523D01*
X133094475Y-131997813D01*
X133028904Y-132045454D01*
X133028902Y-132045456D01*
X133028901Y-132045456D01*
X132895456Y-132178901D01*
X132895456Y-132178902D01*
X132895454Y-132178904D01*
X132847813Y-132244475D01*
X132784523Y-132331586D01*
X132698844Y-132499741D01*
X132640522Y-132679236D01*
X132611000Y-132865631D01*
X131825003Y-132865631D01*
X135438506Y-129252127D01*
X135438511Y-129252124D01*
X135448714Y-129241920D01*
X135448716Y-129241920D01*
X135560520Y-129130116D01*
X135639577Y-128993184D01*
X135680500Y-128840457D01*
X135680500Y-111729601D01*
X135700185Y-111662562D01*
X135748206Y-111619116D01*
X135761610Y-111612287D01*
X135927219Y-111491966D01*
X136071966Y-111347219D01*
X136071968Y-111347215D01*
X136071971Y-111347213D01*
X136124732Y-111274590D01*
X136192287Y-111181610D01*
X136285220Y-110999219D01*
X136348477Y-110804534D01*
X136380500Y-110602352D01*
X136380500Y-110397648D01*
X136348477Y-110195466D01*
X136285220Y-110000781D01*
X136285218Y-110000778D01*
X136285218Y-110000776D01*
X136251503Y-109934607D01*
X136192287Y-109818390D01*
X136184556Y-109807749D01*
X136071971Y-109652786D01*
X135927213Y-109508028D01*
X135761613Y-109387715D01*
X135761612Y-109387714D01*
X135761610Y-109387713D01*
X135704653Y-109358691D01*
X135579223Y-109294781D01*
X135384534Y-109231522D01*
X135209995Y-109203878D01*
X135182352Y-109199500D01*
X134977648Y-109199500D01*
X134953329Y-109203351D01*
X134775465Y-109231522D01*
X134580776Y-109294781D01*
X134398386Y-109387715D01*
X134232786Y-109508028D01*
X134088028Y-109652786D01*
X133967715Y-109818386D01*
X133874781Y-110000776D01*
X133811522Y-110195465D01*
X133779500Y-110397648D01*
X133779500Y-110602351D01*
X133811522Y-110804534D01*
X133874781Y-110999223D01*
X133967715Y-111181613D01*
X134088028Y-111347213D01*
X134088034Y-111347219D01*
X134232781Y-111491966D01*
X134398390Y-111612287D01*
X134411793Y-111619116D01*
X134462589Y-111667088D01*
X134479500Y-111729601D01*
X134479500Y-128461302D01*
X134459815Y-128528341D01*
X134443181Y-128548983D01*
X130519481Y-132472682D01*
X130519479Y-132472685D01*
X130469361Y-132559494D01*
X130469359Y-132559496D01*
X130440425Y-132609609D01*
X130440424Y-132609610D01*
X130440423Y-132609615D01*
X130399499Y-132762343D01*
X130399499Y-132920457D01*
X130399499Y-132920459D01*
X130399500Y-132930453D01*
X130399500Y-135143330D01*
X130399499Y-135143348D01*
X130399499Y-135309054D01*
X130399498Y-135309054D01*
X120592609Y-135309054D01*
X90142709Y-104859136D01*
X90140842Y-104857229D01*
X89518139Y-104207134D01*
X89514532Y-104203202D01*
X89468369Y-104150658D01*
X88921248Y-103527914D01*
X88917838Y-103523861D01*
X88354124Y-102823632D01*
X88350869Y-102819405D01*
X88289552Y-102736145D01*
X87817845Y-102095633D01*
X87814792Y-102091295D01*
X87313362Y-101345203D01*
X87310488Y-101340720D01*
X86841654Y-100573802D01*
X86838985Y-100569219D01*
X86403532Y-99782754D01*
X86401080Y-99778089D01*
X85999895Y-98973677D01*
X85997617Y-98968852D01*
X85932240Y-98822296D01*
X85631410Y-98147925D01*
X85629364Y-98143061D01*
X85298809Y-97307121D01*
X85296954Y-97302118D01*
X85002678Y-96452761D01*
X85001040Y-96447682D01*
X84836610Y-95897648D01*
X87619500Y-95897648D01*
X87619500Y-96102351D01*
X87651522Y-96304534D01*
X87714781Y-96499223D01*
X87807715Y-96681613D01*
X87928028Y-96847213D01*
X88072786Y-96991971D01*
X88227749Y-97104556D01*
X88238390Y-97112287D01*
X88354607Y-97171503D01*
X88420776Y-97205218D01*
X88420778Y-97205218D01*
X88420781Y-97205220D01*
X88525137Y-97239127D01*
X88615465Y-97268477D01*
X88716557Y-97284488D01*
X88817648Y-97300500D01*
X88817649Y-97300500D01*
X89022351Y-97300500D01*
X89022352Y-97300500D01*
X89224534Y-97268477D01*
X89419219Y-97205220D01*
X89601610Y-97112287D01*
X89694590Y-97044732D01*
X89767213Y-96991971D01*
X89767215Y-96991968D01*
X89767219Y-96991966D01*
X89911966Y-96847219D01*
X89911968Y-96847215D01*
X89911971Y-96847213D01*
X89964732Y-96774590D01*
X90032287Y-96681610D01*
X90125220Y-96499219D01*
X90188477Y-96304534D01*
X90220500Y-96102352D01*
X90220500Y-95897648D01*
X97779500Y-95897648D01*
X97779500Y-96102351D01*
X97811522Y-96304534D01*
X97874781Y-96499223D01*
X97967715Y-96681613D01*
X98088028Y-96847213D01*
X98232786Y-96991971D01*
X98387749Y-97104556D01*
X98398390Y-97112287D01*
X98514607Y-97171503D01*
X98580776Y-97205218D01*
X98580778Y-97205218D01*
X98580781Y-97205220D01*
X98685137Y-97239127D01*
X98775465Y-97268477D01*
X98876557Y-97284488D01*
X98977648Y-97300500D01*
X98977649Y-97300500D01*
X99182351Y-97300500D01*
X99182352Y-97300500D01*
X99384534Y-97268477D01*
X99579219Y-97205220D01*
X99761610Y-97112287D01*
X99854590Y-97044732D01*
X99927213Y-96991971D01*
X99927215Y-96991968D01*
X99927219Y-96991966D01*
X100071966Y-96847219D01*
X100071968Y-96847215D01*
X100071971Y-96847213D01*
X100124732Y-96774590D01*
X100192287Y-96681610D01*
X100285220Y-96499219D01*
X100348477Y-96304534D01*
X100380500Y-96102352D01*
X100380500Y-95897648D01*
X100348477Y-95695466D01*
X100285220Y-95500781D01*
X100285218Y-95500778D01*
X100285218Y-95500776D01*
X100232329Y-95396977D01*
X100192287Y-95318390D01*
X100184556Y-95307749D01*
X100071971Y-95152786D01*
X99927213Y-95008028D01*
X99761613Y-94887715D01*
X99761612Y-94887714D01*
X99761610Y-94887713D01*
X99704653Y-94858691D01*
X99579223Y-94794781D01*
X99384534Y-94731522D01*
X99209995Y-94703878D01*
X99182352Y-94699500D01*
X98977648Y-94699500D01*
X98953329Y-94703351D01*
X98775465Y-94731522D01*
X98580776Y-94794781D01*
X98398386Y-94887715D01*
X98232786Y-95008028D01*
X98088028Y-95152786D01*
X97967715Y-95318386D01*
X97874781Y-95500776D01*
X97811522Y-95695465D01*
X97779500Y-95897648D01*
X90220500Y-95897648D01*
X90188477Y-95695466D01*
X90125220Y-95500781D01*
X90125218Y-95500778D01*
X90125218Y-95500776D01*
X90072329Y-95396977D01*
X90032287Y-95318390D01*
X90024556Y-95307749D01*
X89911971Y-95152786D01*
X89767213Y-95008028D01*
X89601610Y-94887712D01*
X89588200Y-94880879D01*
X89537406Y-94832903D01*
X89520500Y-94770397D01*
X89520500Y-90870097D01*
X117949500Y-90870097D01*
X117949500Y-91129902D01*
X117990140Y-91386493D01*
X118070422Y-91633576D01*
X118188368Y-91865054D01*
X118311194Y-92034110D01*
X118341069Y-92075229D01*
X118524771Y-92258931D01*
X118524774Y-92258933D01*
X118734949Y-92411634D01*
X118734950Y-92411635D01*
X118789668Y-92439516D01*
X118840464Y-92487490D01*
X118857259Y-92555311D01*
X118834721Y-92621446D01*
X118789668Y-92660484D01*
X118734950Y-92688364D01*
X118734949Y-92688365D01*
X118524774Y-92841066D01*
X118524768Y-92841071D01*
X118341071Y-93024768D01*
X118341066Y-93024774D01*
X118188368Y-93234945D01*
X118070422Y-93466423D01*
X117990140Y-93713506D01*
X117949500Y-93970097D01*
X117949500Y-94229902D01*
X117990140Y-94486493D01*
X118070422Y-94733576D01*
X118188368Y-94965054D01*
X118324763Y-95152786D01*
X118341069Y-95175229D01*
X118524771Y-95358931D01*
X118734949Y-95511634D01*
X118931796Y-95611933D01*
X118982591Y-95659907D01*
X118999500Y-95722417D01*
X118999500Y-126283330D01*
X118999499Y-126283348D01*
X118999499Y-126449054D01*
X118999498Y-126449054D01*
X119040423Y-126601785D01*
X119069358Y-126651900D01*
X119069359Y-126651904D01*
X119069360Y-126651904D01*
X119119479Y-126738714D01*
X119119481Y-126738717D01*
X119238349Y-126857585D01*
X119238355Y-126857590D01*
X124981244Y-132600479D01*
X125014729Y-132661802D01*
X125016036Y-132707558D01*
X124991000Y-132865631D01*
X124991000Y-133054368D01*
X125004800Y-133141496D01*
X125020523Y-133240767D01*
X125078843Y-133420256D01*
X125164523Y-133588413D01*
X125275454Y-133741096D01*
X125408904Y-133874546D01*
X125561587Y-133985477D01*
X125729744Y-134071157D01*
X125909233Y-134129477D01*
X125979134Y-134140548D01*
X126095632Y-134159000D01*
X126095637Y-134159000D01*
X126284368Y-134159000D01*
X126387920Y-134142598D01*
X126470767Y-134129477D01*
X126650256Y-134071157D01*
X126818413Y-133985477D01*
X126971096Y-133874546D01*
X127104546Y-133741096D01*
X127215477Y-133588413D01*
X127301157Y-133420256D01*
X127359477Y-133240767D01*
X127375200Y-133141496D01*
X127389000Y-133054368D01*
X127389000Y-132865630D01*
X127374426Y-132773612D01*
X127359477Y-132679235D01*
X127359477Y-132679233D01*
X127301157Y-132499744D01*
X127215477Y-132331587D01*
X127104546Y-132178904D01*
X126971096Y-132045454D01*
X126818413Y-131934523D01*
X126650256Y-131848843D01*
X126470767Y-131790523D01*
X126470765Y-131790522D01*
X126470763Y-131790522D01*
X126284368Y-131761000D01*
X126284363Y-131761000D01*
X126095637Y-131761000D01*
X126095632Y-131761000D01*
X125937558Y-131786036D01*
X125868264Y-131777081D01*
X125830479Y-131751244D01*
X120236819Y-126157584D01*
X120203334Y-126096261D01*
X120200500Y-126069903D01*
X120200500Y-120752155D01*
X126210000Y-120752155D01*
X126210000Y-121750000D01*
X127361518Y-121750000D01*
X127350889Y-121768409D01*
X127310000Y-121921009D01*
X127310000Y-122078991D01*
X127350889Y-122231591D01*
X127361518Y-122250000D01*
X126210000Y-122250000D01*
X126210000Y-123247844D01*
X126216401Y-123307372D01*
X126216403Y-123307379D01*
X126266645Y-123442086D01*
X126266649Y-123442093D01*
X126352809Y-123557187D01*
X126352812Y-123557190D01*
X126467906Y-123643350D01*
X126467913Y-123643354D01*
X126602620Y-123693596D01*
X126602627Y-123693598D01*
X126662155Y-123699999D01*
X126662172Y-123700000D01*
X127660000Y-123700000D01*
X127660000Y-122548482D01*
X127678409Y-122559111D01*
X127831009Y-122600000D01*
X127988991Y-122600000D01*
X128141591Y-122559111D01*
X128160000Y-122548482D01*
X128160000Y-123700000D01*
X129157828Y-123700000D01*
X129157844Y-123699999D01*
X129217372Y-123693598D01*
X129217379Y-123693596D01*
X129352086Y-123643354D01*
X129352093Y-123643350D01*
X129467187Y-123557190D01*
X129467190Y-123557187D01*
X129553350Y-123442093D01*
X129553354Y-123442086D01*
X129603596Y-123307379D01*
X129603598Y-123307372D01*
X129609999Y-123247844D01*
X129610000Y-123247827D01*
X129610000Y-122250000D01*
X128458482Y-122250000D01*
X128469111Y-122231591D01*
X128510000Y-122078991D01*
X128510000Y-121921009D01*
X128469111Y-121768409D01*
X128458482Y-121750000D01*
X129610000Y-121750000D01*
X129610000Y-120752172D01*
X129609999Y-120752155D01*
X129603598Y-120692627D01*
X129603596Y-120692620D01*
X129553354Y-120557913D01*
X129553350Y-120557906D01*
X129467190Y-120442812D01*
X129467187Y-120442809D01*
X129352093Y-120356649D01*
X129352086Y-120356645D01*
X129217379Y-120306403D01*
X129217372Y-120306401D01*
X129157844Y-120300000D01*
X128160000Y-120300000D01*
X128160000Y-121451517D01*
X128141591Y-121440889D01*
X127988991Y-121400000D01*
X127831009Y-121400000D01*
X127678409Y-121440889D01*
X127660000Y-121451517D01*
X127660000Y-120300000D01*
X126662155Y-120300000D01*
X126602627Y-120306401D01*
X126602620Y-120306403D01*
X126467913Y-120356645D01*
X126467906Y-120356649D01*
X126352812Y-120442809D01*
X126352809Y-120442812D01*
X126266649Y-120557906D01*
X126266645Y-120557913D01*
X126216403Y-120692620D01*
X126216401Y-120692627D01*
X126210000Y-120752155D01*
X120200500Y-120752155D01*
X120200500Y-110397648D01*
X123619500Y-110397648D01*
X123619500Y-110602351D01*
X123651522Y-110804534D01*
X123714781Y-110999223D01*
X123807715Y-111181613D01*
X123928028Y-111347213D01*
X124072786Y-111491971D01*
X124227749Y-111604556D01*
X124238390Y-111612287D01*
X124319499Y-111653614D01*
X124420776Y-111705218D01*
X124420778Y-111705218D01*
X124420781Y-111705220D01*
X124495818Y-111729601D01*
X124615465Y-111768477D01*
X124716557Y-111784488D01*
X124817648Y-111800500D01*
X124817649Y-111800500D01*
X125022351Y-111800500D01*
X125022352Y-111800500D01*
X125224534Y-111768477D01*
X125238842Y-111763827D01*
X125308682Y-111761831D01*
X125364842Y-111794077D01*
X131593181Y-118022416D01*
X131626666Y-118083739D01*
X131629500Y-118110097D01*
X131629500Y-120285272D01*
X131609815Y-120352311D01*
X131557011Y-120398066D01*
X131552954Y-120399832D01*
X131476274Y-120431594D01*
X131476272Y-120431595D01*
X131283226Y-120543052D01*
X131283217Y-120543058D01*
X131106377Y-120678751D01*
X131106370Y-120678757D01*
X130948757Y-120836370D01*
X130948751Y-120836377D01*
X130813058Y-121013217D01*
X130813052Y-121013226D01*
X130701595Y-121206273D01*
X130701593Y-121206277D01*
X130616293Y-121412209D01*
X130616290Y-121412219D01*
X130558597Y-121627534D01*
X130558594Y-121627547D01*
X130529501Y-121848533D01*
X130529500Y-121848549D01*
X130529500Y-122071450D01*
X130529501Y-122071466D01*
X130558594Y-122292452D01*
X130558595Y-122292457D01*
X130558596Y-122292463D01*
X130608878Y-122480119D01*
X130616290Y-122507780D01*
X130616293Y-122507790D01*
X130654488Y-122600000D01*
X130701595Y-122713726D01*
X130813052Y-122906774D01*
X130813057Y-122906780D01*
X130813058Y-122906782D01*
X130948751Y-123083622D01*
X130948757Y-123083629D01*
X131106370Y-123241242D01*
X131106376Y-123241247D01*
X131283226Y-123376948D01*
X131476274Y-123488405D01*
X131682219Y-123573710D01*
X131897537Y-123631404D01*
X132118543Y-123660500D01*
X132118550Y-123660500D01*
X132341450Y-123660500D01*
X132341457Y-123660500D01*
X132562463Y-123631404D01*
X132777781Y-123573710D01*
X132983726Y-123488405D01*
X133176774Y-123376948D01*
X133353624Y-123241247D01*
X133511247Y-123083624D01*
X133646948Y-122906774D01*
X133758405Y-122713726D01*
X133843710Y-122507781D01*
X133901404Y-122292463D01*
X133930500Y-122071457D01*
X133930500Y-121848543D01*
X133901404Y-121627537D01*
X133843710Y-121412219D01*
X133758405Y-121206274D01*
X133646948Y-121013226D01*
X133511247Y-120836376D01*
X133511242Y-120836370D01*
X133353629Y-120678757D01*
X133353622Y-120678751D01*
X133176782Y-120543058D01*
X133176780Y-120543057D01*
X133176774Y-120543052D01*
X133080250Y-120487323D01*
X132983727Y-120431595D01*
X132983725Y-120431594D01*
X132907046Y-120399832D01*
X132852643Y-120355991D01*
X132830579Y-120289696D01*
X132830500Y-120285272D01*
X132830500Y-117730945D01*
X132830500Y-117730943D01*
X132789577Y-117578216D01*
X132789577Y-117578215D01*
X132789577Y-117578214D01*
X132760639Y-117528095D01*
X132760637Y-117528092D01*
X132710520Y-117441284D01*
X132598716Y-117329480D01*
X132598715Y-117329479D01*
X132594385Y-117325149D01*
X132594374Y-117325139D01*
X126214077Y-110944842D01*
X126180592Y-110883519D01*
X126183828Y-110818841D01*
X126188477Y-110804534D01*
X126220500Y-110602352D01*
X126220500Y-110397648D01*
X126188477Y-110195466D01*
X126125220Y-110000781D01*
X126125218Y-110000778D01*
X126125218Y-110000776D01*
X126091503Y-109934607D01*
X126032287Y-109818390D01*
X126024556Y-109807749D01*
X125911971Y-109652786D01*
X125767213Y-109508028D01*
X125601613Y-109387715D01*
X125601612Y-109387714D01*
X125601610Y-109387713D01*
X125544653Y-109358691D01*
X125419223Y-109294781D01*
X125224534Y-109231522D01*
X125049995Y-109203878D01*
X125022352Y-109199500D01*
X124817648Y-109199500D01*
X124793329Y-109203351D01*
X124615465Y-109231522D01*
X124420776Y-109294781D01*
X124238386Y-109387715D01*
X124072786Y-109508028D01*
X123928028Y-109652786D01*
X123807715Y-109818386D01*
X123714781Y-110000776D01*
X123651522Y-110195465D01*
X123619500Y-110397648D01*
X120200500Y-110397648D01*
X120200500Y-95722417D01*
X120220185Y-95655378D01*
X120268203Y-95611933D01*
X120465051Y-95511634D01*
X120675229Y-95358931D01*
X120858931Y-95175229D01*
X121011634Y-94965051D01*
X121129579Y-94733572D01*
X121209860Y-94486493D01*
X121232539Y-94343298D01*
X121250500Y-94229902D01*
X121250500Y-93970097D01*
X121227016Y-93821829D01*
X121209860Y-93713507D01*
X121129579Y-93466428D01*
X121129577Y-93466425D01*
X121129577Y-93466423D01*
X121086787Y-93382445D01*
X121011634Y-93234949D01*
X120858931Y-93024771D01*
X120675229Y-92841069D01*
X120465051Y-92688366D01*
X120410330Y-92660484D01*
X120359535Y-92612511D01*
X120342740Y-92544690D01*
X120365277Y-92478555D01*
X120410329Y-92439515D01*
X120465051Y-92411634D01*
X120675229Y-92258931D01*
X120858931Y-92075229D01*
X121011634Y-91865051D01*
X121129579Y-91633572D01*
X121209860Y-91386493D01*
X121232539Y-91243298D01*
X121250500Y-91129902D01*
X121250500Y-90870097D01*
X121228947Y-90734021D01*
X121209860Y-90613507D01*
X121129579Y-90366428D01*
X121129577Y-90366425D01*
X121129577Y-90366423D01*
X121056698Y-90223392D01*
X121011634Y-90134949D01*
X120858931Y-89924771D01*
X120675229Y-89741069D01*
X120465051Y-89588366D01*
X120392764Y-89551534D01*
X120233576Y-89470422D01*
X119986493Y-89390140D01*
X119729902Y-89349500D01*
X119729897Y-89349500D01*
X119470103Y-89349500D01*
X119470098Y-89349500D01*
X119213506Y-89390140D01*
X118966423Y-89470422D01*
X118734945Y-89588368D01*
X118524774Y-89741066D01*
X118524768Y-89741071D01*
X118341071Y-89924768D01*
X118341066Y-89924774D01*
X118188368Y-90134945D01*
X118070422Y-90366423D01*
X117990140Y-90613506D01*
X117949500Y-90870097D01*
X89520500Y-90870097D01*
X89520500Y-88190096D01*
X89540185Y-88123057D01*
X89556814Y-88102420D01*
X96010406Y-81648827D01*
X96071729Y-81615343D01*
X96141421Y-81620327D01*
X96145532Y-81621944D01*
X96222219Y-81653710D01*
X96437537Y-81711404D01*
X96658543Y-81740500D01*
X96658550Y-81740500D01*
X96881450Y-81740500D01*
X96881457Y-81740500D01*
X97102463Y-81711404D01*
X97317781Y-81653710D01*
X97523726Y-81568405D01*
X97716774Y-81456948D01*
X97893624Y-81321247D01*
X98051247Y-81163624D01*
X98186948Y-80986774D01*
X98298405Y-80793726D01*
X98383710Y-80587781D01*
X98441404Y-80372463D01*
X98470500Y-80151457D01*
X98470500Y-79928543D01*
X98441404Y-79707537D01*
X98383710Y-79492219D01*
X98362448Y-79440889D01*
X98298406Y-79286277D01*
X98298405Y-79286274D01*
X98186948Y-79093226D01*
X98051247Y-78916376D01*
X98051242Y-78916370D01*
X97893629Y-78758757D01*
X97893622Y-78758751D01*
X97885026Y-78752155D01*
X99390000Y-78752155D01*
X99390000Y-79750000D01*
X100541518Y-79750000D01*
X100530889Y-79768409D01*
X100490000Y-79921009D01*
X100490000Y-80078991D01*
X100530889Y-80231591D01*
X100541518Y-80250000D01*
X99390000Y-80250000D01*
X99390000Y-81247844D01*
X99396401Y-81307372D01*
X99396403Y-81307379D01*
X99446645Y-81442086D01*
X99446649Y-81442093D01*
X99532809Y-81557187D01*
X99532812Y-81557190D01*
X99647906Y-81643350D01*
X99647913Y-81643354D01*
X99782620Y-81693596D01*
X99782627Y-81693598D01*
X99842155Y-81699999D01*
X99842172Y-81700000D01*
X100840000Y-81700000D01*
X100840000Y-80548482D01*
X100858409Y-80559111D01*
X101011009Y-80600000D01*
X101168991Y-80600000D01*
X101321591Y-80559111D01*
X101340000Y-80548482D01*
X101340000Y-81700000D01*
X102337828Y-81700000D01*
X102337844Y-81699999D01*
X102397372Y-81693598D01*
X102397379Y-81693596D01*
X102532086Y-81643354D01*
X102532093Y-81643350D01*
X102647187Y-81557190D01*
X102647190Y-81557187D01*
X102733350Y-81442093D01*
X102733354Y-81442086D01*
X102783596Y-81307379D01*
X102783598Y-81307372D01*
X102789999Y-81247844D01*
X102790000Y-81247827D01*
X102790000Y-80250000D01*
X101638482Y-80250000D01*
X101649111Y-80231591D01*
X101690000Y-80078991D01*
X101690000Y-79921009D01*
X101649111Y-79768409D01*
X101638482Y-79750000D01*
X102790000Y-79750000D01*
X102790000Y-78752172D01*
X102789999Y-78752155D01*
X157210000Y-78752155D01*
X157210000Y-79750000D01*
X158361518Y-79750000D01*
X158350889Y-79768409D01*
X158310000Y-79921009D01*
X158310000Y-80078991D01*
X158350889Y-80231591D01*
X158361518Y-80250000D01*
X157210000Y-80250000D01*
X157210000Y-81247844D01*
X157216401Y-81307372D01*
X157216403Y-81307379D01*
X157266645Y-81442086D01*
X157266649Y-81442093D01*
X157352809Y-81557187D01*
X157352812Y-81557190D01*
X157467906Y-81643350D01*
X157467913Y-81643354D01*
X157602620Y-81693596D01*
X157602627Y-81693598D01*
X157662155Y-81699999D01*
X157662172Y-81700000D01*
X158660000Y-81700000D01*
X158660000Y-80548482D01*
X158678409Y-80559111D01*
X158831009Y-80600000D01*
X158988991Y-80600000D01*
X159141591Y-80559111D01*
X159160000Y-80548482D01*
X159160000Y-81700000D01*
X160157828Y-81700000D01*
X160157844Y-81699999D01*
X160217372Y-81693598D01*
X160217379Y-81693596D01*
X160352086Y-81643354D01*
X160352093Y-81643350D01*
X160467187Y-81557190D01*
X160467190Y-81557187D01*
X160553350Y-81442093D01*
X160553354Y-81442086D01*
X160603596Y-81307379D01*
X160603598Y-81307372D01*
X160609999Y-81247844D01*
X160610000Y-81247827D01*
X160610000Y-80250000D01*
X159458482Y-80250000D01*
X159469111Y-80231591D01*
X159510000Y-80078991D01*
X159510000Y-79921009D01*
X159469111Y-79768409D01*
X159458482Y-79750000D01*
X160610000Y-79750000D01*
X160610000Y-78752172D01*
X160609999Y-78752155D01*
X160603598Y-78692627D01*
X160603596Y-78692620D01*
X160553354Y-78557913D01*
X160553350Y-78557906D01*
X160467190Y-78442812D01*
X160467187Y-78442809D01*
X160352093Y-78356649D01*
X160352086Y-78356645D01*
X160217379Y-78306403D01*
X160217372Y-78306401D01*
X160157844Y-78300000D01*
X159160000Y-78300000D01*
X159160000Y-79451517D01*
X159141591Y-79440889D01*
X158988991Y-79400000D01*
X158831009Y-79400000D01*
X158678409Y-79440889D01*
X158660000Y-79451517D01*
X158660000Y-78300000D01*
X157662155Y-78300000D01*
X157602627Y-78306401D01*
X157602620Y-78306403D01*
X157467913Y-78356645D01*
X157467906Y-78356649D01*
X157352812Y-78442809D01*
X157352809Y-78442812D01*
X157266649Y-78557906D01*
X157266645Y-78557913D01*
X157216403Y-78692620D01*
X157216401Y-78692627D01*
X157210000Y-78752155D01*
X102789999Y-78752155D01*
X102783598Y-78692627D01*
X102783596Y-78692620D01*
X102733354Y-78557913D01*
X102733350Y-78557906D01*
X102647190Y-78442812D01*
X102647187Y-78442809D01*
X102532093Y-78356649D01*
X102532086Y-78356645D01*
X102397379Y-78306403D01*
X102397372Y-78306401D01*
X102337844Y-78300000D01*
X101340000Y-78300000D01*
X101340000Y-79451517D01*
X101321591Y-79440889D01*
X101168991Y-79400000D01*
X101011009Y-79400000D01*
X100858409Y-79440889D01*
X100840000Y-79451517D01*
X100840000Y-78300000D01*
X99842155Y-78300000D01*
X99782627Y-78306401D01*
X99782620Y-78306403D01*
X99647913Y-78356645D01*
X99647906Y-78356649D01*
X99532812Y-78442809D01*
X99532809Y-78442812D01*
X99446649Y-78557906D01*
X99446645Y-78557913D01*
X99396403Y-78692620D01*
X99396401Y-78692627D01*
X99390000Y-78752155D01*
X97885026Y-78752155D01*
X97716782Y-78623058D01*
X97716780Y-78623057D01*
X97716774Y-78623052D01*
X97523726Y-78511595D01*
X97523722Y-78511593D01*
X97317790Y-78426293D01*
X97317783Y-78426291D01*
X97317781Y-78426290D01*
X97102463Y-78368596D01*
X97102457Y-78368595D01*
X97102452Y-78368594D01*
X96881466Y-78339501D01*
X96881463Y-78339500D01*
X96881457Y-78339500D01*
X96658543Y-78339500D01*
X96658537Y-78339500D01*
X96658533Y-78339501D01*
X96437547Y-78368594D01*
X96437540Y-78368595D01*
X96437537Y-78368596D01*
X96222219Y-78426290D01*
X96222209Y-78426293D01*
X96016277Y-78511593D01*
X96016273Y-78511595D01*
X95823226Y-78623052D01*
X95823217Y-78623058D01*
X95646377Y-78758751D01*
X95646370Y-78758757D01*
X95488757Y-78916370D01*
X95488751Y-78916377D01*
X95353058Y-79093217D01*
X95353052Y-79093226D01*
X95241595Y-79286273D01*
X95241593Y-79286277D01*
X95156293Y-79492209D01*
X95156290Y-79492219D01*
X95098597Y-79707534D01*
X95098594Y-79707547D01*
X95069501Y-79928533D01*
X95069500Y-79928549D01*
X95069500Y-80151450D01*
X95069501Y-80151466D01*
X95098594Y-80372452D01*
X95098595Y-80372457D01*
X95098596Y-80372463D01*
X95098597Y-80372465D01*
X95156290Y-80587781D01*
X95188051Y-80664459D01*
X95195520Y-80733928D01*
X95164245Y-80796407D01*
X95161171Y-80799592D01*
X88551286Y-87409478D01*
X88439481Y-87521282D01*
X88439479Y-87521285D01*
X88389361Y-87608094D01*
X88389359Y-87608096D01*
X88360425Y-87658209D01*
X88360424Y-87658210D01*
X88360423Y-87658215D01*
X88319499Y-87810943D01*
X88319499Y-87810945D01*
X88319499Y-87979046D01*
X88319500Y-87979059D01*
X88319500Y-94770397D01*
X88299815Y-94837436D01*
X88251800Y-94880879D01*
X88238389Y-94887712D01*
X88072786Y-95008028D01*
X87928028Y-95152786D01*
X87807715Y-95318386D01*
X87714781Y-95500776D01*
X87651522Y-95695465D01*
X87619500Y-95897648D01*
X84836610Y-95897648D01*
X84743576Y-95586443D01*
X84742163Y-95581317D01*
X84724558Y-95511631D01*
X84521991Y-94709804D01*
X84520797Y-94704606D01*
X84422383Y-94229897D01*
X84338321Y-93824416D01*
X84337363Y-93819241D01*
X84192919Y-92931985D01*
X84192176Y-92926708D01*
X84086041Y-92034094D01*
X84085527Y-92028799D01*
X84073171Y-91865051D01*
X84017891Y-91132429D01*
X84017606Y-91127111D01*
X84001023Y-90613506D01*
X83988598Y-90228701D01*
X83988541Y-90223418D01*
X83998212Y-89324536D01*
X83998384Y-89319215D01*
X84010676Y-89090950D01*
X84046717Y-88421608D01*
X84047119Y-88416294D01*
X84134025Y-87521589D01*
X84134644Y-87516376D01*
X84259965Y-86626220D01*
X84260821Y-86620964D01*
X84305349Y-86380229D01*
X84424320Y-85737028D01*
X84425386Y-85731886D01*
X84626770Y-84855773D01*
X84628062Y-84850659D01*
X84866955Y-83984013D01*
X84868465Y-83978963D01*
X85144411Y-83123429D01*
X85146137Y-83118447D01*
X85458637Y-82275573D01*
X85460578Y-82270663D01*
X85809053Y-81442006D01*
X85811206Y-81437181D01*
X86194987Y-80624330D01*
X86197364Y-80619564D01*
X86391716Y-80250000D01*
X86615778Y-79823943D01*
X86618332Y-79819330D01*
X87070594Y-79042437D01*
X87073356Y-79037919D01*
X87558618Y-78281209D01*
X87561539Y-78276862D01*
X88078945Y-77541676D01*
X88082053Y-77537458D01*
X88630586Y-76825244D01*
X88633889Y-76821141D01*
X89212537Y-76133206D01*
X89216025Y-76129236D01*
X89823746Y-75466821D01*
X89827391Y-75463016D01*
X90463038Y-74827369D01*
X90466843Y-74823724D01*
X91129258Y-74216003D01*
X91133228Y-74212515D01*
X91821163Y-73633867D01*
X91825266Y-73630564D01*
X92537480Y-73082031D01*
X92541698Y-73078923D01*
X93276884Y-72561517D01*
X93281231Y-72558596D01*
X94037941Y-72073334D01*
X94042459Y-72070572D01*
X94819352Y-71618310D01*
X94823965Y-71615756D01*
X95525664Y-71246735D01*
X95619586Y-71197342D01*
X95624361Y-71194961D01*
X96437203Y-70811184D01*
X96442028Y-70809031D01*
X97270685Y-70460556D01*
X97275595Y-70458615D01*
X98118469Y-70146115D01*
X98123451Y-70144389D01*
X98978985Y-69868443D01*
X98984035Y-69866933D01*
X99850681Y-69628040D01*
X99855795Y-69626748D01*
X100731908Y-69425364D01*
X100737050Y-69424298D01*
X101620996Y-69260797D01*
X101626242Y-69259943D01*
X102516398Y-69134622D01*
X102521611Y-69134003D01*
X103416323Y-69047096D01*
X103421630Y-69046695D01*
X104319250Y-68998361D01*
X104324558Y-68998190D01*
X105223440Y-68988519D01*
X105228723Y-68988576D01*
X106127142Y-69017584D01*
X106132451Y-69017869D01*
X107028837Y-69085506D01*
X107034116Y-69086019D01*
X107926736Y-69192154D01*
X107932007Y-69192897D01*
X108819263Y-69337341D01*
X108824438Y-69338299D01*
X109702308Y-69520294D01*
X109704628Y-69520775D01*
X109709826Y-69521969D01*
X110581358Y-69742146D01*
X110586465Y-69743554D01*
X111100792Y-69897310D01*
X111447704Y-70001018D01*
X111452783Y-70002656D01*
X112302140Y-70296932D01*
X112307143Y-70298787D01*
X113143083Y-70629342D01*
X113147947Y-70631388D01*
X113605895Y-70835674D01*
X113968874Y-70997595D01*
X113973700Y-70999873D01*
X114778111Y-71401058D01*
X114782776Y-71403510D01*
X115569241Y-71838963D01*
X115573816Y-71841627D01*
X115952859Y-72073345D01*
X116340742Y-72310466D01*
X116345225Y-72313340D01*
X116722257Y-72566734D01*
X117091317Y-72814770D01*
X117095655Y-72817823D01*
X117819438Y-73350855D01*
X117823654Y-73354102D01*
X117923602Y-73434564D01*
X118523883Y-73917816D01*
X118527936Y-73921226D01*
X119059863Y-74388558D01*
X119203224Y-74514510D01*
X119207155Y-74518116D01*
X119828783Y-75113552D01*
X119857251Y-75140820D01*
X119859158Y-75142687D01*
X119886426Y-75169955D01*
X119960118Y-75200479D01*
X119960120Y-75200479D01*
X120039880Y-75200479D01*
X120039882Y-75200479D01*
X120113574Y-75169955D01*
X120169976Y-75113553D01*
X120200500Y-75039861D01*
X120200500Y-75001931D01*
X120200561Y-74998037D01*
X120206040Y-74823701D01*
X120219715Y-74388541D01*
X120220201Y-74380805D01*
X120277407Y-73775636D01*
X120278383Y-73767917D01*
X120299611Y-73633889D01*
X120373468Y-73167570D01*
X120374918Y-73159968D01*
X120507525Y-72566715D01*
X120509454Y-72559208D01*
X120679036Y-71975502D01*
X120681440Y-71968105D01*
X120887341Y-71396193D01*
X120890193Y-71388991D01*
X121131606Y-70831117D01*
X121134910Y-70824096D01*
X121410872Y-70282489D01*
X121414612Y-70275687D01*
X121724035Y-69752482D01*
X121728190Y-69745935D01*
X122069858Y-69243185D01*
X122074408Y-69236922D01*
X122378004Y-68845528D01*
X127249500Y-68845528D01*
X127249500Y-69154471D01*
X127284086Y-69461437D01*
X127284089Y-69461455D01*
X127352831Y-69762635D01*
X127352835Y-69762647D01*
X127454862Y-70054222D01*
X127454868Y-70054236D01*
X127588903Y-70332562D01*
X127588905Y-70332565D01*
X127753265Y-70594143D01*
X127782977Y-70631400D01*
X127939404Y-70827554D01*
X127945880Y-70835674D01*
X128164326Y-71054120D01*
X128405857Y-71246735D01*
X128667435Y-71411095D01*
X128945771Y-71545135D01*
X128945777Y-71545137D01*
X129237352Y-71647164D01*
X129237364Y-71647168D01*
X129538548Y-71715911D01*
X129538554Y-71715911D01*
X129538562Y-71715913D01*
X129743206Y-71738970D01*
X129845529Y-71750499D01*
X129845532Y-71750500D01*
X129845535Y-71750500D01*
X130154468Y-71750500D01*
X130154469Y-71750499D01*
X130311356Y-71732822D01*
X130461437Y-71715913D01*
X130461442Y-71715912D01*
X130461452Y-71715911D01*
X130762636Y-71647168D01*
X131054229Y-71545135D01*
X131332565Y-71411095D01*
X131594143Y-71246735D01*
X131835674Y-71054120D01*
X132054120Y-70835674D01*
X132246735Y-70594143D01*
X132411095Y-70332565D01*
X132545135Y-70054229D01*
X132647168Y-69762636D01*
X132715911Y-69461452D01*
X132727015Y-69362906D01*
X132740865Y-69239977D01*
X132750500Y-69154465D01*
X132750500Y-68845535D01*
X132729439Y-68658610D01*
X132715913Y-68538562D01*
X132715910Y-68538544D01*
X132647168Y-68237364D01*
X132647164Y-68237352D01*
X132545137Y-67945777D01*
X132545135Y-67945771D01*
X132411095Y-67667435D01*
X132246735Y-67405857D01*
X132054120Y-67164326D01*
X131835674Y-66945880D01*
X131594143Y-66753265D01*
X131332565Y-66588905D01*
X131332562Y-66588903D01*
X131054236Y-66454868D01*
X131054222Y-66454862D01*
X130762647Y-66352835D01*
X130762635Y-66352831D01*
X130461455Y-66284089D01*
X130461437Y-66284086D01*
X130154471Y-66249500D01*
X130154465Y-66249500D01*
X129845535Y-66249500D01*
X129845528Y-66249500D01*
X129538562Y-66284086D01*
X129538544Y-66284089D01*
X129237364Y-66352831D01*
X129237352Y-66352835D01*
X128945777Y-66454862D01*
X128945763Y-66454868D01*
X128667437Y-66588903D01*
X128405858Y-66753264D01*
X128164326Y-66945879D01*
X127945879Y-67164326D01*
X127753264Y-67405858D01*
X127588903Y-67667437D01*
X127454868Y-67945763D01*
X127454862Y-67945777D01*
X127352835Y-68237352D01*
X127352831Y-68237364D01*
X127284089Y-68538544D01*
X127284086Y-68538562D01*
X127249500Y-68845528D01*
X122378004Y-68845528D01*
X122446975Y-68756611D01*
X122451911Y-68750644D01*
X122853917Y-68294657D01*
X122859219Y-68289012D01*
X123289033Y-67859199D01*
X123294678Y-67853897D01*
X123750653Y-67451900D01*
X123756646Y-67446944D01*
X124236958Y-67074375D01*
X124243187Y-67069850D01*
X124745955Y-66728168D01*
X124752502Y-66724014D01*
X125275708Y-66414592D01*
X125282510Y-66410852D01*
X125824118Y-66134888D01*
X125831138Y-66131585D01*
X126389011Y-65890171D01*
X126396223Y-65887317D01*
X126968155Y-65681409D01*
X126975496Y-65679024D01*
X127559228Y-65509434D01*
X127566735Y-65507505D01*
X128159988Y-65374898D01*
X128167590Y-65373448D01*
X128767944Y-65278362D01*
X128775657Y-65277387D01*
X129380826Y-65220181D01*
X129388562Y-65219695D01*
X129996118Y-65200602D01*
X130003882Y-65200602D01*
X130611434Y-65219695D01*
G37*
%TD.AperFunction*%
M02*
