%TF.GenerationSoftware,KiCad,Pcbnew,9.0.2*%
%TF.CreationDate,2025-07-23T12:53:51-04:00*%
%TF.ProjectId,mothers_day_necklace - 8cm with 6 points soldering,6d6f7468-6572-4735-9f64-61795f6e6563,A*%
%TF.SameCoordinates,Original*%
%TF.FileFunction,Copper,L1,Top*%
%TF.FilePolarity,Positive*%
%FSLAX46Y46*%
G04 Gerber Fmt 4.6, Leading zero omitted, Abs format (unit mm)*
G04 Created by KiCad (PCBNEW 9.0.2) date 2025-07-23 12:53:51*
%MOMM*%
%LPD*%
G01*
G04 APERTURE LIST*
%TA.AperFunction,ComponentPad*%
%ADD10R,2.400000X2.400000*%
%TD*%
%TA.AperFunction,ComponentPad*%
%ADD11C,2.400000*%
%TD*%
%TA.AperFunction,ComponentPad*%
%ADD12C,1.397000*%
%TD*%
%TA.AperFunction,SMDPad,CuDef*%
%ADD13C,17.800000*%
%TD*%
%TA.AperFunction,ComponentPad*%
%ADD14C,2.300000*%
%TD*%
%TA.AperFunction,ComponentPad*%
%ADD15C,1.600000*%
%TD*%
%TA.AperFunction,Conductor*%
%ADD16C,0.200000*%
%TD*%
G04 APERTURE END LIST*
D10*
X158910000Y-80000000D03*
D11*
X163230000Y-79960000D03*
D10*
X101090000Y-80000000D03*
D11*
X96770000Y-80040000D03*
D12*
X126190000Y-132960000D03*
X133810000Y-132960000D03*
X126190000Y-138040000D03*
X133810000Y-138040000D03*
D13*
X130000000Y-92500000D03*
D14*
X119600000Y-91000000D03*
X119600000Y-94100000D03*
X140400000Y-94100000D03*
X140400000Y-91000000D03*
D15*
X160920000Y-96000000D03*
X171080000Y-96000000D03*
X124920000Y-110500000D03*
X135080000Y-110500000D03*
X88920000Y-96000000D03*
X99080000Y-96000000D03*
D10*
X127910000Y-122000000D03*
D11*
X132230000Y-121960000D03*
D16*
X135080000Y-104603200D02*
X135080000Y-110500000D01*
X162476800Y-104603200D02*
X135080000Y-104603200D01*
X107683200Y-104603200D02*
X135080000Y-104603200D01*
X126190000Y-138040000D02*
X133810000Y-138040000D01*
X99080000Y-96000000D02*
X107683200Y-104603200D01*
X171080000Y-96000000D02*
X162476800Y-104603200D01*
X133810000Y-132960000D02*
X126190000Y-132960000D01*
%TA.AperFunction,Conductor*%
G36*
X130611434Y-65219695D02*
G01*
X130619174Y-65220181D01*
X131224337Y-65277386D01*
X131232058Y-65278362D01*
X131832402Y-65373447D01*
X131840016Y-65374899D01*
X132433255Y-65507503D01*
X132440778Y-65509436D01*
X133024463Y-65679012D01*
X133031871Y-65681419D01*
X133603764Y-65887313D01*
X133610998Y-65890176D01*
X133885470Y-66008951D01*
X134168846Y-66131579D01*
X134175895Y-66134896D01*
X134717476Y-66410845D01*
X134724302Y-66414598D01*
X135247481Y-66724005D01*
X135254057Y-66728178D01*
X135726422Y-67049197D01*
X135756773Y-67069823D01*
X135763075Y-67074402D01*
X136243353Y-67446944D01*
X136249356Y-67451909D01*
X136705303Y-67853881D01*
X136710981Y-67859214D01*
X137140763Y-68288996D01*
X137146096Y-68294674D01*
X137548075Y-68750630D01*
X137553036Y-68756627D01*
X137925587Y-69236917D01*
X137930143Y-69243188D01*
X138118464Y-69520294D01*
X138271799Y-69745919D01*
X138275973Y-69752496D01*
X138585380Y-70275675D01*
X138589133Y-70282501D01*
X138865082Y-70824081D01*
X138868399Y-70831130D01*
X139109798Y-71388970D01*
X139112665Y-71396212D01*
X139318559Y-71968104D01*
X139320966Y-71975513D01*
X139490539Y-72559188D01*
X139492477Y-72566733D01*
X139625076Y-73159942D01*
X139626535Y-73167594D01*
X139721616Y-73767916D01*
X139722593Y-73775644D01*
X139779796Y-74380783D01*
X139780285Y-74388558D01*
X139799439Y-74998036D01*
X139799500Y-75001931D01*
X139799500Y-75039861D01*
X139830024Y-75113552D01*
X139886426Y-75169954D01*
X139960118Y-75200478D01*
X139960120Y-75200478D01*
X140039880Y-75200478D01*
X140039882Y-75200478D01*
X140113574Y-75169954D01*
X140140863Y-75142664D01*
X140142677Y-75140888D01*
X140792867Y-74518094D01*
X140796750Y-74514532D01*
X141472086Y-73921206D01*
X141476093Y-73917835D01*
X142176356Y-73354093D01*
X142180539Y-73350872D01*
X142904366Y-72817807D01*
X142908656Y-72814787D01*
X143654794Y-72313326D01*
X143659226Y-72310485D01*
X144426203Y-71841615D01*
X144430738Y-71838974D01*
X145217242Y-71403500D01*
X145221868Y-71401068D01*
X146026317Y-70999864D01*
X146031108Y-70997602D01*
X146852069Y-70631381D01*
X146856900Y-70629349D01*
X147692866Y-70298783D01*
X147697848Y-70296935D01*
X148547233Y-70002650D01*
X148552278Y-70001023D01*
X149413546Y-69743550D01*
X149418629Y-69742149D01*
X150290183Y-69521967D01*
X150295359Y-69520777D01*
X151175569Y-69338297D01*
X151180728Y-69337343D01*
X152067998Y-69192896D01*
X152073256Y-69192155D01*
X152965887Y-69086018D01*
X152971157Y-69085506D01*
X153867550Y-69017869D01*
X153872854Y-69017584D01*
X154771276Y-68988576D01*
X154776559Y-68988519D01*
X155675440Y-68998190D01*
X155680751Y-68998361D01*
X156578366Y-69046695D01*
X156583680Y-69047096D01*
X157478382Y-69134002D01*
X157483606Y-69134623D01*
X158373747Y-69259942D01*
X158379010Y-69260798D01*
X159262940Y-69424296D01*
X159268101Y-69425366D01*
X160144193Y-69626745D01*
X160149329Y-69628043D01*
X161015951Y-69866929D01*
X161021027Y-69868447D01*
X161876534Y-70144384D01*
X161881544Y-70146120D01*
X162724388Y-70458609D01*
X162729330Y-70460563D01*
X163557947Y-70809021D01*
X163562813Y-70811192D01*
X163697580Y-70874821D01*
X164375638Y-71194961D01*
X164380413Y-71197342D01*
X165176015Y-71615746D01*
X165180666Y-71618321D01*
X165794250Y-71975514D01*
X165957523Y-72070562D01*
X165962075Y-72073345D01*
X166718746Y-72558582D01*
X166723136Y-72561532D01*
X167458278Y-73078908D01*
X167462541Y-73082047D01*
X167920249Y-73434565D01*
X168174706Y-73630543D01*
X168178858Y-73633886D01*
X168347391Y-73775645D01*
X168866751Y-74212499D01*
X168870760Y-74216021D01*
X169533131Y-74823701D01*
X169536984Y-74827392D01*
X170172585Y-75462993D01*
X170176276Y-75466846D01*
X170783956Y-76129217D01*
X170787478Y-76133226D01*
X171366088Y-76821115D01*
X171369434Y-76825271D01*
X171917917Y-77537419D01*
X171921082Y-77541716D01*
X172438432Y-78276822D01*
X172441402Y-78281242D01*
X172589121Y-78511593D01*
X172926632Y-79037902D01*
X172929415Y-79042454D01*
X173381646Y-79819293D01*
X173384231Y-79823962D01*
X173802635Y-80619564D01*
X173805016Y-80624339D01*
X174188782Y-81437157D01*
X174190956Y-81442030D01*
X174539410Y-82270637D01*
X174541372Y-82275599D01*
X174853851Y-83118417D01*
X174855598Y-83123459D01*
X175131524Y-83978932D01*
X175133053Y-83984044D01*
X175371929Y-84850629D01*
X175373236Y-84855803D01*
X175574604Y-85731844D01*
X175575687Y-85737069D01*
X175739178Y-86620964D01*
X175740035Y-86626230D01*
X175865349Y-87516333D01*
X175865979Y-87521632D01*
X175952880Y-88416294D01*
X175953282Y-88421615D01*
X176001615Y-89319215D01*
X176001787Y-89324548D01*
X176011458Y-90223392D01*
X176011400Y-90228728D01*
X175982393Y-91127111D01*
X175982107Y-91132439D01*
X175914472Y-92028799D01*
X175913956Y-92034110D01*
X175807823Y-92926708D01*
X175807079Y-92931992D01*
X175662642Y-93819205D01*
X175661671Y-93824452D01*
X175479202Y-94704606D01*
X175478007Y-94709806D01*
X175257836Y-95581317D01*
X175256418Y-95586461D01*
X174998959Y-96447682D01*
X174997321Y-96452761D01*
X174703045Y-97302118D01*
X174701190Y-97307121D01*
X174370646Y-98143033D01*
X174368577Y-98147952D01*
X174002382Y-98968852D01*
X174000104Y-98973677D01*
X173598929Y-99778070D01*
X173596446Y-99782793D01*
X173161030Y-100569191D01*
X173158345Y-100573802D01*
X172689511Y-101340720D01*
X172686631Y-101345212D01*
X172185207Y-102091295D01*
X172182135Y-102095659D01*
X171649130Y-102819405D01*
X171645875Y-102823632D01*
X171082173Y-103523846D01*
X171078738Y-103527929D01*
X170485456Y-104203215D01*
X170481848Y-104207147D01*
X169859179Y-104857205D01*
X169857313Y-104859112D01*
X130868124Y-143848324D01*
X130860247Y-143855550D01*
X130749796Y-143948425D01*
X130738063Y-143957163D01*
X130575371Y-144064014D01*
X130561138Y-144072072D01*
X130389437Y-144154828D01*
X130372512Y-144161503D01*
X130206068Y-144213404D01*
X130186548Y-144217800D01*
X130028872Y-144240137D01*
X130007424Y-144241297D01*
X129856600Y-144236362D01*
X129834521Y-144233643D01*
X129685721Y-144201561D01*
X129664630Y-144195001D01*
X129505990Y-144129655D01*
X129491792Y-144122716D01*
X129419231Y-144081328D01*
X129410689Y-144075982D01*
X129329237Y-144020276D01*
X129321512Y-144014541D01*
X129237885Y-143947266D01*
X129231024Y-143941320D01*
X129140881Y-143857226D01*
X129137786Y-143854236D01*
X123312000Y-138028446D01*
X123229185Y-137945631D01*
X124991000Y-137945631D01*
X124991000Y-138134368D01*
X125020522Y-138320763D01*
X125020523Y-138320767D01*
X125078843Y-138500256D01*
X125164523Y-138668413D01*
X125275454Y-138821096D01*
X125408904Y-138954546D01*
X125561587Y-139065477D01*
X125729744Y-139151157D01*
X125909233Y-139209477D01*
X125979134Y-139220548D01*
X126095632Y-139239000D01*
X126095637Y-139239000D01*
X126284368Y-139239000D01*
X126387920Y-139222598D01*
X126470767Y-139209477D01*
X126650256Y-139151157D01*
X126818413Y-139065477D01*
X126971096Y-138954546D01*
X127104546Y-138821096D01*
X127198621Y-138691613D01*
X127253950Y-138648949D01*
X127298938Y-138640500D01*
X132701062Y-138640500D01*
X132768101Y-138660185D01*
X132801378Y-138691612D01*
X132895454Y-138821096D01*
X133028904Y-138954546D01*
X133181587Y-139065477D01*
X133349744Y-139151157D01*
X133529233Y-139209477D01*
X133599134Y-139220548D01*
X133715632Y-139239000D01*
X133715637Y-139239000D01*
X133904368Y-139239000D01*
X134007920Y-139222598D01*
X134090767Y-139209477D01*
X134270256Y-139151157D01*
X134438413Y-139065477D01*
X134591096Y-138954546D01*
X134724546Y-138821096D01*
X134835477Y-138668413D01*
X134921157Y-138500256D01*
X134979477Y-138320767D01*
X134992598Y-138237920D01*
X135009000Y-138134368D01*
X135009000Y-137945631D01*
X134979477Y-137759236D01*
X134979477Y-137759233D01*
X134921157Y-137579744D01*
X134835477Y-137411587D01*
X134724546Y-137258904D01*
X134591096Y-137125454D01*
X134438413Y-137014523D01*
X134270256Y-136928843D01*
X134090767Y-136870523D01*
X134090765Y-136870522D01*
X134090763Y-136870522D01*
X133904368Y-136841000D01*
X133904363Y-136841000D01*
X133715637Y-136841000D01*
X133715632Y-136841000D01*
X133529236Y-136870522D01*
X133349741Y-136928844D01*
X133181586Y-137014523D01*
X133094475Y-137077813D01*
X133028904Y-137125454D01*
X133028902Y-137125456D01*
X133028901Y-137125456D01*
X132895456Y-137258901D01*
X132895456Y-137258902D01*
X132895454Y-137258904D01*
X132801380Y-137388386D01*
X132746050Y-137431051D01*
X132701062Y-137439500D01*
X127298938Y-137439500D01*
X127231899Y-137419815D01*
X127198620Y-137388386D01*
X127104546Y-137258904D01*
X126971096Y-137125454D01*
X126818413Y-137014523D01*
X126650256Y-136928843D01*
X126470767Y-136870523D01*
X126470765Y-136870522D01*
X126470763Y-136870522D01*
X126284368Y-136841000D01*
X126284363Y-136841000D01*
X126095637Y-136841000D01*
X126095632Y-136841000D01*
X125909236Y-136870522D01*
X125729741Y-136928844D01*
X125561586Y-137014523D01*
X125474475Y-137077813D01*
X125408904Y-137125454D01*
X125408902Y-137125456D01*
X125408901Y-137125456D01*
X125275456Y-137258901D01*
X125275456Y-137258902D01*
X125275454Y-137258904D01*
X125227813Y-137324475D01*
X125164523Y-137411586D01*
X125078844Y-137579741D01*
X125020522Y-137759236D01*
X124991000Y-137945631D01*
X123229185Y-137945631D01*
X118232003Y-132948446D01*
X118149188Y-132865631D01*
X124991000Y-132865631D01*
X124991000Y-133054368D01*
X125020522Y-133240763D01*
X125020523Y-133240767D01*
X125078843Y-133420256D01*
X125164523Y-133588413D01*
X125275454Y-133741096D01*
X125408904Y-133874546D01*
X125561587Y-133985477D01*
X125729744Y-134071157D01*
X125909233Y-134129477D01*
X125979134Y-134140548D01*
X126095632Y-134159000D01*
X126095637Y-134159000D01*
X126284368Y-134159000D01*
X126387920Y-134142598D01*
X126470767Y-134129477D01*
X126650256Y-134071157D01*
X126818413Y-133985477D01*
X126971096Y-133874546D01*
X127104546Y-133741096D01*
X127198621Y-133611613D01*
X127253950Y-133568949D01*
X127298938Y-133560500D01*
X132701062Y-133560500D01*
X132768101Y-133580185D01*
X132801378Y-133611612D01*
X132895454Y-133741096D01*
X133028904Y-133874546D01*
X133181587Y-133985477D01*
X133349744Y-134071157D01*
X133529233Y-134129477D01*
X133599134Y-134140548D01*
X133715632Y-134159000D01*
X133715637Y-134159000D01*
X133904368Y-134159000D01*
X134007920Y-134142598D01*
X134090767Y-134129477D01*
X134270256Y-134071157D01*
X134438413Y-133985477D01*
X134591096Y-133874546D01*
X134724546Y-133741096D01*
X134835477Y-133588413D01*
X134921157Y-133420256D01*
X134979477Y-133240767D01*
X134992598Y-133157920D01*
X135009000Y-133054368D01*
X135009000Y-132865631D01*
X134979477Y-132679236D01*
X134979477Y-132679233D01*
X134921157Y-132499744D01*
X134835477Y-132331587D01*
X134724546Y-132178904D01*
X134591096Y-132045454D01*
X134438413Y-131934523D01*
X134270256Y-131848843D01*
X134090767Y-131790523D01*
X134090765Y-131790522D01*
X134090763Y-131790522D01*
X133904368Y-131761000D01*
X133904363Y-131761000D01*
X133715637Y-131761000D01*
X133715632Y-131761000D01*
X133529236Y-131790522D01*
X133349741Y-131848844D01*
X133181586Y-131934523D01*
X133094475Y-131997813D01*
X133028904Y-132045454D01*
X133028902Y-132045456D01*
X133028901Y-132045456D01*
X132895456Y-132178901D01*
X132895456Y-132178902D01*
X132895454Y-132178904D01*
X132801380Y-132308386D01*
X132746050Y-132351051D01*
X132701062Y-132359500D01*
X127298938Y-132359500D01*
X127231899Y-132339815D01*
X127198620Y-132308386D01*
X127104546Y-132178904D01*
X126971096Y-132045454D01*
X126818413Y-131934523D01*
X126650256Y-131848843D01*
X126470767Y-131790523D01*
X126470765Y-131790522D01*
X126470763Y-131790522D01*
X126284368Y-131761000D01*
X126284363Y-131761000D01*
X126095637Y-131761000D01*
X126095632Y-131761000D01*
X125909236Y-131790522D01*
X125729741Y-131848844D01*
X125561586Y-131934523D01*
X125474475Y-131997813D01*
X125408904Y-132045454D01*
X125408902Y-132045456D01*
X125408901Y-132045456D01*
X125275456Y-132178901D01*
X125275456Y-132178902D01*
X125275454Y-132178904D01*
X125227813Y-132244475D01*
X125164523Y-132331586D01*
X125078844Y-132499741D01*
X125020522Y-132679236D01*
X124991000Y-132865631D01*
X118149188Y-132865631D01*
X107569882Y-122286319D01*
X106120096Y-120836532D01*
X106035719Y-120752155D01*
X126210000Y-120752155D01*
X126210000Y-121750000D01*
X127361518Y-121750000D01*
X127350889Y-121768409D01*
X127310000Y-121921009D01*
X127310000Y-122078991D01*
X127350889Y-122231591D01*
X127361518Y-122250000D01*
X126210000Y-122250000D01*
X126210000Y-123247844D01*
X126216401Y-123307372D01*
X126216403Y-123307379D01*
X126266645Y-123442086D01*
X126266649Y-123442093D01*
X126352809Y-123557187D01*
X126352812Y-123557190D01*
X126467906Y-123643350D01*
X126467913Y-123643354D01*
X126602620Y-123693596D01*
X126602627Y-123693598D01*
X126662155Y-123699999D01*
X126662172Y-123700000D01*
X127660000Y-123700000D01*
X127660000Y-122548482D01*
X127678409Y-122559111D01*
X127831009Y-122600000D01*
X127988991Y-122600000D01*
X128141591Y-122559111D01*
X128160000Y-122548482D01*
X128160000Y-123700000D01*
X129157828Y-123700000D01*
X129157844Y-123699999D01*
X129217372Y-123693598D01*
X129217379Y-123693596D01*
X129352086Y-123643354D01*
X129352093Y-123643350D01*
X129467187Y-123557190D01*
X129467190Y-123557187D01*
X129553350Y-123442093D01*
X129553354Y-123442086D01*
X129603596Y-123307379D01*
X129603598Y-123307372D01*
X129609999Y-123247844D01*
X129610000Y-123247827D01*
X129610000Y-122250000D01*
X128458482Y-122250000D01*
X128469111Y-122231591D01*
X128510000Y-122078991D01*
X128510000Y-121921009D01*
X128490584Y-121848549D01*
X130529500Y-121848549D01*
X130529500Y-122071450D01*
X130529501Y-122071466D01*
X130558594Y-122292452D01*
X130558595Y-122292457D01*
X130558596Y-122292463D01*
X130608878Y-122480119D01*
X130616290Y-122507780D01*
X130616293Y-122507790D01*
X130654488Y-122600000D01*
X130701595Y-122713726D01*
X130813052Y-122906774D01*
X130813057Y-122906780D01*
X130813058Y-122906782D01*
X130948751Y-123083622D01*
X130948757Y-123083629D01*
X131106370Y-123241242D01*
X131106376Y-123241247D01*
X131283226Y-123376948D01*
X131476274Y-123488405D01*
X131682219Y-123573710D01*
X131897537Y-123631404D01*
X132118543Y-123660500D01*
X132118550Y-123660500D01*
X132341450Y-123660500D01*
X132341457Y-123660500D01*
X132562463Y-123631404D01*
X132777781Y-123573710D01*
X132983726Y-123488405D01*
X133176774Y-123376948D01*
X133353624Y-123241247D01*
X133511247Y-123083624D01*
X133646948Y-122906774D01*
X133758405Y-122713726D01*
X133843710Y-122507781D01*
X133901404Y-122292463D01*
X133930500Y-122071457D01*
X133930500Y-121848543D01*
X133901404Y-121627537D01*
X133843710Y-121412219D01*
X133758405Y-121206274D01*
X133646948Y-121013226D01*
X133511247Y-120836376D01*
X133511242Y-120836370D01*
X133353629Y-120678757D01*
X133353622Y-120678751D01*
X133176782Y-120543058D01*
X133176780Y-120543057D01*
X133176774Y-120543052D01*
X132983726Y-120431595D01*
X132983722Y-120431593D01*
X132777790Y-120346293D01*
X132777783Y-120346291D01*
X132777781Y-120346290D01*
X132562463Y-120288596D01*
X132562457Y-120288595D01*
X132562452Y-120288594D01*
X132341466Y-120259501D01*
X132341463Y-120259500D01*
X132341457Y-120259500D01*
X132118543Y-120259500D01*
X132118537Y-120259500D01*
X132118533Y-120259501D01*
X131897547Y-120288594D01*
X131897540Y-120288595D01*
X131897537Y-120288596D01*
X131682219Y-120346290D01*
X131682209Y-120346293D01*
X131476277Y-120431593D01*
X131476273Y-120431595D01*
X131283226Y-120543052D01*
X131283217Y-120543058D01*
X131106377Y-120678751D01*
X131106370Y-120678757D01*
X130948757Y-120836370D01*
X130948751Y-120836377D01*
X130813058Y-121013217D01*
X130813052Y-121013226D01*
X130701595Y-121206273D01*
X130701593Y-121206277D01*
X130616293Y-121412209D01*
X130616290Y-121412219D01*
X130558597Y-121627534D01*
X130558594Y-121627547D01*
X130529501Y-121848533D01*
X130529500Y-121848549D01*
X128490584Y-121848549D01*
X128469111Y-121768409D01*
X128458482Y-121750000D01*
X129610000Y-121750000D01*
X129610000Y-120752172D01*
X129609999Y-120752155D01*
X129603598Y-120692627D01*
X129603596Y-120692620D01*
X129553354Y-120557913D01*
X129553350Y-120557906D01*
X129467190Y-120442812D01*
X129467187Y-120442809D01*
X129352093Y-120356649D01*
X129352086Y-120356645D01*
X129217379Y-120306403D01*
X129217372Y-120306401D01*
X129157844Y-120300000D01*
X128160000Y-120300000D01*
X128160000Y-121451517D01*
X128141591Y-121440889D01*
X127988991Y-121400000D01*
X127831009Y-121400000D01*
X127678409Y-121440889D01*
X127660000Y-121451517D01*
X127660000Y-120300000D01*
X126662155Y-120300000D01*
X126602627Y-120306401D01*
X126602620Y-120306403D01*
X126467913Y-120356645D01*
X126467906Y-120356649D01*
X126352812Y-120442809D01*
X126352809Y-120442812D01*
X126266649Y-120557906D01*
X126266645Y-120557913D01*
X126216403Y-120692620D01*
X126216401Y-120692627D01*
X126210000Y-120752155D01*
X106035719Y-120752155D01*
X95764027Y-110480457D01*
X95681218Y-110397648D01*
X123619500Y-110397648D01*
X123619500Y-110602351D01*
X123651522Y-110804534D01*
X123714781Y-110999223D01*
X123807715Y-111181613D01*
X123928028Y-111347213D01*
X124072786Y-111491971D01*
X124227749Y-111604556D01*
X124238390Y-111612287D01*
X124354607Y-111671503D01*
X124420776Y-111705218D01*
X124420778Y-111705218D01*
X124420781Y-111705220D01*
X124525137Y-111739127D01*
X124615465Y-111768477D01*
X124716557Y-111784488D01*
X124817648Y-111800500D01*
X124817649Y-111800500D01*
X125022351Y-111800500D01*
X125022352Y-111800500D01*
X125224534Y-111768477D01*
X125419219Y-111705220D01*
X125601610Y-111612287D01*
X125694590Y-111544732D01*
X125767213Y-111491971D01*
X125767215Y-111491968D01*
X125767219Y-111491966D01*
X125911966Y-111347219D01*
X125911968Y-111347215D01*
X125911971Y-111347213D01*
X125964732Y-111274590D01*
X126032287Y-111181610D01*
X126125220Y-110999219D01*
X126188477Y-110804534D01*
X126220500Y-110602352D01*
X126220500Y-110397648D01*
X126188477Y-110195466D01*
X126125220Y-110000781D01*
X126125218Y-110000778D01*
X126125218Y-110000776D01*
X126091503Y-109934607D01*
X126032287Y-109818390D01*
X126024556Y-109807749D01*
X125911971Y-109652786D01*
X125767213Y-109508028D01*
X125601613Y-109387715D01*
X125601612Y-109387714D01*
X125601610Y-109387713D01*
X125544653Y-109358691D01*
X125419223Y-109294781D01*
X125224534Y-109231522D01*
X125049995Y-109203878D01*
X125022352Y-109199500D01*
X124817648Y-109199500D01*
X124793329Y-109203351D01*
X124615465Y-109231522D01*
X124420776Y-109294781D01*
X124238386Y-109387715D01*
X124072786Y-109508028D01*
X123928028Y-109652786D01*
X123807715Y-109818386D01*
X123714781Y-110000776D01*
X123651522Y-110195465D01*
X123619500Y-110397648D01*
X95681218Y-110397648D01*
X90142709Y-104859136D01*
X90140842Y-104857229D01*
X89518139Y-104207134D01*
X89514532Y-104203202D01*
X89335888Y-103999866D01*
X88921248Y-103527914D01*
X88917838Y-103523861D01*
X88354124Y-102823632D01*
X88350869Y-102819405D01*
X88289552Y-102736145D01*
X87817845Y-102095633D01*
X87814792Y-102091295D01*
X87313362Y-101345203D01*
X87310488Y-101340720D01*
X86841654Y-100573802D01*
X86838985Y-100569219D01*
X86403532Y-99782754D01*
X86401080Y-99778089D01*
X85999895Y-98973677D01*
X85997617Y-98968852D01*
X85932240Y-98822296D01*
X85631410Y-98147925D01*
X85629364Y-98143061D01*
X85298809Y-97307121D01*
X85296954Y-97302118D01*
X85002678Y-96452761D01*
X85001040Y-96447682D01*
X84981263Y-96381527D01*
X84836609Y-95897648D01*
X87619500Y-95897648D01*
X87619500Y-96102351D01*
X87651522Y-96304534D01*
X87714781Y-96499223D01*
X87807715Y-96681613D01*
X87928028Y-96847213D01*
X88072786Y-96991971D01*
X88227749Y-97104556D01*
X88238390Y-97112287D01*
X88354607Y-97171503D01*
X88420776Y-97205218D01*
X88420778Y-97205218D01*
X88420781Y-97205220D01*
X88525137Y-97239127D01*
X88615465Y-97268477D01*
X88716557Y-97284488D01*
X88817648Y-97300500D01*
X88817649Y-97300500D01*
X89022351Y-97300500D01*
X89022352Y-97300500D01*
X89224534Y-97268477D01*
X89419219Y-97205220D01*
X89601610Y-97112287D01*
X89694590Y-97044732D01*
X89767213Y-96991971D01*
X89767215Y-96991968D01*
X89767219Y-96991966D01*
X89911966Y-96847219D01*
X89911968Y-96847215D01*
X89911971Y-96847213D01*
X89964732Y-96774590D01*
X90032287Y-96681610D01*
X90125220Y-96499219D01*
X90188477Y-96304534D01*
X90220500Y-96102352D01*
X90220500Y-95897648D01*
X97779500Y-95897648D01*
X97779500Y-96102351D01*
X97811522Y-96304534D01*
X97874781Y-96499223D01*
X97967715Y-96681613D01*
X98088028Y-96847213D01*
X98232786Y-96991971D01*
X98387749Y-97104556D01*
X98398390Y-97112287D01*
X98514607Y-97171503D01*
X98580776Y-97205218D01*
X98580778Y-97205218D01*
X98580781Y-97205220D01*
X98685137Y-97239127D01*
X98775465Y-97268477D01*
X98876557Y-97284488D01*
X98977648Y-97300500D01*
X98977649Y-97300500D01*
X99182351Y-97300500D01*
X99182352Y-97300500D01*
X99384534Y-97268477D01*
X99398842Y-97263827D01*
X99468682Y-97261831D01*
X99524842Y-97294077D01*
X107198339Y-104967574D01*
X107198349Y-104967585D01*
X107202679Y-104971915D01*
X107202680Y-104971916D01*
X107314484Y-105083720D01*
X107401295Y-105133839D01*
X107401297Y-105133841D01*
X107439351Y-105155811D01*
X107451415Y-105162777D01*
X107604143Y-105203700D01*
X107762257Y-105203700D01*
X134355500Y-105203700D01*
X134422539Y-105223385D01*
X134468294Y-105276189D01*
X134479500Y-105327700D01*
X134479500Y-109270397D01*
X134459815Y-109337436D01*
X134411800Y-109380879D01*
X134398389Y-109387712D01*
X134232786Y-109508028D01*
X134088028Y-109652786D01*
X133967715Y-109818386D01*
X133874781Y-110000776D01*
X133811522Y-110195465D01*
X133779500Y-110397648D01*
X133779500Y-110602351D01*
X133811522Y-110804534D01*
X133874781Y-110999223D01*
X133967715Y-111181613D01*
X134088028Y-111347213D01*
X134232786Y-111491971D01*
X134387749Y-111604556D01*
X134398390Y-111612287D01*
X134514607Y-111671503D01*
X134580776Y-111705218D01*
X134580778Y-111705218D01*
X134580781Y-111705220D01*
X134685137Y-111739127D01*
X134775465Y-111768477D01*
X134876557Y-111784488D01*
X134977648Y-111800500D01*
X134977649Y-111800500D01*
X135182351Y-111800500D01*
X135182352Y-111800500D01*
X135384534Y-111768477D01*
X135579219Y-111705220D01*
X135761610Y-111612287D01*
X135854590Y-111544732D01*
X135927213Y-111491971D01*
X135927215Y-111491968D01*
X135927219Y-111491966D01*
X136071966Y-111347219D01*
X136071968Y-111347215D01*
X136071971Y-111347213D01*
X136124732Y-111274590D01*
X136192287Y-111181610D01*
X136285220Y-110999219D01*
X136348477Y-110804534D01*
X136380500Y-110602352D01*
X136380500Y-110397648D01*
X136348477Y-110195466D01*
X136285220Y-110000781D01*
X136285218Y-110000778D01*
X136285218Y-110000776D01*
X136251503Y-109934607D01*
X136192287Y-109818390D01*
X136184556Y-109807749D01*
X136071971Y-109652786D01*
X135927213Y-109508028D01*
X135761610Y-109387712D01*
X135748200Y-109380879D01*
X135697406Y-109332903D01*
X135680500Y-109270397D01*
X135680500Y-105327700D01*
X135700185Y-105260661D01*
X135752989Y-105214906D01*
X135804500Y-105203700D01*
X162390131Y-105203700D01*
X162390147Y-105203701D01*
X162397743Y-105203701D01*
X162555854Y-105203701D01*
X162555857Y-105203701D01*
X162708585Y-105162777D01*
X162758704Y-105133839D01*
X162845516Y-105083720D01*
X162957320Y-104971916D01*
X162957320Y-104971914D01*
X162967528Y-104961707D01*
X162967530Y-104961704D01*
X170635158Y-97294075D01*
X170696479Y-97260592D01*
X170761151Y-97263825D01*
X170775466Y-97268477D01*
X170977648Y-97300500D01*
X170977649Y-97300500D01*
X171182351Y-97300500D01*
X171182352Y-97300500D01*
X171384534Y-97268477D01*
X171579219Y-97205220D01*
X171761610Y-97112287D01*
X171854590Y-97044732D01*
X171927213Y-96991971D01*
X171927215Y-96991968D01*
X171927219Y-96991966D01*
X172071966Y-96847219D01*
X172071968Y-96847215D01*
X172071971Y-96847213D01*
X172124732Y-96774590D01*
X172192287Y-96681610D01*
X172285220Y-96499219D01*
X172348477Y-96304534D01*
X172380500Y-96102352D01*
X172380500Y-95897648D01*
X172348477Y-95695466D01*
X172285220Y-95500781D01*
X172285218Y-95500778D01*
X172285218Y-95500776D01*
X172232329Y-95396977D01*
X172192287Y-95318390D01*
X172124343Y-95224872D01*
X172071971Y-95152786D01*
X171927213Y-95008028D01*
X171761613Y-94887715D01*
X171761612Y-94887714D01*
X171761610Y-94887713D01*
X171704653Y-94858691D01*
X171579223Y-94794781D01*
X171384534Y-94731522D01*
X171209995Y-94703878D01*
X171182352Y-94699500D01*
X170977648Y-94699500D01*
X170953329Y-94703351D01*
X170775465Y-94731522D01*
X170580776Y-94794781D01*
X170398386Y-94887715D01*
X170232786Y-95008028D01*
X170088028Y-95152786D01*
X169967715Y-95318386D01*
X169874781Y-95500776D01*
X169811522Y-95695465D01*
X169779500Y-95897648D01*
X169779500Y-96102351D01*
X169811522Y-96304534D01*
X169816173Y-96318848D01*
X169818165Y-96388690D01*
X169785921Y-96444842D01*
X162264384Y-103966381D01*
X162203061Y-103999866D01*
X162176703Y-104002700D01*
X107983297Y-104002700D01*
X107916258Y-103983015D01*
X107895616Y-103966381D01*
X103252814Y-99323579D01*
X123529972Y-99323579D01*
X123570793Y-99364400D01*
X124033514Y-99770196D01*
X124521774Y-100144851D01*
X125033486Y-100486766D01*
X125033511Y-100486782D01*
X125566496Y-100794501D01*
X126118472Y-101066705D01*
X126687067Y-101302225D01*
X126687078Y-101302229D01*
X127269852Y-101500055D01*
X127269860Y-101500057D01*
X127864345Y-101659349D01*
X127864363Y-101659353D01*
X128467952Y-101779414D01*
X128467963Y-101779416D01*
X129078139Y-101859747D01*
X129692287Y-101900000D01*
X130307713Y-101900000D01*
X130921860Y-101859747D01*
X131532036Y-101779416D01*
X131532047Y-101779414D01*
X132135636Y-101659353D01*
X132135654Y-101659349D01*
X132730139Y-101500057D01*
X132730147Y-101500055D01*
X133312921Y-101302229D01*
X133312932Y-101302225D01*
X133881527Y-101066705D01*
X134433503Y-100794501D01*
X134966488Y-100486782D01*
X134966513Y-100486766D01*
X135478225Y-100144851D01*
X135966485Y-99770196D01*
X136429207Y-99364400D01*
X136470027Y-99323579D01*
X130000000Y-92853553D01*
X123529972Y-99323579D01*
X103252814Y-99323579D01*
X100374077Y-96444842D01*
X100340592Y-96383519D01*
X100343828Y-96318841D01*
X100348477Y-96304534D01*
X100380500Y-96102352D01*
X100380500Y-95897648D01*
X100348477Y-95695466D01*
X100285220Y-95500781D01*
X100285218Y-95500778D01*
X100285218Y-95500776D01*
X100232329Y-95396977D01*
X100192287Y-95318390D01*
X100124343Y-95224872D01*
X100071971Y-95152786D01*
X99927213Y-95008028D01*
X99761613Y-94887715D01*
X99761612Y-94887714D01*
X99761610Y-94887713D01*
X99704653Y-94858691D01*
X99579223Y-94794781D01*
X99384534Y-94731522D01*
X99209995Y-94703878D01*
X99182352Y-94699500D01*
X98977648Y-94699500D01*
X98953329Y-94703351D01*
X98775465Y-94731522D01*
X98580776Y-94794781D01*
X98398386Y-94887715D01*
X98232786Y-95008028D01*
X98088028Y-95152786D01*
X97967715Y-95318386D01*
X97874781Y-95500776D01*
X97811522Y-95695465D01*
X97779500Y-95897648D01*
X90220500Y-95897648D01*
X90188477Y-95695466D01*
X90125220Y-95500781D01*
X90125218Y-95500778D01*
X90125218Y-95500776D01*
X90072329Y-95396977D01*
X90032287Y-95318390D01*
X89964343Y-95224872D01*
X89911971Y-95152786D01*
X89767213Y-95008028D01*
X89601613Y-94887715D01*
X89601612Y-94887714D01*
X89601610Y-94887713D01*
X89544653Y-94858691D01*
X89419223Y-94794781D01*
X89224534Y-94731522D01*
X89049995Y-94703878D01*
X89022352Y-94699500D01*
X88817648Y-94699500D01*
X88793329Y-94703351D01*
X88615465Y-94731522D01*
X88420776Y-94794781D01*
X88238386Y-94887715D01*
X88072786Y-95008028D01*
X87928028Y-95152786D01*
X87807715Y-95318386D01*
X87714781Y-95500776D01*
X87651522Y-95695465D01*
X87619500Y-95897648D01*
X84836609Y-95897648D01*
X84743576Y-95586443D01*
X84742163Y-95581317D01*
X84724558Y-95511631D01*
X84521991Y-94709804D01*
X84520797Y-94704606D01*
X84368524Y-93970103D01*
X84338321Y-93824416D01*
X84337363Y-93819241D01*
X84192919Y-92931985D01*
X84192176Y-92926708D01*
X84183478Y-92853553D01*
X84086041Y-92034094D01*
X84085527Y-92028799D01*
X84073171Y-91865051D01*
X84017891Y-91132429D01*
X84017606Y-91127110D01*
X84009308Y-90870097D01*
X117949500Y-90870097D01*
X117949500Y-91129902D01*
X117990140Y-91386493D01*
X118070422Y-91633576D01*
X118188368Y-91865054D01*
X118311194Y-92034110D01*
X118341069Y-92075229D01*
X118524771Y-92258931D01*
X118524774Y-92258933D01*
X118734949Y-92411634D01*
X118734950Y-92411635D01*
X118789668Y-92439516D01*
X118840464Y-92487490D01*
X118857259Y-92555311D01*
X118834721Y-92621446D01*
X118789668Y-92660484D01*
X118734950Y-92688364D01*
X118734949Y-92688365D01*
X118524774Y-92841066D01*
X118524768Y-92841071D01*
X118341071Y-93024768D01*
X118341066Y-93024774D01*
X118188368Y-93234945D01*
X118070422Y-93466423D01*
X117990140Y-93713506D01*
X117949500Y-93970097D01*
X117949500Y-94229902D01*
X117990140Y-94486493D01*
X118070422Y-94733576D01*
X118188368Y-94965054D01*
X118324763Y-95152786D01*
X118341069Y-95175229D01*
X118524771Y-95358931D01*
X118734949Y-95511634D01*
X118871709Y-95581317D01*
X118966423Y-95629577D01*
X118966425Y-95629577D01*
X118966428Y-95629579D01*
X119213507Y-95709860D01*
X119345706Y-95730797D01*
X119470098Y-95750500D01*
X119470103Y-95750500D01*
X119729902Y-95750500D01*
X119843298Y-95732539D01*
X119986493Y-95709860D01*
X120233572Y-95629579D01*
X120465051Y-95511634D01*
X120675229Y-95358931D01*
X120809290Y-95224869D01*
X120870609Y-95191387D01*
X120940301Y-95196371D01*
X120996235Y-95238242D01*
X121014387Y-95272694D01*
X121197770Y-95812921D01*
X121197774Y-95812932D01*
X121433294Y-96381527D01*
X121705498Y-96933503D01*
X122013217Y-97466488D01*
X122013233Y-97466513D01*
X122355148Y-97978225D01*
X122729803Y-98466485D01*
X123135606Y-98929214D01*
X123176419Y-98970027D01*
X129646446Y-92500000D01*
X129646446Y-92499999D01*
X130353553Y-92499999D01*
X130353553Y-92500001D01*
X136823579Y-98970027D01*
X136823580Y-98970027D01*
X136864400Y-98929207D01*
X137270196Y-98466485D01*
X137644851Y-97978225D01*
X137986766Y-97466513D01*
X137986782Y-97466488D01*
X138294501Y-96933503D01*
X138566705Y-96381527D01*
X138767135Y-95897648D01*
X159619500Y-95897648D01*
X159619500Y-96102351D01*
X159651522Y-96304534D01*
X159714781Y-96499223D01*
X159807715Y-96681613D01*
X159928028Y-96847213D01*
X160072786Y-96991971D01*
X160227749Y-97104556D01*
X160238390Y-97112287D01*
X160354607Y-97171503D01*
X160420776Y-97205218D01*
X160420778Y-97205218D01*
X160420781Y-97205220D01*
X160525137Y-97239127D01*
X160615465Y-97268477D01*
X160716557Y-97284488D01*
X160817648Y-97300500D01*
X160817649Y-97300500D01*
X161022351Y-97300500D01*
X161022352Y-97300500D01*
X161224534Y-97268477D01*
X161419219Y-97205220D01*
X161601610Y-97112287D01*
X161694590Y-97044732D01*
X161767213Y-96991971D01*
X161767215Y-96991968D01*
X161767219Y-96991966D01*
X161911966Y-96847219D01*
X161911968Y-96847215D01*
X161911971Y-96847213D01*
X161964732Y-96774590D01*
X162032287Y-96681610D01*
X162125220Y-96499219D01*
X162188477Y-96304534D01*
X162220500Y-96102352D01*
X162220500Y-95897648D01*
X162188477Y-95695466D01*
X162125220Y-95500781D01*
X162125218Y-95500778D01*
X162125218Y-95500776D01*
X162072329Y-95396977D01*
X162032287Y-95318390D01*
X161964343Y-95224872D01*
X161911971Y-95152786D01*
X161767213Y-95008028D01*
X161601613Y-94887715D01*
X161601612Y-94887714D01*
X161601610Y-94887713D01*
X161544653Y-94858691D01*
X161419223Y-94794781D01*
X161224534Y-94731522D01*
X161049995Y-94703878D01*
X161022352Y-94699500D01*
X160817648Y-94699500D01*
X160793329Y-94703351D01*
X160615465Y-94731522D01*
X160420776Y-94794781D01*
X160238386Y-94887715D01*
X160072786Y-95008028D01*
X159928028Y-95152786D01*
X159807715Y-95318386D01*
X159714781Y-95500776D01*
X159651522Y-95695465D01*
X159619500Y-95897648D01*
X138767135Y-95897648D01*
X138788809Y-95845323D01*
X138802225Y-95812932D01*
X138802233Y-95812912D01*
X138985612Y-95272695D01*
X139025801Y-95215540D01*
X139090510Y-95189187D01*
X139159194Y-95202001D01*
X139190712Y-95224872D01*
X139324771Y-95358931D01*
X139534949Y-95511634D01*
X139671709Y-95581317D01*
X139766423Y-95629577D01*
X139766425Y-95629577D01*
X139766428Y-95629579D01*
X140013507Y-95709860D01*
X140145706Y-95730797D01*
X140270098Y-95750500D01*
X140270103Y-95750500D01*
X140529902Y-95750500D01*
X140643298Y-95732539D01*
X140786493Y-95709860D01*
X141033572Y-95629579D01*
X141265051Y-95511634D01*
X141475229Y-95358931D01*
X141658931Y-95175229D01*
X141811634Y-94965051D01*
X141929579Y-94733572D01*
X142009860Y-94486493D01*
X142032539Y-94343298D01*
X142050500Y-94229902D01*
X142050500Y-93970097D01*
X142027016Y-93821829D01*
X142009860Y-93713507D01*
X141929579Y-93466428D01*
X141929577Y-93466425D01*
X141929577Y-93466423D01*
X141886787Y-93382445D01*
X141811634Y-93234949D01*
X141658931Y-93024771D01*
X141475229Y-92841069D01*
X141265051Y-92688366D01*
X141210330Y-92660484D01*
X141159535Y-92612511D01*
X141142740Y-92544690D01*
X141165277Y-92478555D01*
X141210329Y-92439515D01*
X141265051Y-92411634D01*
X141475229Y-92258931D01*
X141658931Y-92075229D01*
X141811634Y-91865051D01*
X141929579Y-91633572D01*
X142009860Y-91386493D01*
X142032539Y-91243298D01*
X142050500Y-91129902D01*
X142050500Y-90870097D01*
X142028947Y-90734021D01*
X142009860Y-90613507D01*
X141929579Y-90366428D01*
X141929577Y-90366425D01*
X141929577Y-90366423D01*
X141856698Y-90223392D01*
X141811634Y-90134949D01*
X141658931Y-89924771D01*
X141475229Y-89741069D01*
X141265051Y-89588366D01*
X141192764Y-89551534D01*
X141033576Y-89470422D01*
X140786493Y-89390140D01*
X140529902Y-89349500D01*
X140529897Y-89349500D01*
X140270103Y-89349500D01*
X140270098Y-89349500D01*
X140013506Y-89390140D01*
X139766423Y-89470422D01*
X139534945Y-89588368D01*
X139324774Y-89741066D01*
X139214461Y-89851379D01*
X139153138Y-89884863D01*
X139083446Y-89879879D01*
X139027513Y-89838007D01*
X139007005Y-89795788D01*
X139000059Y-89769866D01*
X139000058Y-89769860D01*
X138802229Y-89187078D01*
X138802225Y-89187067D01*
X138566705Y-88618472D01*
X138294501Y-88066496D01*
X137986782Y-87533511D01*
X137986766Y-87533486D01*
X137644851Y-87021774D01*
X137270196Y-86533514D01*
X136864393Y-86070785D01*
X136823580Y-86029972D01*
X130353553Y-92499999D01*
X129646446Y-92499999D01*
X123176419Y-86029972D01*
X123176418Y-86029972D01*
X123135628Y-86070762D01*
X123135601Y-86070791D01*
X122729803Y-86533514D01*
X122355148Y-87021774D01*
X122013233Y-87533486D01*
X122013217Y-87533511D01*
X121705498Y-88066496D01*
X121433294Y-88618472D01*
X121197774Y-89187067D01*
X121197770Y-89187078D01*
X120999944Y-89769852D01*
X120999942Y-89769860D01*
X120992994Y-89795791D01*
X120956628Y-89855451D01*
X120893781Y-89885980D01*
X120824406Y-89877685D01*
X120785538Y-89851378D01*
X120675231Y-89741071D01*
X120675225Y-89741066D01*
X120465054Y-89588368D01*
X120465053Y-89588367D01*
X120465051Y-89588366D01*
X120392764Y-89551534D01*
X120233576Y-89470422D01*
X119986493Y-89390140D01*
X119729902Y-89349500D01*
X119729897Y-89349500D01*
X119470103Y-89349500D01*
X119470098Y-89349500D01*
X119213506Y-89390140D01*
X118966423Y-89470422D01*
X118734945Y-89588368D01*
X118524774Y-89741066D01*
X118524768Y-89741071D01*
X118341071Y-89924768D01*
X118341066Y-89924774D01*
X118188368Y-90134945D01*
X118070422Y-90366423D01*
X117990140Y-90613506D01*
X117949500Y-90870097D01*
X84009308Y-90870097D01*
X84009280Y-90869232D01*
X84001023Y-90613506D01*
X83988598Y-90228701D01*
X83988541Y-90223418D01*
X83998212Y-89324536D01*
X83998384Y-89319215D01*
X84010676Y-89090950D01*
X84046717Y-88421608D01*
X84047119Y-88416294D01*
X84081096Y-88066496D01*
X84134025Y-87521589D01*
X84134644Y-87516376D01*
X84259965Y-86626220D01*
X84260821Y-86620964D01*
X84424320Y-85737028D01*
X84425396Y-85731843D01*
X84438136Y-85676417D01*
X123529972Y-85676417D01*
X123529972Y-85676418D01*
X129999999Y-92146446D01*
X136470027Y-85676419D01*
X136429214Y-85635606D01*
X135966485Y-85229803D01*
X135478225Y-84855148D01*
X134966513Y-84513233D01*
X134966488Y-84513217D01*
X134433503Y-84205498D01*
X133881527Y-83933294D01*
X133312932Y-83697774D01*
X133312921Y-83697770D01*
X132730147Y-83499944D01*
X132730139Y-83499942D01*
X132135654Y-83340650D01*
X132135636Y-83340646D01*
X131532047Y-83220585D01*
X131532036Y-83220583D01*
X130921860Y-83140252D01*
X130307713Y-83100000D01*
X129692287Y-83100000D01*
X129078139Y-83140252D01*
X128467963Y-83220583D01*
X128467952Y-83220585D01*
X127864363Y-83340646D01*
X127864345Y-83340650D01*
X127269860Y-83499942D01*
X127269852Y-83499944D01*
X126687078Y-83697770D01*
X126687067Y-83697774D01*
X126118472Y-83933294D01*
X125566496Y-84205498D01*
X125033511Y-84513217D01*
X125033486Y-84513233D01*
X124521774Y-84855148D01*
X124033514Y-85229803D01*
X123570791Y-85635601D01*
X123570762Y-85635628D01*
X123529972Y-85676417D01*
X84438136Y-85676417D01*
X84447518Y-85635601D01*
X84626770Y-84855773D01*
X84628062Y-84850659D01*
X84866955Y-83984013D01*
X84868465Y-83978963D01*
X85144411Y-83123429D01*
X85146137Y-83118447D01*
X85458637Y-82275573D01*
X85460578Y-82270663D01*
X85809053Y-81442006D01*
X85811206Y-81437181D01*
X86194987Y-80624330D01*
X86197364Y-80619564D01*
X86391716Y-80250000D01*
X86560766Y-79928549D01*
X95069500Y-79928549D01*
X95069500Y-80151450D01*
X95069501Y-80151466D01*
X95098594Y-80372452D01*
X95098595Y-80372457D01*
X95098596Y-80372463D01*
X95134857Y-80507790D01*
X95156290Y-80587780D01*
X95156293Y-80587790D01*
X95208456Y-80713722D01*
X95241595Y-80793726D01*
X95353052Y-80986774D01*
X95353057Y-80986780D01*
X95353058Y-80986782D01*
X95488751Y-81163622D01*
X95488757Y-81163629D01*
X95646370Y-81321242D01*
X95646376Y-81321247D01*
X95823226Y-81456948D01*
X96016274Y-81568405D01*
X96146140Y-81622197D01*
X96197207Y-81643350D01*
X96222219Y-81653710D01*
X96437537Y-81711404D01*
X96658543Y-81740500D01*
X96658550Y-81740500D01*
X96881450Y-81740500D01*
X96881457Y-81740500D01*
X97102463Y-81711404D01*
X97317781Y-81653710D01*
X97523726Y-81568405D01*
X97716774Y-81456948D01*
X97893624Y-81321247D01*
X98051247Y-81163624D01*
X98186948Y-80986774D01*
X98298405Y-80793726D01*
X98383710Y-80587781D01*
X98441404Y-80372463D01*
X98470500Y-80151457D01*
X98470500Y-79928543D01*
X98441404Y-79707537D01*
X98383710Y-79492219D01*
X98362448Y-79440889D01*
X98298406Y-79286277D01*
X98298405Y-79286274D01*
X98186948Y-79093226D01*
X98051247Y-78916376D01*
X98051242Y-78916370D01*
X97893629Y-78758757D01*
X97893622Y-78758751D01*
X97885026Y-78752155D01*
X99390000Y-78752155D01*
X99390000Y-79750000D01*
X100541518Y-79750000D01*
X100530889Y-79768409D01*
X100490000Y-79921009D01*
X100490000Y-80078991D01*
X100530889Y-80231591D01*
X100541518Y-80250000D01*
X99390000Y-80250000D01*
X99390000Y-81247844D01*
X99396401Y-81307372D01*
X99396403Y-81307379D01*
X99446645Y-81442086D01*
X99446649Y-81442093D01*
X99532809Y-81557187D01*
X99532812Y-81557190D01*
X99647906Y-81643350D01*
X99647913Y-81643354D01*
X99782620Y-81693596D01*
X99782627Y-81693598D01*
X99842155Y-81699999D01*
X99842172Y-81700000D01*
X100840000Y-81700000D01*
X100840000Y-80548482D01*
X100858409Y-80559111D01*
X101011009Y-80600000D01*
X101168991Y-80600000D01*
X101321591Y-80559111D01*
X101340000Y-80548482D01*
X101340000Y-81700000D01*
X102337828Y-81700000D01*
X102337844Y-81699999D01*
X102397372Y-81693598D01*
X102397379Y-81693596D01*
X102532086Y-81643354D01*
X102532093Y-81643350D01*
X102647187Y-81557190D01*
X102647190Y-81557187D01*
X102733350Y-81442093D01*
X102733354Y-81442086D01*
X102783596Y-81307379D01*
X102783598Y-81307372D01*
X102789999Y-81247844D01*
X102790000Y-81247827D01*
X102790000Y-80250000D01*
X101638482Y-80250000D01*
X101649111Y-80231591D01*
X101690000Y-80078991D01*
X101690000Y-79921009D01*
X101649111Y-79768409D01*
X101638482Y-79750000D01*
X102790000Y-79750000D01*
X102790000Y-78752172D01*
X102789999Y-78752155D01*
X157210000Y-78752155D01*
X157210000Y-79750000D01*
X158361518Y-79750000D01*
X158350889Y-79768409D01*
X158310000Y-79921009D01*
X158310000Y-80078991D01*
X158350889Y-80231591D01*
X158361518Y-80250000D01*
X157210000Y-80250000D01*
X157210000Y-81247844D01*
X157216401Y-81307372D01*
X157216403Y-81307379D01*
X157266645Y-81442086D01*
X157266649Y-81442093D01*
X157352809Y-81557187D01*
X157352812Y-81557190D01*
X157467906Y-81643350D01*
X157467913Y-81643354D01*
X157602620Y-81693596D01*
X157602627Y-81693598D01*
X157662155Y-81699999D01*
X157662172Y-81700000D01*
X158660000Y-81700000D01*
X158660000Y-80548482D01*
X158678409Y-80559111D01*
X158831009Y-80600000D01*
X158988991Y-80600000D01*
X159141591Y-80559111D01*
X159160000Y-80548482D01*
X159160000Y-81700000D01*
X160157828Y-81700000D01*
X160157844Y-81699999D01*
X160217372Y-81693598D01*
X160217379Y-81693596D01*
X160352086Y-81643354D01*
X160352093Y-81643350D01*
X160467187Y-81557190D01*
X160467190Y-81557187D01*
X160553350Y-81442093D01*
X160553354Y-81442086D01*
X160603596Y-81307379D01*
X160603598Y-81307372D01*
X160609999Y-81247844D01*
X160610000Y-81247827D01*
X160610000Y-80250000D01*
X159458482Y-80250000D01*
X159469111Y-80231591D01*
X159510000Y-80078991D01*
X159510000Y-79921009D01*
X159490584Y-79848549D01*
X161529500Y-79848549D01*
X161529500Y-80071450D01*
X161529501Y-80071466D01*
X161558594Y-80292452D01*
X161558595Y-80292457D01*
X161558596Y-80292463D01*
X161608878Y-80480119D01*
X161616290Y-80507780D01*
X161616293Y-80507790D01*
X161701593Y-80713722D01*
X161701595Y-80713726D01*
X161813052Y-80906774D01*
X161813057Y-80906780D01*
X161813058Y-80906782D01*
X161948751Y-81083622D01*
X161948757Y-81083629D01*
X162106370Y-81241242D01*
X162106376Y-81241247D01*
X162283226Y-81376948D01*
X162476274Y-81488405D01*
X162606140Y-81542197D01*
X162669411Y-81568405D01*
X162682219Y-81573710D01*
X162897537Y-81631404D01*
X163118543Y-81660500D01*
X163118550Y-81660500D01*
X163341450Y-81660500D01*
X163341457Y-81660500D01*
X163562463Y-81631404D01*
X163777781Y-81573710D01*
X163983726Y-81488405D01*
X164176774Y-81376948D01*
X164353624Y-81241247D01*
X164511247Y-81083624D01*
X164646948Y-80906774D01*
X164758405Y-80713726D01*
X164843710Y-80507781D01*
X164901404Y-80292463D01*
X164930500Y-80071457D01*
X164930500Y-79848543D01*
X164901404Y-79627537D01*
X164843710Y-79412219D01*
X164758405Y-79206274D01*
X164646948Y-79013226D01*
X164511247Y-78836376D01*
X164511242Y-78836370D01*
X164353629Y-78678757D01*
X164353622Y-78678751D01*
X164176782Y-78543058D01*
X164176780Y-78543057D01*
X164176774Y-78543052D01*
X163983726Y-78431595D01*
X163983722Y-78431593D01*
X163777790Y-78346293D01*
X163777783Y-78346291D01*
X163777781Y-78346290D01*
X163562463Y-78288596D01*
X163562457Y-78288595D01*
X163562452Y-78288594D01*
X163341466Y-78259501D01*
X163341463Y-78259500D01*
X163341457Y-78259500D01*
X163118543Y-78259500D01*
X163118537Y-78259500D01*
X163118533Y-78259501D01*
X162897547Y-78288594D01*
X162897540Y-78288595D01*
X162897537Y-78288596D01*
X162707560Y-78339500D01*
X162682219Y-78346290D01*
X162682209Y-78346293D01*
X162476277Y-78431593D01*
X162476273Y-78431595D01*
X162283226Y-78543052D01*
X162283217Y-78543058D01*
X162106377Y-78678751D01*
X162106370Y-78678757D01*
X161948757Y-78836370D01*
X161948751Y-78836377D01*
X161813058Y-79013217D01*
X161813052Y-79013226D01*
X161701595Y-79206273D01*
X161701593Y-79206277D01*
X161616293Y-79412209D01*
X161616290Y-79412219D01*
X161558597Y-79627534D01*
X161558594Y-79627547D01*
X161529501Y-79848533D01*
X161529500Y-79848549D01*
X159490584Y-79848549D01*
X159469111Y-79768409D01*
X159458482Y-79750000D01*
X160610000Y-79750000D01*
X160610000Y-78752172D01*
X160609999Y-78752155D01*
X160603598Y-78692627D01*
X160603596Y-78692620D01*
X160553354Y-78557913D01*
X160553350Y-78557906D01*
X160467190Y-78442812D01*
X160467187Y-78442809D01*
X160352093Y-78356649D01*
X160352086Y-78356645D01*
X160217379Y-78306403D01*
X160217372Y-78306401D01*
X160157844Y-78300000D01*
X159160000Y-78300000D01*
X159160000Y-79451517D01*
X159141591Y-79440889D01*
X158988991Y-79400000D01*
X158831009Y-79400000D01*
X158678409Y-79440889D01*
X158660000Y-79451517D01*
X158660000Y-78300000D01*
X157662155Y-78300000D01*
X157602627Y-78306401D01*
X157602620Y-78306403D01*
X157467913Y-78356645D01*
X157467906Y-78356649D01*
X157352812Y-78442809D01*
X157352809Y-78442812D01*
X157266649Y-78557906D01*
X157266645Y-78557913D01*
X157216403Y-78692620D01*
X157216401Y-78692627D01*
X157210000Y-78752155D01*
X102789999Y-78752155D01*
X102783598Y-78692627D01*
X102783596Y-78692620D01*
X102733354Y-78557913D01*
X102733350Y-78557906D01*
X102647190Y-78442812D01*
X102647187Y-78442809D01*
X102532093Y-78356649D01*
X102532086Y-78356645D01*
X102397379Y-78306403D01*
X102397372Y-78306401D01*
X102337844Y-78300000D01*
X101340000Y-78300000D01*
X101340000Y-79451517D01*
X101321591Y-79440889D01*
X101168991Y-79400000D01*
X101011009Y-79400000D01*
X100858409Y-79440889D01*
X100840000Y-79451517D01*
X100840000Y-78300000D01*
X99842155Y-78300000D01*
X99782627Y-78306401D01*
X99782620Y-78306403D01*
X99647913Y-78356645D01*
X99647906Y-78356649D01*
X99532812Y-78442809D01*
X99532809Y-78442812D01*
X99446649Y-78557906D01*
X99446645Y-78557913D01*
X99396403Y-78692620D01*
X99396401Y-78692627D01*
X99390000Y-78752155D01*
X97885026Y-78752155D01*
X97716782Y-78623058D01*
X97716780Y-78623057D01*
X97716774Y-78623052D01*
X97523726Y-78511595D01*
X97523722Y-78511593D01*
X97317790Y-78426293D01*
X97317783Y-78426291D01*
X97317781Y-78426290D01*
X97102463Y-78368596D01*
X97102457Y-78368595D01*
X97102452Y-78368594D01*
X96881466Y-78339501D01*
X96881463Y-78339500D01*
X96881457Y-78339500D01*
X96658543Y-78339500D01*
X96658537Y-78339500D01*
X96658533Y-78339501D01*
X96437547Y-78368594D01*
X96437540Y-78368595D01*
X96437537Y-78368596D01*
X96222219Y-78426290D01*
X96222209Y-78426293D01*
X96016277Y-78511593D01*
X96016273Y-78511595D01*
X95823226Y-78623052D01*
X95823217Y-78623058D01*
X95646377Y-78758751D01*
X95646370Y-78758757D01*
X95488757Y-78916370D01*
X95488751Y-78916377D01*
X95353058Y-79093217D01*
X95353052Y-79093226D01*
X95241595Y-79286273D01*
X95241593Y-79286277D01*
X95156293Y-79492209D01*
X95156290Y-79492219D01*
X95098597Y-79707534D01*
X95098594Y-79707547D01*
X95069501Y-79928533D01*
X95069500Y-79928549D01*
X86560766Y-79928549D01*
X86615769Y-79823959D01*
X86618332Y-79819330D01*
X87070594Y-79042437D01*
X87073356Y-79037919D01*
X87558618Y-78281209D01*
X87561539Y-78276862D01*
X88078945Y-77541676D01*
X88082053Y-77537458D01*
X88630586Y-76825244D01*
X88633889Y-76821141D01*
X89212537Y-76133206D01*
X89216025Y-76129236D01*
X89823746Y-75466821D01*
X89827391Y-75463016D01*
X90463038Y-74827369D01*
X90466843Y-74823724D01*
X91129258Y-74216003D01*
X91133228Y-74212515D01*
X91821163Y-73633867D01*
X91825266Y-73630564D01*
X92537480Y-73082031D01*
X92541698Y-73078923D01*
X93276884Y-72561517D01*
X93281231Y-72558596D01*
X94037941Y-72073334D01*
X94042459Y-72070572D01*
X94819352Y-71618310D01*
X94823965Y-71615756D01*
X95525664Y-71246735D01*
X95619586Y-71197342D01*
X95624361Y-71194961D01*
X96437203Y-70811184D01*
X96442028Y-70809031D01*
X97270685Y-70460556D01*
X97275595Y-70458615D01*
X98118469Y-70146115D01*
X98123451Y-70144389D01*
X98978985Y-69868443D01*
X98984035Y-69866933D01*
X99850681Y-69628040D01*
X99855795Y-69626748D01*
X100731908Y-69425364D01*
X100737050Y-69424298D01*
X101620996Y-69260797D01*
X101626242Y-69259943D01*
X102516398Y-69134622D01*
X102521611Y-69134003D01*
X103416323Y-69047096D01*
X103421630Y-69046695D01*
X104319250Y-68998361D01*
X104324558Y-68998190D01*
X105223440Y-68988519D01*
X105228723Y-68988576D01*
X106127142Y-69017584D01*
X106132451Y-69017869D01*
X107028837Y-69085506D01*
X107034116Y-69086019D01*
X107926736Y-69192154D01*
X107932007Y-69192897D01*
X108819263Y-69337341D01*
X108824438Y-69338299D01*
X109702308Y-69520294D01*
X109704628Y-69520775D01*
X109709826Y-69521969D01*
X110581358Y-69742146D01*
X110586465Y-69743554D01*
X111100792Y-69897310D01*
X111447704Y-70001018D01*
X111452783Y-70002656D01*
X112302140Y-70296932D01*
X112307143Y-70298787D01*
X113143083Y-70629342D01*
X113147947Y-70631388D01*
X113605895Y-70835674D01*
X113968874Y-70997595D01*
X113973700Y-70999873D01*
X114778111Y-71401058D01*
X114782776Y-71403510D01*
X115569241Y-71838963D01*
X115573816Y-71841627D01*
X115952859Y-72073345D01*
X116340742Y-72310466D01*
X116345225Y-72313340D01*
X116722257Y-72566734D01*
X117091317Y-72814770D01*
X117095655Y-72817823D01*
X117819438Y-73350855D01*
X117823654Y-73354102D01*
X117923602Y-73434564D01*
X118523883Y-73917816D01*
X118527936Y-73921226D01*
X119059863Y-74388558D01*
X119203224Y-74514510D01*
X119207155Y-74518116D01*
X119828783Y-75113552D01*
X119857251Y-75140820D01*
X119859158Y-75142687D01*
X119886426Y-75169955D01*
X119960118Y-75200479D01*
X119960120Y-75200479D01*
X120039880Y-75200479D01*
X120039882Y-75200479D01*
X120113574Y-75169955D01*
X120169976Y-75113553D01*
X120200500Y-75039861D01*
X120200500Y-75001931D01*
X120200561Y-74998037D01*
X120206040Y-74823701D01*
X120219715Y-74388541D01*
X120220201Y-74380805D01*
X120277407Y-73775636D01*
X120278383Y-73767917D01*
X120299611Y-73633889D01*
X120373468Y-73167570D01*
X120374918Y-73159968D01*
X120507525Y-72566715D01*
X120509454Y-72559208D01*
X120679036Y-71975502D01*
X120681440Y-71968105D01*
X120887341Y-71396193D01*
X120890193Y-71388991D01*
X121131606Y-70831117D01*
X121134910Y-70824096D01*
X121410872Y-70282489D01*
X121414612Y-70275687D01*
X121724035Y-69752482D01*
X121728190Y-69745935D01*
X122069858Y-69243185D01*
X122074408Y-69236922D01*
X122378004Y-68845528D01*
X127249500Y-68845528D01*
X127249500Y-69154471D01*
X127284086Y-69461437D01*
X127284089Y-69461455D01*
X127352831Y-69762635D01*
X127352835Y-69762647D01*
X127454862Y-70054222D01*
X127454868Y-70054236D01*
X127588903Y-70332562D01*
X127588905Y-70332565D01*
X127753265Y-70594143D01*
X127782977Y-70631400D01*
X127939404Y-70827554D01*
X127945880Y-70835674D01*
X128164326Y-71054120D01*
X128405857Y-71246735D01*
X128667435Y-71411095D01*
X128945771Y-71545135D01*
X128945777Y-71545137D01*
X129237352Y-71647164D01*
X129237364Y-71647168D01*
X129538548Y-71715911D01*
X129538554Y-71715911D01*
X129538562Y-71715913D01*
X129743206Y-71738970D01*
X129845529Y-71750499D01*
X129845532Y-71750500D01*
X129845535Y-71750500D01*
X130154468Y-71750500D01*
X130154469Y-71750499D01*
X130311356Y-71732822D01*
X130461437Y-71715913D01*
X130461442Y-71715912D01*
X130461452Y-71715911D01*
X130762636Y-71647168D01*
X131054229Y-71545135D01*
X131332565Y-71411095D01*
X131594143Y-71246735D01*
X131835674Y-71054120D01*
X132054120Y-70835674D01*
X132246735Y-70594143D01*
X132411095Y-70332565D01*
X132545135Y-70054229D01*
X132647168Y-69762636D01*
X132715911Y-69461452D01*
X132727015Y-69362906D01*
X132740865Y-69239977D01*
X132750500Y-69154465D01*
X132750500Y-68845535D01*
X132729439Y-68658610D01*
X132715913Y-68538562D01*
X132715910Y-68538544D01*
X132647168Y-68237364D01*
X132647164Y-68237352D01*
X132545137Y-67945777D01*
X132545135Y-67945771D01*
X132411095Y-67667435D01*
X132246735Y-67405857D01*
X132054120Y-67164326D01*
X131835674Y-66945880D01*
X131594143Y-66753265D01*
X131332565Y-66588905D01*
X131332562Y-66588903D01*
X131054236Y-66454868D01*
X131054222Y-66454862D01*
X130762647Y-66352835D01*
X130762635Y-66352831D01*
X130461455Y-66284089D01*
X130461437Y-66284086D01*
X130154471Y-66249500D01*
X130154465Y-66249500D01*
X129845535Y-66249500D01*
X129845528Y-66249500D01*
X129538562Y-66284086D01*
X129538544Y-66284089D01*
X129237364Y-66352831D01*
X129237352Y-66352835D01*
X128945777Y-66454862D01*
X128945763Y-66454868D01*
X128667437Y-66588903D01*
X128405858Y-66753264D01*
X128164326Y-66945879D01*
X127945879Y-67164326D01*
X127753264Y-67405858D01*
X127588903Y-67667437D01*
X127454868Y-67945763D01*
X127454862Y-67945777D01*
X127352835Y-68237352D01*
X127352831Y-68237364D01*
X127284089Y-68538544D01*
X127284086Y-68538562D01*
X127249500Y-68845528D01*
X122378004Y-68845528D01*
X122446975Y-68756611D01*
X122451911Y-68750644D01*
X122853917Y-68294657D01*
X122859219Y-68289012D01*
X123289033Y-67859199D01*
X123294678Y-67853897D01*
X123750653Y-67451900D01*
X123756646Y-67446944D01*
X124236958Y-67074375D01*
X124243187Y-67069850D01*
X124745955Y-66728168D01*
X124752502Y-66724014D01*
X125275708Y-66414592D01*
X125282510Y-66410852D01*
X125824118Y-66134888D01*
X125831138Y-66131585D01*
X126389011Y-65890171D01*
X126396223Y-65887317D01*
X126968155Y-65681409D01*
X126975496Y-65679024D01*
X127559228Y-65509434D01*
X127566735Y-65507505D01*
X128159988Y-65374898D01*
X128167590Y-65373448D01*
X128767944Y-65278362D01*
X128775657Y-65277387D01*
X129380826Y-65220181D01*
X129388562Y-65219695D01*
X129996118Y-65200602D01*
X130003882Y-65200602D01*
X130611434Y-65219695D01*
G37*
%TD.AperFunction*%
M02*
