%TF.GenerationSoftware,KiCad,Pcbnew,9.0.2*%
%TF.CreationDate,2025-07-23T12:53:51-04:00*%
%TF.ProjectId,mothers_day_necklace - 8cm with 6 points soldering,6d6f7468-6572-4735-9f64-61795f6e6563,A*%
%TF.SameCoordinates,Original*%
%TF.FileFunction,Profile,NP*%
%FSLAX46Y46*%
G04 Gerber Fmt 4.6, Leading zero omitted, Abs format (unit mm)*
G04 Created by KiCad (PCBNEW 9.0.2) date 2025-07-23 12:53:51*
%MOMM*%
%LPD*%
G01*
G04 APERTURE LIST*
%TA.AperFunction,Profile*%
%ADD10C,0.050000*%
%TD*%
%ADD11C,0.050000*%
G04 APERTURE END LIST*
D10*
X90000000Y-104999978D02*
G75*
G02*
X120000000Y-74999978I15000000J15000000D01*
G01*
D11*
X129000000Y-144000000D02*
X129004606Y-144004592D01*
X129009212Y-144009155D01*
X129013817Y-144013690D01*
X129018423Y-144018198D01*
X129023029Y-144022677D01*
X129027634Y-144027128D01*
X129032240Y-144031552D01*
X129036846Y-144035948D01*
X129041451Y-144040316D01*
X129046057Y-144044657D01*
X129050663Y-144048970D01*
X129055268Y-144053256D01*
X129059874Y-144057515D01*
X129064479Y-144061746D01*
X129069085Y-144065951D01*
X129073690Y-144070128D01*
X129078296Y-144074278D01*
X129082901Y-144078402D01*
X129087507Y-144082499D01*
X129092112Y-144086568D01*
X129096718Y-144090612D01*
X129101324Y-144094628D01*
X129105930Y-144098619D01*
X129110535Y-144102583D01*
X129115141Y-144106520D01*
X129119746Y-144110432D01*
X129124352Y-144114317D01*
X129128958Y-144118176D01*
X129133564Y-144122009D01*
X129138170Y-144125816D01*
X129142776Y-144129598D01*
X129147382Y-144133353D01*
X129151988Y-144137083D01*
X129156594Y-144140787D01*
X129161201Y-144144466D01*
X129165807Y-144148119D01*
X129170414Y-144151747D01*
X129175020Y-144155349D01*
X129179627Y-144158927D01*
X129184233Y-144162478D01*
X129188841Y-144166006D01*
X129193448Y-144169507D01*
X129198055Y-144172984D01*
X129202662Y-144176436D01*
X129207270Y-144179864D01*
X129211878Y-144183266D01*
X129216486Y-144186644D01*
X129221094Y-144189996D01*
X129225703Y-144193326D01*
X129230310Y-144196629D01*
X129234920Y-144199909D01*
X129239528Y-144203164D01*
X129244138Y-144206396D01*
X129248747Y-144209602D01*
X129253357Y-144212786D01*
X129257967Y-144215944D01*
X129262578Y-144219079D01*
X129267188Y-144222189D01*
X129271799Y-144225277D01*
X129276410Y-144228339D01*
X129281022Y-144231379D01*
X129285633Y-144234394D01*
X129290246Y-144237387D01*
X129294858Y-144240355D01*
X129299472Y-144243300D01*
X129304084Y-144246221D01*
X129308699Y-144249120D01*
X129313312Y-144251994D01*
X129317928Y-144254846D01*
X129322542Y-144257674D01*
X129327159Y-144260480D01*
X129331774Y-144263262D01*
X129336391Y-144266022D01*
X129341007Y-144268757D01*
X129345626Y-144271471D01*
X129350243Y-144274161D01*
X129354862Y-144276829D01*
X129359480Y-144279474D01*
X129364101Y-144282097D01*
X129368720Y-144284696D01*
X129373342Y-144287273D01*
X129377963Y-144289827D01*
X129382586Y-144292360D01*
X129387208Y-144294869D01*
X129391832Y-144297358D01*
X129396455Y-144299822D01*
X129401081Y-144302266D01*
X129405706Y-144304686D01*
X129414959Y-144309461D01*
X129424215Y-144314147D01*
X129433475Y-144318746D01*
X129442738Y-144323258D01*
X129452004Y-144327683D01*
X129461274Y-144332021D01*
X129470548Y-144336273D01*
X129479826Y-144340438D01*
X129489108Y-144344519D01*
X129498394Y-144348514D01*
X129507685Y-144352424D01*
X129516980Y-144356249D01*
X129526280Y-144359990D01*
X129535584Y-144363647D01*
X129544894Y-144367221D01*
X129554209Y-144370711D01*
X129563530Y-144374117D01*
X129572856Y-144377441D01*
X129582188Y-144380683D01*
X129591525Y-144383842D01*
X129600869Y-144386918D01*
X129610219Y-144389913D01*
X129619575Y-144392827D01*
X129628939Y-144395658D01*
X129638309Y-144398409D01*
X129647685Y-144401078D01*
X129657070Y-144403667D01*
X129666461Y-144406175D01*
X129675860Y-144408602D01*
X129685267Y-144410949D01*
X129694681Y-144413216D01*
X129704104Y-144415402D01*
X129713535Y-144417509D01*
X129722975Y-144419536D01*
X129732423Y-144421483D01*
X129741880Y-144423350D01*
X129751346Y-144425138D01*
X129760821Y-144426847D01*
X129770306Y-144428476D01*
X129779800Y-144430026D01*
X129789304Y-144431497D01*
X129798818Y-144432889D01*
X129808342Y-144434201D01*
X129817876Y-144435435D01*
X129827421Y-144436589D01*
X129836977Y-144437664D01*
X129846543Y-144438661D01*
X129856121Y-144439578D01*
X129865710Y-144440416D01*
X129875310Y-144441175D01*
X129884921Y-144441856D01*
X129894545Y-144442457D01*
X129904180Y-144442978D01*
X129913828Y-144443421D01*
X129923487Y-144443785D01*
X129933159Y-144444069D01*
X129942844Y-144444273D01*
X129952541Y-144444399D01*
X129962251Y-144444444D01*
X129971974Y-144444410D01*
X129981710Y-144444296D01*
X129991459Y-144444103D01*
X130001222Y-144443829D01*
X130010998Y-144443475D01*
X130020788Y-144443041D01*
X130030591Y-144442527D01*
X130040409Y-144441932D01*
X130050240Y-144441256D01*
X130060085Y-144440499D01*
X130069945Y-144439662D01*
X130079819Y-144438743D01*
X130089707Y-144437743D01*
X130099610Y-144436661D01*
X130109527Y-144435498D01*
X130119458Y-144434252D01*
X130129404Y-144432925D01*
X130139365Y-144431515D01*
X130149340Y-144430022D01*
X130159330Y-144428447D01*
X130169335Y-144426789D01*
X130179354Y-144425047D01*
X130189389Y-144423223D01*
X130199437Y-144421314D01*
X130209501Y-144419322D01*
X130219579Y-144417245D01*
X130229672Y-144415085D01*
X130239779Y-144412839D01*
X130249901Y-144410509D01*
X130260037Y-144408094D01*
X130270187Y-144405594D01*
X130280352Y-144403008D01*
X130290530Y-144400336D01*
X130300723Y-144397578D01*
X130310929Y-144394735D01*
X130321148Y-144391805D01*
X130331382Y-144388788D01*
X130341628Y-144385684D01*
X130351887Y-144382493D01*
X130362159Y-144379215D01*
X130372443Y-144375850D01*
X130382739Y-144372397D01*
X130393047Y-144368856D01*
X130403366Y-144365227D01*
X130413697Y-144361509D01*
X130424038Y-144357704D01*
X130434389Y-144353810D01*
X130444750Y-144349827D01*
X130455121Y-144345756D01*
X130465500Y-144341595D01*
X130475887Y-144337346D01*
X130486282Y-144333008D01*
X130496685Y-144328581D01*
X130507093Y-144324064D01*
X130517507Y-144319459D01*
X130527926Y-144314764D01*
X130538350Y-144309981D01*
X130548776Y-144305109D01*
X130559205Y-144300148D01*
X130569636Y-144295098D01*
X130580067Y-144289960D01*
X130590497Y-144284734D01*
X130600926Y-144279420D01*
X130611351Y-144274019D01*
X130621773Y-144268530D01*
X130632189Y-144262955D01*
X130642598Y-144257294D01*
X130652998Y-144251547D01*
X130663388Y-144245716D01*
X130673767Y-144239800D01*
X130684131Y-144233801D01*
X130694480Y-144227720D01*
X130704812Y-144221557D01*
X130715123Y-144215314D01*
X130725411Y-144208993D01*
X130735675Y-144202594D01*
X130745911Y-144196120D01*
X130756116Y-144189571D01*
X130766288Y-144182951D01*
X130776422Y-144176261D01*
X130786515Y-144169504D01*
X130796564Y-144162682D01*
X130806563Y-144155798D01*
X130816508Y-144148856D01*
X130826395Y-144141860D01*
X130836217Y-144134813D01*
X130845968Y-144127720D01*
X130855642Y-144120587D01*
X130865231Y-144113419D01*
X130874728Y-144106223D01*
X130884123Y-144099007D01*
X130893406Y-144091779D01*
X130902565Y-144084548D01*
X130911588Y-144077328D01*
X130920459Y-144070129D01*
X130929161Y-144062969D01*
X130937674Y-144055866D01*
X130945974Y-144048841D01*
X130954031Y-144041922D01*
X130961811Y-144035143D01*
X130969267Y-144028548D01*
X130976340Y-144022194D01*
X130982948Y-144016161D01*
X130988970Y-144010570D01*
X130994210Y-144005617D01*
X130998274Y-144001698D01*
X131000000Y-144000000D01*
D10*
X120000000Y-74999979D02*
G75*
G02*
X140000000Y-74999978I10000000J-1D01*
G01*
X131000000Y-144000000D02*
X169999999Y-104999978D01*
X90000001Y-104999978D02*
X129000000Y-144000000D01*
X140000000Y-74999978D02*
G75*
G02*
X170000000Y-104999978I15000000J-15000000D01*
G01*
M02*
